<svg width="125" height="42" viewBox="0 0 125 42" fill="none" xmlns="http://www.w3.org/2000/svg">
<path d="M115.079 0H7.98548C7.28173 0.00493015 6.57943 0.0650009 5.88506 0.179647C5.19846 0.299532 4.53287 0.518255 3.90903 0.829077C3.28643 1.15442 2.71778 1.57395 2.22317 2.07278C1.71587 2.55681 1.29934 3.12773 0.99332 3.75859C0.67 4.38332 0.446193 5.05469 0.330017 5.74846C0.214779 6.43811 0.154723 7.13587 0.150391 7.83507C0.150391 8.1529 0.150391 8.47073 0.150391 8.78855V32.9157C0.150391 33.2473 0.150391 33.5513 0.150391 33.8829C0.155304 34.5821 0.215356 35.2798 0.330017 35.9695C0.446193 36.6633 0.67 37.3347 0.99332 37.9594C1.30305 38.588 1.71913 39.1584 2.22317 39.6453C2.71468 40.144 3.28407 40.5593 3.90903 40.8751C4.53478 41.1843 5.19948 41.4075 5.88506 41.5384C6.58027 41.6462 7.28206 41.7063 7.98548 41.7181H117.152C117.855 41.7069 118.557 41.6469 119.252 41.5384C119.942 41.4053 120.611 41.1822 121.242 40.8751C122.494 40.2307 123.513 39.2113 124.158 37.9594C124.471 37.3316 124.69 36.6611 124.807 35.9695C124.92 35.2793 124.984 34.5821 125.001 33.8829V32.9157C125.001 32.5426 125.001 32.1695 125.001 31.7826V9.94926C125.001 9.56234 125.001 9.1893 125.001 8.80238V7.8489C124.985 7.14972 124.92 6.45247 124.807 5.76229C124.69 5.07072 124.471 4.40023 124.158 3.77243C123.842 3.14747 123.427 2.57803 122.928 2.08652C122.43 1.59092 121.862 1.17186 121.242 0.842909C120.613 0.534002 119.943 0.315318 119.252 0.193395C118.558 0.0781228 117.855 0.0180478 117.152 0.0137477H115.065L115.079 0Z" fill="#B1B1B2"/>
<path d="M8.95288 40.8196H7.9994C7.34693 40.8083 6.69596 40.7529 6.05098 40.6537C5.44979 40.5464 4.86774 40.3508 4.32367 40.0734C3.78312 39.7969 3.28894 39.4379 2.85891 39.0093C2.42443 38.5896 2.06462 38.099 1.7949 37.5584C1.52208 37.0137 1.33116 36.4316 1.22834 35.8311C1.12498 35.182 1.06954 34.5261 1.0625 33.8688C1.0625 33.6477 1.0625 32.9154 1.0625 32.9154V8.8021C1.0625 8.8021 1.0625 8.08348 1.0625 7.8762C1.06848 7.22348 1.12392 6.57218 1.22834 5.92783C1.32904 5.32238 1.52002 4.73546 1.7949 4.18668C2.06794 3.64405 2.42728 3.14936 2.85891 2.72193C3.28894 2.29333 3.78312 1.93432 4.32367 1.65787C4.86755 1.38294 5.44992 1.19196 6.05098 1.09135C6.69547 0.98807 7.34672 0.932652 7.9994 0.925537H117.166C117.818 0.932089 118.47 0.987512 119.114 1.09135C119.717 1.2005 120.303 1.39106 120.855 1.65787C121.367 1.94057 121.833 2.29936 122.237 2.72193C122.669 3.14936 123.028 3.64405 123.301 4.18668C123.576 4.73057 123.767 5.31294 123.868 5.914C123.975 6.56288 124.035 7.21865 124.047 7.8762V8.8021C124.047 9.20284 124.047 9.57588 124.047 9.94898V31.796C124.047 32.1691 124.047 32.5423 124.047 32.9154V33.8826C124.034 34.531 123.974 35.1776 123.868 35.8173C123.769 36.4233 123.578 37.0105 123.301 37.5584C123.028 38.0934 122.674 38.5828 122.251 39.0093C121.818 39.4348 121.324 39.7935 120.786 40.0734C120.237 40.3508 119.651 40.5463 119.045 40.6537C118.4 40.7529 117.749 40.8083 117.097 40.8196H8.89761H8.95288Z" fill="black"/>
<path d="M25.976 21.1833C25.9929 20.3125 26.2267 19.4598 26.6562 18.7022C27.0856 17.9446 27.6973 17.306 28.4357 16.8443C27.966 16.1738 27.3471 15.6215 26.6278 15.2306C25.9084 14.8398 25.1083 14.6211 24.2901 14.5919C22.5352 14.4123 20.8355 15.6421 19.9511 15.6421C19.0667 15.6421 17.6572 14.6195 16.1787 14.6471C15.2201 14.6757 14.2855 14.9531 13.4666 15.4522C12.6477 15.9513 11.9727 16.6549 11.508 17.4938C9.49052 20.9898 10.9967 26.1303 12.8899 28.9493C13.8572 30.3311 14.9903 31.8788 16.4689 31.8235C17.9474 31.7683 18.4587 30.8977 20.1999 30.8977C21.941 30.8977 22.4385 31.8236 23.9447 31.7821C25.4509 31.7407 26.4873 30.4003 27.4131 29.0184C28.1117 28.0321 28.6482 26.9405 29.0022 25.7849C28.1029 25.3981 27.3367 24.756 26.7988 23.938C26.2609 23.1201 25.9748 22.1623 25.976 21.1833Z" fill="white"/>
<path d="M23.1293 12.7406C23.9753 11.7215 24.3916 10.4132 24.29 9.09253C22.9974 9.23635 21.805 9.85722 20.9459 10.8337C20.5256 11.311 20.2041 11.8671 20.0001 12.4696C19.7961 13.072 19.7137 13.7091 19.7576 14.3436C20.4034 14.3442 21.0413 14.2006 21.6246 13.9233C22.2079 13.646 22.722 13.2419 23.1293 12.7406Z" fill="white"/>
<path d="M44.2875 28.383H39.3404L38.152 31.8791H36.0654L40.7499 18.9174H42.9194L47.6039 31.8791H45.462L44.2875 28.383ZM39.8517 26.7663H43.7762L41.8416 21.073L39.8517 26.7663Z" fill="white"/>
<path d="M57.7043 27.0978C57.7043 30.0411 56.129 31.9204 53.7523 31.9204C53.1527 31.952 52.5564 31.8146 52.0312 31.5239C51.5059 31.2332 51.0729 30.8008 50.7813 30.276V34.9467H48.8467V22.3719H50.726V23.9471C51.0303 23.4223 51.471 22.9898 52.0014 22.6953C52.5318 22.4009 53.1321 22.2558 53.7384 22.2752C56.1152 22.2752 57.7043 24.2374 57.7043 27.0978ZM55.7145 27.0978C55.7145 25.1908 54.7196 23.9334 53.2133 23.9334C51.7071 23.9334 50.726 25.2185 50.726 27.0978C50.726 28.9771 51.7348 30.276 53.2133 30.276C54.6919 30.276 55.7145 29.0324 55.7145 27.0978Z" fill="white"/>
<path d="M68.096 27.0981C68.096 30.0415 66.5345 31.9208 64.1577 31.9208C63.5579 31.954 62.9609 31.8173 62.4354 31.5264C61.9098 31.2355 61.477 30.8022 61.1867 30.2764V34.947H59.2383V22.3722H61.1176V23.9475C61.4207 23.4247 61.8593 22.9936 62.3871 22.6993C62.9148 22.405 63.5122 22.2586 64.1162 22.2755C66.5206 22.2755 68.096 24.2377 68.096 27.0981ZM66.1061 27.0981C66.1061 25.1912 65.125 23.9337 63.6049 23.9337C62.0849 23.9337 61.1314 25.2188 61.1314 27.0981C61.1314 28.9774 62.1264 30.2764 63.6049 30.2764C65.0835 30.2764 66.1061 29.0327 66.1061 27.0981Z" fill="white"/>
<path d="M74.9354 28.2176C75.0736 29.5027 76.3172 30.3456 78.0307 30.3456C79.7442 30.3456 80.7944 29.5026 80.7944 28.3419C80.7944 27.1811 80.0759 26.7252 78.4038 26.3244L76.718 25.9099C74.3412 25.3433 73.2357 24.224 73.2357 22.4138C73.2357 20.189 75.1841 18.6414 77.9478 18.6414C80.7115 18.6414 82.5632 20.189 82.6323 22.4138H80.6701C80.5595 21.1287 79.4817 20.341 77.9064 20.341C76.331 20.341 75.2808 21.1425 75.2808 22.2895C75.2808 23.2015 75.9579 23.6713 77.63 24.1549L79.0118 24.5004C81.6788 25.136 82.7843 26.2 82.7843 28.0932C82.7843 30.5252 80.8497 32.0453 77.782 32.0453C74.7143 32.0453 72.9593 30.5529 72.835 28.2176H74.9354Z" fill="white"/>
<path d="M87.1223 20.092V22.3306H88.9186V23.8645H87.1223V29.0741C87.1223 29.8894 87.4815 30.2624 88.2692 30.2624H88.9048V31.7825C88.55 31.8528 88.1887 31.8852 87.827 31.8793C85.92 31.8793 85.1738 31.1607 85.1738 29.3228V23.906H83.792V22.3721H85.1738V20.092H87.1223Z" fill="white"/>
<path d="M89.958 27.0977C89.958 24.1267 91.7129 22.2612 94.4352 22.2612C97.1574 22.2612 98.9262 24.1267 98.9262 27.0977C98.9262 30.0687 97.1851 31.9342 94.4352 31.9342C91.6853 31.9342 89.958 30.0825 89.958 27.0977ZM96.9502 27.0977C96.9502 25.0664 96.0105 23.8503 94.4352 23.8503C92.8599 23.8503 91.934 25.0664 91.934 27.0977C91.934 29.129 92.8737 30.345 94.4352 30.345C95.9967 30.345 96.9502 29.1428 96.9502 27.0977Z" fill="white"/>
<path d="M100.513 22.3719H102.365V23.9886C102.486 23.4849 102.778 23.0388 103.191 22.7263C103.605 22.4138 104.114 22.2544 104.631 22.2752C104.852 22.2548 105.074 22.2548 105.294 22.2752V24.2374C105.014 24.1454 104.719 24.1033 104.424 24.113C104.143 24.1011 103.862 24.1504 103.602 24.2574C103.341 24.3645 103.107 24.5267 102.915 24.7329C102.723 24.9391 102.579 25.1844 102.491 25.4519C102.403 25.7194 102.374 26.0028 102.406 26.2825V31.8928H100.458L100.513 22.3719Z" fill="white"/>
<path d="M114.291 29.0461C114.078 29.9377 113.549 30.7218 112.802 31.253C112.055 31.7841 111.14 32.0261 110.228 31.9342C107.464 31.9342 105.765 30.0963 105.765 27.1391C105.765 24.182 107.492 22.2612 110.145 22.2612C112.798 22.2612 114.401 24.0576 114.401 26.9181V27.5813H107.727V27.7057C107.697 28.0528 107.742 28.4023 107.857 28.7309C107.973 29.0595 108.157 29.3598 108.397 29.6119C108.638 29.8641 108.929 30.0623 109.252 30.1935C109.574 30.3246 109.921 30.3857 110.269 30.3727C110.734 30.4115 111.199 30.2975 111.593 30.0481C111.987 29.7987 112.289 29.4275 112.453 28.9908L114.291 29.0461ZM107.741 26.2824H112.467C112.482 25.9703 112.433 25.6583 112.322 25.366C112.212 25.0737 112.043 24.8072 111.825 24.583C111.607 24.3588 111.346 24.1818 111.057 24.0628C110.768 23.9439 110.458 23.8858 110.145 23.8918C109.518 23.888 108.915 24.1306 108.465 24.5675C108.015 25.0043 107.755 25.6003 107.741 26.2271V26.2824Z" fill="white"/>
<path d="M39.6157 9.10596C40.4063 9.15863 41.1473 9.50987 41.6886 10.0885C42.2299 10.667 42.5311 11.4297 42.5311 12.222C42.5311 13.0144 42.2299 13.777 41.6886 14.3556C41.1473 14.9342 40.4063 15.2854 39.6157 15.3381H37.3633V9.10596H39.6157ZM38.3306 14.4537H39.5052C40.0667 14.4095 40.591 14.1552 40.9733 13.7415C41.3557 13.3279 41.568 12.7853 41.568 12.222C41.568 11.6587 41.3557 11.1162 40.9733 10.7025C40.591 10.2889 40.0667 10.0346 39.5052 9.99036H38.3306V14.4537Z" fill="white"/>
<path d="M43.6361 12.9891C43.6763 12.5597 43.8405 12.1511 44.1087 11.8133C44.3768 11.4754 44.7375 11.2228 45.1466 11.0862C45.5558 10.9496 45.9958 10.9348 46.4132 11.0438C46.8306 11.1528 47.2073 11.3807 47.4974 11.6999C47.7876 12.0191 47.9787 12.4157 48.0475 12.8415C48.1163 13.2674 48.0598 13.7041 47.885 14.0984C47.7101 14.4927 47.4244 14.8276 47.0625 15.0625C46.7007 15.2974 46.2784 15.422 45.8471 15.4212C45.5345 15.4318 45.2235 15.3743 44.9354 15.2527C44.6473 15.1311 44.3891 14.9483 44.1788 14.7169C43.9684 14.4855 43.8109 14.2111 43.7172 13.9128C43.6235 13.6144 43.5958 13.2992 43.6361 12.9891ZM47.1184 12.9891C47.1184 11.9666 46.6485 11.3724 45.8471 11.3724C45.0456 11.3724 44.5896 11.9666 44.5896 12.9891C44.5896 14.0117 45.0456 14.606 45.8471 14.606C46.6485 14.606 47.1184 14.0117 47.1184 12.9891Z" fill="white"/>
<path d="M53.9594 15.3388H52.9921L52.0248 11.8704L51.0575 15.3388H50.0626L48.7637 10.6405H49.7033L50.5463 14.2195L51.5136 10.6405H52.3979L53.3652 14.2195H53.4481L54.2773 10.6405H55.2031L53.9594 15.3388Z" fill="white"/>
<path d="M56.3371 10.64H57.2353V11.3863H57.3044C57.4168 11.1183 57.6109 10.8927 57.859 10.7413C58.107 10.59 58.3965 10.5207 58.6862 10.5434C58.9156 10.5264 59.1459 10.5611 59.3601 10.6452C59.5742 10.7292 59.7667 10.8604 59.9233 11.0289C60.0798 11.1975 60.1965 11.3991 60.2646 11.6188C60.3327 11.8385 60.3506 12.0707 60.3168 12.2983V15.3384H59.391V12.5747C59.391 11.8285 59.0593 11.4554 58.3684 11.4554C58.2136 11.4486 58.0592 11.4753 57.9156 11.5336C57.7721 11.5918 57.6427 11.6804 57.5365 11.7932C57.4303 11.9059 57.3496 12.0403 57.3 12.1871C57.2504 12.3339 57.233 12.4896 57.2491 12.6437V15.4074H56.3232L56.3371 10.64Z" fill="white"/>
<path d="M61.8096 8.80249H62.7354V15.3386H61.8096V8.80249Z" fill="white"/>
<path d="M64.021 12.9891C64.0611 12.5602 64.2249 12.1522 64.4924 11.8146C64.76 11.477 65.1198 11.2244 65.5282 11.0873C65.9366 10.9502 66.376 10.9347 66.793 11.0425C67.2101 11.1504 67.5869 11.377 67.8776 11.6948C68.1684 12.0127 68.3606 12.408 68.431 12.833C68.5013 13.258 68.4468 13.6943 68.274 14.0889C68.1012 14.4835 67.8176 14.8194 67.4575 15.0559C67.0975 15.2924 66.6765 15.4193 66.2458 15.4212C65.9327 15.4315 65.6212 15.3739 65.3325 15.2524C65.0439 15.1309 64.785 14.9483 64.5736 14.7172C64.3622 14.4861 64.2034 14.2121 64.108 13.9138C64.0126 13.6155 63.9829 13.3 64.021 12.9891ZM67.5032 12.9891C67.5032 11.9666 67.0472 11.3724 66.2458 11.3724C65.4443 11.3724 64.9883 11.9666 64.9883 12.9891C64.9883 14.0117 65.4443 14.6059 66.2458 14.6059C67.0472 14.6059 67.5032 14.0117 67.5032 12.9891Z" fill="white"/>
<path d="M69.4102 14.0115C69.4102 13.1548 70.032 12.6297 71.1513 12.6297L72.4226 12.5606V12.1461C72.4226 11.6486 72.1048 11.3722 71.4691 11.3722C70.8335 11.3722 70.5847 11.5657 70.488 11.8974H69.5898C69.6865 11.0959 70.4466 10.5155 71.5106 10.5155C72.5746 10.5155 73.3484 11.1097 73.3484 12.0908V15.3105H72.4641V14.6472H72.3811C72.2355 14.88 72.0311 15.0703 71.7885 15.1989C71.5459 15.3275 71.2737 15.3898 70.9993 15.3796C70.8024 15.4095 70.6014 15.3964 70.41 15.3414C70.2186 15.2863 70.0414 15.1906 69.8905 15.0607C69.7395 14.9307 69.6185 14.7697 69.5356 14.5886C69.4527 14.4075 69.4099 14.2107 69.4102 14.0115ZM72.4226 13.6108V13.1825L71.2757 13.2515C70.64 13.2515 70.336 13.5141 70.336 13.9286C70.336 14.3432 70.7091 14.6058 71.2066 14.6058C71.354 14.625 71.5038 14.6142 71.647 14.5742C71.7902 14.5342 71.9239 14.4657 72.04 14.3728C72.1561 14.2799 72.2523 14.1646 72.3228 14.0336C72.3933 13.9027 72.4366 13.7589 72.4502 13.6108H72.4226Z" fill="white"/>
<path d="M74.6055 12.9895C74.6055 11.4971 75.3655 10.5574 76.5539 10.5574C76.8385 10.5538 77.1184 10.6295 77.3625 10.7759C77.6065 10.9223 77.805 11.1338 77.9357 11.3865V8.80249H78.8616V15.3386H77.9772V14.5648H77.8943C77.7492 14.8226 77.5355 15.0353 77.277 15.1792C77.0184 15.3231 76.7251 15.3926 76.4295 15.3801C75.3517 15.4078 74.6055 14.468 74.6055 12.9895ZM75.5589 12.9895C75.5589 13.9844 76.0288 14.5786 76.8164 14.5786C77.6041 14.5786 78.0739 13.9706 78.0739 12.9895C78.0739 12.0083 77.5903 11.3865 76.8164 11.3865C76.0426 11.3865 75.5589 11.9945 75.5589 12.9895Z" fill="white"/>
<path d="M82.8246 12.9891C82.8648 12.5597 83.029 12.1511 83.2971 11.8133C83.5653 11.4754 83.9259 11.2228 84.3351 11.0862C84.7442 10.9496 85.1843 10.9348 85.6016 11.0438C86.019 11.1528 86.3957 11.3807 86.6859 11.6999C86.9761 12.0191 87.1672 12.4157 87.236 12.8415C87.3048 13.2674 87.2483 13.7041 87.0734 14.0984C86.8986 14.4927 86.6128 14.8276 86.251 15.0625C85.8892 15.2974 85.4669 15.422 85.0355 15.4212C84.723 15.4318 84.4119 15.3743 84.1239 15.2527C83.8358 15.1311 83.5776 14.9483 83.3672 14.7169C83.1569 14.4855 82.9994 14.2111 82.9057 13.9128C82.812 13.6144 82.7843 13.2992 82.8246 12.9891ZM86.3069 12.9891C86.3069 11.9666 85.837 11.3724 85.0355 11.3724C84.2341 11.3724 83.7781 11.9666 83.7781 12.9891C83.7781 14.0117 84.2341 14.606 85.0355 14.606C85.837 14.606 86.3069 14.0117 86.3069 12.9891Z" fill="white"/>
<path d="M88.5053 10.64H89.3897V11.3863H89.4588C89.5712 11.1183 89.7653 10.8927 90.0134 10.7413C90.2615 10.59 90.5509 10.5207 90.8407 10.5434C91.8909 10.5434 92.4574 11.179 92.4574 12.2983V15.3384H91.5177V12.5747C91.5177 11.8285 91.1999 11.4554 90.509 11.4554C90.3542 11.4486 90.1998 11.4753 90.0562 11.5336C89.9127 11.5918 89.7834 11.6804 89.6771 11.7932C89.5709 11.9059 89.4902 12.0403 89.4406 12.1871C89.391 12.3339 89.3736 12.4896 89.3897 12.6437V15.4074H88.4639L88.5053 10.64Z" fill="white"/>
<path d="M97.7359 9.46577V10.6541H98.7447V11.4418H97.7359V13.86C97.7359 14.3437 97.9294 14.5648 98.3992 14.5648H98.7447V15.3386C98.5793 15.3546 98.4126 15.3546 98.2472 15.3386C97.2108 15.3386 96.8654 14.9656 96.8654 14.0674V11.4141H96.1191V10.6266H96.8654V9.43811L97.7359 9.46577Z" fill="white"/>
<path d="M100.017 8.80249H100.943V11.3865H101.012C101.125 11.1186 101.319 10.8929 101.567 10.7416C101.815 10.5903 102.104 10.521 102.394 10.5436C102.622 10.5314 102.849 10.5695 103.06 10.6554C103.272 10.7413 103.461 10.8727 103.616 11.0404C103.77 11.2081 103.886 11.4078 103.954 11.6253C104.022 11.8428 104.042 12.0727 104.011 12.2985V15.3386H103.085V12.5749C103.085 11.8149 102.726 11.4418 102.076 11.4418C101.917 11.4293 101.757 11.4515 101.607 11.5068C101.457 11.5621 101.321 11.6493 101.208 11.7622C101.095 11.8751 101.008 12.0112 100.953 12.1611C100.897 12.3109 100.875 12.4709 100.888 12.6302V15.3939H99.9619L100.017 8.80249Z" fill="white"/>
<path d="M109.485 14.0671C109.366 14.5013 109.096 14.8789 108.723 15.1322C108.351 15.3855 107.901 15.4978 107.453 15.4489C107.144 15.4578 106.837 15.3993 106.553 15.2774C106.268 15.1554 106.014 14.973 105.808 14.7428C105.601 14.5126 105.447 14.2402 105.357 13.9445C105.266 13.6488 105.241 13.337 105.284 13.0307C105.242 12.7236 105.267 12.4111 105.356 12.1144C105.446 11.8177 105.598 11.5436 105.802 11.3105C106.006 11.0775 106.258 10.8909 106.541 10.7633C106.823 10.6357 107.129 10.5701 107.439 10.5709C108.752 10.5709 109.54 11.4692 109.54 12.9478V13.1826H106.223C106.204 13.3584 106.222 13.5363 106.276 13.7045C106.331 13.8727 106.42 14.0273 106.539 14.1581C106.658 14.2888 106.804 14.3927 106.966 14.4628C107.129 14.5329 107.304 14.5676 107.481 14.5645C107.702 14.5908 107.927 14.551 108.126 14.4502C108.325 14.3494 108.49 14.1921 108.6 13.998L109.485 14.0671ZM106.223 12.547H108.6C108.612 12.389 108.59 12.2303 108.537 12.0812C108.483 11.9321 108.399 11.7959 108.29 11.6813C108.18 11.5667 108.048 11.4763 107.902 11.4159C107.755 11.3556 107.598 11.3266 107.439 11.3309C107.278 11.3272 107.118 11.3561 106.968 11.4157C106.818 11.4753 106.681 11.5645 106.566 11.678C106.452 11.7915 106.361 11.9269 106.3 12.0762C106.238 12.2255 106.208 12.3856 106.21 12.547H106.223Z" fill="white"/>
</svg>
