<svg width="141" height="42" viewBox="0 0 141 42" fill="none" xmlns="http://www.w3.org/2000/svg">
<path d="M135.67 0H5.22344C2.33863 0 0 2.33855 0 5.22335V36.5223C0 39.4071 2.33863 41.7457 5.22344 41.7457H135.67C138.555 41.7457 140.894 39.4071 140.894 36.5223V5.22335C140.894 2.33855 138.555 0 135.67 0Z" fill="black"/>
<path d="M135.684 0.829077C136.259 0.829077 136.829 0.942424 137.36 1.16256C137.892 1.3827 138.375 1.70532 138.781 2.11208C139.188 2.51884 139.511 3.00177 139.731 3.53323C139.951 4.0647 140.064 4.63427 140.064 5.20952V36.5223C140.064 37.0976 139.951 37.6671 139.731 38.1986C139.511 38.7301 139.188 39.213 138.781 39.6198C138.375 40.0265 137.892 40.3492 137.36 40.5694C136.829 40.7895 136.259 40.9028 135.684 40.9028H5.22344C4.06166 40.9028 2.94745 40.4412 2.12595 39.6198C1.30446 38.7983 0.842951 37.6841 0.842951 36.5223V5.20952C0.842951 4.04775 1.30446 2.93358 2.12595 2.11208C2.94745 1.29058 4.06166 0.829077 5.22344 0.829077H135.684ZM135.684 0H5.22344C3.84161 0.00362677 2.51721 0.55322 1.53881 1.52903C0.560416 2.50483 0.00728722 3.82771 0 5.20952V36.5223C0.00364747 37.9065 0.555173 39.233 1.53396 40.2117C2.51275 41.1905 3.83923 41.742 5.22344 41.7457H135.684C137.068 41.742 138.395 41.1905 139.373 40.2117C140.352 39.233 140.904 37.9065 140.907 36.5223V5.20952C140.9 3.82771 140.347 2.50483 139.369 1.52903C138.39 0.55322 137.066 0.00362677 135.684 0Z" fill="#A09F9F"/>
<path d="M49.4991 10.6819C49.5219 11.0676 49.4636 11.4538 49.328 11.8156C49.1923 12.1774 48.9823 12.5068 48.7114 12.7823C48.4148 13.0881 48.0575 13.3284 47.6624 13.4879C47.2674 13.6473 46.8434 13.7224 46.4176 13.7082C45.549 13.7082 44.716 13.3631 44.1018 12.7489C43.4877 12.1348 43.1426 11.3018 43.1426 10.4332C43.1426 9.5646 43.4877 8.7316 44.1018 8.11742C44.716 7.50324 45.549 7.1582 46.4176 7.1582C46.8588 7.16251 47.2951 7.25165 47.7027 7.42076C48.0777 7.58045 48.4127 7.82113 48.6838 8.12552L48.1311 8.67821C47.9224 8.43001 47.6592 8.23347 47.3619 8.10401C47.0646 7.97455 46.7414 7.91572 46.4176 7.93204C45.7543 7.93204 45.1181 8.19557 44.649 8.66463C44.1799 9.13368 43.9165 9.76984 43.9165 10.4332C43.9165 11.0965 44.1799 11.7327 44.649 12.2017C45.1181 12.6708 45.7543 12.9343 46.4176 12.9343C46.7407 12.943 47.062 12.8848 47.3616 12.7635C47.6612 12.6423 47.9326 12.4605 48.1587 12.2296C48.4815 11.8887 48.6683 11.4414 48.6838 10.9721H46.4867V10.212H49.5129C49.5279 10.3686 49.5232 10.5265 49.4991 10.6819Z" fill="white" stroke="white" stroke-width="0.2" stroke-miterlimit="10"/>
<path d="M54.3076 8.07046H51.4471V10.0603H54.0174V10.8066H51.4471V12.7964H54.3076V13.5703H50.6318V7.29663H54.2937L54.3076 8.07046Z" fill="white" stroke="white" stroke-width="0.2" stroke-miterlimit="10"/>
<path d="M57.6931 13.5695H56.8917V8.04211H55.1367V7.26819H59.4481V8.04211H57.6931V13.5695Z" fill="white" stroke="white" stroke-width="0.2" stroke-miterlimit="10"/>
<path d="M62.5557 13.5703V7.29663H63.3571V13.5703H62.5557Z" fill="white" stroke="white" stroke-width="0.2" stroke-miterlimit="10"/>
<path d="M66.9385 13.5695H66.1232V8.04211H64.4512V7.26819H68.7487V8.04211H66.9385V13.5695Z" fill="white" stroke="white" stroke-width="0.2" stroke-miterlimit="10"/>
<path d="M76.8873 12.7544C76.592 13.0639 76.2356 13.3084 75.8407 13.4725C75.4458 13.6367 75.021 13.7169 74.5934 13.7079C74.1655 13.7195 73.74 13.6405 73.3447 13.4762C72.9494 13.3118 72.5932 13.0659 72.2995 12.7544C71.7047 12.1279 71.373 11.2969 71.373 10.4329C71.373 9.56899 71.7047 8.738 72.2995 8.11145C72.5932 7.79997 72.9494 7.55396 73.3447 7.38965C73.74 7.22534 74.1655 7.14643 74.5934 7.15796C75.0209 7.14986 75.4454 7.23036 75.8402 7.39446C76.235 7.55856 76.5915 7.80271 76.8873 8.11145C77.4822 8.738 77.8138 9.56899 77.8138 10.4329C77.8138 11.2969 77.4822 12.1279 76.8873 12.7544ZM72.8937 12.2293C73.112 12.4591 73.3761 12.6406 73.6688 12.762C73.9616 12.8833 74.2766 12.942 74.5934 12.9341C74.9098 12.9387 75.2238 12.8785 75.5161 12.7573C75.8084 12.6361 76.0728 12.4564 76.2931 12.2293C76.7378 11.7367 76.984 11.0966 76.984 10.4329C76.984 9.76926 76.7378 9.12919 76.2931 8.63656C76.0728 8.40946 75.8084 8.22977 75.5161 8.10858C75.2238 7.98739 74.9098 7.92724 74.5934 7.9318C74.2766 7.92389 73.9616 7.98246 73.6688 8.10385C73.3761 8.22525 73.112 8.40677 72.8937 8.63656C72.4401 9.12479 72.1881 9.76653 72.1881 10.4329C72.1881 11.0994 72.4401 11.7411 72.8937 12.2293Z" fill="white" stroke="white" stroke-width="0.2" stroke-miterlimit="10"/>
<path d="M78.877 13.5703V7.29663H79.8581L82.8981 12.1746V10.9724V7.29663H83.7134V13.5703H82.8705L79.6784 8.45742V9.65963V13.5703H78.877Z" fill="white" stroke="white" stroke-width="0.2" stroke-miterlimit="10"/>
<path d="M71.1106 22.7037C70.2345 22.7092 69.3797 22.974 68.6538 23.4647C67.928 23.9554 67.3638 24.65 67.0323 25.461C66.7008 26.272 66.6169 27.163 66.7911 28.0216C66.9654 28.8803 67.39 29.668 68.0115 30.2856C68.6329 30.9032 69.4233 31.323 70.283 31.4919C71.1427 31.6608 72.0332 31.5714 72.8421 31.2349C73.651 30.8984 74.3421 30.3298 74.8283 29.6009C75.3145 28.8721 75.574 28.0156 75.574 27.1394C75.5815 26.5525 75.471 25.9701 75.249 25.4267C75.027 24.8833 74.698 24.3901 74.2817 23.9764C73.8654 23.5626 73.3701 23.2367 72.8254 23.0181C72.2806 22.7995 71.6975 22.6926 71.1106 22.7037ZM71.1106 29.8202C70.5709 29.8563 70.0328 29.7291 69.5664 29.4551C69.0999 29.1812 68.7267 28.7732 68.4953 28.2843C68.2639 27.7953 68.1851 27.2481 68.269 26.7137C68.3529 26.1793 68.5957 25.6826 68.9658 25.2881C69.3359 24.8935 69.8162 24.6195 70.3441 24.5017C70.8721 24.3839 71.4233 24.4278 71.926 24.6275C72.4287 24.8272 72.8596 25.1736 73.1627 25.6216C73.4659 26.0696 73.6272 26.5985 73.6256 27.1394C73.6348 27.4775 73.5768 27.814 73.455 28.1294C73.3333 28.4449 73.1501 28.733 72.9162 28.9772C72.6823 29.2214 72.4023 29.4168 72.0923 29.552C71.7824 29.6872 71.4487 29.7596 71.1106 29.765V29.8202ZM61.4377 22.7037C60.5586 22.6955 59.697 22.9486 58.9621 23.431C58.2272 23.9134 57.6522 24.6033 57.3101 25.413C56.968 26.2228 56.8743 27.116 57.0407 27.9791C57.2071 28.8423 57.6263 29.6366 58.245 30.2611C58.8636 30.8856 59.6539 31.3122 60.5155 31.4867C61.377 31.6613 62.271 31.5759 63.084 31.2414C63.8969 30.9069 64.5922 30.3384 65.0814 29.6081C65.5707 28.8778 65.8319 28.0185 65.8319 27.1394C65.8413 26.5543 65.7329 25.9734 65.5133 25.431C65.2937 24.8886 64.9673 24.3959 64.5535 23.9821C64.1398 23.5683 63.6471 23.242 63.1047 23.0224C62.5623 22.8028 61.9813 22.6944 61.3962 22.7037H61.4377ZM61.4377 29.8202C60.8794 29.8733 60.3182 29.7553 59.8286 29.4819C59.339 29.2085 58.9441 28.7926 58.6964 28.2895C58.4488 27.7864 58.36 27.2199 58.442 26.6651C58.5239 26.1103 58.7727 25.5937 59.1553 25.1836C59.5378 24.7736 60.036 24.4897 60.5838 24.3695C61.1316 24.2493 61.7029 24.2986 62.222 24.5108C62.741 24.7231 63.1833 25.0882 63.4899 25.5577C63.7966 26.0272 63.9531 26.5788 63.9388 27.1394C63.948 27.4798 63.8891 27.8185 63.7657 28.1358C63.6422 28.453 63.4566 28.7425 63.2198 28.987C62.9829 29.2316 62.6996 29.4264 62.3865 29.5599C62.0733 29.6935 61.7367 29.7633 61.3962 29.765L61.4377 29.8202ZM49.8716 24.0579V25.9372H54.3764C54.3184 26.8234 53.9573 27.6626 53.3538 28.3141C52.9017 28.7743 52.3584 29.135 51.7587 29.373C51.159 29.6109 50.5163 29.721 49.8716 29.6959C48.5886 29.6285 47.3803 29.0713 46.4959 28.1393C45.6116 27.2073 45.1187 25.9715 45.1187 24.6867C45.1187 23.4019 45.6116 22.1661 46.4959 21.2341C47.3803 20.3021 48.5886 19.7449 49.8716 19.6775C50.5014 19.6719 51.126 19.7911 51.7095 20.0283C52.293 20.2654 52.8237 20.6159 53.2709 21.0593L54.6528 19.6775C54.032 19.0606 53.294 18.5741 52.4824 18.2466C51.6708 17.9191 50.8019 17.7573 49.9268 17.7705C48.0944 17.7705 46.337 18.4985 45.0413 19.7942C43.7455 21.09 43.0176 22.8473 43.0176 24.6798C43.0176 26.5122 43.7455 28.2696 45.0413 29.5653C46.337 30.8611 48.0944 31.589 49.9268 31.589C50.8198 31.6269 51.7107 31.4739 52.5399 31.1403C53.3691 30.8067 54.1177 30.3002 54.7357 29.6544C55.835 28.4549 56.4203 26.8724 56.3663 25.2463C56.3725 24.8526 56.3401 24.4592 56.2695 24.0718L49.8716 24.0579ZM97.1585 25.5227C96.8792 24.7316 96.3663 24.0439 95.6878 23.5505C95.0093 23.057 94.1971 22.781 93.3584 22.759C92.7917 22.7675 92.2325 22.8903 91.7142 23.1199C91.196 23.3495 90.7295 23.6813 90.3425 24.0954C89.9555 24.5095 89.6559 24.9974 89.4618 25.5299C89.2677 26.0625 89.1831 26.6287 89.2129 27.1948C89.2017 27.778 89.3079 28.3575 89.5251 28.8989C89.7423 29.4403 90.0662 29.9325 90.4774 30.3463C90.8886 30.76 91.3787 31.087 91.9188 31.3076C92.4588 31.5282 93.0376 31.638 93.6209 31.6304C94.3521 31.634 95.0729 31.4567 95.719 31.1144C96.3651 30.772 96.9166 30.2752 97.3243 29.6682L95.8043 28.6595C95.5769 29.034 95.2561 29.3429 94.8733 29.5561C94.4906 29.7692 94.059 29.8794 93.6209 29.8756C93.1638 29.8913 92.7127 29.7676 92.3277 29.5207C91.9426 29.2739 91.6418 28.9157 91.4653 28.4937L97.4072 26.034L97.1585 25.5227ZM91.0646 27.0013C91.044 26.6785 91.0881 26.3547 91.1942 26.0492C91.3003 25.7436 91.4663 25.4622 91.6825 25.2216C91.8987 24.981 92.1607 24.7859 92.4532 24.6478C92.7458 24.5097 93.0629 24.4313 93.3861 24.4172C93.7225 24.393 94.0584 24.4694 94.3513 24.6368C94.6441 24.8041 94.8805 25.0548 95.0305 25.3569L91.0646 27.0013ZM86.2419 31.3127H88.1903V18.2541H86.2419V31.3127ZM83.0498 23.6848C82.7507 23.3672 82.3883 23.1159 81.9861 22.9469C81.5839 22.7779 81.1507 22.6951 80.7145 22.7037C79.538 22.7037 78.4098 23.1711 77.5779 24.0029C76.7461 24.8348 76.2787 25.963 76.2787 27.1394C76.2787 28.3159 76.7461 29.4441 77.5779 30.276C78.4098 31.1079 79.538 31.5752 80.7145 31.5752C81.1535 31.5857 81.5896 31.501 81.9927 31.3268C82.3959 31.1527 82.7565 30.8933 83.0498 30.5665V31.1468C83.0994 31.4811 83.0742 31.8223 82.9757 32.1456C82.8773 32.4689 82.7083 32.7664 82.4808 33.0163C82.2533 33.2663 81.9731 33.4625 81.6604 33.5909C81.3478 33.7192 81.0105 33.7766 80.673 33.7586C80.1842 33.7462 79.7101 33.5884 79.3114 33.3053C78.9127 33.0222 78.6073 32.6268 78.4344 32.1694L76.7486 32.888C77.06 33.6704 77.6024 34.3394 78.3034 34.8059C79.0045 35.2725 79.831 35.5145 80.673 35.4997C82.9669 35.4997 84.9015 34.1178 84.9015 30.8843V22.911H83.0498V23.6848ZM80.8112 29.765C80.4724 29.7562 80.1388 29.6798 79.83 29.5402C79.5212 29.4006 79.2434 29.2007 79.013 28.9523C78.7825 28.7038 78.6041 28.4118 78.4881 28.0933C78.3721 27.7749 78.321 27.4365 78.3377 27.098C78.3114 26.7526 78.3552 26.4054 78.4665 26.0773C78.5778 25.7492 78.7543 25.447 78.9853 25.1889C79.2164 24.9307 79.4972 24.722 79.811 24.5751C80.1248 24.4283 80.465 24.3464 80.8112 24.3343C81.1517 24.3513 81.4852 24.4374 81.7914 24.5873C82.0976 24.7372 82.3702 24.9478 82.5925 25.2063C82.8148 25.4648 82.9822 25.7658 83.0846 26.091C83.187 26.4162 83.2221 26.7588 83.188 27.098C83.2143 27.4307 83.173 27.7653 83.0666 28.0817C82.9602 28.398 82.7909 28.6896 82.5688 28.9388C82.3467 29.188 82.0765 29.3896 81.7745 29.5316C81.4724 29.6736 81.1448 29.753 80.8112 29.765ZM106.251 18.1989H101.594V31.2574H103.543V26.3104H106.306C106.859 26.3426 107.412 26.2617 107.932 26.0724C108.452 25.8832 108.928 25.5896 109.331 25.2099C109.734 24.8301 110.054 24.3721 110.273 23.8639C110.493 23.3557 110.606 22.8081 110.606 22.2546C110.606 21.7012 110.493 21.1536 110.273 20.6454C110.054 20.1372 109.734 19.6792 109.331 19.2994C108.928 18.9196 108.452 18.6261 107.932 18.4368C107.412 18.2476 106.859 18.1666 106.306 18.1989H106.251ZM106.251 24.4863H103.487V20.092H106.251C106.559 20.0678 106.868 20.1075 107.16 20.2087C107.452 20.3098 107.72 20.4702 107.946 20.6798C108.173 20.8894 108.354 21.1437 108.478 21.4266C108.602 21.7095 108.665 22.0149 108.665 22.3237C108.665 22.6325 108.602 22.9379 108.478 23.2208C108.354 23.5037 108.173 23.758 107.946 23.9676C107.72 24.1772 107.452 24.3377 107.16 24.4388C106.868 24.54 106.559 24.5796 106.251 24.5554V24.4863ZM118.287 22.6208C117.578 22.5788 116.872 22.7447 116.256 23.0982C115.64 23.4517 115.14 23.9774 114.819 24.6107L116.546 25.343C116.712 25.0246 116.968 24.7626 117.283 24.5904C117.598 24.4181 117.957 24.3434 118.315 24.3757C118.811 24.3293 119.305 24.4803 119.69 24.7959C120.076 25.1115 120.321 25.5663 120.374 26.0616V26.1998C119.75 25.8622 119.051 25.6865 118.342 25.6885C116.477 25.6885 114.584 26.7111 114.584 28.6319C114.601 29.0345 114.699 29.4295 114.873 29.7932C115.046 30.157 115.291 30.4821 115.593 30.7491C115.895 31.0161 116.247 31.2194 116.629 31.3471C117.011 31.4748 117.415 31.5242 117.817 31.4923C118.307 31.5204 118.796 31.4175 119.233 31.1941C119.67 30.9706 120.04 30.6348 120.305 30.221H120.374V31.2297H122.253V26.2274C122.251 25.7305 122.146 25.2393 121.944 24.7853C121.742 24.3312 121.448 23.9243 121.08 23.5902C120.712 23.2561 120.279 23.0023 119.807 22.8449C119.336 22.6876 118.837 22.63 118.342 22.6761L118.287 22.6208ZM118.052 29.765C117.416 29.765 116.518 29.4472 116.518 28.6595C116.518 27.6508 117.638 27.2777 118.591 27.2777C119.214 27.2649 119.829 27.4175 120.374 27.7199C120.296 28.2726 120.027 28.7804 119.612 29.1544C119.198 29.5283 118.665 29.7444 118.107 29.765H118.052ZM129.107 22.8557L126.882 28.5213L124.561 22.8557H122.488L125.97 30.7737L123.939 35.2924H125.97L131.318 22.9801L129.107 22.8557ZM111.571 31.1468H113.52V18.0883H111.571V31.1468Z" fill="white"/>
<path d="M10.89 7.8626C10.5463 8.27045 10.3731 8.79507 10.4064 9.32736V32.418C10.3774 32.9498 10.5501 33.4729 10.89 33.8828H10.9729L23.907 20.9487V20.6447L10.9729 7.72437L10.89 7.8626Z" fill="url(#paint0_linear_120_283)"/>
<path d="M28.2176 25.3294L23.9062 21.018V20.7141L28.2176 16.4027H28.3144L33.4134 19.3046C33.7358 19.4033 34.018 19.603 34.2186 19.8741C34.4191 20.1453 34.5272 20.4736 34.5272 20.8108C34.5272 21.148 34.4191 21.4763 34.2186 21.7474C34.018 22.0186 33.7358 22.2182 33.4134 22.317L28.3144 25.2189L28.2176 25.3294Z" fill="url(#paint1_linear_120_283)"/>
<path d="M28.3148 25.2741L23.9067 20.866L10.8896 33.9106C11.1957 34.161 11.579 34.2977 11.9744 34.2977C12.3698 34.2977 12.7531 34.161 13.0592 33.9106L28.2595 25.2464" fill="url(#paint2_linear_120_283)"/>
<path d="M28.3132 16.4578L13.1129 7.79354C12.8068 7.54321 12.4235 7.40649 12.0281 7.40649C11.6327 7.40649 11.2495 7.54321 10.9434 7.79354L23.9604 20.7968L28.3132 16.4578Z" fill="url(#paint3_linear_120_283)"/>
<path opacity="0.2" d="M28.2175 25.1775L13.0172 33.7864C12.7169 34.0139 12.3506 34.1371 11.9739 34.1371C11.5972 34.1371 11.2308 34.0139 10.9306 33.7864L10.8477 33.8693H10.9306C11.2308 34.0968 11.5972 34.22 11.9739 34.22C12.3506 34.22 12.7169 34.0968 13.0172 33.8693L28.2175 25.2052V25.1775Z" fill="black"/>
<path opacity="0.12" d="M10.8891 33.7311C10.5492 33.3212 10.3765 32.7981 10.4055 32.2664V32.4183C10.3765 32.9501 10.5492 33.4732 10.8891 33.8831L10.972 33.8002L10.8891 33.7311Z" fill="black"/>
<path opacity="0.12" d="M33.4135 22.2202L28.2178 25.1773L28.3145 25.2741L33.4135 22.3722C33.7148 22.2434 33.9754 22.0353 34.1676 21.77C34.3599 21.5048 34.4765 21.1923 34.5052 20.866C34.4436 21.1621 34.3126 21.4393 34.1228 21.6748C33.933 21.9103 33.6899 22.0972 33.4135 22.2202Z" fill="black"/>
<path opacity="0.25" d="M13.0613 7.94598L33.416 19.5121C33.6931 19.6414 33.936 19.8337 34.1256 20.0736C34.3151 20.3135 34.4459 20.5945 34.5076 20.8939C34.4776 20.568 34.3603 20.2561 34.1683 19.9911C33.9762 19.7261 33.7164 19.5177 33.416 19.3877L13.0613 7.82158C11.6104 6.99247 10.4082 7.68337 10.4082 9.35541V9.50748C10.4082 7.8078 11.6104 7.11687 13.0613 7.94598Z" fill="white"/>
<defs>
<linearGradient id="paint0_linear_120_283" x1="22.7601" y1="9.0924" x2="5.23825" y2="26.6004" gradientUnits="userSpaceOnUse">
<stop stop-color="#4992CE"/>
<stop offset="0.01" stop-color="#4893CE"/>
<stop offset="0.26" stop-color="#43B5E6"/>
<stop offset="0.51" stop-color="#40C1ED"/>
<stop offset="0.76" stop-color="#54C4E6"/>
<stop offset="1" stop-color="#59C6E4"/>
</linearGradient>
<linearGradient id="paint1_linear_120_283" x1="35.3203" y1="20.8799" x2="10.0601" y2="20.8799" gradientUnits="userSpaceOnUse">
<stop stop-color="#FADB00"/>
<stop offset="0.41" stop-color="#F9B816"/>
<stop offset="0.78" stop-color="#F79F1D"/>
<stop offset="1" stop-color="#F4961F"/>
</linearGradient>
<linearGradient id="paint2_linear_120_283" x1="25.9104" y1="23.2704" x2="2.15643" y2="47.0244" gradientUnits="userSpaceOnUse">
<stop stop-color="#EC3F4A"/>
<stop offset="1" stop-color="#BD1E63"/>
</linearGradient>
<linearGradient id="paint3_linear_120_283" x1="7.6131" y1="0.179571" x2="18.2257" y2="10.7922" gradientUnits="userSpaceOnUse">
<stop stop-color="#309B72"/>
<stop offset="0.07" stop-color="#27A271"/>
<stop offset="0.48" stop-color="#4AB46F"/>
<stop offset="0.8" stop-color="#5DB86A"/>
<stop offset="1" stop-color="#64BB69"/>
</linearGradient>
</defs>
</svg>
