<svg width="40" height="29" viewBox="0 0 40 29" fill="none" xmlns="http://www.w3.org/2000/svg">
<path d="M30.8916 19.993V20.0069H9.13422V19.9891C9.13422 17.1038 10.2803 14.3368 12.3205 12.2966C14.3606 10.2565 17.1277 9.11035 20.0129 9.11035C21.4419 9.11035 22.8568 9.39187 24.1769 9.93882C25.4971 10.4858 26.6965 11.2874 27.7067 12.298C28.717 13.3086 29.5181 14.5084 30.0646 15.8287C30.6111 17.149 30.8921 18.5641 30.8916 19.993V19.993Z" stroke="#662D91" stroke-miterlimit="10"/>
<path d="M3.95563 22.4771H36.1131" stroke="#662D91" stroke-miterlimit="10"/>
<path d="M8.4397 25.0464H31.6291" stroke="#662D91" stroke-miterlimit="10"/>
<path d="M13.3867 27.6157H26.6805" stroke="#662D91" stroke-miterlimit="10"/>
<path d="M31.012 13.6321L37.3157 9.99268" stroke="#662D91" stroke-miterlimit="10"/>
<path d="M26.3521 8.97949L29.9915 2.67578" stroke="#662D91" stroke-miterlimit="10"/>
<path d="M19.991 7.28082V0" stroke="#662D91" stroke-miterlimit="10"/>
<path d="M13.6319 8.98779L9.99054 2.68408" stroke="#662D91" stroke-miterlimit="10"/>
<path d="M8.97785 13.6477L2.67413 10.0083" stroke="#662D91" stroke-miterlimit="10"/>
<path d="M0 20.0107H9.13415H30.8916H40" stroke="#662D91" stroke-miterlimit="10"/>
<path d="M32.288 16.7037L35.8028 15.7603" stroke="#662D91" stroke-miterlimit="10"/>
<path d="M28.9987 11.0052L31.572 8.43188" stroke="#662D91" stroke-miterlimit="10"/>
<path d="M23.3021 7.71574L24.2436 4.20093" stroke="#662D91" stroke-miterlimit="10"/>
<path d="M16.7235 7.71574L15.782 4.20093" stroke="#662D91" stroke-miterlimit="10"/>
<path d="M11.0269 11.0052L8.45166 8.43188" stroke="#662D91" stroke-miterlimit="10"/>
<path d="M7.73767 16.7037L4.22089 15.7603" stroke="#662D91" stroke-miterlimit="10"/>
</svg>
