<svg width="40" height="40" viewBox="0 0 40 40" fill="none" xmlns="http://www.w3.org/2000/svg">
<path d="M19.9991 30.8843C26.0108 30.8843 30.8843 26.0108 30.8843 19.999C30.8843 13.9873 26.0108 9.11377 19.9991 9.11377C13.9873 9.11377 9.11383 13.9873 9.11383 19.999C9.11383 26.0108 13.9873 30.8843 19.9991 30.8843Z" stroke="#662D91" stroke-miterlimit="10"/>
<path d="M32.7148 19.999H40" stroke="#662D91" stroke-miterlimit="10"/>
<path d="M31.013 13.6419L37.3205 10.0002" stroke="#662D91" stroke-miterlimit="10"/>
<path d="M26.358 8.98695L29.9996 2.67944" stroke="#662D91" stroke-miterlimit="10"/>
<path d="M19.9989 7.28323V0" stroke="#662D91" stroke-miterlimit="10"/>
<path d="M13.6419 8.98695L10.0003 2.67944" stroke="#662D91" stroke-miterlimit="10"/>
<path d="M8.98701 13.6419L2.6795 10.0002" stroke="#662D91" stroke-miterlimit="10"/>
<path d="M7.28322 19.999H0" stroke="#662D91" stroke-miterlimit="10"/>
<path d="M8.98701 26.3582L2.6795 29.9998" stroke="#662D91" stroke-miterlimit="10"/>
<path d="M13.6419 31.0129L10.0003 37.3204" stroke="#662D91" stroke-miterlimit="10"/>
<path d="M19.9989 32.7148V40" stroke="#662D91" stroke-miterlimit="10"/>
<path d="M26.358 31.0129L29.9996 37.3204" stroke="#662D91" stroke-miterlimit="10"/>
<path d="M31.013 26.3582L37.3205 29.9998" stroke="#662D91" stroke-miterlimit="10"/>
<path d="M32.2816 16.7077L35.8005 15.7656" stroke="#662D91" stroke-miterlimit="10"/>
<path d="M7.71655 16.7077L4.19962 15.7656" stroke="#662D91" stroke-miterlimit="10"/>
<path d="M7.71655 23.2903L4.19962 24.2324" stroke="#662D91" stroke-miterlimit="10"/>
<path d="M11.0078 28.9902L8.43289 31.5671" stroke="#662D91" stroke-miterlimit="10"/>
<path d="M16.7077 32.2815L15.7656 35.8004" stroke="#662D91" stroke-miterlimit="10"/>
<path d="M23.2903 32.2815L24.2323 35.8004" stroke="#662D91" stroke-miterlimit="10"/>
<path d="M28.9902 28.9902L31.5671 31.5671" stroke="#662D91" stroke-miterlimit="10"/>
<path d="M32.2816 23.2903L35.8005 24.2324" stroke="#662D91" stroke-miterlimit="10"/>
<path d="M28.9902 11.0077L31.5671 8.43286" stroke="#662D91" stroke-miterlimit="10"/>
<path d="M23.2903 7.71663L24.2323 4.19971" stroke="#662D91" stroke-miterlimit="10"/>
<path d="M16.7077 7.71663L15.7656 4.19971" stroke="#662D91" stroke-miterlimit="10"/>
<path d="M11.0078 11.0077L8.43289 8.43286" stroke="#662D91" stroke-miterlimit="10"/>
<path d="M7.71655 16.7077L4.19962 15.7656" stroke="#662D91" stroke-miterlimit="10"/>
</svg>
