<svg width="40" height="40" viewBox="0 0 40 40" fill="none" xmlns="http://www.w3.org/2000/svg">
<g clip-path="url(#clip0_23_101)">
<path d="M19.9995 30.8843C26.0112 30.8843 30.8847 26.0108 30.8847 19.999C30.8847 13.9873 26.0112 9.11377 19.9995 9.11377C13.9877 9.11377 9.11426 13.9873 9.11426 19.999C9.11426 26.0108 13.9877 30.8843 19.9995 30.8843Z" stroke="white" stroke-miterlimit="10"/>
<path d="M32.7148 19.999H40" stroke="white" stroke-miterlimit="10"/>
<path d="M31.0127 13.6417L37.3202 10" stroke="white" stroke-miterlimit="10"/>
<path d="M26.3584 8.98671L30 2.6792" stroke="white" stroke-miterlimit="10"/>
<path d="M19.999 7.28323V0" stroke="white" stroke-miterlimit="10"/>
<path d="M13.6416 8.98671L10 2.6792" stroke="white" stroke-miterlimit="10"/>
<path d="M8.9872 13.6417L2.67969 10" stroke="white" stroke-miterlimit="10"/>
<path d="M7.28322 19.999H0" stroke="white" stroke-miterlimit="10"/>
<path d="M8.9872 26.3584L2.67969 30" stroke="white" stroke-miterlimit="10"/>
<path d="M13.6416 31.0127L10 37.3202" stroke="white" stroke-miterlimit="10"/>
<path d="M19.999 32.7148V40" stroke="white" stroke-miterlimit="10"/>
<path d="M26.3584 31.0127L30 37.3202" stroke="white" stroke-miterlimit="10"/>
<path d="M31.0127 26.3584L37.3202 30" stroke="white" stroke-miterlimit="10"/>
<path d="M32.2812 16.7077L35.8001 15.7656" stroke="white" stroke-miterlimit="10"/>
<path d="M7.71615 16.7077L4.19922 15.7656" stroke="white" stroke-miterlimit="10"/>
<path d="M7.71615 23.2905L4.19922 24.2326" stroke="white" stroke-miterlimit="10"/>
<path d="M11.0075 28.9902L8.43262 31.5671" stroke="white" stroke-miterlimit="10"/>
<path d="M16.7077 32.2817L15.7656 35.8006" stroke="white" stroke-miterlimit="10"/>
<path d="M23.29 32.2817L24.232 35.8006" stroke="white" stroke-miterlimit="10"/>
<path d="M28.9902 28.9902L31.5671 31.5671" stroke="white" stroke-miterlimit="10"/>
<path d="M32.2812 23.2905L35.8001 24.2326" stroke="white" stroke-miterlimit="10"/>
<path d="M28.9902 11.0075L31.5671 8.43262" stroke="white" stroke-miterlimit="10"/>
<path d="M23.29 7.71663L24.232 4.19971" stroke="white" stroke-miterlimit="10"/>
<path d="M16.7077 7.71663L15.7656 4.19971" stroke="white" stroke-miterlimit="10"/>
<path d="M11.0075 11.0075L8.43262 8.43262" stroke="white" stroke-miterlimit="10"/>
<path d="M7.71615 16.7077L4.19922 15.7656" stroke="white" stroke-miterlimit="10"/>
</g>
<defs>
<clipPath id="clip0_23_101">
<rect width="40" height="40" fill="white"/>
</clipPath>
</defs>
</svg>
