<svg width="40" height="39" viewBox="0 0 40 39" fill="none" xmlns="http://www.w3.org/2000/svg">
<path d="M20.0114 30.869C26.0195 30.869 30.89 25.9985 30.89 19.9904C30.89 13.9823 26.0195 9.11182 20.0114 9.11182C14.0033 9.11182 9.13281 13.9823 9.13281 19.9904C9.13281 25.9985 14.0033 30.869 20.0114 30.869Z" stroke="white" stroke-miterlimit="10"/>
<path d="M32.7214 19.9907H40.0002" stroke="white" stroke-miterlimit="10"/>
<path d="M3.95728 33.1576H36.1144" stroke="white" stroke-miterlimit="10"/>
<path d="M8.43909 35.7284H31.6303" stroke="white" stroke-miterlimit="10"/>
<path d="M13.3889 38.2968H26.6826" stroke="white" stroke-miterlimit="10"/>
<path d="M31.0109 13.6311L37.3145 9.9917" stroke="white" stroke-miterlimit="10"/>
<path d="M26.3533 8.97907L29.9927 2.67542" stroke="white" stroke-miterlimit="10"/>
<path d="M19.9904 7.27877V0" stroke="white" stroke-miterlimit="10"/>
<path d="M13.6311 8.98896L9.9917 2.6853" stroke="white" stroke-miterlimit="10"/>
<path d="M8.9797 13.6474L2.67407 10.0081" stroke="white" stroke-miterlimit="10"/>
<path d="M7.27877 20.0085H0" stroke="white" stroke-miterlimit="10"/>
<path d="M32.2886 16.702L35.8053 15.7605" stroke="white" stroke-miterlimit="10"/>
<path d="M28.9988 11.0059L31.574 8.43262" stroke="white" stroke-miterlimit="10"/>
<path d="M23.302 7.71656L24.2435 4.20178" stroke="white" stroke-miterlimit="10"/>
<path d="M16.7235 7.71656L15.782 4.20178" stroke="white" stroke-miterlimit="10"/>
<path d="M11.0264 11.0059L8.45312 8.43262" stroke="white" stroke-miterlimit="10"/>
<path d="M7.73804 16.702L4.22327 15.7605" stroke="white" stroke-miterlimit="10"/>
</svg>
