<svg width="40" height="40" viewBox="0 0 40 40" fill="none" xmlns="http://www.w3.org/2000/svg">
<g clip-path="url(#clip0_23_66)">
<path d="M20.0114 31.369C26.0195 31.369 30.89 26.4985 30.89 20.4904C30.89 14.4823 26.0195 9.61182 20.0114 9.61182C14.0033 9.61182 9.13281 14.4823 9.13281 20.4904C9.13281 26.4985 14.0033 31.369 20.0114 31.369Z" stroke="#662D91" stroke-miterlimit="10"/>
<path d="M32.7217 20.4907H40.0005" stroke="#662D91" stroke-miterlimit="10"/>
<path d="M3.95703 33.6577H36.1142" stroke="#662D91" stroke-miterlimit="10"/>
<path d="M8.43945 36.2285H31.6307" stroke="#662D91" stroke-miterlimit="10"/>
<path d="M13.3887 38.7969H26.6824" stroke="#662D91" stroke-miterlimit="10"/>
<path d="M31.0107 14.1311L37.3143 10.4917" stroke="#662D91" stroke-miterlimit="10"/>
<path d="M26.3535 9.47894L29.9929 3.17529" stroke="#662D91" stroke-miterlimit="10"/>
<path d="M19.9902 7.77877V0.5" stroke="#662D91" stroke-miterlimit="10"/>
<path d="M13.6316 9.48872L9.99219 3.18506" stroke="#662D91" stroke-miterlimit="10"/>
<path d="M8.97946 14.1476L2.67383 10.5083" stroke="#662D91" stroke-miterlimit="10"/>
<path d="M7.27877 20.5083H0" stroke="#662D91" stroke-miterlimit="10"/>
<path d="M32.2891 17.2022L35.8058 16.2607" stroke="#662D91" stroke-miterlimit="10"/>
<path d="M28.999 11.5059L31.5742 8.93262" stroke="#662D91" stroke-miterlimit="10"/>
<path d="M23.3018 8.21644L24.2433 4.70166" stroke="#662D91" stroke-miterlimit="10"/>
<path d="M16.7237 8.21644L15.7822 4.70166" stroke="#662D91" stroke-miterlimit="10"/>
<path d="M11.0264 11.5059L8.45312 8.93262" stroke="#662D91" stroke-miterlimit="10"/>
<path d="M7.7384 17.2022L4.22363 16.2607" stroke="#662D91" stroke-miterlimit="10"/>
</g>
<defs>
<clipPath id="clip0_23_66">
<rect width="40" height="39" fill="white" transform="translate(0 0.5)"/>
</clipPath>
</defs>
</svg>
