<svg width="660" height="100" viewBox="0 0 660 100" fill="none" xmlns="http://www.w3.org/2000/svg">
<path d="M9.13086 92.9492H5.34668V78.252H0.500488V75.1025H13.9771V78.252H9.13086V92.9492ZM20.1538 79.3018V92.9492H16.4307V79.3018H20.1538ZM18.2983 73.9551C18.8517 73.9551 19.3278 74.0853 19.7266 74.3457C20.1253 74.598 20.3247 75.0741 20.3247 75.7739C20.3247 76.4657 20.1253 76.9458 19.7266 77.2144C19.3278 77.4748 18.8517 77.605 18.2983 77.605C17.7368 77.605 17.2567 77.4748 16.8579 77.2144C16.4673 76.9458 16.272 76.4657 16.272 75.7739C16.272 75.0741 16.4673 74.598 16.8579 74.3457C17.2567 74.0853 17.7368 73.9551 18.2983 73.9551ZM29.8218 90.2271C30.2287 90.2271 30.6234 90.1864 31.0059 90.105C31.3965 90.0236 31.783 89.9219 32.1655 89.7998V92.5708C31.7668 92.7498 31.2703 92.8963 30.6763 93.0103C30.0903 93.1323 29.4474 93.1934 28.7476 93.1934C27.9338 93.1934 27.2013 93.0632 26.5503 92.8027C25.9074 92.5342 25.3988 92.0744 25.0244 91.4233C24.6582 90.7642 24.4751 89.8486 24.4751 88.6768V82.0972H22.6929V80.5225L24.7437 79.2773L25.8179 76.3965H28.1982V79.3018H32.019V82.0972H28.1982V88.6768C28.1982 89.1976 28.3447 89.5882 28.6377 89.8486C28.9388 90.1009 29.3335 90.2271 29.8218 90.2271ZM38.6597 92.9492H34.9365V73.9551H38.6597V92.9492ZM48.2056 79.0454C49.467 79.0454 50.5534 79.2896 51.4648 79.7778C52.3763 80.258 53.0802 80.9578 53.5767 81.8774C54.0731 82.797 54.3213 83.9201 54.3213 85.2466V87.0532H45.52C45.5607 88.103 45.874 88.929 46.46 89.5312C47.054 90.1253 47.876 90.4224 48.9258 90.4224C49.7965 90.4224 50.5941 90.3328 51.3184 90.1538C52.0426 89.9748 52.7873 89.7062 53.5522 89.3481V92.229C52.8768 92.5627 52.1688 92.8068 51.4282 92.9614C50.6958 93.116 49.8047 93.1934 48.7549 93.1934C47.3877 93.1934 46.1751 92.9411 45.1172 92.4365C44.0674 91.932 43.2414 91.1629 42.6392 90.1294C42.0451 89.0959 41.748 87.7938 41.748 86.2231C41.748 84.6281 42.0166 83.3016 42.5537 82.2437C43.099 81.1776 43.8558 80.38 44.8242 79.8511C45.7926 79.314 46.9198 79.0454 48.2056 79.0454ZM48.23 81.6943C47.5057 81.6943 46.9035 81.9263 46.4233 82.3901C45.9513 82.854 45.6787 83.5824 45.6055 84.5752H50.8301C50.8219 84.0218 50.7202 83.5295 50.5249 83.0981C50.3377 82.6668 50.0529 82.325 49.6704 82.0728C49.2961 81.8205 48.8159 81.6943 48.23 81.6943ZM69.6411 74.8462C70.6014 74.8462 71.4559 74.9967 72.2046 75.2979C72.9533 75.599 73.5433 76.0384 73.9746 76.6162C74.4141 77.194 74.6338 77.8979 74.6338 78.728C74.6338 79.8755 74.292 80.8398 73.6084 81.6211C72.9329 82.4023 72.0866 83.0859 71.0693 83.6719L74.5361 87.0532C74.8779 86.4917 75.1668 85.8976 75.4028 85.271C75.647 84.6444 75.8586 84.0137 76.0376 83.3789H79.9194C79.6672 84.3148 79.2969 85.3158 78.8086 86.3818C78.3285 87.4398 77.714 88.4367 76.9653 89.3726L80.6396 92.9492H76.0376L74.6338 91.5698C74.1536 91.9035 73.6369 92.1924 73.0835 92.4365C72.5382 92.6807 71.9523 92.8678 71.3257 92.998C70.7072 93.1283 70.0521 93.1934 69.3604 93.1934C68.0094 93.1934 66.8498 92.9818 65.8813 92.5586C64.9129 92.1354 64.1724 91.5454 63.6597 90.7886C63.147 90.0236 62.8906 89.1366 62.8906 88.1274C62.8906 87.2811 63.0208 86.5568 63.2812 85.9546C63.5417 85.3442 63.916 84.8112 64.4043 84.3555C64.8926 83.8916 65.4785 83.4644 66.1621 83.0737C65.7308 82.5692 65.3849 82.0972 65.1245 81.6577C64.8722 81.2183 64.6891 80.7829 64.5752 80.3516C64.4694 79.9121 64.4165 79.4523 64.4165 78.9722C64.4165 78.1258 64.6362 77.3975 65.0757 76.7871C65.5233 76.1686 66.1377 75.6925 66.9189 75.3589C67.7083 75.0171 68.6157 74.8462 69.6411 74.8462ZM68.335 85.2954C68.0257 85.5314 67.7531 85.7756 67.5171 86.0278C67.2892 86.2801 67.1143 86.5487 66.9922 86.8335C66.8701 87.1183 66.8091 87.4316 66.8091 87.7734C66.8091 88.4896 67.0776 89.0511 67.6147 89.458C68.1519 89.8649 68.8192 90.0684 69.6167 90.0684C70.1538 90.0684 70.6543 90.0033 71.1182 89.873C71.582 89.7428 72.0052 89.5597 72.3877 89.3237L68.335 85.2954ZM69.6167 77.7271C69.2017 77.7271 68.8029 77.8328 68.4204 78.0444C68.0461 78.256 67.8589 78.6507 67.8589 79.2285C67.8589 79.6354 67.9647 80.0342 68.1763 80.4248C68.3879 80.8073 68.6686 81.1979 69.0186 81.5967C69.7184 81.2142 70.2555 80.8317 70.6299 80.4492C71.0042 80.0586 71.1914 79.6151 71.1914 79.1187C71.1914 78.6222 71.0205 78.2682 70.6787 78.0566C70.3451 77.8369 69.991 77.7271 69.6167 77.7271ZM104.187 83.855C104.187 85.8651 103.8 87.5456 103.027 88.8965C102.262 90.2393 101.152 91.2524 99.6948 91.936C98.2381 92.6115 96.4844 92.9492 94.4336 92.9492H89.3799V75.1025H94.9829C96.8547 75.1025 98.4782 75.4362 99.8535 76.1035C101.229 76.7627 102.295 77.7433 103.052 79.0454C103.809 80.3394 104.187 81.9425 104.187 83.855ZM100.256 83.9526C100.256 82.6343 100.061 81.5519 99.6704 80.7056C99.2879 79.8511 98.7183 79.2204 97.9614 78.8135C97.2127 78.4066 96.285 78.2031 95.1782 78.2031H93.1641V89.8242H94.7876C96.6349 89.8242 98.0062 89.3319 98.9014 88.3472C99.8047 87.3625 100.256 85.8976 100.256 83.9526ZM113.184 79.021C115.015 79.021 116.418 79.4198 117.395 80.2173C118.372 81.0148 118.86 82.2274 118.86 83.855V92.9492H116.26L115.54 91.0938H115.442C115.051 91.582 114.653 91.9808 114.246 92.29C113.839 92.5993 113.371 92.8271 112.842 92.9736C112.313 93.1201 111.67 93.1934 110.913 93.1934C110.107 93.1934 109.383 93.0387 108.74 92.7295C108.105 92.4202 107.605 91.9482 107.239 91.3135C106.873 90.6706 106.689 89.8568 106.689 88.8721C106.689 87.4235 107.198 86.3574 108.215 85.6738C109.233 84.9821 110.758 84.5996 112.793 84.5264L115.161 84.4531V83.855C115.161 83.1388 114.974 82.6139 114.6 82.2803C114.225 81.9466 113.704 81.7798 113.037 81.7798C112.378 81.7798 111.731 81.8734 111.096 82.0605C110.461 82.2477 109.827 82.4837 109.192 82.7686L107.959 80.2539C108.683 79.8714 109.493 79.5703 110.388 79.3506C111.292 79.1309 112.223 79.021 113.184 79.021ZM115.161 86.626L113.721 86.6748C112.516 86.7074 111.678 86.923 111.206 87.3218C110.742 87.7205 110.51 88.2454 110.51 88.8965C110.51 89.4661 110.677 89.873 111.011 90.1172C111.344 90.3532 111.78 90.4712 112.317 90.4712C113.114 90.4712 113.786 90.2352 114.331 89.7632C114.884 89.2912 115.161 88.6198 115.161 87.749V86.626ZM128.455 90.2271C128.861 90.2271 129.256 90.1864 129.639 90.105C130.029 90.0236 130.416 89.9219 130.798 89.7998V92.5708C130.4 92.7498 129.903 92.8963 129.309 93.0103C128.723 93.1323 128.08 93.1934 127.38 93.1934C126.567 93.1934 125.834 93.0632 125.183 92.8027C124.54 92.5342 124.032 92.0744 123.657 91.4233C123.291 90.7642 123.108 89.8486 123.108 88.6768V82.0972H121.326V80.5225L123.376 79.2773L124.451 76.3965H126.831V79.3018H130.652V82.0972H126.831V88.6768C126.831 89.1976 126.978 89.5882 127.271 89.8486C127.572 90.1009 127.966 90.2271 128.455 90.2271ZM139.197 79.0454C140.458 79.0454 141.545 79.2896 142.456 79.7778C143.368 80.258 144.071 80.9578 144.568 81.8774C145.064 82.797 145.312 83.9201 145.312 85.2466V87.0532H136.511C136.552 88.103 136.865 88.929 137.451 89.5312C138.045 90.1253 138.867 90.4224 139.917 90.4224C140.788 90.4224 141.585 90.3328 142.31 90.1538C143.034 89.9748 143.778 89.7062 144.543 89.3481V92.229C143.868 92.5627 143.16 92.8068 142.419 92.9614C141.687 93.116 140.796 93.1934 139.746 93.1934C138.379 93.1934 137.166 92.9411 136.108 92.4365C135.059 91.932 134.233 91.1629 133.63 90.1294C133.036 89.0959 132.739 87.7938 132.739 86.2231C132.739 84.6281 133.008 83.3016 133.545 82.2437C134.09 81.1776 134.847 80.38 135.815 79.8511C136.784 79.314 137.911 79.0454 139.197 79.0454ZM139.221 81.6943C138.497 81.6943 137.895 81.9263 137.415 82.3901C136.943 82.854 136.67 83.5824 136.597 84.5752H141.821C141.813 84.0218 141.711 83.5295 141.516 83.0981C141.329 82.6668 141.044 82.325 140.662 82.0728C140.287 81.8205 139.807 81.6943 139.221 81.6943Z" fill="#662D91"/>
<path d="M195.246 93V75.1533H199.03V89.875H206.269V93H195.246ZM221.491 86.1519C221.491 87.2912 221.337 88.3003 221.027 89.1792C220.726 90.0581 220.283 90.8027 219.697 91.4131C219.119 92.0153 218.419 92.471 217.597 92.7803C216.783 93.0895 215.864 93.2441 214.838 93.2441C213.878 93.2441 212.995 93.0895 212.189 92.7803C211.392 92.471 210.696 92.0153 210.102 91.4131C209.516 90.8027 209.06 90.0581 208.735 89.1792C208.417 88.3003 208.259 87.2912 208.259 86.1519C208.259 84.6382 208.527 83.3564 209.064 82.3066C209.602 81.2568 210.367 80.4593 211.359 79.9141C212.352 79.3688 213.536 79.0962 214.912 79.0962C216.189 79.0962 217.32 79.3688 218.305 79.9141C219.298 80.4593 220.075 81.2568 220.637 82.3066C221.206 83.3564 221.491 84.6382 221.491 86.1519ZM212.055 86.1519C212.055 87.047 212.153 87.7998 212.348 88.4102C212.543 89.0205 212.849 89.4803 213.264 89.7896C213.679 90.0988 214.22 90.2534 214.887 90.2534C215.546 90.2534 216.079 90.0988 216.486 89.7896C216.901 89.4803 217.202 89.0205 217.39 88.4102C217.585 87.7998 217.683 87.047 217.683 86.1519C217.683 85.2485 217.585 84.4998 217.39 83.9058C217.202 83.3035 216.901 82.8519 216.486 82.5508C216.071 82.2497 215.53 82.0991 214.863 82.0991C213.878 82.0991 213.162 82.4368 212.714 83.1123C212.275 83.7878 212.055 84.8009 212.055 86.1519ZM230.109 93.2441C228.758 93.2441 227.607 93 226.655 92.5117C225.703 92.0153 224.978 91.2503 224.482 90.2168C223.986 89.1833 223.737 87.8608 223.737 86.2495C223.737 84.5812 224.018 83.2222 224.58 82.1724C225.149 81.1144 225.935 80.3372 226.936 79.8408C227.945 79.3444 229.112 79.0962 230.439 79.0962C231.383 79.0962 232.197 79.1898 232.88 79.377C233.572 79.556 234.174 79.7716 234.687 80.0239L233.588 82.9048C233.002 82.6688 232.457 82.4775 231.953 82.3311C231.448 82.1764 230.944 82.0991 230.439 82.0991C229.788 82.0991 229.247 82.2537 228.815 82.563C228.384 82.8641 228.063 83.3198 227.851 83.9302C227.639 84.5405 227.534 85.3055 227.534 86.2251C227.534 87.1284 227.648 87.8771 227.875 88.4712C228.103 89.0653 228.433 89.5088 228.864 89.8018C229.296 90.0866 229.82 90.229 230.439 90.229C231.212 90.229 231.9 90.1273 232.502 89.9238C233.104 89.7122 233.69 89.4193 234.26 89.0449V92.231C233.69 92.589 233.092 92.8454 232.465 93C231.847 93.1628 231.062 93.2441 230.109 93.2441ZM243.024 79.0718C244.855 79.0718 246.259 79.4705 247.236 80.2681C248.212 81.0656 248.701 82.2782 248.701 83.9058V93H246.101L245.38 91.1445H245.283C244.892 91.6328 244.493 92.0316 244.086 92.3408C243.68 92.6501 243.212 92.8779 242.683 93.0244C242.154 93.1709 241.511 93.2441 240.754 93.2441C239.948 93.2441 239.224 93.0895 238.581 92.7803C237.946 92.471 237.446 91.999 237.08 91.3643C236.713 90.7214 236.53 89.9076 236.53 88.9229C236.53 87.4743 237.039 86.4082 238.056 85.7246C239.073 85.0329 240.599 84.6504 242.634 84.5771L245.002 84.5039V83.9058C245.002 83.1896 244.815 82.6647 244.44 82.3311C244.066 81.9974 243.545 81.8306 242.878 81.8306C242.219 81.8306 241.572 81.9242 240.937 82.1113C240.302 82.2985 239.667 82.5345 239.033 82.8193L237.8 80.3047C238.524 79.9222 239.334 79.6211 240.229 79.4014C241.132 79.1816 242.064 79.0718 243.024 79.0718ZM245.002 86.6768L243.562 86.7256C242.357 86.7581 241.519 86.9738 241.047 87.3726C240.583 87.7713 240.351 88.2962 240.351 88.9473C240.351 89.5169 240.518 89.9238 240.852 90.168C241.185 90.404 241.621 90.522 242.158 90.522C242.955 90.522 243.627 90.286 244.172 89.814C244.725 89.342 245.002 88.6706 245.002 87.7998V86.6768ZM258.295 90.2778C258.702 90.2778 259.097 90.2371 259.479 90.1558C259.87 90.0744 260.257 89.9727 260.639 89.8506V92.6216C260.24 92.8006 259.744 92.9471 259.15 93.061C258.564 93.1831 257.921 93.2441 257.221 93.2441C256.407 93.2441 255.675 93.1139 255.024 92.8535C254.381 92.585 253.872 92.1252 253.498 91.4741C253.132 90.8149 252.949 89.8994 252.949 88.7275V82.1479H251.167V80.5732L253.217 79.3281L254.292 76.4473H256.672V79.3525H260.493V82.1479H256.672V88.7275C256.672 89.2484 256.818 89.639 257.111 89.8994C257.412 90.1517 257.807 90.2778 258.295 90.2778ZM267.133 79.3525V93H263.41V79.3525H267.133ZM265.278 74.0059C265.831 74.0059 266.307 74.1361 266.706 74.3965C267.105 74.6488 267.304 75.1248 267.304 75.8247C267.304 76.5164 267.105 76.9966 266.706 77.2651C266.307 77.5256 265.831 77.6558 265.278 77.6558C264.716 77.6558 264.236 77.5256 263.837 77.2651C263.447 76.9966 263.251 76.5164 263.251 75.8247C263.251 75.1248 263.447 74.6488 263.837 74.3965C264.236 74.1361 264.716 74.0059 265.278 74.0059ZM283.454 86.1519C283.454 87.2912 283.299 88.3003 282.99 89.1792C282.689 90.0581 282.246 90.8027 281.66 91.4131C281.082 92.0153 280.382 92.471 279.56 92.7803C278.746 93.0895 277.827 93.2441 276.801 93.2441C275.841 93.2441 274.958 93.0895 274.152 92.7803C273.355 92.471 272.659 92.0153 272.065 91.4131C271.479 90.8027 271.023 90.0581 270.698 89.1792C270.38 88.3003 270.222 87.2912 270.222 86.1519C270.222 84.6382 270.49 83.3564 271.027 82.3066C271.564 81.2568 272.329 80.4593 273.322 79.9141C274.315 79.3688 275.499 79.0962 276.875 79.0962C278.152 79.0962 279.283 79.3688 280.268 79.9141C281.261 80.4593 282.038 81.2568 282.6 82.3066C283.169 83.3564 283.454 84.6382 283.454 86.1519ZM274.018 86.1519C274.018 87.047 274.116 87.7998 274.311 88.4102C274.506 89.0205 274.812 89.4803 275.227 89.7896C275.642 90.0988 276.183 90.2534 276.85 90.2534C277.509 90.2534 278.042 90.0988 278.449 89.7896C278.864 89.4803 279.165 89.0205 279.353 88.4102C279.548 87.7998 279.646 87.047 279.646 86.1519C279.646 85.2485 279.548 84.4998 279.353 83.9058C279.165 83.3035 278.864 82.8519 278.449 82.5508C278.034 82.2497 277.493 82.0991 276.826 82.0991C275.841 82.0991 275.125 82.4368 274.677 83.1123C274.238 83.7878 274.018 84.8009 274.018 86.1519ZM294.282 79.0962C295.738 79.0962 296.91 79.495 297.797 80.2925C298.684 81.0819 299.128 82.3514 299.128 84.1011V93H295.405V85.0288C295.405 84.0522 295.226 83.3158 294.868 82.8193C294.518 82.3229 293.964 82.0747 293.208 82.0747C292.068 82.0747 291.291 82.4613 290.876 83.2344C290.461 84.0075 290.253 85.1224 290.253 86.5791V93H286.53V79.3525H289.375L289.875 81.0981H290.083C290.375 80.6261 290.738 80.2437 291.169 79.9507C291.608 79.6577 292.093 79.4421 292.622 79.3037C293.159 79.1654 293.712 79.0962 294.282 79.0962Z" fill="black" fill-opacity="0.2"/>
<path d="M406.053 83.9058C406.053 85.9159 405.667 87.5964 404.894 88.9473C404.129 90.29 403.018 91.3032 401.561 91.9868C400.104 92.6623 398.351 93 396.3 93H391.246V75.1533H396.849C398.721 75.1533 400.344 75.487 401.72 76.1543C403.095 76.8135 404.161 77.7941 404.918 79.0962C405.675 80.3901 406.053 81.9933 406.053 83.9058ZM402.123 84.0034C402.123 82.6851 401.927 81.6027 401.537 80.7563C401.154 79.9019 400.584 79.2712 399.828 78.8643C399.079 78.4574 398.151 78.2539 397.044 78.2539H395.03V89.875H396.654C398.501 89.875 399.872 89.3826 400.768 88.3979C401.671 87.4132 402.123 85.9484 402.123 84.0034ZM415.086 79.0962C416.348 79.0962 417.434 79.3403 418.346 79.8286C419.257 80.3088 419.961 81.0086 420.458 81.9282C420.954 82.8478 421.202 83.9709 421.202 85.2974V87.104H412.401C412.442 88.1538 412.755 88.9798 413.341 89.582C413.935 90.1761 414.757 90.4731 415.807 90.4731C416.677 90.4731 417.475 90.3836 418.199 90.2046C418.924 90.0256 419.668 89.757 420.433 89.3989V92.2798C419.758 92.6134 419.05 92.8576 418.309 93.0122C417.577 93.1668 416.686 93.2441 415.636 93.2441C414.269 93.2441 413.056 92.9919 411.998 92.4873C410.948 91.9827 410.122 91.2137 409.52 90.1802C408.926 89.1466 408.629 87.8446 408.629 86.2739C408.629 84.6789 408.897 83.3524 409.435 82.2944C409.98 81.2284 410.737 80.4308 411.705 79.9019C412.674 79.3647 413.801 79.0962 415.086 79.0962ZM415.111 81.7451C414.387 81.7451 413.784 81.9771 413.304 82.4409C412.832 82.9048 412.56 83.6331 412.486 84.626H417.711C417.703 84.0726 417.601 83.5802 417.406 83.1489C417.219 82.7176 416.934 82.3758 416.551 82.1235C416.177 81.8713 415.697 81.7451 415.111 81.7451ZM429.979 90.2778C430.386 90.2778 430.781 90.2371 431.163 90.1558C431.554 90.0744 431.94 89.9727 432.323 89.8506V92.6216C431.924 92.8006 431.428 92.9471 430.833 93.061C430.248 93.1831 429.605 93.2441 428.905 93.2441C428.091 93.2441 427.359 93.1139 426.708 92.8535C426.065 92.585 425.556 92.1252 425.182 91.4741C424.815 90.8149 424.632 89.8994 424.632 88.7275V82.1479H422.85V80.5732L424.901 79.3281L425.975 76.4473H428.355V79.3525H432.176V82.1479H428.355V88.7275C428.355 89.2484 428.502 89.639 428.795 89.8994C429.096 90.1517 429.491 90.2778 429.979 90.2778ZM440.685 79.0718C442.516 79.0718 443.919 79.4705 444.896 80.2681C445.873 81.0656 446.361 82.2782 446.361 83.9058V93H443.761L443.041 91.1445H442.943C442.552 91.6328 442.153 92.0316 441.747 92.3408C441.34 92.6501 440.872 92.8779 440.343 93.0244C439.814 93.1709 439.171 93.2441 438.414 93.2441C437.608 93.2441 436.884 93.0895 436.241 92.7803C435.606 92.471 435.106 91.999 434.74 91.3643C434.374 90.7214 434.19 89.9076 434.19 88.9229C434.19 87.4743 434.699 86.4082 435.716 85.7246C436.734 85.0329 438.259 84.6504 440.294 84.5771L442.662 84.5039V83.9058C442.662 83.1896 442.475 82.6647 442.101 82.3311C441.726 81.9974 441.205 81.8306 440.538 81.8306C439.879 81.8306 439.232 81.9242 438.597 82.1113C437.962 82.2985 437.328 82.5345 436.693 82.8193L435.46 80.3047C436.184 79.9222 436.994 79.6211 437.889 79.4014C438.792 79.1816 439.724 79.0718 440.685 79.0718ZM442.662 86.6768L441.222 86.7256C440.017 86.7581 439.179 86.9738 438.707 87.3726C438.243 87.7713 438.011 88.2962 438.011 88.9473C438.011 89.5169 438.178 89.9238 438.512 90.168C438.845 90.404 439.281 90.522 439.818 90.522C440.615 90.522 441.287 90.286 441.832 89.814C442.385 89.342 442.662 88.6706 442.662 87.7998V86.6768ZM453.929 79.3525V93H450.206V79.3525H453.929ZM452.074 74.0059C452.627 74.0059 453.103 74.1361 453.502 74.3965C453.901 74.6488 454.1 75.1248 454.1 75.8247C454.1 76.5164 453.901 76.9966 453.502 77.2651C453.103 77.5256 452.627 77.6558 452.074 77.6558C451.512 77.6558 451.032 77.5256 450.633 77.2651C450.243 76.9966 450.047 76.5164 450.047 75.8247C450.047 75.1248 450.243 74.6488 450.633 74.3965C451.032 74.1361 451.512 74.0059 452.074 74.0059ZM461.571 93H457.848V74.0059H461.571V93ZM475.011 88.9473C475.011 89.875 474.791 90.6603 474.352 91.3032C473.92 91.938 473.273 92.4222 472.411 92.7559C471.548 93.0814 470.474 93.2441 469.188 93.2441C468.236 93.2441 467.418 93.1831 466.734 93.061C466.059 92.939 465.375 92.7355 464.684 92.4507V89.3745C465.424 89.7082 466.218 89.9849 467.064 90.2046C467.918 90.4162 468.667 90.522 469.31 90.522C470.034 90.522 470.551 90.4162 470.86 90.2046C471.178 89.9849 471.336 89.7 471.336 89.3501C471.336 89.1222 471.271 88.9188 471.141 88.7397C471.019 88.5526 470.75 88.3451 470.335 88.1172C469.92 87.8812 469.269 87.576 468.382 87.2017C467.528 86.8436 466.824 86.4814 466.271 86.1152C465.725 85.749 465.318 85.3177 465.05 84.8213C464.789 84.3167 464.659 83.6779 464.659 82.9048C464.659 81.6434 465.147 80.6953 466.124 80.0605C467.109 79.4176 468.423 79.0962 470.067 79.0962C470.913 79.0962 471.719 79.1816 472.484 79.3525C473.257 79.5234 474.05 79.7961 474.864 80.1704L473.741 82.856C473.066 82.563 472.427 82.3229 471.825 82.1357C471.231 81.9486 470.624 81.855 470.006 81.855C469.461 81.855 469.05 81.9282 468.773 82.0747C468.496 82.2212 468.358 82.445 468.358 82.7461C468.358 82.9658 468.427 83.1611 468.565 83.332C468.712 83.5029 468.989 83.6942 469.396 83.9058C469.811 84.1092 470.417 84.3737 471.214 84.6992C471.987 85.0166 472.659 85.3503 473.229 85.7002C473.798 86.042 474.238 86.4692 474.547 86.9819C474.856 87.4865 475.011 88.1416 475.011 88.9473Z" fill="black" fill-opacity="0.2"/>
<path d="M572.246 75.1533H577.8C580.177 75.1533 581.975 75.487 583.196 76.1543C584.417 76.8216 585.027 77.9935 585.027 79.6699C585.027 80.3454 584.917 80.9557 584.697 81.501C584.486 82.0462 584.176 82.4938 583.77 82.8438C583.363 83.1937 582.866 83.4215 582.28 83.5273V83.6494C582.874 83.7715 583.411 83.9831 583.892 84.2842C584.372 84.5771 584.754 85.0085 585.039 85.5781C585.332 86.1396 585.479 86.8883 585.479 87.8242C585.479 88.9066 585.214 89.8343 584.685 90.6074C584.156 91.3805 583.399 91.9746 582.415 92.3896C581.438 92.7965 580.274 93 578.923 93H572.246V75.1533ZM576.03 82.2212H578.228C579.326 82.2212 580.087 82.0503 580.51 81.7085C580.933 81.3586 581.145 80.8459 581.145 80.1704C581.145 79.4868 580.893 78.9985 580.388 78.7056C579.892 78.4045 579.102 78.2539 578.02 78.2539H576.03V82.2212ZM576.03 85.2241V89.875H578.496C579.635 89.875 580.429 89.6553 580.876 89.2158C581.324 88.7764 581.548 88.1864 581.548 87.4458C581.548 87.0063 581.45 86.6198 581.255 86.2861C581.06 85.9525 580.73 85.6921 580.266 85.5049C579.81 85.3177 579.18 85.2241 578.374 85.2241H576.03ZM601.274 79.3525V93H598.418L597.917 91.2544H597.722C597.429 91.7183 597.063 92.0967 596.624 92.3896C596.184 92.6826 595.7 92.8983 595.171 93.0366C594.642 93.175 594.093 93.2441 593.523 93.2441C592.546 93.2441 591.696 93.0732 590.972 92.7314C590.247 92.3815 589.682 91.8403 589.275 91.1079C588.876 90.3755 588.677 89.4233 588.677 88.2515V79.3525H592.4V87.3237C592.4 88.3003 592.575 89.0368 592.925 89.5332C593.275 90.0296 593.832 90.2778 594.597 90.2778C595.354 90.2778 595.948 90.1069 596.379 89.7651C596.811 89.4152 597.112 88.9066 597.283 88.2393C597.462 87.5638 597.551 86.7419 597.551 85.7734V79.3525H601.274ZM609.502 93.2441C607.98 93.2441 606.739 92.6501 605.779 91.4619C604.827 90.2656 604.351 88.5119 604.351 86.2007C604.351 83.8651 604.835 82.0991 605.803 80.9028C606.772 79.6984 608.037 79.0962 609.6 79.0962C610.251 79.0962 610.824 79.1857 611.321 79.3647C611.817 79.5438 612.244 79.7839 612.603 80.085C612.969 80.3861 613.278 80.7238 613.53 81.0981H613.652C613.604 80.8377 613.542 80.4552 613.469 79.9507C613.404 79.438 613.372 78.9131 613.372 78.376V74.0059H617.107V93H614.25L613.53 91.23H613.372C613.136 91.6043 612.839 91.9461 612.48 92.2554C612.131 92.5565 611.711 92.7965 611.223 92.9756C610.735 93.1546 610.161 93.2441 609.502 93.2441ZM610.808 90.2778C611.825 90.2778 612.542 89.9767 612.957 89.3745C613.38 88.7642 613.604 87.8486 613.628 86.6279V86.2251C613.628 84.8986 613.424 83.8854 613.018 83.1855C612.611 82.4775 611.854 82.1235 610.747 82.1235C609.925 82.1235 609.282 82.4775 608.818 83.1855C608.354 83.8936 608.123 84.9149 608.123 86.2495C608.123 87.5841 608.354 88.5892 608.818 89.2646C609.29 89.9401 609.954 90.2778 610.808 90.2778ZM624.993 99.0059C623.088 99.0059 621.632 98.6722 620.623 98.0049C619.622 97.3457 619.121 96.418 619.121 95.2217C619.121 94.3997 619.377 93.7121 619.89 93.1587C620.403 92.6053 621.156 92.2106 622.148 91.9746C621.766 91.8118 621.432 91.5474 621.147 91.1812C620.863 90.8068 620.72 90.4121 620.72 89.9971C620.72 89.4762 620.871 89.0449 621.172 88.7031C621.473 88.3532 621.908 88.0114 622.478 87.6777C621.762 87.3685 621.192 86.8721 620.769 86.1885C620.354 85.5049 620.146 84.6992 620.146 83.7715C620.146 82.7786 620.362 81.9364 620.793 81.2446C621.233 80.5448 621.868 80.0117 622.698 79.6455C623.536 79.2793 624.553 79.0962 625.75 79.0962C626.002 79.0962 626.295 79.1125 626.628 79.145C626.962 79.1776 627.267 79.2142 627.544 79.2549C627.829 79.2956 628.02 79.3281 628.118 79.3525H632.878V81.2446L630.742 81.7939C630.938 82.0951 631.084 82.4165 631.182 82.7583C631.279 83.1001 631.328 83.4622 631.328 83.8447C631.328 85.3096 630.815 86.453 629.79 87.2749C628.773 88.0887 627.357 88.4956 625.542 88.4956C625.111 88.4712 624.704 88.4386 624.321 88.3979C624.134 88.5444 623.992 88.6991 623.894 88.8618C623.796 89.0246 623.748 89.1955 623.748 89.3745C623.748 89.5535 623.821 89.7041 623.967 89.8262C624.122 89.9401 624.35 90.0296 624.651 90.0947C624.96 90.1517 625.343 90.1802 625.798 90.1802H628.118C629.615 90.1802 630.754 90.5016 631.536 91.1445C632.325 91.7874 632.72 92.7314 632.72 93.9766C632.72 95.5716 632.052 96.8086 630.718 97.6875C629.391 98.5664 627.483 99.0059 624.993 99.0059ZM625.151 96.5767C626.038 96.5767 626.799 96.4912 627.434 96.3203C628.077 96.1576 628.569 95.9215 628.911 95.6123C629.253 95.3112 629.424 94.9491 629.424 94.5259C629.424 94.1841 629.322 93.9115 629.119 93.708C628.923 93.5127 628.622 93.3743 628.215 93.293C627.817 93.2116 627.304 93.1709 626.677 93.1709H624.749C624.293 93.1709 623.882 93.2441 623.516 93.3906C623.158 93.5371 622.873 93.7406 622.661 94.001C622.45 94.2695 622.344 94.5788 622.344 94.9287C622.344 95.4414 622.588 95.8442 623.076 96.1372C623.573 96.4302 624.264 96.5767 625.151 96.5767ZM625.75 86.2251C626.449 86.2251 626.962 86.0094 627.288 85.5781C627.613 85.1468 627.776 84.5609 627.776 83.8203C627.776 82.9984 627.605 82.384 627.263 81.9771C626.93 81.562 626.425 81.3545 625.75 81.3545C625.066 81.3545 624.553 81.562 624.211 81.9771C623.87 82.384 623.699 82.9984 623.699 83.8203C623.699 84.5609 623.866 85.1468 624.199 85.5781C624.541 86.0094 625.058 86.2251 625.75 86.2251ZM640.764 79.0962C642.026 79.0962 643.112 79.3403 644.023 79.8286C644.935 80.3088 645.639 81.0086 646.135 81.9282C646.632 82.8478 646.88 83.9709 646.88 85.2974V87.104H638.079C638.119 88.1538 638.433 88.9798 639.019 89.582C639.613 90.1761 640.435 90.4731 641.484 90.4731C642.355 90.4731 643.153 90.3836 643.877 90.2046C644.601 90.0256 645.346 89.757 646.111 89.3989V92.2798C645.435 92.6134 644.727 92.8576 643.987 93.0122C643.254 93.1668 642.363 93.2441 641.313 93.2441C639.946 93.2441 638.734 92.9919 637.676 92.4873C636.626 91.9827 635.8 91.2137 635.198 90.1802C634.604 89.1466 634.307 87.8446 634.307 86.2739C634.307 84.6789 634.575 83.3524 635.112 82.2944C635.658 81.2284 636.414 80.4308 637.383 79.9019C638.351 79.3647 639.478 79.0962 640.764 79.0962ZM640.789 81.7451C640.064 81.7451 639.462 81.9771 638.982 82.4409C638.51 82.9048 638.237 83.6331 638.164 84.626H643.389C643.381 84.0726 643.279 83.5802 643.083 83.1489C642.896 82.7176 642.611 82.3758 642.229 82.1235C641.855 81.8713 641.375 81.7451 640.789 81.7451ZM655.657 90.2778C656.064 90.2778 656.458 90.2371 656.841 90.1558C657.231 90.0744 657.618 89.9727 658 89.8506V92.6216C657.602 92.8006 657.105 92.9471 656.511 93.061C655.925 93.1831 655.282 93.2441 654.583 93.2441C653.769 93.2441 653.036 93.1139 652.385 92.8535C651.742 92.585 651.234 92.1252 650.859 91.4741C650.493 90.8149 650.31 89.8994 650.31 88.7275V82.1479H648.528V80.5732L650.579 79.3281L651.653 76.4473H654.033V79.3525H657.854V82.1479H654.033V88.7275C654.033 89.2484 654.18 89.639 654.473 89.8994C654.774 90.1517 655.168 90.2778 655.657 90.2778Z" fill="black" fill-opacity="0.2"/>
<circle cx="72.3304" cy="31.3304" r="29.3304" fill="#662D91" fill-opacity="0.1" stroke="#662D91" stroke-width="4"/>
<path d="M75.3926 42.3252H70.8662V29.9326C70.8662 29.5908 70.8711 29.1709 70.8809 28.6729C70.8906 28.165 70.9053 27.6475 70.9248 27.1201C70.9443 26.583 70.9639 26.0996 70.9834 25.6699C70.876 25.7969 70.6562 26.0166 70.3242 26.3291C70.002 26.6318 69.6992 26.9053 69.416 27.1494L66.9551 29.127L64.7725 26.4023L71.6719 20.9092H75.3926V42.3252Z" fill="#662D91"/>
<circle cx="253.33" cy="31.3304" r="27.3304" fill="#F3F2F2"/>
<circle cx="253.33" cy="31.3304" r="29.3304" stroke="black" stroke-opacity="0.2" stroke-width="4"/>
<path d="M260.172 42.3252H245.201V39.1758L250.577 33.7412C251.661 32.6279 252.53 31.7002 253.185 30.958C253.849 30.2061 254.327 29.5225 254.62 28.9072C254.923 28.292 255.074 27.6328 255.074 26.9297C255.074 26.0801 254.835 25.4453 254.356 25.0254C253.888 24.5957 253.258 24.3809 252.467 24.3809C251.637 24.3809 250.831 24.5713 250.05 24.9521C249.269 25.333 248.453 25.875 247.604 26.5781L245.143 23.6631C245.758 23.1357 246.407 22.6377 247.091 22.1689C247.784 21.7002 248.585 21.3242 249.493 21.041C250.411 20.748 251.51 20.6016 252.789 20.6016C254.195 20.6016 255.401 20.8555 256.407 21.3633C257.423 21.8711 258.204 22.5645 258.751 23.4434C259.298 24.3125 259.571 25.2988 259.571 26.4023C259.571 27.584 259.337 28.6631 258.868 29.6396C258.399 30.6162 257.716 31.583 256.817 32.54C255.929 33.4971 254.854 34.5566 253.595 35.7188L250.841 38.3115V38.5166H260.172V42.3252Z" fill="black" fill-opacity="0.2"/>
<circle cx="434.33" cy="31.3304" r="27.3304" fill="#F3F2F2"/>
<circle cx="434.33" cy="31.3304" r="29.3304" stroke="black" stroke-opacity="0.2" stroke-width="4"/>
<path d="M441.337 25.6992C441.337 26.6855 441.132 27.54 440.722 28.2627C440.312 28.9854 439.755 29.5762 439.052 30.0352C438.358 30.4941 437.577 30.8311 436.708 31.0459V31.1338C438.427 31.3486 439.73 31.876 440.619 32.7158C441.518 33.5557 441.967 34.6787 441.967 36.085C441.967 37.335 441.659 38.4531 441.044 39.4395C440.438 40.4258 439.501 41.2021 438.231 41.7686C436.962 42.335 435.326 42.6182 433.324 42.6182C432.143 42.6182 431.039 42.5205 430.014 42.3252C428.998 42.1396 428.041 41.8516 427.143 41.4609V37.6084C428.061 38.0771 429.022 38.4336 430.028 38.6777C431.034 38.9121 431.972 39.0293 432.841 39.0293C434.462 39.0293 435.595 38.751 436.239 38.1943C436.894 37.6279 437.221 36.8369 437.221 35.8213C437.221 35.2256 437.069 34.7227 436.767 34.3125C436.464 33.9023 435.937 33.5898 435.185 33.375C434.442 33.1602 433.402 33.0527 432.064 33.0527H430.438V29.5811H432.094C433.412 29.5811 434.413 29.459 435.097 29.2148C435.79 28.9609 436.259 28.6191 436.503 28.1895C436.757 27.75 436.884 27.252 436.884 26.6953C436.884 25.9336 436.649 25.3379 436.181 24.9082C435.712 24.4785 434.931 24.2637 433.837 24.2637C433.153 24.2637 432.528 24.3516 431.962 24.5273C431.405 24.6934 430.902 24.8984 430.453 25.1426C430.004 25.377 429.608 25.6064 429.267 25.8311L427.172 22.7109C428.012 22.1055 428.993 21.6025 430.116 21.2021C431.249 20.8018 432.597 20.6016 434.159 20.6016C436.366 20.6016 438.114 21.0459 439.403 21.9346C440.692 22.8232 441.337 24.0781 441.337 25.6992Z" fill="black" fill-opacity="0.2"/>
<circle cx="615.33" cy="31.3304" r="27.3304" fill="#F3F2F2"/>
<circle cx="615.33" cy="31.3304" r="29.3304" stroke="black" stroke-opacity="0.2" stroke-width="4"/>
<path d="M622.655 37.8867H620.077V42.3252H615.653V37.8867H606.513V34.7373L615.902 20.9092H620.077V34.3711H622.655V37.8867ZM615.653 34.3711V30.7383C615.653 30.3965 615.658 29.9912 615.668 29.5225C615.688 29.0537 615.707 28.585 615.727 28.1162C615.746 27.6475 615.766 27.2324 615.785 26.8711C615.814 26.5 615.834 26.2412 615.844 26.0947H615.727C615.541 26.4951 615.346 26.8857 615.141 27.2666C614.936 27.6377 614.696 28.0283 614.423 28.4385L610.497 34.3711H615.653Z" fill="black" fill-opacity="0.2"/>
</svg>
