<svg width="100" height="100" viewBox="0 0 100 100" fill="none" xmlns="http://www.w3.org/2000/svg">
<circle cx="50" cy="50" r="50" fill="#E1E1E1" fill-opacity="0.3"/>
<mask id="mask0_1070_263" style="mask-type:alpha" maskUnits="userSpaceOnUse" x="0" y="0" width="100" height="100">
<circle cx="50" cy="50" r="50" fill="#D9D9D9"/>
</mask>
<g mask="url(#mask0_1070_263)">
<path d="M63.395 55.2688C61.9259 63.2181 60.3514 71.1082 59.3513 79.132C58.4027 86.7283 57.4907 94.3333 56.3056 101.894C50.2052 102.004 44.1033 101.802 38.0228 101.289C31.9594 100.809 25.9648 99.9493 20.2692 97.6884C17.2421 96.4853 14.3225 95.0179 11.543 93.3026C14.2682 89.2677 15.9394 84.6165 17.7591 80.1166C19.709 75.2918 21.3838 70.3561 22.775 65.3342C25.81 54.3697 27.0166 43.4052 27.7393 32.0941C28.1502 25.6579 29.9569 18.8928 34.205 13.9522C38.453 9.01154 45.6199 6.1476 51.9005 8.56638C55.7722 10.0619 58.9404 13.1583 61.0505 16.7986C62.0438 18.5349 62.8439 20.3788 63.4359 22.2962C63.5993 22.8049 63.7456 23.3203 63.8832 23.8312C64.308 25.457 64.6348 27.1076 64.8619 28.774C65.2132 31.3572 65.3892 33.962 65.3889 36.5698C65.4061 42.8328 64.5328 49.1111 63.395 55.2688Z" fill="#345668"/>
<path d="M59.6175 55.9096C58.6916 56.557 57.5083 56.8024 56.3651 57.0267C54.9956 57.3296 53.603 57.5417 52.1987 57.6613C49.4565 57.8412 46.8702 57.2234 44.1823 56.7093C44.0469 55.2989 43.9115 53.8836 43.7761 52.4633C43.6084 50.6947 43.436 48.9218 43.0675 47.1744C42.9541 46.6391 42.8313 46.1166 42.6801 45.5792C42.3282 44.2633 41.8936 42.9644 41.459 41.6654C41.1016 40.5977 40.7442 39.5301 40.3867 38.4624C41.1662 38.9976 41.8747 39.2473 42.7888 39.5858C46.6387 41.0074 50.5477 42.2979 54.4732 43.5419C55.6542 43.9164 56.8517 44.2908 58.094 44.4305L58.9113 50.608L59.6175 55.9096Z" fill="#FFCFCA"/>
<path d="M57.6944 51.9239C53.6644 51.3446 49.7417 50.1134 46.0625 48.2731C44.8969 47.6845 43.6871 47.0514 42.5303 46.3503C42.2014 44.8919 41.7952 43.4522 41.389 42.0124C41.0549 40.8291 40.7208 39.6457 40.3867 38.4624C41.1152 39.0556 41.7775 39.3323 42.6319 39.7075C46.2303 41.2832 49.8839 42.7135 53.5529 44.0923C54.6567 44.5073 55.776 44.9224 56.9372 45.0771L57.6944 51.9239Z" fill="#F9BFBB"/>
<path d="M64.5049 40.1667C63.894 42.3687 62.9378 44.4078 61.1613 45.8567C59.5634 47.1468 57.6208 47.9144 55.5879 48.0588C53.3538 48.1807 51.127 47.7064 49.1274 46.6825C48.1228 46.1855 47.1703 45.5857 46.2846 44.8923C44.755 43.6737 43.3841 42.2611 42.2049 40.6886C40.1985 38.1064 38.6385 35.1939 37.5921 32.0765C36.4459 28.5401 36.1308 24.7746 37.1928 21.1325C37.6227 19.644 38.294 18.2395 39.1786 16.9773C42.8957 11.6528 50.1182 9.97263 55.7347 13.1259C58.6617 14.7708 61.0102 17.4793 62.4413 20.5379C62.9002 21.5134 63.308 22.5131 63.663 23.5327C65.5151 28.8285 66.0029 34.7564 64.5049 40.1667Z" fill="#FFCFCA"/>
<path d="M64.9253 22.4096C63.0787 19.7906 61.2252 17.0589 58.7879 14.988C56.604 13.1315 53.8906 11.8664 50.9644 11.6108C45.4199 11.1234 38.9543 13.1272 35.4329 17.4229C33.6564 19.5891 32.8462 22.2991 32.7172 24.9897C32.5882 27.6802 33.1698 30.0631 33.8827 32.6929C39.2394 32.2055 43.9059 28.9561 46.6736 24.8662C48.733 21.8334 49.8555 18.3674 50.4371 14.8125C52.0937 16.864 53.9313 18.7855 56.0948 20.3603C58.7811 22.31 62.0128 23.7246 65.3915 23.9347C65.2512 23.4213 65.0973 22.9122 64.9253 22.4096Z" fill="#345668"/>
<path d="M82.6977 112.811C77.7996 115.584 72.5717 117.74 67.1349 119.231C66.9218 118.97 66.7132 118.71 66.5046 118.447C65.7203 117.463 64.9525 116.47 64.2014 115.469C63.7873 114.921 63.3785 114.369 62.9749 113.813C62.7785 113.544 62.582 113.273 62.3855 113.002L62.1838 112.722L61.8959 112.32C61.6352 111.953 61.3745 111.585 61.1183 111.217L60.819 110.785L60.5311 110.363C59.5379 108.923 58.6362 107.422 57.8312 105.871C57.2239 104.676 56.6938 103.444 56.2443 102.183C56.1763 101.996 56.1105 101.81 56.047 101.621C55.5837 100.251 55.2015 98.8555 54.9022 97.4413C54.8251 97.0887 54.7548 96.7361 54.6891 96.3812C54.688 96.3775 54.688 96.3736 54.6891 96.3699C54.6392 96.1094 54.5916 95.8466 54.5486 95.586L54.535 95.5074C54.4873 95.2222 54.4443 94.9369 54.4012 94.6517C54.4012 94.6247 54.4012 94.5978 54.4012 94.5708C54.4012 94.5438 54.3853 94.4607 54.3763 94.4046C54.3105 93.9262 54.2493 93.4477 54.1972 92.9671C54.1836 92.8705 54.1745 92.7717 54.1632 92.6728C54.1269 92.3359 54.0952 91.999 54.068 91.6576C54.0544 91.5341 54.0453 91.4105 54.0362 91.287C54.0271 91.1635 54.0204 91.0871 54.0135 90.986C53.9909 90.7142 53.9727 90.4425 53.9569 90.1684L53.9365 89.7956C53.9161 89.4137 53.8979 89.0296 53.8843 88.6456C53.8843 88.5198 53.8843 88.3963 53.873 88.2705C53.873 88.0189 53.8571 87.7673 53.8526 87.518C53.8526 87.3922 53.8526 87.2687 53.8526 87.1452C53.8526 87.0216 53.8526 86.9498 53.8526 86.8509C53.8526 86.7072 53.8526 86.5612 53.8526 86.4152C53.8345 82.918 54.0589 79.4006 54.3536 75.9483C54.9725 68.6934 56.0924 62.9726 59.5926 56.7756C59.7082 56.5689 59.8193 56.3623 59.9508 56.1534C60.0256 56.0253 60.1027 55.8973 60.1775 55.7693C60.4314 55.8165 60.6807 55.8681 60.9256 55.9265C61.6456 56.0933 62.3531 56.3095 63.043 56.5734C63.2258 56.6438 63.4072 56.7186 63.587 56.798C64.1106 57.0183 64.6221 57.2657 65.1195 57.5392C68.0847 59.1542 70.5603 61.562 73.0721 64.1405C79.032 76.3908 76.8602 105.067 76.8602 105.067C76.8602 105.067 80.3582 109.456 81.9564 111.718L82.1831 112.057C82.3524 112.305 82.5239 112.557 82.6977 112.811Z" fill="#BADDD4"/>
<path d="M69.2311 94.231L67.5296 101.471L65.8962 108.421C65.5814 109.753 65.2681 111.084 64.9562 112.416L64.4776 114.464C64.4457 114.603 64.4117 114.742 64.3776 114.878C64.0528 116.214 63.626 117.518 63.1016 118.778C62.9498 119.135 62.7889 119.488 62.6188 119.837C58.4923 120.715 54.2949 121.156 50.0875 121.154C44.0521 121.158 38.0466 120.248 32.2498 118.451C32.2264 118.121 32.2051 117.786 32.1839 117.454C32.1392 116.744 32.1009 116.037 32.0499 115.381L31.6926 110.758C31.6564 110.302 31.6224 109.847 31.5884 109.41C31.5543 108.974 31.5224 108.575 31.4905 108.157C31.4714 107.929 31.4544 107.702 31.4352 107.456L31.4161 107.192C31.3629 106.509 31.3119 105.838 31.2587 105.16C31.2587 105.06 31.2438 104.96 31.2353 104.86L30.9099 100.661C30.8886 100.379 30.8652 100.095 30.844 99.8126C30.8184 99.4918 30.7951 99.1687 30.7695 98.8478C31.1788 99.0456 31.6143 99.1738 32.0605 99.2278C32.6041 99.3009 33.1538 99.3047 33.6982 99.2392L35.993 98.9684L38.8855 98.6226L49.56 97.3415L50.2385 97.2619L52.7907 96.9547L53.8052 96.8341L54.1838 96.7886L55.6619 96.6111L57.3634 96.4063L57.7887 96.3562L64.954 95.4984C66.6406 95.2845 67.6912 95.0387 69.2311 94.231Z" fill="#FFCFCA"/>
<path d="M67.4193 102.678C62.015 103.141 56.5908 102.625 51.1909 102.151C47.73 101.854 44.2764 101.483 40.8302 101.038C39.079 100.816 37.3293 100.576 35.5811 100.319C34.2511 100.121 32.5752 99.7476 31.2674 100.257C28.4788 101.345 28.8291 106.487 28.9089 108.868C28.9798 110.975 30.2921 111.896 32.0942 112.539C41.3489 115.837 51.4503 115.974 61.1483 114.446C62.6135 114.223 64.6595 114.241 65.5927 112.888C67.0713 110.737 68.0311 107.862 69.0197 105.437C69.565 104.08 69.0973 102.536 67.4193 102.678Z" fill="#97C6B7"/>
<path d="M23.2032 68.7855C23.074 69.0452 23.0437 69.3438 23.1179 69.6246L28.7226 90.825C29.0647 94.8641 29.1465 98.9213 28.9676 102.971C28.9086 104.137 28.8364 105.376 29.3899 106.401C29.5714 106.733 29.8074 107.031 30.0877 107.284C30.4737 107.628 30.9079 107.912 31.3762 108.128C31.8982 108.371 32.4362 108.578 32.9863 108.746C41.6584 111.495 50.8345 112.227 59.8265 110.886C61.4235 110.65 63.0139 110.349 64.5869 109.985C65.3547 109.812 66.1109 109.591 66.8511 109.322C66.9889 109.274 67.1245 109.219 67.258 109.163C67.6662 108.997 68.0605 108.797 68.4371 108.567C68.5968 108.47 68.7543 108.364 68.9075 108.251C69.3996 107.894 69.8317 107.459 70.1872 106.964C71.1301 105.639 71.4998 104.016 71.7886 102.415C71.863 101.993 71.9308 101.575 72.0073 101.16C72.0445 100.939 72.0817 100.719 72.1167 100.498C72.6158 97.3375 72.9212 94.1491 73.0312 90.9509C73.2047 85.9007 72.897 80.8453 72.1124 75.8545C72.0467 75.4371 71.9789 75.0241 71.9067 74.6089C71.085 69.8288 69.8193 65.1374 68.1265 60.5968C67.8224 59.7819 65.3722 58.0218 65.3722 58.0218C65.3722 58.0218 63.9481 57.7325 61.7801 57.3593C61.7254 57.3593 61.6729 57.3417 61.6204 57.3328L61.0976 57.2445L60.7979 57.1937C60.4019 57.1296 59.9862 57.0612 59.5575 56.9949L59.2337 56.9441C58.7962 56.8779 58.3586 56.8094 57.908 56.7432L57.582 56.6968L56.6654 56.5687L56.3394 56.5245L55.0772 56.3633L54.7534 56.3236C54.3159 56.2728 53.8958 56.2242 53.4671 56.1778L53.1367 56.1425L52.0429 56.0365L51.7191 56.0078C51.321 55.9725 50.9272 55.9393 50.5334 55.9128L50.2075 55.8885C49.794 55.8598 49.3849 55.8377 48.9846 55.8179L48.6564 55.8024C48.2539 55.7869 47.8536 55.7759 47.4642 55.7693H47.1404C46.7029 55.7693 46.2938 55.7693 45.8913 55.7803H45.5653C45.3465 55.7803 45.1278 55.8002 44.909 55.8135C44.6902 55.8267 44.419 55.851 44.1871 55.8753L43.8655 55.9106L43.7605 55.9239C43.1654 55.999 42.5704 56.0873 41.9797 56.1823C39.1288 56.6419 36.3194 57.3339 33.5792 58.2515L33.4698 58.289C29.5806 59.6036 26.3657 62.4202 24.5289 66.1222L23.2032 68.7855Z" fill="#BADDD4"/>
<path d="M61.4068 55.5883C61.3323 55.2477 61.2411 54.9023 61.1873 54.5761C60.9636 53.2304 61.1873 51.5153 59.8968 50.587C59.2754 50.1313 58.4904 50.2104 57.7633 50.1984C56.9058 50.184 56.0503 50.1984 55.1927 50.1816C53.3907 50.1371 51.5947 49.9261 49.8216 49.5508C48.9158 49.3589 48.0182 49.1254 47.1288 48.8503C46.3314 48.6105 45.5235 48.1883 44.6971 48.0923C44.1005 48.0228 43.4542 48.1931 43.1104 48.6656C42.9153 48.9829 42.794 49.353 42.7582 49.7403C42.4434 51.6592 42.1555 53.5902 42.4206 55.5284C42.5014 56.1256 42.6526 56.7493 43.069 57.2075C44.0094 58.2197 46.0642 58.5339 47.3318 58.8482C51.5202 59.8796 56.0026 60.0187 59.9341 58.3468C60.4079 58.1815 60.8448 57.8982 61.2142 57.5169C61.6927 56.9412 61.5581 56.2672 61.4068 55.5883Z" fill="#97C6B7"/>
<path d="M43.755 57.6902C43.6636 57.6868 43.5769 57.6708 43.5074 57.6444C43.4379 57.6181 43.3892 57.5827 43.3681 57.5434C42.0788 54.4652 41.9741 51.3134 43.0586 48.2199C43.0829 48.1733 43.1474 48.1327 43.2386 48.1068C43.3297 48.0808 43.4403 48.0716 43.5467 48.081C43.6567 48.085 43.7588 48.1078 43.8311 48.1445C43.9034 48.1813 43.9402 48.229 43.9336 48.2775C42.8622 51.3398 42.9648 54.4594 44.2372 57.5067C44.243 57.5298 44.2378 57.5532 44.222 57.5753C44.2062 57.5975 44.1802 57.6179 44.1455 57.6354C44.1108 57.6529 44.0682 57.667 44.0205 57.6769C43.9727 57.6868 43.9209 57.6922 43.8681 57.6928L43.755 57.6902Z" fill="#83B2A3"/>
<path d="M44.9921 57.6909C44.8506 57.6882 44.7186 57.6705 44.625 57.6416C44.5313 57.6127 44.4835 57.575 44.492 57.5366C45.0057 56.4074 45.1551 55.2682 44.9382 54.132L44.6228 50.3917C44.6228 50.2833 44.5381 50.25 44.4843 50.2395C44.4243 50.2314 44.3718 50.2197 44.3305 50.2053C44.2892 50.191 44.2601 50.1744 44.2454 50.1566C44.2307 50.1389 44.2307 50.1205 44.2454 50.1027C44.2601 50.085 44.2891 50.0683 44.3304 50.054C44.4267 50.0259 44.5558 50.0077 44.696 50.0023C44.8361 49.997 44.9787 50.005 45.0998 50.0248C45.3176 50.0665 45.4917 50.1228 45.605 50.1882C45.7183 50.2537 45.7669 50.3259 45.7461 50.398L46.0615 54.1382C46.2788 55.2877 46.1269 56.4401 45.6076 57.5824C45.5746 57.6182 45.4928 57.6493 45.3786 57.6695C45.2644 57.6896 45.1263 57.6972 44.9921 57.6909Z" fill="#83B2A3"/>
<path d="M50.3489 57.6905C50.3 57.6889 50.2524 57.6832 50.2088 57.6738C50.1652 57.6645 50.1265 57.6516 50.0949 57.636C50.0634 57.6204 50.0396 57.6024 50.0249 57.583C50.0102 57.5635 50.0049 57.5431 50.0093 57.5228C51.0216 55.0873 51.3508 52.6113 50.9903 50.1443C50.9916 50.1243 51.0027 50.1047 51.0229 50.0865C51.0431 50.0684 51.0719 50.0521 51.1077 50.0388C51.1435 50.0254 51.1855 50.0151 51.2311 50.0087C51.2767 50.0022 51.3249 49.9997 51.373 50.0012C51.4732 49.998 51.5725 50.0108 51.6507 50.037C51.7289 50.0632 51.7799 50.1008 51.7934 50.1421C52.1502 52.6281 51.812 55.1228 50.7855 57.5765C50.7601 57.6147 50.7012 57.6475 50.6205 57.6686C50.5397 57.6897 50.4428 57.6975 50.3489 57.6905Z" fill="#83B2A3"/>
<path d="M52.784 57.6887C52.6355 57.6842 52.4995 57.6638 52.4051 57.6319C52.3107 57.6 52.2655 57.5592 52.2792 57.5182C52.5545 56.9467 52.5408 56.3675 52.2385 55.797C52.1489 55.5278 52.0512 55.2495 52.0105 54.9757C51.9704 54.3694 52.0738 53.763 52.3199 53.1603C52.6374 52.1707 52.9712 51.1407 51.9454 50.1758C51.9274 50.1565 51.9248 50.1364 51.938 50.1168C51.9511 50.0972 51.9796 50.0786 52.0215 50.0624C52.0634 50.0462 52.1176 50.0326 52.1804 50.0228C52.2432 50.0129 52.313 50.0069 52.385 50.0053C52.5348 49.9956 52.6923 50.0015 52.8274 50.0218C52.9625 50.042 53.0658 50.0753 53.1177 50.1152C54.2005 51.134 53.8586 52.1819 53.5248 53.194C53.2843 53.79 53.1836 54.3896 53.2236 54.9892C53.2236 55.2562 53.3539 55.53 53.4515 55.7948C53.7543 56.3903 53.7543 56.9945 53.4515 57.59C53.4035 57.6261 53.309 57.6562 53.1859 57.6744C53.0628 57.6926 52.9198 57.6977 52.784 57.6887Z" fill="#83B2A3"/>
<path d="M58.8241 57.6905C58.6854 57.6886 58.5547 57.6743 58.4579 57.6503C58.3611 57.6263 58.3053 57.5944 58.3016 57.561C58.6114 55.7232 58.4104 53.8825 57.6998 52.0511C57.6963 52.034 57.708 52.0168 57.7339 52.0008C57.7598 51.9849 57.7995 51.9703 57.8503 51.9583C57.9011 51.9462 57.962 51.9369 58.0288 51.9309C58.0957 51.9249 58.167 51.9224 58.2383 51.9235C58.3864 51.9201 58.5343 51.9305 58.652 51.9524C58.7696 51.9743 58.8482 52.0062 58.8716 52.0416C59.5887 53.8818 59.7923 55.7314 59.4812 57.5781C59.4735 57.5953 59.4515 57.6119 59.4163 57.627C59.3811 57.6421 59.3335 57.6552 59.2765 57.6657C59.2195 57.6763 59.1542 57.6839 59.0847 57.6881C59.0151 57.6924 58.9426 57.6932 58.8716 57.6905H58.8241Z" fill="#83B2A3"/>
<path d="M60.9922 57.6873C60.9722 57.6899 60.9516 57.6899 60.9316 57.6873C60.8986 57.6817 60.8676 57.6711 60.8405 57.6564C60.8134 57.6416 60.7908 57.6229 60.7741 57.6016C60.7574 57.5802 60.747 57.5565 60.7435 57.532C60.74 57.5076 60.7435 57.4829 60.7538 57.4594C61.1019 56.828 60.9468 56.1416 60.7803 55.4167C60.6964 55.0806 60.637 54.7415 60.6024 54.4009C60.5835 54.1263 60.6024 53.8518 60.6024 53.5937C60.6214 53.3266 60.6214 53.059 60.6024 52.792C60.5305 51.9216 60.0765 51.0623 59.6338 50.2304C59.6229 50.2076 59.6189 50.1835 59.6222 50.1595C59.6256 50.1356 59.6361 50.1125 59.653 50.0918C59.67 50.0712 59.6929 50.0534 59.7203 50.0399C59.7477 50.0263 59.7789 50.0173 59.8116 50.0135C59.8836 49.9949 59.9626 49.9967 60.0328 50.0186C60.1029 50.0405 60.1591 50.0808 60.19 50.1315C60.6403 50.9854 61.1095 51.8695 61.1852 52.7865C61.2079 53.061 61.1852 53.3356 61.1852 53.6101C61.1852 53.8847 61.1587 54.1318 61.1852 54.3899C61.2173 54.7197 61.2754 55.0478 61.3592 55.3728C61.5257 56.1086 61.696 56.8664 61.31 57.5692C61.2855 57.6134 61.2399 57.6496 61.1815 57.6713C61.1231 57.693 61.0559 57.6987 60.9922 57.6873Z" fill="#83B2A3"/>
<path d="M42.3146 40.7768C41.5346 41.4886 40.5924 41.9745 39.5805 42.187C38.5686 42.3995 37.5217 42.3313 36.5423 41.989C35.7228 41.6788 34.9791 41.18 34.3654 40.5291C33.7516 39.8781 33.2831 39.0913 32.994 38.2257C32.892 37.9104 32.8151 37.5868 32.7639 37.2581C32.6665 36.6788 32.6792 36.0849 32.8012 35.5108C32.9837 34.812 33.3498 34.1818 33.8573 33.6926C34.3648 33.2034 34.993 32.8752 35.6697 32.7457C36.3496 32.6339 37.0451 32.6993 37.6954 32.9361C38.3457 33.173 38.9311 33.574 39.4005 34.1042L40.5218 36.6662L42.3146 40.7768Z" fill="#FFCFCA"/>
<path d="M67.3164 108.978C67.882 108.506 68.4645 108.092 68.9977 107.627C69.53 107.203 69.9794 106.594 70.3045 105.855C70.4544 105.478 70.567 105.072 70.6389 104.65C70.719 104.235 70.7452 103.803 70.716 103.374C70.6867 102.932 70.6297 102.489 70.585 102.015C70.5403 101.541 70.5002 101.089 70.4663 100.624C70.4032 99.6936 70.3677 98.7634 70.3477 97.8333C70.3276 96.9031 70.323 95.9685 70.3384 95.0405C70.3631 93.1824 70.434 91.3309 70.5064 89.4794C70.6513 85.7786 70.8501 82.0844 70.7931 78.3814C70.7503 74.6743 70.5387 70.9752 70.1597 67.3079C70.5818 70.9667 70.8367 74.6614 70.9225 78.3681C71.0227 82.08 70.8655 85.7897 70.7684 89.4882C70.7175 91.3397 70.6667 93.189 70.6636 95.0383C70.6636 95.9618 70.6713 96.8809 70.7052 97.8022C70.7391 98.7236 70.7823 99.6427 70.8593 100.555C70.8978 101.011 70.9395 101.465 70.9903 101.919C71.0412 102.373 71.1028 102.825 71.1444 103.31C71.1834 103.806 71.1594 104.307 71.0735 104.79C70.9968 105.27 70.8738 105.733 70.7083 106.165C70.5385 106.598 70.3233 106.991 70.0703 107.33C69.8225 107.661 69.5537 107.957 69.2674 108.216C68.7065 108.727 68.1316 109.144 67.5876 109.616L67.3164 108.978Z" fill="#97C6B7"/>
<path d="M51.9006 32.4835C51.7686 31.4276 51.2459 30.667 50.7317 30.7805C50.2174 30.894 49.9062 31.8454 50.0381 32.9013C50.1701 33.9571 50.6928 34.7177 51.207 34.6042C51.7213 34.4907 52.0325 33.5393 51.9006 32.4835Z" fill="#1F3C49"/>
<path d="M61.513 30.5597C61.3813 29.5051 60.8582 28.7415 60.3437 28.8579C59.8292 28.9743 59.5209 29.9218 59.6508 30.9788C59.7807 32.0357 60.3056 32.797 60.8183 32.6806C61.3311 32.5642 61.6481 31.6167 61.513 30.5597Z" fill="#1F3C49"/>
<path d="M48.4356 28.8459C48.3818 28.8456 48.3287 28.8283 48.2803 28.7953C48.2319 28.7622 48.1893 28.7143 48.1558 28.655C48.1267 28.6037 48.105 28.5448 48.0921 28.4816C48.0791 28.4185 48.0751 28.3524 48.0803 28.2871C48.0855 28.2218 48.0998 28.1586 48.1224 28.1011C48.1449 28.0435 48.1753 27.9928 48.2118 27.9519C48.7019 27.4164 49.2847 27.0751 49.8999 26.9632C50.5151 26.8514 51.1404 26.9729 51.711 27.3154C51.7539 27.3417 51.7927 27.3797 51.8251 27.4272C51.8576 27.4747 51.883 27.5308 51.9 27.5922C51.917 27.6536 51.9252 27.7191 51.9242 27.785C51.9231 27.8509 51.9129 27.9158 51.8939 27.9761C51.875 28.0366 51.8478 28.0913 51.8139 28.137C51.78 28.1827 51.74 28.2186 51.6962 28.2425C51.6524 28.2664 51.6057 28.278 51.5588 28.2765C51.5119 28.275 51.4656 28.2604 51.4226 28.2337C50.9721 27.9617 50.4781 27.8644 49.9919 27.9517C49.5056 28.0391 49.0448 28.3081 48.6573 28.7308C48.5946 28.803 48.5166 28.8436 48.4356 28.8459Z" fill="#1F3C49"/>
<path d="M58.0815 26.9238C58.0218 26.9245 57.9627 26.9047 57.9094 26.8662C57.856 26.8277 57.8098 26.7715 57.7746 26.7023C57.7447 26.6448 57.723 26.5795 57.7108 26.51C57.6985 26.4405 57.696 26.3682 57.7033 26.2973C57.7106 26.2263 57.7276 26.1582 57.7532 26.0967C57.7789 26.0352 57.8128 25.9815 57.853 25.9388C58.3506 25.4244 58.9346 25.1087 59.5454 25.0239C60.1562 24.9391 60.7717 25.0883 61.329 25.4562C61.4198 25.5191 61.4896 25.6307 61.5233 25.7668C61.557 25.903 61.5519 26.0526 61.509 26.1834C61.4656 26.3149 61.3874 26.4162 61.2917 26.4652C61.1961 26.5142 61.0908 26.5067 60.999 26.4445C60.5674 26.1602 60.0909 26.045 59.6181 26.1106C59.1453 26.1762 58.6931 26.4203 58.3077 26.818C58.2424 26.8876 58.163 26.9247 58.0815 26.9238Z" fill="#1F3C49"/>
<path d="M55.7695 34.8687C55.8893 34.7683 56.0372 34.6943 56.1998 34.6531C56.3625 34.6119 56.5349 34.6049 56.7016 34.6327C56.8809 34.6608 57.0502 34.7225 57.1967 34.8131C57.3431 34.9037 57.4629 35.0208 57.547 35.1556C57.6342 35.2892 57.6836 35.4377 57.6915 35.5897C57.6994 35.7417 57.6654 35.8931 57.5923 36.0325C57.5263 36.1627 57.4224 36.2772 57.29 36.3656C57.1575 36.4541 57.0007 36.5137 56.8336 36.539C57.0355 36.3739 57.1728 36.162 57.2277 35.9309C57.27 35.7309 57.2305 35.5248 57.1154 35.3457C57.003 35.1653 56.8203 35.0219 56.5972 34.9392C56.3361 34.847 56.0477 34.8225 55.7695 34.8687Z" fill="#1F3C49"/>
<path d="M61.4821 38.4624V38.4887C61.671 39.6688 61.4315 40.8797 60.81 41.8875C60.4416 42.4882 59.9548 43.0012 59.3815 43.3928C58.8083 43.7845 58.1615 44.0458 57.4839 44.1597C56.7562 44.2885 56.0097 44.2439 55.301 44.0293C54.5924 43.8147 53.9401 43.4357 53.3936 42.921C52.6167 42.1922 52.1006 41.2121 51.9297 40.1403V40.1141L61.4821 38.4624Z" fill="#EA5353"/>
<path d="M59.6208 41.0189C59.3342 41.8419 58.9555 42.5448 58.5096 43.0814C58.0637 43.618 57.5606 43.9761 57.0334 44.1321C56.4673 44.3086 55.8866 44.2475 55.3354 43.9534C54.7841 43.6594 54.2767 43.1401 53.8516 42.4349C54.1371 42.133 54.4318 41.8611 54.7343 41.6206C55.8857 40.7017 57.1588 40.1621 58.4068 40.4728C58.8205 40.5792 59.2273 40.7622 59.6208 41.0189Z" fill="#FF948F"/>
<path d="M59.6208 38.4624C59.5356 38.568 59.447 38.6654 59.3567 38.7689C58.0169 40.2263 55.3686 41.1215 53.8516 39.5808L59.6208 38.4624Z" fill="white"/>
<path d="M59.6211 88.462L62.4018 75.225C62.4442 75.0305 62.5287 74.8459 62.6501 74.6822C62.7716 74.5185 62.9275 74.3791 63.1085 74.2723L68.1359 71.2596C68.2838 71.1716 68.4616 71.137 68.6353 71.1625C68.809 71.188 68.9665 71.2717 69.0775 71.3977C69.1425 71.4729 69.1892 71.56 69.2146 71.6533C69.24 71.7465 69.2433 71.8438 69.2245 71.9383L66.2658 85.8708L59.6211 88.462Z" fill="#1A2E35"/>
<path d="M65.2126 86.5379C65.2622 86.3609 65.2971 86.1801 65.3169 85.9973C65.3348 85.4909 65.2566 84.9857 65.0865 84.5085V84.4802L65.1017 84.4497C65.1562 84.3477 65.1882 84.2352 65.1957 84.1198C65.2032 84.0044 65.186 83.8887 65.1452 83.7805C65.0358 83.5368 64.8535 83.3334 64.6235 83.1984L64.5431 83.1483L64.5909 83.0677L65.3148 81.836C65.3812 81.7367 65.4373 81.6308 65.4822 81.52C65.5082 81.4148 65.4942 81.3037 65.443 81.2082C65.3167 80.9907 65.1372 80.8091 64.9213 80.6807L64.817 80.6132L64.893 80.5194C65.093 80.26 65.3278 80.005 65.5452 79.7412C65.933 79.296 66.2959 78.8295 66.6321 78.3439C66.7842 78.1193 66.9145 77.8806 67.0212 77.6311C67.0705 77.5209 67.0999 77.4029 67.1082 77.2824C67.1082 77.1712 67.0538 77.1145 66.9908 77.1058H66.9669C66.8313 77.096 66.6957 77.1247 66.5756 77.1886C66.4408 77.2497 66.3104 77.3216 66.1843 77.3935C65.9365 77.5439 65.7061 77.7031 65.493 77.8578C65.0691 78.1674 64.7083 78.4573 64.4061 78.6971C64.104 78.9369 63.9061 79.1112 63.7192 79.2638C63.6434 79.3383 63.5578 79.4021 63.4648 79.4535C63.527 79.366 63.6 79.2869 63.6822 79.2181C63.83 79.072 64.0474 78.8627 64.3344 78.6077C64.6213 78.3527 64.9713 78.0497 65.3952 77.7358C65.6126 77.5745 65.83 77.4066 66.0887 77.2475C66.2199 77.1658 66.3564 77.093 66.4973 77.0295C66.6566 76.9423 66.839 76.9073 67.019 76.9292H66.9951C67.0855 76.9386 67.1687 76.9826 67.2274 77.0521C67.2862 77.1216 67.3159 77.2111 67.3103 77.302C67.304 77.4518 67.2716 77.5993 67.2147 77.7379C67.105 78.0021 66.9696 78.2547 66.8104 78.4922C66.4774 78.9885 66.1144 79.4638 65.7235 79.9156C65.4952 80.1794 65.2691 80.4366 65.0713 80.6894L65.043 80.526C65.2954 80.6765 65.5032 80.8917 65.6452 81.1494C65.7174 81.2906 65.7359 81.4533 65.6974 81.6071C65.6484 81.7351 65.5842 81.8566 65.5061 81.969L64.7583 83.2006L64.7278 83.0698C64.9916 83.228 65.1974 83.4673 65.3148 83.7521C65.3614 83.8826 65.3793 84.0217 65.3673 84.1598C65.3553 84.2978 65.3136 84.4317 65.2452 84.5521V84.4932C65.4088 84.9909 65.4666 85.5174 65.4148 86.0388C65.3969 86.1789 65.3603 86.316 65.3061 86.4464C65.243 86.4987 65.2191 86.5423 65.2126 86.5379Z" fill="#F9BFBB"/>
<path d="M69.2353 73.0774C69.1021 73.173 68.9518 73.2562 68.7882 73.3249C68.4873 73.4742 68.0514 73.6844 67.5087 73.9397L65.5909 74.8315L64.4661 75.3501C64.0521 75.5128 63.6686 75.7107 63.3244 75.9394C63.0342 76.1916 62.8519 76.496 62.7986 76.8175C62.7058 77.1377 62.6186 77.448 62.5174 77.7466C62.343 78.3261 62.1855 78.8564 62.0478 79.3181C61.91 79.7797 61.7947 80.1274 61.7075 80.3768C61.6774 80.5121 61.6226 80.6442 61.5444 80.7697C61.5375 80.6377 61.5555 80.5056 61.5978 80.3768C61.6512 80.1234 61.7384 79.7581 61.8509 79.3083C61.9634 78.8584 62.1096 78.3084 62.2615 77.725C62.343 77.4264 62.4274 77.1141 62.5117 76.7919C62.5687 76.4316 62.7738 76.0905 63.1023 75.8098C63.463 75.5691 63.8665 75.3618 64.303 75.193L65.4503 74.6822L67.3962 73.8278C67.9586 73.5881 68.4057 73.3956 68.7235 73.266C68.8818 73.188 69.0538 73.1246 69.2353 73.0774Z" fill="#375A64"/>
<path d="M55.339 86.4023C55.339 86.4023 56.4777 83.1802 57.1538 82.7033C57.8299 82.2264 61.1859 79.9116 61.1859 79.9116L60.8322 81.6657L64.0926 79.002C64.4951 78.6833 66.7947 76.2359 67.2729 77.1106C67.6154 77.7388 65.7294 79.5626 65.4937 79.9558C64.8821 80.9445 65.0978 80.8445 65.0978 80.8445C65.0978 80.8445 65.8406 81.2539 65.5159 81.9472C65.2491 82.4817 64.9521 82.9991 64.6263 83.4966C64.6263 83.4966 65.5893 83.792 65.1067 85.1088C65.2883 85.6309 65.3456 86.1914 65.2735 86.7419C65.169 87.7097 63.6122 89.629 63.6122 89.629L55.5748 94.2305L51.9297 88.5146L55.339 86.4023Z" fill="#FFCFCA"/>
<path d="M63.466 80.7717C63.5033 80.8109 62.6729 81.2699 61.6113 81.8001C60.5497 82.3303 59.6596 82.7289 59.6223 82.6897C59.585 82.6506 60.4154 82.1915 61.477 81.6613C62.5387 81.1311 63.4287 80.7344 63.466 80.7717Z" fill="#F9BFBB"/>
<path d="M65.3867 80.7704C65.4133 80.8162 65.0046 81.7135 64.4755 82.7735C63.9464 83.8334 63.4957 84.657 63.4663 84.6138C63.4369 84.5706 63.847 83.6733 64.3775 82.6108C64.908 81.5482 65.3601 80.7348 65.3867 80.7704Z" fill="#F9BFBB"/>
<path d="M65.3818 82.6947C65.4413 82.7293 65.0591 83.1852 64.5325 83.7168C64.006 84.2484 63.5304 84.6482 63.4709 84.6136C63.4115 84.579 63.7937 84.1231 64.3202 83.5937C64.8468 83.0642 65.3167 82.6601 65.3818 82.6947Z" fill="#F9BFBB"/>
<path d="M53.3987 86.9493C54.2154 86.5746 55.217 86.3838 55.9637 86.6949C56.4633 86.9061 56.7904 87.3149 57.0801 87.7146C57.6046 88.4481 58.0942 89.202 58.5412 89.9855C58.9883 90.7689 59.9024 91.4616 59.5402 92.3472C59.3155 92.9104 58.3064 93.5644 57.8144 94.0277C57.3759 94.4633 56.8953 94.8623 56.3783 95.2199C55.9036 95.5171 55.4023 95.7777 54.8798 95.9988C54.731 96.0769 54.5675 96.1292 54.3978 96.1533C54.2306 96.1613 54.0641 96.1284 53.9157 96.0579C53.3263 95.8081 52.9517 95.3357 52.6195 94.8656C51.7271 93.5897 50.9742 92.2374 50.3717 90.828C49.9271 89.8038 49.6224 88.8205 51.121 88.1801C51.9177 87.819 52.597 87.324 53.3987 86.9493Z" fill="#97C6B7"/>
<path d="M55.4808 86.5617L53.7637 87.3688L52.9301 87.7654C52.6593 87.9076 52.3727 88.028 52.0744 88.1251C51.8298 88.1943 51.9188 88.5218 52.166 88.4526C52.7701 88.2457 53.3496 87.9925 53.8971 87.6962L55.6809 86.8569C55.8976 86.7508 55.7059 86.4556 55.4808 86.5617Z" fill="#83B2A3"/>
<path d="M55.632 88.4837C55.0416 88.9954 54.4636 89.5352 53.8979 90.1031C53.7925 90.2076 53.8855 90.4668 53.9923 90.3603C54.558 89.7937 55.1356 89.2539 55.725 88.7409C55.8359 88.6444 55.7415 88.3872 55.632 88.4837Z" fill="#83B2A3"/>
<path d="M57.4325 88.4848C56.2766 89.0396 55.113 89.585 53.9418 90.1208C53.7388 90.2139 53.9135 90.459 54.119 90.364C55.2903 89.8282 56.4538 89.2828 57.6097 88.728C57.81 88.6311 57.6328 88.3879 57.4325 88.4848Z" fill="#83B2A3"/>
<path d="M57.3565 90.4159C56.2474 90.9907 55.109 91.5391 53.9415 92.0613C53.7368 92.1525 53.9175 92.3785 54.1248 92.2856C55.3208 91.7506 56.4875 91.1887 57.6249 90.5999C57.8322 90.4948 57.5505 90.3108 57.3565 90.4159Z" fill="#83B2A3"/>
<path d="M57.5228 90.4147C56.9743 90.9969 56.4053 91.5385 55.8181 92.0373C55.7094 92.1309 55.8018 92.3806 55.9119 92.2869C56.5137 91.7743 57.0967 91.2177 57.6588 90.6195C57.7567 90.5122 57.6207 90.3075 57.5228 90.4147Z" fill="#83B2A3"/>
<path d="M59.2591 92.3329C58.0416 92.8589 56.8854 93.4321 55.7982 94.0486C55.775 94.0717 55.7654 94.0987 55.7712 94.1253C55.7769 94.1519 55.7975 94.1766 55.8298 94.1956C55.8622 94.2145 55.9043 94.2266 55.9496 94.23C55.995 94.2333 56.041 94.2277 56.0803 94.2141C57.1681 93.5985 58.3243 93.0259 59.5412 92.5C59.7527 92.4156 59.4678 92.2436 59.2591 92.3329Z" fill="#83B2A3"/>
<path d="M55.7725 96.2382C50.2703 100.844 44.5971 105.403 38.0233 108.242C36.5529 108.876 34.9138 109.535 33.2025 110.096C27.2356 112.05 20.3419 112.81 16.4809 107.148C14.3181 103.975 13.6323 99.9795 13.5358 96.2028C13.435 92.2029 13.3671 88.1832 13.8733 84.2032C14.5307 79.1205 16.2508 74.4156 19.1915 70.2301C20.7514 68.0141 22.5497 65.9789 24.5535 64.1618C24.7727 63.9695 26.0173 62.9685 27.3408 61.9519C28.9492 60.7232 30.665 59.4724 30.7592 59.6293V59.6448C32.9921 63.3751 33.6473 68.0534 33.1345 72.3825C33.1345 72.4223 33.1345 72.4643 33.117 72.5063C32.6086 76.7559 31.9819 78.7448 30.9038 83.4695C30.9915 88.8218 30.7241 90.6207 30.7745 95.5575C37.3747 93.0294 44.4262 91.0715 51.2235 89.1931L55.7725 96.2382Z" fill="#BADDD4"/>
<path d="M31.158 82.6926C31.21 83.7544 31.244 84.8177 31.2599 85.8826C31.2751 86.9459 31.2838 88.0115 31.273 89.0748L31.2534 92.2624C31.2534 93.3234 31.2534 94.3843 31.2838 95.4453L30.9388 95.1911C32.0816 94.7248 33.2303 94.2677 34.3847 93.82C35.5391 93.3723 36.6964 92.9541 37.8566 92.5655C39.0197 92.1598 40.1915 91.7774 41.3654 91.3996C42.5393 91.0218 43.7133 90.6628 44.8937 90.3153C46.0742 89.9679 47.2525 89.6158 48.4351 89.287L50.2079 88.7903L50.6528 88.6667L50.7635 88.6364C50.8119 88.6229 50.8612 88.6135 50.911 88.6084C51.0124 88.5986 51.1147 88.6089 51.2126 88.6387C51.4086 88.6997 51.5769 88.8358 51.6857 89.0212L51.9287 89.4386C52.5797 90.5532 53.2307 91.6678 53.86 92.7894C54.4893 93.911 55.1424 95.0256 55.7695 96.1542C55.0621 95.0815 54.3721 93.9972 53.6777 92.9153C52.9833 91.8333 52.2954 90.749 51.6097 89.6507L51.3515 89.2427C51.2925 89.1507 51.2047 89.0845 51.1041 89.0561C51.0539 89.0469 51.0025 89.0469 50.9522 89.0561L50.8741 89.0748L50.7656 89.1098L50.3316 89.2473L48.5718 89.7953L45.0521 90.8913L41.5412 92.0082C40.3716 92.386 39.2063 92.7777 38.0432 93.1741C35.717 93.9646 33.4039 94.8064 31.1167 95.7018L30.7695 95.8394V95.4476C30.7695 94.3843 30.7891 93.3164 30.8173 92.2531C30.8455 91.1897 30.8976 90.1241 30.9431 89.0631C30.9887 88.0022 31.043 86.9412 31.0755 85.8779C31.1081 84.8146 31.1341 83.7559 31.158 82.6926Z" fill="#97C6B7"/>
<path d="M19.2344 69.6723C19.8661 69.3753 20.5607 69.2243 21.2633 69.2312C21.9737 69.2383 22.6774 69.3652 23.3425 69.6062C24.0068 69.8427 24.6389 70.156 25.2252 70.5392C25.806 70.9235 26.349 71.3584 26.8475 71.8384C27.3429 72.3201 27.8011 72.8362 28.2184 73.3825C28.6314 73.9264 29.0018 74.4993 29.3265 75.0964C29.9696 76.2829 30.4555 77.5428 30.7728 78.8463C30.2251 77.6394 29.5985 76.4672 28.897 75.3369C28.5424 74.7824 28.1556 74.2478 27.7386 73.7355C27.3274 73.2232 26.8808 72.7383 26.4019 72.284C26.2808 72.1693 26.1734 72.0634 26.0409 71.9443L25.6685 71.6179C25.4149 71.4105 25.1544 71.2098 24.8825 71.0223C24.3442 70.6446 23.7668 70.3215 23.1597 70.0584C21.938 69.4916 20.5494 69.355 19.2344 69.6723Z" fill="#97C6B7"/>
<path d="M53.8337 95.9876C53.8233 95.9689 53.8092 95.9524 53.7922 95.9391C53.7752 95.9257 53.7557 95.9158 53.7347 95.9099C53.7137 95.904 53.6918 95.9022 53.6701 95.9046C53.6484 95.9071 53.6274 95.9137 53.6084 95.9241C53.257 96.1124 52.9055 96.3007 52.5541 96.4846L52.4595 96.5328C52.4401 96.5426 52.4229 96.5562 52.4089 96.5726C52.395 96.589 52.3846 96.608 52.3783 96.6284C52.372 96.6488 52.3699 96.6702 52.3723 96.6914C52.3746 96.7126 52.3813 96.7331 52.3919 96.7517C52.4021 96.7706 52.416 96.7873 52.4329 96.8008C52.4498 96.8144 52.4693 96.8245 52.4903 96.8306C52.5113 96.8367 52.5333 96.8387 52.5551 96.8365C52.5769 96.8342 52.598 96.8277 52.6172 96.8174L52.7095 96.7692C53.0655 96.5831 53.4169 96.397 53.7683 96.2087C53.7876 96.1984 53.8046 96.1845 53.8184 96.1678C53.8321 96.1511 53.8423 96.1319 53.8484 96.1114C53.8545 96.0908 53.8563 96.0693 53.8538 96.048C53.8512 96.0268 53.8444 96.0062 53.8337 95.9876ZM51.5246 97.1918C51.5146 97.1728 51.5008 97.1558 51.484 97.1421C51.4672 97.1283 51.4477 97.1179 51.4267 97.1116C51.4057 97.1053 51.3836 97.1031 51.3617 97.1052C51.3398 97.1073 51.3186 97.1137 51.2993 97.1239C50.9141 97.3188 50.5244 97.5115 50.1346 97.7019C50.1106 97.7142 50.0901 97.732 50.0748 97.7538C50.0595 97.7755 50.0499 97.8006 50.0468 97.8267C50.0421 97.8575 50.0476 97.889 50.0625 97.9165C50.0723 97.9357 50.086 97.9529 50.1027 97.9669C50.1194 97.9809 50.1389 97.9915 50.1599 97.998C50.1809 98.0045 50.2031 98.0069 50.225 98.0049C50.247 98.003 50.2684 97.9967 50.2878 97.9866L50.7699 97.7501L51.4457 97.4064C51.4657 97.3977 51.4837 97.3851 51.4986 97.3695C51.5135 97.3539 51.5249 97.3355 51.5323 97.3154C51.5397 97.2954 51.5428 97.2741 51.5415 97.2528C51.5401 97.2316 51.5344 97.2108 51.5246 97.1918ZM49.1862 98.3391C49.1769 98.3195 49.1635 98.3019 49.1469 98.2875C49.1303 98.2731 49.1109 98.2621 49.0897 98.2554C49.0686 98.2486 49.0463 98.2461 49.0241 98.2481C49.002 98.2501 48.9804 98.2564 48.9609 98.2668L47.7805 98.8164C47.7603 98.8255 47.7422 98.8385 47.7274 98.8546C47.7125 98.8706 47.7011 98.8895 47.694 98.9099C47.6868 98.9304 47.684 98.9521 47.6857 98.9736C47.6874 98.9952 47.6936 99.0162 47.7039 99.0353C47.7128 99.0554 47.7258 99.0734 47.7423 99.0882C47.7587 99.1031 47.7781 99.1145 47.7992 99.1217C47.8204 99.1289 47.8429 99.1317 47.8653 99.1301C47.8876 99.1284 47.9094 99.1222 47.9292 99.112L49.1119 98.5602C49.1322 98.551 49.1503 98.5377 49.1651 98.5214C49.1799 98.5051 49.1912 98.486 49.1982 98.4653C49.2051 98.4445 49.2076 98.4227 49.2056 98.401C49.2035 98.3793 49.1969 98.3582 49.1862 98.3391ZM46.8186 99.4338C46.8102 99.4134 46.7974 99.3949 46.7812 99.3796C46.7649 99.3644 46.7455 99.3526 46.7242 99.3452C46.7029 99.3377 46.6802 99.3347 46.6576 99.3364C46.6351 99.3381 46.6131 99.3445 46.5933 99.355C46.1968 99.5316 45.7996 99.7068 45.4016 99.8805C45.3806 99.8886 45.3616 99.9011 45.3458 99.9169C45.3301 99.9327 45.318 99.9515 45.3103 99.9722C45.3027 99.9929 45.2996 100.015 45.3014 100.037C45.3031 100.059 45.3096 100.08 45.3205 100.099C45.3292 100.12 45.3421 100.138 45.3584 100.153C45.3746 100.168 45.3939 100.18 45.415 100.187C45.4362 100.195 45.4587 100.198 45.4811 100.197C45.5036 100.196 45.5256 100.19 45.5458 100.18L46.7397 99.6528C46.7612 99.6448 46.7807 99.6325 46.7969 99.6167C46.8131 99.6009 46.8257 99.5819 46.8338 99.561C46.8419 99.5401 46.8453 99.5177 46.8439 99.4954C46.8424 99.4731 46.8361 99.4514 46.8253 99.4317L46.8186 99.4338ZM44.4306 100.476C44.4219 100.456 44.409 100.438 44.3928 100.422C44.3765 100.407 44.3572 100.396 44.3361 100.388C44.315 100.38 44.2925 100.377 44.27 100.378C44.2475 100.38 44.2255 100.385 44.2054 100.395L44.0071 100.478C43.6737 100.618 43.3313 100.761 43.0046 100.899C42.9833 100.906 42.9638 100.918 42.9476 100.934C42.9313 100.95 42.9186 100.968 42.9103 100.989C42.902 101.01 42.8983 101.032 42.8994 101.054C42.9005 101.076 42.9065 101.098 42.9168 101.118C42.9253 101.138 42.938 101.156 42.9542 101.172C42.9703 101.187 42.9895 101.199 43.0105 101.207C43.0316 101.215 43.0542 101.219 43.0768 101.218C43.0994 101.218 43.1216 101.212 43.1421 101.203C43.5431 101.037 43.944 100.868 44.345 100.697C44.3738 100.683 44.3977 100.661 44.4133 100.634C44.429 100.606 44.4358 100.575 44.4329 100.544C44.4367 100.521 44.4359 100.497 44.4306 100.474V100.476ZM42.0202 101.479C42.0037 101.44 41.9719 101.408 41.9318 101.392C41.8917 101.376 41.8465 101.375 41.8062 101.391C41.4052 101.556 41.0019 101.718 40.5964 101.877C40.5751 101.885 40.5556 101.897 40.5393 101.913C40.523 101.928 40.5103 101.947 40.5018 101.968C40.4933 101.988 40.4893 102.01 40.4901 102.032C40.4909 102.055 40.4964 102.076 40.5063 102.096C40.5145 102.116 40.5265 102.133 40.5417 102.148C40.5569 102.163 40.575 102.175 40.5949 102.183C40.6148 102.191 40.6362 102.195 40.6577 102.194C40.6793 102.194 40.7005 102.19 40.7203 102.182L41.9323 101.698H41.9481C41.9682 101.688 41.9861 101.675 42.0007 101.659C42.0153 101.642 42.0263 101.623 42.033 101.602C42.0398 101.582 42.0421 101.56 42.0399 101.538C42.0377 101.517 42.031 101.496 42.0202 101.477V101.479ZM39.5962 102.442C39.5883 102.423 39.5765 102.405 39.5615 102.39C39.5466 102.376 39.5288 102.364 39.5091 102.356C39.4894 102.347 39.4683 102.343 39.4469 102.343C39.4255 102.343 39.4043 102.347 39.3844 102.355C38.9789 102.51 38.5735 102.668 38.1657 102.821C38.1456 102.828 38.1273 102.84 38.1118 102.854C38.0962 102.869 38.0838 102.886 38.0752 102.905C38.0666 102.924 38.062 102.945 38.0617 102.966C38.0614 102.987 38.0653 103.007 38.0733 103.027C38.0811 103.046 38.0927 103.064 38.1075 103.079C38.1224 103.094 38.1402 103.106 38.1599 103.115C38.1796 103.123 38.2008 103.128 38.2223 103.128C38.2438 103.128 38.2652 103.124 38.2851 103.117C38.6929 102.963 39.1006 102.806 39.5061 102.65H39.5219C39.5599 102.631 39.5889 102.599 39.6028 102.56C39.6167 102.521 39.6143 102.478 39.5962 102.44V102.442ZM37.1542 103.366C37.1469 103.347 37.1357 103.329 37.1212 103.313C37.1067 103.298 37.0892 103.285 37.0697 103.277C37.0502 103.268 37.0291 103.263 37.0077 103.262C36.9862 103.261 36.9648 103.265 36.9447 103.272C36.5212 103.423 36.1089 103.568 35.7124 103.71C35.6716 103.724 35.6383 103.754 35.6197 103.792C35.6011 103.83 35.5988 103.874 35.6133 103.914C35.6202 103.933 35.631 103.952 35.6451 103.967C35.6593 103.983 35.6765 103.996 35.6958 104.005C35.7151 104.014 35.736 104.019 35.7574 104.021C35.7789 104.022 35.8003 104.019 35.8206 104.012C36.2171 103.879 36.6338 103.734 37.0574 103.574H37.0776C37.0969 103.565 37.1141 103.553 37.1284 103.537C37.1426 103.522 37.1536 103.504 37.1607 103.485C37.1678 103.465 37.1709 103.444 37.1698 103.424C37.1687 103.403 37.1634 103.383 37.1542 103.364V103.366ZM34.6762 104.203C34.6627 104.162 34.6335 104.128 34.5947 104.109C34.5559 104.089 34.5108 104.085 34.4689 104.097C34.0432 104.229 33.6219 104.351 33.2186 104.461C33.1769 104.473 33.1416 104.5 33.1205 104.537C33.0994 104.574 33.0942 104.617 33.106 104.658C33.1181 104.699 33.1461 104.733 33.1841 104.753C33.2221 104.774 33.2669 104.779 33.3088 104.767C33.7143 104.658 34.1378 104.533 34.5681 104.402H34.5973C34.6344 104.384 34.6635 104.354 34.6789 104.317C34.6943 104.279 34.6949 104.238 34.6807 104.2L34.6762 104.203ZM32.1553 104.897C32.1506 104.876 32.1417 104.857 32.1292 104.84C32.1167 104.823 32.1009 104.809 32.0826 104.798C32.0643 104.788 32.044 104.78 32.0228 104.777C32.0017 104.774 31.9801 104.775 31.9594 104.781C31.5268 104.879 31.0988 104.969 30.6865 105.046C30.6692 105.049 30.6526 105.055 30.637 105.063C30.607 105.079 30.5831 105.104 30.5686 105.135C30.554 105.165 30.5496 105.199 30.5559 105.232C30.5606 105.259 30.5729 105.285 30.5916 105.306C30.6102 105.327 30.6345 105.343 30.6618 105.352C30.6896 105.361 30.7195 105.361 30.7474 105.352C31.1664 105.273 31.5989 105.183 32.0337 105.083L32.0742 105.067C32.1059 105.051 32.1313 105.026 32.1467 104.995C32.1622 104.964 32.1668 104.928 32.1599 104.894L32.1553 104.897ZM29.4993 105.269C29.4696 105.254 29.4356 105.248 29.4025 105.254C29.1524 105.286 28.9046 105.315 28.6568 105.339C28.4721 105.359 28.2896 105.376 28.1094 105.389C28.0881 105.391 28.0673 105.397 28.0482 105.406C28.0292 105.416 28.0123 105.429 27.9985 105.445C27.9847 105.46 27.9742 105.479 27.9677 105.499C27.9612 105.518 27.9589 105.539 27.9607 105.56C27.9642 105.602 27.9846 105.641 28.0175 105.669C28.0504 105.696 28.0931 105.71 28.1364 105.707C28.3617 105.689 28.587 105.67 28.8122 105.645C29.0375 105.621 29.2335 105.597 29.4453 105.569C29.4623 105.565 29.4789 105.56 29.4948 105.553C29.5244 105.538 29.5484 105.514 29.5637 105.485C29.579 105.457 29.5848 105.424 29.5804 105.391C29.5787 105.366 29.5709 105.342 29.5576 105.32C29.5443 105.298 29.5258 105.28 29.5038 105.267L29.4993 105.269ZM26.8118 105.448C26.377 105.448 25.94 105.448 25.5142 105.422C25.471 105.42 25.4287 105.435 25.3967 105.463C25.3646 105.492 25.3453 105.531 25.343 105.573C25.3415 105.594 25.3442 105.615 25.3512 105.635C25.3581 105.654 25.369 105.672 25.3833 105.688C25.3976 105.703 25.415 105.716 25.4344 105.725C25.4537 105.734 25.4748 105.739 25.4962 105.74C25.9287 105.764 26.3725 105.772 26.8163 105.768C26.843 105.767 26.8692 105.761 26.8929 105.748C26.9191 105.734 26.941 105.714 26.956 105.689C26.9711 105.664 26.9789 105.635 26.9785 105.606C26.9779 105.564 26.9607 105.524 26.9305 105.494C26.9003 105.465 26.8593 105.447 26.8163 105.446L26.8118 105.448ZM24.2256 105.304C23.8011 105.249 23.3821 105.16 22.9731 105.037C22.9319 105.024 22.8873 105.028 22.8489 105.047C22.8105 105.067 22.7815 105.1 22.7681 105.14C22.7552 105.18 22.7591 105.224 22.7789 105.261C22.7987 105.299 22.8328 105.328 22.874 105.341C23.3 105.469 23.7363 105.562 24.1783 105.619C24.2131 105.624 24.2485 105.617 24.2797 105.602C24.3023 105.59 24.3218 105.573 24.3366 105.552C24.3514 105.532 24.3612 105.508 24.3653 105.483C24.3718 105.442 24.3613 105.4 24.336 105.366C24.3107 105.332 24.2727 105.309 24.2301 105.302L24.2256 105.304ZM21.8354 104.513C21.4859 104.281 21.1666 104.008 20.8848 103.701C20.856 103.671 20.8167 103.654 20.7748 103.651C20.733 103.649 20.6917 103.662 20.6595 103.688C20.6313 103.718 20.6157 103.757 20.6157 103.798C20.6157 103.838 20.6313 103.877 20.6595 103.907C20.9588 104.238 21.2984 104.532 21.671 104.783C21.6964 104.798 21.7257 104.806 21.7555 104.806C21.7853 104.806 21.8145 104.798 21.8399 104.783C21.8635 104.771 21.8836 104.754 21.8985 104.732C21.9098 104.714 21.9173 104.694 21.9205 104.673C21.9237 104.652 21.9225 104.631 21.917 104.61C21.9116 104.589 21.902 104.57 21.8887 104.553C21.8755 104.536 21.8589 104.522 21.8399 104.511L21.8354 104.513ZM20.1143 102.705C19.9949 102.521 19.8891 102.328 19.7697 102.131C19.6503 101.934 19.5849 101.785 19.4993 101.606C19.4907 101.586 19.4778 101.567 19.4615 101.552C19.4451 101.537 19.4257 101.526 19.4046 101.518C19.3834 101.511 19.3608 101.508 19.3384 101.509C19.3159 101.511 19.294 101.517 19.274 101.527C19.2539 101.536 19.2358 101.549 19.2209 101.565C19.206 101.581 19.1945 101.6 19.1871 101.62C19.1798 101.641 19.1767 101.662 19.1781 101.684C19.1795 101.706 19.1853 101.727 19.1952 101.746C19.2831 101.93 19.3754 102.114 19.4723 102.289C19.5692 102.464 19.6976 102.692 19.8305 102.882C19.8414 102.9 19.8559 102.916 19.8732 102.929C19.8905 102.942 19.9103 102.951 19.9313 102.956C19.9522 102.961 19.9741 102.962 19.9955 102.959C20.0168 102.955 20.0374 102.948 20.0558 102.937C20.0773 102.927 20.0963 102.913 20.1115 102.895C20.1267 102.877 20.1377 102.857 20.1437 102.834C20.1498 102.812 20.1506 102.789 20.1463 102.766C20.142 102.743 20.1326 102.722 20.1188 102.703L20.1143 102.705ZM19.0195 100.439C18.8866 100.06 18.7649 99.6659 18.6501 99.2302C18.6384 99.1896 18.611 99.155 18.5735 99.1338C18.5361 99.1125 18.4916 99.1063 18.4496 99.1164C18.4075 99.1272 18.3715 99.1537 18.3495 99.1903C18.3276 99.2268 18.3214 99.2703 18.3324 99.3112C18.4495 99.7491 18.5734 100.156 18.7109 100.542C18.7177 100.561 18.7285 100.58 18.7427 100.595C18.7568 100.611 18.774 100.624 18.7933 100.633C18.8126 100.642 18.8336 100.648 18.855 100.649C18.8764 100.65 18.8979 100.647 18.9181 100.64H18.9429C18.9799 100.623 19.0088 100.592 19.0238 100.555C19.0388 100.518 19.0389 100.476 19.024 100.439H19.0195ZM18.3572 97.9975C18.2783 97.6253 18.2062 97.2444 18.1319 96.8634C18.1319 96.8262 18.1319 96.7911 18.1139 96.7539C18.1072 96.7121 18.0838 96.6746 18.0488 96.6496C18.0137 96.6246 17.9699 96.6141 17.9269 96.6203C17.8978 96.625 17.8705 96.6373 17.8479 96.6558C17.8253 96.6743 17.8082 96.6983 17.7985 96.7254C17.7917 96.7513 17.7917 96.7784 17.7985 96.8043C17.8683 97.2268 17.9472 97.6494 18.0238 98.0632C18.0281 98.0837 18.0365 98.1032 18.0486 98.1205C18.0607 98.1378 18.0762 98.1525 18.0942 98.164C18.1123 98.1754 18.1324 98.1832 18.1536 98.1869C18.1748 98.1907 18.1965 98.1903 18.2175 98.1858C18.2325 98.183 18.247 98.1779 18.2603 98.1705C18.2955 98.1573 18.3249 98.1326 18.3434 98.1007C18.3619 98.0687 18.3684 98.0314 18.3617 97.9953L18.3572 97.9975ZM17.8008 94.2382C17.7968 94.1961 17.7758 94.1573 17.7424 94.1302C17.7091 94.1031 17.6661 94.09 17.6228 94.0937C17.5797 94.0981 17.5402 94.1186 17.5124 94.1509C17.4847 94.1832 17.4709 94.2247 17.4741 94.2666C17.5146 94.7045 17.5597 95.1227 17.6138 95.5387C17.6194 95.5804 17.6417 95.6183 17.6759 95.6441C17.71 95.6699 17.7533 95.6816 17.7962 95.6767C17.816 95.6745 17.8352 95.6685 17.8526 95.6592C17.8817 95.644 17.9055 95.6206 17.9207 95.5921C17.936 95.5636 17.9421 95.5312 17.9382 95.4993C17.8909 95.0855 17.8436 94.6607 17.8053 94.236L17.8008 94.2382ZM17.6566 91.7071C17.6554 91.6651 17.6372 91.6252 17.606 91.5961C17.5748 91.567 17.5331 91.5511 17.4899 91.5517C17.4467 91.5528 17.4056 91.5704 17.3757 91.6007C17.3458 91.6311 17.3293 91.6717 17.3299 91.7137C17.3412 92.1516 17.357 92.5741 17.3817 92.9923C17.3829 93.0132 17.3883 93.0337 17.3977 93.0526C17.407 93.0714 17.4202 93.0883 17.4363 93.1021C17.4525 93.116 17.4713 93.1266 17.4917 93.1333C17.5121 93.14 17.5337 93.1427 17.5552 93.1412C17.5789 93.1412 17.6022 93.1351 17.6228 93.1237C17.6502 93.1095 17.6729 93.0879 17.6881 93.0615C17.7033 93.0351 17.7103 93.005 17.7084 92.9748C17.6904 92.5566 17.6723 92.1297 17.6611 91.7049L17.6566 91.7071ZM17.5056 89.0053C17.484 89.0047 17.4625 89.0082 17.4424 89.0157C17.4222 89.0232 17.4037 89.0345 17.388 89.049C17.3723 89.0634 17.3597 89.0807 17.3509 89.0999C17.3421 89.1191 17.3373 89.1397 17.3367 89.1607C17.3367 89.5986 17.3187 90.0212 17.3164 90.4372C17.3164 90.4792 17.3334 90.5195 17.3638 90.5494C17.3941 90.5793 17.4354 90.5965 17.4786 90.597C17.5062 90.5975 17.5335 90.5907 17.5574 90.5773C17.5837 90.5639 17.6055 90.5438 17.6207 90.519C17.6358 90.4943 17.6435 90.4659 17.643 90.4372C17.643 90.0234 17.6431 89.5964 17.6656 89.1695C17.6674 89.1274 17.6521 89.0864 17.623 89.0552C17.5939 89.0241 17.5534 89.0053 17.5101 89.0031L17.5056 89.0053ZM17.6453 86.4633C17.602 86.4602 17.5593 86.4739 17.5264 86.5014C17.4935 86.5289 17.473 86.5679 17.4696 86.6099C17.438 87.0478 17.411 87.4704 17.3907 87.8842C17.3895 87.9051 17.3926 87.926 17.3998 87.9457C17.407 87.9655 17.4181 87.9836 17.4326 87.9991C17.4471 88.0146 17.4646 88.0271 17.4841 88.0359C17.5036 88.0448 17.5247 88.0498 17.5462 88.0506C17.5758 88.0524 17.6054 88.0464 17.6318 88.0331C17.6563 88.0194 17.6769 88.0001 17.6919 87.9768C17.7068 87.9535 17.7156 87.927 17.7174 87.8996C17.7377 87.4879 17.7647 87.061 17.7962 86.634C17.7984 86.6133 17.7963 86.5924 17.7901 86.5724C17.7839 86.5525 17.7738 86.5339 17.7601 86.5179C17.7465 86.5018 17.7298 86.4885 17.7108 86.4787C17.6919 86.469 17.6711 86.463 17.6498 86.4611L17.6453 86.4633ZM17.8706 83.9278C17.8493 83.9254 17.8277 83.9271 17.807 83.9328C17.7864 83.9386 17.7671 83.9483 17.7503 83.9613C17.7336 83.9743 17.7196 83.9904 17.7093 84.0088C17.699 84.0271 17.6926 84.0472 17.6904 84.0679C17.6453 84.4927 17.6033 84.916 17.5642 85.3379C17.562 85.3587 17.5642 85.3798 17.5705 85.3999C17.5769 85.42 17.5873 85.4386 17.6011 85.4547C17.615 85.4708 17.632 85.4841 17.6512 85.4937C17.6704 85.5034 17.6914 85.5092 17.7129 85.5108C17.7447 85.5131 17.7767 85.5071 17.8053 85.4933C17.8295 85.481 17.8501 85.4629 17.8651 85.4406C17.8801 85.4184 17.889 85.3928 17.8909 85.3663C17.9284 84.9459 17.9705 84.5241 18.017 84.1008C18.0218 84.061 18.011 84.0209 17.9868 83.9884C17.9626 83.956 17.9268 83.9336 17.8864 83.9256L17.8706 83.9278ZM18.1769 81.3989C18.1556 81.3962 18.1339 81.3976 18.1132 81.403C18.0924 81.4085 18.073 81.4179 18.056 81.4308C18.039 81.4436 18.0249 81.4596 18.0143 81.4778C18.0037 81.496 17.997 81.5161 17.9945 81.5369C17.9382 81.9573 17.8864 82.3798 17.8346 82.8024C17.832 82.8231 17.8338 82.8441 17.8397 82.8642C17.8456 82.8842 17.8556 82.903 17.869 82.9193C17.8824 82.9356 17.899 82.9491 17.9178 82.9591C17.9367 82.9691 17.9574 82.9754 17.9787 82.9776C18.0121 82.9818 18.046 82.9757 18.0756 82.9601C18.0989 82.948 18.1188 82.9305 18.1334 82.9091C18.1479 82.8877 18.1567 82.863 18.1589 82.8374C18.2115 82.4171 18.2648 81.9967 18.3189 81.5763C18.3275 81.5353 18.3191 81.4928 18.2954 81.4579C18.2718 81.423 18.2348 81.3986 18.1927 81.3902L18.1769 81.3989ZM18.5306 78.8744C18.5093 78.8714 18.4876 78.8724 18.4667 78.8776C18.4458 78.8828 18.4262 78.892 18.409 78.9046C18.3918 78.9173 18.3773 78.9331 18.3665 78.9512C18.3557 78.9694 18.3487 78.9894 18.3459 79.0102C18.2858 79.4306 18.2258 79.851 18.1657 80.2713C18.1625 80.2921 18.1636 80.3132 18.169 80.3335C18.1743 80.3538 18.1837 80.3729 18.1967 80.3896C18.2098 80.4063 18.2261 80.4204 18.2447 80.4309C18.2634 80.4414 18.284 80.4482 18.3054 80.4509C18.3395 80.4553 18.3741 80.4491 18.4045 80.4334C18.4277 80.422 18.4476 80.4053 18.4625 80.3847C18.4775 80.364 18.4869 80.3402 18.4901 80.3151C18.5487 79.8947 18.6087 79.4744 18.6703 79.054C18.6766 79.0141 18.6674 78.9735 18.6445 78.9398C18.6216 78.9062 18.5866 78.8821 18.5464 78.8723L18.5306 78.8744ZM18.9091 76.3565C18.8881 76.3531 18.8665 76.3538 18.8458 76.3586C18.825 76.3634 18.8055 76.3721 18.7883 76.3844C18.7711 76.3966 18.7565 76.4121 18.7456 76.4299C18.7346 76.4476 18.7274 76.4674 18.7244 76.4879C18.6636 76.8623 18.6072 77.2367 18.5509 77.6111L18.5306 77.749C18.5275 77.7698 18.5286 77.7909 18.5339 77.8112C18.5393 77.8315 18.5487 77.8506 18.5617 77.8673C18.5747 77.884 18.591 77.8981 18.6097 77.9086C18.6283 77.9191 18.6489 77.9259 18.6703 77.9286C18.7042 77.9348 18.7392 77.9294 18.7694 77.9133C18.7924 77.9016 18.8121 77.8848 18.827 77.8642C18.8419 77.8437 18.8515 77.8199 18.855 77.795L18.8753 77.6571C18.9316 77.2849 18.9879 76.9105 19.0465 76.5383C19.0541 76.4983 19.0457 76.4571 19.0231 76.4229C19.0005 76.3888 18.9654 76.3642 18.9249 76.3543L18.9091 76.3565ZM19.3957 73.8539C19.3533 73.8448 19.3089 73.8523 19.2721 73.8749C19.2354 73.8974 19.2094 73.9332 19.1997 73.9743C19.1096 74.3663 19.024 74.7757 18.9384 75.2289C18.9319 75.2625 18.937 75.2972 18.9529 75.3277C18.9688 75.3582 18.9946 75.3827 19.0262 75.3975C19.0399 75.4058 19.0553 75.4111 19.0713 75.4129C19.1074 75.419 19.1445 75.4137 19.1772 75.3975C19.1988 75.3861 19.2175 75.3702 19.2319 75.3509C19.2463 75.3316 19.2561 75.3093 19.2605 75.2859C19.3371 74.872 19.416 74.4954 19.4993 74.1364C19.4993 74.1079 19.4993 74.0794 19.5174 74.051C19.5301 74.0109 19.5262 73.9676 19.5064 73.9303C19.4866 73.893 19.4525 73.8648 19.4115 73.8517L19.3957 73.8539ZM20.1481 71.417C20.1279 71.4097 20.1063 71.4063 20.0847 71.407C20.0631 71.4078 20.0418 71.4126 20.0221 71.4214C20.0025 71.4301 19.9848 71.4426 19.9701 71.458C19.9553 71.4734 19.9439 71.4915 19.9364 71.5112C19.7899 71.8943 19.6503 72.3038 19.5241 72.7307C19.518 72.7508 19.516 72.772 19.5183 72.7928C19.5207 72.8137 19.5273 72.8339 19.5378 72.8523C19.5483 72.8706 19.5624 72.8868 19.5794 72.8997C19.5964 72.9127 19.6159 72.9222 19.6368 72.9278C19.6569 72.934 19.678 72.936 19.699 72.9337C19.7199 72.9315 19.7402 72.925 19.7584 72.9146C19.7779 72.9048 19.7952 72.8911 19.8092 72.8746C19.8231 72.858 19.8334 72.8389 19.8395 72.8183C19.9634 72.4001 20.0986 71.9972 20.245 71.6228C20.2619 71.5847 20.2629 71.5417 20.2478 71.5029C20.2326 71.464 20.2026 71.4325 20.1639 71.4148L20.1481 71.417ZM21.3331 69.1509C21.3041 69.1333 21.2703 69.1249 21.2362 69.1268C21.2101 69.1279 21.1848 69.1353 21.1624 69.1483C21.1399 69.1613 21.1212 69.1795 21.1078 69.2012C20.9659 69.4202 20.8307 69.6391 20.7046 69.8581C20.6528 69.9457 20.6054 70.0354 20.5581 70.1252C20.5108 70.215 20.4905 70.2522 20.459 70.3179C20.4483 70.3368 20.4417 70.3578 20.4397 70.3793C20.4377 70.4008 20.4402 70.4225 20.4472 70.4431C20.4542 70.4636 20.4654 70.4825 20.4803 70.4987C20.4951 70.5148 20.5131 70.5278 20.5334 70.5368C20.5566 70.5487 20.5825 70.5549 20.6088 70.5549C20.6351 70.5549 20.661 70.5487 20.6843 70.5368C20.7144 70.521 20.7388 70.4965 20.7541 70.4668C20.7902 70.3967 20.8262 70.3245 20.8645 70.2478C20.878 70.2194 20.8938 70.1931 20.9073 70.1646C20.9614 70.0639 21.0177 69.9654 21.0763 69.8668C21.1731 69.6983 21.2745 69.5319 21.3804 69.372C21.4066 69.3383 21.4179 69.2959 21.412 69.254C21.4061 69.2122 21.3834 69.1743 21.3489 69.1487L21.3331 69.1509ZM22.9911 67.1803C22.9606 67.1525 22.9203 67.1369 22.8785 67.1369C22.8366 67.1369 22.7963 67.1525 22.7658 67.1803C22.4392 67.5153 22.1531 67.8372 21.8917 68.1437C21.8662 68.1763 21.8546 68.2172 21.8592 68.258C21.8638 68.2987 21.8843 68.3362 21.9166 68.3627C21.9415 68.3824 21.9719 68.3946 22.0039 68.3977C22.036 68.4008 22.0683 68.3947 22.0968 68.3802C22.1158 68.3694 22.1326 68.3553 22.1463 68.3386C22.3243 68.1196 22.5158 67.9007 22.7253 67.6817C22.8154 67.5854 22.9078 67.4891 23.0046 67.3905C23.0301 67.3616 23.0442 67.3249 23.0446 67.2869C23.0451 67.2489 23.0317 67.2119 23.0069 67.1825L22.9911 67.1803ZM24.8834 65.4287C24.8532 65.4004 24.8128 65.3845 24.7708 65.3845C24.7288 65.3845 24.6884 65.4004 24.6581 65.4287C24.3383 65.7156 24.0161 66.0046 23.7007 66.3045C23.6715 66.3339 23.6552 66.3732 23.6552 66.414C23.6552 66.4548 23.6715 66.4941 23.7007 66.5235C23.7253 66.549 23.7579 66.5658 23.7933 66.5714C23.8288 66.5769 23.8652 66.5708 23.8967 66.5541C23.9096 66.5474 23.9217 66.5393 23.9328 66.5301C24.2482 66.2367 24.568 65.9476 24.8879 65.6543C24.9052 65.6403 24.9193 65.6229 24.9293 65.6034C24.9393 65.5838 24.945 65.5624 24.9461 65.5406C24.9471 65.5188 24.9435 65.497 24.9354 65.4766C24.9274 65.4562 24.915 65.4377 24.8992 65.4222L24.8834 65.4287Z" fill="#97C6B7"/>
<path d="M34.6211 109.616C36.5178 108.761 38.3887 107.86 40.2251 106.879C40.681 106.625 41.1376 106.375 41.595 106.129L42.9497 105.35L44.2981 104.545L45.6249 103.709L46.9409 102.852L48.2312 101.961L49.5215 101.051C49.9516 100.733 50.3687 100.423 50.7945 100.112C52.4848 98.8485 54.1363 97.5157 55.7749 96.1543C54.2904 97.7248 52.7174 99.1887 51.0655 100.537C50.6497 100.872 50.2326 101.204 49.8139 101.533L48.5387 102.489L47.2377 103.401L45.9173 104.28L44.5712 105.111L43.2056 105.904L41.8208 106.647C41.3541 106.886 40.8832 107.125 40.4144 107.344C38.534 108.253 36.5981 109.012 34.6211 109.616Z" fill="#97C6B7"/>
</g>
<path d="M50.0008 0C22.4324 0 0 22.4311 0 50C0 72.7348 15.2669 91.9847 36.083 98.0285C40.606 99.3395 45.2918 100.003 50.0008 100C53.2836 100.002 56.5586 99.6799 59.7783 99.0392C60.9698 98.8035 62.1458 98.5269 63.3063 98.2094C67.2872 97.1085 71.1152 95.5153 74.7017 93.4666C89.8027 84.8523 100 68.5977 100 50.0066C100 22.4311 77.5692 0 50.0008 0ZM74.3134 92.8975C72.7872 93.7652 71.2157 94.5507 69.6056 95.2506C67.4142 96.2086 65.1544 97.0018 62.845 97.6236C61.9599 97.8637 61.0633 98.0783 60.155 98.2675C59.6018 98.3781 59.0487 98.4849 58.4955 98.5878C55.6932 99.0765 52.8538 99.3219 50.0091 99.3213C49.0234 99.3213 48.0443 99.2947 47.0736 99.2333C43.769 99.0395 40.4925 98.5113 37.2944 97.6568C36.8729 97.5462 36.4548 97.4278 36.0399 97.3017C15.6287 91.2662 0.693658 72.3415 0.693658 50.0066C0.693658 22.8112 22.8191 0.685364 50.0141 0.685364C77.2091 0.685364 99.3196 22.8045 99.3196 50C99.3196 68.3604 89.2368 84.4126 74.3134 92.8975Z" fill="#8DC63F"/>
</svg>
