<svg width="100" height="100" viewBox="0 0 100 100" fill="none" xmlns="http://www.w3.org/2000/svg">
<circle cx="50" cy="50" r="50" fill="#E1E1E1" fill-opacity="0.3"/>
<mask id="mask0_1070_352" style="mask-type:alpha" maskUnits="userSpaceOnUse" x="0" y="0" width="100" height="100">
<circle cx="50" cy="50" r="50" fill="#D9D9D9"/>
</mask>
<g mask="url(#mask0_1070_352)">
<path d="M9.60938 99.6074C9.74121 98.5607 9.8271 97.9374 9.8271 97.9374C9.84639 97.8604 9.87316 97.7855 9.90701 97.7137C10.2126 97.0386 11.571 95.1169 16.9843 96.0678C19.9326 96.5851 21.0273 99.4236 21.3449 102.186C21.5337 103.899 21.4826 105.631 21.193 107.33L9.60938 99.6074Z" fill="#FFBB94"/>
<path d="M32.2926 69.2948C32.2926 69.6584 32.2826 70.0219 32.2667 70.3835C32.1952 71.88 32.0338 73.3709 31.7832 74.848C31.5537 76.2612 31.2503 77.6613 30.8744 79.0428C30.6287 79.9017 29.0386 84.0945 27.147 88.8067C27.0531 89.0424 26.9472 89.2781 26.8613 89.5158C24.9237 94.3099 22.7284 99.5035 21.3502 102.186C20.8188 103.219 20.4093 103.878 20.1816 103.996C19.3876 104.419 18.5478 104.749 17.6787 104.981C17.5149 105.023 17.3531 105.059 17.1953 105.089C14.7749 103.612 12.4632 101.965 10.2778 100.159C10.2638 100.113 10.2499 100.065 10.2379 100.021C10.0565 99.4132 9.94198 98.7876 9.89632 98.1552C9.89137 98.0071 9.8967 97.859 9.91229 97.7117C10.0761 95.9798 11.3565 92.1186 13.0424 86.4756C13.6717 84.3662 14.3568 82.0031 15.0619 79.4083C17.7206 69.6204 21.8236 61.0191 22.1611 60.3199L22.1831 60.274L22.275 60.248L22.3709 60.2201L22.4128 60.2081C28.0758 58.66 30.6706 60.9751 31.7053 64.4608C32.1408 65.933 32.2986 67.6109 32.2926 69.2948Z" fill="#FFBB94"/>
<path d="M23.2724 59.8035C21.8102 60.1371 19.1774 62.4322 17.859 67.1044C16.5407 71.7767 13.864 83.0607 13.1489 84.6248C12.4337 86.1888 12.5077 88.4201 20.8513 89.3729C29.195 90.3257 30.9588 86.1349 33.1561 80.6077C35.3534 75.0806 36.8556 71.6748 37.1512 68.5746C37.4468 65.4745 35.0098 57.1368 23.2724 59.8035Z" fill="white"/>
<path d="M87.9841 88.1825C87.9541 92.611 87.8403 96.8997 87.5846 99.0131C87.5846 99.0411 87.5846 99.0691 87.5746 99.095C85.922 100.536 84.1922 101.885 82.393 103.138C78.9073 103.324 76.4004 99.6304 75.8431 98.4239C75.3976 97.4491 75.148 94.8523 74.7924 90.9391L74.7624 90.6155C74.7092 90.0242 74.6526 89.405 74.5926 88.7578C74.5926 88.6699 74.5767 88.582 74.5667 88.4921C74.335 85.9832 74.0473 83.0708 73.6498 79.8089C73.3322 77.1961 73.1404 74.6253 73.0306 72.2502V72.2402C72.8385 68.229 72.8558 64.2105 73.0825 60.2011C73.3741 59.9881 73.6598 59.7923 73.9394 59.6138C75.4356 58.661 76.7799 58.2156 77.9844 58.1437C85.5391 57.7322 87.6045 72.5419 87.7923 74.3057C87.9022 75.3804 88.028 81.9223 87.9841 88.1825Z" fill="#FFBB94"/>
<path d="M81.2533 59.1868C81.2533 59.1868 76.643 80.099 75.0869 89.1138C74.9891 89.6751 74.9032 90.1905 74.8313 90.6499C74.8313 90.7098 74.8133 90.7678 74.8053 90.8257C74.7973 90.8836 74.7933 90.8996 74.7893 90.9375C74.19 94.9326 73.7606 100.268 73.407 104.321C73.2612 105.995 73.1254 107.445 73.0075 108.488C69.4874 110.088 65.8191 111.34 62.055 112.225C57.5499 113.291 52.9356 113.828 48.3061 113.823C41.851 113.83 35.4376 112.79 29.3155 110.743C29.4314 105.835 29.5013 101.077 29.2077 99.8425C28.3327 96.1671 27.5531 92.7287 26.8686 89.5273L26.7487 88.97C25.5802 83.4987 24.6773 78.7546 24.0041 74.7775C22.5659 66.324 22.1524 61.3441 22.3781 60.2355C22.3772 60.2236 22.3772 60.2115 22.3781 60.1996C22.3832 60.1708 22.3912 60.1427 22.4021 60.1157C22.6598 59.4005 27.6137 57.407 32.3678 55.6372C34.9291 54.6847 37.5604 53.932 40.238 53.386L40.7414 53.2861L40.9532 53.2462C44.0889 52.6496 47.2715 52.3328 50.4634 52.2993H50.7231C53.7766 52.2687 56.8273 52.4986 59.8418 52.9865L60.4231 53.0824L60.6228 53.1163C62.9786 53.5316 65.3037 54.1056 67.5822 54.8342L77.0345 57.8425L77.9834 58.1461L81.2533 59.1868Z" fill="white"/>
<path d="M35.7958 74.0342H35.7459C35.3418 74.0168 34.9458 74.1507 34.6353 74.4098C34.6074 74.4338 34.5735 74.4497 34.5372 74.4557C34.5009 74.4617 34.4636 74.4576 34.4295 74.4437C34.3954 74.4299 34.3658 74.4069 34.344 74.3773C34.3221 74.3477 34.3089 74.3126 34.3057 74.2759V70.5685C34.3014 70.5349 34.2886 70.503 34.2686 70.4757C34.2486 70.4483 34.2219 70.4266 34.1912 70.4124C34.1604 70.3982 34.1265 70.3921 34.0928 70.3946C34.059 70.3971 34.0264 70.4081 33.9981 70.4267L33.8882 70.5026L33.2889 70.9021L32.5838 71.3815C32.5563 71.4004 32.5348 71.4267 32.5219 71.4574C32.5099 71.4802 32.5037 71.5056 32.5039 71.5313V79.2458C32.5079 79.296 32.5307 79.3428 32.5678 79.3768C32.6048 79.4109 32.6533 79.4297 32.7037 79.4296H34.1139C34.1642 79.4297 34.2128 79.4109 34.2498 79.3768C34.2868 79.3428 34.3096 79.296 34.3137 79.2458V76.1936C34.3135 76.1692 34.3184 76.1451 34.328 76.1228C34.3376 76.1004 34.3518 76.0803 34.3696 76.0637C34.4155 76.0198 34.4595 75.9778 34.5034 75.9419C34.6799 75.7564 34.9134 75.6355 35.1666 75.5983H35.2145C35.9656 75.5983 35.8897 76.5332 35.8897 77.0785V79.2478C35.8937 79.298 35.9166 79.3448 35.9536 79.3788C35.9906 79.4129 36.0391 79.4317 36.0895 79.4316H37.5017C37.552 79.4317 37.6006 79.4129 37.6376 79.3788C37.6746 79.3448 37.6975 79.298 37.7015 79.2478V76.2515C37.6775 75.1828 37.314 74.0342 35.7958 74.0342Z" fill="#652D90"/>
<path d="M40.2937 79.4314H38.8794C38.8541 79.4331 38.8287 79.4295 38.8048 79.4211C38.7809 79.4126 38.7589 79.3994 38.7403 79.3822C38.7216 79.3651 38.7066 79.3443 38.6962 79.3212C38.6858 79.298 38.6802 79.273 38.6797 79.2477V74.3258C38.6802 74.3004 38.6858 74.2754 38.6962 74.2523C38.7066 74.2291 38.7216 74.2084 38.7403 74.1912C38.7589 74.174 38.7809 74.1608 38.8048 74.1523C38.8287 74.1439 38.8541 74.1404 38.8794 74.142H40.2937C40.344 74.1418 40.3925 74.1607 40.4296 74.1947C40.4666 74.2288 40.4894 74.2756 40.4934 74.3258V79.2477C40.4894 79.2978 40.4666 79.3446 40.4296 79.3787C40.3925 79.4128 40.344 79.4316 40.2937 79.4314Z" fill="#652D90"/>
<path d="M45.2994 74.1416H44.1328C44.0821 74.1417 44.0333 74.1226 43.9963 74.0881C43.9592 74.0536 43.9366 74.0064 43.933 73.9558V72.5775C43.9304 72.5426 43.9185 72.509 43.8988 72.4801C43.879 72.4512 43.852 72.428 43.8204 72.4128C43.7889 72.3976 43.7539 72.391 43.7189 72.3936C43.684 72.3962 43.6504 72.408 43.6214 72.4277L43.2399 72.6934L42.4968 73.2108L42.2112 73.4105C42.1868 73.4272 42.1668 73.4496 42.1529 73.4756C42.139 73.5017 42.1316 73.5308 42.1313 73.5603V73.9598C42.1277 74.0103 42.1051 74.0576 42.068 74.0921C42.031 74.1266 41.9822 74.1457 41.9315 74.1456H41.6099C41.5846 74.144 41.5592 74.1475 41.5353 74.156C41.5114 74.1644 41.4894 74.1776 41.4708 74.1948C41.4521 74.212 41.4371 74.2328 41.4267 74.2559C41.4163 74.279 41.4106 74.304 41.4102 74.3294V75.6398C41.4137 75.6903 41.4363 75.7376 41.4734 75.772C41.5105 75.8065 41.5593 75.8256 41.6099 75.8255H41.9315C41.9818 75.8254 42.0304 75.8442 42.0674 75.8783C42.1044 75.9123 42.1272 75.9591 42.1313 76.0093V77.4815C42.1313 79.1374 42.9942 79.4331 44.4584 79.4331H44.786C44.807 79.4328 44.8279 79.4295 44.8479 79.4231C44.8859 79.4123 44.9195 79.3896 44.9436 79.3583C44.9677 79.327 44.9811 79.2888 44.9817 79.2493V77.9149C44.9782 77.8644 44.9556 77.8171 44.9185 77.7826C44.8814 77.7482 44.8326 77.729 44.782 77.7292H44.4384C44.0269 77.7292 43.9271 77.6932 43.9271 77.3057V76.0093C43.9273 75.9835 43.9333 75.958 43.9447 75.9348C43.9561 75.9117 43.9726 75.8914 43.993 75.8755C44.0292 75.8445 44.0752 75.8275 44.1228 75.8275H44.734C44.7842 75.8279 44.8327 75.8093 44.8699 75.7756C44.8892 75.7579 44.9042 75.736 44.9138 75.7117L45.0736 75.3361L45.4731 74.4013C45.4855 74.3728 45.4905 74.3416 45.4877 74.3106C45.4849 74.2796 45.4744 74.2499 45.4571 74.224C45.4398 74.1982 45.4163 74.1771 45.3887 74.1627C45.3612 74.1483 45.3304 74.141 45.2994 74.1416Z" fill="#652D90"/>
<path d="M50.6758 74.1516H49.2636C49.213 74.1514 49.1642 74.1706 49.1271 74.205C49.09 74.2395 49.0674 74.2868 49.0638 74.3373V74.4332C48.6354 74.1705 48.1422 74.0322 47.6396 74.0337C47.1448 74.0328 46.6588 74.1648 46.2326 74.4161C45.8063 74.6674 45.4554 75.0286 45.2166 75.4619C45.1028 75.6667 45.0168 75.8857 44.9609 76.1131C44.925 76.2439 44.901 76.3776 44.889 76.5126C44.8793 76.6015 44.8746 76.6909 44.875 76.7803C44.8741 77.4503 45.1169 78.0978 45.5582 78.6021C45.8177 78.8982 46.1374 79.1356 46.496 79.2982C46.8546 79.4608 47.2439 79.5449 47.6376 79.5449C47.9513 79.5455 48.2628 79.4921 48.5585 79.3871H48.5764C48.7463 79.3264 48.9091 79.2474 49.0619 79.1514V79.2353C49.0623 79.2606 49.068 79.2856 49.0784 79.3088C49.0888 79.3319 49.1038 79.3527 49.1224 79.3698C49.1411 79.387 49.1631 79.4002 49.187 79.4087C49.2109 79.4171 49.2363 79.4207 49.2616 79.419H50.6739C50.7242 79.4192 50.7727 79.4004 50.8097 79.3663C50.8468 79.3322 50.8696 79.2854 50.8736 79.2353V74.3373C50.8701 74.2872 50.8478 74.2402 50.8111 74.2057C50.7744 74.1713 50.7261 74.1519 50.6758 74.1516ZM49.0559 77.3176C49.057 77.3524 49.0472 77.3866 49.0279 77.4155C48.9159 77.5928 48.7612 77.739 48.5779 77.8409C48.3947 77.9428 48.1888 77.9971 47.9792 77.9988C47.7685 77.9978 47.5618 77.9413 47.3799 77.835C47.1344 77.6938 46.9469 77.4701 46.8506 77.2038C46.7999 77.0725 46.7742 76.933 46.7747 76.7923C46.7747 76.6337 46.8061 76.4767 46.8672 76.3304C46.9283 76.1841 47.0179 76.0513 47.1306 75.9398C47.2434 75.8284 47.3772 75.7404 47.5242 75.681C47.6713 75.6216 47.8286 75.5919 47.9872 75.5938C48.1975 75.5933 48.4045 75.6466 48.5884 75.7487C48.7724 75.8508 48.9271 75.9982 49.0379 76.1771C49.0555 76.2059 49.0645 76.2392 49.0638 76.2729L49.0559 77.3176Z" fill="#652D90"/>
<path d="M54.0423 76.1523C53.8805 76.1163 53.1414 75.9984 53.1414 75.7727C53.1414 75.547 53.7926 75.513 54.0184 75.513C54.3545 75.4942 54.6897 75.563 54.9912 75.7128C55.034 75.7375 55.0844 75.7454 55.1327 75.7351C55.1811 75.7248 55.2239 75.6969 55.2528 75.6569L55.8721 74.776C55.886 74.7566 55.8959 74.7346 55.9011 74.7113C55.9063 74.688 55.9068 74.6638 55.9025 74.6404C55.8982 74.6169 55.8893 74.5945 55.8761 74.5745C55.863 74.5546 55.846 74.5375 55.8261 74.5243C55.2389 74.1248 54.2281 74.0588 53.6049 74.0588C52.1407 74.0588 51.2777 74.8039 51.2777 75.7627C51.2777 76.6496 52.0028 77.0871 53.4051 77.3488C53.8685 77.4307 54.28 77.6084 54.2561 77.7862C54.2321 77.964 53.7667 78.0459 53.3931 78.0459C52.9088 78.0539 52.4326 77.9206 52.0228 77.6624C51.9796 77.6343 51.9272 77.624 51.8766 77.6337C51.8259 77.6434 51.781 77.6723 51.7512 77.7143L51.1219 78.6192C51.1085 78.6383 51.0991 78.6599 51.094 78.6828C51.089 78.7056 51.0885 78.7292 51.0926 78.7522C51.0967 78.7752 51.1052 78.7971 51.1178 78.8168C51.1304 78.8365 51.1467 78.8535 51.1659 78.8669C51.8455 79.3042 52.635 79.5403 53.4431 79.5481C55.5704 79.5481 56.0399 78.6252 56.0399 77.8102C56.0319 77.3827 55.908 76.6177 54.0423 76.1523Z" fill="#652D90"/>
<path d="M64.5951 76.1523C64.4313 76.1163 63.6922 75.9984 63.6922 75.7727C63.6922 75.547 64.3434 75.513 64.5691 75.513C64.9052 75.4942 65.2405 75.563 65.5419 75.7128C65.5848 75.7375 65.6352 75.7454 65.6835 75.7351C65.7319 75.7248 65.7746 75.6969 65.8036 75.6569L66.4249 74.776C66.4387 74.7564 66.4484 74.7343 66.4535 74.7109C66.4586 74.6876 66.4589 74.6634 66.4544 74.6399C66.45 74.6164 66.4408 74.5941 66.4275 74.5742C66.4141 74.5543 66.3969 74.5373 66.3769 74.5243C65.7896 74.1248 64.7789 74.0588 64.1557 74.0588C62.6915 74.0588 61.8285 74.8039 61.8285 75.7627C61.8285 76.6496 62.5536 77.0871 63.9559 77.3488C64.4193 77.4307 64.8328 77.6084 64.8069 77.7862C64.7809 77.964 64.3195 78.0459 63.9439 78.0459C63.4596 78.0539 62.9834 77.9206 62.5736 77.6624C62.5304 77.6343 62.478 77.624 62.4273 77.6337C62.3767 77.6434 62.3318 77.6723 62.302 77.7143L61.6727 78.6192C61.6593 78.6383 61.6498 78.6599 61.6448 78.6828C61.6398 78.7056 61.6393 78.7292 61.6434 78.7522C61.6474 78.7752 61.656 78.7971 61.6686 78.8168C61.6812 78.8365 61.6975 78.8535 61.7167 78.8669C62.3963 79.3042 63.1857 79.5403 63.9939 79.5481C66.1212 79.5481 66.5906 78.6252 66.5906 77.8102C66.5847 77.3827 66.4588 76.6177 64.5951 76.1523Z" fill="#652D90"/>
<path d="M59.7676 76.8302C59.7377 76.7974 59.7211 76.7547 59.7211 76.7103C59.7211 76.666 59.7377 76.6232 59.7676 76.5905L61.7291 74.4591C61.753 74.4317 61.7683 74.398 61.7732 74.362C61.778 74.326 61.7722 74.2894 61.7565 74.2566C61.7408 74.2239 61.7158 74.1965 61.6847 74.1778C61.6535 74.1591 61.6176 74.15 61.5813 74.1515H59.7236C59.6954 74.1513 59.6675 74.157 59.6416 74.1684C59.6158 74.1798 59.5927 74.1965 59.5738 74.2174L58.4033 75.5198C58.377 75.5489 58.3428 75.5696 58.3048 75.5794C58.2669 75.5892 58.2269 75.5876 58.1898 75.5748C58.1528 75.5621 58.1203 75.5387 58.0965 75.5076C58.0726 75.4765 58.0584 75.439 58.0557 75.4V71.7225C58.0528 71.6879 58.041 71.6546 58.0213 71.626C58.0016 71.5974 57.9749 71.5744 57.9436 71.5592C57.9124 71.5441 57.8777 71.5374 57.8431 71.5398C57.8084 71.5421 57.775 71.5535 57.7461 71.5727L56.3358 72.5355C56.3107 72.5516 56.29 72.5737 56.2757 72.5999C56.2614 72.6261 56.2539 72.6555 56.2539 72.6853V79.2432C56.2575 79.2937 56.2801 79.341 56.3171 79.3755C56.3542 79.41 56.403 79.4291 56.4537 79.429H57.8619C57.9126 79.4291 57.9614 79.41 57.9985 79.3755C58.0355 79.341 58.0581 79.2937 58.0617 79.2432V78.0667C58.0647 78.0272 58.0794 77.9895 58.1039 77.9584C58.1284 77.9272 58.1616 77.9041 58.1993 77.8919C58.237 77.8797 58.2774 77.879 58.3155 77.8898C58.3536 77.9007 58.3876 77.9226 58.4132 77.9528L59.5678 79.3511C59.5868 79.3739 59.6106 79.3922 59.6376 79.4046C59.6646 79.417 59.6939 79.4233 59.7236 79.423H61.5813C61.6172 79.4251 61.6529 79.4168 61.6841 79.3988C61.7152 79.3809 61.7404 79.3543 61.7566 79.3222C61.7727 79.2901 61.7791 79.2539 61.7749 79.2182C61.7708 79.1826 61.7563 79.1489 61.7331 79.1214L59.7676 76.8302Z" fill="#652D90"/>
<path d="M40.7775 71.6008C40.8251 71.7286 40.8495 71.8639 40.8494 72.0003C40.8395 72.3272 40.7005 72.6369 40.4627 72.8615C40.225 73.0862 39.908 73.2074 39.581 73.1988C39.2827 73.2052 38.992 73.1046 38.7615 72.9151C38.5311 72.7257 38.376 72.46 38.3246 72.1661L37.8911 71.7546C37.8773 71.8358 37.8707 71.918 37.8711 72.0003C37.8842 72.4411 38.0715 72.8588 38.392 73.1617C38.7126 73.4647 39.1401 73.6281 39.581 73.6163C40.0219 73.6281 40.4494 73.4647 40.77 73.1617C41.0905 72.8588 41.2778 72.4411 41.2909 72.0003C41.2911 71.7503 41.2301 71.5041 41.1131 71.2832L40.7775 71.6008Z" fill="#652D90"/>
<path d="M38.1085 71.3903C38.1666 71.3773 38.227 71.3783 38.2846 71.3933C38.3423 71.4082 38.3956 71.4366 38.4401 71.4762C38.55 71.2693 38.7148 71.0967 38.9164 70.9773C39.1179 70.8579 39.3484 70.7962 39.5827 70.799C39.8989 70.7979 40.2048 70.9114 40.4436 71.1186L40.7552 70.825C40.4322 70.5379 40.0148 70.3801 39.5827 70.3816C39.2375 70.3762 38.8988 70.4756 38.6113 70.6668C38.3239 70.8579 38.1012 71.1318 37.9727 71.4522C38.0136 71.4232 38.0597 71.4022 38.1085 71.3903Z" fill="#652D90"/>
<path d="M41.4268 70.9484L39.4833 72.7861C39.42 72.8449 39.3369 72.8776 39.2505 72.8776C39.1642 72.8776 39.081 72.8449 39.0178 72.7861L38.868 72.6463L38.3167 72.1229L37.9032 71.7234C37.8887 71.71 37.8785 71.6926 37.8739 71.6734C37.8692 71.6542 37.8704 71.6341 37.8772 71.6155C37.8975 71.5643 37.93 71.5187 37.9719 71.4829C38.0138 71.4471 38.0638 71.4221 38.1176 71.4101C38.1714 71.3981 38.2273 71.3994 38.2805 71.414C38.3336 71.4285 38.3824 71.4559 38.4226 71.4937L39.0937 72.1269C39.1368 72.1663 39.1931 72.1882 39.2515 72.1882C39.31 72.1882 39.3663 72.1663 39.4093 72.1269L40.6938 70.9124L40.8935 70.7286C40.9547 70.6739 41.033 70.6422 41.115 70.639C41.197 70.6357 41.2776 70.661 41.343 70.7107L41.4288 70.7846C41.4412 70.7944 41.4511 70.807 41.4579 70.8212C41.4646 70.8355 41.468 70.8512 41.4678 70.867C41.4676 70.8827 41.4638 70.8983 41.4567 70.9124C41.4496 70.9265 41.4394 70.9388 41.4268 70.9484Z" fill="#8BC53F"/>
<path d="M81.04 58.613C82.3064 59.0484 86.2995 62.7059 87.3302 69.1339C88.0613 73.7003 89.2099 81.5925 88.8963 85.8433C88.7744 87.5192 88.3549 89.7604 80.8682 90.2478C73.3814 90.7352 72.1909 86.2648 70.7367 80.376C69.2825 74.4873 68.2538 70.8478 68.2778 67.6018C68.3017 64.3559 70.8685 55.1273 81.04 58.613Z" fill="white"/>
<path d="M22.3945 60.0999C22.3945 60.0999 24.7017 85.5843 26.7352 88.9562" stroke="#E6E4E4" stroke-width="0.1" stroke-miterlimit="10"/>
<path d="M74.0606 58.4419C74.0606 58.4419 70.9465 85.6083 75.0893 89.108" stroke="#E6E4E4" stroke-width="0.1" stroke-miterlimit="10"/>
<path d="M87.593 99.0773L87.573 99.0952C85.9204 100.536 84.1906 101.886 82.3914 103.138C80.8587 104.204 79.276 105.198 77.6433 106.121C76.1786 105.653 74.7614 105.047 73.4105 104.313C72.8623 104.031 72.3373 103.705 71.8405 103.34C70.7738 102.463 47.8282 88.3166 46.1103 86.8983C46.0786 86.8744 46.0492 86.8477 46.0224 86.8184C44.6921 85.1525 44.6241 83.894 45.0896 82.9592C45.3731 82.4386 45.7815 81.9966 46.2781 81.6728C47.0467 81.1701 47.8961 80.8032 48.789 80.5881L49.9216 80.9617C52.6183 81.8546 59.6496 84.2117 65.7021 86.4689C68.3268 87.4477 71.5928 88.9977 74.7549 90.6137L74.8268 90.6497C80.8873 93.7519 86.5443 97.0797 86.5443 97.0797C86.5443 97.0797 87.3673 97.639 87.577 99.0133C87.587 99.0333 87.589 99.0553 87.593 99.0773Z" fill="#FFBB94"/>
<path d="M41.3214 43.101C41.3933 43.3008 40.9219 53.9076 40.9219 53.9076C40.9219 53.9076 51.6626 58.0765 59.8984 53.7478L58.9616 41.2373L41.3214 43.101Z" fill="#FFA378"/>
<path d="M38.5082 29.8371C38.5082 29.8371 35.7776 28.3709 34.9686 28.8383C34.1596 29.3057 33.9099 36.3231 34.4692 37.3837C35.0285 38.4444 38.2286 38.7421 38.2286 38.7421C38.2286 38.7421 39.0655 35.584 38.5082 29.8371Z" fill="#FFA378"/>
<path d="M36.4138 21.3276C35.3491 26.1017 37.2128 39.8647 37.6443 40.8095C38.1497 41.9201 43.2374 48.9534 45.4347 48.9295C46.8809 48.9135 48.1553 48.9674 49.6015 48.9514C51.5531 48.9295 58.4646 42.0719 58.7522 41.237C59.0678 40.3201 60.4062 25.9938 58.952 21.6612C58.1689 19.342 57.314 15.309 54.9569 14.3482C51.7808 13.0618 44.0484 12.8561 41.138 14.6159C39.3322 15.7065 36.8533 19.358 36.4138 21.3276Z" fill="#FFBB94"/>
<path d="M49.5273 27.1163L49.795 28.4407C49.795 28.4407 53.009 28.1191 56.1292 28.9481L56.2151 27.8694C56.2151 27.8694 53.6223 26.7208 49.5273 27.1163Z" fill="#965A42"/>
<path d="M36.8438 28.2082L37.0834 29.2689C40.0997 28.2841 43.3677 28.4299 43.3677 28.4299L43.4516 27.1055C39.2867 26.9337 36.8438 28.2082 36.8438 28.2082Z" fill="#965A42"/>
<path d="M59.6682 29.8768C59.6682 29.8768 62.3988 28.4126 63.2078 28.878C64.0168 29.3434 64.2665 36.3647 63.7052 37.4234C63.1439 38.4821 58.957 38.7218 58.957 38.7218C58.957 38.7218 59.1088 35.6137 59.6682 29.8768Z" fill="#FFA378"/>
<path d="M44.9542 40.8093C46.9238 42.5351 48.7615 40.8392 48.8374 40.7673L49.8941 41.7661C48.8954 42.7169 46.3485 43.9634 43.9375 41.846L44.9542 40.8093Z" fill="#E06767"/>
<path d="M34.5156 18.7757C34.5156 18.7757 36.8507 18.6458 37.1264 21.0209C37.1743 21.4404 43.5185 18.0106 54.0634 19.7824C55.9212 20.094 57.3574 20.2059 57.5032 20.7233C57.661 21.2806 58.9195 32.6645 59.3369 33.3876C59.5507 33.7571 61.2805 29.4724 61.4303 28.9571C61.9877 27.0235 62.3732 24.3628 62.5969 21.8658C62.9465 17.9427 61.9557 13.1147 59.0014 11.6984C56.047 10.2822 47.162 9.61499 45.3003 9.61499C38.8862 9.61499 35.7481 11.8562 34.5156 18.7757Z" fill="#965A42"/>
<path d="M36.0888 19.3162C36.0888 19.3162 35.6094 24.264 35.6094 26.9587C35.634 28.6929 35.9085 30.4145 36.4244 32.0704C36.4244 32.0704 35.9929 24.6456 37.0836 22.2705C38.1742 19.8954 36.0888 19.3162 36.0888 19.3162Z" fill="#965A42"/>
<path d="M57.8633 23.3308C57.8633 23.3308 60.9814 22.332 62.4376 20.5742C62.4376 20.5742 62.4916 24.022 58.1609 25.7079L57.8633 23.3308Z" fill="#BF826B"/>
<path d="M59.2502 38.6964C59.2502 38.271 59.2343 37.8315 59.2223 37.426V37.414C59.1923 36.4951 59.1524 35.7581 59.1524 35.7581C59.0904 35.9139 58.1097 38.4028 57.9219 38.7544C57.7341 39.1059 54.2904 41.6747 53.9728 41.5829C53.3455 41.4011 51.0324 39.881 50.4052 39.5953C48.13 38.5586 46.8096 39.9229 46.8096 39.9229C46.8096 39.9229 45.6511 39.004 44.3347 39.4934C42.8166 40.0587 40.809 41.5569 40.5394 41.5869C40.2697 41.6168 37.9945 39.4775 37.5431 38.7903C37.5099 38.7403 37.4799 38.6882 37.4532 38.6345C37.2177 38.0983 37.0596 37.5313 36.9838 36.9506C36.9849 36.942 36.9849 36.9332 36.9838 36.9246C36.9838 36.8787 36.9718 36.8347 36.9658 36.7948C36.9598 36.7548 36.9658 36.7289 36.9538 36.7009C36.9529 36.697 36.9529 36.6928 36.9538 36.6889C36.9538 36.6589 36.9538 36.631 36.9538 36.609C36.9548 36.6004 36.9548 36.5917 36.9538 36.583C36.9698 36.7828 37.0437 37.6517 37.1536 38.5806C37.2634 39.5094 37.4033 40.4403 37.5531 40.8777C37.8907 41.8146 40.3736 45.526 41.2385 46.5407C41.2485 46.5527 41.2565 46.5647 41.2665 46.5747C42.1035 47.5375 43.3419 49.0356 45.4613 49.1295C47.5807 49.2234 51.4299 49.1695 52.1211 48.73C52.8122 48.2906 56.5156 44.9347 57.1489 44.2076C57.8648 43.301 58.4753 42.3158 58.9686 41.2712C59.0491 41.11 59.1159 40.9423 59.1684 40.7699C59.2403 40.4403 59.2602 39.5993 59.2502 38.6964ZM44.123 41.9983C44.1353 41.9932 44.1473 41.9871 44.1589 41.9804C44.7741 41.6528 45.3574 41.7686 46.1445 41.481C46.4161 41.3803 46.676 41.2504 46.9195 41.0935C47.0997 41.2727 47.3223 41.4033 47.5667 41.473C48.3357 41.7307 49.4044 41.6967 49.8918 41.7726C49.9363 41.778 49.9804 41.7867 50.0237 41.7986C50.3124 41.8687 50.5939 41.9657 50.8646 42.0882C50.9653 42.1239 51.0516 42.1913 51.1107 42.2803C51.1697 42.3693 51.1984 42.475 51.1922 42.5816C51.1263 43.3706 50.2274 43.8081 49.7939 43.908C49.3605 44.0079 48.0061 43.4086 47.1172 43.4086C46.2283 43.4086 45.1617 43.8221 44.3986 43.6843C44.1792 43.6399 43.9733 43.5444 43.7977 43.4056C43.6221 43.2668 43.4817 43.0885 43.3879 42.8852C43.3348 42.7841 43.3022 42.6734 43.292 42.5596C43.29 42.314 43.3559 42.4018 44.123 41.9983Z" fill="#965A42"/>
<path d="M40.043 52.886C40.043 52.886 49.3914 58.8526 60.7613 52.886L58.6719 55.7484C53.5563 62.7598 42.9694 61.1418 40.043 52.886Z" fill="#FFA378"/>
<g style="mix-blend-mode:multiply">
<path d="M46.4454 29.0427L44.7734 38.0795L49.6174 38.1455L45.8801 37.8718L46.4454 29.0427Z" fill="#D7D9DD"/>
</g>
<path d="M39.25 31.1479C39.25 31.9948 39.7254 32.682 40.3127 32.682C40.9 32.682 41.3734 31.9948 41.3734 31.1479C41.3734 30.3009 40.898 29.6138 40.3127 29.6138C39.7274 29.6138 39.25 30.2989 39.25 31.1479Z" fill="#1B0800"/>
<path d="M52.1562 31.1479C52.1562 31.9948 52.6317 32.682 53.2169 32.682C53.8022 32.682 54.2776 31.9948 54.2776 31.1479C54.2776 30.3009 53.8022 29.6138 53.2169 29.6138C52.6317 29.6138 52.1562 30.2989 52.1562 31.1479Z" fill="#1B0800"/>
<path d="M48.6232 79.4559C48.6232 79.4559 45.1715 74.514 41.538 72.6463C40.4154 72.069 40.4273 71.8593 39.9399 72.5924C39.4525 73.3255 41.528 74.8316 42.7685 76.4456C44.0089 78.0596 47.7183 82.7199 48.6232 79.4559Z" fill="#FFA378"/>
<path d="M45.035 82.9626H37.4444C37.0827 82.9624 36.7316 82.8405 36.4476 82.6166C36.1635 82.3927 35.963 82.0798 35.8783 81.7281L32.0691 65.8218C32.0201 65.6387 32.0142 65.4468 32.0516 65.2611C32.089 65.0753 32.1688 64.9007 32.2848 64.7509C32.4008 64.6011 32.5499 64.48 32.7203 64.3973C32.8908 64.3145 33.0781 64.2722 33.2676 64.2737H40.8402C41.2059 64.2734 41.561 64.3962 41.8483 64.6223C42.1357 64.8484 42.3385 65.1647 42.4242 65.5202L46.2375 81.4145C46.2861 81.5979 46.2917 81.79 46.2539 81.9759C46.2161 82.1618 46.1359 82.3364 46.0195 82.4862C45.9031 82.6361 45.7537 82.757 45.583 82.8396C45.4122 82.9222 45.2247 82.9643 45.035 82.9626Z" fill="black"/>
<path d="M44.1229 82.9626H36.5482C36.1827 82.962 35.828 82.8386 35.5411 82.6122C35.2542 82.3858 35.0517 82.0695 34.9662 81.7142L31.1589 65.8218C31.11 65.6387 31.104 65.4468 31.1414 65.2611C31.1789 65.0753 31.2587 64.9007 31.3747 64.7509C31.4907 64.6011 31.6397 64.48 31.8102 64.3973C31.9806 64.3145 32.1679 64.2722 32.3574 64.2737H39.932C40.2973 64.2739 40.652 64.3969 40.9389 64.6229C41.2259 64.849 41.4285 65.165 41.5141 65.5202L45.3254 81.4145C45.3739 81.5979 45.3796 81.79 45.3417 81.9759C45.3039 82.1618 45.2237 82.3364 45.1073 82.4862C44.991 82.6361 44.8416 82.757 44.6708 82.8396C44.5001 82.9222 44.3125 82.9643 44.1229 82.9626Z" fill="#1A2E35"/>
<path d="M49.2302 80.0025C49.2302 80.0025 46.132 77.166 44.6119 76.367C41.1222 74.5253 37.3049 72.2221 34.808 71.0696C33.3078 70.3804 31.6719 68.1532 31.1924 69.5015C30.8768 70.3824 30.5473 72.3919 31.7098 74.7231C32.9623 77.2339 33.2699 80.3441 33.8731 81.3608C34.832 82.9748 43.1557 86.6603 46.5734 86.9539C48.5051 87.1237 53.7006 85.8073 49.2302 80.0025Z" fill="#FFBB94"/>
</g>
<path d="M50 100C22.4311 100 0 77.5689 0 50C0 22.4311 22.4311 0 50 0C77.5689 0 100 22.4295 100 50C100 77.5705 77.5705 100 50 100ZM50 0.678726C22.8045 0.678726 0.680381 22.8045 0.680381 50C0.680381 77.1955 22.8045 99.3196 50 99.3196C77.1955 99.3196 99.3213 77.1955 99.3213 50C99.3213 22.8045 77.1955 0.678726 50 0.678726Z" fill="#662D91"/>
</svg>
