<svg width="24" height="27" viewBox="0 0 24 27" fill="none" xmlns="http://www.w3.org/2000/svg">
<path d="M11.5997 26.0191L11.6 26.018C11.4754 25.9799 11.3493 25.9465 11.2227 25.9129C11.1455 25.8924 11.0681 25.8719 10.9907 25.8502C10.7874 25.7933 10.5863 25.729 10.3969 25.6385M11.5997 26.0191L10.4077 25.616M11.5997 26.0191L11.6071 26.0191L12.3879 26.025L12.3879 26.0257L12.3936 26.0244C12.4489 26.012 12.5049 26.0004 12.5611 25.9887C12.6869 25.9626 12.8137 25.9363 12.9372 25.9002L12.9372 25.9002C14.2706 25.5074 15.1458 24.6465 15.547 23.3116L15.5472 23.311C15.5585 23.2697 15.5707 23.2286 15.5844 23.182C15.5923 23.1554 15.6007 23.1269 15.6099 23.0955M11.5997 26.0191L15.6099 23.0955M10.3969 25.6385L10.4077 25.616M10.3969 25.6385C10.3969 25.6385 10.397 25.6385 10.397 25.6385L10.4077 25.616M10.3969 25.6385C9.38964 25.1587 8.74022 24.3573 8.43847 23.2788L8.43846 23.2788C8.42263 23.2218 8.40596 23.1652 8.38368 23.0896M10.4077 25.616C9.40725 25.1394 8.76245 24.344 8.46255 23.2721C8.44648 23.2142 8.42956 23.1568 8.40692 23.08L8.40238 23.0646M8.38368 23.0896H8.40238V23.0646M8.38368 23.0896C8.38344 23.0888 8.38321 23.088 8.38297 23.0872L8.3784 23.0717L8.40238 23.0646M8.38368 23.0896H8.1152H8.1029H8.0906H8.0783H8.06599H8.05369H8.04139H8.02909H8.01679H8.00449H7.99219H7.97988H7.96758H7.95528H7.94298H7.93068H7.91838H7.90608H7.89378H7.88147H7.86917H7.85687H7.84457H7.83227H7.81997H7.80767H7.79537H7.78306H7.77076H7.75846H7.74616H7.73386H7.72156H7.70926H7.69696H7.68466H7.67235H7.66005H7.64775H7.63545H7.62315H7.61085H7.59855H7.58625H7.57395H7.56165H7.54934H7.53704H7.52474H7.51244H7.50014H7.48784H7.47554H7.46324H7.45094H7.43863H7.42633H7.41403H7.40173H7.38943H7.37713H7.36483H7.35253H7.34023H7.32793H7.31563H7.30332H7.29102H7.27872H7.26642H7.25412H7.24182H7.22952H7.21722H7.20492H7.19262H7.18032H7.16802H7.15571H7.14341H7.13111H7.11881H7.10651H7.09421H7.08191H7.06961H7.05731H7.04501H7.03271H7.02041H7.00811H6.9958H6.9835H6.9712H6.9589H6.9466H6.9343H6.922H6.9097H6.8974H6.8851H6.8728H6.8605H6.8482H6.8359H6.8236H6.8113H6.79899H6.78669H6.77439H6.76209H6.74979H6.73749H6.72519H6.71289H6.70059H6.68829H6.67599H6.66369H6.65139H6.63909H6.62679H6.61449H6.60219H6.58989H6.57758H6.56528H6.55298H6.54068H6.52838H6.51608H6.50378H6.49148H6.47918H6.46688H6.45458H6.44228H6.42998H6.41768H6.40538H6.39308H6.38078H6.36848H6.35618H6.34388H6.33158H6.31928H6.30698H6.29468H6.28238H6.27008H6.25778H6.24548H6.23318H6.22087H6.20857H6.19627H6.18397H6.17167H6.15937H6.14707H6.13477H6.12247H6.11017H6.09787H6.08557H6.07327H6.06097H6.04867H6.03637H6.02407H6.01177H5.99947H5.98717H5.97487H5.96257H5.95027H5.93797H5.92567H5.91337H5.90107H5.88877H5.87647H5.86417H5.85187H5.83957H5.82727H5.81497H5.80267H5.79037H5.77807H5.76577H5.75347H5.74117H5.72887H5.71657H5.70427H5.69197H5.67967H5.66737H5.65507H5.64277H5.63047H5.61817H5.60587H5.59357H5.58127H5.56897H5.55667H5.54437H5.53207H5.51977H5.50747H5.49517H5.48287H5.47057H5.45827H5.44597H5.43367H5.42137H5.40908H5.39678H5.38448H5.37218H5.35988H5.34758H5.33528H5.32298H5.31068H5.29838H5.28608H5.27378H5.26148H5.24918H5.23688H5.22458H5.21228H5.19998H5.18768H5.17538H5.16308H5.15078H5.13848H5.12618H5.11388H5.10158H5.08928H5.07698H5.06469H5.05239H5.04009H5.02779H5.01549H5.00319H4.99089H4.97859H4.96629H4.95399H4.94169H4.92939H4.91709H4.90479H4.89249H4.88019H4.86789H4.85559H4.84329H4.831H4.8187H4.8064H4.7941H4.7818H4.7695H4.7572H4.7449H4.7326H4.7203H4.708H4.6957H4.6834H4.6711H4.6588H4.64651H4.63421H4.62191H4.60961H4.59731H4.58501H4.57271H4.56041H4.54811H4.53581H4.52351H4.51121H4.49891H4.48661H4.47432H4.46202H4.44972H4.43742H4.42512H4.41282H4.40052H4.38822H4.37592H4.36362H4.35132H4.33903H4.32673H4.31443H4.30213H4.28983H4.27753H4.26523H4.25293H4.24063H4.22833H4.21603H4.20374H4.19144H4.17914H4.16684H4.15454H4.14224H4.12994H4.11764H4.10534H4.09304H4.08075H4.06845H4.05615H4.04385H4.03155H4.01925H4.00695H3.99465H3.98235H3.97006H3.95776H3.94546H3.93316H3.92086H3.90856H3.89626H3.88396H3.87167H3.85937H3.84707H3.83477H3.82247H3.81017H3.79787H3.78557H3.77327H3.76098H3.74868H3.73638H3.72408H3.71178H3.69948H3.68718H3.67488H3.66259H3.65029H3.63799H3.62569H3.61339H3.60109H3.58879H3.5765H3.5642H3.5519H3.5396H3.5273H3.515H3.5027H3.49041H3.47811H3.46581H3.45351H3.44121H3.42891H3.41661H3.40432H3.39202H3.37972H3.36742H3.35512H3.34282H3.33052H3.31823H3.30593H3.29363H3.28133H3.26903H3.25673H3.24444H3.23214H3.21984H3.20754H3.19524H3.18294H3.17064H3.15835H3.14605H3.13375H3.12145H3.10915H3.09685H3.08456H3.07226H3.05996H3.04766H3.03536H3.02306H3.01077H2.99847H2.98617H2.97387H2.96157H2.94928H2.93698H2.92468H2.91238H2.90008H2.88778H2.87549H2.86319H2.85089H2.83859H2.82629H2.81399H2.8017H2.7894H2.7771H2.7648H2.7525H2.74021H2.72791H2.71561H2.70331H2.69101H2.67872H2.66642H2.65412H2.64182H2.62952H2.61723H2.60493H2.59263H2.58033H2.56803H2.55573H2.54344H2.53114H2.51884H2.50654H2.49424H2.48195H2.46965H2.45735H2.44505H2.43276H2.42046H2.40816H2.39586H2.38356H2.37127H2.35897H2.34667H2.33437H2.32207H2.30978H2.29748H2.28518H2.27288H2.26058H2.24829H2.23599H2.22369H2.21139H2.1991H2.1868H2.1745H2.1622H2.1499H2.13761H2.12531H2.11301H2.10071H2.08842H2.07612H2.06382H2.05152H2.03923H2.02693H2.01463H2.00233H1.99003H1.97774H1.96544H1.95314H1.94084H1.92855H1.91625H1.90395H1.89165H1.87936H1.86706H1.85476H1.84246H1.83017H1.81787C1.4991 23.0896 1.24269 22.9432 1.10267 22.7293C0.962519 22.5151 0.940237 22.2348 1.08664 21.9713L1.08701 21.9706L1.08702 21.9706C1.13796 21.8852 1.1989 21.8062 1.26854 21.7352M8.40238 23.0646H8.1152H1.81787C1.19606 23.0646 0.824738 22.4942 1.10849 21.9834C1.15846 21.8997 1.21824 21.8222 1.28657 21.7525M1.26854 21.7352C1.26846 21.7353 1.26838 21.7354 1.2683 21.7355L1.28657 21.7525M1.26854 21.7352C1.2686 21.7351 1.26866 21.7351 1.26873 21.735L1.28657 21.7525M1.26854 21.7352C2.77318 20.124 3.76828 18.2444 4.17387 16.0778L4.17389 16.0777C4.32028 15.3087 4.3628 14.5158 4.39901 13.733M1.28657 21.7525C2.79437 20.1381 3.7919 18.2541 4.19845 16.0824C4.34522 15.3114 4.38778 14.5169 4.42398 13.7341M4.39901 13.733C4.39901 13.733 4.39901 13.733 4.39901 13.733L4.42398 13.7341M4.39901 13.733L4.42398 13.7341M4.39901 13.733C4.41769 13.3227 4.41489 12.9111 4.41208 12.499C4.41147 12.4102 4.41087 12.3213 4.41048 12.2325C4.40828 11.7316 4.41291 11.2304 4.4632 10.7321C4.72039 8.1799 6.0084 6.25189 8.19674 4.93643L8.19675 4.93642C8.53067 4.73607 8.8921 4.57638 9.26332 4.41235C9.43276 4.33749 9.60424 4.26172 9.77607 4.18078M4.42398 13.7341C4.4427 13.3231 4.43989 12.9108 4.43708 12.4986C4.43306 11.9089 4.42904 11.3195 4.48807 10.7347C4.74443 8.19068 6.02767 6.26948 8.20962 4.95786C8.54219 4.75832 8.90122 4.59969 9.27164 4.43603C9.44612 4.35895 9.62312 4.28074 9.80107 4.19662M9.77607 4.18078V4.18177V4.18342V4.18508V4.18673V4.18838V4.19003V4.19168V4.19333V4.19498V4.19662H9.80107M9.77607 4.18078C9.78084 4.17853 9.78562 4.17628 9.79039 4.17402L9.80107 4.19662M9.77607 4.18078V4.18011V4.17845V4.17679V4.17513V4.17347V4.17181V4.17015V4.16848V4.16681V4.16515V4.16348V4.16181V4.16014V4.15847V4.1568V4.15512V4.15345V4.15177V4.15009V4.14842V4.14674V4.14506V4.14337V4.14169V4.14001V4.13832V4.13664V4.13495V4.13326V4.13157V4.12988V4.12819V4.1265V4.1248V4.12311V4.12141V4.11972V4.11802V4.11632V4.11462V4.11292V4.11121V4.10951V4.10781V4.1061V4.10439V4.10269V4.10098V4.09927V4.09756V4.09584V4.09413V4.09242V4.0907V4.08899V4.08727V4.08555V4.08383V4.08211V4.08039V4.07867V4.07695V4.07522V4.0735V4.07177V4.07004V4.06831V4.06658V4.06485V4.06312V4.06139V4.05966V4.05792V4.05619V4.05445V4.05271V4.05097V4.04923V4.04749V4.04575V4.04401V4.04227V4.04052V4.03878V4.03703V4.03528V4.03354V4.03179V4.03004V4.02829V4.02653V4.02478V4.02303V4.02127V4.01952V4.01776V4.016V4.01424V4.01248V4.01072V4.00896V4.0072V4.00544V4.00367V4.00191V4.00014V3.99837V3.99661V3.99484V3.99307V3.9913V3.98952V3.98775V3.98598V3.9842V3.98243V3.98065V3.97888V3.9771V3.97532V3.97354V3.97176V3.96998V3.9682V3.96641V3.96463V3.96284V3.96106V3.95927V3.95748V3.95569V3.95391V3.95212V3.95032V3.94853V3.94674V3.94495V3.94315V3.94136V3.93956V3.93776V3.93597V3.93417V3.93237V3.93057V3.92877V3.92696V3.92516V3.92336V3.92155V3.91975V3.91794V3.91614V3.91433V3.91252V3.91071V3.9089V3.90709V3.90528V3.90347V3.90165V3.89984V3.89802V3.89621V3.89439V3.89257V3.89076V3.88894V3.88712V3.8853V3.88348V3.88165V3.87983V3.87801V3.87618V3.87436V3.87253V3.87071V3.86888V3.86705V3.86522V3.86339V3.86156V3.85973V3.8579V3.85607V3.85424V3.8524V3.85057V3.84873V3.8469V3.84506V3.84322V3.84138V3.83954V3.8377V3.83586V3.83402V3.83218V3.83034V3.8285V3.82665V3.82481V3.82296V3.82112V3.81927V3.81742V3.81557V3.81373V3.81188V3.81003V3.80818V3.80632V3.80447V3.80262V3.80077V3.79891V3.79706V3.7952V3.79334V3.79149V3.78963V3.78777V3.78591V3.78405V3.78219V3.78033V3.77847V3.77661V3.77475V3.77289V3.77102V3.76916V3.76729V3.76543V3.76356V3.76169V3.75983V3.75796V3.75609V3.75422V3.75235V3.75048V3.74861V3.74674V3.74486V3.74299V3.74112V3.73924V3.73737V3.73549V3.73362V3.73174V3.72986V3.72799V3.72611V3.72423V3.72235V3.72047V3.71859V3.71671V3.71483V3.71294V3.71106V3.70918V3.70729V3.70541V3.70352V3.70164V3.69975V3.69787V3.69598V3.69409V3.6922V3.69031V3.68843V3.68654V3.68465V3.68275V3.68086V3.67897V3.67708V3.67519V3.67329V3.6714V3.6695V3.66761V3.66571V3.66382V3.66192V3.66002V3.65813V3.65623V3.65433V3.65243V3.65053V3.64863V3.64673V3.64483V3.64293V3.64103V3.63913V3.63722V3.63532V3.63342V3.63151V3.62961V3.6277V3.6258V3.62389V3.62199V3.62008V3.61817V3.61627V3.61436V3.61245V3.61054V3.60863V3.60672V3.60481V3.6029V3.60099V3.59908V3.59717V3.59525V3.59334V3.59143V3.58951V3.5876V3.58569V3.58377V3.58186V3.57994V3.57802V3.57611V3.57419V3.57227V3.57036V3.56844V3.56652V3.5646V3.56268V3.56076V3.55884V3.55692V3.555V3.55308V3.55116V3.54924V3.54732V3.54539V3.54347V3.54155V3.53963V3.5377V3.53578V3.53385V3.53193V3.53V3.52808V3.52615V3.52423V3.5223V3.52037V3.51845V3.51652V3.51459V3.51266V3.51074V3.50881V3.50688V3.50495V3.50302V3.50109V3.49916V3.49723V3.4953V3.49337V3.49144V3.4895V3.48757V3.48564V3.48371V3.48178V3.47984V3.47791V3.47598V3.47404V3.47211V3.47017V3.46824V3.4663V3.46437V3.46243V3.4605V3.45856V3.45663V3.45469V3.45275V3.45082V3.44888V3.44694V3.445V3.44307V3.44113V3.43919V3.43725V3.43531V3.43337V3.43144V3.4295V3.42756V3.42562V3.42368V3.42174V3.4198V3.41786V3.41591V3.41397V3.41203V3.41009V3.40815V3.40621V3.40427V3.40232V3.40038V3.39844V3.3965V3.39455V3.39261V3.39067V3.38872V3.38678V3.38484V3.38289V3.38095V3.37901V3.37706V3.37512V3.37317V3.37123V3.36928V3.36734V3.36539V3.36345V3.3615V3.35956V3.35761V3.35566V3.35372V3.35177V3.34983V3.34788V3.34593V3.34399V3.34204V3.34009V3.33815V3.3362V3.33425V3.33231V3.33036V3.32841V3.32646V3.32452V3.32257V3.32062V3.31867V3.31672V3.31478V3.31283V3.31088V3.30893V3.30698V3.30504V3.30309V3.30114V3.29919V3.29724V3.29529V3.29334V3.2914V3.28945V3.2875V3.28555V3.2836V3.28165V3.2797V3.27775V3.2758V3.27386V3.27191V3.26996V3.26801V3.26606V3.26411V3.26216V3.26021V3.25826V3.25631V3.25436V3.25241V3.25047V3.25031C9.78398 1.96528 10.7573 0.969577 12.0056 0.975022L12.0055 1.00002L12.0056 0.975022C13.2431 0.978982 14.209 1.96918 14.2188 3.24342L14.2188 3.24361L14.2188 3.24556V3.24751V3.24946V3.25141V3.25336V3.25531V3.25725V3.2592V3.26115V3.2631V3.26505V3.267V3.26895V3.2709V3.27285V3.2748V3.27675V3.2787V3.28065V3.2826V3.28455V3.2865V3.28845V3.2904V3.29235V3.29429V3.29624V3.29819V3.30014V3.30209V3.30404V3.30599V3.30794V3.30989V3.31184V3.31379V3.31574V3.31769V3.31964V3.32159V3.32354V3.32549V3.32744V3.32939V3.33134V3.33329V3.33524V3.33719V3.33914V3.34109V3.34304V3.34499V3.34694V3.34889V3.35084V3.3528V3.35475V3.3567V3.35865V3.3606V3.36255V3.3645V3.36645V3.3684V3.37035V3.3723V3.37425V3.3762V3.37815V3.3801V3.38205V3.38401V3.38596V3.38791V3.38986V3.39181V3.39376V3.39571V3.39766V3.39961V3.40157V3.40352V3.40547V3.40742V3.40937V3.41132V3.41327V3.41523V3.41718V3.41913V3.42108V3.42303V3.42498V3.42694V3.42889V3.43084V3.43279V3.43474V3.43669V3.43865V3.4406V3.44255V3.4445V3.44646V3.44841V3.45036V3.45231V3.45426V3.45622V3.45817V3.46012V3.46207V3.46403V3.46598V3.46793V3.46988V3.47184V3.47379V3.47574V3.4777V3.47965V3.4816V3.48356V3.48551V3.48746V3.48942V3.49137V3.49332V3.49528V3.49723V3.49918V3.50114V3.50309V3.50504V3.507V3.50895V3.5109V3.51286V3.51481V3.51677V3.51872V3.52067V3.52263V3.52458V3.52654V3.52849V3.53045V3.5324V3.53436V3.53631V3.53826V3.54022V3.54217V3.54413V3.54608V3.54804V3.54999V3.55195V3.5539V3.55586V3.55781V3.55977V3.56173V3.56368V3.56564V3.56759V3.56955V3.5715V3.57346V3.57542V3.57737V3.57933V3.58128V3.58324V3.5852V3.58715V3.58911V3.59106V3.59302V3.59498V3.59693V3.59889V3.60085V3.6028V3.60476V3.60672V3.60868V3.61063V3.61259V3.61455V3.6165V3.61846V3.62042V3.62238V3.62434V3.62629V3.62825V3.63021V3.63217V3.63412V3.63608V3.63804V3.64V3.64196V3.64392V3.64587V3.64783V3.64979V3.65175V3.65371V3.65567V3.65763V3.65959V3.66155V3.6635V3.66546V3.66742V3.66938V3.67134V3.6733V3.67526V3.67722V3.67918V3.68114V3.6831V3.68506V3.68702V3.68898V3.69094V3.6929V3.69486V3.69682V3.69878V3.70075V3.70271V3.70467V3.70663V3.70859V3.71055V3.71251V3.71447V3.71644V3.7184V3.72036V3.72232V3.72428V3.72624V3.72821V3.73017V3.73213V3.73409V3.73606V3.73802V3.73998V3.74194V3.74391V3.74587V3.74783V3.7498V3.75176V3.75372V3.75569V3.75765V3.75961V3.76158V3.76354V3.7655V3.76747V3.76943V3.7714V3.77336V3.77533V3.77729V3.77925V3.78122V3.78318V3.78515V3.78711V3.78908V3.79104V3.79301V3.79498V3.79694V3.79891V3.80087V3.80284V3.8048V3.80677V3.80874V3.8107V3.81267V3.81464V3.8166V3.81857V3.82053V3.8225V3.82447V3.82644V3.8284V3.83037V3.83234V3.83431V3.83627V3.83824V3.84021V3.84218V3.84415V3.84611V3.84808V3.85005V3.85202V3.85399V3.85596V3.85793V3.85989V3.86186V3.86383V3.8658V3.86777V3.86974V3.87171V3.87368V3.87565V3.87762V3.87959V3.88156V3.88353V3.8855V3.88747V3.88944V3.89141V3.89339V3.89536V3.89733V3.8993V3.90127V3.90324V3.90521V3.90719V3.90916V3.91113V3.9131V3.91507V3.91705V3.91902V3.92099V3.92297V3.92494V3.92691V3.92888V3.93086V3.93283V3.9348V3.93678V3.93875V3.94073V3.9427V3.94467V3.94665V3.94862V3.9506V3.95257V3.95455V3.95652V3.9585V3.96047V3.96245V3.96442V3.9664V3.96838V3.97035V3.97233V3.9743V3.97628V3.97826V3.98023V3.98221V3.98419V3.98616V3.98814V3.99012V3.9921V3.99407V3.99605V3.99803V4.00001V4.00198V4.00396V4.00594V4.00792V4.0099V4.01188V4.01386V4.01584V4.01781V4.01979V4.02177V4.02375V4.02573V4.02771V4.02969V4.03167V4.03365V4.03563V4.03761V4.0396V4.04158V4.04356V4.04554V4.04752V4.0495V4.05148V4.05346V4.05545V4.05743V4.05941V4.06139V4.06338V4.06536V4.06734V4.06932V4.07131V4.07329V4.07527V4.07726V4.07924V4.08123V4.08321V4.08519V4.08718V4.08916V4.09115V4.09313V4.09512V4.0971V4.09909V4.10107V4.10306V4.10504V4.10703V4.10902V4.111V4.11299V4.11497V4.11696V4.11895V4.12094V4.12292V4.12491V4.1269V4.12888V4.13087V4.13286V4.13485V4.13684V4.13883V4.14081V4.1428V4.14479V4.14678V4.14877V4.15076V4.15275V4.15474V4.15673V4.15872V4.16071V4.1627V4.16469V4.16668V4.16867V4.17066V4.17265V4.17464V4.17664V4.17863V4.18062V4.18261V4.1846V4.1866V4.18859V4.19058V4.19257V4.19457V4.19656V4.19855V4.20055V4.20254V4.20453V4.20653V4.20852V4.21052V4.21251V4.21451V4.2165V4.2185V4.22049V4.22249V4.22448V4.22648V4.22847V4.23047V4.2322M9.80107 4.19662V3.25047L14.1938 3.24361V4.25044M14.2188 4.2322C14.213 4.23034 14.2072 4.22848 14.2014 4.22663L14.1938 4.25044M14.2188 4.2322V4.23247V4.23446V4.23646V4.23846V4.24045V4.24245V4.24445V4.24645V4.24844V4.25044H14.1938M14.2188 4.2322C15.0676 4.50502 15.8516 4.88586 16.5487 5.42784L16.5333 5.44758M14.1938 4.25044C15.0471 4.52294 15.8342 4.90405 16.5333 5.44758M16.5333 5.44758L16.5487 5.42785C18.4967 6.94311 19.5204 8.93731 19.5837 11.4082C19.595 11.8487 19.592 12.2896 19.589 12.7299L19.5888 12.7518C19.5858 13.1996 19.583 13.6468 19.5954 14.0935C19.6755 16.9577 20.6729 19.4564 22.588 21.5905C22.6914 21.7057 22.7835 21.832 22.8748 21.9572C22.9164 22.0144 22.9579 22.0713 23.0002 22.1268L23.0054 22.1335V22.142V22.5333V22.5449L23.003 22.5438C22.9062 22.7535 22.775 22.8947 22.6095 22.9826C22.4446 23.0703 22.2477 23.1038 22.0213 23.1024C20.515 23.0908 19.0088 23.0926 17.5023 23.0943C16.9602 23.0949 16.418 23.0955 15.8758 23.0955H15.6099M16.5333 5.44758C18.4756 6.95831 19.4956 8.94555 19.5587 11.4088C19.57 11.8489 19.567 12.2894 19.564 12.7298C19.5609 13.1848 19.5578 13.6398 19.5704 14.0942C19.6507 16.9643 20.6503 19.4687 22.5694 21.6072C22.6719 21.7215 22.7627 21.846 22.8536 21.9707C22.8955 22.0281 22.9373 22.0855 22.9804 22.142L15.6099 23.0955M15.6099 23.0955C15.6116 23.0896 15.6133 23.0836 15.6151 23.0774L15.5911 23.0705V23.0955H15.6099ZM20.6029 21.5588H3.41792C3.50599 21.4163 3.59504 21.2753 3.68381 21.1347C3.90571 20.7832 4.12581 20.4346 4.32405 20.0743C5.36326 18.1915 5.88186 16.1665 5.91617 14.0187C5.92561 13.4317 5.92381 12.8443 5.92201 12.2572C5.9213 12.0225 5.92058 11.7878 5.92058 11.5532C5.9274 8.60019 7.89668 6.16178 10.778 5.53806C14.0765 4.82486 17.4471 7.11732 17.9743 10.438C18.0337 10.8387 18.0663 11.2429 18.0719 11.6479L18.0719 11.6481C18.08 12.032 18.0803 12.417 18.0805 12.8022C18.0809 13.4592 18.0814 14.1169 18.1209 14.7713C18.2665 17.1783 19.0705 19.3637 20.4516 21.3373M20.6029 21.5588L20.4515 21.3372C20.4516 21.3373 20.4516 21.3373 20.4516 21.3373M20.6029 21.5588C20.5892 21.5386 20.5761 21.5194 20.5635 21.5009C20.5231 21.4414 20.4876 21.3892 20.4516 21.3373M20.6029 21.5588L20.4516 21.3373M12.6992 3.91429C12.6995 3.8339 12.7012 3.75432 12.7028 3.67536C12.7066 3.48502 12.7104 3.29828 12.6954 3.11256M12.6992 3.91429L12.6954 3.11256M12.6992 3.91429H11.2961M12.6992 3.91429H11.2961M12.6954 3.11256C12.6662 2.75518 12.3467 2.48299 11.9925 2.48536L11.9923 2.48536C11.6475 2.48536 11.3311 2.75054 11.3 3.09857L11.3 3.09863C11.2827 3.28772 11.2873 3.47857 11.2919 3.67118C11.2938 3.75191 11.2958 3.83295 11.2961 3.91429M12.6954 3.11256L11.2961 3.91429M12.0612 24.5029C11.1301 24.5244 10.245 23.9288 9.98733 23.1019H14.0016C13.9001 23.475 13.6395 23.8161 13.2956 24.0686C12.9422 24.3281 12.5025 24.4928 12.0612 24.5029Z" fill="#662D91" stroke="#662D91" stroke-width="0.05"/>
<path d="M22.9953 11.6943L22.9907 11.7008C22.9689 11.7315 22.9487 11.7633 22.9302 11.7961C22.9301 11.7962 22.93 11.7963 22.93 11.7965L22.9082 11.7842C22.737 12.1149 22.4092 12.2842 22.0868 12.2078L22.9953 11.6943ZM22.9953 11.6943L22.9953 11.6864L22.9973 10.8077L22.9981 10.8077L22.9965 10.8014C22.9787 10.7333 22.965 10.6643 22.9556 10.5947C22.83 8.93204 22.3212 7.32106 21.4689 5.88798C21.0038 5.10174 20.4418 4.377 19.7961 3.73077C19.6805 3.607 19.5271 3.52518 19.3599 3.49819C19.1926 3.47117 19.0211 3.50061 18.8723 3.58187L18.8723 3.58189C18.5755 3.74441 18.4098 4.08381 18.514 4.41991L18.514 4.41992L18.5144 4.42084C18.5747 4.59143 18.6726 4.74623 18.801 4.8738C19.7921 5.89589 20.5415 7.12717 20.9941 8.47706C21.3122 9.44062 21.4768 10.4482 21.482 11.4629L21.482 11.463C21.4866 11.8567 21.7187 12.1468 22.081 12.2322L22.9953 11.6943ZM18.5379 4.41251C18.4376 4.08913 18.5966 3.76134 18.8843 3.60381L18.8187 4.85623C18.693 4.73128 18.597 4.57962 18.5379 4.41251Z" fill="#662D91" stroke="#662D91" stroke-width="0.05"/>
<path d="M2.0412 12.1823C2.1933 12.114 2.3082 12.0174 2.38492 11.8954C2.46159 11.7734 2.49918 11.6274 2.4992 11.4619C2.50221 10.4797 2.65659 9.5037 2.95688 8.56843C3.41577 7.15138 4.20134 5.86205 5.25021 4.80446L5.25037 4.80429C5.57553 4.47009 5.57878 3.99677 5.27287 3.69949C4.96702 3.40226 4.48938 3.42053 4.16956 3.74889C2.14765 5.82375 1.09773 8.31441 0.985942 11.1395L0.985923 11.1395V11.1405C0.985923 11.1985 0.982696 11.2494 0.979739 11.2959C0.978343 11.3179 0.977007 11.339 0.976099 11.3594C0.973329 11.4216 0.974581 11.4779 0.993921 11.5285L1.01728 11.5196L0.993848 11.5283C0.998818 11.5417 1.0038 11.5552 1.00883 11.5688C1.07231 11.7406 1.14215 11.9296 1.26679 12.0603L1.26682 12.0603C1.47614 12.2794 1.76548 12.3066 2.0412 12.1823ZM2.0412 12.1823L2.03096 12.1595L2.04123 12.1823C2.04122 12.1823 2.04121 12.1823 2.0412 12.1823Z" fill="#662D91" stroke="#662D91" stroke-width="0.05"/>
</svg>
