<svg width="50" height="38" viewBox="0 0 50 38" fill="none" xmlns="http://www.w3.org/2000/svg">
<path d="M44.1011 28.2535V29.5996H41.6809V32.0092H40.2522V29.5996H36.6016V28.2535H40.2522V24.5203H41.6809V28.2535H44.1011Z" fill="#662D91" fill-opacity="0.4"/>
<path d="M44.1028 0.0996094V20.1569C43.6066 19.9844 43.0963 19.8538 42.5775 19.7666C42.1574 19.6947 41.7326 19.6521 41.3064 19.639C41.1945 19.639 41.0827 19.639 40.9683 19.639C39.3946 19.6375 37.8457 20.0246 36.4634 20.765C34.9649 21.5641 33.7133 22.7465 32.8408 24.1875C31.9683 25.6285 31.5072 27.2745 31.5061 28.952C31.5061 29.0571 31.5061 29.1622 31.5061 29.2648C31.5061 29.3674 31.5061 29.4324 31.5188 29.515C31.5382 29.8506 31.5773 30.1847 31.6358 30.5159C31.7242 31.026 31.8551 31.5282 32.0273 32.0172H0.546875V0.0996094H44.1028Z" fill="#662D91" fill-opacity="0.4"/>
<path d="M41.3029 2.85376V19.6382C41.191 19.6382 41.0792 19.6382 40.9648 19.6382C39.3911 19.6368 37.8422 20.0239 36.46 20.7642C34.9614 21.5633 33.7099 22.7458 32.8373 24.1867C31.9648 25.6277 31.5037 27.2738 31.5026 28.9513C31.5026 29.0564 31.5026 29.1615 31.5026 29.2641H3.33984V2.85376H41.3029Z" fill="white"/>
<path d="M42.5758 28.2535V29.5996H41.6809V30.5079H40.2522V29.5996H36.6016V28.2535H40.2522V24.5203H41.6809V28.2535H42.5758Z" fill="white"/>
<path d="M41.3029 2.85376V19.6382C41.191 19.6382 41.0792 19.6382 40.9648 19.6382C39.3911 19.6368 37.8422 20.0239 36.46 20.7642L29.146 7.55282L21.7278 19.4331L16.3433 12.0142L3.53559 29.2641H3.33984V2.85376H41.3029Z" fill="#662D91" fill-opacity="0.4"/>
<path d="M41.3047 24.5203V29.2569H36.6016V28.2535H40.2522V24.5203H41.3047Z" fill="#662D91" fill-opacity="0.4"/>
<path d="M42.5756 1.60352V19.7667C42.1555 19.6948 41.7307 19.6522 41.3045 19.6391V2.8546H3.34143V29.2574H31.5093C31.5093 29.3425 31.5093 29.425 31.522 29.5076C31.5414 29.8432 31.5805 30.1773 31.6389 30.5085H2.07031V1.60352H42.5756Z" fill="white"/>
<path d="M41.3047 29.5071H36.6016V28.2535H40.2522V27.6055L41.1674 29.2569L41.3047 29.5071Z" fill="white"/>
<path d="M45.329 28.2535V29.5996H41.6809V33.3679H40.2522V29.5996H36.6016V28.2535H40.2522V24.5203H41.6809V28.2535H45.329Z" fill="#662D91" fill-opacity="0.4"/>
<path d="M44.103 21.4954C43.6114 21.2934 43.1004 21.1409 42.5776 21.04C42.1587 20.9567 41.7336 20.9065 41.3065 20.8899C41.1947 20.8899 41.0828 20.8899 40.9684 20.8899C39.6066 20.8885 38.266 21.2222 37.0686 21.8607C35.7702 22.552 34.6858 23.5761 33.9304 24.8244C33.1749 26.0727 32.7765 27.4989 32.7773 28.9519C32.7773 29.057 32.7773 29.1595 32.7773 29.2646C32.7773 29.3697 32.7773 29.4323 32.7901 29.5149C32.8133 29.8508 32.8574 30.1851 32.9223 30.5157C33.025 31.0298 33.1791 31.5327 33.3824 32.017C33.999 33.4968 35.0488 34.7627 36.3982 35.6537C37.7476 36.5448 39.3358 37.0209 40.9608 37.0213C43.1327 37.0207 45.2155 36.171 46.7511 34.6592C48.2866 33.1473 49.1493 31.0971 49.1493 28.9594C49.1529 27.3634 48.6754 25.8023 47.7771 24.4736C46.8788 23.1449 45.6001 22.1084 44.103 21.4954ZM45.3309 29.5999H41.6828V33.3682H40.254V29.5999H36.6034V28.2538H40.254V24.5205H41.6828V28.2538H45.3309V29.5999Z" fill="#662D91" fill-opacity="0.4"/>
<path d="M45.329 28.2535V29.5996H41.6809V33.3679H40.2522V29.5996H36.6016V28.2535H40.2522V24.5203H41.6809V28.2535H45.329Z" fill="white"/>
<path d="M13.6131 9.23721C13.6131 10.0335 13.2917 10.7973 12.7195 11.3604C12.1474 11.9235 11.3715 12.2398 10.5624 12.2398C9.7533 12.2398 8.97735 11.9235 8.40524 11.3604C7.83313 10.7973 7.51172 10.0335 7.51172 9.23721C7.51172 8.44087 7.83313 7.67715 8.40524 7.11406C8.97735 6.55096 9.7533 6.23462 10.5624 6.23462C11.3715 6.23462 12.1474 6.55096 12.7195 7.11406C13.2917 7.67715 13.6131 8.44087 13.6131 9.23721Z" fill="white"/>
</svg>
