<svg width="68" height="68" viewBox="0 0 68 68" fill="none" xmlns="http://www.w3.org/2000/svg">
<path d="M67 33.9997C67.0119 41.0487 64.75 47.9135 60.55 53.5746C59.3325 55.2801 57.9233 56.8403 56.35 58.2245C50.2743 63.865 42.2905 66.9996 34.0002 66.9996C25.7099 66.9996 17.7261 63.865 11.6504 58.2245C10.0707 56.7693 8.63879 55.1615 7.37542 53.4246C3.20002 47.8124 0.962566 40.9947 1.00047 33.9997C1.00047 25.2477 4.47722 16.8541 10.6659 10.6654C16.8545 4.47675 25.2481 1 34.0002 1C42.7523 1 51.1459 4.47675 57.3346 10.6654C63.5232 16.8541 67 25.2477 67 33.9997V33.9997Z" stroke="#B3B3B3" stroke-width="0.5" stroke-miterlimit="10"/>
<path d="M60.5564 53.574C59.3389 55.2795 57.9297 56.8397 56.3565 58.2239C50.2807 63.8644 42.2969 66.999 34.0066 66.999C25.7163 66.999 17.7326 63.8644 11.6568 58.2239C10.0771 56.7687 8.6452 55.1609 7.38184 53.424C7.53183 51.624 8.73183 50.424 10.0818 49.449C13.3068 47.124 16.9068 45.849 20.7317 44.874C21.6001 44.6658 22.3691 44.1621 22.9067 43.449C23.8277 42.1526 25.0012 41.0557 26.3567 40.2241C26.5229 40.1509 26.6752 40.0494 26.8067 39.9241V43.074C26.7681 43.5432 26.8776 44.0126 27.1197 44.4162C27.3619 44.8198 27.7246 45.1373 28.1567 45.324C29.0567 45.849 29.9567 46.449 30.7817 46.974C31.521 47.397 32.1463 47.9936 32.6037 48.7123C33.061 49.4309 33.3366 50.2501 33.4066 51.099C33.4066 51.324 33.2566 51.774 33.7066 51.699C33.9316 51.699 33.8566 51.324 33.8566 51.099C33.9771 50.2891 34.2853 49.5185 34.7566 48.849C35.7316 47.274 37.3816 46.524 38.8066 45.474C39.528 45.1273 40.1098 44.5454 40.4566 43.824V39.9241C42.0549 40.8116 43.4378 42.0408 44.5065 43.524C45.0053 44.1606 45.6851 44.6312 46.4565 44.874C50.3565 45.999 54.2565 47.274 57.6314 49.674C59.0564 50.724 60.2564 51.849 60.5564 53.574Z" fill="#B3B3B3"/>
<path d="M33.7043 51.776C33.2543 51.776 33.4793 51.401 33.4043 51.176C33.43 51.2116 33.4638 51.2407 33.5029 51.2607C33.5421 51.2807 33.5854 51.2911 33.6293 51.2911C33.6732 51.2911 33.7165 51.2807 33.7557 51.2607C33.7948 51.2407 33.8286 51.2116 33.8543 51.176C33.8543 51.401 33.9293 51.776 33.7043 51.776Z" fill="#B2B2B2"/>
<path d="M44.5784 30.4025C44.5034 30.6275 44.4284 30.9275 44.2034 31.0025C42.5535 31.7525 42.6285 33.4025 42.1035 34.7525C41.6739 35.8377 41.1203 36.8695 40.4535 37.8274C38.8035 39.7024 36.8535 41.0524 34.1535 41.2024C31.4535 41.3524 29.3536 40.3024 27.4036 38.7274C28.1865 40.0213 29.22 41.1456 30.4436 42.0342C31.6672 42.9229 33.056 43.5581 34.5285 43.9024C36.3119 44.2271 38.1368 44.2525 39.9285 43.9774C40.0823 43.9892 40.2368 43.9635 40.3785 43.9024C40.0318 44.6238 39.4499 45.2057 38.7285 45.5524C37.3035 46.5274 35.6535 47.3524 34.6785 48.9274C34.2265 49.6072 33.9201 50.3733 33.7785 51.1773C33.7528 51.213 33.719 51.242 33.6799 51.262C33.6408 51.282 33.5975 51.2924 33.5535 51.2924C33.5096 51.2924 33.4663 51.282 33.4272 51.262C33.3881 51.242 33.3542 51.213 33.3285 51.1773C33.2265 50.3375 32.9377 49.5311 32.4835 48.8174C32.0293 48.1036 31.4211 47.5005 30.7036 47.0524C29.8036 46.4524 28.9786 45.9274 28.0786 45.4024C27.6692 45.1868 27.3268 44.8631 27.0887 44.4663C26.8507 44.0696 26.7261 43.6151 26.7286 43.1524V40.0024C26.8811 38.6617 26.5629 37.3096 25.8286 36.1775C25.0855 35.1088 24.6215 33.8713 24.4786 32.5775C24.4036 32.2025 24.3286 31.8275 23.8786 31.7525C22.9036 31.6025 22.6786 30.7775 22.3786 30.0275C21.8965 28.9412 21.6475 27.766 21.6475 26.5775C21.6475 25.3891 21.8965 24.2138 22.3786 23.1276C22.7536 24.7026 23.2036 26.2775 23.5786 27.7775C23.6536 28.0775 23.6536 28.6775 24.0286 28.6775C24.5536 28.6775 24.4786 28.0775 24.6286 27.7025C24.6883 27.3559 24.7134 27.0042 24.7036 26.6525C24.7036 25.0775 24.7786 23.5026 24.9286 21.9276C25.3036 18.2526 27.2536 15.9276 30.4036 15.1776C30.9286 15.0276 31.5285 15.2526 32.0535 14.8776C33.5535 14.8776 35.1285 14.8776 36.6285 14.8026H36.9285C37.6785 14.8026 38.2035 14.2776 38.8035 14.0526C38.8785 14.0526 38.8785 13.9776 38.9535 13.9776C39.0285 13.9776 39.1785 13.8276 39.3285 13.8276H39.4035C39.3923 13.9334 39.4188 14.0396 39.4785 14.1276V15.1026C39.4785 15.3276 39.5535 15.5526 39.5535 15.8526C39.5486 15.8933 39.5528 15.9346 39.5657 15.9735C39.5787 16.0124 39.6001 16.048 39.6285 16.0776C39.7561 17.9469 40.4641 19.7298 41.6535 21.1776C41.9986 21.5178 42.2113 21.9698 42.2535 22.4526V27.5525C42.3285 28.0025 42.3285 28.4525 42.9285 28.7525C43.8285 27.1025 44.0534 25.2275 44.5784 23.4276C45.7784 25.7525 45.4784 28.1525 44.5784 30.4025Z" fill="#DDDDDD"/>
<path d="M40.4436 40.0021V43.9021C40.2898 43.8903 40.1354 43.916 39.9937 43.9771C38.2048 44.2898 36.3732 44.2644 34.5937 43.9021C33.117 43.5683 31.7238 42.9373 30.4988 42.0476C29.2739 41.1579 28.2429 40.0282 27.4688 38.7271C29.4187 40.3771 31.5937 41.4271 34.2187 41.2021C36.8437 40.9771 38.7937 39.7021 40.5186 37.8271C40.4562 38.5504 40.4312 39.2763 40.4436 40.0021Z" fill="#C8C6C7"/>
<path d="M33.7043 51.776C33.2543 51.776 33.4793 51.401 33.4043 51.176H33.8543C33.8543 51.401 33.9293 51.776 33.7043 51.776Z" fill="#BFBEBF"/>
<path d="M45.1716 20.2716C45.0216 21.3216 44.9466 22.3716 44.7966 23.4216C44.1966 25.2216 44.0466 27.0966 43.1467 28.7466C42.5467 28.5216 42.5467 28.0716 42.4717 27.5466V22.4466C42.4295 21.9639 42.2168 21.5119 41.8717 21.1716C40.6823 19.7239 39.9743 17.941 39.8467 16.0717C39.8467 15.9967 39.7717 15.9217 39.7717 15.8467C39.7717 15.6217 39.6967 15.3967 39.6967 15.0967V14.1217C39.6998 14.0167 39.6738 13.9129 39.6217 13.8217H39.5467C39.4076 13.8242 39.2742 13.8776 39.1717 13.9717C39.0967 13.9717 39.0967 14.0467 39.0217 14.0467C38.4683 14.4479 37.8241 14.7056 37.1467 14.7967H36.8467C35.3467 14.7967 33.7717 14.7967 32.2717 14.8717C31.7467 15.2467 31.1467 15.0217 30.6218 15.1717C27.4718 15.9217 25.5218 18.2467 25.1468 21.9216C24.9968 23.4966 24.9218 25.0716 24.9218 26.6466C24.937 26.9983 24.9118 27.3506 24.8468 27.6966C24.7718 28.0716 24.7718 28.6716 24.2468 28.6716C23.7218 28.6716 23.8718 28.1466 23.7968 27.7716C23.3468 26.1966 22.9718 24.6966 22.5968 23.1216C22.2968 21.1716 21.8468 19.2217 22.2968 17.1967C22.4646 16.1341 22.8429 15.1157 23.4096 14.2012C23.9762 13.2868 24.7199 12.4948 25.5968 11.8717C25.9201 11.6736 26.1803 11.3874 26.3468 11.0467C27.1718 8.94673 29.1218 8.19674 30.9968 7.37174C31.3717 7.89674 30.5468 8.42173 31.1468 8.64673C31.5217 8.87173 31.9717 8.42173 32.3467 8.19674C32.7329 8.00343 33.0672 7.72056 33.3217 7.37174C33.7717 6.32175 34.5217 6.47175 35.4217 6.69675C37.5967 7.37174 39.3967 8.42173 40.3717 10.5967C40.5172 10.8892 40.7542 11.1262 41.0467 11.2717C44.4216 12.6967 45.6216 17.0467 45.1716 20.2716Z" fill="#9E9E9E"/>
</svg>
