<svg width="25" height="22" viewBox="0 0 25 22" fill="none" xmlns="http://www.w3.org/2000/svg">
<path d="M0 15.635V2.30742C0.0139374 2.28762 0.0251253 2.26608 0.033267 2.24337C0.365931 0.777975 1.34761 0.00172418 2.87069 0.00172418C9.29001 0.00172418 15.7089 0.00172418 22.1274 0.00172418C22.3141 -0.00411342 22.5011 0.00487747 22.6864 0.028619C24.0848 0.254705 24.9974 1.31597 24.998 2.7186C25.0007 6.85647 25.0007 10.9943 24.998 15.1322C24.998 16.8051 23.8552 17.9304 22.1554 17.9311C20.1705 17.9311 18.1856 17.9349 16.2007 17.9266C16.1049 17.921 16.0093 17.9406 15.9238 17.9834C15.8383 18.0262 15.7659 18.0906 15.7141 18.17C14.9927 19.1255 14.2654 20.0771 13.5322 21.0245C12.9452 21.7873 12.0268 21.7777 11.4449 21.0072C10.7385 20.0709 10.0301 19.1351 9.33415 18.1892C9.27946 18.1031 9.20209 18.0331 9.11024 17.9867C9.01838 17.9403 8.91545 17.919 8.81233 17.9253C6.7946 17.9342 4.77709 17.9342 2.7598 17.9253C1.6881 17.9214 0.86036 17.4667 0.33723 16.5432C0.178726 16.269 0.110236 15.9411 0 15.635ZM2.05925 1.57216C2.15905 1.6599 2.21058 1.70857 2.26537 1.75276L11.6334 9.38781C12.2088 9.85728 12.7958 9.85665 13.375 9.38462L22.462 1.98012C22.6087 1.86035 22.7548 1.73867 22.901 1.61826L22.8918 1.53435C22.64 1.50297 22.3889 1.44469 22.1378 1.44469C15.8172 1.43957 9.49657 1.43828 3.17596 1.44085C2.98898 1.43325 2.80172 1.43563 2.615 1.44791C2.42757 1.47929 2.24204 1.52076 2.05925 1.57216ZM2.71936 16.4951H3.06964C5.00626 16.4951 6.94289 16.5015 8.87951 16.4919C9.55201 16.4887 10.0686 16.7417 10.4619 17.2746C11.0777 18.1072 11.7058 18.9341 12.3294 19.7628C12.3803 19.8301 12.4358 19.8941 12.5003 19.9735C12.5714 19.8845 12.6275 19.8172 12.6804 19.7487C13.2915 18.9507 13.9151 18.1616 14.5067 17.3508C14.9418 16.7558 15.4976 16.4804 16.249 16.4887C18.1523 16.5086 20.057 16.4951 21.961 16.4951H22.2813L14.8114 10.0661C14.1591 10.6777 13.4585 11.1741 12.5068 11.1779C11.5552 11.1818 10.8448 10.6687 10.1834 10.0686L2.71936 16.4951ZM9.03867 9.14251L1.50025 3.0004V15.6311L9.03867 9.14251ZM23.5037 15.6331V3.00168L15.9646 9.14445L23.5037 15.6331Z" fill="#662D91"/>
</svg>
