<svg width="19" height="26" viewBox="0 0 19 26" fill="none" xmlns="http://www.w3.org/2000/svg">
<path d="M7.45541 25.1594C7.42161 25.1414 7.38478 25.1299 7.3468 25.1253C6.09645 24.9686 4.77688 23.8047 4.79453 21.9579C4.82033 19.3575 4.81488 16.7134 4.80945 14.1566C4.80945 13.0772 4.80945 11.9977 4.80945 10.9183V9.95473L4.35331 10.3786L4.26097 10.4645C4.20802 10.5122 4.16729 10.549 4.12521 10.5885C3.94193 10.7711 3.76001 10.9551 3.58217 11.1337C3.21833 11.5003 2.85452 11.8669 2.48661 12.224C2.39017 12.331 2.25657 12.3968 2.11326 12.408C1.97083 12.3972 1.83783 12.3324 1.74128 12.2267C1.27562 11.7661 0.856113 11.349 0.439329 10.9183C0.299064 10.7798 0.187915 10.6145 0.112457 10.4321C0.0369987 10.2497 -0.00123551 10.054 3.04391e-05 9.85647C0.00129639 9.65897 0.0420248 9.46373 0.119815 9.28232C0.197605 9.10091 0.31089 8.93701 0.452918 8.80034C0.705433 8.54139 0.962004 8.28654 1.21723 8.03031L1.63403 7.61325C1.67475 7.57236 1.71276 7.53011 1.75892 7.47696L1.83087 7.3979L2.0128 7.20165L1.81864 7.01631L1.59329 6.80369C1.43581 6.65513 1.28782 6.51476 1.14528 6.36893C0.416243 5.62205 0.418958 4.58214 1.14528 3.83935C1.95984 3.0216 2.82601 2.14387 3.81027 1.16257C3.97351 0.989479 4.16947 0.850806 4.38672 0.754627C4.60397 0.658448 4.83813 0.606709 5.07553 0.60243C5.31384 0.606771 5.54894 0.658659 5.76709 0.75506C5.98525 0.85146 6.18212 0.990431 6.34626 1.16393C6.49153 1.30023 6.63135 1.4556 6.77933 1.6137L6.99248 1.8386L7.18525 2.04168L7.8152 1.40244C8.12473 1.08761 8.42476 0.783681 8.7275 0.482477C8.86788 0.334106 9.03612 0.215104 9.22252 0.132298C9.40892 0.0494933 9.6098 0.00451698 9.81359 0C10.0175 0.00501926 10.2185 0.0504939 10.4049 0.133763C10.5913 0.217031 10.7594 0.336459 10.8997 0.485205C11.1712 0.757788 11.4508 1.03038 11.7251 1.31114L12.0645 1.65323C12.4283 2.01849 12.4269 2.22973 12.0645 2.59772C11.144 3.5245 7.13776 7.54783 7.13776 7.54783C7.09431 7.59145 7.05223 7.63779 7.002 7.69231L6.92596 7.77679L6.50917 8.23338H11.9952V7.55193C11.9952 7.25617 11.9952 6.96452 11.9952 6.67285C11.9813 6.44045 12.0499 6.21061 12.1889 6.02421C12.3278 5.8378 12.5281 5.7069 12.7541 5.65476L12.7922 5.64385C14.3127 5.20499 15.8337 4.76793 17.3551 4.33271C17.4619 4.30188 17.5724 4.28585 17.6836 4.28503C18.2402 4.28503 18.6434 4.71161 18.6434 5.29903C18.6434 11.041 18.6434 16.6548 18.6434 22.1992C18.6366 22.8436 18.4209 23.4683 18.029 23.9788C17.6371 24.4893 17.0903 24.8578 16.4713 25.0286C16.3654 25.0585 16.2595 25.0845 16.1536 25.109L16.0314 25.139L7.45541 25.1594ZM5.76113 22.0179C5.76113 23.3426 6.6137 24.1985 7.93329 24.1985H15.5237C16.1753 24.1985 16.7238 23.9955 17.108 23.6111C17.4922 23.2268 17.6972 22.6789 17.6972 22.0261V9.2351H5.76249L5.76113 22.0179ZM9.81359 0.969046C9.60316 0.969046 9.45245 1.12033 9.29361 1.27979L1.20772 9.40005C1.1765 9.43139 1.14392 9.46273 1.11405 9.49544C1.06303 9.54408 1.0224 9.60263 0.994634 9.66754C0.966872 9.73244 0.952573 9.80234 0.952573 9.87297C0.952573 9.94361 0.966872 10.0135 0.994634 10.0784C1.0224 10.1433 1.06303 10.2019 1.11405 10.2505C1.3014 10.4454 1.49284 10.6348 1.6734 10.8147L2.06981 11.2113L11.1658 2.07981L10.7829 1.71183C10.6471 1.57554 10.491 1.43926 10.3444 1.28662C10.1978 1.13397 10.0213 0.969046 9.81359 0.969046ZM17.3578 5.37672C17.3248 5.3766 17.2919 5.3807 17.26 5.38897C15.9314 5.7624 14.6037 6.13721 13.2768 6.51337C13.1928 6.53927 13.1181 6.58937 13.0621 6.65745C13.0061 6.72552 12.9713 6.80858 12.9619 6.89636C12.9551 7.16894 12.9551 7.44154 12.9619 7.72911V8.27428H17.6877V5.38218H17.3632L17.3578 5.37672ZM5.07145 1.57008C4.97367 1.57146 4.87715 1.5923 4.78744 1.63137C4.69772 1.67044 4.61661 1.72698 4.5488 1.79771C3.67043 2.66725 2.76356 3.57766 1.77658 4.5794C1.63545 4.71105 1.55182 4.89333 1.54394 5.08657C1.53606 5.27981 1.60455 5.46835 1.73449 5.61114C1.90147 5.79922 2.07661 5.97639 2.24631 6.14812L2.45402 6.35801L2.64679 6.55699L6.50509 2.68087L6.3096 2.48868L6.10189 2.28019C5.94033 2.11664 5.77199 1.94762 5.59686 1.78679C5.45505 1.65089 5.26748 1.57352 5.07145 1.57008Z" fill="#662D91"/>
<path d="M15.0565 21.7003C14.9401 21.695 14.8297 21.6465 14.747 21.564C14.6903 21.5106 14.6466 21.4449 14.619 21.3719C14.5915 21.2989 14.5809 21.2206 14.5881 21.1429C14.5881 20.0526 14.5881 18.9577 14.5881 17.8583V15.5877C14.5881 14.471 14.5881 13.3557 14.5881 12.2417C14.5804 12.1478 14.6008 12.0538 14.6468 11.9717C14.6928 11.8896 14.7622 11.8232 14.8461 11.7811C14.9126 11.7424 14.9878 11.7214 15.0647 11.7197C15.152 11.722 15.237 11.7484 15.3104 11.796C15.476 11.8996 15.5466 12.0536 15.5466 12.3112C15.5466 13.7295 15.5466 15.1483 15.5466 16.5676C15.5466 16.5676 15.5466 20.3837 15.5466 21.1633C15.557 21.2663 15.5336 21.3698 15.4799 21.4582C15.4262 21.5465 15.3452 21.6148 15.2493 21.6526C15.1892 21.6822 15.1234 21.6985 15.0565 21.7003Z" fill="#662D91"/>
<path d="M11.7085 21.6971C11.6494 21.6996 11.5906 21.6871 11.5375 21.6609C11.4844 21.6347 11.4386 21.5956 11.4044 21.5471C11.3167 21.4121 11.267 21.2557 11.2605 21.0946C11.2497 19.4251 11.2497 17.7255 11.251 16.0832V13.9802C11.251 13.4119 11.251 12.8245 11.251 12.248C11.2468 12.1824 11.2558 12.1166 11.2773 12.0545C11.2988 11.9924 11.3326 11.9352 11.3765 11.8864C11.4204 11.8376 11.4736 11.7982 11.533 11.7704C11.5923 11.7426 11.6567 11.727 11.7221 11.7246C11.7748 11.7247 11.8271 11.7334 11.8769 11.7505C11.9802 11.7875 12.0684 11.8579 12.1277 11.9506C12.1869 12.0434 12.2137 12.1533 12.2041 12.263C12.2041 13.3779 12.2041 14.4936 12.2041 15.6103V17.9272C12.2041 19.0176 12.2041 20.1079 12.2041 21.1982C12.2127 21.3023 12.1861 21.4062 12.1284 21.4931C12.0707 21.5799 11.9854 21.6446 11.8864 21.6766C11.8287 21.6933 11.7685 21.7002 11.7085 21.6971Z" fill="#662D91"/>
<path d="M8.38481 21.6966C8.28126 21.6918 8.18208 21.6532 8.10225 21.5869C8.02242 21.5205 7.96626 21.4299 7.94223 21.3286C7.92927 21.2751 7.92245 21.2202 7.92188 21.1651V19.9739C7.92188 17.4043 7.92188 14.8352 7.92188 12.2666C7.92188 11.9531 8.11736 11.7214 8.38616 11.7214C8.43634 11.722 8.48619 11.7298 8.53416 11.7446C8.63927 11.7757 8.73038 11.8424 8.79202 11.9334C8.85366 12.0243 8.882 12.1339 8.8722 12.2434C8.8722 12.6768 8.8722 13.1103 8.8722 13.5423V17.631C8.8722 18.7695 8.8722 19.9053 8.8722 21.0383C8.87686 21.1476 8.86771 21.2571 8.84502 21.364C8.81477 21.4591 8.75522 21.542 8.67492 21.6008C8.59463 21.6596 8.49778 21.6913 8.3984 21.6912L8.38481 21.6966Z" fill="#662D91"/>
</svg>
