<svg width="17" height="20" viewBox="0 0 17 20" fill="none" xmlns="http://www.w3.org/2000/svg">
<path d="M8.68625 19C8.28446 19 7.8838 18.9939 7.49527 18.9819C5.81267 18.9299 4.34499 18.6988 3.0077 18.2751C2.49219 18.1118 1.90315 17.8893 1.43919 17.4775C1.1405 17.212 0.988884 16.9028 1.00063 16.5835C1.01239 16.2642 1.19622 15.9521 1.51728 15.7051C1.90391 15.4078 2.36673 15.1828 3.01832 14.9754C3.87914 14.7016 4.85027 14.5109 6.07498 14.3751C6.11895 14.3701 6.16102 14.3636 6.20954 14.3563L6.28535 14.3448L6.62915 14.2949L6.44379 14.0146L6.39224 13.9366C6.36116 13.8897 6.335 13.8496 6.30809 13.8098C5.47001 12.5709 4.51822 11.0831 3.81318 9.43923C3.37765 8.42351 3.0873 7.55806 3.08541 6.63627C3.08124 4.58172 4.00536 2.96605 5.83162 1.83403C6.57987 1.37024 7.446 1.09789 8.40613 1.0242C8.44725 1.02041 8.48781 1.01229 8.52705 1H9.23284C9.35717 1.02167 9.48263 1.04046 9.60393 1.05924C9.87683 1.09584 10.1475 1.14637 10.4147 1.21059C11.824 1.57721 12.9498 2.36861 13.7602 3.56276C14.4167 4.53043 14.7207 5.61586 14.6639 6.78942C14.6373 7.33448 14.5096 7.90627 14.2496 8.64385C13.8679 9.72494 13.3076 10.853 12.4858 12.1931C12.2531 12.5731 12.0026 12.9541 11.7603 13.3226C11.6466 13.4963 11.5329 13.6704 11.4192 13.8449C11.3972 13.8788 11.376 13.9135 11.3498 13.9554L11.307 14.0244L11.1304 14.3076L11.4715 14.3502L11.7323 14.3816C11.9116 14.4029 12.0806 14.4232 12.2493 14.447C13.2989 14.5976 14.5104 14.8021 15.6088 15.324C15.9227 15.4732 16.3143 15.691 16.5606 16.0565C16.8639 16.508 16.7998 17.0264 16.3908 17.41C15.9219 17.8499 15.339 18.0807 14.8303 18.248C13.6131 18.6485 12.3009 18.8776 10.8173 18.9487C10.0903 18.9823 9.37195 19 8.68625 19ZM6.92594 15.0238C6.89585 15.0239 6.86581 15.0262 6.83611 15.0307C6.55637 15.0712 6.27094 15.1094 5.99462 15.1463C5.43514 15.2214 4.85747 15.2987 4.28889 15.3991C3.69985 15.5039 2.9372 15.6773 2.26098 16.0898C1.97328 16.2653 1.75343 16.4174 1.76025 16.6438C1.76708 16.8703 1.99564 17.009 2.27159 17.1564C2.72749 17.3953 3.21083 17.5831 3.71198 17.7163C4.91129 18.0446 6.30278 18.2711 9.19607 18.3087H9.21237C9.33746 18.3018 9.48566 18.2946 9.65093 18.2866C10.1001 18.2649 10.6592 18.2379 11.224 18.192C12.5188 18.0861 13.5707 17.8907 14.5339 17.5779C14.9463 17.4436 15.4189 17.2723 15.809 16.939C15.9644 16.8064 15.9883 16.6774 15.9807 16.5926C15.9731 16.5077 15.9329 16.3968 15.7779 16.3036C15.715 16.2675 15.652 16.2263 15.5884 16.1869C15.3666 16.0475 15.1377 15.9034 14.8807 15.8069C13.5423 15.3012 12.1428 15.1373 10.8302 15.0329H10.804C10.6372 15.0329 10.497 15.1542 10.4405 15.2261C10.2434 15.4761 10.0459 15.7318 9.85486 15.9796C9.65662 16.2364 9.45193 16.5019 9.24838 16.7605C9.16309 16.8689 9.02929 16.9967 8.87464 16.9967C8.71998 16.9967 8.58997 16.8703 8.5062 16.7645C8.1245 16.2819 7.7409 15.7849 7.33115 15.2445C7.29324 15.1882 7.16929 15.0238 6.92594 15.0238ZM8.89056 1.72747C8.56739 1.7277 8.24498 1.75745 7.92777 1.81633C6.38807 2.10312 5.21946 2.91801 4.45416 4.23894C3.8727 5.24309 3.7025 6.31877 3.94813 7.43634C4.12628 8.24689 4.43521 9.06393 4.94996 10.0851C5.6349 11.445 6.49117 12.8111 7.72612 14.5153C7.93763 14.8071 8.15141 15.0871 8.3777 15.3822C8.47878 15.5158 8.58125 15.6505 8.68511 15.7863L8.84621 15.9995L9.03573 15.8084C9.04786 15.7961 9.05734 15.7871 9.06492 15.7798C9.08244 15.7632 9.09877 15.7455 9.11382 15.7267C10.4981 13.9384 11.5397 12.3961 12.3888 10.8718C13.0332 9.71591 13.4574 8.74066 13.72 7.8073C13.9414 7.02059 13.9729 6.29023 13.8167 5.56782C13.3326 3.34315 11.2611 1.72819 8.89056 1.72819V1.72747Z" fill="#414141" fill-opacity="0.5"/>
<path d="M16.4592 17.4829C15.9737 17.9385 15.373 18.1748 14.8615 18.343C14.8615 18.343 14.8615 18.343 14.8615 18.343L14.8303 18.248C13.6131 18.6485 12.3009 18.8776 10.8173 18.9487C10.0903 18.9823 9.37195 19 8.68625 19C8.28446 19 7.8838 18.9939 7.49527 18.9819C5.81267 18.9299 4.34499 18.6988 3.0077 18.2751L11.4347 14.0083M16.4592 17.4829C16.4592 17.4829 16.4592 17.4829 16.4592 17.4829L16.3908 17.41L16.4592 17.4829ZM16.4592 17.4829C16.6785 17.2773 16.8096 17.0312 16.842 16.7711C16.8746 16.5108 16.8073 16.2445 16.6436 16.0008L16.6436 16.0006C16.3811 15.6113 15.9679 15.3839 15.6518 15.2337L15.6518 15.2337C14.5383 14.7046 13.3133 14.4987 12.2635 14.348L12.2633 14.348C12.0934 14.324 11.9233 14.3036 11.7441 14.2823M11.7441 14.2823L11.4839 14.251L11.4715 14.3502M11.7441 14.2823L11.7323 14.3816M11.7441 14.2823L11.7443 14.2823L11.7323 14.3816M11.4715 14.3502L11.4835 14.2509L11.298 14.2277M11.4715 14.3502L11.2397 14.3212M11.4715 14.3502L11.7323 14.3816M11.298 14.2277L11.3918 14.0773L11.392 14.0771L11.4347 14.0083M11.298 14.2277L11.2397 14.3212M11.298 14.2277L11.1887 14.2141L11.307 14.0244L11.2397 14.3212M11.4347 14.0083L11.4348 14.0081C11.4421 13.9965 11.4488 13.9856 11.4553 13.9752C11.4726 13.9473 11.4876 13.9232 11.5031 13.8992L11.4347 14.0083ZM11.2397 14.3212L16.5606 16.0565C16.3143 15.691 15.9227 15.4732 15.6088 15.324C14.5104 14.8021 13.2989 14.5976 12.2493 14.447C12.0806 14.4232 11.9116 14.4029 11.7323 14.3816M6.2253 13.8659L6.22526 13.8659C5.38643 12.6258 4.4302 11.1316 3.72128 9.47864L3.72128 9.47863C3.28463 8.46031 2.98735 7.57938 2.98541 6.63647C2.98117 4.54535 3.92484 2.89831 5.77894 1.74903L5.83162 1.83403L5.77894 1.74903C6.54184 1.27616 7.42343 0.999442 8.39767 0.924558C8.43154 0.921381 8.46491 0.914671 8.49717 0.90457L8.51176 0.9H8.52705H9.23284H9.24149L9.25002 0.901486C9.35177 0.919222 9.45419 0.93499 9.55554 0.950592C9.57649 0.953817 9.59739 0.957035 9.61823 0.960261C9.89418 0.99731 10.1679 1.04841 10.4381 1.11335L10.4399 1.11379L10.4399 1.11381C11.8724 1.48648 13.0188 2.29218 13.843 3.50661L13.843 3.50662C14.5117 4.49232 14.8216 5.59916 14.7637 6.79426L14.7637 6.79428C14.7366 7.35221 14.6059 7.93397 14.3439 8.6771L14.3439 8.67714C13.9591 9.76677 13.3953 10.9013 12.5711 12.2453M6.2253 13.8659L12.4858 12.1931M6.2253 13.8659C6.24411 13.8937 6.26239 13.9214 6.28271 13.9522M6.2253 13.8659L6.28271 13.9522M12.5711 12.2453L12.4858 12.1931M12.5711 12.2453C12.5711 12.2453 12.5711 12.2453 12.5711 12.2453L12.4858 12.1931M12.5711 12.2453C12.3379 12.6261 12.0871 13.0076 11.8455 13.3751L11.844 13.3773M12.4858 12.1931C12.2535 12.5725 12.0033 12.9529 11.7615 13.3208L11.7603 13.3226M11.844 13.3773L11.7603 13.3226M11.844 13.3773L11.8439 13.3775L11.7603 13.3226M11.844 13.3773L11.7603 13.3226M6.83611 15.0307C6.86581 15.0262 6.89585 15.0239 6.92594 15.0238V15.1238C6.92596 15.1238 6.92598 15.1238 6.926 15.1238M6.83611 15.0307L6.00793 15.2454C6.28421 15.2086 6.5701 15.1702 6.85042 15.1297L6.85124 15.1295C6.87596 15.1258 6.90096 15.1239 6.926 15.1238M6.83611 15.0307C6.55637 15.0712 6.27094 15.1094 5.99462 15.1463L6.83611 15.0307ZM6.926 15.1238C7.11775 15.1239 7.21557 15.2519 7.24817 15.3004L7.24804 15.3004L7.25147 15.305C7.66154 15.8457 8.04556 16.3433 8.42777 16.8265L8.42779 16.8266C8.4727 16.8833 8.53272 16.9492 8.60543 17.0015C8.67809 17.0538 8.76942 17.0967 8.87464 17.0967C8.97997 17.0967 9.07223 17.0533 9.14581 17.0005C9.21959 16.9476 9.28099 16.8808 9.32696 16.8224C9.51943 16.5778 9.71288 16.3272 9.90063 16.084L9.93402 16.0407L9.93405 16.0407C10.1251 15.7929 10.3223 15.5375 10.519 15.288L10.5191 15.2879C10.5406 15.2605 10.5813 15.2202 10.6339 15.1874C10.6863 15.1546 10.7448 15.1329 10.804 15.1329H10.8262C12.1361 15.2372 13.5222 15.4006 14.8453 15.9005L14.8456 15.9006C15.0915 15.9929 15.312 16.1313 15.5351 16.2716L15.5358 16.272C15.5541 16.2833 15.573 16.2952 15.5922 16.3073C15.6363 16.3351 15.6823 16.364 15.7272 16.3898C15.8524 16.4654 15.8762 16.5465 15.8811 16.6015C15.8857 16.6537 15.8751 16.7511 15.7441 16.8629L15.744 16.8629C15.3703 17.1823 14.9147 17.3487 14.5029 17.4828C13.5488 17.7927 12.5049 17.987 11.2158 18.0923C10.6529 18.138 10.0954 18.1651 9.64613 18.1867C9.48211 18.1946 9.33454 18.2018 9.20964 18.2087H9.19663C6.30919 18.1711 4.92685 17.9452 3.73839 17.6198L3.73766 17.6196C3.24377 17.4884 2.76752 17.3033 2.31837 17.068C2.17967 16.9939 2.06359 16.9274 1.98107 16.8547C1.9004 16.7837 1.86248 16.7164 1.86021 16.6408C1.85794 16.5656 1.8914 16.4963 1.97016 16.4191C2.05091 16.34 2.16821 16.2635 2.31305 16.1751C2.97266 15.7728 3.71992 15.6019 4.30628 15.4976C4.86644 15.3987 5.43581 15.3222 5.99004 15.2478L6.00783 15.2454L6.926 15.1238ZM8.85643 15.8471L8.76489 15.726L8.76455 15.7256C8.66079 15.5899 8.55843 15.4553 8.45746 15.3218L8.45706 15.3213C8.23075 15.0262 8.01772 14.7472 7.80709 14.4566C6.57419 12.7552 5.72109 11.3938 5.03927 10.0401L5.03925 10.0401C4.52697 9.02381 4.22162 8.21484 4.0458 7.41487C3.80562 6.32209 3.97157 5.27191 4.5407 4.28905C5.29093 2.99414 6.43417 2.19627 7.94602 1.91465C8.23002 1.86194 8.51828 1.83302 8.80749 1.82819H8.89056C11.2169 1.82819 13.2454 3.41298 13.7189 5.58895C13.8713 6.29378 13.8412 7.00753 13.6238 7.78021C13.3638 8.70384 12.9433 9.67171 12.3015 10.8231L12.3015 10.8231C11.4556 12.3417 10.4172 13.8796 9.03537 15.6647C9.02328 15.6797 9.01014 15.6939 8.99604 15.7074L8.99593 15.7075C8.98827 15.7148 8.97792 15.7246 8.96474 15.738L8.85643 15.8471ZM8.85643 15.8471L8.96459 15.7381L8.85643 15.8471ZM6.28271 13.9522C6.29101 13.9648 6.29965 13.9779 6.30881 13.9917L6.28271 13.9522ZM1.37276 17.5523L1.37281 17.5523L6.30885 13.9918L6.36036 14.0698L6.36038 14.0698L6.45877 14.2186L6.271 14.2458L6.27028 14.2459L6.19481 14.2574C6.19474 14.2574 6.19467 14.2574 6.1946 14.2575C6.18863 14.2583 6.1828 14.2592 6.17709 14.2601C6.13572 14.2662 6.10046 14.2715 6.06378 14.2757C4.83479 14.412 3.85686 14.6038 2.98801 14.8801L2.98799 14.8801C2.32944 15.0897 1.85504 15.3192 1.45633 15.6258L1.45629 15.6258C1.11858 15.8857 0.913832 16.2231 0.900702 16.5799C0.887586 16.9363 1.05784 17.2723 1.37276 17.5523ZM1.43919 17.4775C1.1405 17.212 0.988884 16.9028 1.00063 16.5835C1.01239 16.2642 1.19622 15.9521 1.51728 15.7051C1.90391 15.4078 2.36673 15.1828 3.01832 14.9754L1.43919 17.4775Z" stroke="#414141" stroke-opacity="0.5" stroke-width="0.2"/>
<path d="M8.8694 9.24939C8.52562 9.24931 8.18526 9.18106 7.86806 9.04859C7.55086 8.91612 7.26313 8.72206 7.02153 8.47766C6.7764 8.23444 6.58199 7.94506 6.44956 7.62625C6.31713 7.30744 6.2493 6.96555 6.25001 6.62036C6.25249 5.92919 6.5271 5.26676 7.01446 4.7763C7.50182 4.28585 8.16277 4.00677 8.85441 3.9994H8.87286C9.21673 3.99824 9.55743 4.06505 9.87536 4.19598C10.1933 4.32691 10.4822 4.51937 10.7254 4.7623C10.9699 5.00527 11.1642 5.29402 11.2971 5.61203C11.4301 5.93005 11.499 6.27112 11.4999 6.61575C11.5021 6.95949 11.4358 7.30021 11.305 7.61813C11.1742 7.93605 10.9815 8.22482 10.738 8.46767C10.4961 8.71353 10.208 8.90916 9.89009 9.04331C9.57224 9.17747 9.23098 9.24751 8.88594 9.24939H8.8694ZM8.86556 4.76883C8.37486 4.77319 7.90585 4.97149 7.56103 5.32038C7.2162 5.66927 7.02362 6.14038 7.02537 6.63073C7.02878 7.11911 7.22495 7.58639 7.57124 7.93103C7.73937 8.10293 7.94007 8.23966 8.16163 8.33324C8.38319 8.42683 8.62118 8.4754 8.86172 8.47612H8.88517C9.90578 8.4623 10.7304 7.6268 10.7242 6.61345C10.7181 5.6001 9.89079 4.7696 8.88132 4.7696L8.86556 4.76883Z" fill="#414141" fill-opacity="0.5"/>
<path d="M8.8694 9.34939H8.86938C8.51237 9.34931 8.15893 9.27843 7.82953 9.14087C7.50027 9.00336 7.20158 8.80195 6.95075 8.5483C6.6964 8.29585 6.49466 7.99549 6.35721 7.66461C6.2197 7.33358 6.14927 6.97858 6.15001 6.62016L6.15001 6.62C6.15259 5.90253 6.43764 5.21492 6.94353 4.70582C7.44941 4.19672 8.13546 3.90705 8.85335 3.89941L8.85441 3.8994V3.8994H8.8727H8.87286V3.9994C9.21673 3.99824 9.55743 4.06505 9.87536 4.19598C10.1933 4.32691 10.4822 4.51937 10.7254 4.7623L8.8694 9.34939ZM8.8694 9.34939L8.88594 9.34939L8.88648 9.34939C9.24469 9.34744 9.59899 9.27472 9.92898 9.13545C10.2588 8.99623 10.5579 8.79324 10.809 8.53814C11.0617 8.286 11.2617 7.98622 11.3975 7.65618C11.5333 7.32604 11.6021 6.97222 11.5999 6.61528M8.8694 9.34939L10.796 4.69155C11.0498 4.94374 11.2515 5.24342 11.3894 5.57347C11.5274 5.90356 11.5989 6.25756 11.5999 6.61528M11.5999 6.61528C11.5999 6.61523 11.5999 6.61518 11.5999 6.61513L11.4999 6.61575L11.5999 6.61547C11.5999 6.6154 11.5999 6.61534 11.5999 6.61528ZM7.64273 7.86111L7.64273 7.8611L7.64178 7.86015C7.31421 7.53414 7.12864 7.09214 7.12537 6.6302C7.12376 6.16636 7.30595 5.72072 7.63215 5.39067C7.95773 5.06125 8.40035 4.87372 8.86361 4.86885L8.87645 4.86948L8.87644 4.8696H8.88132C9.83508 4.8696 10.6184 5.65498 10.6242 6.61406C10.63 7.57162 9.85049 8.36268 8.88447 8.37612L8.86202 8.37612C8.86197 8.37612 8.86191 8.37612 8.86186 8.37612C8.63464 8.37542 8.40983 8.32953 8.20054 8.24112C7.9912 8.1527 7.80158 8.02352 7.64273 7.86111Z" stroke="#414141" stroke-opacity="0.5" stroke-width="0.2"/>
</svg>
