<svg width="31" height="31" viewBox="0 0 31 31" fill="none" xmlns="http://www.w3.org/2000/svg">
<circle cx="15.5" cy="15.5" r="15.5" fill="#F5F2FE"/>
<path d="M7.44276 26.0594L7.44276 26.0594C7.10501 26.0491 6.77934 25.9313 6.51317 25.7232C6.24708 25.5151 6.05433 25.2275 5.96295 24.9023C5.96293 24.9022 5.9629 24.9021 5.96287 24.902L5.90389 24.6966L5.9 24.6831V24.669V14.7759V14.7551L5.90832 14.736C5.9148 14.7211 5.9199 14.7057 5.92356 14.6899L5.92358 14.6898C6.02292 14.2634 6.2159 13.9284 6.50086 13.7003C6.78588 13.4721 7.15358 13.3584 7.58862 13.3576L7.58881 13.3576L7.65979 13.3576H7.66182H7.66385H7.66588H7.66791H7.66994H7.67197H7.674H7.67603H7.67807H7.6801H7.68213H7.68416H7.68619H7.68822H7.69025H7.69228H7.69431H7.69634H7.69838H7.70041H7.70244H7.70447H7.7065H7.70853H7.71056H7.71259H7.71462H7.71665H7.71868H7.72072H7.72275H7.72478H7.72681H7.72884H7.73087H7.7329H7.73493H7.73696H7.73899H7.74103H7.74306H7.74509H7.74712H7.74915H7.75118H7.75321H7.75524H7.75727H7.7593H7.76133H7.76337H7.7654H7.76743H7.76946H7.77149H7.77352H7.77555H7.77758H7.77961H7.78164H7.78368H7.78571H7.78774H7.78977H7.7918H7.79383H7.79586H7.79789H7.79992H7.80195H7.80398H7.80602H7.80805H7.81008H7.81211H7.81414H7.81617H7.8182H7.82023H7.82226H7.82429H7.82632H7.82836H7.83039H7.83242H7.83445H7.83648H7.83851H7.84054H7.84257H7.8446H7.84663H7.84867H7.8507H7.85273H7.85476H7.85679H7.85882H7.86085H7.86288H7.86491H7.86694H7.86897H7.87101H7.87304H7.87507H7.8771H7.87913H7.88116H7.88319H7.88522H7.88725H7.88928H7.89131H7.89335H7.89538H7.89741H7.89944H7.90147H7.9035H7.90553H7.90756H7.90959H7.91162H7.91366H7.91569H7.91772H7.91975H7.92178H7.92381H7.92584H7.92787H7.9299H7.93193H7.93396H7.936H7.93803H7.94006H7.94209H7.94412H7.94615H7.94818H7.95021H7.95224H7.95427H7.95631H7.95834H7.96037H7.9624H7.96443H7.96646H7.96849H7.97052H7.97255H7.97458H7.97661H7.97865H7.98068H7.98271H7.98474H7.98677H7.9888H7.99083H7.99286H7.99489H7.99692H7.99895H8.00099H8.00302H8.00505H8.00708H8.00911H8.01114H8.01317H8.0152H8.01723H8.01926H8.02129H8.02333H8.02536H8.02739H8.02942H8.03145H8.03348H8.03551H8.03754H8.03957H8.0416H8.04364H8.04567H8.0477H8.04973H8.05176H8.05379H8.05582H8.05785H8.05988H8.06191H8.06394H8.06598H8.06801H8.07004H8.07207H8.0741H8.07613H8.07816H8.08019H8.08222H8.08425H8.08628H8.08832H8.09035H8.09238H8.09441H8.09644H8.09847H8.1005H8.10253H8.10456H8.10659H8.10863H8.11066H8.11269H8.11472H8.11675H8.11878H8.12081H8.12284H8.12487H8.1269H8.12893H8.13097H8.133H8.13503H8.13706H8.13909H8.14112H8.14315H8.14518H8.14721H8.14924H8.15127H8.15331H8.15534H8.15737H8.1594H8.16143H8.16346H8.16549H8.16752H8.16955H8.17158H8.17361H8.17565H8.17768H8.17971H8.18174H8.18377H8.1858H8.18783H8.18986H8.19189H8.19392H8.19596H8.19799H8.20002H8.20205H8.20408H8.20611H8.20814H8.21017H8.2122H8.21423H8.21626H8.2183H8.22033H8.22236H8.22439H8.22642H8.22845H8.23048H8.23251H8.23454H8.23657H8.2386H8.24064H8.24267H8.2447H8.24673H8.24876H8.25079H8.25282H8.25485H8.25688H8.25891H8.26094H8.26298H8.26501H8.26704H8.26907H8.2711H8.27313H8.27516H8.27719H8.27922H8.28125H8.28329H8.28532H8.28735H8.28938H8.29141H8.29344H8.29547H8.2975H8.29953H8.30156H8.30359H8.30563H8.30766H8.30969H8.31172H8.31375H8.31578H8.31781H8.31984H8.32187H8.3239H8.32593H8.32797H8.33H8.33203H8.33406H8.33609H8.33812H8.34015H8.34218H8.34421H8.34624H8.34827H8.35031H8.35234H8.35437H8.3564H8.35843H8.36046H8.36249H8.36452H8.36655H8.36858H8.37062H8.37265H8.37468H8.37671H8.37874H8.38077H8.3828H8.38483H8.38686H8.38889H8.39092H8.39296H8.39499H8.39702H8.39905H8.40108H8.40311H8.40514H8.40717H8.4092H8.41123H8.41326H8.4153H8.41733H8.41936H8.42139H8.42342H8.42545H8.42748H8.42951H8.43154H8.43357H8.43561H8.43764H8.43967H8.4417H8.44373H8.44576H8.44779H8.44982H8.45185H8.45388H8.45591H8.45795H8.45998H8.46201H8.46404H8.46607H8.4681H8.47013H8.47216H8.47419H8.47622H8.47826H8.48029H8.48232H8.48435H8.48638H8.48841H8.49044H8.49247H8.4945H8.49653H8.49856H8.5006H8.50263H8.50466H8.50669H8.50872H8.51075H8.51278H8.51481H8.51684H8.51887H8.5209H8.52294H8.52497H8.527H8.52903H8.53106H8.53309H8.53512H8.53715H8.53918H8.54121H8.54325H8.54528H8.54731H8.54934H8.55137H8.5534H8.55543H8.55746H8.55949H8.56152H8.56355H8.56559H8.56762H8.56965H8.57168H8.57371H8.57574H8.57777H8.5798H8.58183H8.58386H8.5859H8.58793H8.58996H8.59199H8.59402H8.59605H8.59808H8.60011H8.60214H8.60417H8.6062H8.60824H8.61027H8.6123H8.61433H8.61636H8.61839H8.62042H8.62245H8.62448H8.62651H8.62855H8.63058H8.63261H8.63464H8.63667H8.6387H8.64073H8.64276H8.64479H8.64682H8.64885H8.65089H8.65292H8.65495H8.65698H8.65901H8.66104H8.66307H8.6651H8.66713H8.66916H8.6712H8.67323H8.67526H8.67729H8.67932H8.68135H8.68338H8.68541H8.68744H8.68947H8.6915H8.69354H8.69557H8.6976H8.69963C9.14979 13.3576 9.52503 13.3576 9.87883 13.3619H9.88734H9.89006L9.89005 13.3619C9.98621 13.3645 10.0819 13.3469 10.1708 13.3103C10.2597 13.2737 10.34 13.2188 10.4065 13.1493L10.4079 13.1477L10.408 13.1477C11.2765 12.2766 12.146 11.4063 13.0163 10.5367M7.44276 26.0594L13.087 10.6074M7.44276 26.0594H7.4458H7.4759L16.029 26.0589L7.44276 26.0594ZM13.0163 10.5367L13.087 10.6074M13.0163 10.5367C13.0163 10.5367 13.0163 10.5367 13.0163 10.5367L13.087 10.6074M13.0163 10.5367C13.0954 10.4575 13.1747 10.3783 13.2541 10.2988C14.4498 9.10262 15.6799 7.87203 16.8873 6.65658L16.8873 6.65654C17.2742 6.26749 17.6194 5.98956 18.0832 5.90186L18.0924 5.90012H18.1018H18.525H18.535L18.5448 5.9021C19.0127 5.99661 19.3663 6.28542 19.7647 6.69142L19.6933 6.76146M13.087 10.6074C13.166 10.5284 13.2452 10.4491 13.3245 10.3698C14.5203 9.17352 15.7506 7.94272 16.9582 6.72705C17.3427 6.34047 17.6695 6.08185 18.1018 6.00012H18.525C18.9616 6.0883 19.2971 6.35767 19.6933 6.76146M19.6933 6.76146L19.7647 6.69142C20.4675 7.40767 21.1898 8.12776 21.8888 8.82408L21.8889 8.82421L21.8906 8.82589L21.8923 8.82757L21.8939 8.82925L21.8956 8.83093L21.8973 8.83261L21.899 8.8343L21.9007 8.83598L21.9023 8.83766L21.904 8.83934L21.9057 8.84102L21.9074 8.8427L21.9091 8.84438L21.9107 8.84606L21.9124 8.84774L21.9141 8.84942L21.9158 8.8511L21.9175 8.85278L21.9191 8.85446L21.9208 8.85614L21.9225 8.85782L21.9242 8.8595L21.9259 8.86118L21.9275 8.86286L21.9292 8.86454L21.9309 8.86622L21.9326 8.8679L21.9343 8.86958L21.9359 8.87126L21.9376 8.87294L21.9393 8.87462L21.941 8.8763L21.9427 8.87798L21.9443 8.87966L21.946 8.88134L21.9477 8.88302L21.9494 8.8847L21.9511 8.88638L21.9527 8.88806L21.9544 8.88974L21.9561 8.89142L21.9578 8.8931L21.9595 8.89478L21.9611 8.89646L21.9628 8.89814L21.9645 8.89982L21.9662 8.9015L21.9679 8.90318L21.9695 8.90486L21.9712 8.90654L21.9729 8.90822L21.9746 8.9099L21.9763 8.91158L21.9779 8.91326L21.9796 8.91495L21.9813 8.91663L21.983 8.91831L21.9847 8.91999L21.9863 8.92167L21.988 8.92335L21.9897 8.92503L21.9914 8.92671L21.9931 8.92839L21.9948 8.93007L21.9964 8.93175L21.9981 8.93343L21.9998 8.93511L22.0015 8.93679L22.0032 8.93847L22.0048 8.94015L22.0065 8.94183L22.0082 8.94351L22.0099 8.94519L22.0116 8.94687L22.0132 8.94855L22.0149 8.95023L22.0166 8.95191L22.0183 8.95359L22.02 8.95527L22.0216 8.95695L22.0233 8.95863L22.025 8.96031L22.0267 8.96199L22.0284 8.96367L22.03 8.96535L22.0317 8.96703L22.0334 8.96871L22.0351 8.97039L22.0368 8.97207L22.0384 8.97375L22.0401 8.97543L22.0418 8.97711L22.0435 8.97879L22.0452 8.98047L22.0468 8.98215L22.0485 8.98383L22.0502 8.98551L22.0519 8.98719L22.0536 8.98887L22.0552 8.99055L22.0569 8.99223L22.0586 8.99392L22.0603 8.9956L22.062 8.99728L22.0636 8.99896L22.0653 9.00064L22.067 9.00232L22.0687 9.004L22.0704 9.00568L22.072 9.00736L22.0737 9.00904L22.0754 9.01072L22.0771 9.0124L22.0788 9.01408L22.0804 9.01576L22.0821 9.01744L22.0838 9.01912L22.0855 9.0208L22.0872 9.02248L22.0888 9.02416L22.0905 9.02584L22.0922 9.02752L22.0939 9.0292L22.0956 9.03088L22.0972 9.03256L22.0989 9.03424L22.1006 9.03592L22.1023 9.0376L22.104 9.03928L22.1056 9.04096L22.1073 9.04264L22.109 9.04432L22.1107 9.046L22.1124 9.04768L22.114 9.04936L22.1157 9.05104L22.1174 9.05272L22.1191 9.0544L22.1208 9.05608L22.1224 9.05776L22.1241 9.05944L22.1258 9.06112L22.1275 9.0628L22.1292 9.06448L22.1308 9.06616L22.1325 9.06784L22.1342 9.06952L22.1359 9.0712L22.1376 9.07289L22.1392 9.07457L22.1409 9.07625L22.1426 9.07793L22.1443 9.07961L22.146 9.08129L22.1476 9.08297L22.1493 9.08465L22.151 9.08633L22.1527 9.08801L22.1544 9.08969L22.156 9.09137L22.1577 9.09305L22.1594 9.09473L22.1611 9.09641L22.1628 9.09809L22.1645 9.09977L22.1661 9.10145L22.1678 9.10313L22.1695 9.10481L22.1712 9.10649L22.1729 9.10817L22.1745 9.10985L22.1762 9.11153L22.1779 9.11321L22.1796 9.11489L22.1813 9.11657L22.1829 9.11825L22.1846 9.11993L22.1863 9.12161L22.188 9.12329L22.1897 9.12497L22.1913 9.12665L22.193 9.12833L22.1947 9.13001L22.1964 9.13169L22.1981 9.13337L22.1997 9.13505L22.2014 9.13673L22.2031 9.13841L22.2048 9.14009L22.2065 9.14177L22.2081 9.14345L22.2098 9.14513L22.2115 9.14681L22.2132 9.14849L22.2149 9.15017L22.2165 9.15186L22.2182 9.15354L22.2199 9.15522L22.2216 9.1569L22.2233 9.15858L22.2249 9.16026L22.2266 9.16194L22.2283 9.16362L22.23 9.1653L22.2317 9.16698L22.2333 9.16866L22.235 9.17034L22.2367 9.17202L22.2384 9.1737L22.2401 9.17538L22.2417 9.17706L22.2434 9.17874L22.2451 9.18042L22.2468 9.1821L22.2485 9.18378L22.2501 9.18546L22.2518 9.18714L22.2535 9.18882L22.2552 9.1905L22.2569 9.19218L22.2585 9.19386L22.2602 9.19554L22.2619 9.19722L22.2636 9.1989L22.2653 9.20058L22.2669 9.20226L22.2686 9.20394L22.2703 9.20562L22.272 9.2073L22.2737 9.20898L22.2753 9.21066L22.277 9.21234L22.2787 9.21402L22.2804 9.2157L22.2821 9.21738L22.2837 9.21906L22.2854 9.22074L22.2871 9.22242L22.2888 9.2241L22.2905 9.22578L22.2921 9.22746L22.2938 9.22914L22.2955 9.23083L22.2972 9.23251L22.2989 9.23419L22.3005 9.23587L22.3022 9.23755L22.3039 9.23923L22.3056 9.24091L22.3073 9.24259L22.309 9.24427L22.3106 9.24595L22.3123 9.24763L22.314 9.24931L22.3157 9.25099L22.3174 9.25267L22.319 9.25435L22.3207 9.25603L22.3224 9.25771L22.3241 9.25939L22.3258 9.26107L22.3274 9.26275L22.3291 9.26443L22.3308 9.26611L22.3325 9.26779L22.3342 9.26947L22.3358 9.27115L22.3375 9.27283L22.3392 9.27451L22.3409 9.27619L22.3426 9.27787L22.3442 9.27955L22.3459 9.28123L22.3476 9.28291L22.3493 9.28459L22.351 9.28627L22.3526 9.28795L22.3543 9.28963L22.356 9.29131L22.3577 9.29299L22.3594 9.29467L22.361 9.29635L22.3627 9.29803L22.3644 9.29971L22.3661 9.30139L22.3678 9.30307L22.3694 9.30475L22.3711 9.30643L22.3728 9.30812L22.3745 9.3098L22.3762 9.31148L22.3778 9.31316L22.3795 9.31484L22.3812 9.31652L22.3829 9.3182L22.3846 9.31988L22.3862 9.32156L22.3879 9.32324L22.3896 9.32492L22.3913 9.3266L22.393 9.32828L22.3946 9.32996L22.3963 9.33164L22.398 9.33332L22.3997 9.335L22.4014 9.33668L22.403 9.33836L22.4047 9.34004L22.4064 9.34172L22.4081 9.3434L22.4098 9.34508L22.4114 9.34676L22.4131 9.34844L22.4148 9.35012L22.4165 9.3518L22.4182 9.35348L22.4198 9.35516L22.4215 9.35684L22.4232 9.35852L22.4249 9.3602L22.4266 9.36188L22.4282 9.36356L22.4299 9.36524L22.4316 9.36692L22.4333 9.3686L22.435 9.37028L22.4366 9.37196L22.4383 9.37364L22.44 9.37532L22.4417 9.377L22.4434 9.37868L22.445 9.38036L22.4467 9.38204L22.4484 9.38372L22.4501 9.3854L22.4518 9.38708L22.4534 9.38877L22.4551 9.39045L22.4568 9.39213L22.4585 9.39381L22.4602 9.39549L22.4618 9.39717L22.4635 9.39885L22.4652 9.40053L22.4669 9.40221L22.4686 9.40389L22.4703 9.40557L22.4719 9.40725L22.4736 9.40893L22.4753 9.41061L22.477 9.41229L22.4787 9.41397L22.4803 9.41565L22.482 9.41733L22.4837 9.41901L22.4854 9.42069L22.4871 9.42237L22.4887 9.42405L22.4904 9.42573L22.4921 9.42741L22.4938 9.42909L22.4955 9.43077L22.4971 9.43245L22.4988 9.43413L22.5005 9.43581L22.5022 9.43749L22.5039 9.43917L22.5055 9.44085L22.5072 9.44253L22.5089 9.44421L22.5106 9.44589L22.5123 9.44757L22.5139 9.44925L22.5156 9.45093L22.5173 9.45261L22.519 9.45429L22.5207 9.45597L22.5223 9.45765L22.524 9.45933L22.5257 9.46101L22.5274 9.46269L22.5291 9.46437L22.5307 9.46605L22.5324 9.46774L22.5341 9.46942L22.5358 9.4711L22.5375 9.47278L22.5391 9.47446L22.5408 9.47614L22.5425 9.47782L22.5442 9.4795L22.5459 9.48118L22.5475 9.48286L22.5492 9.48454L22.5509 9.48622L22.5526 9.4879L22.5543 9.48958L22.5559 9.49126L22.5576 9.49294L22.5593 9.49462L22.561 9.4963L22.5627 9.49798L22.5643 9.49966L22.566 9.50134L22.5677 9.50302L22.5694 9.5047L22.5711 9.50638L22.5727 9.50806L22.5744 9.50974L22.5761 9.51142L22.5778 9.5131L22.5795 9.51478L22.5811 9.51646L22.5828 9.51814L22.5845 9.51982L22.5862 9.5215L22.5879 9.52318L22.5895 9.52486L22.5912 9.52654L22.5929 9.52822L22.5946 9.5299L22.5963 9.53158L22.5979 9.53326L22.5996 9.53494L22.6013 9.53662L22.603 9.5383L22.6047 9.53998L22.6063 9.54166L22.608 9.54334L22.6097 9.54502L22.6114 9.54671L22.6131 9.54839L22.6147 9.55007L22.6164 9.55175L22.6181 9.55343L22.6198 9.55511L22.6215 9.55679L22.6231 9.55847L22.6248 9.56015L22.6265 9.56183L22.6282 9.56351L22.6299 9.56519L22.6316 9.56687L22.6332 9.56855L22.6349 9.57023L22.6366 9.57191L22.6383 9.57359L22.64 9.57527L22.6416 9.57695L22.6433 9.57863L22.645 9.58031L22.6467 9.58199L22.6484 9.58367L22.65 9.58535L22.6517 9.58703L22.6534 9.58871L22.6551 9.59039L22.6568 9.59207L22.6584 9.59375L22.6601 9.59543L22.6618 9.59711L22.6635 9.59879L22.6652 9.60047L22.6668 9.60215L22.6685 9.60383L22.6702 9.60551L22.6719 9.60719L22.6736 9.60887L22.6752 9.61055L22.6769 9.61223L22.6786 9.61391L22.6803 9.61559L22.682 9.61727L22.6836 9.61895L22.6853 9.62063L22.687 9.62231L22.6887 9.62399L22.6904 9.62568L22.692 9.62736L22.6937 9.62904L22.6954 9.63072L22.6971 9.6324L22.6988 9.63408L22.7004 9.63576L22.7021 9.63744L22.7038 9.63912L22.7055 9.6408L22.7072 9.64248L22.7088 9.64416L22.7105 9.64584L22.7122 9.64752L22.7139 9.6492L22.7156 9.65088L22.7172 9.65256L22.7189 9.65424L22.7206 9.65592L22.7223 9.6576L22.724 9.65928L22.7256 9.66096L22.7273 9.66264L22.729 9.66432L22.7307 9.666L22.7324 9.66768L22.734 9.66936L22.7357 9.67104L22.7374 9.67272L22.7391 9.6744L22.7408 9.67608L22.7424 9.67776L22.7441 9.67944L22.7458 9.68112L22.7475 9.6828L22.7492 9.68448L22.7492 9.68451L23.5713 10.5071L23.5713 10.5072C24.2308 11.1674 24.8912 11.8272 25.5525 12.4867M19.6933 6.76146C20.3966 7.47817 21.1192 8.19864 21.8182 8.89492L22.6785 9.75519M23.5006 10.5778C24.1601 11.2381 24.8205 11.898 25.4819 12.5575M23.5006 10.5778L25.9502 15.0018M23.5006 10.5778L22.6785 9.75519M23.5006 10.5778L22.6785 9.75519M25.4819 12.5575C25.8303 12.9049 25.9824 13.2565 25.9464 13.6269M25.4819 12.5575L25.5525 12.4867M25.4819 12.5575L25.5525 12.4867L25.5525 12.4867M25.9464 13.6269C25.922 13.9413 25.9193 14.2569 25.9383 14.5716C25.939 14.5911 25.9398 14.6105 25.9405 14.6298C25.9452 14.7566 25.9497 14.8785 25.9502 15.0018M25.9464 13.6269L26.0459 13.6366C26.046 13.6363 26.046 13.636 26.046 13.6356C26.0461 13.6353 26.0461 13.635 26.0461 13.6347L25.9464 13.6269ZM25.9502 15.0018L26.0502 15.0014C26.0502 15.0013 26.0502 15.0013 26.0502 15.0012L25.9502 15.0018ZM25.5525 12.4867L22.6785 9.75519M20.3773 13.3457C20.4797 13.3447 20.582 13.3506 20.6837 13.3632L20.684 13.3632C20.7666 13.3738 20.8498 13.3794 20.9331 13.3802C21.41 13.38 21.8115 13.1814 22.1662 12.7569L22.1676 12.7553C22.4052 12.4825 22.6577 12.223 22.9237 11.9779C23.0371 11.8709 23.1545 11.7578 23.2664 11.6459L23.2665 11.6458L23.4237 11.4889L22.2998 10.3602L19.3004 13.3581H19.838C19.9268 13.3581 20.0175 13.355 20.1075 13.3517C20.1973 13.3485 20.2879 13.3458 20.3773 13.3457ZM20.3773 13.3457C20.3774 13.3457 20.3776 13.3457 20.3778 13.3457V13.4457L20.3768 13.3458C20.3769 13.3457 20.3771 13.3457 20.3773 13.3457ZM11.7563 12.7269C13.6951 10.7877 15.6345 8.84868 17.5744 6.90985C17.8072 6.67704 18.0534 6.55876 18.3067 6.55876H18.3083L11.7563 12.7269ZM11.7563 12.7269C11.7372 12.7459 11.7186 12.7655 11.6986 12.7865C11.6841 12.8016 11.669 12.8175 11.6525 12.8344L11.7563 12.7269ZM17.6451 6.98058L17.6451 6.98056C17.8651 6.76057 18.0873 6.65876 18.3067 6.65876H18.3083C18.5272 6.65876 18.75 6.76115 18.969 6.97809C19.6826 7.69097 20.3962 8.4042 21.1098 9.11779L21.4442 9.45271L21.4443 9.45277C21.4677 9.47619 21.4899 9.50003 21.5146 9.5265C21.5212 9.53357 21.528 9.54082 21.535 9.5483L21.5778 9.59425L21.5782 9.59468L21.7202 9.74567L21.5796 9.89817L21.5789 9.89895L21.5393 9.94278L21.5391 9.94304L21.534 9.94861C21.5035 9.98223 21.4766 10.0118 21.4485 10.0399L21.5192 10.1106L21.4485 10.0399L20.9786 10.5098L20.9785 10.5099C20.1119 11.3787 19.2152 12.2743 18.3293 13.1527L18.3292 13.1528C18.2306 13.2509 18.0669 13.349 17.9051 13.349L17.9046 13.349C16.5499 13.3549 15.213 13.3549 14.0838 13.3549H11.9692C11.9398 13.3549 11.9138 13.3531 11.878 13.3499L11.8772 13.3498L11.8106 13.3445L11.8106 13.3445L11.8097 13.3444L11.346 13.311L11.6628 12.9709L11.6631 12.9705L11.7251 12.9032C11.743 12.8848 11.7582 12.8688 11.7723 12.854C11.7913 12.8341 11.8083 12.8163 11.827 12.7976L11.827 12.7976C13.7658 10.8584 15.7052 8.9194 17.6451 6.98058ZM11.8692 13.4495C11.9058 13.4527 11.9353 13.4549 11.9692 13.4549H14.0838C15.2129 13.4549 16.5501 13.4549 17.9051 13.449C18.1029 13.449 18.2905 13.3323 18.3997 13.2237L11.8692 13.4495ZM25.2991 24.3523C25.2991 24.6715 25.2112 24.904 25.0576 25.0569C24.9041 25.2099 24.6705 25.2976 24.3501 25.2976H7.6286C7.29574 25.2976 7.05789 25.2104 6.90289 25.056C6.74796 24.9016 6.66026 24.6646 6.66026 24.3319V15.077C6.66026 14.7485 6.74712 14.5136 6.90054 14.3605C7.054 14.2073 7.28946 14.1205 7.61892 14.1205H24.3404C24.6699 14.1205 24.9053 14.2073 25.0588 14.3605C25.2122 14.5136 25.2991 14.7485 25.2991 15.077V24.3523ZM24.0046 12.0785L25.2842 13.3635H22.7165L24.0046 12.0785Z" fill="#662D91" stroke="#662D91" stroke-width="0.2"/>
<path d="M9.50978 19.3546L9.50922 19.3546C9.38675 19.3546 9.2641 19.3535 9.14128 19.3514L9.14107 19.3514C8.88998 19.3464 8.67959 19.2698 8.53182 19.1192C8.38408 18.9687 8.31103 18.7566 8.31016 18.5049L8.31016 18.5045L8.31016 18.5017V18.4989V18.4961V18.4933V18.4905V18.4876V18.4848V18.482V18.4792V18.4764V18.4735V18.4707V18.4679V18.4651V18.4622V18.4594V18.4566V18.4538V18.4509V18.4481V18.4453V18.4425V18.4396V18.4368V18.434V18.4311V18.4283V18.4255V18.4226V18.4198V18.417V18.4141V18.4113V18.4085V18.4056V18.4028V18.3999V18.3971V18.3943V18.3914V18.3886V18.3857V18.3829V18.38V18.3772V18.3744V18.3715V18.3687V18.3658V18.363V18.3601V18.3573V18.3544V18.3516V18.3487V18.3459V18.343V18.3402V18.3373V18.3344V18.3316V18.3287V18.3259V18.323V18.3202V18.3173V18.3144V18.3116V18.3087V18.3059V18.303V18.3001V18.2973V18.2944V18.2915V18.2887V18.2858V18.2829V18.2801V18.2772V18.2743V18.2715V18.2686V18.2657V18.2629V18.26V18.2571V18.2542V18.2514V18.2485V18.2456V18.2428V18.2399V18.237V18.2341V18.2312V18.2284V18.2255V18.2226V18.2197V18.2168V18.214V18.2111V18.2082V18.2053V18.2024V18.1996V18.1967V18.1938V18.1909V18.188V18.1851V18.1822V18.1793V18.1765V18.1736V18.1707V18.1678V18.1649V18.162V18.1591V18.1562V18.1533V18.1504V18.1475V18.1446V18.1418V18.1389V18.136V18.1331V18.1302V18.1273V18.1244V18.1215V18.1186V18.1157V18.1128V18.1099V18.107V18.1041V18.1012V18.0983V18.0953V18.0924V18.0895V18.0866V18.0837V18.0808V18.0779V18.075V18.0721V18.0692V18.0663V18.0634V18.0605V18.0575V18.0546V18.0517V18.0488V18.0459V18.043V18.0401V18.0371V18.0342V18.0313V18.0284V18.0255V18.0226V18.0197V18.0167V18.0138V18.0109V18.008V18.0051V18.0021V17.9992V17.9963V17.9934V17.9904V17.9875V17.9846V17.9817V17.9787V17.9758V17.9729V17.97V17.967V17.9641V17.9612V17.9583V17.9553V17.9524V17.9495V17.9465V17.9436V17.9407V17.9378V17.9348V17.9319V17.929V17.926V17.9231V17.9202V17.9172V17.9143V17.9114V17.9084V17.9055V17.9025V17.8996V17.8967V17.8937V17.8908V17.8879V17.8849V17.882V17.879V17.8761V17.8732V17.8702V17.8673V17.8643V17.8614V17.8584V17.8555V17.8526V17.8496V17.8467V17.8437V17.8408V17.8378V17.8349V17.8319V17.829V17.826V17.8231V17.8201V17.8172V17.8142V17.8113V17.8083V17.8054V17.8024V17.7995V17.7965V17.7936V17.7906V17.7877V17.7847V17.7818V17.7788V17.7759V17.7729V17.77V17.767V17.7641V17.7611V17.7581V17.7552V17.7522V17.7493V17.7463V17.7433V17.7404V17.7374V17.7345V17.7315V17.7286V17.7256V17.7226V17.7197V17.7167V17.7137V17.7108V17.7078V17.7049V17.7019V17.6989V17.696V17.693V17.69V17.6871V17.6841V17.6811V17.6782V17.6752V17.6722V17.6693V17.6663V17.6633V17.6604V17.6574V17.6544V17.6515V17.6485V17.6455V17.6426V17.6396V17.6366V17.6336V17.6307V17.6277V17.6247V17.6218V17.6188V17.6158V17.6128V17.6099V17.6069V17.6039V17.6009V17.598V17.595V17.592V17.589V17.5861V17.5831V17.5801V17.5771V17.5742V17.5712V17.5682V17.5652V17.5622V17.5593V17.5563V17.5533V17.5503V17.5474V17.5444V17.5414V17.5384V17.5354V17.5324V17.5295V17.5265V17.5235V17.5205V17.5175V17.5146V17.5116V17.5086V17.5056V17.5026V17.4996V17.4967V17.4937V17.4907V17.4877V17.4847V17.4817V17.4787V17.4758V17.4728V17.4698V17.4668V17.4638V17.4608V17.4578V17.4549V17.4519V17.4489V17.4459V17.4429V17.4399V17.4369V17.4339V17.431V17.428V17.425V17.422V17.419V17.416V17.413V17.41V17.407V17.404V17.401V17.3981V17.3951V17.3921V17.3891V17.3861V17.3831V17.3801V17.3771V17.3741V17.3711V17.3681V17.3651V17.3621V17.3592V17.3562V17.3532V17.3502V17.3472V17.3442V17.3412V17.3382V17.3352V17.3322V17.3292V17.3262V17.3232V17.3202V17.3172V17.3142V17.3112V17.3082V17.3052V17.3022V17.2992V17.2962V17.2932V17.2902V17.2872V17.2842V17.2813V17.2783V17.2753V17.2723V17.2693V17.2663V17.2633V17.2603V17.2573V17.2543V17.2513V17.2483V17.2453V17.2423V17.2393V17.2363V17.2333V17.2303V17.2273V17.2243V17.2213V17.2183V17.2153V17.2123V17.2093V17.2063V17.2033V17.2002V17.1972V17.1942V17.1912V17.1882V17.1852V17.1822V17.1792V17.1762V17.1732V17.1702V17.1672V17.1642V17.1612V17.1582V17.1552V17.1522V17.1492V17.1462V17.1432V17.1402V17.1372V17.1342V17.1312V17.1282V17.1252V17.1222V17.1192V17.1162V17.1132V17.1102V17.1072V17.1041V17.1011V17.0981V17.0951V17.0921V17.0891V17.0861V17.0831V17.0801V17.0771V17.0741V17.0711V17.0681V17.0651V17.0621V17.0591V17.0561V17.0531V17.0501V17.0471V17.0441V17.041V17.038V17.035V17.032V17.029V17.026V17.023V17.02V17.017V17.014V17.011V17.008V17.005V17.002V16.999C8.31016 16.7593 8.38866 16.5528 8.53488 16.4054C8.68106 16.2581 8.88656 16.1781 9.12478 16.1758M9.50978 19.3546L9.12483 16.1758C9.12482 16.1758 9.1248 16.1758 9.12478 16.1758M9.50978 19.3546L9.79744 19.353L9.89688 19.3525V19.3498M9.50978 19.3546L9.89688 19.3498M9.12478 16.1758C9.46984 16.172 9.81109 16.1704 10.1378 16.1704H10.1385C10.4742 16.1704 10.8081 16.1704 11.1299 16.1758M9.12478 16.1758L11.9353 16.985M11.1299 16.1758L11.1282 16.2758L11.1295 16.1758C11.1296 16.1758 11.1298 16.1758 11.1299 16.1758ZM11.1299 16.1758C11.3644 16.1788 11.5663 16.2577 11.7105 16.4025C11.8548 16.5473 11.9329 16.75 11.9353 16.985M11.9353 16.985C11.9407 17.5121 11.9407 18.0381 11.9353 18.5464L11.9353 16.985ZM9.89688 19.3498H10.1195H10.4459H10.4465H10.4471H10.4478H10.4484H10.449H10.4497H10.4503H10.4509H10.4516H10.4522H10.4528H10.4534H10.4541H10.4547H10.4553H10.456H10.4566H10.4572H10.4579H10.4585H10.4591H10.4598H10.4604H10.461H10.4616H10.4623H10.4629H10.4635H10.4642H10.4648H10.4654H10.4661H10.4667H10.4673H10.4679H10.4686H10.4692H10.4698H10.4705H10.4711H10.4717H10.4724H10.473H10.4736H10.4742H10.4749H10.4755H10.4761H10.4768H10.4774H10.478H10.4787H10.4793H10.4799H10.4805H10.4812H10.4818H10.4824H10.4831H10.4837H10.4843H10.485H10.4856H10.4862H10.4868H10.4875H10.4881H10.4887H10.4894H10.49H10.4906H10.4913H10.4919H10.4925H10.4931H10.4938H10.4944H10.495H10.4957H10.4963H10.4969H10.4976H10.4982H10.4988H10.4994H10.5001H10.5007H10.5013H10.502H10.5026H10.5032H10.5039H10.5045H10.5051H10.5057H10.5064H10.507H10.5076H10.5083H10.5089H10.5095H10.5102H10.5108H10.5114H10.5121H10.5127H10.5133H10.5139H10.5146H10.5152H10.5158H10.5165H10.5171H10.5177H10.5184H10.519H10.5196H10.5202H10.5209H10.5215H10.5221H10.5228H10.5234H10.524H10.5247H10.5253H10.5259H10.5265H10.5272H10.5278H10.5284H10.5291H10.5297H10.5303H10.531H10.5316H10.5322H10.5328H10.5335H10.5341H10.5347H10.5354H10.536H10.5366H10.5373H10.5379H10.5385H10.5391H10.5398H10.5404H10.541H10.5417H10.5423H10.5429H10.5436H10.5442H10.5448H10.5454H10.5461H10.5467H10.5473H10.548H10.5486H10.5492H10.5499H10.5505H10.5511H10.5517H10.5524H10.553H10.5536H10.5543H10.5549H10.5555H10.5562H10.5568H10.5574H10.558H10.5587H10.5593H10.5599H10.5606H10.5612H10.5618H10.5625H10.5631H10.5637H10.5644H10.565H10.5656H10.5662H10.5669H10.5675H10.5681H10.5688H10.5694H10.57H10.5707H10.5713H10.5719H10.5725H10.5732H10.5738H10.5744H10.5751H10.5757H10.5763H10.577H10.5776H10.5782H10.5788H10.5795H10.5801H10.5807H10.5814H10.582H10.5826H10.5833H10.5839H10.5845H10.5851H10.5858H10.5864H10.587H10.5877H10.5883H10.5889H10.5896H10.5902H10.5908H10.5914H10.5921H10.5927H10.5933H10.594H10.5946H10.5952H10.5959H10.5965H10.5971H10.5977H10.5984H10.599H10.5996H10.6003H10.6009H10.6015H10.6022H10.6028H10.6034H10.604H10.6047H10.6053H10.6059H10.6066H10.6072H10.6078H10.6085H10.6091H10.6097H10.6103H10.611H10.6116H10.6122H10.6129H10.6135H10.6141H10.6148H10.6154H10.616H10.6167H10.6173H10.6179H10.6185H10.6192H10.6198H10.6204H10.6211H10.6217H10.6223H10.623H10.6236H10.6242H10.6248H10.6255H10.6261H10.6267H10.6274H10.628H10.6286H10.6293H10.6299H10.6305H10.6311H10.6318H10.6324H10.633H10.6337H10.6343H10.6349H10.6356H10.6362H10.6368H10.6374H10.6381H10.6387H10.6393H10.64H10.6406H10.6412H10.6419H10.6425H10.6431H10.6437H10.6444H10.645H10.6456H10.6463H10.6469H10.6475H10.6482H10.6488H10.6494H10.65H10.6507H10.6513H10.6519H10.6526H10.6532H10.6538H10.6545H10.6551H10.6557H10.6563H10.657H10.6576H10.6582H10.6589H10.6595H10.6601H10.6608H10.6614H10.662H10.6626H10.6633H10.6639H10.6645H10.6652H10.6658H10.6664H10.6671H10.6677H10.6683H10.669H10.6696H10.6702H10.6708H10.6715H10.6721H10.6727H10.6734H10.674H10.6746H10.6753H10.6759H10.6765H10.6771H10.6778H10.6784H10.679H10.6797H10.6803H10.6809H10.6816H10.6822H10.6828H10.6834H10.6841H10.6847H10.6853H10.686H10.6866H10.6872H10.6879H10.6885H10.6891H10.6897H10.6904H10.691H10.6916H10.6923H10.6929H10.6935H10.6942H10.6948H10.6954H10.696H10.6967H10.6973H10.6979H10.6986H10.6992H10.6998H10.7005H10.7011H10.7017H10.7023H10.703H10.7036H10.7042H10.7049H10.7055H10.7061H10.7068H10.7074H10.708H10.7086H10.7093H10.7099H10.7105H10.7112H10.7118H10.7124H10.7131H10.7137H10.7143H10.7149H10.7156H10.7162H10.7168H10.7175H10.7181H10.7187H10.7194H10.72H10.7206H10.7213H10.7219H10.7225H10.7231H10.7238H10.7244H10.725H10.7257H10.7263H10.7269H10.7276H10.7282H10.7288H10.7294H10.7301H10.7307H10.7313H10.732H10.7326H10.7332H10.7339H10.7345H10.7351H10.7357H10.7364H10.737H10.7376H10.7383H10.7389H10.7395H10.7402H10.7408H10.7414H10.742H10.7427H10.7433H10.7439H10.7446H10.7452H10.7458H10.7465H10.7471H10.7477H10.7483H10.749H10.7496H10.7502H10.7509H10.7515H10.7521H10.7528H10.7534H10.754H10.7546H10.7553H10.7559H10.7565H10.7572H10.7578H10.7584H10.7591H10.7597H10.7603H10.7609H10.7616H10.7622H10.7628H10.7635H10.7641H10.7647H10.7654H10.766H10.7666H10.7672H10.7679H10.7685C10.919 19.3498 11.0431 19.3476 11.1585 19.3444L11.1585 19.3444C11.3861 19.3378 11.581 19.2578 11.7197 19.1147C11.8583 18.9719 11.9329 18.7742 11.9353 18.5465L9.89688 19.3498ZM11.1648 16.9559V18.5766H9.0785V16.9559H11.1648Z" fill="#662D91" stroke="#662D91" stroke-width="0.2"/>
<path d="M10.6336 22.3823V22.2823H10.5336H8.38281H8.28281V22.3823V22.9109V23.0109H8.38281H10.5336H10.6336V22.9109V22.3823Z" fill="#662D91" stroke="#662D91" stroke-width="0.2"/>
<path d="M14.9784 22.3811V22.2811H14.8784H12.7266H12.6266V22.3811V22.9118V23.0118H12.7266H14.8784H14.9784V22.9118V22.3811Z" fill="#662D91" stroke="#662D91" stroke-width="0.2"/>
<path d="M19.3328 22.3817V22.2817H19.2328H17.082H16.982V22.3817V22.9108V23.0108H17.082H19.2328H19.3328V22.9108V22.3817Z" fill="#662D91" stroke="#662D91" stroke-width="0.2"/>
<path d="M23.6732 22.3811V22.2811H23.5732H21.4219H21.3219V22.3811V22.9021V23.0021H21.4219H23.5732H23.6732V22.9021V22.3811Z" fill="#662D91" stroke="#662D91" stroke-width="0.2"/>
</svg>
