<svg width="31" height="31" viewBox="0 0 31 31" fill="none" xmlns="http://www.w3.org/2000/svg">
<circle cx="15.5" cy="15.5" r="15.5" fill="#F5F2FE"/>
<path d="M22.2041 23.8374L22.2044 23.8371C22.8012 23.2592 23.3819 22.6725 23.9219 22.0582C24.4022 21.5115 24.393 20.728 23.9072 20.2094C23.038 19.2869 22.1366 18.3912 21.2197 17.5078L21.2193 17.5075C21.025 17.3199 20.7749 17.2006 20.5068 17.1675C20.2387 17.1345 19.9672 17.1895 19.7331 17.3244L19.7289 17.3268L19.7289 17.3268C19.4688 17.4728 19.2337 17.6921 18.9555 17.9516C18.6979 18.1923 18.456 18.4416 18.202 18.7034C18.1012 18.8072 17.9985 18.913 17.8923 19.021L17.6523 19.2649L17.3531 19.0988C17.2733 19.0545 17.1882 19.009 17.1007 18.9622C16.8952 18.8524 16.6761 18.7354 16.4804 18.6093L16.4795 18.6088C15.5211 17.9883 14.6447 17.2495 13.8711 16.4099C13.1229 15.6097 12.4064 14.7421 11.8949 13.7068C11.8479 13.6119 11.7866 13.4555 11.8247 13.2681C11.8609 13.0896 11.971 12.9718 12.0302 12.9126L12.0307 12.9121C12.133 12.8102 12.2346 12.7098 12.3354 12.6103C12.7196 12.2309 13.0909 11.8642 13.436 11.4713L13.4361 11.4711C13.896 10.948 13.8921 10.1826 13.4332 9.69C12.5977 8.79312 11.7433 7.91747 10.8542 7.08312C10.494 6.74563 10.1483 6.60903 9.83273 6.60582C9.51584 6.6026 9.16103 6.73326 8.78309 7.06165C8.3654 7.42508 7.98461 7.82196 7.58819 8.23515C7.45523 8.37373 7.3205 8.51415 7.18204 8.65575C6.8469 8.9988 6.62086 9.43342 6.53241 9.90479L6.53145 9.90986L6.53143 9.90985C6.50405 10.047 6.49034 10.1749 6.47448 10.3229C6.46726 10.3902 6.4596 10.4617 6.45 10.5401V10.7558C6.46439 10.8683 6.47631 10.9741 6.48777 11.0758C6.51295 11.2992 6.53591 11.503 6.57792 11.715L6.57796 11.7152C6.7743 12.7085 7.13375 13.6557 7.59953 14.5704C9.27307 17.8559 11.6615 20.4793 14.7706 22.4472C16.0179 23.2356 17.306 23.8897 18.7066 24.2569C18.9672 24.3252 19.2193 24.3654 19.4951 24.4094C19.6333 24.4314 19.7774 24.4544 19.9316 24.4823C19.9317 24.4823 19.9318 24.4824 19.9319 24.4824L19.8516 24.9252C19.881 24.9305 19.9096 24.9391 19.9382 24.9477C19.9522 24.9519 19.9662 24.9561 19.9802 24.96L22.2041 23.8374ZM22.2041 23.8374C21.8285 24.2019 21.3489 24.4054 20.7899 24.4773L20.7746 24.4792L20.7596 24.4822C20.7215 24.4898 20.6837 24.499 20.6465 24.51H20.0449L22.2041 23.8374Z" stroke="#662D91" stroke-width="0.9"/>
<path d="M23.8204 9.84682L23.8201 9.84639C22.329 7.69378 20.3261 6.29346 17.7952 5.63368L23.8204 9.84682ZM23.8204 9.84682C24.6515 11.0437 25.1776 12.3715 25.4463 13.8122L25.4464 13.8124M23.8204 9.84682L25.4464 13.8124M25.4464 13.8124C25.4651 13.9124 25.4491 13.9622 25.4416 13.978C25.4379 13.9858 25.4342 13.9902 25.4302 13.9938C25.4261 13.9975 25.4168 14.0046 25.3977 14.0117L25.3973 14.0119M25.4464 13.8124L25.3973 14.0119M25.3973 14.0119C25.3727 14.0211 25.3376 14.0227 25.3058 14.0125C25.2882 14.0068 25.2796 14.0005 25.2759 13.9971C25.2275 13.8867 25.1929 13.7708 25.1729 13.6519L25.171 13.6406M25.3973 14.0119L25.171 13.6406M25.171 13.6406L25.1686 13.6295M25.171 13.6406L25.1686 13.6295M25.1686 13.6295C24.4151 10.2164 22.4053 7.80276 19.2443 6.36601C18.5218 6.03753 17.7634 5.85301 17.0279 5.70518L17.0276 5.70511M25.1686 13.6295L17.0276 5.70511M17.0276 5.70511C16.9562 5.69082 16.9242 5.65067 16.9128 5.6203C16.9067 5.60414 16.9061 5.59003 16.908 5.57899C16.9097 5.5695 16.9143 5.55561 16.9299 5.538C16.9305 5.53742 16.9346 5.53334 16.9448 5.52613C16.9571 5.51735 16.9743 5.50673 16.9991 5.49326C17.0116 5.48642 17.024 5.47998 17.0374 5.47311M17.0276 5.70511L17.0374 5.47311M17.0374 5.47311C17.1055 5.48677 17.1698 5.49939 17.2313 5.51146C17.4388 5.55219 17.6143 5.58664 17.795 5.63362L17.0374 5.47311Z" stroke="#662D91" stroke-width="0.9"/>
<path d="M17.7753 9.31349L17.7757 9.31362C19.8648 10.073 21.1915 11.5064 21.7692 13.6554C21.8017 13.7766 21.8282 13.9035 21.8522 14.0367L21.8521 14.0367L21.8539 14.0458C21.8603 14.0772 21.8543 14.1099 21.8373 14.137C21.8208 14.1633 21.7952 14.1824 21.7654 14.1908C21.7387 14.1965 21.7108 14.192 21.6871 14.1782C21.6625 14.1638 21.6445 14.1406 21.6367 14.1133L21.6367 14.1133L21.6342 14.1049C21.5982 13.9879 21.5693 13.8707 21.5369 13.7397C21.5281 13.7041 21.5191 13.6675 21.5096 13.6296C21.4671 13.4602 21.4168 13.2715 21.3439 13.0848L21.3438 13.0845C20.5463 11.0455 19.053 9.78237 16.9065 9.32952L16.9065 9.32952L16.9056 9.32932C16.8099 9.30936 16.7727 9.26914 16.7616 9.25212C16.7533 9.23941 16.7435 9.21786 16.7586 9.17186L16.7586 9.17187L16.7601 9.16695C16.7656 9.14961 16.7726 9.14011 16.7889 9.12979C16.8067 9.11858 16.8505 9.09836 16.9358 9.0925C17.011 9.11108 17.086 9.12806 17.1611 9.14509C17.3615 9.1905 17.5634 9.23624 17.7753 9.31349Z" stroke="#662D91" stroke-width="0.9"/>
</svg>
