<svg width="31" height="31" viewBox="0 0 31 31" fill="none" xmlns="http://www.w3.org/2000/svg">
<circle cx="15.5" cy="15.5" r="15.5" fill="#F5F2FE"/>
<path d="M15.8118 25.36C15.6958 25.3598 15.5805 25.3421 15.4699 25.3075C10.8172 23.8758 8.66431 20.9449 7.68252 18.733C7.2254 17.7013 6.99281 16.5842 7.00017 15.4558V6H24.6269V15.4572C24.6336 16.5854 24.4008 17.7022 23.9439 18.7337C22.9614 20.9434 20.8135 23.878 16.1601 25.3075C16.0482 25.3421 15.9318 25.3598 15.8146 25.36H15.8118ZM7.71491 15.6904C7.73815 16.6412 7.94798 17.5781 8.33249 18.4479C9.25597 20.5231 11.2793 23.2805 15.6779 24.6316C15.722 24.646 15.7682 24.6533 15.8146 24.6532C15.8635 24.6533 15.9122 24.6455 15.9586 24.6301C20.3298 23.2863 22.3647 20.5274 23.2961 18.4494C23.68 17.5787 23.8891 16.641 23.9115 15.6897L23.9165 15.4687H20.7883V12.7264H23.9093L23.9172 9.12314H20.7883V6.71115H17.1822V9.11954H14.4427V6.71115H10.8388V9.11954H7.7106V12.7228H10.8388V15.4651H7.70988L7.71491 15.6904Z" fill="#662D91"/>
<path d="M14.259 9.55127V9.30127H14.009H11.2695H11.0195V9.55127V12.2915V12.5415H11.2695H14.009H14.259V12.2915V9.55127Z" fill="#662D91" stroke="#662D91" stroke-width="0.5"/>
<path d="M20.6035 9.55127V9.30127H20.3535H17.6133H17.3633V9.55127V12.2915V12.5415H17.6133H20.3535H20.6035V12.2915V9.55127Z" fill="#662D91" stroke="#662D91" stroke-width="0.5"/>
<path d="M17.4316 12.7219V12.4719H17.1816H14.4414H14.1914V12.7219V15.4614V15.7114H14.4414H17.1816H17.4316V15.4614V12.7219Z" fill="#662D91" stroke="#662D91" stroke-width="0.5"/>
</svg>
