<svg width="38" height="38" viewBox="0 0 38 38" fill="none" xmlns="http://www.w3.org/2000/svg">
<circle cx="19" cy="19" r="19" fill="#F5F2FE"/>
<path d="M15.7033 11.9458C14.7387 10.3189 12.6232 9.77355 10.9783 10.7276C9.33344 11.6817 8.78201 13.774 9.74668 15.4009L16.0214 25.9831C16.9861 27.61 19.1016 28.1554 20.7464 27.2013C22.3913 26.2472 22.9428 24.1549 21.9781 22.528L15.7033 11.9458Z" fill="#489AD7"/>
<path d="M10.7076 13.7949C10.9257 13.7949 11.1026 13.6199 11.1026 13.4042C11.1026 13.1884 10.9257 13.0134 10.7076 13.0134C10.4894 13.0134 10.3125 13.1884 10.3125 13.4042C10.3125 13.6199 10.4894 13.7949 10.7076 13.7949Z" fill="white"/>
<path d="M13.3169 12.2844C13.5351 12.2844 13.712 12.1094 13.712 11.8937C13.712 11.6779 13.5351 11.5029 13.3169 11.5029C13.0987 11.5029 12.9219 11.6779 12.9219 11.8937C12.9219 12.1094 13.0987 12.2844 13.3169 12.2844Z" fill="white"/>
<path d="M14.8365 14.8592C15.0546 14.8592 15.2315 14.6843 15.2315 14.4685C15.2315 14.2527 15.0546 14.0778 14.8365 14.0778C14.6183 14.0778 14.4414 14.2527 14.4414 14.4685C14.4414 14.6843 14.6183 14.8592 14.8365 14.8592Z" fill="white"/>
<path d="M12.2388 16.3703C12.457 16.3703 12.6339 16.1954 12.6339 15.9796C12.6339 15.7638 12.457 15.5889 12.2388 15.5889C12.0206 15.5889 11.8438 15.7638 11.8438 15.9796C11.8438 16.1954 12.0206 16.3703 12.2388 16.3703Z" fill="white"/>
<path d="M12.7779 14.3273C12.996 14.3273 13.1729 14.1524 13.1729 13.9366C13.1729 13.7208 12.996 13.5459 12.7779 13.5459C12.5597 13.5459 12.3828 13.7208 12.3828 13.9366C12.3828 14.1524 12.5597 14.3273 12.7779 14.3273Z" fill="white"/>
<path d="M16.9068 23.7056C17.125 23.7056 17.3018 23.5307 17.3018 23.3149C17.3018 23.0991 17.125 22.9242 16.9068 22.9242C16.6886 22.9242 16.5117 23.0991 16.5117 23.3149C16.5117 23.5307 16.6886 23.7056 16.9068 23.7056Z" fill="white"/>
<path d="M19.5005 22.1938C19.7187 22.1938 19.8956 22.0189 19.8956 21.8031C19.8956 21.5873 19.7187 21.4124 19.5005 21.4124C19.2823 21.4124 19.1055 21.5873 19.1055 21.8031C19.1055 22.0189 19.2823 22.1938 19.5005 22.1938Z" fill="white"/>
<path d="M21.0318 24.77C21.2499 24.77 21.4268 24.595 21.4268 24.3793C21.4268 24.1635 21.2499 23.9885 21.0318 23.9885C20.8136 23.9885 20.6367 24.1635 20.6367 24.3793C20.6367 24.595 20.8136 24.77 21.0318 24.77Z" fill="white"/>
<path d="M18.4263 26.2805C18.6445 26.2805 18.8214 26.1055 18.8214 25.8897C18.8214 25.674 18.6445 25.499 18.4263 25.499C18.2081 25.499 18.0312 25.674 18.0312 25.8897C18.0312 26.1055 18.2081 26.2805 18.4263 26.2805Z" fill="white"/>
<path d="M18.9654 24.2381C19.1835 24.2381 19.3604 24.0632 19.3604 23.8474C19.3604 23.6316 19.1835 23.4567 18.9654 23.4567C18.7472 23.4567 18.5703 23.6316 18.5703 23.8474C18.5703 24.0632 18.7472 24.2381 18.9654 24.2381Z" fill="white"/>
<g style="mix-blend-mode:multiply">
<path d="M16.0212 22.5289C15.0445 24.1487 15.5804 26.245 17.2181 27.211C18.8559 28.177 20.9754 27.6469 21.9521 26.0271L28.3051 15.4907C29.2818 13.8708 28.7459 11.7746 27.1081 10.8086C25.4703 9.8426 23.3509 10.3726 22.3742 11.9925L16.0212 22.5289Z" fill="#9CD377"/>
</g>
<path d="M22.0871 17.4244L23.0392 18.3008C23.6397 15.2791 25.9357 12.587 26.613 11.8452C26.6374 11.8186 26.667 11.7971 26.6999 11.782C26.7328 11.7669 26.7684 11.7584 26.8047 11.7571C26.8409 11.7558 26.8771 11.7617 26.911 11.7744C26.9449 11.7871 26.976 11.8064 27.0022 11.8311L27.1852 12.003C27.2356 12.0505 27.2657 12.1153 27.2695 12.1841C27.2732 12.2529 27.2502 12.3205 27.2052 12.373C24.4565 15.6244 24.0114 19.0335 23.9546 19.5953C23.9497 19.6485 23.9267 19.6986 23.8894 19.7373L23.2747 20.3808C23.2508 20.4069 23.2213 20.4274 23.1885 20.441C23.1556 20.4546 23.1201 20.4609 23.0846 20.4595C23.049 20.4581 23.0141 20.449 22.9825 20.4328C22.9509 20.4166 22.9232 20.3938 22.9014 20.366L21.5434 18.5883C21.5434 18.5883 21.363 18.3644 20.7624 18.1323C20.7324 18.1209 20.7057 18.1023 20.6847 18.0783C20.6636 18.0543 20.6488 18.0255 20.6417 17.9945C20.6345 17.9635 20.6351 17.9312 20.6435 17.9005C20.6519 17.8698 20.6678 17.8416 20.6898 17.8184L21.0339 17.4591C21.1691 17.3167 21.3559 17.2331 21.5532 17.2266C21.7506 17.2201 21.9426 17.2912 22.0871 17.4244Z" fill="white"/>
<path d="M16.406 16.0637C16.546 16.0638 16.6836 16.0998 16.8054 16.1681C16.9272 16.2364 17.029 16.3348 17.1009 16.4536L18.7496 19.1895C18.8586 19.3714 18.8904 19.5886 18.838 19.7935C18.7855 19.9985 18.6532 20.1746 18.4698 20.2832L15.7036 21.9172C15.5194 22.0255 15.2992 22.0571 15.0914 22.0051C14.8836 21.953 14.7052 21.8216 14.5953 21.6396L12.9466 18.9037C12.8916 18.8135 12.8552 18.7135 12.8395 18.6093C12.8238 18.5051 12.8291 18.3989 12.8552 18.2968C12.8812 18.1946 12.9274 18.0986 12.9911 18.0142C13.0548 17.9298 13.1348 17.8587 13.2264 17.8051L15.9926 16.1736C16.1186 16.0987 16.2631 16.0595 16.4102 16.0604M16.4102 15.8126C16.2194 15.8128 16.0321 15.8639 15.8681 15.9605L13.0978 17.5953C12.8569 17.7378 12.683 17.969 12.6143 18.2381C12.5456 18.5073 12.5876 18.7924 12.7311 19.0309L14.3848 21.7701C14.4559 21.8882 14.5499 21.9913 14.6613 22.0735C14.7727 22.1556 14.8995 22.2152 15.0342 22.2489C15.1689 22.2826 15.3091 22.2897 15.4466 22.2698C15.5841 22.2498 15.7163 22.2033 15.8356 22.1328L18.6018 20.5021C18.8429 20.3599 19.0171 20.1288 19.086 19.8596C19.155 19.5903 19.113 19.3051 18.9693 19.0665L17.3197 16.3306C17.2256 16.175 17.0923 16.0462 16.933 15.9566C16.7736 15.867 16.5935 15.8197 16.4102 15.8192V15.8126Z" fill="white"/>
</svg>
