<svg width="161" height="90" viewBox="0 0 161 90" fill="none" xmlns="http://www.w3.org/2000/svg">
<path d="M159.981 12.9529C141.495 0.707782 116.308 -1.46561 94.8857 1.64825C85.1774 3.00662 75.7158 5.74185 66.7861 9.77149C57.7891 7.81427 48.481 11.5285 41.171 16.6702C24.7263 28.231 8.63664 50.6984 11.5888 71.8111C9.02942 68.5759 5.99009 65.7511 2.57684 63.4352C2.33974 63.2981 2.06498 63.2411 1.79334 63.2724C1.52169 63.3038 1.26764 63.422 1.06887 63.6094C0.870097 63.7968 0.73721 64.0435 0.68991 64.3128C0.642611 64.5821 0.683426 64.8598 0.806305 65.1045C5.16263 73.2721 12.4307 79.6646 16.7376 88.0475C18.0523 90.6466 21.3619 89.7618 22.3362 87.4934C24.8634 81.1392 28.4921 75.2834 33.0555 70.1947C35.8298 67.136 31.6653 62.5629 28.5814 65.4494C24.9459 68.8536 21.9158 72.8515 19.6202 77.2729C14.9757 56.9756 25.6527 38.0928 41.6343 24.8807C45.9854 21.105 51.1094 18.3251 56.6497 16.7344C51.6128 21.6099 49.3011 27.8811 52.3861 35.7711C59.367 53.5492 87.4216 47.0291 84.7062 27.9078C84.1983 25.0059 83.0989 22.238 81.4764 19.7764C79.8539 17.3148 77.7431 15.2122 75.2753 13.5995C83.5047 10.4403 92.0957 8.3121 100.853 7.26345C121.227 4.80036 139.953 9.29024 159.376 14.8315C159.625 14.9125 159.896 14.8912 160.129 14.7723C160.362 14.6534 160.538 14.4467 160.618 14.1976C160.699 13.9484 160.677 13.6773 160.557 13.4439C160.438 13.2105 160.23 13.0338 159.981 12.9529ZM70.897 18.5712C74.283 20.757 77.4673 24.3351 78.079 28.4195C78.2485 29.9584 78.0671 31.5148 77.5484 32.9717C77.0296 34.4286 76.187 35.7479 75.0839 36.8306C73.9809 37.9132 72.646 38.731 71.1798 39.2224C69.7136 39.7137 68.1543 39.8659 66.6189 39.6674C59.4464 38.7529 55.764 30.5193 59.1267 24.2696C61.1075 21.0529 63.9768 18.4795 67.3894 16.8588C68.6234 17.2852 69.8013 17.8602 70.897 18.5712Z" fill="#662D91"/>
</svg>
