<svg width="161" height="90" viewBox="0 0 161 90" fill="none" xmlns="http://www.w3.org/2000/svg">
<path d="M1.09694 12.9529C19.5835 0.707782 44.7705 -1.46561 66.1925 1.64825C75.9007 3.00662 85.3623 5.74185 94.292 9.77149C103.289 7.81427 112.597 11.5285 119.907 16.6702C136.352 28.231 152.441 50.6984 149.489 71.8111C152.049 68.5759 155.088 65.7511 158.501 63.4352C158.738 63.2981 159.013 63.2411 159.285 63.2724C159.556 63.3038 159.81 63.422 160.009 63.6094C160.208 63.7968 160.341 64.0435 160.388 64.3128C160.436 64.5821 160.395 64.8598 160.272 65.1045C155.915 73.2721 148.647 79.6646 144.34 88.0475C143.026 90.6466 139.716 89.7618 138.742 87.4934C136.215 81.1392 132.586 75.2834 128.023 70.1947C125.248 67.136 129.413 62.5629 132.497 65.4494C136.132 68.8536 139.162 72.8515 141.458 77.2729C146.102 56.9756 135.425 38.0928 119.444 24.8807C115.093 21.105 109.969 18.3251 104.428 16.7344C109.465 21.6099 111.777 27.8811 108.692 35.7711C101.711 53.5492 73.6566 47.0291 76.3719 27.9078C76.8798 25.0059 77.9792 22.238 79.6017 19.7764C81.2242 17.3148 83.335 15.2122 85.8028 13.5995C77.5735 10.4403 68.9824 8.3121 60.2251 7.26345C39.8513 4.80036 21.1253 9.29024 1.70255 14.8315C1.45325 14.9125 1.18226 14.8912 0.949192 14.7723C0.716121 14.6534 0.54006 14.4467 0.459755 14.1976C0.379445 13.9484 0.401462 13.6773 0.520953 13.4439C0.640449 13.2105 0.847636 13.0338 1.09694 12.9529ZM90.1811 18.5712C86.7951 20.757 83.6108 24.3351 82.9992 28.4195C82.8296 29.9584 83.011 31.5148 83.5298 32.9717C84.0485 34.4286 84.8911 35.7479 85.9942 36.8306C87.0973 37.9132 88.4321 38.731 89.8983 39.2224C91.3645 39.7137 92.9239 39.8659 94.4592 39.6674C101.632 38.7529 105.314 30.5193 101.951 24.2696C99.9706 21.0529 97.1014 18.4795 93.6887 16.8588C92.4547 17.2852 91.2768 17.8602 90.1811 18.5712Z" fill="#662D91"/>
</svg>
