<svg width="39" height="39" viewBox="0 0 39 39" fill="none" xmlns="http://www.w3.org/2000/svg">
<circle cx="19.7875" cy="19.4063" r="18.8696" fill="white"/>
<path d="M32.7816 18.5336C32.7816 17.6904 32.3679 17.2224 31.6423 17.2147C31.3628 17.2147 31.0832 17.2353 30.8071 17.2056C30.6682 17.1896 30.5386 17.1174 30.4414 17.0019C29.9719 16.3572 29.5246 15.6816 29.064 15.0241C27.0302 12.1256 24.405 10.6274 21.1626 10.6016C18.3674 10.581 15.9288 11.6331 13.9644 13.9539C13.1694 14.8913 12.4908 15.9627 11.7663 16.9787C11.7202 17.0564 11.6588 17.1204 11.587 17.1652C11.5153 17.2101 11.4353 17.2345 11.3537 17.2366C10.3644 17.2775 9.42652 17.7553 8.73415 18.5713C8.04178 19.3872 7.64787 20.4789 7.63388 21.6203C7.62269 22.8736 7.63388 24.1255 7.63388 25.3788C7.63388 25.8068 7.7658 25.9628 8.13253 25.9641C8.7922 25.9641 9.45185 25.9641 10.1104 25.9641C10.5856 25.9641 10.6762 25.8648 10.7063 25.3195C10.8293 23.1392 12.7513 21.7093 14.5078 22.5074C15.6326 23.0231 16.214 24.0288 16.3045 25.4174C16.3314 25.8365 16.4499 25.9603 16.8144 25.9603H22.3566C22.7032 25.9603 22.8162 25.8197 22.8542 25.4316C22.8753 25.123 22.9232 24.8176 22.9973 24.5201C23.4132 23.0231 24.6588 22.1245 26.0295 22.3127C27.3399 22.4919 28.3484 23.7645 28.4524 25.3697C28.4837 25.8494 28.5866 25.9603 29.0114 25.9615H31.4902C32.4171 25.9615 32.7883 25.5322 32.7883 24.4633C32.7883 23.9476 32.7883 23.4215 32.7883 22.8645V21.5907C32.7827 20.5669 32.7872 19.5509 32.7816 18.5336ZM32.0157 24.6529C32.0157 24.9107 31.924 25.0629 31.6858 25.0629H29.2127C29.0506 23.7864 28.5296 22.7653 27.5937 22.0548C26.9194 21.5463 26.1146 21.3189 25.3128 21.4102C23.6827 21.5585 22.4059 22.9935 22.0973 25.0435H17.0604C16.7518 22.6402 15.0478 21.3999 13.515 21.3921C12.0179 21.3921 10.2725 22.5706 9.93712 25.0474H8.40195V24.7521C8.40195 23.7671 8.40195 22.7833 8.40195 21.797C8.40978 19.6773 9.7079 18.1468 11.5427 18.1172C11.68 18.1217 11.8161 18.0869 11.9388 18.0158C12.0616 17.9447 12.1671 17.8395 12.2459 17.7098C12.8955 16.7621 13.5261 15.7886 14.2338 14.899C16.0954 12.5576 18.4401 11.4681 21.1838 11.4977C24.2362 11.5287 26.6769 12.9792 28.5631 15.728C29.0237 16.3998 29.4956 17.0612 29.9473 17.742C30.0179 17.8669 30.1165 17.9674 30.2326 18.033C30.3487 18.0986 30.4781 18.1268 30.6069 18.1146C30.949 18.094 31.2934 18.1146 31.6367 18.1069C31.8927 18.1004 32.0168 18.2255 32.0168 18.5233C32.0191 20.5648 32.0202 22.608 32.0202 24.6529H32.0157Z" fill="#662D91"/>
<path d="M13.4934 22.8044C13.1844 22.8057 12.8788 22.8774 12.5939 23.0152C12.3091 23.153 12.0506 23.3542 11.8333 23.6074C11.616 23.8606 11.4442 24.1608 11.3277 24.4907C11.2112 24.8206 11.1523 25.1738 11.1543 25.53C11.1623 26.2493 11.4172 26.9356 11.8632 27.4386C12.3092 27.9415 12.9098 28.2201 13.5336 28.2132C14.1518 28.2054 14.7425 27.9166 15.1772 27.4097C15.612 26.9028 15.8559 26.2186 15.8558 25.5056C15.8551 25.1491 15.7934 24.7963 15.6741 24.4675C15.5549 24.1386 15.3805 23.8402 15.161 23.5892C14.9415 23.3382 14.6813 23.1397 14.3951 23.005C14.1089 22.8704 13.8024 22.8022 13.4934 22.8044V22.8044ZM13.5045 27.3171C13.0881 27.3181 12.6883 27.1287 12.3927 26.7903C12.0972 26.4519 11.9301 25.9922 11.928 25.512C11.9277 25.2713 11.9689 25.0329 12.0491 24.8107C12.1293 24.5885 12.247 24.3868 12.3953 24.2175C12.5436 24.0481 12.7196 23.9144 12.9131 23.8241C13.1066 23.7338 13.3137 23.6887 13.5224 23.6914C13.9392 23.6962 14.3374 23.8906 14.6306 24.2322C14.9237 24.5739 15.088 25.0352 15.0877 25.5159C15.0844 25.997 14.9161 26.4571 14.6193 26.7954C14.3226 27.1337 13.9218 27.3227 13.5045 27.3209V27.3171Z" fill="#662D91"/>
<path d="M25.6488 22.8043C25.3396 22.8043 25.0334 22.8748 24.7479 23.0116C24.4624 23.1484 24.2031 23.3488 23.9849 23.6015C23.7668 23.8541 23.5941 24.154 23.4766 24.4838C23.3592 24.8137 23.2995 25.167 23.3008 25.5236C23.3079 26.2428 23.5617 26.9296 24.0068 27.4337C24.4518 27.9377 25.0519 28.218 25.6756 28.2131C26.2944 28.2047 26.8855 27.9161 27.3214 27.4095C27.7573 26.903 28.0031 26.2191 28.0057 25.5055C28.0049 25.1496 27.9434 24.7974 27.8245 24.4689C27.7056 24.1405 27.5317 23.8423 27.3128 23.5915C27.0939 23.3406 26.8343 23.1419 26.5487 23.0069C26.2632 22.8718 25.9574 22.803 25.6488 22.8043V22.8043ZM25.66 27.317C25.2426 27.3184 24.8417 27.1294 24.5447 26.7913C24.2477 26.4531 24.0786 25.9932 24.0745 25.512C24.0739 25.2712 24.1147 25.0327 24.1946 24.8102C24.2744 24.5877 24.3916 24.3857 24.5396 24.2158C24.6875 24.0459 24.8632 23.9115 25.0565 23.8204C25.2497 23.7293 25.4567 23.6833 25.6655 23.685C26.0826 23.6874 26.4819 23.8798 26.7764 24.2204C27.0709 24.561 27.2367 25.022 27.2375 25.5029C27.2369 25.9857 27.0703 26.4484 26.774 26.7895C26.4778 27.1306 26.0763 27.3222 25.6577 27.3222L25.66 27.317Z" fill="#662D91"/>
<path d="M20.6657 12.8616C20.6657 12.5109 20.4812 12.3265 20.1849 12.3614C18.9736 12.4964 17.8004 12.9233 16.7412 13.6146C15.3291 14.5339 14.3419 15.9444 13.387 17.3975C13.197 17.6863 13.3457 18.0306 13.6598 18.0899C13.7517 18.1037 13.8445 18.1084 13.9371 18.1041H16.9693C18.027 18.1041 19.0843 18.1041 20.1413 18.1041C20.5169 18.1041 20.6634 17.9584 20.6646 17.5793C20.6683 16.0055 20.6687 14.4329 20.6657 12.8616ZM19.8752 17.1951H14.5554C15.3481 15.3745 17.9912 13.456 19.8752 13.318V17.1951Z" fill="#662D91"/>
<path d="M28.6669 17.2143C28.4433 16.8997 28.2196 16.5812 28.0072 16.2614C26.4978 14.0334 24.5535 12.6848 22.0937 12.3766C21.6521 12.3212 21.5 12.4643 21.5 12.9852C21.5 14.4714 21.5 15.9576 21.5 17.4438C21.5 17.9724 21.6118 18.1 22.0792 18.1013H28.2833C28.4902 18.1013 28.7015 18.1013 28.8133 17.8435C28.9251 17.5856 28.8044 17.4051 28.6669 17.2143ZM22.2938 17.1936V13.3462C23.8591 13.2341 26.888 15.4272 27.6125 17.2014L22.2938 17.1936Z" fill="#662D91"/>
</svg>
