<svg width="39" height="39" viewBox="0 0 39 39" fill="none" xmlns="http://www.w3.org/2000/svg">
<circle cx="19.7719" cy="19.5938" r="18.8696" fill="white"/>
<path d="M13.1031 34.27C12.8849 34.2071 12.671 34.13 12.4627 34.0394C11.768 33.6872 11.3414 33.1169 11.2746 32.3378C11.1911 31.3768 11.1594 30.409 11.1076 29.4488C11.1017 29.3457 11.0976 29.2425 11.0959 29.2048C10.8037 29.2048 10.5239 29.2501 10.2609 29.1972C9.30992 29.0018 8.96759 27.8555 9.6389 27.1334C10.0029 26.7426 10.3904 26.3787 10.7627 25.9921C10.8408 25.9151 10.8885 25.8123 10.8972 25.7028C10.8504 24.6252 10.787 23.5475 10.7302 22.4691C10.7218 22.2963 10.6801 22.184 10.5039 22.0942C10.2117 21.9458 10.0781 21.6699 10.0756 21.3395C10.0722 20.9856 10.0722 20.632 10.0756 20.2786C10.0756 19.6681 10.4137 19.3277 11.0266 19.3101C11.0817 19.3101 11.1368 19.3017 11.1936 19.2966C10.4254 17.5414 11.915 15.9078 13.6467 16.3791C14.1101 15.0558 15.0102 14.2918 16.4455 14.3908C17.6695 14.4746 18.4235 15.2185 18.8009 16.364C19.0356 16.3281 19.2724 16.307 19.5098 16.3011C19.7961 16.3086 20.0777 16.3771 20.3358 16.502C20.5938 16.6269 20.8226 16.8054 21.0069 17.0257C21.0392 17.059 21.0783 17.085 21.1215 17.1019C21.1647 17.1188 21.211 17.1263 21.2573 17.1238C22.6492 16.8907 23.5677 17.8651 23.2571 19.2815C23.318 19.2916 23.3773 19.3042 23.4382 19.3117C23.91 19.3662 24.2256 19.6858 24.2432 20.1596C24.2582 20.5697 24.2515 20.9814 24.2432 21.3915C24.2356 21.7269 24.0695 21.9651 23.7814 22.1311C23.7111 22.1822 23.6518 22.2469 23.6069 22.3215C23.5885 22.3475 23.6019 22.3961 23.5994 22.4347C23.5551 23.2918 23.5109 24.148 23.4666 25.0118C23.8724 24.844 24.2565 24.6914 24.6356 24.5262C24.6638 24.5069 24.6879 24.4821 24.7064 24.4533C24.7249 24.4245 24.7374 24.3923 24.7433 24.3585C24.7546 24.2734 24.7563 24.1873 24.7483 24.1019C24.7483 18.2076 24.7483 12.313 24.7483 6.41813C24.7483 5.64074 25.1324 5.11074 25.8054 4.9514C26.5844 4.76775 27.4035 5.34975 27.416 6.1523C27.441 7.74565 27.4277 9.339 27.4235 10.9382C27.4263 10.9935 27.418 11.0487 27.3991 11.1007C27.3801 11.1526 27.351 11.2002 27.3134 11.2406C27.2757 11.281 27.2304 11.3134 27.18 11.3358C27.1296 11.3582 27.0753 11.3701 27.0202 11.371C26.9628 11.3731 26.9056 11.3636 26.852 11.3429C26.7984 11.3223 26.7495 11.291 26.7082 11.2509C26.6669 11.2108 26.6342 11.1627 26.6119 11.1095C26.5896 11.0564 26.5783 10.9993 26.5785 10.9416C26.5635 10.6363 26.5735 10.3302 26.5727 10.0241V9.70212H25.6225V24.3056H26.5727V23.9702C26.5727 20.3877 26.5727 16.8051 26.5727 13.2226C26.5661 13.1084 26.5731 12.9938 26.5935 12.8813C26.6095 12.7801 26.6639 12.6892 26.7454 12.6277C26.8269 12.5662 26.9291 12.5389 27.0302 12.5517C27.132 12.5525 27.2296 12.5929 27.3024 12.6643C27.3753 12.7358 27.4178 12.8328 27.421 12.935C27.4288 13.0399 27.4307 13.1451 27.4268 13.2503C27.4268 16.8898 27.4254 20.5297 27.4227 24.1698C27.4227 24.3979 27.4694 24.5094 27.7107 24.5891C29.2328 25.1074 30.158 26.1665 30.3909 27.7708C30.6414 29.526 30.866 31.2871 31.0731 33.049C31.1566 33.7459 31.0004 33.9614 30.3876 34.2683L13.1031 34.27ZM22.7603 22.2309C21.8092 22.2309 20.8983 22.2393 19.9874 22.2259C19.6484 22.2209 19.4446 22.3475 19.2994 22.6595C18.8026 23.7245 17.7129 24.2394 16.5757 23.9501C16.5071 23.9237 16.4318 23.9199 16.3609 23.9391C16.2899 23.9584 16.2268 23.9998 16.1808 24.0574C15.8602 24.3979 15.5287 24.7283 15.1922 25.0503C14.9977 25.2365 14.7463 25.2289 14.5802 25.0562C14.5042 24.9757 14.4619 24.869 14.4619 24.7581C14.4619 24.6472 14.5042 24.5405 14.5802 24.4599C14.6286 24.4012 14.6854 24.3501 14.7388 24.2922C15.5398 23.4888 16.34 22.6849 17.1393 21.8804C17.409 21.6095 17.4449 21.4015 17.2562 21.2187C17.0675 21.0359 16.8638 21.0862 16.5949 21.3546L16.534 21.415C14.49 23.469 12.446 25.5227 10.4021 27.5762C10.3179 27.6529 10.245 27.7413 10.1858 27.8387C10.0664 28.0668 10.2292 28.3662 10.4822 28.3544C10.6291 28.3383 10.7662 28.2727 10.8713 28.1683C11.5994 27.4538 12.3141 26.7267 13.0347 26.0047C13.2918 25.7464 13.5356 25.712 13.7285 25.8998C13.9214 26.0877 13.8955 26.3493 13.6317 26.6177C13.2701 26.9842 12.932 27.38 12.5362 27.7079C12.0352 28.1171 11.7722 28.5775 11.9517 29.2333C11.9642 29.3182 11.9678 29.4042 11.9626 29.4899C12.0152 30.4124 12.0461 31.3416 12.1296 32.264C12.158 32.5775 12.3024 32.8689 12.5343 33.0807C12.7661 33.2924 13.0686 33.4092 13.382 33.4079C15.9119 33.4152 18.4416 33.4152 20.9709 33.4079C21.2936 33.4017 21.6023 33.2743 21.836 33.0507C22.0697 32.8272 22.2115 32.5237 22.2334 32.2003C22.2618 31.8288 22.2743 31.4565 22.2944 31.0841C22.4012 29.0916 22.5081 27.0985 22.615 25.1048C22.6626 24.1597 22.7093 23.2155 22.7603 22.2309ZM28.0464 33.3945C27.8744 32.3806 27.7124 31.3944 27.5396 30.409C27.4845 30.0895 27.5796 29.8748 27.8209 29.8086C28.0764 29.7398 28.296 29.8874 28.3678 30.2086C28.4655 30.6455 28.5582 31.085 28.6258 31.5277C28.7202 32.1475 28.7928 32.7706 28.8688 33.3878H30.3125C30.1029 31.6955 29.895 30.0333 29.6921 28.388H23.3063C23.2946 28.4777 23.2788 28.5515 23.2746 28.6262C23.2303 29.4849 23.1986 30.3445 23.141 31.2015C23.0917 31.9454 23.1752 32.7194 22.6659 33.3895H23.3522C23.3623 33.2754 23.3648 33.1806 23.379 33.0875C23.5293 32.1265 23.6737 31.1646 23.8357 30.2061C23.8883 29.8966 24.1045 29.7516 24.355 29.8036C24.6055 29.8556 24.7308 30.0912 24.6606 30.4116C24.6197 30.5977 24.5713 30.7831 24.5421 30.9709C24.4185 31.7701 24.3008 32.5701 24.1772 33.3936H25.6684V33.0649C25.6684 32.1575 25.6684 31.2493 25.6684 30.3419C25.6684 29.9839 25.8354 29.791 26.1109 29.7977C26.3773 29.8036 26.5217 29.9889 26.5217 30.3369C26.5217 31.2544 26.5217 32.1718 26.5217 33.0884V33.3945H28.0464ZM17.2754 19.3109C18.8543 19.3109 20.4332 19.3059 22.0121 19.3168C22.1011 19.3258 22.1906 19.3038 22.2654 19.2545C22.3402 19.2052 22.3958 19.1315 22.4229 19.0459C22.4882 18.8963 22.5063 18.7302 22.4748 18.5699C22.4433 18.4097 22.3637 18.2629 22.2468 18.1494C22.1219 18.0296 21.961 17.9547 21.7893 17.9364C21.6176 17.918 21.4446 17.9573 21.2974 18.048C20.8849 18.2769 20.7296 18.2308 20.5075 17.8123C20.4334 17.662 20.3283 17.5292 20.1992 17.4228C20.0701 17.3164 19.9199 17.2389 19.7587 17.1952C19.5974 17.1516 19.4288 17.143 19.2639 17.1698C19.0991 17.1967 18.9418 17.2585 18.8026 17.3511C18.3417 17.6437 18.0402 17.4844 18.0169 16.9318C17.9973 16.4736 17.8024 16.0407 17.4727 15.7234C17.1431 15.406 16.7042 15.2288 16.2476 15.2286C15.7909 15.2237 15.3501 15.3971 15.018 15.7121C14.686 16.0271 14.4886 16.4592 14.4675 16.9175C14.4366 17.4861 14.1493 17.6379 13.6659 17.3368C13.4322 17.1848 13.1524 17.1209 12.8763 17.1567C12.6001 17.1925 12.3456 17.3256 12.158 17.5322C11.9723 17.7405 11.8642 18.007 11.8521 18.2863C11.8399 18.5656 11.9244 18.8405 12.0912 19.0643C12.1418 19.1438 12.2126 19.2082 12.2962 19.2511C12.3799 19.294 12.4733 19.3138 12.5671 19.3084C14.1301 19.305 15.7024 19.3092 17.2721 19.3092L17.2754 19.3109ZM10.9498 21.3705C12.112 21.3705 13.2417 21.3647 14.3731 21.3756C14.596 21.3756 14.8181 21.4594 15.0411 21.4762C15.1399 21.4908 15.2406 21.4684 15.3241 21.4133C15.6047 21.1558 15.8627 20.8741 16.1374 20.6107C16.2951 20.4489 16.4955 20.3354 16.715 20.2836C16.9346 20.2318 17.1642 20.2437 17.3773 20.3181C17.5754 20.3805 17.7543 20.4926 17.8973 20.6438C18.0403 20.795 18.1426 20.9802 18.1946 21.1821C18.2465 21.384 18.2465 21.5958 18.1943 21.7977C18.1422 21.9995 18.0398 22.1847 17.8966 22.3358C17.6512 22.6058 17.3865 22.8599 17.1093 23.1433C17.7405 23.192 18.2498 22.8859 18.5287 22.2821C18.8251 21.6473 19.3052 21.3596 19.9991 21.3672C21.0252 21.3806 22.0522 21.3672 23.0784 21.3672H23.3873V20.1822H10.9465L10.9498 21.3705ZM23.3481 27.4924H29.4583C29.3077 26.8392 28.9261 26.2632 28.3845 25.8713C27.1154 24.9354 25.0656 24.9489 23.8006 25.8847C23.5192 26.0936 23.3481 26.3208 23.3765 26.6915C23.3932 26.9447 23.3564 27.2039 23.3447 27.4907L23.3481 27.4924ZM11.7238 24.9061L14.3648 22.2511H11.5818C11.6253 23.1643 11.6754 24.0583 11.7204 24.9044L11.7238 24.9061ZM26.5434 8.8132C26.5598 8.78251 26.571 8.74937 26.5769 8.71508C26.5769 7.89408 26.5852 7.07308 26.5718 6.25293C26.5718 6.13384 26.5025 5.96026 26.4124 5.91162C26.2608 5.83026 26.087 5.80081 25.9172 5.82776C25.701 5.87304 25.615 6.07933 25.6133 6.29402C25.6091 6.87601 25.6133 7.45801 25.6133 8.04084V8.81236L26.5434 8.8132Z" fill="#662D91"/>
</svg>
