<svg width="39" height="39" viewBox="0 0 39 39" fill="none" xmlns="http://www.w3.org/2000/svg">
<circle cx="19.809" cy="19.5938" r="18.8696" fill="white"/>
<path d="M15.3557 13.2014H13.4609V14.6511H15.3557V13.2014Z" fill="#662D91"/>
<path d="M15.3695 16.1548H13.4609V17.5999H15.3695V16.1548Z" fill="#662D91"/>
<path d="M26.9879 16.1548H25.0898V17.6006H26.9879V16.1548Z" fill="#662D91"/>
<path d="M15.359 19.1031H13.4609V20.5505H15.359V19.1031Z" fill="#662D91"/>
<path d="M25.0898 20.5575H26.9879V19.1096H25.0898V20.5575Z" fill="#662D91"/>
<path d="M15.3587 22.058H13.4609V23.5058H15.3587V22.058Z" fill="#662D91"/>
<path d="M26.9879 22.058H25.0898V23.5067H26.9879V22.058Z" fill="#662D91"/>
<path d="M25.0898 26.4619H26.9817V25.0063H25.0898V26.4619Z" fill="#662D91"/>
<path d="M19.2417 14.651V14.0031V13.1949H17.3457V14.651H18.0929H19.2417Z" fill="#662D91"/>
<path d="M18.8848 17.6003H19.2459V16.1548H18.8848H17.6903H17.3457V17.6003H17.6903H18.8848Z" fill="#662D91"/>
<path d="M17.6885 19.1096H17.3457V20.5604H17.6885H18.883H19.2423V19.1096H18.883H17.6885Z" fill="#662D91"/>
<path d="M18.892 23.5056H19.2438V22.058H18.892H17.6975H17.3457V23.5056H17.6975H18.892Z" fill="#662D91"/>
<path d="M32.2106 28.1753H30.899C30.899 28.1621 30.899 28.1489 30.899 28.1354V15.6297C30.899 15.1766 30.663 14.7421 30.243 14.4217C29.823 14.1013 29.2533 13.9213 28.6593 13.9213H22.9627V12.4971C22.9627 12.044 22.7267 11.6095 22.3067 11.2891C21.8867 10.9687 21.317 10.7887 20.723 10.7887H11.9935C11.3995 10.7887 10.8298 10.9687 10.4098 11.2891C9.98973 11.6095 9.75376 12.044 9.75376 12.4971V28.1354C9.75376 28.1489 9.75376 28.1621 9.75376 28.1753H8.24569C8.16725 28.1752 8.08957 28.187 8.0171 28.2099C7.94464 28.2328 7.87882 28.2664 7.82343 28.3088C7.76789 28.351 7.72384 28.4012 7.6938 28.4565C7.66377 28.5118 7.64836 28.571 7.64844 28.6309C7.64844 28.7517 7.71136 28.8676 7.82337 28.953C7.93538 29.0384 8.08729 29.0864 8.24569 29.0864H32.2106C32.369 29.0864 32.5209 29.0384 32.6329 28.953C32.7449 28.8676 32.8078 28.7517 32.8078 28.6309C32.8078 28.51 32.7449 28.3942 32.6329 28.3087C32.5209 28.2233 32.369 28.1753 32.2106 28.1753V28.1753ZM14.5441 28.1753V26.019H18.219V28.1753H14.5441ZM21.7709 28.1354C21.7709 28.1489 21.7709 28.1621 21.7709 28.1753H19.4153V25.6812C19.4153 25.6059 19.3959 25.5314 19.3582 25.4618C19.3204 25.3922 19.2651 25.329 19.1953 25.2758C19.1255 25.2226 19.0427 25.1803 18.9515 25.1515C18.8603 25.1227 18.7626 25.1079 18.6639 25.1079H14.103C13.9036 25.1079 13.7124 25.1683 13.5715 25.2758C13.4305 25.3833 13.3513 25.5291 13.3513 25.6812V28.1753H10.9483C10.9483 28.1621 10.9483 28.1489 10.9483 28.1354V12.4992C10.9483 12.2877 11.0584 12.0849 11.2544 11.9354C11.4504 11.7859 11.7163 11.7019 11.9935 11.7019H20.7265C21.0038 11.7019 21.2696 11.7859 21.4656 11.9354C21.6616 12.0849 21.7717 12.2877 21.7717 12.4992L21.7709 28.1354ZM29.7057 28.1354C29.7057 28.1489 29.7057 28.1621 29.7057 28.1753H22.966C22.966 28.1621 22.966 28.1489 22.966 28.1354V14.8345H28.6626C28.9398 14.8345 29.2056 14.9185 29.4017 15.068C29.5977 15.2175 29.7078 15.4203 29.7078 15.6318L29.7057 28.1354Z" fill="#662D91"/>
</svg>
