<svg width="39" height="39" viewBox="0 0 39 39" fill="none" xmlns="http://www.w3.org/2000/svg">
<circle cx="19.2426" cy="19.5938" r="18.8696" fill="white"/>
<path d="M19.1202 31.5026V27.7539H18.5377C18.2817 27.7539 18.2605 27.7338 18.2817 27.4856C18.313 27.1178 18.3488 26.7511 18.3845 26.3676L18.2124 26.3162C17.408 26.0962 16.6952 25.6245 16.1783 24.97C15.6615 24.3155 15.3677 23.5128 15.3402 22.6793C15.3145 21.6865 15.3335 20.6915 15.3324 19.6976C15.3324 19.626 15.3324 19.5533 15.3324 19.4516H14.9444C14.448 19.4516 14.1507 19.152 14.1473 18.66C14.1473 18.5091 14.1473 18.3571 14.1473 18.2061C14.1423 18.1041 14.1588 18.0022 14.1956 17.9069C14.2324 17.8116 14.2887 17.725 14.3609 17.6528C14.4331 17.5806 14.5197 17.5243 14.615 17.4875C14.7103 17.4507 14.8122 17.4342 14.9142 17.4392C15.4732 17.4392 16.0412 17.4392 16.6047 17.4392H16.8283V17.229C16.8283 15.8173 16.8283 14.4053 16.8283 12.9928C16.8283 12.5736 17.1 12.2773 17.4857 12.2796C17.8714 12.2818 18.1352 12.5725 18.1352 12.9839C18.1352 14.3896 18.1352 15.7953 18.1352 17.201V17.4246H21.1952V17.2189C21.1952 15.8002 21.1952 14.3825 21.1952 12.9705C21.1895 12.864 21.2098 12.7577 21.2546 12.6609C21.2994 12.564 21.3673 12.4797 21.4522 12.4152C21.5371 12.3506 21.6366 12.3079 21.7419 12.2907C21.8472 12.2735 21.955 12.2823 22.0561 12.3165C22.1929 12.361 22.3111 12.4497 22.392 12.5687C22.473 12.6877 22.5121 12.8302 22.5033 12.9738C22.5033 14.235 22.5033 15.4957 22.5033 16.7561V17.4269C22.576 17.4269 22.6386 17.4358 22.7023 17.4358C23.2613 17.4358 23.8293 17.4358 24.3939 17.4358C24.8735 17.4358 25.1765 17.7388 25.1765 18.2184C25.1765 18.3761 25.1765 18.5337 25.1765 18.6914C25.1804 18.7918 25.1635 18.892 25.1269 18.9856C25.0902 19.0792 25.0346 19.1642 24.9635 19.2353C24.8925 19.3064 24.8074 19.362 24.7138 19.3986C24.6202 19.4353 24.52 19.4522 24.4196 19.4482C24.2821 19.4482 24.1446 19.4482 23.9925 19.4482V19.6718C23.9925 20.5931 23.9925 21.5143 23.9925 22.4356C23.9925 24.3284 22.8521 25.8299 21.0309 26.3374L20.9426 26.3643C20.9694 26.6639 20.994 26.9635 21.0253 27.2587C21.0846 27.8277 21.0745 27.745 20.5937 27.7495H20.2002V31.9655C20.2002 32.3825 19.9923 32.5893 19.5752 32.5893C13.9002 32.5893 8.80766 28.5846 7.45152 23.0449C6.70761 20.0424 7.0952 16.8711 8.54032 14.1361C9.98544 11.4012 12.3869 9.29401 15.2865 8.21671C17.8241 7.27657 20.5972 7.18 23.194 7.94134C25.7909 8.70268 28.0728 10.2813 29.7011 12.4428C31.4482 14.7348 32.3431 17.5634 32.2322 20.4433C32.0925 25.3625 28.9688 29.8346 24.3916 31.6726C24.168 31.7609 23.9668 31.7687 23.7756 31.6167C23.7003 31.5589 23.6427 31.481 23.6095 31.3921C23.5763 31.3031 23.5688 31.2066 23.5878 31.1136C23.6247 30.8777 23.7846 30.7547 23.9947 30.6664C25.1814 30.1955 26.2782 29.5238 27.237 28.6808C29.4518 26.7243 30.752 24.2769 31.0908 21.341C31.4221 18.4872 30.6747 15.6125 28.9952 13.2815C27.3158 10.9504 24.8256 9.33137 22.0136 8.74218C19.8459 8.29161 17.5943 8.4761 15.5289 9.27351C13.4635 10.0709 11.672 11.4474 10.3695 13.2377C8.95759 15.1633 8.18354 17.4825 8.15587 19.8701C8.1282 22.2578 8.84832 24.5943 10.2153 26.5521C12.07 29.1984 14.6124 30.8005 17.8054 31.3595C18.1923 31.4266 18.588 31.4523 18.9771 31.4959C19.0196 31.506 19.061 31.5026 19.1202 31.5026ZM20.1823 20.0889L20.1477 20.0643L18.4114 22.6692H19.829L19.1292 24.6302L19.1582 24.6436L20.9191 22.0096H19.5093L20.1823 20.0889Z" fill="#662D91"/>
</svg>
