<svg width="39" height="39" viewBox="0 0 39 39" fill="none" xmlns="http://www.w3.org/2000/svg">
<circle cx="19.2387" cy="19.4063" r="18.8696" fill="white"/>
<path d="M13.768 26.7381C13.342 26.7397 12.9255 26.6124 12.5732 26.3727C12.221 26.1331 11.9496 25.7925 11.7946 25.3957C11.7454 25.2648 11.7096 25.2536 11.619 25.2536H11.5854C11.5205 25.2536 11.4567 25.2536 11.3941 25.2536C10.5808 25.2536 9.92971 24.9426 9.45873 24.3307C9.14438 23.9212 8.98776 23.4256 8.98104 22.8137C8.98104 22.6101 8.98104 22.4065 8.98104 22.195C8.98104 22.1436 8.98104 22.0921 8.98104 22.0395H8.7573C8.39326 22.0397 8.03903 21.9216 7.74804 21.7028C7.45705 21.4841 7.2451 21.1766 7.14414 20.8269C7.1338 20.795 7.12184 20.7636 7.10833 20.7329C7.10162 20.715 7.0938 20.6982 7.08708 20.6814L7.07812 20.6557V18.3735V18.3523C7.20789 17.9305 7.42828 17.4148 7.97309 17.1788C8.17304 17.1014 8.38146 17.0481 8.59398 17.0199C8.6611 17.0076 8.72711 16.9964 8.79311 16.983C8.83448 16.9758 8.87641 16.9725 8.91839 16.9729H8.97321V16.8197C8.97321 16.6105 8.97321 16.408 8.97321 16.2055C8.9788 15.3676 9.29317 14.7053 9.90734 14.2355C10.3182 13.9241 10.8217 13.7599 11.337 13.769C11.393 13.769 11.4489 13.769 11.5082 13.769H11.5585C11.6794 13.769 11.7398 13.7511 11.8069 13.5777C12.0933 12.836 12.9256 12.2777 13.749 12.2777C13.8024 12.2775 13.8558 12.2801 13.9089 12.2855C14.3889 12.3174 14.8438 12.5111 15.1994 12.835C15.555 13.1589 15.7903 13.5939 15.8667 14.0688C15.8975 14.3339 15.9106 14.6007 15.9058 14.8675V14.9593C15.9058 15.6171 15.9058 16.2894 15.9058 16.9394V17.5781H23.3911V16.6172C23.3911 16.4013 23.3911 16.1842 23.3911 15.9683C23.3911 15.4884 23.3911 14.9917 23.3911 14.5028C23.3989 13.2555 24.21 12.3773 25.4562 12.2811C25.501 12.2811 25.5457 12.2811 25.5916 12.2811C26.0066 12.2944 26.4088 12.4285 26.7488 12.6669C27.0888 12.9054 27.3518 13.2378 27.5057 13.6235C27.5549 13.7578 27.5974 13.7701 27.697 13.7701H27.7362C27.7954 13.7701 27.8536 13.7701 27.9118 13.7701C28.4857 13.7512 29.0463 13.9453 29.4858 14.3149C30.034 14.7791 30.3159 15.4146 30.3237 16.201C30.3237 16.4046 30.3237 16.6071 30.3237 16.8208V16.983H30.4658C30.5195 16.983 30.5721 16.983 30.6235 16.983C31.0437 16.9962 31.4429 17.1694 31.7396 17.4672C32.0363 17.765 32.2081 18.1648 32.2199 18.585C32.2434 19.2249 32.2434 19.8491 32.2199 20.442C32.2066 20.8672 32.0292 21.2707 31.7249 21.5679C31.4206 21.8651 31.0131 22.0329 30.5877 22.0362C30.5419 22.0362 30.496 22.0362 30.4479 22.0362H30.3248V22.1838C30.3248 22.3919 30.3248 22.5955 30.3248 22.798C30.3248 23.4133 30.1671 23.91 29.855 24.3172C29.6411 24.6118 29.3589 24.8501 29.0328 25.0118C28.7067 25.1735 28.3462 25.2538 27.9823 25.2457H27.8558C27.6321 25.2457 27.5471 25.2849 27.4464 25.5131C27.2858 25.8837 27.0178 26.1976 26.677 26.4144C26.3362 26.6311 25.9382 26.7408 25.5345 26.7291C25.3992 26.729 25.2642 26.7178 25.1307 26.6956C24.2357 26.5513 23.5164 25.7604 23.4079 24.8139C23.3942 24.6719 23.3886 24.5292 23.3911 24.3866V18.6353H15.926V20.4051H22.1907C22.3147 20.4019 22.4386 20.4132 22.5599 20.4387C22.6735 20.462 22.774 20.5275 22.8412 20.6219C22.9085 20.7163 22.9375 20.8327 22.9224 20.9477C22.9209 21.0575 22.88 21.1632 22.8071 21.2453C22.7341 21.3275 22.6341 21.3807 22.5252 21.3952C22.4271 21.4099 22.3279 21.4162 22.2287 21.4142H15.9114V21.5518C15.9114 21.8538 15.9114 22.157 15.9114 22.4602C15.9114 23.1426 15.9114 23.8463 15.9114 24.5398C15.9036 25.5467 15.3129 26.351 14.3687 26.6385C14.1745 26.7012 13.9721 26.7348 13.768 26.7381V26.7381ZM12.1873 16.7458C12.2852 16.7499 12.3791 16.7861 12.4545 16.8488C12.5299 16.9114 12.5826 16.9971 12.6045 17.0926C12.6356 17.2154 12.6492 17.3419 12.6448 17.4685C12.6448 18.7036 12.6448 19.9386 12.6448 21.1737V23.3451C12.6448 23.4491 12.6448 23.5531 12.6448 23.6572C12.6448 23.9928 12.6448 24.3374 12.6549 24.6763C12.6578 24.8609 12.7102 25.0413 12.8066 25.1987C12.903 25.3562 13.0399 25.4848 13.203 25.5713C13.3783 25.6771 13.5789 25.7335 13.7836 25.7346C14.4079 25.7346 14.9023 25.2044 14.9023 24.5275C14.9023 21.4399 14.9023 18.3008 14.9023 15.2647V14.5218C14.9045 14.4114 14.8944 14.3011 14.8722 14.1929C14.8181 13.9467 14.6832 13.7256 14.489 13.5649C14.2948 13.4041 14.0524 13.3129 13.8004 13.3058C13.7695 13.3041 13.7385 13.3041 13.7076 13.3058C13.4276 13.3223 13.164 13.4433 12.9691 13.6449C12.7741 13.8465 12.662 14.1139 12.6549 14.3943C12.6471 14.6113 12.647 14.834 12.6482 15.0499C12.6482 15.2154 12.6482 15.3855 12.6482 15.5578C12.6415 15.8934 12.4457 16.1238 12.1492 16.1294H12.138C11.8293 16.1294 11.6424 15.9113 11.638 15.5466C11.638 15.343 11.638 15.1382 11.638 14.9402V14.8015C11.5506 14.7883 11.4624 14.7815 11.374 14.7814C10.5719 14.7814 10.008 15.3474 10.0036 16.1574C9.99349 18.2013 9.99461 20.4018 10.0036 22.883C10.007 23.1045 10.0578 23.3227 10.1523 23.5229C10.3761 24.0018 10.8012 24.2434 11.4097 24.2434C11.4843 24.2434 11.5589 24.24 11.6335 24.2333V23.1403C11.6335 21.252 11.6335 19.3632 11.6335 17.4741C11.6335 17.4506 11.6335 17.426 11.6335 17.4014C11.616 17.3026 11.6313 17.2009 11.6771 17.1116C11.7616 16.9568 11.8955 16.8347 12.0575 16.7648C12.0995 16.752 12.1433 16.7455 12.1873 16.7458V16.7458ZM25.5558 13.3069C25.506 13.3069 25.4563 13.3102 25.407 13.317C24.785 13.4087 24.4136 13.8652 24.4136 14.5386C24.4136 17.3637 24.4136 20.1888 24.4136 23.0139V24.494C24.4124 24.5686 24.415 24.6433 24.4214 24.7177C24.451 24.9927 24.5807 25.2472 24.7857 25.4329C24.9908 25.6185 25.2568 25.7223 25.5334 25.7246V25.7246C25.5892 25.7244 25.6449 25.7202 25.7001 25.7122C26.3131 25.6149 26.6667 25.1719 26.6678 24.494C26.6678 23.332 26.6678 22.1689 26.6678 21.0047V18.406C26.6678 17.3768 26.6678 16.3468 26.6678 15.3161C26.6678 15.2356 26.6678 15.1539 26.6678 15.0722C26.6678 14.8205 26.6678 14.5588 26.6543 14.3071C26.6253 14.0348 26.4975 13.7826 26.2951 13.5983C26.0926 13.414 25.8296 13.3103 25.5558 13.3069V13.3069ZM27.6981 24.2356C27.7719 24.2423 27.8424 24.2467 27.9118 24.2467C28.7933 24.2467 29.3202 23.6874 29.3202 22.7432V22.1268C29.3202 20.2127 29.3202 18.2326 29.3202 16.286C29.3237 16.1046 29.3046 15.9235 29.2632 15.7468C29.1043 15.145 28.602 14.7858 27.9207 14.7858C27.846 14.7854 27.7712 14.7895 27.697 14.7982L27.6981 24.2356ZM8.87365 17.9943C8.33332 17.9943 8.09056 18.2326 8.09056 18.7696C8.09056 19.3289 8.09056 19.8346 8.09056 20.3469C8.09056 20.5573 8.15656 20.8347 8.45638 20.9522C8.5958 20.9979 8.74059 21.0254 8.88709 21.0338L8.96539 21.0428V17.9943H8.87813V17.8522L8.87365 17.9943ZM30.3528 21.0282C30.3919 21.0282 30.43 21.0282 30.4647 21.0282C30.57 21.0355 30.6756 21.0206 30.7749 20.9846C30.8741 20.9486 30.9647 20.8922 31.0408 20.819C31.184 20.6658 31.2478 20.4275 31.2287 20.1288C31.2097 19.8301 31.2131 19.5258 31.2187 19.2338C31.2187 19.1007 31.2187 18.9676 31.2187 18.8333C31.2187 18.2594 30.9882 17.9921 30.496 17.9921C30.4459 17.992 30.3959 17.9946 30.3461 17.9999L30.3528 21.0282Z" fill="#662D91"/>
</svg>
