<svg width="39" height="39" viewBox="0 0 39 39" fill="none" xmlns="http://www.w3.org/2000/svg">
<circle cx="19.4203" cy="19.4063" r="18.8696" fill="white"/>
<path d="M31.9467 20.3573H29.2198C29.1762 20.3573 29.1325 20.3573 29.09 20.3573L29.1001 20.3338C29.713 19.0352 29.6504 17.7411 28.9166 16.4883C28.6789 16.0979 28.4674 15.6921 28.2836 15.2736C28.0889 14.8083 27.948 14.3083 28.2187 13.7994C28.2466 13.7535 28.2622 13.7011 28.2637 13.6473C28.2653 13.5936 28.2529 13.5404 28.2276 13.4929C28.1943 13.4407 28.1483 13.3977 28.0939 13.368C28.0396 13.3383 27.9786 13.3228 27.9167 13.3229C27.8473 13.3229 27.778 13.3229 27.7075 13.3229H27.4872L27.599 12.3912L27.7042 12.4146C27.8416 12.4423 27.9812 12.458 28.1214 12.4616C28.3341 12.469 28.5418 12.3959 28.703 12.2569C29.0136 11.9826 29.3833 11.7839 29.7835 11.6764C29.8401 11.6655 29.8937 11.6421 29.9402 11.6078C29.9866 11.5736 30.0248 11.5294 30.052 11.4784C30.0679 11.4402 30.0748 11.3988 30.0721 11.3575C30.0693 11.3162 30.0571 11.276 30.0363 11.2402C29.9967 11.1835 29.9447 11.1366 29.8842 11.1031C29.8237 11.0695 29.7564 11.0502 29.6873 11.0467C29.6605 11.0461 29.6339 11.0511 29.609 11.0612L29.5587 11.0825C29.1793 11.2302 28.8139 11.4118 28.467 11.625C28.3336 11.7276 28.1729 11.7883 28.005 11.7995C27.9068 11.7974 27.8104 11.7729 27.7232 11.7279C27.9077 10.9449 28.1605 10.0725 28.7466 9.35213C28.7931 9.3074 28.8301 9.25372 28.8553 9.19431C28.8805 9.13491 28.8933 9.07101 28.8931 9.00649C28.8862 8.96362 28.8703 8.92268 28.8467 8.88628C28.823 8.84988 28.7919 8.81883 28.7556 8.7951C28.7011 8.75256 28.6345 8.72863 28.5654 8.72686C28.4962 8.73516 28.43 8.76043 28.3728 8.80043C28.3156 8.84043 28.2692 8.89392 28.2377 8.95616C28.1001 9.1575 27.9637 9.35996 27.8171 9.57583L27.6952 9.75703L27.6001 9.6832C27.4427 9.56646 27.2933 9.43942 27.1527 9.3029C27.1136 9.22954 27.1025 9.14449 27.1214 9.06354C27.1482 8.94952 27.1826 8.83742 27.2243 8.72798C27.2639 8.61791 27.2978 8.50592 27.3261 8.39242C27.3977 8.0893 27.4435 7.73361 27.24 7.41147C27.2032 7.36248 27.1561 7.32223 27.1019 7.29361C27.0478 7.26499 26.988 7.2487 26.9268 7.24593C26.9045 7.24529 26.8821 7.24833 26.8608 7.25489C26.7832 7.29252 26.7223 7.35743 26.6897 7.4372C26.6725 7.46809 26.6615 7.50207 26.6575 7.5372C26.6535 7.57232 26.6564 7.60791 26.6662 7.6419C26.8205 8.01884 26.6963 8.37117 26.542 8.73022C26.3306 9.22461 26.4044 9.53333 26.8228 9.91251C26.967 10.0384 27.1203 10.1535 27.2814 10.257L27.3876 10.3308L26.8944 12.7513C26.8474 12.5276 26.7937 12.2883 26.7344 12.0478C26.6225 11.5914 26.4939 11.1317 26.3686 10.6876C26.3447 10.5629 26.2875 10.447 26.2031 10.3521C26.1319 10.2976 26.0479 10.2622 25.9592 10.2492C25.9302 10.2425 25.9022 10.2358 25.8754 10.2268L25.7635 10.1899L25.7344 10.3018C25.7277 10.3286 25.7165 10.3577 25.7065 10.3856C25.666 10.4681 25.652 10.5611 25.6662 10.6519C25.7658 11.0288 25.8753 11.4091 25.9827 11.7704C26.0107 11.8677 26.0398 11.965 26.0678 12.0623C25.9915 12.0065 25.9193 11.9452 25.8519 11.8789C25.6897 11.7089 25.5297 11.531 25.3743 11.3588C25.2624 11.2391 25.1595 11.1194 25.0499 11.0008C25.0161 10.9596 24.9741 10.9259 24.9265 10.9018C24.8789 10.8777 24.8269 10.8638 24.7736 10.861C24.7314 10.8619 24.6898 10.8714 24.6513 10.8889C24.6128 10.9064 24.5784 10.9315 24.5499 10.9628C24.4493 11.0646 24.3743 11.2335 24.5913 11.4583L24.7434 11.6104C24.8767 11.7368 25.0011 11.8721 25.1159 12.0153C25.4212 12.4146 25.7411 12.7748 26.2881 12.7983L26.3362 13.3128H26.2512H26.0689C25.9894 13.3128 25.9123 13.3128 25.8351 13.3195C25.7724 13.3168 25.7101 13.3305 25.6543 13.3594C25.5986 13.3882 25.5514 13.4312 25.5175 13.484C25.4901 13.5382 25.4774 13.5987 25.4808 13.6593C25.4841 13.72 25.5033 13.7787 25.5365 13.8296C25.7087 14.1651 25.6685 14.5007 25.5991 14.8217C25.4794 15.3631 25.2087 15.8284 24.9224 16.3161C24.862 16.4201 24.8005 16.5241 24.7412 16.6292C24.2572 17.4429 24.1004 18.4101 24.3027 19.335C24.3683 19.6069 24.449 19.875 24.5443 20.1381C24.5689 20.2085 24.5924 20.2779 24.6159 20.3472H20.134C20.1803 20.2618 20.2132 20.1698 20.2313 20.0743C20.2659 19.8327 20.3577 19.7589 20.6228 19.7589H20.6754C20.9283 19.7516 21.1683 19.6451 21.3434 19.4624C21.5186 19.2797 21.6149 19.0355 21.6116 18.7824C21.6143 18.5281 21.519 18.2825 21.3455 18.0965C21.1721 17.9106 20.9337 17.7985 20.6798 17.7836L20.4975 17.7702L20.4874 17.7041C20.4706 17.5923 20.4539 17.4961 20.4449 17.3954C20.4203 17.1326 20.2727 16.9995 19.9975 16.9995C19.5173 16.9995 19.0374 16.9995 18.558 16.9995C18.0725 16.9995 17.5871 16.9995 17.0961 16.9995C16.8466 16.9995 16.7102 17.118 16.6677 17.3719C16.4853 18.4502 16.5849 19.4155 16.9741 20.3215C16.9741 20.3293 16.9797 20.336 16.982 20.3439H15.4641V20.043C15.4641 19.7231 15.4641 19.4099 15.4641 19.0967C15.4641 18.7835 15.3523 18.6638 15.0167 18.6594H14.793V18.4077H15.0089C15.3444 18.4077 15.4563 18.2959 15.4619 17.9491C15.4619 17.6281 15.4619 17.3406 15.4619 17.07C15.4619 16.7344 15.35 16.6225 15.0212 16.6225H12.4564C11.2246 16.6225 9.99418 16.6225 8.7653 16.6225C8.70574 16.6176 8.64579 16.625 8.58922 16.6442C8.53264 16.6635 8.48065 16.6942 8.43646 16.7344C8.39817 16.7784 8.36937 16.8298 8.35186 16.8854C8.33434 16.941 8.32847 16.9997 8.33465 17.0576C8.34025 17.2389 8.33465 17.4189 8.33465 17.6102C8.33465 17.6572 8.33465 17.7042 8.33465 17.7511H8.09866C7.7631 17.7511 7.65125 17.863 7.65125 18.1874C7.65125 18.288 7.65125 18.3898 7.65125 18.4905C7.65125 18.6247 7.65125 18.7578 7.65125 18.892C7.64608 18.9468 7.65213 19.002 7.66905 19.0543C7.68598 19.1066 7.71341 19.1549 7.74967 19.1963C7.78816 19.2323 7.83362 19.26 7.88326 19.2777C7.9329 19.2954 7.98567 19.3027 8.03825 19.2992H8.06059H8.20041H8.31226V20.3595H8.21608H8.0181C7.90625 20.3595 7.82239 20.3595 7.74186 20.3696C7.64199 20.3814 7.54416 20.4066 7.45103 20.4445C7.413 20.458 7.37609 20.4714 7.33918 20.4826L7.25977 20.5072V25.6781L7.6501 25.8739V26.007C7.6501 26.1703 7.6501 26.3425 7.6501 26.5114C7.6501 26.857 7.76196 26.9689 8.09751 26.97H8.9487H10.3894L10.4106 27.2552C10.4308 27.5382 10.4509 27.8145 10.4699 28.083L10.5102 28.6646C10.5549 29.2887 10.5985 29.9129 10.6377 30.5359C10.6556 30.8088 10.7965 30.9475 11.0571 30.9475H11.094C11.1925 30.9475 11.2898 30.9475 11.3871 30.9475H11.8692C12.2719 30.9475 12.3423 30.8837 12.3725 30.5001C12.4128 29.9598 12.4497 29.4185 12.4844 28.8771C12.5045 28.5919 12.5235 28.3067 12.5437 28.0225C12.5615 27.763 12.5806 27.5047 12.6007 27.2396L12.6197 26.9857H27.0487L27.0677 27.2463C27.0878 27.508 27.1068 27.7664 27.1247 28.0293L27.165 28.5963C27.2109 29.2384 27.259 29.9017 27.3004 30.5538C27.3172 30.8189 27.4558 30.9531 27.7109 30.9531H27.7399C27.8384 30.9531 27.9357 30.9531 28.0341 30.9531H28.5162C28.9334 30.9531 29.0072 30.8837 29.0374 30.4654C29.0743 29.9654 29.1079 29.4587 29.1415 28.961L29.2019 28.0662C29.2209 27.8 29.2399 27.5338 29.2611 27.2597L29.2813 26.9857H30.6358H31.581C31.9053 26.9857 32.0217 26.8738 32.0284 26.5383C32.0284 26.3593 32.0284 26.1803 32.0284 26.0025V25.8683C32.3639 25.8112 32.4187 25.7217 32.4187 25.3537C32.4187 23.8512 32.4187 22.3494 32.4187 20.8483C32.4266 20.4512 32.3326 20.3584 31.9467 20.3573ZM28.6337 26.9834L28.4032 30.2797H27.9435L27.7109 26.9834H28.6337ZM11.9732 26.9834L11.7406 30.2775H11.282L11.0504 26.9834H11.9732ZM8.20265 18.3171H14.2203V18.7556H8.20265V18.3171ZM8.89392 17.1874H14.9149V17.8507H8.89392V17.1874ZM17.1643 17.6974C17.1822 17.5587 17.2448 17.5297 17.3623 17.5308H17.3723C17.7694 17.5308 18.1676 17.5308 18.5647 17.5308C18.9618 17.5308 19.3477 17.5308 19.7336 17.5308C19.8566 17.5308 19.9248 17.5543 19.9416 17.6974C20.0534 18.6046 19.9517 19.4759 19.5389 20.3025C19.5183 20.3583 19.4795 20.4056 19.4288 20.4369C19.3781 20.4681 19.3184 20.4814 19.2593 20.4747C18.7888 20.4673 18.3182 20.4673 17.8477 20.4747C17.7886 20.4817 17.729 20.4686 17.6783 20.4376C17.6276 20.4065 17.5887 20.3594 17.5681 20.3036C17.1731 19.4945 17.0323 18.5847 17.1643 17.6941V17.6974ZM31.7566 21.0206V25.1927H20.181V21.0206H31.7566ZM26.268 13.9873H27.4592C27.3473 14.7937 27.6393 15.504 27.9782 16.1539C28.0722 16.334 28.1784 16.5096 28.2813 16.6796L28.4099 16.8932C28.6399 17.2733 28.7894 17.6966 28.849 18.1368C28.9086 18.577 28.8772 19.0248 28.7567 19.4524C28.7567 19.4681 28.75 19.4837 28.7466 19.4994C28.7432 19.515 28.741 19.5285 28.7365 19.5419C28.4782 20.3472 28.4782 20.3472 27.6337 20.3472H26.5152C26.1796 20.3472 25.8441 20.3472 25.5085 20.3472C25.4668 20.3528 25.4245 20.3441 25.3883 20.3226C25.3522 20.301 25.3244 20.268 25.3094 20.2287C24.7076 19.1236 24.702 18.0498 25.2915 16.9469L25.4503 16.6539C25.664 16.2579 25.8854 15.8496 26.0711 15.4313C26.2795 14.9792 26.3481 14.4752 26.268 13.9839V13.9873ZM31.3696 25.8716V26.3023H8.32794V25.8716H31.3696ZM19.5221 23.9701V25.0462C19.5221 25.092 19.5222 25.1379 19.5166 25.1871H7.92526V21.0083H12.1499C14.5518 21.0083 16.9544 21.0083 19.3577 21.0083C19.4628 21.0083 19.4942 21.0239 19.5031 21.034C19.5121 21.0441 19.5288 21.0743 19.5277 21.1794C19.5199 22.0988 19.521 23.0507 19.5221 23.9679V23.9701ZM14.916 20.4602H8.89616V19.2108H14.916V20.4602ZM21.0679 18.7824C21.0679 19.1045 20.8084 19.2634 20.3543 19.213C20.3789 18.92 20.4024 18.6269 20.427 18.3182C20.8409 18.2958 21.069 18.4737 21.0635 18.7779L21.0679 18.7824Z" fill="#662D91"/>
</svg>
