<svg width="39" height="39" viewBox="0 0 39 39" fill="none" xmlns="http://www.w3.org/2000/svg">
<circle cx="19.6762" cy="19.4063" r="18.8696" fill="white"/>
<path d="M7.53014 16.2355C7.71234 15.7515 7.9996 15.3748 8.53612 15.2642C8.65699 15.2418 8.77983 15.2316 8.90275 15.234C9.9322 15.234 10.9617 15.215 11.9911 15.2407C12.446 15.2649 12.8985 15.3232 13.3447 15.4151C13.4006 15.4339 13.4612 15.434 13.5172 15.4154C13.5732 15.3969 13.6217 15.3607 13.6554 15.3122C14.6435 14.1196 15.9178 13.5395 17.4636 13.5428C18.4852 13.5428 19.5057 13.5428 20.5263 13.5428C21.3657 13.5428 21.9011 14.0704 21.8877 14.9132C21.8743 15.737 21.9246 16.5787 21.7826 17.3834C21.3914 19.591 19.4845 21.1268 17.2378 21.1436H16.8354V24.5024C16.9137 24.5147 16.9964 24.5248 17.0791 24.5404C17.3723 24.5842 17.6486 24.7055 17.8793 24.8918C18.11 25.0781 18.2867 25.3226 18.3913 25.6C18.4056 25.6572 18.4385 25.7079 18.4849 25.7442C18.5313 25.7804 18.5884 25.8001 18.6473 25.8001C18.9502 25.8336 19.2475 25.9119 19.5717 25.9711C19.5963 25.7722 19.6186 25.5486 19.6522 25.3262C19.7465 24.7528 19.9471 24.202 20.2435 23.7021C21.0691 22.2609 21.8936 20.8194 22.7171 19.3775C22.935 18.9964 23.0937 18.9494 23.4905 19.1473C23.8873 19.3451 24.2908 19.5463 24.7145 19.7575C25.033 19.1506 25.3438 18.5627 25.6444 17.9691C25.6674 17.8952 25.6614 17.8153 25.6277 17.7456C25.5098 17.4693 25.456 17.1699 25.4703 16.8699C25.4846 16.5698 25.5667 16.2769 25.7104 16.0131C26.7544 14.0123 27.7972 12.0093 28.858 10.0163C28.9799 9.77885 29.1478 9.568 29.352 9.39605C29.5562 9.22411 29.7925 9.09453 30.0473 9.01484C30.3021 8.93516 30.5702 8.90695 30.8359 8.9319C31.1017 8.95684 31.3599 9.03443 31.5954 9.16013C31.8299 9.28275 32.0378 9.45043 32.2074 9.65355C32.377 9.85668 32.5049 10.0913 32.5837 10.3439C32.6625 10.5965 32.6907 10.8622 32.6667 11.1257C32.6427 11.3892 32.5669 11.6454 32.4437 11.8796C31.4065 13.8916 30.3468 15.9035 29.2894 17.9032C29.1568 18.1627 28.9685 18.3898 28.738 18.5681C28.5075 18.7464 28.2405 18.8717 27.9559 18.9349C27.8726 18.9514 27.7982 18.9979 27.7469 19.0656C27.4373 19.6357 27.14 20.2114 26.827 20.8071L28.2309 21.5102C28.6881 21.7337 28.7406 21.8846 28.5283 22.3407L26.2592 27.1906C26.7432 27.0084 27.2182 26.9905 27.6821 27.2129C27.9061 27.3194 28.1042 27.4732 28.2631 27.6637C28.4219 27.8541 28.5375 28.0767 28.602 28.3162H31.6077V29.1601H28.07C27.9881 29.0968 27.9209 29.0166 27.8729 28.925C27.8249 28.8333 27.7972 28.7324 27.7916 28.6291C27.7771 28.4993 27.7322 28.3746 27.6605 28.2653C27.5889 28.1559 27.4926 28.0649 27.3794 27.9997C27.2661 27.9344 27.1392 27.8967 27.0086 27.8895C26.8781 27.8824 26.7478 27.906 26.6281 27.9585C26.485 28.02 26.3911 28.087 26.4682 28.2748C26.5119 28.4246 26.5396 28.5786 26.5509 28.7342H25.7126C25.6008 28.1943 25.3125 27.8937 24.8888 27.8993C24.7054 27.8917 24.5247 27.946 24.3758 28.0535C24.1891 28.2268 24.0695 28.4738 23.8974 28.7242H23.1407C23.1899 28.4805 23.2346 28.2547 23.2815 28.02C23.1124 27.9332 22.925 27.8879 22.7349 27.8879C22.5448 27.8879 22.3575 27.9332 22.1884 28.02C22.2387 28.2681 22.2833 28.4861 22.3325 28.732H21.4853C21.3735 28.1809 21.0684 27.8903 20.6291 27.8881C20.1898 27.8858 19.8914 28.1586 19.7573 28.7175H18.9368C18.9558 28.0546 19.2788 27.584 19.8176 27.2308C19.3515 26.7413 18.8194 26.5199 18.179 26.6608C17.3105 26.8519 16.8958 27.4499 16.8019 28.2972H15.9267C16.0195 27.9428 16.072 27.6053 16.1972 27.2912C16.4643 26.634 16.9729 26.2003 17.6156 25.9253C17.429 25.5196 17.1283 25.3161 16.7617 25.3552C16.2699 25.4067 16.0329 25.7241 15.9613 26.1734H15.123C15.142 26.0471 15.1532 25.9432 15.1745 25.8381C15.2449 25.5028 15.189 25.3988 14.8391 25.3631C14.6581 25.3452 14.4714 25.3977 14.2378 25.4234C14.5284 25.8113 14.7084 26.1645 14.6938 26.6004H13.87C13.8108 26.1891 13.6107 25.9041 13.1994 25.7934C13.0402 25.7547 12.8732 25.7638 12.7191 25.8194C12.5651 25.8751 12.4308 25.9749 12.3331 26.1064C12.1185 26.3914 12.1174 26.6496 12.3186 26.9749C12.496 27.2385 12.5853 27.5515 12.5735 27.8691H11.762C11.7385 27.7819 11.7217 27.6969 11.6938 27.6165C11.6335 27.4306 11.5107 27.2714 11.3462 27.166C11.1817 27.0607 10.9857 27.0156 10.7917 27.0386C10.597 27.0625 10.4169 27.1539 10.2825 27.2968C10.1482 27.4397 10.0681 27.6252 10.0563 27.821C10.0362 28.0703 9.94449 28.2681 9.68853 28.2905C9.25372 28.3184 8.81557 28.2983 8.38076 28.2983V27.4589H9.25038C9.37392 27.0191 9.66375 26.6447 10.0585 26.4149C10.4495 26.1934 10.9113 26.1329 11.3462 26.2461C11.7195 25.2222 12.3253 24.8511 13.3849 24.9696C13.4524 24.975 13.52 24.9606 13.5794 24.9283C13.803 24.7964 14.0265 24.6555 14.2601 24.5114V22.8302C13.5347 22.8302 12.8238 22.837 12.1129 22.8302C11.1246 22.8204 10.1653 22.495 9.37503 21.9014C8.58477 21.3078 8.00492 20.4771 7.72016 19.5306C7.63521 19.2467 7.58269 18.9516 7.51562 18.6621L7.53014 16.2355ZM10.0663 17.7713C10.0663 17.9591 10.0663 18.1245 10.0663 18.2888C10.0976 19.9878 11.3272 21.5236 12.9915 21.8734C13.5101 21.9852 14.0567 21.9629 14.591 21.9852C14.9878 22.002 15.132 22.1317 15.1331 22.5273C15.1331 23.198 15.1331 23.8809 15.1331 24.5471L15.8339 24.8981C15.8831 24.7863 15.9714 24.6824 15.9714 24.5751C15.9792 22.9923 15.9982 21.4085 15.9714 19.8257C15.9345 17.8138 14.2121 16.1137 12.1979 16.0813C11.0891 16.0634 9.98026 16.0745 8.87145 16.0813C8.52941 16.0813 8.37852 16.2377 8.37629 16.5865C8.37629 17.1454 8.36064 17.6953 8.37629 18.2486C8.421 19.5899 9.01116 20.6394 10.1267 21.3861C10.3167 21.502 10.5125 21.608 10.7135 21.7036L10.756 21.6532C9.64494 20.5947 9.13523 19.306 9.228 17.7735L10.0663 17.7713ZM22.7171 26.9972C23.0379 27.0878 23.3452 27.1559 23.637 27.2666C23.7042 27.2984 23.7777 27.3148 23.8521 27.3148C23.9265 27.3148 24 27.2984 24.0673 27.2666C24.3199 27.1548 24.6172 27.0352 24.8698 27.0766C25.27 27.1425 25.4287 26.948 25.5673 26.6597C25.6411 26.5099 25.7227 26.3635 25.7909 26.2126C26.3691 24.9793 26.9451 23.7457 27.5189 22.5117C27.567 22.41 27.6106 22.306 27.6665 22.1764L26.4369 21.5616C26.1653 22.078 25.9161 22.5676 25.6478 23.0538C25.5567 23.2233 25.4355 23.3748 25.2901 23.5009C25.0822 23.6673 24.8232 23.7569 24.5569 23.7547C24.2906 23.7524 24.0332 23.6585 23.8281 23.4886C23.6199 23.3223 23.4753 23.0894 23.4187 22.829C23.3621 22.5686 23.3969 22.2967 23.5174 22.059C23.7722 21.5415 24.0472 21.034 24.3233 20.5031L23.3586 20.0213C23.3251 20.0482 23.3072 20.056 23.2994 20.0705C22.4678 21.5236 21.6228 22.9767 20.8135 24.4487C20.457 25.1058 20.3385 25.866 20.4782 26.6004C20.5265 26.7879 20.647 26.9487 20.8135 27.0475C21.0371 27.1727 21.3064 27.2096 21.5836 27.2934L23.2122 24.3146L23.9488 24.7226C23.5241 25.5129 23.1127 26.264 22.7171 26.9916V26.9972ZM18.6931 19.9912C18.7571 19.9734 18.8199 19.9513 18.8809 19.9252C19.9517 19.3932 20.7051 18.5582 20.9163 17.3868C21.0706 16.5328 21.0181 15.6397 21.0371 14.7634C21.0371 14.5231 20.8381 14.3901 20.5508 14.389C19.4331 14.389 18.3153 14.3666 17.1976 14.3968C16.0496 14.4281 15.1051 14.9166 14.3395 15.8007C15.9613 16.7664 16.7773 18.1916 16.8354 20.0918C18.6048 19.3093 19.4063 17.968 19.3627 16.0768H20.192C20.277 17.6193 19.7684 18.9025 18.6954 19.9856L18.6931 19.9912ZM27.596 18.1491C27.9615 18.1424 28.3259 17.9255 28.5506 17.5053C29.6013 15.509 30.6553 13.5138 31.6803 11.5052C31.7943 11.2417 31.8284 10.9507 31.7787 10.668C31.7343 10.4415 31.6193 10.235 31.4502 10.0779C31.2811 9.92092 31.0666 9.82147 30.8375 9.7939C30.5922 9.75143 30.3398 9.78891 30.1174 9.9008C29.895 10.0127 29.7145 10.1931 29.6024 10.4154C29.1307 11.2973 28.6724 12.187 28.2074 13.0734C27.6251 14.1855 27.0338 15.2932 26.4615 16.4099C26.0491 17.218 26.5923 18.1357 27.5983 18.1435L27.596 18.1491ZM26.2704 18.6096C25.5997 19.8928 24.9317 21.1752 24.2662 22.4569C24.2467 22.4921 24.2346 22.531 24.2309 22.5712C24.2272 22.6113 24.232 22.6517 24.2448 22.6899C24.2576 22.7281 24.2783 22.7632 24.3055 22.7929C24.3327 22.8227 24.3657 22.8464 24.4026 22.8627C24.4381 22.8868 24.4783 22.9034 24.5205 22.9114C24.5627 22.9194 24.6061 22.9186 24.648 22.9092C24.6899 22.8998 24.7294 22.8819 24.7641 22.8566C24.7988 22.8312 24.8279 22.7991 24.8497 22.7621C24.8921 22.6964 24.9295 22.6277 24.9615 22.5564C25.5159 21.4998 26.0699 20.4435 26.6236 19.3876C26.7041 19.2333 26.7834 19.078 26.865 18.9204L26.2704 18.6096Z" fill="#662D91"/>
</svg>
