<svg width="39" height="39" viewBox="0 0 39 39" fill="none" xmlns="http://www.w3.org/2000/svg">
<circle cx="19.7719" cy="19.5943" r="18.8696" fill="white"/>
<path d="M12.7136 30.9141C12.6204 30.8888 12.5226 30.8663 12.4266 30.8429C12.211 30.7951 11.9983 30.7353 11.7893 30.6639C11.006 30.3723 10.339 29.8311 9.88985 29.123C9.44074 28.4148 9.23414 27.5785 9.30156 26.7414C9.37576 25.9096 9.71512 25.1241 10.2691 24.5019C10.8232 23.8796 11.5622 23.454 12.3763 23.2882C12.6327 23.2389 12.8932 23.2135 13.1543 23.2123C14.0054 23.2158 14.8301 23.5102 15.4929 24.047L15.9755 24.4217V21.7349C15.9755 18.559 15.9755 15.2707 15.9755 12.0432C15.9755 11.9074 15.9755 11.9074 16.0883 11.8793C19.8925 10.9153 23.7583 9.92973 27.4964 8.97509L30.2552 8.27246V12.6072C30.2552 16.3059 30.2552 20.0052 30.2552 23.7051C30.2552 25.4598 29.2853 26.8585 27.6632 27.4459C27.2731 27.5865 26.8617 27.6581 26.4472 27.6576C24.5651 27.6576 22.8964 26.228 22.6504 24.403C22.3709 22.3167 23.5822 20.5282 25.5891 20.0532C25.8807 19.9837 26.1792 19.9479 26.4789 19.9464C27.283 19.9464 28.0545 20.2209 28.7719 20.7624C28.8092 20.7905 28.8464 20.8196 28.8893 20.8561L29.2722 21.1606V13.9132L25.5528 14.8613C22.8657 15.547 20.0863 16.2553 17.3536 16.9448C17.0638 17.0179 16.9464 17.1715 16.9473 17.4741C16.9539 20.3371 16.9548 23.4399 16.9473 26.9606C16.9473 28.4595 16.2951 29.6203 15.0186 30.4035C14.6092 30.6484 14.1547 30.8077 13.6826 30.8719C13.6342 30.8805 13.5866 30.8927 13.54 30.9084L13.5158 30.9159L12.7136 30.9141ZM13.1161 24.1903C12.3637 24.1915 11.642 24.4905 11.1072 25.0226C10.5724 25.5548 10.2675 26.2772 10.2585 27.0337C10.2545 27.4135 10.3258 27.7903 10.468 28.1422C10.6102 28.4941 10.8205 28.814 11.0868 29.0835C11.3492 29.3536 11.6624 29.5686 12.0083 29.7159C12.3541 29.8632 12.7256 29.94 13.1012 29.9416H13.1179C13.871 29.9392 14.5929 29.6391 15.1277 29.106C15.6626 28.573 15.9674 27.8498 15.9765 27.0927C15.9815 26.714 15.9118 26.3382 15.7713 25.9868C15.6309 25.6354 15.4226 25.3156 15.1584 25.0457C14.8944 24.7757 14.5798 24.5611 14.2328 24.4142C13.8857 24.2674 13.5131 24.1913 13.1366 24.1903H13.1161ZM26.396 20.9226C25.6562 20.9285 24.9475 21.2233 24.4199 21.7448C23.8922 22.2662 23.5868 22.9735 23.5682 23.7172C23.5568 24.0991 23.6211 24.4795 23.7572 24.8362C23.8933 25.193 24.0986 25.5189 24.3611 25.7952C24.6254 26.0704 24.9413 26.2902 25.2906 26.442C25.6399 26.5938 26.0156 26.6745 26.396 26.6795H26.4537C27.9529 26.6795 29.2489 25.4007 29.2834 23.8859C29.2943 23.5047 29.2297 23.1251 29.0934 22.7692C28.9572 22.4133 28.7519 22.0881 28.4896 21.8126C28.2255 21.5359 27.9094 21.3146 27.5596 21.1617C27.2098 21.0087 26.8333 20.9272 26.4519 20.9217L26.396 20.9226ZM16.9557 12.6672V16.0454L29.2853 12.9023V9.911C29.2853 9.88195 29.2853 9.85198 29.2788 9.81731C29.2788 9.80045 29.2788 9.78265 29.2732 9.76017L29.2545 9.53626L16.9557 12.6672Z" fill="#662D91"/>
</svg>
