<svg width="38" height="39" viewBox="0 0 38 39" fill="none" xmlns="http://www.w3.org/2000/svg">
<circle cx="19.0961" cy="19.5938" r="18.8696" fill="white"/>
<path d="M19.761 23.3285C19.8703 23.3508 19.9584 23.366 20.0454 23.3862C20.238 23.4203 20.4132 23.5192 20.542 23.6664C20.6708 23.8136 20.7456 24.0004 20.7539 24.1958C20.7643 24.3031 20.7687 24.4109 20.767 24.5187C20.767 26.8126 20.767 29.1066 20.767 31.4006C20.767 32.2416 20.4148 32.5917 19.5677 32.5928C18.7935 32.5928 18.0203 32.5928 17.2461 32.5928C16.4719 32.5928 16.1258 32.2274 16.1258 31.4633C16.1258 29.1876 16.1258 26.9111 16.1258 24.634C16.1258 23.6554 16.2361 23.5208 17.2056 23.2992V22.9854C17.2056 20.9789 17.2056 18.9723 17.2056 16.9658C17.1984 16.7681 17.2106 16.5701 17.2421 16.3748C17.3655 15.7554 17.8908 15.3556 18.5577 15.3566H26.06C26.5093 15.3566 26.9597 15.3668 27.4091 15.3435C27.8139 15.3222 27.8655 15.2423 27.8655 14.8445C27.8655 13.9985 27.8655 13.1527 27.8655 12.3074C27.8655 11.8347 27.7208 11.7001 27.1985 11.7001C27.1985 12.0837 27.1985 12.4683 27.1985 12.8528C27.1985 13.6007 26.817 13.9793 26.0671 13.9793C20.9846 13.9793 15.9018 13.9793 10.8186 13.9793C10.0798 13.9793 9.71244 13.6099 9.70536 12.866C9.70536 12.6869 9.70536 12.5077 9.70536 12.2831C9.52724 12.2831 9.36126 12.2831 9.19934 12.2831C9.0018 12.2887 8.80412 12.2826 8.6073 12.2648C8.38174 12.2367 8.174 12.1278 8.02254 11.9583C7.87108 11.7888 7.78614 11.5702 7.78349 11.3429C7.77269 10.9198 7.77269 10.4968 7.78349 10.0738C7.78481 9.94738 7.81107 9.8225 7.86075 9.70628C7.91043 9.59007 7.98257 9.48479 8.07302 9.39651C8.16346 9.30822 8.27044 9.23866 8.38782 9.1918C8.50521 9.14494 8.6307 9.12172 8.75708 9.12346C9.0607 9.11739 9.3643 9.12346 9.71042 9.12346C9.71042 8.88866 9.71042 8.66703 9.71042 8.44539C9.72155 7.82299 10.1031 7.43335 10.7285 7.43335C15.8751 7.43335 21.0214 7.43335 26.1673 7.43335C26.7978 7.43335 27.1793 7.82805 27.1985 8.46463C27.1985 8.64275 27.1985 8.82187 27.1985 9.02732C27.3068 9.03339 27.3929 9.04048 27.4799 9.04048C27.8847 9.04048 28.2895 9.04048 28.6943 9.04048C29.7519 9.04048 30.432 9.66086 30.5069 10.7245C30.5433 11.2447 30.5464 11.7669 30.5454 12.2891C30.5454 13.6291 30.5376 14.9697 30.5221 16.311C30.5207 16.5159 30.4942 16.7198 30.4432 16.9182C30.259 17.6266 29.7347 18.0203 29.004 18.0203C26.1885 18.0203 23.3727 18.0203 20.5565 18.0203C20.4133 18.0174 20.2705 18.0372 20.1335 18.079C20.0238 18.1095 19.9276 18.1759 19.8604 18.2678C19.7932 18.3596 19.7589 18.4714 19.7631 18.5851C19.76 20.173 19.761 21.7345 19.761 23.3285ZM18.4687 8.30472C15.9385 8.30472 13.4135 8.30472 10.8854 8.30472C10.6395 8.30472 10.5636 8.36848 10.5656 8.62047C10.5771 10.0245 10.5771 11.4279 10.5656 12.8306C10.5656 13.0714 10.6385 13.1342 10.8692 13.1342C15.9166 13.1281 20.9633 13.1281 26.0094 13.1342C26.2563 13.1342 26.3363 13.0694 26.3343 12.8174C26.3241 11.4228 26.3241 10.0282 26.3343 8.63363C26.3343 8.36645 26.2462 8.30472 25.9932 8.30573C23.4884 8.30775 20.9785 8.30472 18.4687 8.30472ZM18.0841 23.3143H18.8937V22.9966C18.8937 21.5844 18.8937 20.1723 18.8937 18.7601C18.889 18.6248 18.8961 18.4894 18.915 18.3553C19.0384 17.6469 19.6406 17.1702 20.433 17.1692C23.2667 17.1692 26.1005 17.1692 28.9342 17.1692C29.3764 17.1692 29.5799 16.9961 29.6426 16.562C29.6586 16.4554 29.6671 16.3479 29.6679 16.2402C29.6679 14.5217 29.6632 12.8036 29.6538 11.0858C29.654 10.8805 29.6257 10.6761 29.5698 10.4786C29.4534 10.0839 29.2014 9.9159 28.7905 9.9159H27.4677C27.3827 9.9159 27.2967 9.92501 27.2087 9.93007V10.8024C27.3352 10.8237 27.4506 10.8409 27.5639 10.8632C28.3644 11.018 28.7257 11.4532 28.7257 12.2608C28.7257 13.1683 28.7257 14.0767 28.7257 14.9862C28.7257 15.5935 28.4221 15.9983 27.8371 16.141C27.5917 16.1954 27.3406 16.2205 27.0892 16.2159C24.3196 16.2213 21.5497 16.2213 18.7794 16.2159C18.1671 16.2159 18.0709 16.307 18.0709 16.9132C18.0709 18.9548 18.0709 20.9964 18.0709 23.0381C18.0719 23.1291 18.079 23.2172 18.0841 23.3103V23.3143ZM19.9057 27.9697C19.9057 26.819 19.9057 25.6684 19.9057 24.5177C19.9057 24.293 19.8562 24.1958 19.6021 24.1999C18.8208 24.214 18.0385 24.211 17.2562 24.1999C17.0457 24.1999 16.9769 24.2626 16.9769 24.4772C16.9843 26.8062 16.9843 29.1339 16.9769 31.4603C16.9769 31.6769 17.0488 31.7386 17.2572 31.7366C18.0304 31.7264 18.8036 31.7244 19.5768 31.7366C19.8217 31.7366 19.9047 31.6718 19.9017 31.4178C19.9027 30.2711 19.9128 29.1204 19.9128 27.9657L19.9057 27.9697ZM8.63767 10.7023C8.63767 11.438 8.63765 11.438 9.37644 11.4329C9.40339 11.4309 9.43046 11.4309 9.45741 11.4329C9.64666 11.4502 9.71143 11.3591 9.70536 11.1759C9.69625 10.9067 9.70536 10.6365 9.70536 10.3662C9.70536 9.99281 9.70537 9.99281 9.33901 9.99281C8.64171 9.99079 8.6417 9.99079 8.6417 10.7012L8.63767 10.7023Z" fill="#662D91"/>
</svg>
