<svg width="39" height="39" viewBox="0 0 39 39" fill="none" xmlns="http://www.w3.org/2000/svg">
<circle cx="19.7719" cy="19.4068" r="18.8696" fill="white"/>
<path d="M16.6043 9.76245H23.7779C23.8391 9.78175 23.9016 9.79655 23.965 9.80677C24.7595 9.88372 25.3581 10.2709 25.7165 10.9674C25.8755 11.2762 25.9326 11.6361 26.0459 12.0053H26.2694C27.4405 12.0053 28.6111 12.0014 29.7818 12.0087C30.0437 12.0063 30.305 12.0313 30.5616 12.0832C31.1832 12.2169 31.7402 12.5561 32.1408 13.045C32.5413 13.5339 32.7615 14.1433 32.765 14.7726C32.7739 18.7076 32.7751 22.6426 32.7685 26.5776C32.7685 26.6263 32.7685 26.675 32.7641 26.7237C32.6961 28.0971 31.5299 29.2894 30.1451 29.3454C29.1394 29.3858 28.1312 29.3659 27.1245 29.3663C21.6224 29.3663 16.1199 29.3675 10.6172 29.3698C9.58585 29.3698 8.76079 28.9865 8.13411 28.1794C7.84317 27.8049 7.71666 27.3636 7.61328 26.9131V14.4755C7.62689 14.4554 7.63796 14.4336 7.64626 14.4108C8.01744 12.8113 9.03992 12.0062 10.7014 12.0058H14.359C14.3694 11.9775 14.3781 11.9488 14.3851 11.9195C14.3896 11.8874 14.391 11.8553 14.394 11.8221C14.4654 11.019 14.8489 10.4039 15.5804 10.0498C15.894 9.89882 16.2612 9.85548 16.6043 9.76245ZM20.1606 28.1161H29.7636C30.7757 28.1161 31.3743 27.6291 31.4866 26.6428C31.5506 26.0749 31.5284 25.4973 31.5289 24.924C31.5319 21.6047 31.5329 18.2857 31.5319 14.967C31.5319 14.401 31.3645 13.9174 30.8919 13.5662C30.5384 13.3032 30.1313 13.2584 29.7055 13.2604C28.2808 13.2659 26.8563 13.2659 25.432 13.2604C24.9796 13.2604 24.7177 12.9983 24.7123 12.5537C24.7123 12.4241 24.7123 12.2946 24.7123 12.164C24.7123 11.3224 24.4085 11.0185 23.5657 11.0185H17.2542C17.0169 11.0185 16.7786 11.0117 16.5418 11.0258C16.3308 11.0325 16.1297 11.1161 15.9771 11.2604C15.8244 11.4047 15.7311 11.5998 15.7148 11.808C15.6936 12.0248 15.6995 12.2464 15.6971 12.4626C15.6921 13.0212 15.4534 13.2599 14.8932 13.2604C13.436 13.2604 11.9788 13.2565 10.5217 13.2604C9.53958 13.2638 8.88731 13.9047 8.88681 14.8749C8.88288 18.744 8.88469 22.6134 8.89223 26.4831C8.89041 26.7489 8.94683 27.0119 9.05763 27.2541C9.36383 27.8843 9.92356 28.1147 10.6083 28.1142C13.7924 28.1135 16.9765 28.1142 20.1606 28.1161Z" fill="#662D91"/>
<path d="M26.0773 20.6803C26.1014 23.8651 23.4288 26.5087 20.1896 26.5048C16.9504 26.5009 14.3314 23.9143 14.3088 20.6974C14.2842 17.5194 16.9179 14.9016 20.1709 14.8699C23.3934 14.8387 26.0532 17.4551 26.0773 20.6803ZM24.7791 20.7232C24.7683 18.1779 22.7352 16.1679 20.1788 16.1747C19.576 16.175 18.9793 16.2932 18.4229 16.5224C17.8665 16.7516 17.3614 17.0874 16.9366 17.5104C16.5118 17.9334 16.1756 18.4353 15.9475 18.9872C15.7194 19.5392 15.6038 20.1303 15.6074 20.7266C15.6222 23.2499 17.6809 25.2751 20.2093 25.2561C22.7519 25.2332 24.79 23.2124 24.7791 20.7232V20.7232Z" fill="#662D91"/>
<path d="M28.6921 17.1568C28.5384 17.1561 28.3864 17.1255 28.2448 17.0665C28.1031 17.0075 27.9747 16.9214 27.8668 16.8131C27.7589 16.7049 27.6737 16.5766 27.6162 16.4356C27.5586 16.2946 27.5298 16.1438 27.5313 15.9918C27.5357 15.6889 27.6604 15.3998 27.8784 15.1871C28.0965 14.9744 28.3903 14.8551 28.6965 14.855C28.8502 14.8539 29.0026 14.8829 29.1449 14.9403C29.2872 14.9978 29.4166 15.0826 29.5255 15.1899C29.6345 15.2971 29.7209 15.4247 29.7797 15.5652C29.8385 15.7056 29.8686 15.8563 29.8682 16.0083C29.8681 16.1604 29.8376 16.311 29.7782 16.4513C29.7189 16.5916 29.6321 16.7188 29.5227 16.8256C29.4133 16.9325 29.2835 17.0168 29.1409 17.0736C28.9984 17.1304 28.8458 17.1587 28.6921 17.1568V17.1568Z" fill="#662D91"/>
</svg>
