<svg width="38" height="39" viewBox="0 0 38 39" fill="none" xmlns="http://www.w3.org/2000/svg">
<circle cx="18.977" cy="19.4322" r="18.8696" fill="white"/>
<path d="M16.7874 32.4316C16.7536 32.4136 16.7168 32.4021 16.6788 32.3975C15.4285 32.2408 14.1089 31.0769 14.1266 29.2301C14.1524 26.6297 14.1469 23.9856 14.1415 21.4288C14.1415 20.3494 14.1415 19.27 14.1415 18.1905V17.2269L13.6853 17.6508L13.593 17.7367C13.5401 17.7844 13.4993 17.8212 13.4572 17.8607C13.274 18.0433 13.092 18.2273 12.9142 18.4059C12.5504 18.7725 12.1865 19.1391 11.8186 19.4962C11.7222 19.6032 11.5886 19.669 11.4453 19.6802C11.3029 19.6694 11.1699 19.6046 11.0733 19.4989C10.6077 19.0383 10.1881 18.6212 9.77136 18.1905C9.6311 18.052 9.51995 17.8867 9.44449 17.7043C9.36903 17.5219 9.3308 17.3262 9.33206 17.1287C9.33333 16.9312 9.37406 16.7359 9.45185 16.5545C9.52964 16.3731 9.64292 16.2092 9.78495 16.0726C10.0375 15.8136 10.294 15.5588 10.5493 15.3025L10.9661 14.8855C11.0068 14.8446 11.0448 14.8023 11.0909 14.7492L11.1629 14.6701L11.3448 14.4739L11.1507 14.2885L10.9253 14.0759C10.7678 13.9273 10.6199 13.787 10.4773 13.6411C9.74827 12.8943 9.75099 11.8544 10.4773 11.1116C11.2919 10.2938 12.158 9.41608 13.1423 8.43479C13.3055 8.2617 13.5015 8.12302 13.7188 8.02684C13.936 7.93066 14.1702 7.87893 14.4076 7.87465C14.6459 7.87899 14.881 7.93088 15.0991 8.02728C15.3173 8.12368 15.5142 8.26265 15.6783 8.43615C15.8236 8.57244 15.9634 8.72782 16.1114 8.88592L16.3245 9.11082L16.5173 9.31389L17.1472 8.67466C17.4568 8.35983 17.7568 8.0559 18.0595 7.75469C18.1999 7.60632 18.3681 7.48732 18.5545 7.40452C18.741 7.32171 18.9418 7.27673 19.1456 7.27222C19.3496 7.27724 19.5505 7.32271 19.7369 7.40598C19.9233 7.48925 20.0915 7.60868 20.2317 7.75742C20.5032 8.03 20.7829 8.3026 21.0571 8.58336L21.3965 8.92545C21.7603 9.29071 21.759 9.50195 21.3965 9.86994C20.476 10.7967 16.4698 14.8201 16.4698 14.8201C16.4263 14.8637 16.3843 14.91 16.334 14.9645L16.258 15.049L15.8412 15.5056H21.3273V14.8241C21.3273 14.5284 21.3273 14.2367 21.3273 13.9451C21.3133 13.7127 21.382 13.4828 21.5209 13.2964C21.6599 13.11 21.8601 12.9791 22.0862 12.927L22.1242 12.9161C23.6447 12.4772 25.1657 12.0401 26.6871 11.6049C26.794 11.5741 26.9045 11.5581 27.0156 11.5572C27.5723 11.5572 27.9755 11.9838 27.9755 12.5712C27.9755 18.3132 27.9755 23.927 27.9755 29.4714C27.9686 30.1158 27.7529 30.7405 27.361 31.251C26.9691 31.7615 26.4223 32.13 25.8033 32.3008C25.6974 32.3308 25.5915 32.3567 25.4856 32.3812L25.3634 32.4112L16.7874 32.4316ZM15.0932 29.2901C15.0932 30.6148 15.9457 31.4708 17.2653 31.4708H24.8557C25.5074 31.4708 26.0558 31.2677 26.44 30.8834C26.8242 30.499 27.0292 29.9511 27.0292 29.2983V16.5073H15.0945L15.0932 29.2901ZM19.1456 8.24126C18.9352 8.24126 18.7845 8.39255 18.6256 8.55201L10.5398 16.6723C10.5085 16.7036 10.476 16.7349 10.4461 16.7677C10.3951 16.8163 10.3544 16.8749 10.3267 16.9398C10.2989 17.0047 10.2846 17.0746 10.2846 17.1452C10.2846 17.2158 10.2989 17.2857 10.3267 17.3506C10.3544 17.4155 10.3951 17.4741 10.4461 17.5227C10.6334 17.7176 10.8249 17.907 11.0054 18.087L11.4018 18.4835L20.4978 9.35202L20.1149 8.98404C19.9792 8.84775 19.823 8.71148 19.6764 8.55883C19.5298 8.40619 19.3533 8.24126 19.1456 8.24126ZM26.6898 12.6489C26.6568 12.6488 26.624 12.6529 26.5921 12.6612C25.2634 13.0346 23.9357 13.4094 22.6089 13.7856C22.5248 13.8115 22.4501 13.8616 22.3942 13.9297C22.3382 13.9977 22.3033 14.0808 22.2939 14.1686C22.2871 14.4412 22.2871 14.7138 22.2939 15.0013V15.5465H27.0197V12.6544H26.6952L26.6898 12.6489ZM14.4035 8.8423C14.3057 8.84368 14.2092 8.86452 14.1195 8.90359C14.0298 8.94265 13.9486 8.99919 13.8808 9.06993C13.0025 9.93946 12.0956 10.8499 11.1086 11.8516C10.9675 11.9833 10.8839 12.1655 10.876 12.3588C10.8681 12.552 10.9366 12.7406 11.0665 12.8834C11.2335 13.0714 11.4086 13.2486 11.5783 13.4203L11.7861 13.6302L11.9788 13.8292L15.8371 9.95309L15.6416 9.7609L15.4339 9.5524C15.2724 9.38885 15.104 9.21984 14.9289 9.05901C14.7871 8.92311 14.5995 8.84573 14.4035 8.8423V8.8423Z" fill="#662D91"/>
<path d="M24.3866 28.9726C24.2701 28.9673 24.1598 28.9187 24.077 28.8363C24.0204 28.7828 23.9766 28.7171 23.9491 28.6441C23.9216 28.5712 23.911 28.4928 23.9182 28.4151C23.9182 27.3248 23.9182 26.2299 23.9182 25.1305V22.8599C23.9182 21.7432 23.9182 20.6279 23.9182 19.5139C23.9105 19.4201 23.9309 19.326 23.9769 19.2439C24.0229 19.1618 24.0922 19.0954 24.1761 19.0533C24.2427 19.0147 24.3179 18.9936 24.3947 18.9919C24.4821 18.9942 24.5671 19.0206 24.6405 19.0682C24.8061 19.1718 24.8767 19.3258 24.8767 19.5834C24.8767 21.0018 24.8767 22.4206 24.8767 23.8398C24.8767 23.8398 24.8767 27.656 24.8767 28.4355C24.8871 28.5385 24.8637 28.642 24.81 28.7304C24.7563 28.8187 24.6753 28.887 24.5794 28.9248C24.5193 28.9544 24.4535 28.9707 24.3866 28.9726V28.9726Z" fill="#662D91"/>
<path d="M21.0406 28.9694C20.9814 28.9719 20.9226 28.9595 20.8695 28.9333C20.8164 28.9071 20.7707 28.868 20.7365 28.8195C20.6487 28.6844 20.599 28.5281 20.5926 28.367C20.5817 26.6974 20.5817 24.9979 20.583 23.3555V21.2526C20.583 20.6842 20.583 20.0968 20.583 19.5203C20.5788 19.4547 20.5878 19.3889 20.6093 19.3268C20.6309 19.2647 20.6646 19.2076 20.7085 19.1588C20.7524 19.11 20.8056 19.0705 20.865 19.0427C20.9244 19.0149 20.9887 18.9994 21.0542 18.9969C21.1068 18.997 21.1591 19.0058 21.2089 19.0229C21.3123 19.0599 21.4005 19.1302 21.4597 19.223C21.5189 19.3157 21.5458 19.4256 21.5361 19.5353C21.5361 20.6502 21.5361 21.7659 21.5361 22.8826V25.1996C21.5361 26.2899 21.5361 27.3802 21.5361 28.4706C21.5448 28.5746 21.5181 28.6785 21.4604 28.7654C21.4027 28.8523 21.3174 28.917 21.2184 28.9489C21.1607 28.9656 21.1006 28.9725 21.0406 28.9694Z" fill="#662D91"/>
<path d="M17.7168 28.9688C17.6133 28.964 17.5141 28.9254 17.4343 28.8591C17.3544 28.7927 17.2983 28.7021 17.2743 28.6009C17.2613 28.5473 17.2545 28.4924 17.2539 28.4373V27.2461C17.2539 24.6766 17.2539 22.1075 17.2539 19.5388C17.2539 19.2253 17.4494 18.9937 17.7182 18.9937C17.7684 18.9942 17.8182 19.002 17.8662 19.0168C17.9713 19.0479 18.0624 19.1146 18.1241 19.2056C18.1857 19.2965 18.214 19.4061 18.2042 19.5157C18.2042 19.9491 18.2042 20.3825 18.2042 20.8145V24.9033C18.2042 26.0417 18.2042 27.1775 18.2042 28.3105C18.2089 28.4198 18.1997 28.5293 18.1771 28.6363C18.1468 28.7313 18.0872 28.8142 18.007 28.873C17.9267 28.9318 17.8298 28.9635 17.7304 28.9634L17.7168 28.9688Z" fill="#662D91"/>
</svg>
