<svg width="140" height="83" viewBox="0 0 140 83" fill="none" xmlns="http://www.w3.org/2000/svg">
<rect y="1" width="140" height="82" rx="11" fill="#BCA5CD"/>
<path d="M79.3121 22.4773L82.1016 18.7859L82.2994 18.5293H32.8418V18.7859C32.8418 18.9044 32.8418 19.0427 32.8418 19.1809C32.8418 19.3191 32.8418 19.1808 32.8418 19.3387V19.8717C32.8213 20.066 32.7814 20.2578 32.723 20.4443C32.6465 20.9082 32.5274 21.3641 32.3671 21.8062C32.2868 22.0347 32.1943 22.2587 32.0901 22.4773C32.0458 22.6057 31.9927 22.7311 31.9316 22.8525V22.9708H79.8661L79.3121 22.4773Z" fill="#E6E6E6"/>
<path d="M105.246 22.8327C105.185 22.7181 105.132 22.5993 105.088 22.4773C105.014 22.323 104.947 22.1649 104.89 22.0036C104.835 21.8685 104.789 21.7301 104.751 21.5891C104.658 21.3659 104.585 21.1347 104.534 20.8982C104.534 20.6021 104.395 20.3059 104.336 19.99C104.277 19.6742 104.336 19.3584 104.237 19.0228C104.227 18.9507 104.227 18.8777 104.237 18.8057V18.5293H87.6589L87.4611 18.7859L84.6717 22.4773L83.7617 22.9708H105.325L105.246 22.8327Z" fill="#E6E6E6"/>
<path d="M54.4436 61.0094L55.0966 61.5227L52.3072 65.2141L52.1094 65.4707H104.218V65.1943C104.208 65.1156 104.208 65.0361 104.218 64.9574C104.218 64.6811 104.218 64.4046 104.218 64.1283L104.337 63.5165C104.357 63.3416 104.397 63.1694 104.455 63.0032C104.583 62.4932 104.762 61.9972 104.989 61.5227C105.018 61.3982 105.065 61.2784 105.128 61.1673C105.266 60.8712 105.425 60.5752 105.583 60.2988C105.436 60.5271 105.304 60.7644 105.187 61.0094H54.4436Z" fill="#E6E6E6"/>
<path d="M31.2988 60.2988C31.4699 60.5778 31.6219 60.8679 31.7538 61.1673C31.8169 61.2784 31.8637 61.3982 31.8924 61.5227C32.1051 62.001 32.2771 62.4962 32.4068 63.0032C32.4234 63.1277 32.4234 63.2539 32.4068 63.3784C32.5454 63.9745 32.6249 64.5827 32.6442 65.1943V65.4707H46.6505L46.8483 65.2141L49.6377 61.5227L51.1215 61.0094H31.5758C31.4977 60.7673 31.4052 60.53 31.2988 60.2988Z" fill="#E6E6E6"/>
<path d="M25.9566 28.2013C25.5017 28.3809 25.0315 28.5196 24.5518 28.6158C24.3453 28.676 24.1333 28.7158 23.9189 28.7344L23.0879 28.8527H22.2374H22V55.0082H22.2374H23.0879C23.8516 55.0824 24.6067 55.2279 25.3432 55.4427L25.9566 55.6598C26.0716 55.6904 26.1839 55.7299 26.2928 55.7781H26.4512V27.8066H26.2928C26.1961 27.9506 26.0834 28.083 25.9566 28.2013Z" fill="#E6E6E6"/>
<path d="M114.505 28.8925C113.941 28.8732 113.379 28.8139 112.824 28.7149L111.874 28.478L111.241 28.2807H111.043L110.687 28.1621H110.549V56.0943H110.687L111.043 55.976C111.586 55.7817 112.141 55.6232 112.705 55.502C113.299 55.3865 113.901 55.3205 114.505 55.3046H115V29.1096L114.505 28.8925Z" fill="#E6E6E6"/>
<path d="M73.04 30.3529L73.3368 29.9385C71.794 29.3278 70.1498 29.0131 68.49 29.0107C65.0393 29.016 61.7312 30.3861 59.2911 32.8209C56.8511 35.2557 55.4779 38.5563 55.4727 41.9996C55.47 44.8625 56.4315 47.6433 58.2027 49.8956L58.4995 49.4811L61.7638 45.1975L73.04 30.3529Z" fill="#E6E6E6"/>
<path d="M61.7642 53.1338C63.781 54.3979 66.1089 55.0811 68.4905 55.1078C71.1104 55.1182 73.6723 54.3385 75.8403 52.8706C78.0083 51.4028 79.6809 49.3153 80.6392 46.8821C81.5975 44.449 81.7965 41.7839 81.2101 39.236C80.6237 36.6881 79.2793 34.3763 77.3532 32.6041L77.1948 32.4463L77.0564 32.6436L61.7246 52.9167L61.5664 53.114L61.7642 53.1338Z" fill="#E6E6E6"/>
<path d="M32.7616 18.5287V18.7853C32.7616 18.9038 32.7616 19.0421 32.7616 19.1803C32.7616 19.3185 32.7616 19.1802 32.7616 19.3381V19.8711C32.7411 20.0654 32.7014 20.2572 32.643 20.4437C32.5665 20.9076 32.4472 21.3635 32.2868 21.8056C32.2065 22.0341 32.1141 22.2581 32.0098 22.4767C31.9655 22.6051 31.9128 22.7305 31.8517 22.8519V22.9702C31.733 23.2268 31.5943 23.4637 31.4559 23.7006C31.3174 23.9375 31.1195 24.2534 30.9415 24.51C30.753 24.7788 30.5483 25.036 30.3283 25.2799L29.6951 25.951C29.4775 26.1681 29.2402 26.3656 29.0028 26.563L28.1919 27.1551L27.4401 27.6091L26.6289 28.004H26.4707C26.3619 28.0522 26.2494 28.0917 26.1343 28.1223C25.6794 28.3019 25.2094 28.4408 24.7298 28.537C24.5232 28.5972 24.311 28.6368 24.0966 28.6553L23.2657 28.7739H22.4151H22.1777V18.3906L32.7616 18.5287Z" fill="white"/>
<path d="M99.2332 3.19058L87.6404 18.5286L87.4426 18.7852L84.6531 22.4766L84.4554 22.7332L77.1751 32.3269L77.0367 32.5244L61.7049 52.7972L61.5467 52.9948L55.2952 61.2658L55.0974 61.5224L52.3079 65.2138L52.1102 65.4704L38.8554 82.9995L35.1758 80.8084L46.7686 65.4704L46.9666 65.2138L49.7559 61.5224L49.9539 61.2658L58.3617 50.1521L58.2429 49.9943L58.5396 49.5796L61.8039 45.2962L73.0801 30.3924L73.3769 29.9779H73.5747L79.0942 22.674L79.292 22.4176L82.0815 18.726L82.2793 18.4696L95.5338 0.94043L99.2332 3.19058Z" fill="white"/>
<path d="M108.967 27.2344C109.465 27.5736 109.995 27.8644 110.55 28.1028C109.999 27.857 109.47 27.5666 108.967 27.2344Z" fill="black"/>
<path d="M115.001 18.5293V28.8928H114.506C113.942 28.8735 113.38 28.8142 112.825 28.7152L111.875 28.4783L111.242 28.281H111.044L110.688 28.1624H110.55C110 27.923 109.471 27.6392 108.967 27.3137C108.504 27.0171 108.073 26.6731 107.681 26.2872C107.385 26.031 107.107 25.7538 106.85 25.4581C106.411 24.9611 106.026 24.4186 105.703 23.8395C105.555 23.6117 105.423 23.3743 105.307 23.1289V22.9906C105.246 22.8759 105.193 22.7573 105.149 22.6354C105.075 22.4811 105.009 22.3229 104.951 22.1616C104.896 22.0266 104.85 21.8879 104.813 21.7469C104.719 21.5238 104.646 21.2925 104.595 21.0561C104.595 20.76 104.456 20.464 104.397 20.1481C104.338 19.8323 104.397 19.5165 104.298 19.1809C104.289 19.1088 104.289 19.0358 104.298 18.9638V18.6874L115.001 18.5293Z" fill="white"/>
<path d="M32.7619 65.4714H22V55.0684H22.2374H23.0879C23.8516 55.1425 24.6067 55.2879 25.3432 55.5026L25.9566 55.7199C26.0716 55.7506 26.1839 55.79 26.2928 55.8382H26.4512C27.0253 56.09 27.5749 56.3938 28.0931 56.7462C28.6068 57.0845 29.084 57.4749 29.5174 57.911L29.8736 58.2662C29.9891 58.3683 30.0948 58.4807 30.19 58.6019C30.4048 58.845 30.6032 59.1022 30.7835 59.3718C30.9616 59.6284 31.1397 59.8851 31.2979 60.1614C31.469 60.4404 31.621 60.7305 31.7529 61.0299C31.816 61.141 31.8628 61.2608 31.8915 61.3853C32.1041 61.8636 32.2762 62.3588 32.4059 62.8658C32.4225 62.9903 32.4225 63.1163 32.4059 63.2408C32.5445 63.8369 32.624 64.4453 32.6433 65.0569L32.7619 65.4714Z" fill="white"/>
<path d="M115 55.0879V65.4712H104.218V65.1948C104.209 65.1161 104.209 65.0366 104.218 64.9579C104.218 64.6815 104.218 64.4051 104.218 64.1287L104.337 63.5169C104.358 63.342 104.397 63.1699 104.456 63.0037C104.584 62.4936 104.763 61.9977 104.99 61.5232C105.019 61.3987 105.065 61.2789 105.128 61.1677C105.267 60.8716 105.425 60.5756 105.583 60.2993C105.743 60.0178 105.921 59.7473 106.117 59.4899C106.293 59.2168 106.491 58.9592 106.711 58.72C106.929 58.4831 107.146 58.2463 107.383 58.0291C107.481 57.915 107.594 57.8153 107.72 57.733C107.966 57.4876 108.238 57.2693 108.531 57.0817C108.698 56.9323 108.884 56.8063 109.085 56.7067C109.514 56.4174 109.971 56.1726 110.45 55.9763H110.588L110.945 55.8578C111.487 55.6635 112.042 55.5053 112.606 55.384C113.2 55.2685 113.802 55.2025 114.407 55.1867L115 55.0879Z" fill="white"/>
</svg>
