<svg width="140" height="82" viewBox="0 0 140 82" fill="none" xmlns="http://www.w3.org/2000/svg">
<rect width="140" height="82" rx="11" fill="#BCA5CD"/>
<path d="M35 15.5465C35.1506 14.9915 35.2775 14.4286 35.4597 13.8816C36.0418 12.1428 37.1636 10.6353 38.6619 9.57875C40.1602 8.52216 41.9566 7.97172 43.7895 8.0075C51.5302 8.0075 59.276 8.0075 67.0272 8.0075C72.1234 8.0075 77.2196 8.0075 82.3157 8.0075C84.2986 7.97617 86.231 8.6338 87.7833 9.86838C89.3356 11.103 90.4115 12.838 90.8278 14.7774C90.9745 15.4572 91.0463 16.151 91.0418 16.8465C91.0418 25.3023 91.0418 33.7582 91.0418 42.2141C91.0781 43.3913 90.8729 44.5634 90.4386 45.6581C90.0044 46.7529 89.3505 47.7469 88.5171 48.579C87.6838 49.411 86.6888 50.0634 85.5935 50.4958C84.4983 50.9281 83.326 51.1313 82.1492 51.0928C71.9569 51.0928 61.762 51.0928 51.5645 51.0928C51.1202 51.0742 50.6859 51.2275 50.3518 51.521C46.6532 54.6391 42.9309 57.744 39.1847 60.8356C38.7653 61.2059 38.2924 61.5105 37.7819 61.7393C37.4954 61.8366 37.1916 61.872 36.8904 61.8432C36.5892 61.8144 36.2974 61.7221 36.0345 61.5722C35.7716 61.4224 35.5435 61.2185 35.3652 60.974C35.1869 60.7295 35.0624 60.4499 35 60.1538V15.5465ZM39.3116 55.1199L39.9535 54.6126C42.7274 52.2978 45.5014 49.983 48.2753 47.6682C48.9314 47.0919 49.7801 46.7835 50.653 46.8041C61.0778 46.8041 71.4946 46.8041 81.9036 46.8041C84.9549 46.8041 86.7223 45.0521 86.7223 42.0477V17.1874C86.7223 14.0957 84.9787 12.3438 81.8877 12.3438H44.1699C40.9997 12.3438 39.2957 14.0799 39.2957 17.2191V55.1517L39.3116 55.1199Z" fill="white"/>
<path d="M101.425 77.0005C100.876 76.7042 100.346 76.3732 99.8396 76.0095C96.812 73.6313 93.8082 71.1818 90.7806 68.7956C90.4505 68.5474 90.0522 68.4063 89.6394 68.3913C80.1287 68.3913 70.618 68.3913 61.1074 68.3913C59.1125 68.4573 57.1584 67.8168 55.5896 66.5826C54.0207 65.3484 52.9378 63.5998 52.5318 61.6451C52.2885 60.2106 52.2193 58.752 52.3258 57.3009C52.378 56.7795 52.6283 56.2981 53.025 55.9559C53.4217 55.6137 53.9345 55.4369 54.4578 55.4618C54.9922 55.4681 55.5049 55.6741 55.895 56.0394C56.2851 56.4047 56.5245 56.9028 56.566 57.4357C56.6136 58.1016 56.566 58.7833 56.566 59.4571C56.526 60.0772 56.6191 60.6987 56.8391 61.2797C57.0592 61.8607 57.4012 62.3879 57.8419 62.8257C58.2827 63.2635 58.812 63.6019 59.3944 63.8181C59.9767 64.0342 60.5987 64.1232 61.2183 64.0789C70.9192 64.0789 80.6175 64.0789 90.3131 64.0789C91.3048 64.0562 92.2701 64.4006 93.0236 65.046C95.0447 66.7187 97.1132 68.3358 99.166 69.9768L99.681 70.3495V34.3512C99.681 31.5132 98.096 29.8405 95.2903 29.5947C95.0001 29.5928 94.7131 29.5323 94.4468 29.4169C94.1805 29.3014 93.9402 29.1333 93.7404 28.9227C93.5407 28.712 93.3855 28.4632 93.2842 28.1912C93.1829 27.9191 93.1375 27.6293 93.1509 27.3393C93.1642 27.0493 93.236 26.7649 93.3619 26.5033C93.4878 26.2417 93.6651 26.0083 93.8834 25.8169C94.1017 25.6256 94.3564 25.4802 94.6322 25.3897C94.908 25.2992 95.1993 25.2653 95.4885 25.2901C97.6651 25.3281 99.7473 26.1858 101.319 27.692C102.891 29.1983 103.837 31.2422 103.969 33.4157C103.969 33.7724 103.969 34.1371 103.969 34.4938C103.969 47.7061 103.969 60.9343 103.969 74.1784C103.969 75.5102 103.581 76.4852 102.336 77.0322L101.425 77.0005Z" fill="#E6E6E6"/>
</svg>
