<svg width="20" height="30" viewBox="0 0 20 30" fill="none" xmlns="http://www.w3.org/2000/svg">
<path d="M18.7022 3.36414H1.58532C0.931978 3.36414 0.402344 3.8943 0.402344 4.54829V28.816C0.402344 29.4699 0.931978 30.0001 1.58532 30.0001H18.7022C19.3555 30.0001 19.8851 29.4699 19.8851 28.816V4.54829C19.8851 3.8943 19.3555 3.36414 18.7022 3.36414Z" fill="#527275"/>
<path d="M18.2984 5.46521H1.98982C1.818 5.46521 1.67871 5.60464 1.67871 5.77663V28.301C1.67871 28.473 1.818 28.6124 1.98982 28.6124H18.2984C18.4703 28.6124 18.6095 28.473 18.6095 28.301V5.77663C18.6095 5.60464 18.4703 5.46521 18.2984 5.46521Z" fill="white"/>
<path opacity="0.04" d="M18.9424 29.9562L1.58587 29.9734C1.3041 30.0327 0.514718 29.816 0.402344 28.9488L0.469877 4.58643L18.9424 29.9562Z" fill="black"/>
<path d="M6.66605 13.3388H2.69531V9.36133H6.66826L6.66605 13.3388ZM2.83537 13.1958H6.52378V9.50374H2.83537V13.1958Z" fill="#153E49"/>
<path d="M6.66605 19.3443H2.69531V15.3674H6.66826L6.66605 19.3443ZM2.83537 19.2019H6.52378V15.5098H2.83537V19.2019Z" fill="#153E49"/>
<path d="M6.66605 25.3487H2.69531V21.3712H6.66826L6.66605 25.3487ZM2.83537 25.2057H6.52378V21.5136H2.83537V25.2057Z" fill="#153E49"/>
<path d="M16.9638 9.68823H8.7793V10.0961H16.9638V9.68823Z" fill="#E6E6E6"/>
<path d="M16.9638 10.9421H8.7793V11.35H16.9638V10.9421Z" fill="#E6E6E6"/>
<path d="M16.9638 12.1956H8.7793V12.6034H16.9638V12.1956Z" fill="#E6E6E6"/>
<path d="M16.9638 15.8268H8.7793V16.2346H16.9638V15.8268Z" fill="#E6E6E6"/>
<path d="M16.9638 17.0808H8.7793V17.4886H16.9638V17.0808Z" fill="#E6E6E6"/>
<path d="M16.9638 18.3341H8.7793V18.7419H16.9638V18.3341Z" fill="#E6E6E6"/>
<path d="M16.9638 21.5941H8.7793V22.0019H16.9638V21.5941Z" fill="#E6E6E6"/>
<path d="M16.9638 22.848H8.7793V23.2559H16.9638V22.848Z" fill="#E6E6E6"/>
<path d="M16.9638 24.1014H8.7793V24.5093H16.9638V24.1014Z" fill="#E6E6E6"/>
<path opacity="0.22" d="M7.30353 8.87305L4.46982 10.9593L3.70701 10.1846L2.97852 10.6723L4.43827 11.8237L7.79178 9.00604L7.30353 8.87305Z" fill="black"/>
<path d="M3.12695 10.489L3.64011 10.1454L4.40569 10.9234L7.27594 8.81055L7.49183 8.86928L4.3841 11.4808L3.12695 10.489Z" fill="#8CAD81"/>
<path d="M4.3852 11.5345L3.05664 10.4861L3.64674 10.091L4.41122 10.8668L7.26873 8.76111L7.58205 8.84644L4.3852 11.5345ZM3.19891 10.4916L4.38354 11.4264L7.40325 8.88855L7.28478 8.85642L4.40125 10.9793L3.63567 10.2002L3.19891 10.4916Z" fill="#8CAD81"/>
<path opacity="0.22" d="M7.59412 15.6178L4.75986 17.7041L3.9976 16.9294L3.26855 17.417L4.72831 18.5685L8.08182 15.7508L7.59412 15.6178Z" fill="black"/>
<path d="M3.41602 17.2337L3.92917 16.8902L4.69475 17.6682L7.565 15.5553L7.78089 15.614L4.67317 18.225L3.41602 17.2337Z" fill="#8CAD81"/>
<path d="M4.67524 18.2792L3.34668 17.2308L3.93678 16.8357L4.70126 17.6115L7.55877 15.5059L7.87209 15.5912L4.67524 18.2792ZM3.48895 17.2364L4.67358 18.1706L7.69328 15.6333L7.57482 15.6012L4.69129 17.7234L3.9246 16.9444L3.48895 17.2364Z" fill="#8CAD81"/>
<path opacity="0.22" d="M7.59412 21.1512L4.75986 23.2375L3.9976 22.4623L3.26855 22.9505L4.72831 24.1014L8.08182 21.2837L7.59412 21.1512Z" fill="black"/>
<path d="M3.41602 22.7672L3.92917 22.4236L4.69475 23.2016L7.565 21.0887L7.78089 21.1475L4.67317 23.7585L3.41602 22.7672Z" fill="#8CAD81"/>
<path d="M4.67524 23.8127L3.34668 22.7643L3.93678 22.3692L4.70126 23.145L7.55877 21.0393L7.87209 21.1241L4.67524 23.8127ZM3.48895 22.7698L4.67358 23.7041L7.69328 21.1668L7.57482 21.1346L4.69129 23.2569L3.9246 22.4778L3.48895 22.7698Z" fill="#8CAD81"/>
<path d="M15.5219 2.70244H12.6262V2.28852C12.6262 1.68156 12.3853 1.09947 11.9566 0.670291C11.5278 0.241111 10.9463 0 10.34 0H10.294C9.68766 0 9.10615 0.241111 8.6774 0.670291C8.24865 1.09947 8.00777 1.68156 8.00777 2.28852V2.70244H5.11207C5.04013 2.70244 4.97114 2.73105 4.92027 2.78197C4.8694 2.83289 4.84082 2.90195 4.84082 2.97396V5.89916C4.84082 5.97117 4.8694 6.04023 4.92027 6.09115C4.97114 6.14207 5.04013 6.17068 5.11207 6.17068H15.5191C15.591 6.17053 15.6599 6.14188 15.7108 6.09099C15.7616 6.0401 15.7902 5.97112 15.7904 5.89916V2.97451C15.7905 2.90288 15.7624 2.8341 15.7121 2.78314C15.6618 2.73218 15.5934 2.70317 15.5219 2.70244ZM10.3184 2.43037C10.1158 2.43037 9.92145 2.34981 9.77819 2.2064C9.63493 2.06299 9.55444 1.86849 9.55444 1.66568C9.55444 1.46288 9.63493 1.26838 9.77819 1.12497C9.92145 0.981564 10.1158 0.900999 10.3184 0.900999C10.4187 0.900926 10.5181 0.920652 10.6109 0.959049C10.7036 0.997445 10.7879 1.05376 10.8589 1.12477C10.9299 1.19579 10.9862 1.28011 11.0246 1.37292C11.0631 1.46574 11.0828 1.56522 11.0828 1.66568C11.0828 1.76629 11.063 1.86591 11.0245 1.95883C10.9859 2.05175 10.9295 2.13615 10.8583 2.20718C10.7871 2.27822 10.7027 2.3345 10.6097 2.3728C10.5168 2.4111 10.4172 2.43066 10.3167 2.43037H10.3184Z" fill="#F7D77F"/>
<path d="M15.7931 5.23596H4.84082V5.69477H15.7931V5.23596Z" fill="#E5C573"/>
<path d="M15.7428 6.01603H4.90116C4.88516 6.01603 4.86981 6.00967 4.85849 5.99834C4.84718 5.98702 4.84082 5.97165 4.84082 5.95563V5.81433H15.7931V5.96616C15.7931 5.97276 15.7918 5.97929 15.7893 5.98538C15.7868 5.99146 15.783 5.99699 15.7783 6.00162C15.7737 6.00626 15.7681 6.00993 15.762 6.0124C15.7559 6.01487 15.7494 6.0161 15.7428 6.01603V6.01603Z" fill="#E5C573"/>
</svg>
