<svg width="43" height="43" viewBox="0 0 43 43" fill="none" xmlns="http://www.w3.org/2000/svg">
<path d="M42 21.4998C42.0074 25.8787 40.6023 30.1432 37.9932 33.66C37.2369 34.7195 36.3614 35.6887 35.3841 36.5486C31.6098 40.0525 26.6502 41.9997 21.5001 41.9997C16.3501 41.9997 11.3905 40.0525 7.61615 36.5486C6.63485 35.6446 5.74531 34.6458 4.96049 33.5668C2.36668 30.0804 0.976746 25.8452 1.00029 21.4998C1.00029 16.0629 3.16009 10.8487 7.00456 7.00426C10.849 3.1598 16.0632 1 21.5001 1C26.937 1 32.1512 3.1598 35.9957 7.00426C39.8402 10.8487 42 16.0629 42 21.4998V21.4998Z" stroke="#B3B3B3" stroke-width="0.5" stroke-miterlimit="10"/>
<path d="M37.9975 33.6594C37.2412 34.7189 36.3658 35.6881 35.3885 36.548C31.6141 40.0519 26.6545 41.9992 21.5045 41.9992C16.3544 41.9992 11.3948 40.0519 7.6205 36.548C6.63921 35.644 5.74966 34.6452 4.96484 33.5662C5.05802 32.4481 5.80347 31.7026 6.6421 31.0969C8.6455 29.6526 10.8818 28.8606 13.258 28.2549C13.7974 28.1256 14.2751 27.8126 14.6091 27.3697C15.1812 26.5643 15.9102 25.8829 16.7523 25.3663C16.8555 25.3208 16.9501 25.2578 17.0318 25.1799V27.1367C17.0078 27.4282 17.0758 27.7198 17.2263 27.9705C17.3767 28.2212 17.602 28.4185 17.8704 28.5344C18.4295 28.8606 18.9886 29.2333 19.5011 29.5594C19.9604 29.8222 20.3488 30.1928 20.6329 30.6393C20.917 31.0857 21.0882 31.5946 21.1318 32.1219C21.1318 32.2617 21.0386 32.5412 21.3181 32.4946C21.4579 32.4946 21.4113 32.2617 21.4113 32.1219C21.4861 31.6188 21.6776 31.1401 21.9704 30.7242C22.5761 29.7458 23.6011 29.2799 24.4863 28.6276C24.9344 28.4122 25.2959 28.0508 25.5113 27.6026V25.1799C26.5042 25.7312 27.3632 26.4948 28.0272 27.4163C28.337 27.8117 28.7593 28.1041 29.2385 28.2549C31.6612 28.9538 34.0839 29.7458 36.1805 31.2367C37.0657 31.889 37.8112 32.5878 37.9975 33.6594Z" fill="#B3B3B3"/>
<path d="M21.3162 32.5427C21.0367 32.5427 21.1765 32.3098 21.1299 32.17C21.1459 32.1921 21.1669 32.2101 21.1912 32.2226C21.2155 32.235 21.2424 32.2415 21.2697 32.2415C21.2969 32.2415 21.3239 32.235 21.3481 32.2226C21.3724 32.2101 21.3935 32.1921 21.4094 32.17C21.4094 32.3098 21.456 32.5427 21.3162 32.5427Z" fill="#B2B2B2"/>
<path d="M28.0712 19.2651C28.0246 19.4049 27.978 19.5913 27.8382 19.6379C26.8132 20.1038 26.8598 21.1288 26.5337 21.9674C26.2669 22.6415 25.9229 23.2825 25.5087 23.8776C24.4837 25.0424 23.2724 25.881 21.5951 25.9742C19.9178 26.0674 18.6133 25.4151 17.4019 24.4367C17.8883 25.2404 18.5303 25.9388 19.2904 26.4909C20.0505 27.043 20.9133 27.4375 21.828 27.6514C22.9359 27.8531 24.0696 27.8689 25.1826 27.698C25.2781 27.7054 25.3741 27.6894 25.4621 27.6514C25.2467 28.0996 24.8852 28.461 24.4371 28.6764C23.5519 29.2821 22.5269 29.7946 21.9212 30.773C21.6404 31.1954 21.4501 31.6712 21.3621 32.1707C21.3462 32.1928 21.3252 32.2109 21.3009 32.2233C21.2766 32.2357 21.2497 32.2422 21.2224 32.2422C21.1951 32.2422 21.1682 32.2357 21.1439 32.2233C21.1196 32.2109 21.0986 32.1928 21.0826 32.1707C21.0192 31.649 20.8398 31.1481 20.5577 30.7047C20.2755 30.2613 19.8977 29.8866 19.4519 29.6082C18.8928 29.2355 18.3803 28.9094 17.8213 28.5832C17.5669 28.4493 17.3542 28.2482 17.2064 28.0017C17.0585 27.7553 16.9811 27.4729 16.9826 27.1855V25.2287C17.0774 24.3958 16.8797 23.5559 16.4235 22.8526C15.962 22.1887 15.6737 21.42 15.5849 20.6163C15.5383 20.3833 15.4917 20.1504 15.2122 20.1038C14.6065 20.0106 14.4667 19.4981 14.2804 19.0322C13.9809 18.3574 13.8262 17.6273 13.8262 16.889C13.8262 16.1507 13.9809 15.4207 14.2804 14.7459C14.5133 15.7243 14.7929 16.7027 15.0258 17.6345C15.0724 17.8208 15.0724 18.1936 15.3054 18.1936C15.6315 18.1936 15.5849 17.8208 15.6781 17.5879C15.7152 17.3725 15.7308 17.154 15.7247 16.9356C15.7247 15.9572 15.7713 14.9788 15.8645 14.0004C16.0974 11.7175 17.3088 10.2732 19.2656 9.80726C19.5917 9.71408 19.9644 9.85385 20.2906 9.6209C21.2224 9.6209 22.2008 9.6209 23.1326 9.5743H23.3189C23.7848 9.5743 24.111 9.24817 24.4837 9.1084C24.5303 9.1084 24.5303 9.06181 24.5769 9.06181C24.6235 9.06181 24.7167 8.96863 24.8098 8.96863H24.8564C24.8495 9.0343 24.866 9.10032 24.903 9.15499V9.76067C24.903 9.90044 24.9496 10.0402 24.9496 10.2266C24.9466 10.2519 24.9492 10.2775 24.9572 10.3017C24.9653 10.3259 24.9786 10.3479 24.9962 10.3663C25.0755 11.5276 25.5153 12.6351 26.2541 13.5345C26.4685 13.7459 26.6007 14.0266 26.6269 14.3265V17.4947C26.6735 17.7742 26.6735 18.0538 27.0462 18.2401C27.6053 17.2152 27.745 16.0504 28.0712 14.9322C28.8166 16.3765 28.6303 17.8674 28.0712 19.2651Z" fill="#DDDDDD"/>
<path d="M25.5035 25.2284V27.6512C25.4079 27.6438 25.312 27.6598 25.224 27.6977C24.1127 27.892 22.9749 27.8762 21.8695 27.6512C20.9521 27.4438 20.0866 27.0518 19.3257 26.4991C18.5647 25.9464 17.9243 25.2446 17.4434 24.4364C18.6547 25.4614 20.0058 26.1137 21.6365 25.9739C23.2672 25.8341 24.4785 25.0421 25.5501 23.8773C25.5113 24.3266 25.4958 24.7776 25.5035 25.2284Z" fill="#C8C6C7"/>
<path d="M21.3162 32.5427C21.0367 32.5427 21.1765 32.3098 21.1299 32.17H21.4094C21.4094 32.3098 21.456 32.5427 21.3162 32.5427Z" fill="#BFBEBF"/>
<path d="M28.4397 12.9718C28.3465 13.624 28.2999 14.2763 28.2068 14.9286C27.834 16.0468 27.7408 17.2115 27.1818 18.2365C26.809 18.0967 26.809 17.8172 26.7624 17.4911V14.3229C26.7362 14.023 26.6041 13.7422 26.3897 13.5309C25.6508 12.6315 25.2111 11.524 25.1318 10.3627C25.1318 10.3161 25.0852 10.2695 25.0852 10.2229C25.0852 10.0832 25.0386 9.94339 25.0386 9.75703V9.15135C25.0405 9.08612 25.0244 9.02163 24.992 8.96499H24.9454C24.859 8.96658 24.7761 8.99972 24.7125 9.05817C24.6659 9.05817 24.6659 9.10476 24.6193 9.10476C24.2755 9.354 23.8753 9.51408 23.4545 9.57067H23.2682C22.3363 9.57067 21.3579 9.57067 20.4261 9.61726C20.1 9.85021 19.7273 9.71044 19.4011 9.80362C17.4443 10.2695 16.233 11.7138 16 13.9968C15.9069 14.9752 15.8603 15.9536 15.8603 16.932C15.8697 17.1505 15.854 17.3693 15.8137 17.5842C15.7671 17.8172 15.7671 18.1899 15.4409 18.1899C15.1148 18.1899 15.208 17.8638 15.1614 17.6308C14.8819 16.6524 14.6489 15.7206 14.416 14.7422C14.2296 13.5309 13.95 12.3195 14.2296 11.0616C14.3338 10.4015 14.5688 9.76881 14.9208 9.20077C15.2729 8.63272 15.7348 8.14072 16.2796 7.75363C16.4804 7.63055 16.642 7.45278 16.7455 7.24114C17.258 5.9366 18.4693 5.4707 19.6341 4.9582C19.867 5.28434 19.3546 5.61047 19.7273 5.75024C19.9602 5.89001 20.2398 5.61047 20.4727 5.4707C20.7126 5.35061 20.9203 5.17489 21.0784 4.9582C21.3579 4.30593 21.8238 4.39912 22.3829 4.53889C23.7341 4.9582 24.8522 5.61047 25.4579 6.9616C25.5483 7.1433 25.6955 7.29053 25.8772 7.38091C27.9738 8.26613 28.7192 10.9684 28.4397 12.9718Z" fill="#9E9E9E"/>
</svg>
