<svg width="38" height="38" viewBox="0 0 38 38" fill="none" xmlns="http://www.w3.org/2000/svg">
<circle cx="19" cy="19" r="19" fill="#F7F4F9"/>
<path d="M16.3344 12.3407C16.3344 11.7943 16.3344 11.2938 16.3344 10.7933C16.3344 10.1945 16.5267 10 17.1125 10H20.2596C20.8082 10 21.0114 10.2054 21.0136 10.7627V12.3407H21.3458C23.3434 12.3407 25.341 12.3407 27.3363 12.3407C28.8662 12.3407 30.0355 13.3045 30.3021 14.7666C30.3313 14.937 30.3452 15.1096 30.3436 15.2824C30.3436 18.375 30.3436 21.4653 30.3436 24.5578C30.3595 25.221 30.1452 25.8692 29.7372 26.3924C29.3292 26.9155 28.7527 27.2812 28.1057 27.4274C27.8577 27.4846 27.6039 27.5125 27.3495 27.5105C21.5666 27.5105 15.7844 27.5105 10.0029 27.5105C9.60705 27.5241 9.21261 27.4564 8.84393 27.3116C8.47525 27.1668 8.14017 26.948 7.85937 26.6686C7.57858 26.3893 7.35802 26.0553 7.21134 25.6874C7.06466 25.3194 6.99497 24.9253 7.00656 24.5294C6.99781 21.4566 6.99781 18.383 7.00656 15.3087C7.00656 13.5865 8.25887 12.3495 9.98325 12.3407C11.9808 12.3298 13.9762 12.3407 15.9738 12.3407H16.3344ZM16.3169 13.5034H10.0095C8.90141 13.5034 8.16487 14.2465 8.16487 15.3633V24.4748C8.16487 25.6047 8.89922 26.35 10.0269 26.35H27.3189C28.4488 26.35 29.181 25.6069 29.181 24.4748C29.181 21.4398 29.181 18.4034 29.181 15.3655C29.181 14.2356 28.4444 13.5034 27.3101 13.5034H21.0311C20.8869 15.1841 19.6411 15.8397 18.6729 15.8397C17.7047 15.8397 16.4502 15.1491 16.3169 13.5034V13.5034ZM17.5321 11.178C17.5321 11.2523 17.5124 11.3135 17.5124 11.3747C17.5124 12.0763 17.5124 12.7778 17.5124 13.4772C17.5067 13.6325 17.5328 13.7874 17.5889 13.9323C17.645 14.0773 17.73 14.2093 17.8388 14.3203C17.9476 14.4313 18.0779 14.5191 18.2216 14.5781C18.3654 14.6372 18.5197 14.6664 18.6751 14.6639C18.8303 14.6658 18.9843 14.6361 19.1277 14.5767C19.2712 14.5172 19.401 14.4292 19.5093 14.318C19.6177 14.2068 19.7023 14.0747 19.758 13.9298C19.8137 13.7849 19.8394 13.6301 19.8334 13.475C19.8334 12.9658 19.8334 12.4565 19.8334 11.9451V11.1736L17.5321 11.178Z" fill="#662D91"/>
<path d="M11.6785 19.74C11.2695 19.2821 11.0569 18.6819 11.0863 18.0687C11.1157 17.4555 11.3849 16.8784 11.8358 16.4617C12.2629 16.069 12.8205 15.8486 13.4006 15.8434C13.9808 15.8381 14.5423 16.0483 14.9764 16.4333C15.761 17.1283 16.1697 18.5271 15.136 19.7816C15.9388 20.236 16.5296 20.9894 16.7795 21.8775C16.8603 22.1854 16.9064 22.5013 16.9172 22.8194C16.9216 22.8949 16.9107 22.9705 16.8851 23.0416C16.8596 23.1127 16.8198 23.1779 16.7684 23.2333C16.7169 23.2886 16.6548 23.333 16.5857 23.3636C16.5166 23.3943 16.442 23.4107 16.3664 23.4117C16.2888 23.4194 16.2104 23.4107 16.1364 23.3859C16.0624 23.3612 15.9945 23.3211 15.9371 23.2682C15.8797 23.2154 15.8342 23.151 15.8035 23.0793C15.7727 23.0076 15.7575 22.9302 15.7588 22.8522C15.7042 21.9015 15.2977 21.1716 14.4344 20.741C14.1029 20.5812 13.7381 20.5023 13.3701 20.5111C13.0022 20.5199 12.6416 20.6159 12.318 20.7914C11.9945 20.9668 11.7172 21.2166 11.5091 21.5202C11.301 21.8238 11.1681 22.1725 11.1211 22.5375C11.108 22.6446 11.0993 22.7561 11.0884 22.8632C11.0864 22.9387 11.0693 23.013 11.038 23.0817C11.0067 23.1505 10.9619 23.2122 10.9062 23.2632C10.8505 23.3142 10.7851 23.3534 10.7139 23.3786C10.6426 23.4037 10.5671 23.4143 10.4917 23.4095C10.4162 23.409 10.3415 23.3933 10.2721 23.3633C10.2028 23.3334 10.1401 23.2898 10.0879 23.2352C10.0357 23.1805 9.99505 23.116 9.9683 23.0453C9.94155 22.9746 9.9293 22.8993 9.93223 22.8238C9.91649 21.9935 10.2164 21.1882 10.7715 20.5705C11.0581 20.277 11.3609 19.9998 11.6785 19.74V19.74ZM13.4007 19.3226C13.5534 19.3294 13.7059 19.3051 13.849 19.2513C13.9921 19.1974 14.1228 19.115 14.2331 19.0092C14.3435 18.9034 14.4312 18.7762 14.4909 18.6355C14.5507 18.4948 14.5813 18.3434 14.5808 18.1905C14.584 18.0377 14.557 17.8858 14.5014 17.7435C14.4457 17.6012 14.3625 17.4713 14.2565 17.3612C14.1505 17.2512 14.0238 17.1631 13.8837 17.1022C13.7435 17.0412 13.5928 17.0085 13.44 17.0059C13.2872 17.0033 13.1354 17.0309 12.9934 17.0871C12.8513 17.1433 12.7217 17.227 12.612 17.3334C12.5024 17.4398 12.4148 17.5668 12.3544 17.7072C12.2939 17.8475 12.2618 17.9984 12.2598 18.1511C12.2542 18.3039 12.2796 18.4562 12.3346 18.5989C12.3895 18.7415 12.4728 18.8716 12.5795 18.9811C12.6861 19.0906 12.8139 19.1773 12.9551 19.236C13.0962 19.2947 13.2478 19.3242 13.4007 19.3226V19.3226Z" fill="#662D91"/>
<path d="M23.0355 21.6645H19.9189C19.5321 21.6645 19.2939 21.47 19.2633 21.1465C19.2527 21.0624 19.2609 20.977 19.2873 20.8965C19.3137 20.816 19.3577 20.7424 19.4161 20.6809C19.4744 20.6194 19.5456 20.5717 19.6247 20.5411C19.7037 20.5105 19.7885 20.4978 19.873 20.504C20.5943 20.504 21.3133 20.504 22.0345 20.504H26.163C26.5148 20.504 26.7465 20.6591 26.8186 20.9301C26.8444 21.0206 26.8476 21.116 26.8281 21.2081C26.8085 21.3001 26.7668 21.386 26.7064 21.4582C26.6461 21.5303 26.569 21.5867 26.4819 21.6223C26.3948 21.6578 26.3003 21.6716 26.2067 21.6623C25.1511 21.6754 24.0933 21.6645 23.0355 21.6645Z" fill="#662D91"/>
<path d="M23.0859 17.5943H26.0386C26.1216 17.5943 26.2047 17.5943 26.2855 17.5943C26.433 17.5954 26.5739 17.6549 26.6775 17.7598C26.7812 17.8647 26.8391 18.0063 26.8385 18.1538C26.842 18.2291 26.8305 18.3044 26.8046 18.3752C26.7787 18.4461 26.7389 18.5111 26.6877 18.5664C26.6364 18.6218 26.5746 18.6663 26.506 18.6975C26.4373 18.7288 26.3631 18.746 26.2877 18.7482C26.1041 18.7613 25.9227 18.7482 25.7391 18.7482H19.9977C19.8618 18.7525 19.7262 18.7318 19.5978 18.687C19.4749 18.634 19.375 18.5387 19.3161 18.4185C19.2572 18.2983 19.2431 18.161 19.2765 18.0314C19.3039 17.9054 19.3743 17.7928 19.4756 17.7131C19.5769 17.6333 19.7028 17.5913 19.8316 17.5943C20.4327 17.5943 21.0359 17.5943 21.6369 17.5943H23.0859Z" fill="#662D91"/>
</svg>
