<svg width="26" height="30" viewBox="0 0 26 30" fill="none" xmlns="http://www.w3.org/2000/svg">
<path d="M18.5255 27.7097C18.7826 26.9526 21.2188 18.2086 18.1657 13.1501C16.3032 10.0646 19.6894 2.68353 15.8405 0.490841C12.9278 -1.16682 10.2798 1.85985 8.66817 2.40467C7.11824 2.92888 5.05372 2.24283 3.60558 3.95461C1.08045 6.93695 3.22619 13.0707 1.25318 15.3747C-0.719838 17.6787 1.36473 27.7082 1.36473 27.7082L18.5255 27.7097Z" fill="#E8F7FF"/>
<path d="M4.97813 27.0057C4.97813 27.0057 0.706178 22.4755 2.83084 19.2086C4.95551 15.9417 7.67856 20.7549 8.40906 18.1633C9.13956 15.5716 1.3133 3.80001 9.68088 1.59804C18.0485 -0.603923 13.6691 9.94509 14.9393 11.61C16.3669 13.4815 20.8825 8.50289 19.056 16.436C17.6233 22.661 19.8755 19.6488 20.7165 21.6173C21.7678 24.0775 19.7398 27.0057 19.7398 27.0057H4.97813Z" fill="#BAE3FF"/>
<path d="M21.0171 23.0951C21.0171 23.0435 21.0145 22.9961 21.0119 22.9472C20.1606 23.2533 19.3124 23.0167 19.0584 22.9312C19.4183 22.2462 19.8337 21.6003 20.3076 21.0545C20.2738 21.0281 20.2384 21.0039 20.2017 20.9818C19.3957 21.9219 18.7623 23.1466 18.2729 24.3492C18.3007 23.6791 18.4513 22.0523 19.2368 20.705C19.1963 20.6931 19.1565 20.679 19.1176 20.6627C18.11 22.4286 18.148 24.6352 18.1485 24.662C17.8556 25.4299 17.6017 26.2121 17.3877 27.0057H17.5111C17.8226 25.8666 18.3048 24.3976 18.9921 23.0575C19.3494 23.1791 19.7241 23.2416 20.1015 23.2425C20.4127 23.2445 20.7221 23.1947 21.0171 23.0951V23.0951Z" fill="#A3DAFF"/>
<path d="M15.796 21.2267C16.0602 21.2112 17.2303 21.0906 18.6748 20.1484C18.6614 20.1051 18.6496 20.0587 18.6393 20.0087C17.2462 20.9241 16.1127 21.0612 15.8176 21.0813C15.9117 20.4004 16.0232 19.7169 16.1625 19.051C16.4257 19.0154 17.6801 18.8092 18.7298 18.0557L18.7632 17.8588C17.769 18.6098 16.5316 18.8479 16.1929 18.901C16.5866 17.0428 17.165 15.3326 18.0137 14.2002C18.4754 13.5703 18.8734 12.8958 19.2017 12.1868C19.1763 12.1487 19.1483 12.1124 19.1179 12.0781C18.7896 12.7913 18.3906 13.4696 17.9268 14.1027C17.3542 14.8666 16.9038 15.8882 16.5486 17.0408C16.4854 16.1356 16.3538 13.3966 16.9506 11.9513C16.9033 11.9611 16.8555 11.9704 16.8082 11.9791C16.124 13.7744 16.4386 17.1851 16.455 17.3552C15.5297 20.5638 15.3061 24.6543 15.2588 27.0078H15.377C15.4058 25.5409 15.503 23.4028 15.796 21.2267Z" fill="#A3DAFF"/>
<path d="M8.40121 25.1781C8.40121 24.8946 8.39453 21.138 7.49284 18.9557C7.44427 18.9496 7.39605 18.941 7.34839 18.9299C8.15291 20.7906 8.2655 24.0054 8.2804 24.9332C7.5607 23.5013 6.61892 22.2241 5.66171 21.1427C5.69153 20.9365 5.86734 19.5732 5.60465 18.2124C5.56198 18.1969 5.5188 18.1825 5.47562 18.1686C5.72854 19.3938 5.60517 20.6453 5.55787 21.0262C4.82147 20.2103 4.03146 19.4447 3.19313 18.7345C3.16383 18.767 3.13453 18.8 3.10574 18.835C4.16382 19.7277 5.14269 20.7108 6.03133 21.7731C5.73471 22.0153 4.37293 23.0184 2.46777 22.7715C2.48217 22.823 2.49708 22.8715 2.51301 22.9209C2.69642 22.9428 2.88094 22.954 3.06564 22.9544C4.72456 22.9544 5.87608 22.0782 6.11718 21.8761C6.30636 22.1078 6.4928 22.3469 6.67649 22.5936C6.4904 22.8957 5.42524 24.4698 3.33244 24.7446L3.41058 24.8781C5.45506 24.5807 6.52741 23.0648 6.7572 22.7019C7.68254 23.9652 8.4994 25.4152 8.98674 27.0058H9.11269C8.92268 26.3792 8.68482 25.7681 8.40121 25.1781Z" fill="#A3DAFF"/>
<path d="M12.3608 27.0057C12.3608 26.1207 12.3459 25.1285 12.3043 24.0584H12.3068C12.3176 23.9682 13.2759 15.9073 15.9722 12.0693C15.9208 12.0693 15.8724 12.0662 15.8236 12.0621C13.5905 15.3274 12.5608 21.4245 12.2765 23.4018C12.173 21.1304 11.9438 18.8665 11.5897 16.6206C11.6051 16.5949 11.6252 16.5588 11.6534 16.5078C12.4297 15.1114 13.6784 12.9801 14.8561 11.4688C14.8347 11.4247 14.8162 11.3792 14.8006 11.3327C13.6069 12.8548 12.3418 15.0125 11.5573 16.4243C11.4658 15.8772 11.3652 15.3288 11.2556 14.779C10.8129 12.5971 10.6217 10.4219 10.5775 8.41172C10.9728 8.41172 13.1186 8.35141 14.9034 7.39115C14.908 7.33651 14.9116 7.28187 14.9158 7.22724C13.1386 8.20967 10.9574 8.26482 10.5744 8.2674C10.5554 7.23909 10.5744 6.25718 10.6176 5.33763C10.9749 5.19176 13.3067 4.21397 14.576 3.06247C14.558 3.01866 14.5395 2.97485 14.5199 2.93258C13.3216 4.02326 11.091 4.98713 10.6232 5.18248C10.6983 3.69028 10.8356 2.37952 10.9733 1.34399C10.9332 1.34863 10.8926 1.35327 10.852 1.35894C10.6213 3.10965 10.4888 4.87197 10.4551 6.63757C8.85226 6.38655 7.22162 5.20877 6.20375 4.34025C6.18576 4.38303 6.16725 4.42582 6.15234 4.46963C7.18512 5.34588 8.83272 6.53139 10.4551 6.78241C10.4222 8.91788 10.5374 11.3137 10.9451 13.7501C10.4572 13.5615 8.19476 12.645 6.61038 11.3425C6.63403 11.4214 6.65768 11.5002 6.68184 11.5791C8.35412 12.9064 10.6464 13.7898 10.9728 13.912C11.0242 14.212 11.0803 14.513 11.1414 14.814C11.5425 16.8352 11.8274 18.8778 11.9948 20.9318C11.6817 20.4009 10.761 19.1793 8.44768 17.9422C8.44275 17.9912 8.43537 18.0399 8.42558 18.0881C11.2067 19.5865 11.9429 21.0802 12.02 21.2519C12.1912 23.4007 12.2426 25.3857 12.2426 27.0057H12.3608Z" fill="#A3DAFF"/>
<path d="M0.966973 26.8243C0.442104 26.8243 -0.591699 26.979 0.442103 27.966C1.47591 28.9531 -1.01067 30 3.83036 30H17.589C19.5847 30 18.7267 28.3088 19.9589 28.1037C21.1911 27.8985 22.0116 26.8243 20.9871 26.8243H0.966973Z" fill="#CCEEFF"/>
<g style="mix-blend-mode:overlay" opacity="0.6">
<path d="M19.0422 28.5928C19.0422 28.9856 14.9656 29.0892 9.93689 29.0892C4.90822 29.0892 0.830078 28.983 0.830078 28.5928C0.830078 28.2026 4.90668 28.2552 9.93484 28.2552C14.963 28.2552 19.0422 28.197 19.0422 28.5928Z" fill="black"/>
</g>
<path d="M4.19816 3.56189H1.51367V28.5505H4.19816V3.56189Z" fill="#AD441B"/>
<path d="M1.72701 3.56189H1.51367V28.5505H1.72701V3.56189Z" fill="#D15221"/>
<path d="M3.36099 23.8869C3.325 23.4436 3.31986 22.9776 3.14559 22.5622C3.13685 22.5416 3.1096 22.555 3.10755 22.5725C2.93771 24.275 2.89801 25.988 2.9888 27.6965C3.00422 27.9814 3.02341 28.2661 3.04637 28.5506H3.08698C2.96834 27.048 2.95116 25.5392 3.03558 24.0343C3.06128 23.5749 3.09658 23.1165 3.14148 22.6591C3.27822 23.0354 3.28593 23.4503 3.31832 23.8446C3.3543 24.2875 3.39046 24.73 3.42679 25.1719C3.49773 26.0433 3.56901 26.9146 3.64064 27.7857C3.6612 28.0403 3.68194 28.2949 3.70284 28.5496H3.74346C3.61734 26.9957 3.48985 25.4414 3.36099 23.8869Z" fill="#9E3E19"/>
<path d="M2.9085 19.2479C2.85709 18.3618 2.78255 17.4779 2.75428 16.5903C2.72498 15.7238 2.72703 14.8568 2.74297 13.9904C2.77484 12.2322 2.84578 10.4746 2.89719 8.71691C2.951 6.99877 3.0048 5.28064 3.05861 3.5625H3.01748C2.91467 6.82576 2.7954 10.089 2.71418 13.3528C2.69259 14.2373 2.68077 15.1223 2.69722 16.0068C2.71315 16.8758 2.77021 17.7423 2.82831 18.6093C2.8864 19.4762 2.92032 20.3324 2.90542 21.1963C2.88999 22.0725 2.83961 22.9441 2.78769 23.8168C2.69413 25.3919 2.59851 26.9754 2.69927 28.5506H2.73834C2.53631 25.4553 3.08072 22.3483 2.9085 19.2479Z" fill="#9E3E19"/>
<path d="M3.89006 28.5505C4.06639 26.5692 3.75332 24.5786 3.51427 22.6121C3.37804 21.4962 3.26546 20.3746 3.27471 19.2489C3.29208 18.1025 3.40593 16.9597 3.61503 15.8325C3.77182 14.9563 3.97488 14.0898 4.19953 13.2296V13.0682C3.70499 14.9285 3.3179 16.8253 3.24695 18.7541C3.16213 21.022 3.6068 23.2472 3.81243 25.494C3.90445 26.5099 3.94147 27.5346 3.85048 28.5505H3.89006Z" fill="#9E3E19"/>
<path d="M2.28253 18.8757C2.30463 15.3615 2.36118 11.8472 2.48816 8.33548C2.52243 7.35512 2.56321 6.37492 2.61051 5.39489C2.63261 4.9346 2.64238 4.47122 2.69019 4.013C2.70549 3.86153 2.72969 3.7111 2.76267 3.5625H2.71898C2.6249 3.98465 2.61616 4.43514 2.59611 4.86038C2.54985 5.75106 2.50958 6.64192 2.47531 7.53294C2.40676 9.29781 2.35536 11.0629 2.32108 12.8281C2.24757 16.3599 2.22907 19.8927 2.23061 23.425C2.23061 25.0115 2.23421 26.5982 2.2414 28.1851C2.13036 25.1512 2.01984 22.1175 1.90983 19.084C1.84865 17.3902 1.81524 15.6991 1.86305 14.0043C1.91137 12.2843 1.98694 10.5648 2.05222 8.84526C2.11837 7.08417 2.18486 5.32325 2.25168 3.5625H2.21107C2.08615 6.83091 1.95404 10.0998 1.84197 13.3693C1.72733 16.7923 1.90983 20.2123 2.03423 23.6333L2.21313 28.5506H2.28202C2.26968 25.3255 2.26248 22.0983 2.28253 18.8757Z" fill="#9E3E19"/>
<path d="M3.49138 14.1146C3.31111 14.8486 3.12039 15.58 2.91921 16.3088L2.93926 15.7934C2.93849 15.7886 2.93602 15.7841 2.9323 15.781C2.92858 15.7778 2.92385 15.776 2.91896 15.776C2.91407 15.776 2.90933 15.7778 2.90561 15.781C2.90189 15.7841 2.89942 15.7886 2.89865 15.7934L3.09246 10.6158L3.2878 5.37273C3.31042 4.76932 3.33287 4.16591 3.35515 3.5625H3.31454L3.16031 7.65459C3.09554 9.40228 3.03043 11.15 2.96497 12.8977L2.85547 15.8357C2.85624 15.8405 2.85871 15.8449 2.86243 15.8481C2.86615 15.8513 2.87088 15.853 2.87577 15.853C2.88067 15.853 2.8854 15.8513 2.88912 15.8481C2.89284 15.8449 2.89531 15.8405 2.89608 15.8357L2.8714 16.4825C2.87107 16.4876 2.87265 16.4926 2.87583 16.4965C2.87901 16.5005 2.88357 16.5031 2.88857 16.5038C2.89358 16.5045 2.89867 16.5033 2.90283 16.5004C2.90699 16.4975 2.9099 16.4932 2.91099 16.4882C3.30066 15.0866 3.65245 13.6749 3.96638 12.2534C4.04555 11.8936 4.12266 11.5328 4.19772 11.1709V10.9699C3.98283 12.0224 3.74739 13.0707 3.49138 14.1146Z" fill="#9E3E19"/>
<path d="M3.25505 6.51854C3.18171 7.89065 3.15223 9.26412 3.16663 10.639C3.17554 11.4214 3.19833 12.2033 3.235 12.9848C3.23517 12.9896 3.23704 12.9942 3.24027 12.9978C3.2435 13.0014 3.24789 13.0038 3.25268 13.0044C3.25746 13.0051 3.26233 13.0041 3.26643 13.0015C3.27053 12.999 3.2736 12.995 3.2751 12.9904C3.69616 11.5783 3.9961 10.1328 4.17164 8.66948C4.18141 8.59268 4.19015 8.51485 4.1994 8.44011V8.07363C4.1115 8.90864 3.99377 9.74056 3.83184 10.5648C3.68173 11.3393 3.49478 12.1051 3.27099 12.8621C3.21032 11.5219 3.1913 10.1818 3.21392 8.84163C3.23757 7.46713 3.30611 6.09502 3.41955 4.72532C3.45142 4.33668 3.48707 3.94838 3.52648 3.56042H3.48587C3.38545 4.54492 3.30851 5.53096 3.25505 6.51854Z" fill="#9E3E19"/>
<path d="M3.65723 3.5625H3.61714C3.48855 5.11081 3.4676 6.66622 3.55442 8.21745C3.58869 8.81639 3.63804 9.4143 3.70247 10.0112C3.70264 10.016 3.70451 10.0207 3.70774 10.0243C3.71097 10.0279 3.71537 10.0302 3.72015 10.0309C3.72493 10.0315 3.7298 10.0305 3.7339 10.028C3.738 10.0254 3.74107 10.0215 3.74257 10.0169C3.90604 9.53595 3.95231 9.02875 3.98418 8.52207C4.01863 7.97828 4.0505 7.43449 4.0834 6.8907L4.20112 4.95161V4.28154C4.1199 5.61722 4.03885 6.9529 3.95797 8.28858C3.92507 8.83495 3.89473 9.38698 3.73332 9.9117C3.51121 7.83095 3.48401 5.73391 3.65209 3.64806C3.65158 3.62075 3.65723 3.59394 3.65723 3.5625Z" fill="#9E3E19"/>
<path d="M3.73837 19.2845C3.68131 18.1237 3.8597 16.9882 4.07509 15.8521C4.11622 15.637 4.15717 15.4216 4.19796 15.2058V14.9934C3.96662 16.2676 3.67309 17.5361 3.68388 18.8371C3.69416 20.0318 3.90648 21.2158 4.03911 22.4003C4.09977 22.9429 4.15255 23.4867 4.19744 24.0317V23.5616C4.17585 23.3229 4.15272 23.0838 4.12753 22.8456C4.00467 21.6586 3.79698 20.4767 3.73837 19.2845Z" fill="#9E3E19"/>
<path d="M10.0771 17.6825H7.39258V28.5506H10.0771V17.6825Z" fill="#AD441B"/>
<path d="M7.60592 17.6825H7.39258V28.5506H7.60592V17.6825Z" fill="#D15221"/>
<path d="M7.84816 21.0432C7.84894 21.048 7.8514 21.0524 7.85513 21.0556C7.85885 21.0588 7.86358 21.0605 7.86847 21.0605C7.87336 21.0605 7.87809 21.0588 7.88182 21.0556C7.88554 21.0524 7.88801 21.048 7.88878 21.0432L8.09852 17.6825H8.05791C7.99382 18.7093 7.92973 19.7362 7.86564 20.7633C7.79059 19.7376 7.83788 18.7082 7.89752 17.6825H7.8569C7.79162 18.802 7.74124 19.9252 7.84816 21.0432Z" fill="#9E3E19"/>
<path d="M7.81832 24.6013C7.82706 23.7874 7.8579 22.972 7.96483 22.1648C8.01932 21.7524 8.09746 21.3493 8.15195 20.9401C8.20644 20.5308 8.23266 20.1329 8.24654 19.7273C8.26299 19.2726 8.27533 18.8165 8.27276 18.3618C8.27276 18.1351 8.26299 17.9077 8.24089 17.6825H8.20233C8.2635 18.2866 8.23009 18.9046 8.21312 19.5072C8.2013 19.9195 8.18125 20.3319 8.1355 20.7411C8.0882 21.1633 8.00801 21.5808 7.94684 22.0009C7.83919 22.8039 7.78338 23.6131 7.77976 24.4234C7.76742 25.245 7.76742 26.0668 7.77976 26.8888C7.78696 27.4413 7.79415 28.0083 7.90314 28.5521H7.94529C7.84556 28.0604 7.83065 27.5491 7.82243 27.0481C7.80855 26.2316 7.80906 25.4162 7.81832 24.6013Z" fill="#9E3E19"/>
<path d="M9.34058 28.5505H9.38119C9.39184 27.6697 9.30564 26.7904 9.12415 25.9285C9.12304 25.9246 9.12081 25.9211 9.11774 25.9185C9.11468 25.9159 9.11091 25.9142 9.10692 25.9137C9.10292 25.9132 9.09887 25.9139 9.09526 25.9157C9.09165 25.9175 9.08865 25.9203 9.08663 25.9238C8.97713 26.0785 8.97148 26.2681 8.97867 26.4516C8.98895 26.7094 9.00592 26.9671 9.0234 27.2248C9.05321 27.6676 9.09228 28.1098 9.13803 28.551H9.17813C9.13529 28.1366 9.09896 27.7213 9.06915 27.3052C9.0527 27.065 9.03779 26.8248 9.02597 26.5836C9.01569 26.3836 8.9941 26.1666 9.09434 25.9872C9.26869 26.8302 9.35126 27.6897 9.34058 28.5505V28.5505Z" fill="#9E3E19"/>
<path d="M9.15795 24.5806L9.02841 23.3322C9.02763 23.3273 9.02517 23.3229 9.02144 23.3198C9.01772 23.3166 9.01299 23.3148 9.0081 23.3148C9.00321 23.3148 8.99848 23.3166 8.99475 23.3198C8.99103 23.3229 8.98856 23.3273 8.98779 23.3322C8.90077 24.0852 8.85255 24.8422 8.84334 25.6001C8.82792 26.3058 8.7873 27.0264 8.87418 27.7289C8.90691 28.0103 8.97159 28.287 9.06696 28.5536H9.11014C8.89732 27.9804 8.86544 27.3578 8.86699 26.7496C8.86699 26.0279 8.88138 25.2996 8.91839 24.577C8.93741 24.2244 8.96569 23.8724 9.00527 23.5214L9.43709 27.6846C9.46691 27.9742 9.4969 28.2641 9.52706 28.5541H9.56767L9.15795 24.5806Z" fill="#9E3E19"/>
<path d="M9.64406 28.5505C9.76538 26.9784 9.59265 25.4007 9.37519 23.8435C9.34092 23.6054 9.30665 23.3673 9.27238 23.1291C9.2549 23.0064 9.25439 22.8028 9.10376 22.7647C9.09937 22.7636 9.09475 22.764 9.09058 22.7658C9.08642 22.7675 9.08293 22.7706 9.08063 22.7745C8.76396 23.4611 8.65703 24.2177 8.6267 24.9662C8.59971 25.7952 8.61824 26.6251 8.68222 27.4521C8.7069 27.7995 8.73826 28.1466 8.7763 28.4933C8.48842 27.1233 8.33419 25.7063 8.54239 24.3146C8.59581 23.9483 8.6764 23.5865 8.7835 23.2322C8.89556 22.8637 9.0467 22.5106 9.17162 22.1446C9.29487 21.7871 9.37024 21.4148 9.39576 21.0375C9.42249 20.638 9.41581 20.2359 9.41889 19.836C9.42506 19.1174 9.43089 18.3991 9.43637 17.6809H9.39576C9.39062 18.3046 9.38565 18.9283 9.38085 19.552C9.37417 20.3519 9.42763 21.1797 9.19064 21.9534C9.07755 22.3235 8.9223 22.6781 8.80046 23.0446C8.68008 23.4086 8.5883 23.7816 8.52595 24.16C8.40901 24.8942 8.37761 25.6396 8.43238 26.381C8.48573 27.1116 8.59139 27.8373 8.74854 28.5526H8.82411C8.74665 27.8554 8.69525 27.1554 8.66989 26.4527C8.64418 25.6759 8.62876 24.8863 8.7398 24.1152C8.78959 23.7488 8.88011 23.3892 9.00969 23.043C9.03077 22.9884 9.05339 22.9338 9.07703 22.8796C9.10068 22.8255 9.13204 22.8039 9.16905 22.8632C9.2148 22.9369 9.21686 23.0389 9.22868 23.1209C9.25747 23.3195 9.28609 23.5179 9.31453 23.7162C9.4302 24.5342 9.53559 25.3548 9.5947 26.1795C9.6554 26.9686 9.65729 27.7611 9.60036 28.5505H9.64406Z" fill="#9E3E19"/>
<path d="M10.0765 28.4861C10.0141 28.2605 9.97649 28.0287 9.96439 27.7949C9.93612 27.4222 9.91298 27.0485 9.89036 26.6759C9.83896 25.9089 9.79577 25.1409 9.73614 24.3744C9.70926 24.0133 9.66327 23.6539 9.59837 23.2977C9.52794 22.9163 9.47654 22.542 9.49556 22.1534C9.51458 21.7648 9.57267 21.3906 9.60968 21.0091C9.64669 20.6277 9.67497 20.2458 9.69399 19.8628C9.72826 19.1367 9.73134 18.4101 9.70324 17.683H9.66314C9.6885 18.3218 9.6885 18.9611 9.66314 19.6009C9.64772 19.9899 9.62322 20.3789 9.58963 20.7679C9.5557 21.1565 9.50275 21.5436 9.46882 21.9318C9.43441 22.302 9.44772 22.6752 9.50841 23.042C9.57267 23.4271 9.64412 23.8069 9.67805 24.1966C9.74437 24.961 9.78087 25.729 9.83227 26.495C9.86003 26.9223 9.88368 27.3501 9.91658 27.7769C9.9285 28.0391 9.97306 28.2989 10.0492 28.55H10.0708L10.0765 28.4861Z" fill="#9E3E19"/>
<path d="M10.0762 24.5569V24.1703C9.99604 23.4936 9.86649 22.8168 9.86392 22.1348C9.86135 21.404 9.93486 20.6741 9.97291 19.9447C10.012 19.1901 10.0197 18.4309 9.90659 17.683H9.86547C10.0798 19.0891 9.85313 20.5061 9.82537 21.9184C9.81046 22.6472 9.94412 23.357 10.0264 24.0786C10.0445 24.2377 10.0612 24.3971 10.0762 24.5569Z" fill="#9E3E19"/>
<path d="M8.19401 24.1935C8.25884 23.823 8.34466 23.4564 8.45105 23.0956C8.56106 22.7204 8.70346 22.357 8.83198 21.9879C9.08901 21.2478 9.17538 20.4823 9.19851 19.7025C9.21188 19.2582 9.20931 18.8139 9.22165 18.3696C9.22318 18.1401 9.23674 17.911 9.26226 17.683H9.22319C9.20622 17.8144 9.19748 17.9479 9.19132 18.0809C9.17332 18.4855 9.17229 18.8912 9.16664 19.2968C9.1543 20.1056 9.12037 20.9246 8.88236 21.7039C8.76566 22.0869 8.61041 22.4565 8.48806 22.8379C8.36931 23.2077 8.27215 23.5841 8.1971 23.9652C7.89738 25.4858 7.94873 27.055 8.34721 28.5526H8.3873C8.0082 27.1308 7.94224 25.6434 8.19401 24.1935V24.1935Z" fill="#9E3E19"/>
<path d="M8.69824 17.683C8.68796 18.2696 8.76044 18.8551 8.79848 19.4406C8.82556 19.7909 8.82641 20.1428 8.80105 20.4932C8.77072 20.8432 8.68693 21.1818 8.60365 21.5241C8.51471 21.8849 8.43452 22.2524 8.44531 22.6281C8.44515 22.6331 8.44684 22.638 8.45007 22.6418C8.45329 22.6456 8.45782 22.6481 8.46277 22.6487C8.46771 22.6494 8.47272 22.6482 8.47681 22.6453C8.48091 22.6424 8.48379 22.6382 8.4849 22.6333C9.01472 21.2578 9.21015 19.7755 9.055 18.3092C9.02887 18.1015 9.01428 17.8924 9.01131 17.683H8.97018C8.9702 17.8187 8.9774 17.9542 8.99177 18.0892C9.02673 18.4546 9.06272 18.8175 9.06734 19.185C9.08227 20.3217 8.88508 21.4512 8.48593 22.5152C8.49723 21.872 8.75427 21.2632 8.8283 20.6267C8.90952 19.9308 8.81956 19.2314 8.76867 18.5366C8.74759 18.2525 8.73371 17.9696 8.73885 17.683H8.69824Z" fill="#9E3E19"/>
<path d="M7.96506 26.9094C7.86005 25.294 7.97716 23.6718 8.31309 22.0884C8.39637 21.6941 8.48685 21.3014 8.547 20.9029C8.60309 20.5181 8.63742 20.1304 8.64981 19.7416C8.66765 19.0549 8.64585 18.3677 8.58452 17.6835H8.54391C8.59069 18.27 8.62308 18.8576 8.61588 19.4458C8.61246 19.846 8.58741 20.2457 8.54083 20.6431C8.48942 21.0555 8.40614 21.4596 8.31875 21.8647C7.97533 23.4234 7.83707 25.0204 7.90749 26.615C7.92908 27.0593 7.96712 27.5037 8.02264 27.9454C8.04783 28.1464 8.08227 28.3485 8.11003 28.5505H8.14807C8.12854 28.4119 8.10695 28.2732 8.08793 28.1351C8.03275 27.7279 7.9918 27.3193 7.96506 26.9094Z" fill="#9E3E19"/>
<path d="M16.7792 3.56189H14.0947V28.5505H16.7792V3.56189Z" fill="#AD441B"/>
<path d="M16.6409 6.32578C16.538 7.37934 16.1597 8.37569 15.8296 9.37049C15.5119 10.3287 15.24 11.3075 15.2503 12.3291C15.2622 13.2726 15.4749 14.2025 15.8744 15.0568C16.0975 15.5356 16.3798 15.9845 16.7144 16.3929L16.7797 16.4722V16.4078C16.4733 16.0415 16.2099 15.6411 15.9947 15.2146C15.5639 14.3595 15.3244 13.4205 15.293 12.4631C15.2611 11.442 15.514 10.4627 15.8281 9.50347C16.1463 8.53238 16.519 7.56696 16.6552 6.54587C16.737 5.93198 16.7041 5.32273 16.6275 4.71039C16.5797 4.32741 16.5283 3.94496 16.4763 3.5625H16.4352C16.4815 3.90613 16.5271 4.24975 16.572 4.59338C16.6475 5.16913 16.6979 5.74642 16.6409 6.32578Z" fill="#9E3E19"/>
<path d="M14.4961 23.0812C14.4817 23.0642 14.4591 23.0812 14.4622 23.1018C14.7534 24.9046 14.9242 26.7249 14.9737 28.5505H15.0153C14.9654 26.7486 14.798 24.9519 14.5141 23.1719C14.7845 23.5456 14.8082 24.0605 14.874 24.5064C14.9528 25.0562 15.0316 25.606 15.1104 26.1558C15.2253 26.9537 15.3396 27.7512 15.4533 28.5485H15.4945C15.2837 27.0743 15.0724 25.6003 14.8606 24.1265C14.8051 23.7574 14.7408 23.3745 14.4961 23.0812Z" fill="#9E3E19"/>
<path d="M16.6094 9.02452C16.6644 8.85082 16.7235 8.6766 16.778 8.50084V8.36218C16.7168 8.56836 16.6469 8.77454 16.5821 8.97659C16.4126 9.50112 16.2933 10.0406 16.2259 10.5879C16.091 11.7002 16.1674 12.8281 16.451 13.9119C16.5399 14.2488 16.6491 14.58 16.778 14.9036V14.7902C16.0766 12.9421 16.0172 10.9107 16.6094 9.02452V9.02452Z" fill="#9E3E19"/>
<path d="M16.3345 6.07732C16.243 7.18552 15.8858 8.23857 15.5393 9.28388C15.2097 10.2777 14.8787 11.2941 14.8293 12.3513C14.7744 13.373 15.0407 14.3862 15.5907 15.2481C15.9187 15.7537 16.352 16.1521 16.7787 16.5655V16.5083C16.462 16.2026 16.1356 15.9073 15.8621 15.5583C15.2083 14.7117 14.8573 13.6694 14.8653 12.5987C14.8689 11.5271 15.1861 10.491 15.5172 9.48542C15.8482 8.47979 16.2112 7.46334 16.3433 6.39999C16.4592 5.4529 16.4042 4.49261 16.1808 3.56506H16.1382C16.337 4.3866 16.4033 5.23476 16.3345 6.07732V6.07732Z" fill="#9E3E19"/>
<path d="M14.0928 23.6761C14.101 23.7596 14.1092 23.8436 14.118 23.9271C14.2835 25.4765 14.5063 27.0177 14.7863 28.5506H14.8284C14.5097 26.7981 14.2645 25.0355 14.0928 23.2627V23.6761Z" fill="#9E3E19"/>
<path d="M15.8631 13.4976C16.0044 14.1716 16.2656 14.8147 16.6342 15.396C16.6804 15.4705 16.7276 15.5444 16.7755 15.6176V15.5418C16.4188 14.9877 16.1252 14.4032 15.9613 13.7548C15.606 12.3523 15.7926 10.8761 16.1705 9.50034C16.3432 8.87151 16.5555 8.25555 16.7755 7.64476V7.52466C16.3201 8.7844 15.8883 10.0684 15.7654 11.4131C15.6966 12.109 15.7295 12.8112 15.8631 13.4976V13.4976Z" fill="#9E3E19"/>
<path d="M16.2774 26.9862C16.0608 24.8557 15.904 22.7207 15.8071 20.5813C15.7587 19.5123 15.7202 18.4417 15.7068 17.3711C15.7068 17.2134 15.7289 16.9588 15.8816 16.8727C16.0949 16.75 16.2795 17.1577 16.3658 17.3005C16.5205 17.5568 16.6579 17.8232 16.7771 18.0979V17.9974L16.7601 17.9582C16.6634 17.7475 16.5558 17.5419 16.4378 17.3423C16.3792 17.2423 16.3179 17.1442 16.2538 17.0479C16.2114 16.9707 16.1538 16.9029 16.0847 16.8485C15.8071 16.6676 15.6734 17.0959 15.6662 17.3015C15.6559 17.5593 15.6739 17.817 15.6801 18.0747C15.6862 18.3445 15.6934 18.6139 15.7017 18.8829C15.7664 21.0093 15.8903 23.1326 16.0733 25.2527C16.1659 26.3233 16.2929 27.3892 16.3916 28.4588C16.3916 28.4773 16.3962 28.5103 16.3998 28.55H16.4404C16.3967 28.0284 16.3304 27.5104 16.2774 26.9862Z" fill="#9E3E19"/>
<path d="M16.4299 24.2383C16.3726 23.3023 16.3118 22.3664 16.2474 21.4307C16.2158 20.9596 16.1829 20.4883 16.1487 20.0168C16.1168 19.5787 16.0623 19.1359 16.0597 18.6963C16.0597 18.4746 16.0798 18.2437 16.1775 18.0427C16.1944 18.0071 16.2217 17.9365 16.2587 17.919C16.288 17.9051 16.287 17.9113 16.3157 17.9303C16.3445 17.9494 16.3589 17.9587 16.38 17.9736C16.4666 18.0353 16.5478 18.1043 16.6226 18.1798C16.6777 18.2363 16.7292 18.2962 16.7769 18.3592V18.2963C16.6347 18.1192 16.4628 17.9684 16.269 17.8504C16.2651 17.8483 16.2606 17.8474 16.2561 17.8479C16.2517 17.8485 16.2475 17.8505 16.2443 17.8535C16.0649 18.0896 16.0176 18.3834 16.0176 18.6782C16.0176 19.0545 16.0638 19.4328 16.0916 19.8076C16.1512 20.6185 16.208 21.4295 16.2618 22.2404C16.3707 23.8692 16.4679 25.4989 16.5532 27.1294C16.5786 27.6033 16.6023 28.0766 16.6242 28.5494H16.6627C16.5942 27.1127 16.5166 25.6757 16.4299 24.2383Z" fill="#9E3E19"/>
<path d="M15.6789 7.11586C15.6275 7.51481 15.5658 7.9117 15.4949 8.30704C15.4942 8.30961 15.494 8.3123 15.4943 8.31495C15.4946 8.3176 15.4955 8.32015 15.4968 8.32248C15.4981 8.3248 15.4998 8.32684 15.5019 8.32848C15.504 8.33012 15.5064 8.33133 15.509 8.33204C15.5116 8.33275 15.5143 8.33295 15.5169 8.33262C15.5195 8.33229 15.5221 8.33145 15.5244 8.33013C15.5267 8.32881 15.5288 8.32705 15.5304 8.32495C15.532 8.32284 15.5332 8.32044 15.5339 8.31786C16.0541 6.95672 16.2143 5.48386 15.9992 4.04228C15.975 3.88301 15.9431 3.72322 15.9174 3.56241H15.8768C15.8866 3.62374 15.8974 3.6856 15.9082 3.74693C15.9769 4.12167 16.0215 4.50044 16.0418 4.8809C16.0786 5.62816 16.0159 6.37699 15.8552 7.10761C15.7816 7.44109 15.6875 7.76971 15.5735 8.09159C15.7951 6.80298 15.9298 5.47624 15.7349 4.17423C15.7041 3.96806 15.6643 3.76394 15.6157 3.56189H15.573C15.8501 4.7206 15.8254 5.9355 15.6789 7.11586Z" fill="#9E3E19"/>
<path d="M15.0901 24.5208C14.7724 22.8467 14.4008 21.1782 14.2357 19.4783C14.0646 17.7196 14.1124 15.9475 14.2229 14.1868C14.3339 12.41 14.4856 10.6359 14.6341 8.86277C14.7827 7.08965 14.9426 5.32993 15.1158 3.56506H15.0757C14.9263 5.10829 14.7844 6.65273 14.6501 8.19836C14.4959 9.97354 14.3488 11.7503 14.2239 13.528C14.1633 14.395 14.1129 15.264 14.0918 16.1331V17.8139C14.1011 18.15 14.1168 18.4859 14.1391 18.8216C14.2527 20.5066 14.5863 22.1606 14.9102 23.8131C15.2186 25.378 15.5117 26.9573 15.5749 28.5552H15.6135C15.5605 27.1949 15.3425 25.8496 15.0901 24.5208Z" fill="#9E3E19"/>
<path d="M14.0928 10.0746C14.1202 9.71137 14.1486 9.34798 14.1781 8.98443C14.3272 7.17523 14.5056 5.36861 14.686 3.5625H14.6454C14.447 5.55262 14.2506 7.54789 14.0928 9.54419V10.0746Z" fill="#9E3E19"/>
<path d="M15.3064 7.82052C15.0494 9.51271 14.6448 11.1827 14.5831 12.9012C14.5513 13.7862 14.5893 14.6718 14.6315 15.5557C14.6736 16.4397 14.7209 17.3253 14.7764 18.2097C14.8864 19.9622 15.0263 21.7096 15.2139 23.4538C15.3623 24.8373 15.5439 26.2163 15.7588 27.5908C15.7624 27.6227 15.7655 27.6547 15.7691 27.6866C15.8013 27.9753 15.8373 28.2634 15.8771 28.551H15.9583C15.93 28.3871 15.9017 28.2232 15.875 28.0588C15.8483 27.8944 15.8236 27.7428 15.7989 27.5846C15.602 25.7775 15.5352 23.9579 15.4807 22.1415C15.4175 20.0282 15.3548 17.9185 15.163 15.8135C15.1407 15.5691 15.1173 15.3248 15.0926 15.0805C15.7791 15.6991 16.3496 16.436 16.7772 17.2562V17.1686C16.3434 16.3555 15.769 15.6261 15.0808 15.0145C15.0689 15.0042 15.0443 15.0099 15.0463 15.0295C15.2632 17.1428 15.3548 19.2628 15.4175 21.3869C15.4689 23.2033 15.5203 25.0228 15.6832 26.8336C15.6796 26.8089 15.6755 26.7821 15.6719 26.7604C15.5414 25.8697 15.4252 24.9763 15.3234 24.0801C15.1234 22.3276 14.9733 20.572 14.8556 18.8133C14.7977 17.9378 14.7463 17.0615 14.7014 16.1846C14.6582 15.2944 14.6068 14.4037 14.6119 13.5115C14.6177 12.6241 14.6892 11.7384 14.8258 10.8616C14.9574 10.0008 15.128 9.14726 15.2715 8.28905C15.5316 6.73448 15.7033 5.11755 15.3743 3.56091H15.3306C15.6257 4.95673 15.5213 6.41594 15.3064 7.82052Z" fill="#9E3E19"/>
<path d="M14.3081 3.56189H14.0947V28.5505H14.3081V3.56189Z" fill="#D15221"/>
<path d="M14.3059 28.3041H1.51367V28.5505H14.3059V28.3041Z" fill="#D15221"/>
<path d="M14.3059 17.5592H1.51367V17.8056H14.3059V17.5592Z" fill="#D15221"/>
<path d="M14.3059 20.2767H1.51367V20.5231H14.3059V20.2767Z" fill="#D15221"/>
<path d="M14.3059 22.9935H1.51367V23.2399H14.3059V22.9935Z" fill="#D15221"/>
<path d="M14.3059 9.80701H1.51367V10.0534H14.3059V9.80701Z" fill="#D15221"/>
<path d="M14.3059 3.56189H1.51367V3.80827H14.3059V3.56189Z" fill="#D15221"/>
<path d="M13.2075 28.5506H19.0418L19.1667 28.4429L18.5647 22.0761L12.8554 21.9679L12.7305 22.0761L13.2075 28.5506Z" fill="#AD441B"/>
<path d="M13.3335 28.4429H19.1677L18.6907 21.9679H12.8564L13.3335 28.4429Z" fill="#E65A24"/>
<path d="M13.8436 27.8253H18.5653L18.1793 22.5853H13.458L13.8436 27.8253Z" fill="#D95522"/>
<path d="M14.3638 27.1964H17.9516L17.6585 23.2141H14.0703L14.3638 27.1964Z" fill="#E65A24"/>
<g style="mix-blend-mode:overlay" opacity="0.05">
<path d="M15.2086 28.4428C15.2809 27.4101 15.1984 26.3723 14.9639 25.3641C14.6991 24.2358 14.2128 23.1348 14.1851 21.9684H14.0586C14.0833 23.0647 14.51 24.1054 14.7834 25.1595C15.0596 26.2305 15.1608 27.3393 15.0831 28.4428H15.2086Z" fill="white"/>
<path d="M14.8707 28.4428C14.9264 27.9913 14.9578 27.537 14.9648 27.0821C14.9735 26.4306 14.8172 25.8564 14.5761 25.259C14.335 24.6616 14.1134 24.0575 13.9988 23.4126C13.9383 23.077 13.9015 22.7375 13.8888 22.3967C13.8842 22.257 13.8924 22.1122 13.8955 21.9684H13.6729C13.6228 22.5721 13.6216 23.1788 13.6693 23.7827C13.4416 23.5343 13.1912 23.308 12.9763 23.0472C12.9609 23.0286 12.947 23.0091 12.9326 22.9905L12.9486 23.2111C13.1891 23.4884 13.4662 23.7322 13.7027 24.0142C13.7117 24.023 13.723 24.0289 13.7354 24.0312C13.7477 24.0335 13.7604 24.0321 13.7719 24.0271C13.7834 24.0221 13.7932 24.0138 13.8 24.0033C13.8068 23.9927 13.8104 23.9803 13.8101 23.9678C13.7632 23.4738 13.7491 22.9771 13.768 22.4812C13.7821 22.7788 13.814 23.0752 13.8636 23.3688C13.9719 23.9705 14.1466 24.5583 14.3844 25.1213C14.6342 25.7399 14.8403 26.3218 14.8393 26.9996C14.8371 27.4822 14.8055 27.9641 14.7447 28.4428H14.8707Z" fill="white"/>
<path d="M16.0845 28.4428C16.2567 27.3413 16.231 26.2218 15.8789 25.1502C15.6733 24.526 15.4029 23.9353 15.1618 23.3271C14.9901 22.8936 14.8569 22.4302 14.8708 21.9684H14.7433C14.7398 22.3302 14.7991 22.6898 14.9186 23.0312C15.1284 23.6632 15.4327 24.2585 15.6548 24.8868C15.8882 25.543 16.0398 26.2084 16.0629 26.9094C16.0769 27.4232 16.0408 27.9371 15.955 28.4439L16.0845 28.4428Z" fill="white"/>
<path d="M14.7365 27.1456C14.7268 26.5868 14.6281 26.0513 14.3793 25.5518C14.1464 25.0848 13.8169 24.6756 13.4658 24.2978C13.3054 24.1261 13.1357 23.9632 12.9902 23.7782L13.0057 23.99C13.0526 24.0474 13.1023 24.1036 13.1547 24.1586C13.5475 24.5684 13.9289 24.989 14.206 25.4941C14.5078 26.0456 14.6101 26.6368 14.6116 27.2657C14.6116 27.659 14.5905 28.0512 14.5977 28.4429H14.7221C14.7139 28.011 14.7443 27.578 14.7365 27.1456Z" fill="white"/>
<path d="M14.3606 21.9684C14.349 22.3784 14.4189 22.7867 14.5662 23.1694C14.7935 23.7683 15.0346 24.3471 15.1888 24.9734C15.4672 26.1077 15.5448 27.2822 15.4181 28.4434H15.544C15.7287 26.7661 15.4865 25.0692 14.8402 23.5111C14.7158 23.208 14.5832 22.9055 14.5236 22.5802C14.4861 22.3787 14.4722 22.1736 14.4819 21.9689L14.3606 21.9684Z" fill="white"/>
<path d="M13.3898 23.0262C13.4448 22.987 13.4489 22.9133 13.4566 22.8509C13.4723 22.6731 13.4723 22.4942 13.4566 22.3164C13.451 22.202 13.4448 22.085 13.4448 21.969H13.323C13.323 22.1386 13.3332 22.3107 13.3384 22.4813C13.3384 22.5576 13.3816 22.8839 13.2474 22.8736C13.1775 22.8679 12.9904 22.5839 12.9456 22.5293C12.9266 22.5066 12.9091 22.4834 12.8906 22.4602L12.9071 22.6829C12.9919 22.7813 13.2201 23.1478 13.3898 23.0262Z" fill="white"/>
<path d="M13.9915 25.7466C13.7386 25.3621 13.3675 24.9889 13.0508 24.59L13.0662 24.7997C13.2585 25.0348 13.461 25.2595 13.6384 25.4801C14.0383 25.9791 14.2789 26.5187 14.32 27.1713C14.3378 27.4849 14.3351 27.7993 14.3118 28.1125C14.3118 27.9455 14.3092 27.778 14.2954 27.6115C14.2612 27.1932 14.1749 26.7809 14.0383 26.3842C13.9242 26.0574 13.7849 25.7281 13.5206 25.5018C13.3664 25.3693 13.2215 25.2487 13.0914 25.1142L13.1073 25.3301C13.151 25.3703 13.1963 25.41 13.2436 25.4471C13.4261 25.5899 13.5885 25.7234 13.7062 25.9311C13.8155 26.1345 13.9029 26.3489 13.9669 26.5708C14.1004 26.9988 14.1744 27.4431 14.1869 27.8914C14.1915 28.0682 14.1673 28.2563 14.1581 28.4429H14.4151C14.5056 27.5135 14.5118 26.5394 13.9915 25.7466Z" fill="white"/>
<path d="M13.6098 28.443C13.6421 27.8492 13.6519 27.2574 13.4113 26.6987C13.4065 26.6903 13.3998 26.6831 13.3918 26.6776C13.3837 26.6722 13.3745 26.6688 13.3649 26.6675C13.3553 26.6663 13.3455 26.6673 13.3364 26.6704C13.3272 26.6736 13.3189 26.6789 13.3121 26.6858C13.2743 26.7262 13.241 26.7706 13.2129 26.8183L13.2329 27.092C13.2553 27.0083 13.2913 26.9289 13.3394 26.8569C13.5301 27.3616 13.5177 27.9038 13.4859 28.443H13.6098Z" fill="white"/>
<path d="M13.8591 28.4429C13.9106 27.9556 13.9106 27.4642 13.8591 26.9769C13.8282 26.5959 13.671 26.2363 13.4124 25.9553C13.3096 25.8363 13.2104 25.7193 13.124 25.5981L13.1425 25.844C13.3302 26.0579 13.5368 26.2564 13.6396 26.5321C13.7831 26.9172 13.764 27.3805 13.7651 27.7877C13.7651 27.8635 13.7651 28.1527 13.7383 28.4429H13.8591Z" fill="white"/>
<path d="M18.9005 28.4429C18.9971 27.4805 18.9625 26.5095 18.7977 25.5564C18.7954 25.5469 18.7908 25.5381 18.7845 25.5307C18.7782 25.5233 18.7702 25.5174 18.7612 25.5136C18.7522 25.5098 18.7425 25.5082 18.7328 25.5088C18.723 25.5094 18.7136 25.5123 18.7052 25.5173C18.5401 25.6482 18.4995 25.8858 18.4481 26.0842C18.3734 26.3876 18.3218 26.6962 18.2939 27.0074C18.2537 27.4853 18.2431 27.9652 18.262 28.4445H18.388C18.3777 28.0723 18.3751 27.6996 18.3957 27.328C18.4102 27.0402 18.4428 26.7535 18.4934 26.4698C18.5175 26.3389 18.5448 26.209 18.5797 26.0801C18.607 25.977 18.6337 25.826 18.6939 25.7193C18.8381 26.6204 18.8642 27.5366 18.7715 28.4445L18.9005 28.4429Z" fill="white"/>
<path d="M18.11 25.0765C18.2076 24.4688 18.2642 23.8513 18.2025 23.2364C18.154 22.8086 18.075 22.3848 17.966 21.9684H17.8365C17.9634 22.4366 18.0484 22.9153 18.0904 23.3987C18.1377 24.0611 18.0488 24.7224 17.9321 25.3718C17.7501 26.3867 17.5039 27.4114 17.5722 28.4428H17.6972C17.6185 27.312 17.9316 26.1898 18.11 25.0765Z" fill="white"/>
<path d="M17.6892 25.144C17.8034 24.5461 17.8861 23.9343 17.8491 23.3235C17.8213 22.8596 17.7011 22.4178 17.608 21.9684H17.4815C17.5751 22.4178 17.6949 22.8622 17.7232 23.3235C17.7648 24.009 17.6548 24.6915 17.5175 25.3595C17.3119 26.3759 17.0389 27.4032 17.098 28.4428H17.223C17.1566 27.3305 17.4821 26.2316 17.6892 25.144Z" fill="white"/>
<path d="M19.1598 28.3424L19.0991 27.5177C19.0883 27.827 19.059 28.1362 19.0215 28.4455H19.1479C19.1521 28.4094 19.1562 28.3759 19.1598 28.3424Z" fill="white"/>
<path d="M15.6187 22.5648C15.6554 22.7827 15.7129 22.9966 15.7904 23.2034C15.8192 23.2797 15.8521 23.391 15.9472 23.3931C16.0423 23.3952 16.0572 23.3127 16.0752 23.2385C16.1208 23.0287 16.1506 22.8157 16.1642 22.6014C16.1807 22.3913 16.1841 22.1805 16.1745 21.97H16.0495C16.0536 22.0689 16.0557 22.1684 16.0542 22.2674C16.0514 22.421 16.0422 22.5739 16.0264 22.7261C16.0233 22.7576 15.9899 23.2287 15.9452 23.2447C15.8855 23.2658 15.7216 22.4199 15.7144 22.3555C15.6996 22.2275 15.6922 22.0988 15.6923 21.97H15.5684C15.5683 22.1693 15.5852 22.3683 15.6187 22.5648V22.5648Z" fill="white"/>
<path d="M17.2142 25.0048C17.317 24.4075 17.4563 23.793 17.465 23.1848C17.4707 22.7807 17.4034 22.372 17.3304 21.9684H17.2029C17.2805 22.3998 17.354 22.8374 17.3365 23.2688C17.3103 23.9219 17.1587 24.5791 17.0502 25.2213C16.8697 26.2878 16.6996 27.3599 16.6729 28.4428H16.7993C16.8276 27.2862 17.0234 26.1435 17.2142 25.0048Z" fill="white"/>
<path d="M18.1851 26.6626C18.3198 26.0111 18.6041 25.3766 18.8781 24.7699C18.8945 24.9101 18.9117 25.0506 18.9295 25.1915L18.8781 24.4807C18.8718 24.4865 18.8667 24.4935 18.8632 24.5013C18.5594 25.1786 18.2175 25.893 18.0664 26.628C17.9461 27.2115 17.979 27.8362 18.0062 28.4429H18.1316C18.1034 27.8476 18.0674 27.2327 18.1851 26.6626Z" fill="white"/>
<path d="M16.0471 24.6471C16.4722 25.111 16.5817 23.8807 16.6074 23.6632C16.6734 23.1007 16.7054 22.5347 16.703 21.9684H16.5771C16.5771 22.3684 16.5642 22.7678 16.5313 23.1668C16.5061 23.4724 16.4737 23.7786 16.4249 24.0812C16.4043 24.208 16.3853 24.4013 16.3123 24.508C16.2573 24.5889 16.2095 24.6059 16.1149 24.5281C16.0552 24.466 16.0034 24.3967 15.9607 24.3219C15.4815 23.6296 15.2152 22.8118 15.1947 21.9694H15.0703C15.0919 22.9395 15.4106 23.9492 16.0471 24.6471Z" fill="white"/>
<path d="M18.5777 24.0761C18.6546 24.1463 18.7519 24.19 18.8553 24.2009L18.8445 24.0565C18.7037 24.0225 18.5921 23.9339 18.5412 23.7359C18.4718 23.4684 18.4708 23.172 18.4569 22.8968C18.4482 22.5861 18.4207 22.2763 18.3747 21.969H18.2451C18.331 22.4499 18.3161 22.9483 18.369 23.4359C18.3927 23.6545 18.4122 23.9174 18.5777 24.0761Z" fill="white"/>
<path d="M15.2969 21.9684C15.3012 22.2894 15.3482 22.6083 15.4367 22.9168C15.5292 23.2508 15.6747 23.9436 16.0721 24.0389C16.5348 24.1492 16.4479 23.2812 16.4541 23.0225C16.4625 22.6709 16.4533 22.319 16.4263 21.9684H16.3009C16.3168 22.1802 16.3271 22.3921 16.3302 22.605C16.3338 22.8276 16.3302 23.0508 16.3189 23.275C16.3137 23.3864 16.3081 23.4982 16.2978 23.609C16.2942 23.6722 16.2863 23.7351 16.2741 23.7972C16.1466 23.9219 16.0389 23.9291 15.9508 23.8188C15.8089 23.6745 15.7451 23.4482 15.6778 23.2601C15.6063 23.0621 15.5472 22.8598 15.501 22.6544C15.4497 22.43 15.4232 22.2007 15.4218 21.9704L15.2969 21.9684Z" fill="white"/>
<path d="M16.5347 27.2868C16.5676 26.5832 16.5964 25.8812 16.7763 25.1987C16.9387 24.5833 17.0539 23.9843 17.0637 23.3431C17.0665 22.8837 17.0444 22.4244 16.9973 21.9674H16.8698C16.9155 22.4107 16.9378 22.8562 16.9367 23.3019C16.9295 24.0024 16.7825 24.642 16.6144 25.3152C16.4601 25.9435 16.4396 26.5986 16.4087 27.2435C16.3895 27.6431 16.3763 28.0426 16.3691 28.4419H16.4951C16.505 28.057 16.5182 27.672 16.5347 27.2868Z" fill="white"/>
</g>
<path d="M17.0751 23.1585C16.0771 23.1819 15.0791 23.1819 14.0811 23.1585C14.0757 23.1581 14.0703 23.1594 14.0657 23.1623C14.061 23.1652 14.0574 23.1695 14.0554 23.1745C14.052 23.1771 14.0493 23.1806 14.0477 23.1846C14.0461 23.1886 14.0455 23.1929 14.0461 23.1972C14.1147 24.1982 14.1832 25.1991 14.2518 26.2001C14.2543 26.2393 14.315 26.2393 14.3124 26.2001C14.2439 25.2071 14.1753 24.2136 14.1068 23.2199C15.0959 23.2415 16.0848 23.2415 17.0735 23.2199C17.081 23.2191 17.0879 23.2156 17.093 23.2101C17.0981 23.2046 17.101 23.1974 17.1012 23.1899C17.1014 23.1823 17.0989 23.175 17.0941 23.1692C17.0892 23.1635 17.0825 23.1597 17.0751 23.1585V23.1585Z" fill="#F76127"/>
<path d="M14.3246 26.4528C14.32 26.4146 14.2593 26.4141 14.2639 26.4528C14.2937 26.6978 14.3237 26.9423 14.3539 27.1862C14.3585 27.2249 14.4197 27.2254 14.4145 27.1862C14.3847 26.9419 14.3547 26.6974 14.3246 26.4528Z" fill="#F76127"/>
<path d="M18.2959 27.8299C16.8184 27.7756 15.3406 27.7784 13.8625 27.8381C13.8234 27.8381 13.8229 27.901 13.8625 27.8995C15.3396 27.8397 16.8174 27.8369 18.2959 27.8912C18.3349 27.8928 18.3349 27.8314 18.2959 27.8299Z" fill="#F76127"/>
<path d="M17.9068 22.0282C16.2885 22.0725 14.6698 22.0816 13.0508 22.0555C13.0428 22.0555 13.0351 22.0587 13.0294 22.0644C13.0237 22.0701 13.0205 22.0779 13.0205 22.0859C13.0205 22.094 13.0237 22.1017 13.0294 22.1074C13.0351 22.1131 13.0428 22.1163 13.0508 22.1163C14.6698 22.1425 16.2885 22.1335 17.9068 22.0895C17.9142 22.0886 17.921 22.0849 17.926 22.0793C17.9309 22.0736 17.9336 22.0664 17.9336 22.0589C17.9336 22.0514 17.9309 22.0441 17.926 22.0385C17.921 22.0328 17.9142 22.0292 17.9068 22.0282V22.0282Z" fill="#F76127"/>
<path d="M18.3874 22.0467L18.1252 22.0317C18.0856 22.0317 18.0861 22.091 18.1252 22.0931L18.3874 22.1075C18.427 22.1096 18.4264 22.0467 18.3874 22.0467Z" fill="#F76127"/>
<path d="M8.73535 17.5624V17.3614C8.73535 17.3614 9.27976 17.1676 9.79229 17.1552C10.3048 17.1428 13.1194 17.4001 13.9563 17.4057V17.5604L8.73535 17.5624Z" fill="#FFEBC9"/>
<path d="M12.8297 17.4592C12.0422 18.1767 12.2539 21.2601 12.2539 21.2601C11.617 21.2446 7.4998 21.1817 7.4998 21.1817C7.4998 21.1817 7.40881 18.9318 7.78819 18.0474C8.13622 17.2355 8.73563 17.3572 8.73563 17.3572L12.8297 17.4592Z" fill="#FFF4E0"/>
<path d="M9.27385 18.8231C8.88384 18.8015 8.49314 18.7925 8.10176 18.7963C8.20458 18.4144 8.35366 18.0304 8.62406 17.7474C8.64205 17.7288 8.61326 17.7 8.59527 17.719C8.24981 18.0798 8.10125 18.6004 7.99072 19.0757C7.98095 19.1174 7.97273 19.1592 7.96348 19.2009C7.96174 19.2034 7.96052 19.2061 7.9599 19.209C7.95928 19.212 7.95927 19.215 7.95988 19.2179C7.859 19.7073 7.81945 20.2073 7.84215 20.7065C7.84215 20.7323 7.88431 20.7328 7.88277 20.7065C7.86025 20.2133 7.8991 19.7191 7.99843 19.2355L9.10626 19.2458C9.11109 19.245 9.11549 19.2425 9.11866 19.2388C9.12184 19.2351 9.12358 19.2303 9.12358 19.2254C9.12358 19.2205 9.12184 19.2158 9.11866 19.212C9.11549 19.2083 9.11109 19.2058 9.10626 19.205L8.00614 19.1947C8.01128 19.1715 8.0154 19.1478 8.02054 19.1246C8.04213 19.0308 8.06475 18.9344 8.08994 18.8381C8.48475 18.8339 8.87887 18.8429 9.27231 18.8649C9.30007 18.8654 9.30007 18.8246 9.27385 18.8231Z" fill="#D15221"/>
<path d="M10.8583 20.7251C9.9295 20.6873 9.00023 20.6829 8.07044 20.7117C8.04423 20.7117 8.04423 20.753 8.07044 20.7525C8.99989 20.7236 9.92916 20.7281 10.8583 20.7659C10.884 20.7669 10.884 20.7262 10.8583 20.7251Z" fill="#D15221"/>
<path d="M11.6145 20.4566L10.9544 20.6957C10.908 19.7117 11.0574 18.7281 11.3939 17.8026C11.4032 17.7778 11.3636 17.7675 11.3549 17.7917C11.0141 18.7289 10.8644 19.7252 10.9148 20.7215C10.9145 20.7242 10.9145 20.727 10.9148 20.7298C10.9151 20.7324 10.9161 20.735 10.9176 20.7373C10.9191 20.7395 10.9211 20.7414 10.9234 20.7427C10.9258 20.7441 10.9284 20.7449 10.9311 20.745C10.9338 20.7452 10.9365 20.7447 10.939 20.7437L11.6232 20.4963C11.6494 20.487 11.6391 20.4488 11.6145 20.4566Z" fill="#D15221"/>
<path d="M12.0881 17.7464C11.8722 18.1252 11.8193 18.5793 11.7607 19.0051C11.6938 19.493 11.6553 19.9843 11.6455 20.4767C11.6463 20.4815 11.6487 20.4859 11.6525 20.4891C11.6562 20.4923 11.6609 20.494 11.6658 20.494C11.6707 20.494 11.6754 20.4923 11.6792 20.4891C11.6829 20.4859 11.6853 20.4815 11.6861 20.4767C11.695 20.0112 11.7293 19.5467 11.7889 19.085C11.847 18.6433 11.8974 18.1613 12.1221 17.768C12.1237 17.7636 12.1238 17.7588 12.1223 17.7543C12.1208 17.7498 12.1178 17.746 12.1138 17.7435C12.1098 17.7409 12.1051 17.7398 12.1005 17.7404C12.0958 17.7409 12.0914 17.743 12.0881 17.7464V17.7464Z" fill="#D15221"/>
<path d="M10.9491 18.7448C10.4227 18.7664 9.89624 18.7937 9.36983 18.8267C9.4603 18.4422 9.58468 18.0665 9.7415 17.7041C9.75178 17.6804 9.71683 17.6598 9.70655 17.6835C9.32083 18.5734 9.13161 19.5364 9.15186 20.5065C9.15186 20.5328 9.19299 20.5333 9.19247 20.5065C9.18332 20.0787 9.21535 19.651 9.28809 19.2293C9.28961 19.2321 9.29195 19.2344 9.29479 19.2359C9.29763 19.2373 9.30085 19.2379 9.30403 19.2375C9.83608 19.1956 10.3703 19.1877 10.9033 19.2138C10.929 19.2138 10.9295 19.1746 10.9033 19.1731C10.3704 19.147 9.83642 19.1549 9.30454 19.1968C9.30232 19.1968 9.30012 19.1972 9.29809 19.1981C9.29605 19.199 9.29422 19.2003 9.29272 19.202C9.31277 19.0896 9.3359 18.9777 9.36109 18.8669H9.36314C9.89127 18.8326 10.4192 18.8051 10.947 18.7845C10.9748 18.7845 10.9753 18.7437 10.9491 18.7448Z" fill="#D15221"/>
<path d="M8.91092 20.0262C8.90556 20.0389 8.89554 20.0491 8.88292 20.0546C8.8703 20.0602 8.85604 20.0607 8.84306 20.0561C8.82865 20.0505 8.81615 20.0408 8.80703 20.0283C8.79792 20.0158 8.79258 20.0009 8.79166 19.9854C8.78734 19.9569 8.7898 19.9278 8.79886 19.9004C8.80965 19.8679 8.86157 19.8066 8.88933 19.8612C8.90116 19.8844 8.93663 19.8612 8.92429 19.8406C8.91853 19.8304 8.91059 19.8216 8.90105 19.8149C8.89151 19.8082 8.88061 19.8036 8.86911 19.8016C8.85762 19.7996 8.84582 19.8001 8.83456 19.8032C8.8233 19.8063 8.81287 19.8119 8.804 19.8195C8.78218 19.8416 8.76609 19.8688 8.75713 19.8986C8.74817 19.9285 8.74661 19.96 8.75259 19.9906C8.75449 20.0163 8.76478 20.0407 8.78187 20.06C8.79897 20.0793 8.82192 20.0924 8.84718 20.0973C8.86906 20.1019 8.89186 20.0983 8.91127 20.0872C8.93069 20.0761 8.94538 20.0582 8.95256 20.037C8.95822 20.0117 8.91915 20.0009 8.91092 20.0262Z" fill="#D15221"/>
<path d="M9.47796 20.1005C9.45076 20.0933 9.42558 20.0799 9.40444 20.0613C9.3833 20.0427 9.36676 20.0194 9.35613 19.9933C9.35083 19.9774 9.34949 19.9604 9.35223 19.9438C9.35497 19.9273 9.36169 19.9116 9.37182 19.8983C9.38195 19.8849 9.39519 19.8742 9.41037 19.8672C9.42555 19.8601 9.44223 19.8569 9.45894 19.8577C9.48413 19.8624 9.49544 19.8232 9.46974 19.8185C9.45016 19.8154 9.43014 19.8165 9.41101 19.8216C9.39187 19.8268 9.37405 19.8361 9.35874 19.8487C9.34343 19.8613 9.33097 19.877 9.32218 19.8949C9.3134 19.9127 9.3085 19.9322 9.3078 19.952C9.30318 20.0453 9.38543 20.1129 9.46562 20.1397C9.49236 20.1479 9.50264 20.1087 9.47796 20.1005Z" fill="#D15221"/>
<path d="M9.02744 19.5778C9.00842 19.5293 9.02075 19.4602 8.97911 19.4231C8.93747 19.386 8.86139 19.3963 8.81153 19.3953C8.60024 19.3907 8.38896 19.3953 8.17767 19.4087C8.15197 19.4087 8.15146 19.451 8.17767 19.4494C8.32933 19.4401 8.48098 19.4345 8.63314 19.4345C8.70574 19.4304 8.77851 19.4304 8.85111 19.4345C8.92 19.4422 8.96009 19.4582 8.97346 19.5314C8.97617 19.5504 8.981 19.5691 8.98785 19.587C8.99762 19.6123 9.03669 19.602 9.02744 19.5778Z" fill="#D15221"/>
<path d="M10.6743 19.3546C10.5633 19.3242 10.4204 19.3463 10.3057 19.3479C10.025 19.351 9.74436 19.3649 9.46419 19.387C9.43797 19.387 9.43746 19.4298 9.46419 19.4278C9.66622 19.4118 9.86825 19.3999 10.0708 19.3937C10.169 19.3906 10.2667 19.3886 10.3648 19.3881C10.4286 19.3881 10.7376 19.3525 10.7216 19.4674C10.718 19.4932 10.7571 19.504 10.7607 19.4783C10.7632 19.4645 10.763 19.4503 10.76 19.4366C10.757 19.4228 10.7513 19.4098 10.7433 19.3983C10.7352 19.3868 10.725 19.377 10.7132 19.3695C10.7013 19.362 10.6881 19.3569 10.6743 19.3546V19.3546Z" fill="#D15221"/>
<path d="M8.64967 20.4591L8.15462 20.4766C8.1284 20.4766 8.12789 20.5179 8.15462 20.5174L8.64967 20.4998C8.67538 20.5004 8.67589 20.4581 8.64967 20.4591Z" fill="#D15221"/>
<path d="M8.67518 17.6928C8.44459 18.0009 8.26781 18.346 8.15237 18.7134C8.14466 18.7387 8.18373 18.749 8.19144 18.7242C8.30627 18.3604 8.48164 18.0187 8.71014 17.7135C8.72607 17.6923 8.6906 17.6722 8.67518 17.6928Z" fill="#D15221"/>
<path d="M9.80808 17.6542C9.64886 17.9854 9.5364 18.3372 9.47394 18.6995C9.46982 18.7248 9.50889 18.7361 9.51352 18.7103C9.57491 18.3513 9.68599 18.0026 9.84355 17.6743C9.85486 17.6511 9.81939 17.6305 9.80808 17.6542Z" fill="#D15221"/>
<path d="M11.2861 17.7381C11.1504 18.0398 11.0547 18.358 11.0013 18.6845C10.9972 18.7103 11.0362 18.7211 11.0403 18.6953C11.0928 18.372 11.1873 18.0569 11.3215 17.7582C11.3318 17.7345 11.2969 17.7139 11.2861 17.7381Z" fill="#D15221"/>
<path d="M10.7546 19.705C10.7577 19.6792 10.717 19.6792 10.714 19.705C10.6795 19.971 10.6652 20.2393 10.6713 20.5075C10.6713 20.5338 10.7129 20.5338 10.7119 20.5075C10.7058 20.2393 10.72 19.971 10.7546 19.705V19.705Z" fill="#D15221"/>
<path d="M10.4701 20.5432C10.1232 20.5164 9.77539 20.5018 9.4265 20.4994C9.42167 20.5002 9.41727 20.5026 9.4141 20.5064C9.41092 20.5101 9.40918 20.5148 9.40918 20.5197C9.40918 20.5247 9.41092 20.5294 9.4141 20.5331C9.41727 20.5369 9.42167 20.5393 9.4265 20.5401C9.77504 20.5422 10.1231 20.5568 10.4706 20.5839C10.4947 20.586 10.4947 20.5453 10.4701 20.5432Z" fill="#D15221"/>
<path d="M11.5738 17.9169C11.5604 17.9474 11.5224 17.9891 11.4859 17.9577C11.4784 17.9489 11.4739 17.938 11.473 17.9265C11.4721 17.9151 11.4748 17.9036 11.4807 17.8937C11.4843 17.885 11.5018 17.8422 11.5157 17.8422C11.5183 17.8429 11.5209 17.843 11.5236 17.8427C11.5262 17.8423 11.5287 17.8414 11.531 17.8401C11.5333 17.8388 11.5353 17.837 11.5369 17.8349C11.5385 17.8328 11.5397 17.8303 11.5404 17.8278C11.5411 17.8252 11.5412 17.8225 11.5409 17.8199C11.5405 17.8172 11.5396 17.8147 11.5383 17.8124C11.537 17.8101 11.5352 17.8081 11.5331 17.8065C11.531 17.8049 11.5285 17.8037 11.526 17.803C11.4854 17.7932 11.4633 17.8329 11.4484 17.8649C11.4387 17.8809 11.4333 17.8991 11.4327 17.9178C11.432 17.9364 11.4362 17.955 11.4448 17.9716C11.4905 18.0422 11.5825 17.9968 11.6087 17.936C11.6201 17.9133 11.5851 17.8927 11.5738 17.9169Z" fill="#D15221"/>
<path d="M11.8172 17.8288H11.6953L11.7092 17.8175C11.7298 17.801 11.7005 17.7721 11.6804 17.7886L11.6337 17.8268C11.6306 17.83 11.6286 17.8342 11.6281 17.8386C11.6275 17.8431 11.6284 17.8476 11.6306 17.8515C11.6491 17.8768 11.6671 17.903 11.6856 17.9283C11.7041 17.9536 11.737 17.9283 11.7205 17.9077L11.6938 17.8695H11.8172C11.822 17.8688 11.8264 17.8663 11.8296 17.8626C11.8328 17.8588 11.8345 17.8541 11.8345 17.8492C11.8345 17.8443 11.8328 17.8395 11.8296 17.8358C11.8264 17.8321 11.822 17.8296 11.8172 17.8288V17.8288Z" fill="#D15221"/>
<path d="M11.1363 20.4762C11.1363 20.4937 11.1163 20.4891 11.1008 20.4834C11.0992 20.4702 11.1016 20.4568 11.1078 20.445C11.1139 20.4333 11.1235 20.4236 11.1353 20.4174C11.1584 20.4046 11.1378 20.3695 11.1147 20.3819C11.0938 20.3933 11.0774 20.4115 11.068 20.4335C11.0587 20.4555 11.057 20.48 11.0633 20.503C11.0715 20.5252 11.1147 20.5324 11.1342 20.5283C11.1465 20.5264 11.1577 20.5202 11.1657 20.5107C11.1737 20.5012 11.1781 20.4891 11.1779 20.4767C11.1759 20.4489 11.1353 20.4489 11.1363 20.4762Z" fill="#D15221"/>
<path d="M11.4852 20.3715L11.2842 20.4086L11.2996 20.3916C11.3171 20.3725 11.2883 20.3436 11.2708 20.3632L11.2148 20.4235C11.2126 20.4258 11.211 20.4284 11.21 20.4314C11.2091 20.4343 11.2088 20.4374 11.2092 20.4405C11.2095 20.4436 11.2106 20.4465 11.2123 20.4491C11.214 20.4517 11.2162 20.4539 11.2189 20.4555L11.3058 20.5003C11.3289 20.5122 11.3495 20.4771 11.3258 20.4653L11.2929 20.4483L11.4954 20.4106C11.5232 20.406 11.5109 20.3668 11.4852 20.3715Z" fill="#D15221"/>
<path d="M25.0365 4.07482C25.0365 2.15444 23.4838 0.597656 21.5685 0.597656C19.6532 0.597656 18.1006 2.15444 18.1006 4.07482V7.35664C18.1006 9.27702 19.6532 10.8338 21.5685 10.8338C23.4838 10.8338 25.0365 9.27702 25.0365 7.35664V4.07482Z" fill="#4AC2FF"/>
<path d="M24.0947 10.9024H19.0419C18.7741 10.9021 18.5174 10.7953 18.3281 10.6054C18.1388 10.4155 18.0324 10.158 18.0322 9.88956V1.54199C18.0325 1.27359 18.139 1.01626 18.3282 0.826468C18.5175 0.636679 18.7742 0.529936 19.0419 0.529663H24.0947C24.3624 0.529936 24.619 0.636679 24.8083 0.826468C24.9976 1.01626 25.1041 1.27359 25.1043 1.54199V9.89213C25.1035 10.1602 24.9968 10.417 24.8076 10.6063C24.6184 10.7957 24.362 10.9021 24.0947 10.9024V10.9024ZM19.0419 0.666255C18.8101 0.666255 18.5878 0.758574 18.4239 0.922903C18.26 1.08723 18.1679 1.31011 18.1679 1.5425V9.89265C18.1679 10.125 18.26 10.3479 18.4239 10.5123C18.5878 10.6766 18.8101 10.7689 19.0419 10.7689H24.0947C24.3265 10.7689 24.5488 10.6766 24.7127 10.5123C24.8765 10.3479 24.9686 10.125 24.9686 9.89265V1.54199C24.9686 1.30959 24.8765 1.08672 24.7127 0.922387C24.5488 0.758059 24.3265 0.665739 24.0947 0.665739L19.0419 0.666255Z" fill="#2AA3D3"/>
<path d="M22.956 11.526H19.942C19.9131 11.526 19.8854 11.5145 19.8649 11.494C19.8445 11.4735 19.833 11.4457 19.833 11.4168C19.833 11.3878 19.8445 11.36 19.8649 11.3395C19.8854 11.319 19.9131 11.3075 19.942 11.3075H22.956C22.9849 11.3075 23.0126 11.319 23.0331 11.3395C23.0535 11.36 23.065 11.3878 23.065 11.4168C23.065 11.4457 23.0535 11.4735 23.0331 11.494C23.0126 11.5145 22.9849 11.526 22.956 11.526Z" fill="#4AC2FF"/>
<path d="M21.5336 16.5831H17.3753C17.3603 16.5841 17.3454 16.5821 17.3313 16.577C17.3172 16.572 17.3043 16.5642 17.2934 16.5539C17.2825 16.5437 17.2738 16.5314 17.2678 16.5176C17.2619 16.5039 17.2588 16.4891 17.2588 16.4741C17.2588 16.4591 17.2619 16.4443 17.2678 16.4305C17.2738 16.4168 17.2825 16.4044 17.2934 16.3942C17.3043 16.384 17.3172 16.3761 17.3313 16.3711C17.3454 16.3661 17.3603 16.364 17.3753 16.3651H21.4251V11.4168C21.4241 11.4019 21.4261 11.3869 21.4311 11.3728C21.4361 11.3586 21.444 11.3457 21.4542 11.3348C21.4644 11.3238 21.4767 11.3151 21.4904 11.3091C21.5041 11.3031 21.5189 11.3 21.5339 11.3C21.5488 11.3 21.5636 11.3031 21.5773 11.3091C21.591 11.3151 21.6033 11.3238 21.6135 11.3348C21.6237 11.3457 21.6316 11.3586 21.6366 11.3728C21.6416 11.3869 21.6436 11.4019 21.6426 11.4168V16.4723C21.6429 16.4868 21.6402 16.5012 21.6349 16.5146C21.6295 16.5281 21.6215 16.5404 21.6114 16.5507C21.6012 16.561 21.5891 16.5692 21.5757 16.5748C21.5624 16.5803 21.5481 16.5832 21.5336 16.5831V16.5831Z" fill="#4AC2FF"/>
<path d="M17.3748 16.7418C17.5236 16.7418 17.6442 16.6209 17.6442 16.4718C17.6442 16.3226 17.5236 16.2017 17.3748 16.2017C17.2261 16.2017 17.1055 16.3226 17.1055 16.4718C17.1055 16.6209 17.2261 16.7418 17.3748 16.7418Z" fill="#4AC2FF"/>
<path d="M20.2719 7.7411L19.3722 8.07665L19.3398 8.06686V2.60164L20.2719 2.27588L20.3042 2.28567L20.2719 7.7411Z" fill="#8F1D22"/>
<path d="M20.3041 7.75099L19.3721 8.07675V2.61153L20.3041 2.28577V7.75099Z" fill="#AD2328"/>
<path d="M19.4395 2.73929V3.1001C19.4402 3.10494 19.4427 3.10935 19.4464 3.11254C19.4501 3.11572 19.4549 3.11747 19.4598 3.11747C19.4647 3.11747 19.4694 3.11572 19.4731 3.11254C19.4768 3.10935 19.4793 3.10494 19.4801 3.1001V2.73929C19.4793 2.73445 19.4768 2.73004 19.4731 2.72686C19.4694 2.72367 19.4647 2.72192 19.4598 2.72192C19.4549 2.72192 19.4501 2.72367 19.4464 2.72686C19.4427 2.73004 19.4402 2.73445 19.4395 2.73929V2.73929Z" fill="#ED1C24"/>
<path d="M19.4576 3.80936C19.4568 3.80452 19.4544 3.80011 19.4506 3.79692C19.4469 3.79374 19.4422 3.79199 19.4373 3.79199C19.4324 3.79199 19.4277 3.79374 19.424 3.79692C19.4202 3.80011 19.4178 3.80452 19.417 3.80936C19.417 4.08426 19.417 4.35916 19.417 4.63407C19.4178 4.63891 19.4202 4.64332 19.424 4.6465C19.4277 4.64968 19.4324 4.65143 19.4373 4.65143C19.4422 4.65143 19.4469 4.64968 19.4506 4.6465C19.4544 4.64332 19.4568 4.63891 19.4576 4.63407C19.4579 4.35916 19.4579 4.08426 19.4576 3.80936Z" fill="#ED1C24"/>
<path d="M20.2623 5.98758C20.2616 5.98274 20.2591 5.97833 20.2554 5.97515C20.2517 5.97196 20.2469 5.97021 20.242 5.97021C20.2371 5.97021 20.2324 5.97196 20.2287 5.97515C20.225 5.97833 20.2225 5.98274 20.2217 5.98758C20.2135 6.45492 20.2156 6.92242 20.2279 7.3901C20.2279 7.41639 20.2695 7.41639 20.2685 7.3901C20.2555 6.92105 20.2534 6.45354 20.2623 5.98758Z" fill="#70171A"/>
<path d="M20.2207 3.91605C20.2199 3.91121 20.2174 3.9068 20.2137 3.90361C20.21 3.90043 20.2053 3.89868 20.2004 3.89868C20.1955 3.89868 20.1907 3.90043 20.187 3.90361C20.1833 3.9068 20.1808 3.91121 20.1801 3.91605C20.1729 4.37892 20.1747 4.84144 20.1857 5.30362C20.1865 5.30846 20.189 5.31287 20.1927 5.31605C20.1964 5.31924 20.2011 5.32099 20.206 5.32099C20.2109 5.32099 20.2156 5.31924 20.2194 5.31605C20.2231 5.31287 20.2256 5.30846 20.2263 5.30362C20.2167 4.84109 20.2148 4.37857 20.2207 3.91605Z" fill="#70171A"/>
<path d="M20.1885 3.05626V3.4346C20.1885 3.44006 20.1906 3.44531 20.1945 3.44917C20.1984 3.45304 20.2036 3.45521 20.209 3.45521C20.2145 3.45521 20.2197 3.45304 20.2236 3.44917C20.2274 3.44531 20.2296 3.44006 20.2296 3.4346V3.05626C20.2296 3.05079 20.2274 3.04555 20.2236 3.04168C20.2197 3.03782 20.2145 3.03564 20.209 3.03564C20.2036 3.03564 20.1984 3.03782 20.1945 3.04168C20.1906 3.04555 20.1885 3.05079 20.1885 3.05626V3.05626Z" fill="#70171A"/>
<path d="M19.5254 8.13655L22.6073 9.07105L23.5393 8.74529V8.7123L20.4574 7.81079L19.5254 8.10356V8.13655Z" fill="#70171A"/>
<path d="M19.5254 8.10347L22.6073 9.03796L23.5393 8.7122L20.4574 7.77771L19.5254 8.10347Z" fill="#941E22"/>
<path d="M22.6918 9.02929C22.6918 9.03147 22.6909 9.03357 22.6894 9.03512C22.6878 9.03667 22.6857 9.03753 22.6836 9.03753C22.6824 9.03761 22.6813 9.03744 22.6803 9.03706C22.6792 9.03668 22.6782 9.03608 22.6774 9.03531C22.6766 9.03454 22.6759 9.0336 22.6755 9.03257C22.675 9.03153 22.6748 9.03042 22.6748 9.02929C22.6747 9.02812 22.6749 9.02694 22.6753 9.02585C22.6757 9.02475 22.6764 9.02375 22.6772 9.02292C22.678 9.02209 22.679 9.02145 22.6801 9.02104C22.6812 9.02062 22.6824 9.02045 22.6836 9.02053C22.6847 9.02052 22.6858 9.02075 22.6868 9.0212C22.6879 9.02164 22.6888 9.0223 22.6896 9.02312C22.6903 9.02394 22.6909 9.02491 22.6913 9.02597C22.6917 9.02703 22.6919 9.02816 22.6918 9.02929Z" fill="#450E10"/>
<path d="M23.4867 8.75082C23.4868 8.75194 23.4866 8.75307 23.4862 8.75413C23.4859 8.75519 23.4853 8.75616 23.4845 8.75698C23.4837 8.75781 23.4828 8.75846 23.4818 8.75891C23.4807 8.75935 23.4796 8.75958 23.4785 8.75958C23.4773 8.75966 23.4761 8.75948 23.4751 8.75907C23.474 8.75865 23.473 8.75801 23.4721 8.75718C23.4713 8.75635 23.4707 8.75536 23.4703 8.75426C23.4698 8.75316 23.4697 8.75199 23.4697 8.75082C23.4697 8.74969 23.47 8.74857 23.4704 8.74754C23.4709 8.7465 23.4715 8.74557 23.4723 8.7448C23.4732 8.74402 23.4741 8.74343 23.4752 8.74304C23.4762 8.74266 23.4774 8.7425 23.4785 8.74257C23.4807 8.74257 23.4828 8.74344 23.4843 8.74499C23.4858 8.74653 23.4867 8.74863 23.4867 8.75082Z" fill="#450E10"/>
<path d="M21.9818 8.13033L21.0822 8.46589L21.0498 8.45609V6.4969L21.9818 6.17114L22.0142 6.18094L21.9818 8.13033Z" fill="#8F1D22"/>
<path d="M22.014 8.1401L21.082 8.46586V6.50667L22.014 6.18091V8.1401Z" fill="#AD2328"/>
<path d="M21.1436 6.56852C21.1436 6.91214 21.1436 7.25577 21.1436 7.5994C21.1443 7.60424 21.1468 7.60865 21.1505 7.61183C21.1542 7.61502 21.159 7.61677 21.1639 7.61677C21.1688 7.61677 21.1735 7.61502 21.1772 7.61183C21.1809 7.60865 21.1834 7.60424 21.1842 7.5994C21.1842 7.25577 21.1842 6.91214 21.1842 6.56852C21.1834 6.56367 21.1809 6.55926 21.1772 6.55608C21.1735 6.5529 21.1688 6.55115 21.1639 6.55115C21.159 6.55115 21.1542 6.5529 21.1505 6.55608C21.1468 6.55926 21.1443 6.56367 21.1436 6.56852V6.56852Z" fill="#ED1C24"/>
<path d="M19.5254 5.71297L22.6073 6.64746L23.5393 6.3217V6.28871L20.4574 5.38721L19.5254 5.67998V5.71297Z" fill="#70171A"/>
<path d="M19.5254 5.67988L22.6073 6.61438L23.5393 6.28862L20.4574 5.35413L19.5254 5.67988Z" fill="#941E22"/>
<path d="M22.6918 6.60556C22.6918 6.6078 22.6909 6.60996 22.6894 6.61159C22.6879 6.61321 22.6858 6.6142 22.6835 6.61433C22.6812 6.61433 22.679 6.6134 22.6774 6.61176C22.6757 6.61012 22.6748 6.60789 22.6748 6.60556C22.6748 6.60324 22.6757 6.60101 22.6774 6.59937C22.679 6.59773 22.6812 6.5968 22.6835 6.5968C22.6858 6.59693 22.6879 6.59791 22.6894 6.59954C22.6909 6.60117 22.6918 6.60333 22.6918 6.60556Z" fill="#450E10"/>
<path d="M23.4867 6.32578C23.4867 6.32802 23.4858 6.33017 23.4843 6.3318C23.4828 6.33343 23.4807 6.33441 23.4785 6.33454C23.4762 6.33454 23.4739 6.33362 23.4723 6.33198C23.4706 6.33033 23.4697 6.3281 23.4697 6.32578C23.4697 6.32346 23.4706 6.32123 23.4723 6.31958C23.4739 6.31794 23.4762 6.31702 23.4785 6.31702C23.4807 6.31715 23.4828 6.31813 23.4843 6.31976C23.4858 6.32139 23.4867 6.32354 23.4867 6.32578Z" fill="#450E10"/>
<path d="M23.0384 4.54807C23.0327 4.54901 23.027 4.54901 23.0214 4.54807L19.9395 3.61357C19.9245 3.60904 19.9119 3.59874 19.9045 3.58492C19.8971 3.5711 19.8955 3.5549 19.8999 3.53986C19.9046 3.5248 19.9149 3.51218 19.9288 3.50475C19.9427 3.49731 19.9589 3.49567 19.974 3.50017L23.0553 4.43467C23.0688 4.4388 23.0804 4.44767 23.088 4.45965C23.0956 4.47163 23.0986 4.48594 23.0966 4.49997C23.0945 4.514 23.0875 4.52683 23.0768 4.53613C23.0661 4.54543 23.0525 4.55058 23.0384 4.55064V4.54807Z" fill="#29ABE2"/>
<path d="M19.5254 2.68623L22.6073 3.62073L23.5393 3.29445V3.26146L20.4574 2.36047L19.5254 2.65324V2.68623Z" fill="#70171A"/>
<path d="M19.5254 2.65315L22.6073 3.58765L23.5393 3.26137L20.4574 2.32739L19.5254 2.65315Z" fill="#941E22"/>
<path d="M22.6918 3.57897C22.6918 3.58116 22.6909 3.58325 22.6894 3.5848C22.6878 3.58635 22.6857 3.58722 22.6836 3.58722C22.6824 3.58729 22.6813 3.58713 22.6803 3.58674C22.6792 3.58636 22.6782 3.58576 22.6774 3.58499C22.6766 3.58422 22.6759 3.58329 22.6755 3.58225C22.675 3.58121 22.6748 3.5801 22.6748 3.57897C22.6747 3.5778 22.6749 3.57663 22.6753 3.57553C22.6757 3.57443 22.6764 3.57344 22.6772 3.57261C22.678 3.57178 22.679 3.57113 22.6801 3.57072C22.6812 3.57031 22.6824 3.57013 22.6836 3.57021C22.6847 3.57021 22.6858 3.57043 22.6868 3.57088C22.6879 3.57133 22.6888 3.57198 22.6896 3.5728C22.6903 3.57362 22.6909 3.57459 22.6913 3.57566C22.6917 3.57672 22.6919 3.57784 22.6918 3.57897V3.57897Z" fill="#450E10"/>
<path d="M23.4867 3.30063C23.4868 3.30176 23.4866 3.30289 23.4862 3.30395C23.4859 3.30501 23.4853 3.30598 23.4845 3.3068C23.4837 3.30762 23.4828 3.30828 23.4818 3.30872C23.4807 3.30917 23.4796 3.3094 23.4785 3.3094C23.4773 3.30947 23.4761 3.3093 23.4751 3.30888C23.474 3.30847 23.473 3.30783 23.4721 3.307C23.4713 3.30617 23.4707 3.30517 23.4703 3.30407C23.4698 3.30298 23.4697 3.3018 23.4697 3.30063C23.4697 3.29831 23.4707 3.29608 23.4723 3.29444C23.4739 3.29279 23.4762 3.29187 23.4785 3.29187C23.4807 3.292 23.4828 3.29298 23.4843 3.29461C23.4859 3.29624 23.4867 3.2984 23.4867 3.30063V3.30063Z" fill="#450E10"/>
<path d="M22.3392 1.48059H24.0465C24.0809 1.48059 24.0804 1.7311 24.0465 1.7311H22.3392C22.3002 1.73213 22.3099 1.48059 22.3392 1.48059Z" fill="#0071BC"/>
<path d="M22.5502 1.90527H24.0508C24.0811 1.90527 24.0806 1.98207 24.0508 1.98207H22.5502C22.5153 1.98207 22.5245 1.90527 22.5502 1.90527Z" fill="#0071BC"/>
<path d="M22.5502 2.06665H24.0508C24.0811 2.06665 24.0806 2.14397 24.0508 2.14397H22.5502C22.5153 2.14397 22.5245 2.06665 22.5502 2.06665Z" fill="#0071BC"/>
<path d="M19.1759 9.53331H19.6781C19.6976 9.53331 19.692 9.11426 19.6781 9.11426H19.1759C19.162 9.11426 19.1584 9.53331 19.1759 9.53331Z" fill="white"/>
<path d="M19.6126 9.00602H19.2332C19.2299 9.00602 19.2267 9.00536 19.2236 9.0041C19.2206 9.00283 19.2178 9.00096 19.2154 8.99862C19.2131 8.99627 19.2112 8.99349 19.21 8.99043C19.2087 8.98736 19.2081 8.98408 19.2081 8.98076C19.2078 8.97734 19.2083 8.97391 19.2095 8.97069C19.2107 8.96748 19.2125 8.96454 19.2149 8.96207C19.2173 8.9596 19.2201 8.95764 19.2233 8.95634C19.2264 8.95503 19.2298 8.95439 19.2332 8.95447H19.5998L20.2249 8.00245C20.2289 7.99773 20.2345 7.99464 20.2406 7.99378C20.2467 7.99291 20.2529 7.99434 20.2581 7.99777C20.2632 8.00121 20.2669 8.00642 20.2685 8.01242C20.27 8.01841 20.2693 8.02477 20.2665 8.03029L19.6337 8.99313C19.6316 8.99688 19.6285 9.00003 19.6248 9.00228C19.6211 9.00453 19.6169 9.00582 19.6126 9.00602Z" fill="white"/>
<path d="M20.3132 8.01693C20.3133 8.00386 20.3096 7.99105 20.3024 7.98014C20.2952 7.96922 20.285 7.96068 20.273 7.95561C20.261 7.95054 20.2477 7.94916 20.2349 7.95164C20.2221 7.95413 20.2103 7.96037 20.2011 7.96958C20.1918 7.97879 20.1855 7.99054 20.1829 8.00335C20.1804 8.01617 20.1816 8.02946 20.1866 8.04154C20.1916 8.05363 20.2 8.06396 20.2108 8.07124C20.2217 8.07851 20.2344 8.08239 20.2474 8.08239C20.2561 8.08246 20.2646 8.08082 20.2726 8.07756C20.2806 8.0743 20.2878 8.06949 20.2939 8.0634C20.3001 8.05732 20.3049 8.05008 20.3082 8.0421C20.3115 8.03413 20.3132 8.02557 20.3132 8.01693V8.01693Z" fill="white"/>
<path d="M18.7003 2.51147H19.2025C19.2215 2.51147 19.2164 2.93104 19.2025 2.93104H18.7003C18.6864 2.92898 18.6828 2.51147 18.7003 2.51147Z" fill="white"/>
<path d="M19.7698 4.05105C19.7656 4.05111 19.7615 4.0501 19.7578 4.04811C19.7541 4.04613 19.751 4.04324 19.7487 4.03971L19.1236 3.08821H18.7576C18.7543 3.08828 18.7511 3.08769 18.748 3.08647C18.745 3.08526 18.7422 3.08345 18.7398 3.08115C18.7375 3.07884 18.7356 3.07609 18.7343 3.07306C18.7331 3.07002 18.7324 3.06676 18.7324 3.06347C18.7324 3.05677 18.7351 3.05034 18.7398 3.04561C18.7445 3.04087 18.7509 3.03821 18.7576 3.03821H19.137C19.1412 3.03815 19.1453 3.03916 19.149 3.04115C19.1527 3.04313 19.1558 3.04602 19.1581 3.04955L19.7904 4.01239C19.7922 4.0151 19.7935 4.01814 19.7942 4.02134C19.7948 4.02454 19.7949 4.02785 19.7942 4.03106C19.7936 4.03427 19.7924 4.03733 19.7906 4.04005C19.7887 4.04278 19.7864 4.04511 19.7837 4.04693C19.7796 4.04969 19.7748 4.05113 19.7698 4.05105V4.05105Z" fill="white"/>
<path d="M19.8347 4.02643C19.8346 4.03935 19.8307 4.05196 19.8234 4.06265C19.8162 4.07335 19.806 4.08166 19.794 4.08654C19.7821 4.09141 19.769 4.09263 19.7563 4.09005C19.7437 4.08747 19.7321 4.08119 19.723 4.07202C19.714 4.06284 19.7078 4.05118 19.7053 4.03849C19.7028 4.02581 19.7042 4.01267 19.7091 4.00074C19.7141 3.98881 19.7224 3.97862 19.7332 3.97145C19.7439 3.96428 19.7565 3.96045 19.7694 3.96045C19.778 3.96045 19.7865 3.96216 19.7945 3.96548C19.8024 3.9688 19.8097 3.97367 19.8157 3.9798C19.8218 3.98594 19.8266 3.99321 19.8299 4.00122C19.8331 4.00922 19.8347 4.01779 19.8347 4.02643V4.02643Z" fill="white"/>
<path d="M23.6742 8.76576L22.7746 9.10131L22.7422 9.09152V3.6263L23.6742 3.30054L23.7066 3.31033L23.6742 8.76576Z" fill="#8F1D22"/>
<path d="M23.7064 8.77565L22.7744 9.10141V3.63618L23.7064 3.31042V8.77565Z" fill="#AD2328"/>
<path d="M22.8593 3.62839C22.8593 3.63072 22.8584 3.63294 22.8567 3.63459C22.8551 3.63623 22.8529 3.63715 22.8505 3.63715C22.8482 3.63715 22.846 3.63623 22.8444 3.63459C22.8427 3.63294 22.8418 3.63072 22.8418 3.62839C22.8418 3.62607 22.8427 3.62384 22.8444 3.6222C22.846 3.62055 22.8482 3.61963 22.8505 3.61963C22.8529 3.61963 22.8551 3.62055 22.8567 3.6222C22.8584 3.62384 22.8593 3.62607 22.8593 3.62839V3.62839Z" fill="#450E10"/>
<path d="M23.6562 3.35007C23.6562 3.35239 23.6552 3.35462 23.6536 3.35627C23.652 3.35791 23.6497 3.35883 23.6474 3.35883C23.6451 3.35883 23.6429 3.35791 23.6412 3.35627C23.6396 3.35462 23.6387 3.35239 23.6387 3.35007C23.6387 3.34775 23.6396 3.34552 23.6412 3.34388C23.6429 3.34223 23.6451 3.34131 23.6474 3.34131C23.6497 3.34131 23.652 3.34223 23.6536 3.34388C23.6552 3.34552 23.6562 3.34775 23.6562 3.35007V3.35007Z" fill="#450E10"/>
<path d="M22.8505 9.055C22.8554 9.055 22.8593 9.05108 22.8593 9.04624C22.8593 9.0414 22.8554 9.03748 22.8505 9.03748C22.8457 9.03748 22.8418 9.0414 22.8418 9.04624C22.8418 9.05108 22.8457 9.055 22.8505 9.055Z" fill="#450E10"/>
<path d="M23.6562 8.76841C23.6562 8.77014 23.6556 8.77183 23.6547 8.77327C23.6537 8.77472 23.6524 8.77584 23.6508 8.7765C23.6492 8.77716 23.6474 8.77734 23.6457 8.777C23.644 8.77666 23.6425 8.77583 23.6412 8.7746C23.64 8.77338 23.6392 8.77182 23.6388 8.77012C23.6385 8.76842 23.6387 8.76665 23.6393 8.76505C23.64 8.76345 23.6411 8.76208 23.6426 8.76112C23.644 8.76016 23.6457 8.75964 23.6474 8.75964C23.6497 8.75977 23.6518 8.76073 23.6535 8.76235C23.6551 8.76396 23.656 8.76612 23.6562 8.76841V8.76841Z" fill="#450E10"/>
<path d="M23.6834 3.36816L23.7358 3.38878L23.7327 3.39703L23.6803 3.3759L23.6777 3.37023L23.6834 3.36816Z" fill="#242773"/>
<path d="M23.7419 3.39603C23.7394 3.40221 23.7337 3.40582 23.7296 3.40427C23.7273 3.40278 23.7256 3.40046 23.7249 3.39777C23.7243 3.39509 23.7246 3.39225 23.726 3.38984C23.726 3.38365 23.7337 3.38056 23.7383 3.38211C23.743 3.38365 23.744 3.39036 23.7419 3.39603Z" fill="#2E3192"/>
<path d="M23.7347 3.39526C23.7347 3.39526 23.7386 3.39526 23.7392 3.39526C23.7398 3.39526 23.7392 3.39526 23.7358 3.39526C23.7325 3.39526 23.7358 3.39075 23.7358 3.39075C23.7358 3.39075 23.7358 3.39075 23.733 3.39413C23.7302 3.39751 23.7285 3.39413 23.7285 3.39413C23.7285 3.39413 23.7285 3.39413 23.7319 3.39695C23.7353 3.39976 23.7319 3.40089 23.7319 3.40145C23.7319 3.40202 23.7336 3.39695 23.7347 3.39526Z" fill="#242773"/>
<path d="M22.8885 3.63672L22.9409 3.65785L22.9378 3.66558L22.8854 3.64497L22.8828 3.6393L22.8885 3.63672Z" fill="#242773"/>
<path d="M22.9463 3.66497C22.9457 3.66753 22.9442 3.66975 22.942 3.67119C22.9398 3.67263 22.9371 3.67317 22.9345 3.6727C22.9299 3.6727 22.9284 3.66445 22.9309 3.65878C22.9335 3.65311 22.9386 3.64899 22.9427 3.65105C22.9469 3.65311 22.9489 3.65878 22.9463 3.66497Z" fill="#2E3192"/>
<path d="M22.9397 3.66414C22.9397 3.66414 22.9442 3.66414 22.9447 3.66414C22.9453 3.66414 22.9447 3.66414 22.9408 3.66076C22.9369 3.65738 22.9408 3.65681 22.9408 3.65625C22.9403 3.65752 22.9403 3.65892 22.9408 3.66019C22.938 3.66019 22.9363 3.66019 22.9357 3.66019C22.9352 3.66019 22.9357 3.66019 22.9397 3.66019C22.9436 3.66019 22.9397 3.6647 22.9397 3.6647C22.9397 3.6647 22.9391 3.66639 22.9397 3.66414Z" fill="#242773"/>
<path d="M23.6834 8.77661L23.7358 8.79774L23.7327 8.80599L23.6803 8.78486L23.6777 8.77919L23.6834 8.77661Z" fill="#242773"/>
<path d="M23.7427 8.80503C23.7401 8.81121 23.7344 8.81482 23.7303 8.81276C23.7262 8.8107 23.7241 8.80503 23.7267 8.79884C23.7293 8.79266 23.7344 8.78905 23.7391 8.79111C23.7437 8.79317 23.7447 8.79987 23.7427 8.80503Z" fill="#2E3192"/>
<path d="M23.7347 8.80408C23.7347 8.80408 23.7386 8.80408 23.7392 8.80408C23.7398 8.80408 23.7392 8.80408 23.7358 8.80126C23.7325 8.79844 23.7358 8.79675 23.7358 8.79675C23.7358 8.79675 23.7358 8.79675 23.733 8.80013H23.7285C23.7285 8.80013 23.7285 8.80013 23.7319 8.80352C23.7353 8.8069 23.7319 8.80746 23.7319 8.80802C23.7319 8.80859 23.7336 8.80633 23.7347 8.80408Z" fill="#242773"/>
<path d="M22.8885 9.04578L22.9409 9.06639L22.9378 9.07464L22.8854 9.05402L22.8828 9.04835L22.8885 9.04578Z" fill="#242773"/>
<path d="M22.9463 9.07409C22.9457 9.07665 22.9442 9.07887 22.942 9.08031C22.9398 9.08175 22.9371 9.08229 22.9345 9.08182C22.9299 9.08182 22.9284 9.07357 22.9309 9.0679C22.9335 9.06223 22.9386 9.05811 22.9427 9.05965C22.9451 9.06114 22.9467 9.06347 22.9474 9.06615C22.9481 9.06884 22.9477 9.07168 22.9463 9.07409V9.07409Z" fill="#2E3192"/>
<path d="M22.9406 9.07294C22.9406 9.07294 22.9451 9.07294 22.9457 9.07294H22.9417C22.9417 9.07294 22.9417 9.06899 22.9417 9.06843C22.9417 9.06786 22.9417 9.06843 22.9417 9.07181H22.9355L22.9395 9.07463V9.07913C22.9395 9.07913 22.94 9.07519 22.9406 9.07294Z" fill="#242773"/>
<path d="M22.8629 3.82489C22.8629 3.7986 22.8208 3.7986 22.8223 3.82489C22.847 4.33415 22.8538 4.84357 22.8429 5.35317C22.8436 5.35802 22.8461 5.36243 22.8498 5.36561C22.8536 5.36879 22.8583 5.37054 22.8632 5.37054C22.8681 5.37054 22.8728 5.36879 22.8765 5.36561C22.8802 5.36243 22.8827 5.35802 22.8835 5.35317C22.8944 4.84357 22.8876 4.33415 22.8629 3.82489Z" fill="#ED1C24"/>
<path d="M22.8848 7.19165C22.8719 6.64529 22.8848 6.0984 22.8977 5.55204C22.8969 5.54719 22.8944 5.54278 22.8907 5.5396C22.887 5.53642 22.8822 5.53467 22.8773 5.53467C22.8725 5.53467 22.8677 5.53642 22.864 5.5396C22.8603 5.54278 22.8578 5.54719 22.857 5.55204C22.8442 6.0984 22.8313 6.64529 22.8442 7.19165C22.857 7.73802 22.8956 8.28387 22.8894 8.83076C22.8902 8.8356 22.8927 8.84001 22.8964 8.84319C22.9001 8.84638 22.9048 8.84812 22.9097 8.84812C22.9146 8.84812 22.9194 8.84638 22.9231 8.84319C22.9268 8.84001 22.9293 8.8356 22.93 8.83076C22.9408 8.28439 22.8997 7.73854 22.8848 7.19165Z" fill="#ED1C24"/>
<path d="M23.6687 7.92362C23.6687 7.89733 23.6281 7.89579 23.6281 7.92362L23.625 8.65812C23.625 8.6839 23.6656 8.68544 23.6656 8.65812L23.6687 7.92362Z" fill="#70171A"/>
<path d="M23.6123 3.57425C23.6161 4.30033 23.6198 5.02659 23.6236 5.75302C23.6244 5.75786 23.6269 5.76227 23.6306 5.76546C23.6343 5.76864 23.639 5.77039 23.6439 5.77039C23.6488 5.77039 23.6535 5.76864 23.6573 5.76546C23.661 5.76227 23.6635 5.75786 23.6642 5.75302C23.6601 5.02693 23.6563 4.30085 23.6529 3.57477C23.6522 3.56991 23.6498 3.56547 23.6461 3.56223C23.6424 3.559 23.6377 3.55719 23.6328 3.55713C23.6279 3.55707 23.6232 3.55876 23.6194 3.5619C23.6157 3.56503 23.6131 3.56941 23.6123 3.57425Z" fill="#70171A"/>
<path d="M24.4365 6.52734H23.9343C23.9153 6.52734 23.9204 6.94691 23.9343 6.94691H24.4365C24.4504 6.94691 24.454 6.52734 24.4365 6.52734Z" fill="white"/>
<path d="M23.3668 8.069C23.3619 8.06908 23.357 8.06764 23.3529 8.06487C23.3475 8.0612 23.3437 8.05553 23.3423 8.04907C23.341 8.04262 23.3422 8.0359 23.3457 8.03034L23.9786 7.06749C23.9808 7.06397 23.984 7.06108 23.9876 7.05909C23.9913 7.05711 23.9955 7.0561 23.9996 7.05615H24.379C24.3857 7.05615 24.3921 7.05882 24.3968 7.06355C24.4016 7.06829 24.4042 7.07471 24.4042 7.08141C24.4042 7.0847 24.4036 7.08796 24.4023 7.091C24.401 7.09404 24.3992 7.09679 24.3968 7.09909C24.3945 7.10139 24.3917 7.10321 24.3886 7.10442C24.3856 7.10563 24.3823 7.10622 24.379 7.10615H24.014L23.3874 8.05766C23.3853 8.06121 23.3823 8.06414 23.3786 8.06613C23.375 8.06813 23.3709 8.06912 23.3668 8.069V8.069Z" fill="white"/>
<path d="M23.3018 8.04422C23.3018 8.05717 23.3056 8.06982 23.3128 8.08059C23.3199 8.09135 23.3301 8.09974 23.3421 8.1047C23.354 8.10965 23.3671 8.11095 23.3798 8.10842C23.3924 8.1059 23.4041 8.09966 23.4132 8.09051C23.4223 8.08135 23.4286 8.06969 23.4311 8.05699C23.4336 8.04429 23.4323 8.03113 23.4274 8.01917C23.4224 8.00721 23.4141 7.99698 23.4033 7.98979C23.3926 7.9826 23.38 7.97876 23.367 7.97876C23.3585 7.97876 23.35 7.98045 23.3421 7.98374C23.3341 7.98703 23.3269 7.99185 23.3209 7.99793C23.3148 8.00401 23.31 8.01123 23.3067 8.01917C23.3034 8.02711 23.3018 8.03562 23.3018 8.04422Z" fill="white"/>
</svg>
