<svg width="122" height="122" viewBox="0 0 122 122" fill="none" xmlns="http://www.w3.org/2000/svg">
<mask id="mask0_120_3051" style="mask-type:alpha" maskUnits="userSpaceOnUse" x="0" y="0" width="122" height="122">
<circle cx="61" cy="61" r="61" fill="#F7F4F9"/>
</mask>
<g mask="url(#mask0_120_3051)">
<path d="M157.802 92.6204C159.189 91.3824 160.88 90.5356 162.702 90.1666C164.524 89.7977 166.411 89.92 168.17 90.5209C164.925 92.3651 161.218 93.2378 157.491 93.0351L156.057 93.5881C157.645 93.3497 159.268 93.581 160.727 94.2534C162.185 94.9257 163.415 96.0099 164.265 97.3724C161.054 97.2906 157.992 95.9974 155.694 93.7523C154.83 94.0719 154.044 94.3916 153.223 94.7286C154.824 94.6627 156.409 95.0607 157.788 95.8746C159.168 96.6885 160.283 97.8837 160.999 99.3163C157.835 98.8247 154.931 97.278 152.757 94.9273L150.338 95.9295C151.805 95.8365 153.252 96.3027 154.39 97.2341C155.606 98.3062 156.571 99.6338 157.215 101.122C154.206 100.433 151.546 98.6814 149.724 96.1887L147.08 97.3292C148.59 97.5759 150.003 98.2302 151.168 99.2214C152.333 100.213 153.205 101.503 153.69 102.954C150.614 102.09 147.962 100.224 146.934 97.3983C145.879 97.8648 144.834 98.34 143.797 98.8238C145.554 99.0695 147.206 99.8017 148.568 100.938C149.93 102.074 150.947 103.568 151.504 105.252C148.271 103.982 145.475 101.803 143.452 98.9794L140.86 100.215C142.552 100.563 144.076 101.477 145.18 102.807C146.34 104.273 146.891 106.129 146.718 107.991C144.134 105.944 142.031 103.354 140.557 100.405L138.587 101.286C139.957 102.054 141.111 103.154 141.946 104.483C142.781 105.813 143.269 107.331 143.365 108.898C140.854 107.072 139.111 104.377 138.475 101.338C137.412 101.874 136.35 102.418 135.296 102.971C136.606 103.655 137.713 104.671 138.506 105.917C139.299 107.164 139.75 108.597 139.814 110.073C139.814 110.393 139.659 110.842 139.339 110.79C139.239 110.756 139.152 110.693 139.089 110.609C137.117 108.486 135.769 105.862 135.192 103.023C133.522 103.898 131.863 104.797 130.215 105.718C131.704 105.909 133.111 106.505 134.283 107.443C135.455 108.38 136.347 109.622 136.859 111.032C133.896 110.272 131.226 108.751 129.861 105.986L126.924 107.714C128.378 107.839 129.743 108.468 130.784 109.491C131.825 110.515 132.476 111.869 132.626 113.322C131.311 112.876 130.107 112.153 129.095 111.202C128.083 110.251 127.286 109.094 126.759 107.809C125.213 108.716 123.684 109.65 122.154 110.6L121.429 110.375C122.569 109.658 123.71 108.958 124.885 108.259C124.248 107.655 123.794 106.885 123.572 106.036C123.351 105.187 123.372 104.293 123.632 103.455C124.263 104.009 124.75 104.708 125.051 105.492C125.352 106.276 125.458 107.122 125.36 107.956L127.727 106.548C127.12 105.548 126.751 104.421 126.649 103.256C126.547 102.09 126.715 100.916 127.14 99.8261C127.85 100.727 128.317 101.795 128.494 102.929C128.671 104.063 128.553 105.223 128.15 106.297C129.222 105.675 130.293 105.062 131.373 104.457C130.579 103.591 129.985 102.561 129.634 101.439C129.283 100.318 129.183 99.1328 129.343 97.9685C130.359 98.6099 131.153 99.5485 131.616 100.657C132.08 101.765 132.191 102.99 131.935 104.163C132.54 103.818 133.153 103.489 133.766 103.152C132.808 100.573 132.294 97.8508 132.246 95.1001C133.416 96.132 134.308 97.4424 134.838 98.9102C135.039 99.5528 135.105 100.23 135.031 100.9C134.956 101.569 134.743 102.216 134.406 102.798C135.425 102.254 136.445 101.71 137.473 101.191C136.743 99.9944 136.288 98.651 136.138 97.2574C135.989 95.8638 136.15 94.4544 136.609 93.1302C137.594 94.1367 138.26 95.4111 138.524 96.7941C138.788 98.1771 138.639 99.6074 138.095 100.906C138.959 100.457 139.875 100.042 140.773 99.5755C139.832 96.7187 139.989 93.6138 141.214 90.8665C142.26 92.1136 142.803 93.7068 142.735 95.3333C142.673 96.7288 142.234 98.0814 141.465 99.2472C142.329 98.8152 143.262 98.3832 144.16 97.9944C143.682 96.5569 143.517 95.0335 143.676 93.5268C143.835 92.0201 144.316 90.5651 145.085 89.2595C145.876 90.5273 146.279 91.9996 146.242 93.4939C146.205 94.9882 145.731 96.4389 144.877 97.6661C145.741 97.2946 146.605 96.9231 147.426 96.5688C147.163 94.9453 147.275 93.2832 147.752 91.7094C148.23 90.1356 149.061 88.6918 150.182 87.4884C150.569 88.9937 150.58 90.5708 150.216 92.0816C149.851 93.5924 149.122 94.9907 148.091 96.1541C148.955 95.7826 149.888 95.4284 150.787 95.0742C150.868 93.4069 151.35 91.7838 152.192 90.3428C153.034 88.9018 154.212 87.6854 155.625 86.7972C155.228 89.8985 153.728 92.7534 151.4 94.8409C152.446 94.4434 153.508 94.0546 154.571 93.6918C155.708 90.3066 158.027 87.4446 161.103 85.6308C160.341 88.8573 158.335 91.6521 155.522 93.4067C156.282 93.1475 157.034 92.9056 157.794 92.6636" fill="#F2C3FA"/>
<path d="M120.815 81.8206C120.003 84.3392 119.382 86.9154 118.958 89.5274C120.765 90.0809 122.527 90.7742 124.228 91.6009C122.421 91.1913 120.565 91.0429 118.716 91.1603C118.007 96.5602 117.057 103.723 118.258 108.82C121.783 107.593 126.414 104.146 129.757 102.012C128.496 100.958 127.197 99.9557 125.861 99.0053C127.797 99.4713 129.697 100.078 131.546 100.82C134.902 98.5078 138.007 95.8494 140.808 92.8883C138.599 91.3374 136.29 89.9347 133.896 88.6893C137.002 88.8274 140.071 89.4242 143.002 90.4605C144.194 89.0435 145.309 87.592 146.346 86.0887L146.856 85.3197C148.134 83.4067 149.303 81.422 150.355 79.3755L148.903 78.667L141.326 75.0038C144.661 74.7878 147.668 75.8677 150.985 76.3084L151.789 76.4293C153.663 71.6261 155.001 66.6309 155.781 61.5342C155.184 61.3614 154.571 61.2059 153.958 61.085C153.344 60.964 152.705 60.8517 152.083 60.7826C152.765 60.5147 153.465 60.2728 154.174 60.0482C154.882 59.8235 155.444 59.6421 156.092 59.4693C156.446 56.8774 156.757 54.0435 157.042 50.9159C153.223 51.9958 149.707 53.0758 146.475 54.3027C146.527 54.9334 146.562 55.5727 146.588 56.2121C146.64 57.3439 146.648 58.4757 146.588 59.6075C146.154 58.7694 145.669 57.9586 145.136 57.1797C144.713 56.5577 144.272 55.9615 143.788 55.374C140.493 56.7373 137.386 58.5172 134.544 60.6702C134.958 61.4219 135.365 62.1822 135.779 62.9425L138.941 68.8003C137.663 67.3229 136.35 65.906 134.915 64.5495C134.138 63.8065 133.343 63.0721 132.531 62.3637C130.291 64.4031 128.327 66.7268 126.69 69.2755C125.691 70.8123 124.779 72.4046 123.96 74.0447L125.688 75.9369C127.07 77.4402 128.444 78.9522 129.818 80.4555L123.666 77.6476L122.534 77.1292C121.878 78.6613 121.302 80.2251 120.806 81.8206" fill="#FCD8FF"/>
<path d="M150.433 58.8818L150.329 59.0114H150.433V58.8818ZM154.943 53.5078L150.623 58.6917C152.456 58.2074 154.362 58.061 156.247 58.2597L156.187 58.7176C154.197 58.5108 152.186 58.6987 150.269 59.2706L150.104 59.3224C149.042 60.6357 147.996 61.9144 146.96 63.2795C149.672 63.1126 152.389 63.5189 154.934 64.4718L155.254 64.5927C155.254 64.7483 155.202 64.9038 155.167 65.0507L154.77 64.9038C152.154 63.9238 149.354 63.5372 146.571 63.772L145.499 65.1716C148.265 65.3287 150.99 65.9116 153.578 66.8996C153.958 67.0465 154.338 67.1933 154.718 67.3575C154.718 67.5044 154.649 67.6599 154.606 67.8154C154.217 67.6426 153.82 67.4871 153.414 67.3402C150.774 66.3246 147.988 65.7411 145.162 65.6122C144.385 66.6317 143.616 67.6513 142.856 68.6708C144.809 69.1341 146.733 69.711 148.618 70.3987C150.211 70.9875 151.771 71.6595 153.293 72.4118C153.241 72.5587 153.189 72.7056 153.146 72.8524C151.619 72.0979 150.056 71.424 148.454 70.8307C146.528 70.1148 144.561 69.5175 142.562 69.0423C140.782 71.4614 139.054 73.9036 137.378 76.3689C139.974 76.8008 142.523 77.4807 144.99 78.3992C146.636 79.0099 148.241 79.7285 149.793 80.5506C149.724 80.6888 149.647 80.827 149.569 80.9566C148.038 80.1417 146.453 79.4316 144.825 78.8312C142.307 77.8979 139.702 77.2149 137.05 76.7922C136.376 77.7685 135.719 78.7535 135.062 79.7384C138.312 79.8394 141.522 80.4728 144.566 81.6133C145.816 82.0777 147.034 82.6232 148.212 83.2462L147.97 83.6436C146.82 83.0338 145.631 82.4998 144.411 82.0452C141.328 80.8962 138.075 80.2685 134.786 80.1877C133.533 82.0712 132.315 83.9633 131.114 85.8727C134.711 86.2997 138.244 87.1554 141.637 88.4215C142.415 88.7066 143.193 89.0176 143.953 89.3546L143.65 89.7261C142.933 89.415 142.208 89.1299 141.482 88.8621C138.04 87.5943 134.457 86.7501 130.812 86.3479C130.233 87.2724 129.663 88.2055 129.084 89.1386C130.155 89.4237 131.218 89.7606 132.255 90.1408C134.902 91.1313 137.417 92.4428 139.745 94.046L139.408 94.383C137.138 92.8189 134.683 91.542 132.099 90.5814C131.029 90.1829 129.939 89.8397 128.833 89.5533C128.254 90.5123 127.675 91.4713 127.105 92.439C129.229 92.6657 131.315 93.1562 133.317 93.8991C134.819 94.4718 136.265 95.1803 137.637 96.0159L137.274 96.3442C135.951 95.5487 134.557 94.8776 133.11 94.3398C131.08 93.5794 128.96 93.0885 126.803 92.8796C126.008 94.2332 125.225 95.5925 124.453 96.9576C126.876 96.9635 129.278 97.4024 131.546 98.2536C132.309 98.5325 133.053 98.8586 133.775 99.2299L133.36 99.5409C132.717 99.2177 132.056 98.9293 131.382 98.677C129.084 97.8163 126.647 97.3886 124.194 97.4156C123.278 99.0398 122.379 100.681 121.498 102.323C123.005 102.309 124.502 102.572 125.913 103.101C126.369 103.266 126.814 103.462 127.243 103.688L126.803 103.982C126.459 103.814 126.107 103.664 125.749 103.533C124.311 102.993 122.782 102.743 121.247 102.798C118.241 108.431 118.889 107.412 116.288 113.244H115.778C118.37 107.343 117.8 108.284 120.833 102.582C120.074 101.313 119.041 100.229 117.809 99.4114C117.809 99.2386 117.809 99.0658 117.809 98.893C119.119 99.7075 120.229 100.806 121.057 102.107C121.939 100.454 122.837 98.8123 123.753 97.1823C122.187 95.629 120.374 94.3472 118.388 93.3894L118.448 92.9055C120.497 93.8792 122.371 95.1841 123.995 96.7676C124.781 95.3679 125.576 93.9855 126.388 92.6031C124.643 90.015 122.263 87.9178 119.476 86.512L119.58 86.0455C122.409 87.4557 124.835 89.5603 126.63 92.1625L128.315 89.3459C125.989 86.9077 123.28 84.8649 120.297 83.298L120.427 82.8488C123.451 84.4078 126.2 86.4507 128.565 88.8967C129.144 87.9463 129.723 87.0045 130.293 86.0628C127.892 83.2406 124.913 80.9662 121.558 79.3928L121.723 78.9522C125.106 80.5392 128.115 82.8241 130.552 85.6567C131.788 83.6868 133.049 81.7256 134.337 79.7902C132.653 75.6701 130.091 71.9668 126.829 68.9386L127.088 68.5498C130.348 71.5607 132.925 75.2342 134.648 79.3237L136.566 76.4898C134.772 72.4902 132.309 68.8261 129.282 65.6554C129.377 65.5345 129.481 65.4135 129.585 65.3012C132.595 68.4549 135.059 72.0871 136.877 76.0492C138.553 73.6127 140.267 71.2051 142.018 68.8263C140.684 65.3477 138.719 62.146 136.22 59.3829L136.609 59.1237C139.058 61.8447 141 64.9813 142.346 68.3856C143.115 67.3402 143.901 66.3034 144.687 65.2753C143.847 62.2092 142.3 59.3831 140.169 57.0242L140.592 56.8082C142.653 59.1103 144.173 61.8437 145.041 64.8087L146.052 63.4955C145.213 60.7996 143.915 58.2686 142.216 56.0134L142.648 55.8147C144.281 58.0097 145.547 60.4548 146.398 63.0549C147.55 61.5746 148.702 60.1115 149.854 58.6658C149.855 56.8443 149.611 55.0309 149.128 53.2745L149.56 53.1277C150.019 54.7481 150.269 56.4205 150.303 58.1042C150.606 57.7327 154.165 53.4992 154.468 53.1277C154.511 53.0844 154.57 53.0601 154.632 53.0601C154.693 53.0601 154.752 53.0844 154.796 53.1277C154.833 53.1343 154.867 53.15 154.896 53.1732C154.925 53.1965 154.948 53.2265 154.963 53.2608C154.977 53.2951 154.983 53.3325 154.98 53.3695C154.976 53.4066 154.963 53.4423 154.943 53.4733V53.5078Z" fill="#F8B4FF"/>
<path d="M128.09 27.5105H56.3877V121.901H128.09V27.5105Z" fill="#F2B1FC"/>
<path d="M126.111 29.0311H58.1416V121.901H126.111V29.0311Z" fill="white"/>
<path d="M71.4472 60.653H64.2156C63.973 60.6546 63.7406 60.7507 63.5676 60.9208C63.3975 61.0938 63.3014 61.3262 63.2998 61.5688V68.8003C63.3005 69.0431 63.3967 69.2759 63.5676 69.4483C63.7406 69.6184 63.973 69.7145 64.2156 69.7162H71.4472C71.69 69.7154 71.9227 69.6192 72.0952 69.4483C72.2661 69.2759 72.3623 69.0431 72.363 68.8003V61.5688C72.3577 61.4462 72.3282 61.3259 72.2764 61.2147C72.2245 61.1035 72.1512 61.0036 72.0606 60.9208C71.8882 60.7499 71.6554 60.6537 71.4126 60.653M64.1811 59.5557H71.4126C71.6779 59.5558 71.9405 59.6085 72.1852 59.7109C72.4299 59.8132 72.6519 59.9631 72.8382 60.1518C73.0248 60.3376 73.1727 60.5584 73.2735 60.8016C73.3744 61.0448 73.4261 61.3055 73.4257 61.5688V68.8003C73.4259 69.3345 73.2147 69.847 72.8382 70.2259C72.4588 70.6016 71.9466 70.8127 71.4126 70.8134H64.1811C63.9178 70.8138 63.6571 70.7621 63.4139 70.6612C63.1707 70.5604 62.9499 70.4125 62.7641 70.2259C62.5746 70.0401 62.4242 69.8183 62.3218 69.5734C62.2194 69.3286 62.1671 69.0657 62.168 68.8003V61.5688C62.1673 61.3047 62.2197 61.0432 62.3221 60.7998C62.4245 60.5563 62.5749 60.336 62.7641 60.1518C62.9523 59.9583 63.1782 59.8056 63.4279 59.703C63.6776 59.6004 63.9457 59.5503 64.2156 59.5557H64.1811Z" fill="#373A5C"/>
<path fill-rule="evenodd" clip-rule="evenodd" d="M78.7136 59.9272H92.4682C92.6974 59.9272 92.9171 60.0183 93.0791 60.1803C93.2412 60.3423 93.3322 60.5621 93.3322 60.7912C93.3322 61.0204 93.2412 61.2401 93.0791 61.4022C92.9171 61.5642 92.6974 61.6552 92.4682 61.6552H78.7136C78.4845 61.6552 78.2647 61.5642 78.1027 61.4022C77.9406 61.2401 77.8496 61.0204 77.8496 60.7912C77.8496 60.5621 77.9406 60.3423 78.1027 60.1803C78.2647 60.0183 78.4845 59.9272 78.7136 59.9272Z" fill="#373A5C"/>
<path d="M71.2834 76.0319H64.1815C64.0628 76.0289 63.9448 76.0503 63.8348 76.0949C63.7248 76.1395 63.6252 76.2063 63.5422 76.2911C63.4558 76.3734 63.3874 76.4727 63.3413 76.5827C63.2952 76.6928 63.2724 76.8112 63.2743 76.9304V84.041C63.2764 84.281 63.3726 84.5106 63.5422 84.6804C63.7143 84.8453 63.9431 84.938 64.1815 84.9396H71.2834C71.4021 84.9426 71.5201 84.9212 71.6301 84.8766C71.7401 84.832 71.8398 84.7652 71.9228 84.6804C72.0924 84.5106 72.1886 84.281 72.1907 84.041V76.9304C72.1926 76.8112 72.1697 76.6928 72.1236 76.5827C72.0775 76.4727 72.0092 76.3734 71.9228 76.2911C71.8398 76.2063 71.7401 76.1395 71.6301 76.0949C71.5201 76.0503 71.4021 76.0289 71.2834 76.0319ZM64.1815 74.9519H71.2834C71.5435 74.9508 71.8011 75.0014 72.0414 75.1008C72.2817 75.2002 72.4998 75.3463 72.6831 75.5308C72.8687 75.7136 73.0162 75.9315 73.1171 76.1718C73.2179 76.412 73.2701 76.6699 73.2706 76.9304V84.041C73.2701 84.3016 73.2179 84.5595 73.1171 84.7997C73.0162 85.04 72.8687 85.2579 72.6831 85.4407C72.3112 85.8109 71.8081 86.019 71.2834 86.0196H64.1815C63.9215 86.0202 63.664 85.9694 63.4238 85.87C63.1836 85.7707 62.9654 85.6248 62.7818 85.4407C62.5962 85.2579 62.4487 85.04 62.3478 84.7997C62.247 84.5595 62.1948 84.3016 62.1943 84.041V76.9304C62.1948 76.6699 62.247 76.412 62.3478 76.1718C62.4487 75.9315 62.5962 75.7136 62.7818 75.5308C62.9654 75.3467 63.1836 75.2008 63.4238 75.1014C63.664 75.0021 63.9215 74.9513 64.1815 74.9519Z" fill="#373A5C"/>
<path fill-rule="evenodd" clip-rule="evenodd" d="M66.7121 81.5009L70.4014 78.045C70.4666 77.9781 70.5445 77.925 70.6305 77.8887C70.7166 77.8524 70.809 77.8337 70.9024 77.8337C70.9958 77.8337 71.0883 77.8524 71.1744 77.8887C71.2604 77.925 71.3384 77.9781 71.4036 78.045C71.4704 78.1102 71.5236 78.1881 71.5599 78.2742C71.5962 78.3602 71.6149 78.4527 71.6149 78.5461C71.6149 78.6395 71.5962 78.732 71.5599 78.818C71.5236 78.9041 71.4704 78.982 71.4036 79.0472L67.1701 82.9956C67.0272 83.1177 66.8422 83.1788 66.6548 83.1659C66.4674 83.153 66.2925 83.067 66.1678 82.9265L64.1288 80.5937C64.0062 80.4495 63.9448 80.2631 63.9577 80.0743C63.9707 79.8854 64.0569 79.7091 64.1979 79.5829C64.3408 79.4608 64.5257 79.3997 64.7132 79.4126C64.9006 79.4256 65.0754 79.5115 65.2001 79.652L66.7121 81.5009Z" fill="#FA98FF"/>
<path fill-rule="evenodd" clip-rule="evenodd" d="M78.7136 64.3163H120.444C120.673 64.3163 120.893 64.4073 121.055 64.5693C121.217 64.7314 121.308 64.9511 121.308 65.1802C121.308 65.4094 121.217 65.6291 121.055 65.7912C120.893 65.9532 120.673 66.0442 120.444 66.0442H78.7136C78.4845 66.0442 78.2647 65.9532 78.1027 65.7912C77.9406 65.6291 77.8496 65.4094 77.8496 65.1802C77.8496 64.9511 77.9406 64.7314 78.1027 64.5693C78.2647 64.4073 78.4845 64.3163 78.7136 64.3163Z" fill="#373A5C"/>
<path fill-rule="evenodd" clip-rule="evenodd" d="M78.7136 68.6967H120.444C120.673 68.6967 120.893 68.7877 121.055 68.9497C121.217 69.1118 121.308 69.3315 121.308 69.5607C121.308 69.7898 121.217 70.0096 121.055 70.1716C120.893 70.3336 120.673 70.4247 120.444 70.4247H78.7136C78.4845 70.4247 78.2647 70.3336 78.1027 70.1716C77.9406 70.0096 77.8496 69.7898 77.8496 69.5607C77.8496 69.3315 77.9406 69.1118 78.1027 68.9497C78.2647 68.7877 78.4845 68.6967 78.7136 68.6967Z" fill="#373A5C"/>
<path fill-rule="evenodd" clip-rule="evenodd" d="M78.7136 75.0383H92.4682C92.6974 75.0383 92.9171 75.1294 93.0791 75.2914C93.2412 75.4534 93.3322 75.6732 93.3322 75.9023C93.3322 76.1315 93.2412 76.3512 93.0791 76.5132C92.9171 76.6753 92.6974 76.7663 92.4682 76.7663H78.7136C78.4845 76.7663 78.2647 76.6753 78.1027 76.5132C77.9406 76.3512 77.8496 76.1315 77.8496 75.9023C77.8496 75.6732 77.9406 75.4534 78.1027 75.2914C78.2647 75.1294 78.4845 75.0383 78.7136 75.0383Z" fill="#373A5C"/>
<path fill-rule="evenodd" clip-rule="evenodd" d="M78.7136 79.4274H120.444C120.673 79.4274 120.893 79.5184 121.055 79.6804C121.217 79.8425 121.308 80.0622 121.308 80.2914C121.308 80.5205 121.217 80.7403 121.055 80.9023C120.893 81.0643 120.673 81.1553 120.444 81.1553H78.7136C78.4845 81.1553 78.2647 81.0643 78.1027 80.9023C77.9406 80.7403 77.8496 80.5205 77.8496 80.2914C77.8496 80.0622 77.9406 79.8425 78.1027 79.6804C78.2647 79.5184 78.4845 79.4274 78.7136 79.4274Z" fill="#373A5C"/>
<path fill-rule="evenodd" clip-rule="evenodd" d="M78.7136 83.8164H120.444C120.673 83.8164 120.893 83.9074 121.055 84.0695C121.217 84.2315 121.308 84.4512 121.308 84.6804C121.308 84.9095 121.217 85.1293 121.055 85.2913C120.893 85.4534 120.673 85.5444 120.444 85.5444H78.7136C78.4845 85.5444 78.2647 85.4534 78.1027 85.2913C77.9406 85.1293 77.8496 84.9095 77.8496 84.6804C77.8496 84.4512 77.9406 84.2315 78.1027 84.0695C78.2647 83.9074 78.4845 83.8164 78.7136 83.8164Z" fill="#373A5C"/>
<path fill-rule="evenodd" clip-rule="evenodd" d="M66.7121 66.3207L70.4014 62.8648C70.4666 62.7979 70.5445 62.7447 70.6305 62.7084C70.7166 62.6721 70.809 62.6534 70.9024 62.6534C70.9958 62.6534 71.0883 62.6721 71.1744 62.7084C71.2604 62.7447 71.3384 62.7979 71.4036 62.8648C71.4704 62.93 71.5236 63.0079 71.5599 63.094C71.5962 63.18 71.6149 63.2725 71.6149 63.3659C71.6149 63.4593 71.5962 63.5517 71.5599 63.6378C71.5236 63.7239 71.4704 63.8018 71.4036 63.867L67.1701 67.8154C67.0272 67.9374 66.8422 67.9986 66.6548 67.9857C66.4674 67.9727 66.2925 67.8868 66.1678 67.7463L64.1288 65.4135C64.0062 65.2693 63.9448 65.0829 63.9577 64.894C63.9707 64.7052 64.0569 64.5289 64.1979 64.4027C64.3408 64.2806 64.5257 64.2195 64.7132 64.2324C64.9006 64.2453 65.0754 64.3313 65.2001 64.4718L66.7121 66.3207Z" fill="#FA98FF"/>
<path fill-rule="evenodd" clip-rule="evenodd" d="M67.7402 105.589C69.1632 105.589 70.5278 106.154 71.534 107.16C72.5402 108.167 73.1055 109.531 73.1055 110.954C73.1067 111.66 72.9687 112.358 72.6996 113.01C72.4305 113.662 72.0354 114.255 71.5371 114.754C71.0388 115.253 70.4469 115.649 69.7954 115.919C69.1439 116.189 68.4455 116.328 67.7402 116.328C66.3149 116.328 64.948 115.762 63.9402 114.754C62.9324 113.746 62.3662 112.379 62.3662 110.954C62.3685 109.53 62.9357 108.166 63.9433 107.16C64.9508 106.154 66.3164 105.589 67.7402 105.589Z" fill="#FA98FF"/>
<path d="M70.2374 111.896H68.9846C68.9527 111.895 68.9209 111.901 68.8913 111.913C68.8616 111.925 68.8346 111.943 68.8118 111.965C68.7862 111.989 68.766 112.019 68.7526 112.052C68.7392 112.085 68.7329 112.12 68.7341 112.155V113.425C68.7337 113.492 68.7092 113.556 68.665 113.607C68.6426 113.633 68.6147 113.653 68.5832 113.667C68.5518 113.68 68.5177 113.686 68.4835 113.684H66.9802C66.9474 113.685 66.9147 113.679 66.8848 113.665C66.8548 113.652 66.8284 113.632 66.8074 113.607C66.7828 113.583 66.7633 113.555 66.7499 113.524C66.7365 113.493 66.7296 113.459 66.7296 113.425V112.155C66.7306 112.085 66.706 112.018 66.6605 111.965C66.6086 111.918 66.5404 111.893 66.4705 111.896H65.2349C65.165 111.899 65.0968 111.874 65.0449 111.827C65.0203 111.803 65.0007 111.775 64.9874 111.744C64.974 111.713 64.9671 111.679 64.9671 111.645V110.211C64.9654 110.177 64.9715 110.143 64.985 110.111C64.9984 110.08 65.0189 110.052 65.0449 110.03C65.0693 110.005 65.0991 109.985 65.132 109.974C65.1649 109.962 65.2001 109.957 65.2349 109.961H66.4705C66.5059 109.962 66.5413 109.956 66.5741 109.943C66.607 109.929 66.6365 109.909 66.6605 109.883C66.7047 109.833 66.7293 109.768 66.7296 109.701V108.44C66.7279 108.405 66.7339 108.369 66.7474 108.336C66.7608 108.303 66.7813 108.274 66.8074 108.25C66.8302 108.228 66.8572 108.21 66.8869 108.198C66.9166 108.186 66.9482 108.18 66.9802 108.181H68.4835C68.5168 108.18 68.5501 108.185 68.5812 108.197C68.6124 108.209 68.6408 108.227 68.665 108.25C68.712 108.302 68.7368 108.37 68.7341 108.44V109.719C68.7341 109.753 68.741 109.786 68.7543 109.817C68.7677 109.849 68.7873 109.877 68.8118 109.9C68.8328 109.925 68.8593 109.946 68.8892 109.959C68.9192 109.972 68.9518 109.979 68.9846 109.978H70.2374C70.2723 109.974 70.3074 109.979 70.3403 109.991C70.3732 110.003 70.403 110.022 70.4275 110.047C70.4505 110.071 70.4684 110.1 70.4803 110.131C70.4922 110.162 70.4977 110.195 70.4966 110.228V111.663C70.4963 111.73 70.4717 111.794 70.4275 111.844C70.3756 111.891 70.3074 111.916 70.2374 111.913" fill="white"/>
<path fill-rule="evenodd" clip-rule="evenodd" d="M78.7136 108.207H88.0014C88.2306 108.207 88.4503 108.298 88.6124 108.46C88.7744 108.622 88.8654 108.842 88.8654 109.071C88.8654 109.3 88.7744 109.52 88.6124 109.682C88.4503 109.844 88.2306 109.935 88.0014 109.935H78.7136C78.4845 109.935 78.2647 109.844 78.1027 109.682C77.9406 109.52 77.8496 109.3 77.8496 109.071C77.8496 108.842 77.9406 108.622 78.1027 108.46C78.2647 108.298 78.4845 108.207 78.7136 108.207Z" fill="#373A5C"/>
<path fill-rule="evenodd" clip-rule="evenodd" d="M78.7136 112.596H103.907C104.137 112.596 104.356 112.687 104.518 112.849C104.68 113.011 104.771 113.231 104.771 113.46C104.771 113.689 104.68 113.909 104.518 114.071C104.356 114.233 104.137 114.324 103.907 114.324H78.7136C78.4845 114.324 78.2647 114.233 78.1027 114.071C77.9406 113.909 77.8496 113.689 77.8496 113.46C77.8496 113.231 77.9406 113.011 78.1027 112.849C78.2647 112.687 78.4845 112.596 78.7136 112.596Z" fill="#373A5C"/>
<path fill-rule="evenodd" clip-rule="evenodd" d="M65.6069 36.8329H118.854C119.042 36.8329 119.222 36.9075 119.355 37.0404C119.488 37.1733 119.563 37.3535 119.563 37.5414V52.0649C119.563 52.2528 119.488 52.4331 119.355 52.5659C119.222 52.6988 119.042 52.7734 118.854 52.7734H65.6069C65.419 52.7734 65.2388 52.6988 65.1059 52.5659C64.9731 52.4331 64.8984 52.2528 64.8984 52.0649V37.5414C64.8984 37.3535 64.9731 37.1733 65.1059 37.0404C65.2388 36.9075 65.419 36.8329 65.6069 36.8329Z" fill="#373A5C"/>
<path d="M111.095 44.0472V44.315C111.094 44.3357 111.098 44.3564 111.105 44.3758C111.112 44.3951 111.124 44.4127 111.139 44.4273C111.172 44.4399 111.209 44.4399 111.242 44.4273H112.97C112.991 44.4249 113.012 44.4276 113.032 44.4351C113.051 44.4426 113.069 44.4548 113.083 44.4705C113.091 44.488 113.095 44.5072 113.095 44.5267C113.095 44.5461 113.091 44.5653 113.083 44.5828V45.4468C113.097 45.4828 113.097 45.5232 113.083 45.5592C113.046 45.5724 113.006 45.5724 112.97 45.5592H111.242C111.203 45.5592 111.166 45.5748 111.139 45.6023C111.123 45.6162 111.111 45.6336 111.103 45.6532C111.096 45.6728 111.093 45.6938 111.095 45.7147V45.9566C111.093 45.9761 111.095 45.996 111.103 46.0142C111.111 46.0324 111.123 46.0483 111.139 46.0603C111.15 46.0769 111.166 46.0903 111.184 46.0994C111.202 46.1085 111.222 46.1128 111.242 46.1121H113.238C113.274 46.0972 113.314 46.0972 113.35 46.1121C113.378 46.1396 113.394 46.1769 113.394 46.2158V47.0798C113.394 47.1187 113.378 47.156 113.35 47.1834C113.336 47.1993 113.319 47.2121 113.3 47.221C113.28 47.2299 113.259 47.2348 113.238 47.2353H109.972C109.952 47.2347 109.933 47.2297 109.915 47.2208C109.897 47.2118 109.881 47.1991 109.869 47.1834C109.86 47.1674 109.856 47.1497 109.856 47.1316C109.856 47.1136 109.86 47.0958 109.869 47.0798V42.6907C109.86 42.6747 109.856 42.6569 109.856 42.6389C109.856 42.6208 109.86 42.603 109.869 42.587C109.881 42.5714 109.897 42.5587 109.915 42.5497C109.933 42.5408 109.952 42.5358 109.972 42.5352H113.238C113.259 42.5357 113.28 42.5406 113.3 42.5495C113.319 42.5584 113.336 42.5712 113.35 42.587C113.378 42.6145 113.394 42.6518 113.394 42.6907V43.5547C113.392 43.596 113.377 43.6356 113.35 43.667C113.319 43.6938 113.279 43.709 113.238 43.7102H111.242C111.209 43.6976 111.172 43.6976 111.139 43.7102C111.124 43.7248 111.112 43.7424 111.105 43.7618C111.098 43.7811 111.094 43.8018 111.095 43.8225M109.367 45.9393C109.246 46.1329 109.107 46.3151 108.953 46.4836C108.808 46.6471 108.639 46.787 108.452 46.8983C108.258 47.0168 108.049 47.107 107.83 47.1662C107.588 47.2344 107.337 47.2664 107.086 47.2612C106.754 47.265 106.425 47.2003 106.119 47.0711C105.828 46.9456 105.562 46.7702 105.333 46.5527C105.108 46.3334 104.929 46.0722 104.806 45.7838C104.677 45.4865 104.613 45.1658 104.615 44.8421C104.612 44.5183 104.677 44.1973 104.806 43.9003C104.929 43.6119 105.108 43.3506 105.333 43.1314C105.558 42.9082 105.825 42.732 106.119 42.613C106.424 42.4809 106.754 42.4132 107.086 42.4142C107.343 42.4128 107.599 42.4447 107.847 42.5093C108.064 42.5713 108.27 42.6644 108.46 42.7858C108.646 42.8995 108.815 43.0391 108.961 43.2005C109.11 43.3713 109.246 43.5533 109.367 43.7448C109.376 43.7608 109.38 43.7786 109.38 43.7966C109.38 43.8147 109.376 43.8324 109.367 43.8485C109.364 43.8686 109.354 43.8873 109.341 43.9025C109.327 43.9177 109.309 43.9289 109.29 43.9349L108.348 44.5051C108.306 44.5219 108.26 44.5219 108.218 44.5051C108.178 44.4917 108.144 44.464 108.123 44.4273C108.01 44.2425 107.857 44.0859 107.674 43.9694C107.482 43.8615 107.264 43.8077 107.043 43.8139C106.885 43.8124 106.728 43.8479 106.585 43.9176C106.442 43.9846 106.313 44.0784 106.205 44.1941C106.097 44.3094 106.012 44.4443 105.955 44.5915C105.896 44.737 105.867 44.8926 105.868 45.0494C105.866 45.2091 105.895 45.3677 105.955 45.516C106.014 45.6594 106.099 45.7911 106.205 45.9047C106.313 46.0178 106.443 46.1087 106.585 46.1726C106.728 46.2423 106.885 46.2778 107.043 46.2762C107.265 46.2803 107.483 46.2235 107.674 46.1121C107.858 46.0023 108.015 45.8515 108.132 45.6715C108.152 45.6372 108.182 45.61 108.218 45.5937C108.239 45.5849 108.261 45.5804 108.283 45.5804C108.305 45.5804 108.327 45.5849 108.348 45.5937L109.255 45.948C109.275 45.9539 109.292 45.9651 109.306 45.9803C109.32 45.9955 109.329 46.0142 109.333 46.0343C109.347 46.0525 109.356 46.074 109.359 46.0968C109.362 46.1196 109.359 46.1428 109.35 46.164L109.367 45.9393ZM103.872 42.6389V47.0279C103.885 47.0613 103.885 47.0982 103.872 47.1316C103.858 47.1475 103.841 47.1603 103.822 47.1692C103.802 47.1781 103.781 47.1829 103.76 47.1834H102.81C102.764 47.1798 102.719 47.1649 102.68 47.1402C102.636 47.121 102.598 47.0914 102.568 47.0539L100.9 44.6952C100.9 44.6952 100.848 44.652 100.823 44.6952C100.797 44.7384 100.779 44.6952 100.779 44.7643V47.0625C100.792 47.0959 100.792 47.1327 100.779 47.1662C100.765 47.182 100.748 47.1948 100.729 47.2037C100.709 47.2126 100.688 47.2175 100.667 47.218H99.7081C99.6868 47.2175 99.6658 47.2126 99.6465 47.2037C99.6272 47.1948 99.6099 47.182 99.5957 47.1662C99.5831 47.1327 99.5831 47.0959 99.5957 47.0625V42.6734C99.5831 42.64 99.5831 42.6032 99.5957 42.5698C99.6099 42.5539 99.6272 42.5411 99.6465 42.5322C99.6658 42.5233 99.6868 42.5184 99.7081 42.5179H100.572C100.621 42.5216 100.668 42.5363 100.71 42.5611C100.752 42.5799 100.788 42.6098 100.814 42.6475L102.481 44.9976C102.481 44.9976 102.533 45.0494 102.568 44.9976C102.602 44.9457 102.568 44.9976 102.568 44.9284V42.6302C102.567 42.61 102.571 42.5899 102.581 42.5718C102.59 42.5537 102.603 42.5381 102.62 42.5266C102.631 42.5099 102.647 42.4965 102.665 42.4874C102.683 42.4784 102.703 42.474 102.723 42.4747H103.674C103.695 42.4752 103.716 42.4801 103.735 42.489C103.755 42.4979 103.772 42.5107 103.786 42.5266C103.831 42.5174 103.877 42.5264 103.915 42.5515C103.953 42.5766 103.98 42.6158 103.989 42.6605C103.998 42.7052 103.989 42.7516 103.964 42.7897C103.939 42.8278 103.9 42.8544 103.855 42.8635L103.872 42.6389ZM96.1916 45.4209H96.7619C96.7619 45.4209 96.8396 45.4209 96.8569 45.3777C96.8674 45.3641 96.8731 45.3474 96.8731 45.3302C96.8731 45.313 96.8674 45.2963 96.8569 45.2827L96.71 44.9112L96.5372 44.5051C96.5372 44.5051 96.5372 44.4533 96.4854 44.4533C96.4336 44.4533 96.4854 44.4532 96.4249 44.5051L96.1052 45.2827C96.0969 45.2971 96.0925 45.3135 96.0925 45.3302C96.0925 45.3469 96.0969 45.3633 96.1052 45.3777C96.1052 45.3777 96.1225 45.6456 96.1743 45.6456L96.1916 45.4209ZM95.8115 42.6389C95.8273 42.5953 95.8579 42.5586 95.8979 42.5352C95.9365 42.5095 95.9812 42.4946 96.0275 42.492H96.8915C96.9377 42.4946 96.9825 42.5095 97.0211 42.5352C97.0588 42.5612 97.0887 42.5971 97.1074 42.6389L98.9737 46.9588C98.9843 46.9772 98.9899 46.9981 98.9899 47.0193C98.9899 47.0405 98.9843 47.0614 98.9737 47.0798C98.9601 47.1038 98.9397 47.1231 98.9151 47.1355C98.8905 47.1478 98.8627 47.1524 98.8354 47.1489H97.7381C97.6919 47.1463 97.6471 47.1314 97.6086 47.1057C97.5708 47.0797 97.5409 47.0438 97.5221 47.002L97.3407 46.6219C97.322 46.5801 97.2921 46.5442 97.2543 46.5182C97.2158 46.4924 97.171 46.4775 97.1247 46.475H95.7769C95.7277 46.4759 95.6797 46.4909 95.6387 46.5182C95.6009 46.5442 95.5711 46.5801 95.5523 46.6219L95.3795 47.002C95.3607 47.0438 95.3308 47.0797 95.2931 47.1057C95.2545 47.1314 95.2098 47.1463 95.1635 47.1489H94.0662H93.9971H93.9366C93.928 47.1267 93.928 47.102 93.9366 47.0798C93.9309 47.0661 93.928 47.0514 93.928 47.0366C93.928 47.0217 93.9309 47.0071 93.9366 46.9934L95.8115 42.6389ZM91.146 44.652H91.8199H91.984C92.0375 44.6316 92.0871 44.6024 92.1309 44.5656C92.1805 44.5217 92.2215 44.4689 92.2519 44.4101C92.2658 44.3416 92.2658 44.2711 92.2519 44.2027C92.2589 44.1511 92.2589 44.0988 92.2519 44.0472C92.2384 43.9874 92.2119 43.9313 92.1741 43.883C92.1385 43.8246 92.0877 43.7768 92.0272 43.7448C91.9584 43.7075 91.8808 43.6896 91.8026 43.6929H91.1287C91.0922 43.6811 91.0529 43.6811 91.0164 43.6929C90.9896 43.7244 90.9744 43.764 90.9732 43.8053V44.4792C90.9728 44.5207 90.9883 44.5609 91.0164 44.5915C90.9976 44.5989 90.9805 44.6098 90.9661 44.6238C90.9516 44.6378 90.94 44.6545 90.932 44.6729C90.9158 44.7102 90.9151 44.7524 90.93 44.7902C90.9449 44.828 90.9741 44.8584 91.0114 44.8746C91.0487 44.8908 91.0909 44.8915 91.1287 44.8766L91.146 44.652ZM90.8349 47.1834H89.8586C89.8373 47.1829 89.8164 47.1781 89.7971 47.1692C89.7777 47.1603 89.7605 47.1475 89.7463 47.1316C89.7187 47.1041 89.7032 47.0669 89.7031 47.0279V42.6389C89.7032 42.6 89.7187 42.5627 89.7463 42.5352C89.7605 42.5193 89.7777 42.5065 89.7971 42.4976C89.8164 42.4887 89.8373 42.4839 89.8586 42.4834H91.8544C92.0883 42.4799 92.3206 42.524 92.537 42.613C92.7365 42.6918 92.9185 42.8093 93.0727 42.9585C93.2228 43.1119 93.3404 43.2942 93.4182 43.4942C93.5072 43.7106 93.5513 43.9428 93.5478 44.1768C93.5467 44.3137 93.5293 44.45 93.496 44.5828C93.4629 44.7139 93.4166 44.8413 93.3578 44.963C93.3007 45.0769 93.2311 45.1841 93.1504 45.2827C93.0711 45.3769 92.9779 45.4585 92.874 45.5246C92.841 45.5477 92.8167 45.5812 92.8048 45.6196C92.7971 45.6358 92.7932 45.6535 92.7932 45.6715C92.7932 45.6894 92.7971 45.7071 92.8048 45.7233C92.9603 45.9393 93.1331 46.1553 93.3145 46.3886C93.496 46.6218 93.6515 46.8206 93.7984 47.0106C93.8068 47.0282 93.8112 47.0474 93.8112 47.0668C93.8112 47.0862 93.8068 47.1054 93.7984 47.123C93.7915 47.1404 93.7797 47.1555 93.7644 47.1663C93.749 47.177 93.7308 47.183 93.712 47.1834H92.5197C92.4739 47.1904 92.4273 47.1904 92.3815 47.1834C92.3386 47.1589 92.3005 47.1266 92.2692 47.0884L91.8631 46.5441C91.7335 46.3626 91.5952 46.1812 91.4657 45.9911C91.4371 45.9558 91.4019 45.9264 91.362 45.9047C91.3166 45.8937 91.2691 45.8937 91.2237 45.9047H91.0855C91.0442 45.9059 91.0046 45.9212 90.9732 45.948C90.9451 45.9786 90.9296 46.0187 90.93 46.0603V47.097C90.9426 47.1305 90.9426 47.1673 90.93 47.2007C90.9419 47.2212 90.9483 47.2444 90.9486 47.268C90.9489 47.2917 90.9432 47.3151 90.9319 47.3359C90.9206 47.3567 90.9042 47.3742 90.8842 47.3869C90.8642 47.3995 90.8413 47.4068 90.8177 47.4081L90.8349 47.1834ZM84.6661 42.6475C84.6542 42.611 84.6542 42.5717 84.6661 42.5352C84.6967 42.5071 84.7368 42.4917 84.7784 42.492H85.7374C85.7787 42.4932 85.8183 42.5084 85.8497 42.5352C85.8616 42.5717 85.8616 42.611 85.8497 42.6475V45.2395C85.8444 45.379 85.8709 45.5179 85.9275 45.6456C85.9721 45.7466 86.0402 45.8355 86.1262 45.9047C86.2032 45.9647 86.2913 46.0088 86.3854 46.0343C86.4657 46.0457 86.5471 46.0457 86.6273 46.0343C86.7075 46.0457 86.789 46.0457 86.8692 46.0343C86.9608 46.0088 87.0461 45.9647 87.1198 45.9047C87.2058 45.8355 87.2739 45.7466 87.3185 45.6456C87.375 45.5179 87.4016 45.379 87.3963 45.2395V42.6475C87.3844 42.611 87.3844 42.5717 87.3963 42.5352C87.4277 42.5084 87.4673 42.4932 87.5086 42.492H88.4762C88.515 42.493 88.5519 42.5084 88.5799 42.5352C88.5918 42.5717 88.5918 42.611 88.5799 42.6475V45.2395C88.5856 45.5193 88.5387 45.7977 88.4417 46.0603C88.348 46.2992 88.2069 46.5167 88.027 46.6996C87.8404 46.8771 87.62 47.0152 87.379 47.1057C87.1023 47.2059 86.8091 47.2528 86.515 47.2439C86.2208 47.2528 85.9277 47.2059 85.651 47.1057C85.4099 47.0152 85.1896 46.8771 85.003 46.6996C84.8202 46.5189 84.6788 46.3008 84.5883 46.0603C84.4884 45.7983 84.4385 45.5199 84.4414 45.2395L84.6661 42.6475ZM80.8386 45.5678C81.0522 45.7109 81.2812 45.8297 81.5212 45.922C81.7246 46.0039 81.9413 46.0478 82.1605 46.0516C82.3058 46.0594 82.4508 46.0327 82.5839 45.9739C82.6308 45.9534 82.6706 45.9195 82.6982 45.8764C82.7259 45.8334 82.7402 45.7831 82.7394 45.732C82.7412 45.706 82.7357 45.6801 82.7234 45.6572C82.7112 45.6343 82.6928 45.6153 82.6703 45.6023C82.6184 45.5633 82.5598 45.5341 82.4975 45.516L82.2555 45.4641L81.9618 45.4209L81.6335 45.3518C81.5016 45.3304 81.3716 45.2986 81.2447 45.2568C81.112 45.2064 80.9822 45.1487 80.8559 45.084C80.7257 45.0155 80.6064 44.9281 80.5017 44.8248C80.3983 44.7108 80.3163 44.5791 80.2597 44.436C80.1945 44.2711 80.1622 44.0949 80.1647 43.9176C80.1574 43.6619 80.217 43.4088 80.3375 43.1832C80.4447 42.9968 80.596 42.8395 80.7782 42.7253C80.9574 42.611 81.1568 42.5318 81.3657 42.492C81.5761 42.4486 81.7902 42.4254 82.005 42.4229C82.3341 42.4183 82.6615 42.4709 82.9727 42.5784C83.2644 42.6904 83.538 42.8447 83.7848 43.0363C83.8163 43.0665 83.8374 43.1058 83.8453 43.1486C83.8578 43.185 83.8578 43.2246 83.8453 43.2609L83.3442 43.9781C83.3185 44.0106 83.2815 44.0322 83.2405 44.0385C83.223 44.047 83.2038 44.0513 83.1843 44.0513C83.1649 44.0513 83.1457 44.047 83.1282 44.0385C82.9394 43.9162 82.7362 43.8176 82.5234 43.7448C82.3523 43.6929 82.1751 43.6638 81.9964 43.6584H81.8408C81.7807 43.6494 81.7195 43.6494 81.6594 43.6584C81.6074 43.6668 81.5592 43.6909 81.5212 43.7275C81.4868 43.7652 81.4682 43.8147 81.4693 43.8657C81.4735 43.9025 81.4879 43.9373 81.5108 43.9663C81.5337 43.9953 81.5642 44.0173 81.5989 44.0299C81.6999 44.0769 81.8038 44.1173 81.91 44.1509L82.2469 44.2286H82.4456C82.6178 44.2658 82.788 44.312 82.9554 44.3668C83.1405 44.422 83.3156 44.5066 83.4738 44.6174C83.6365 44.7375 83.7719 44.8906 83.8712 45.0667C83.9889 45.2742 84.0458 45.5108 84.0353 45.7492C84.0409 45.975 83.9967 46.1992 83.9058 46.4059C83.8208 46.5888 83.6898 46.7466 83.5256 46.8638C83.3574 46.9937 83.1628 47.0852 82.9554 47.1316C82.7097 47.1932 82.457 47.2222 82.2037 47.218C81.9952 47.2195 81.787 47.2022 81.5817 47.1662C81.398 47.1337 81.2184 47.0816 81.046 47.0106C80.8841 46.9498 80.7279 46.8746 80.5794 46.786C80.4422 46.7009 80.3095 46.6086 80.182 46.5095C80.1668 46.4967 80.1543 46.4809 80.1454 46.463C80.1365 46.4452 80.1313 46.4258 80.1302 46.4059C80.1216 46.3869 80.1171 46.3662 80.1171 46.3454C80.1171 46.3245 80.1216 46.3039 80.1302 46.2849L80.6226 45.5764C80.6474 45.5413 80.6844 45.5167 80.7263 45.5073C80.7563 45.5132 80.7841 45.527 80.8071 45.5472C80.83 45.5673 80.8472 45.5932 80.8568 45.6222C80.8665 45.6512 80.8683 45.6822 80.8621 45.7121C80.8558 45.742 80.8418 45.7697 80.8213 45.7924L80.8386 45.5678ZM79.3439 42.6389V47.0279C79.3565 47.0613 79.3565 47.0982 79.3439 47.1316C79.3297 47.1475 79.3124 47.1603 79.2931 47.1692C79.2738 47.1781 79.2529 47.1829 79.2316 47.1834H78.2899C78.2408 47.1812 78.1932 47.1663 78.1516 47.1402C78.1117 47.1185 78.0765 47.0892 78.0479 47.0539L76.3718 44.6952C76.3718 44.6952 76.32 44.652 76.2941 44.6952C76.2682 44.7384 76.2508 44.6952 76.2508 44.7643V47.0625C76.2634 47.0959 76.2634 47.1327 76.2508 47.1662C76.2374 47.1829 76.2203 47.1964 76.2008 47.2054C76.1813 47.2144 76.16 47.2187 76.1385 47.218H75.1795C75.1582 47.2175 75.1373 47.2126 75.118 47.2037C75.0986 47.1948 75.0814 47.182 75.0672 47.1662C75.0396 47.1387 75.0241 47.1014 75.024 47.0625V42.6734C75.0241 42.6345 75.0396 42.5972 75.0672 42.5698C75.0814 42.5539 75.0986 42.5411 75.118 42.5322C75.1373 42.5233 75.1582 42.5184 75.1795 42.5179H76.1385C76.1873 42.5216 76.2346 42.5363 76.2768 42.5611C76.3211 42.5797 76.3598 42.6095 76.3891 42.6475L78.0479 44.9976C78.0611 45.0051 78.076 45.0091 78.0911 45.0091C78.1063 45.0091 78.1212 45.0051 78.1344 44.9976C78.1344 44.9976 78.1776 44.9976 78.1776 44.9284V42.6302C78.1692 42.6142 78.1648 42.5964 78.1648 42.5784C78.1648 42.5603 78.1692 42.5426 78.1776 42.5266C78.1891 42.5099 78.2046 42.4965 78.2227 42.4874C78.2409 42.4784 78.261 42.474 78.2812 42.4747H79.2316C79.2529 42.4752 79.2738 42.4801 79.2931 42.489C79.3124 42.4979 79.3297 42.5107 79.3439 42.5266C79.3886 42.5288 79.4305 42.5488 79.4605 42.582C79.4905 42.6152 79.506 42.659 79.5037 42.7037C79.5015 42.7484 79.4815 42.7903 79.4483 42.8203C79.4151 42.8503 79.3713 42.8658 79.3266 42.8635L79.3439 42.6389ZM73.9181 47.1834H72.9245C72.903 47.1841 72.8817 47.1798 72.8622 47.1708C72.8427 47.1618 72.8256 47.1484 72.8122 47.1316C72.7996 47.0982 72.7996 47.0613 72.8122 47.0279V42.6475C72.8003 42.611 72.8003 42.5717 72.8122 42.5352C72.8428 42.5071 72.883 42.4917 72.9245 42.492H73.8835C73.9248 42.4932 73.9644 42.5084 73.9958 42.5352C74.0077 42.5717 74.0077 42.611 73.9958 42.6475V47.0279C74.0084 47.0613 74.0084 47.0982 73.9958 47.1316C74.0207 47.1517 74.0387 47.1789 74.0476 47.2096C74.0564 47.2403 74.0556 47.273 74.0452 47.3032C74.0348 47.3334 74.0154 47.3596 73.9896 47.3784C73.9637 47.3972 73.9327 47.4075 73.9008 47.4081L73.9181 47.1834Z" fill="white"/>
<path d="M71.2834 91.4799H64.1815C64.0622 91.478 63.9438 91.5008 63.8338 91.5469C63.7237 91.593 63.6245 91.6614 63.5422 91.7478C63.4558 91.8301 63.3874 91.9294 63.3413 92.0394C63.2952 92.1495 63.2724 92.2678 63.2743 92.3871V99.4977C63.2736 99.6156 63.297 99.7323 63.343 99.8408C63.3891 99.9492 63.4569 100.047 63.5422 100.128C63.6245 100.215 63.7237 100.283 63.8338 100.329C63.9438 100.375 64.0622 100.398 64.1815 100.396H71.2834C71.4027 100.398 71.5211 100.375 71.6311 100.329C71.7412 100.283 71.8405 100.215 71.9228 100.128C72.0081 100.047 72.0758 99.9492 72.1219 99.8408C72.1679 99.7323 72.1914 99.6156 72.1907 99.4977V92.3871C72.1926 92.2678 72.1697 92.1495 72.1236 92.0394C72.0775 91.9294 72.0092 91.8301 71.9228 91.7478C71.8405 91.6614 71.7412 91.593 71.6311 91.5469C71.5211 91.5008 71.4027 91.478 71.2834 91.4799ZM64.1815 90.4H71.2834C71.544 90.4005 71.8019 90.4526 72.0422 90.5535C72.2824 90.6543 72.5002 90.8019 72.6831 90.9875C72.8687 91.1703 73.0162 91.3882 73.1171 91.6284C73.2179 91.8687 73.2701 92.1266 73.2706 92.3871V99.4977C73.2701 99.7583 73.2179 100.016 73.1171 100.256C73.0162 100.497 72.8687 100.715 72.6831 100.897C72.5005 101.083 72.2827 101.231 72.0424 101.332C71.8021 101.433 71.5441 101.485 71.2834 101.485H64.1815C63.9215 101.486 63.664 101.435 63.4238 101.335C63.1836 101.236 62.9654 101.09 62.7818 100.906C62.5962 100.723 62.4487 100.505 62.3478 100.265C62.247 100.025 62.1948 99.7669 62.1943 99.5064V92.3958C62.1948 92.1352 62.247 91.8773 62.3478 91.6371C62.4487 91.3968 62.5962 91.179 62.7818 90.9961C62.9631 90.8077 63.1804 90.6579 63.4209 90.5554C63.6614 90.453 63.9201 90.4001 64.1815 90.4Z" fill="#373A5C"/>
<path fill-rule="evenodd" clip-rule="evenodd" d="M66.7127 96.9576L70.4019 93.5017C70.4677 93.4359 70.5458 93.3836 70.6318 93.348C70.7177 93.3124 70.8099 93.294 70.903 93.294C70.996 93.294 71.0882 93.3124 71.1742 93.348C71.2602 93.3836 71.3383 93.4359 71.4041 93.5017C71.4712 93.5676 71.5246 93.6463 71.561 93.7331C71.5974 93.8199 71.6161 93.913 71.6161 94.0071C71.6161 94.1012 71.5974 94.1944 71.561 94.2812C71.5246 94.368 71.4712 94.4466 71.4041 94.5126L67.1706 98.4523C67.1009 98.5144 67.0196 98.562 66.9315 98.5925C66.8433 98.6231 66.75 98.6359 66.6569 98.6303C66.5638 98.6247 66.4727 98.6007 66.3888 98.5598C66.305 98.5189 66.2301 98.4618 66.1683 98.3918L64.1293 96.0591C64.0046 95.9158 63.9418 95.7289 63.9548 95.5394C63.9678 95.3498 64.0554 95.1732 64.1985 95.0482C64.2687 94.9867 64.3504 94.9397 64.4388 94.9099C64.5273 94.8801 64.6208 94.868 64.7139 94.8744C64.8071 94.8809 64.898 94.9056 64.9816 94.9473C65.0651 94.989 65.1396 95.0468 65.2007 95.1173L66.7127 96.9576Z" fill="#FA98FF"/>
<path fill-rule="evenodd" clip-rule="evenodd" d="M78.7136 90.495H92.4682C92.6974 90.495 92.9171 90.5861 93.0791 90.7481C93.2412 90.9101 93.3322 91.1299 93.3322 91.359C93.3322 91.5882 93.2412 91.8079 93.0791 91.9699C92.9171 92.132 92.6974 92.223 92.4682 92.223H78.7136C78.4845 92.223 78.2647 92.132 78.1027 91.9699C77.9406 91.8079 77.8496 91.5882 77.8496 91.359C77.8496 91.1299 77.9406 90.9101 78.1027 90.7481C78.2647 90.5861 78.4845 90.495 78.7136 90.495Z" fill="#373A5C"/>
<path fill-rule="evenodd" clip-rule="evenodd" d="M78.7136 94.8841H120.444C120.673 94.8841 120.893 94.9751 121.055 95.1371C121.217 95.2991 121.308 95.5189 121.308 95.748C121.308 95.9772 121.217 96.197 121.055 96.359C120.893 96.521 120.673 96.612 120.444 96.612H78.7136C78.4845 96.612 78.2647 96.521 78.1027 96.359C77.9406 96.197 77.8496 95.9772 77.8496 95.748C77.8496 95.5189 77.9406 95.2991 78.1027 95.1371C78.2647 94.9751 78.4845 94.8841 78.7136 94.8841Z" fill="#373A5C"/>
<path fill-rule="evenodd" clip-rule="evenodd" d="M78.7136 99.2731H120.444C120.673 99.2731 120.893 99.3641 121.055 99.5262C121.217 99.6882 121.308 99.9079 121.308 100.137C121.308 100.366 121.217 100.586 121.055 100.748C120.893 100.91 120.673 101.001 120.444 101.001H78.7136C78.4845 101.001 78.2647 100.91 78.1027 100.748C77.9406 100.586 77.8496 100.366 77.8496 100.137C77.8496 99.9079 77.9406 99.6882 78.1027 99.5262C78.2647 99.3641 78.4845 99.2731 78.7136 99.2731Z" fill="#373A5C"/>
<path fill-rule="evenodd" clip-rule="evenodd" d="M2.22461 70.8566C6.54454 80.8357 8.16018 104.431 8.80817 120.968H28.9131C28.4293 105.088 26.6581 83.8164 23.1417 72.9993C22.3382 70.4937 21.6902 70.5197 20.6448 69.7075C15.0894 68.7399 10.4757 68.1696 2.66525 69.7075L2.22461 70.8566Z" fill="white"/>
<path fill-rule="evenodd" clip-rule="evenodd" d="M14.7084 75.2716L12.3584 76.4812L13.9136 78.3647L12.583 113.9L23.1409 118.877L24.4542 108.267L16.2723 78.3647L16.8166 75.6777L14.7084 75.2716Z" fill="#A9F625"/>
<path fill-rule="evenodd" clip-rule="evenodd" d="M35.3502 121.901C35.3502 98.5733 32.7064 72.6537 22.4768 70.2086C21.8548 70.0358 21.2413 69.8803 20.6452 69.7421C23.9975 77.1205 20.6452 101.545 17.1201 121.901H35.3502Z" fill="#985C98"/>
<path fill-rule="evenodd" clip-rule="evenodd" d="M19.7981 121.901C16.3422 101.036 6.1299 77.1119 3.00228 69.6902C-11.8323 71.712 -15.0377 83.2721 -10.1562 96.4219L-6.84718 92.5772C-5.21424 100.215 -4.77359 111.049 -4.44527 121.901H19.7981Z" fill="#985C98"/>
<path fill-rule="evenodd" clip-rule="evenodd" d="M17.6301 65.9406V69.8544C18.8742 72.3254 18.805 74.6582 15.3923 75.2457C6.04399 75.7122 7.18448 69.1978 7.27088 68.8954L8.13486 63.4523C7.82383 63.4523 5.21457 62.0786 4.5493 61.8712C4.04179 61.5787 3.61697 61.162 3.31471 60.6602C3.01244 60.1585 2.84266 59.5881 2.82133 59.0028C2.75221 57.6377 4.86897 58.0783 4.86897 58.0783C2.27702 54.5705 -0.591414 51.7107 3.141 48.5745C6.87342 45.4382 15.5306 43.5806 15.5306 43.5806L20.7145 41.7835C20.0492 43.572 20.9305 49.5594 22.2696 53.2918C23.9976 58.1993 22.2696 63.6596 17.5523 65.9578" fill="#F7E1AA"/>
<path fill-rule="evenodd" clip-rule="evenodd" d="M14.7177 75.2716C13.4908 76.5244 11.616 78.2696 10.3978 79.5224C7.80582 76.8009 6.41481 72.671 5.21387 69.2842C6.20745 68.6016 6.56168 68.2906 7.4775 67.5562C8.66116 69.9235 10.6224 73.4659 14.7436 75.2716" fill="#F9D8FB"/>
<path fill-rule="evenodd" clip-rule="evenodd" d="M14.7178 75.2716C15.9274 76.5071 17.9491 77.5353 19.1587 78.7276C19.7375 76.3948 19.3487 72.1267 18.8562 69.3965C18.4667 69.0618 18.0406 68.7719 17.5862 68.5325C17.8454 71.064 15.9878 73.7683 14.7178 75.1939" fill="#F9D8FB"/>
<path fill-rule="evenodd" clip-rule="evenodd" d="M10.2333 64.1003C11.4688 66.6231 13.8447 70.3037 17.5858 69.8544V65.9406C15.9269 66.2084 14.3026 66.0788 10.2246 64.1003" fill="#E1BF6E"/>
<path fill-rule="evenodd" clip-rule="evenodd" d="M0.652228 49.8013C-0.211757 46.9502 0.704073 43.9435 3.52067 41.749C9.35256 37.1871 14.3637 39.71 16.5236 40.237C18.0183 40.6085 19.0292 40.5653 20.5066 40.8764C24.1786 41.6453 24.4896 49.2916 21.8458 51.8058C21.578 52.0563 21.1719 48.5486 20.8782 48.7732C20.5597 49.0567 20.2122 49.3058 19.8414 49.5162C15.5214 51.728 11.7544 49.3953 9.24024 52.3587C7.98746 53.8275 8.11707 55.9443 9.51672 59.2101C9.9228 60.1692 10.4758 60.8863 8.84284 60.126C8.09982 59.7804 5.66335 59.0028 5.24864 59.3484C4.31553 60.1 4.78209 61.6898 5.52512 62.1995C5.86207 62.4242 6.49278 62.7697 6.49278 62.7697C-0.419105 61.4651 -1.98293 51.8403 0.652228 49.81" fill="#373A5C"/>
<path fill-rule="evenodd" clip-rule="evenodd" d="M26.5972 84.7582C31.0985 93.519 30.6406 102.133 41.0948 105.995C49.8211 106.703 58.6251 84.9137 57.7698 82.9438C56.9749 81.1208 53.3548 79.3928 51.9465 80.6542C50.4 82.0193 42.1144 92.5427 41.8984 92.5254C40.4123 92.439 32.6364 72.6537 23.5732 70.5715C22.4933 69.9494 23.4177 80.5333 26.5972 84.7582Z" fill="#985C98"/>
<path d="M26.5972 84.7582C31.0985 93.519 30.6406 102.133 41.0948 105.995C49.8211 106.703 58.6251 84.9137 57.7698 82.9438C56.9749 81.1208 53.3548 79.3928 51.9465 80.6542C50.4 82.0193 42.1144 92.5427 41.8984 92.5254C40.4123 92.439 32.6364 72.6537 23.5732 70.5715C22.4933 69.9494 23.4177 80.5333 26.5972 84.7582Z" stroke="#985C98" stroke-width="0.22" stroke-miterlimit="2.61"/>
<path fill-rule="evenodd" clip-rule="evenodd" d="M53.536 78.9695C53.225 77.8204 52.5338 73.6905 53.009 72.6624C53.7347 71.0726 54.737 75.4012 54.737 75.7554C56.0243 73.3708 56.9401 71.7984 58.478 69.1373C58.5515 68.9591 58.6877 68.8141 58.861 68.7299C59.0343 68.6456 59.2326 68.6279 59.4181 68.6801C59.6035 68.7323 59.7634 68.8509 59.8672 69.0132C59.9711 69.1755 60.0117 69.3704 59.9813 69.5607C59.9813 70.0186 58.1151 72.9648 58.2534 73.4659C58.5299 74.5113 59.7394 75.6604 59.7481 77.086C59.7481 81.2763 58.2015 80.4728 57.2684 83.7387C56.3526 83.6184 55.4719 83.3089 54.6821 82.83C53.8923 82.351 53.2107 81.7131 52.6807 80.9566L53.536 78.9695Z" fill="#F7E1AA"/>
<path d="M17.128 92.5859H13.1709V93.4412H17.128V92.5859Z" fill="white"/>
<path fill-rule="evenodd" clip-rule="evenodd" d="M45.4839 50.9331C45.1211 50.6999 43.0821 49.4903 42.7278 49.2052C34.6064 43.4078 29.4743 32.6858 30.2778 22.7586L30.4679 20.3049L32.8957 19.9247C36.8305 19.3054 40.6072 17.9262 44.0152 15.864L45.5531 15L47.0824 15.864C50.5096 17.9186 54.2938 19.308 58.2364 19.9593L60.6296 20.3567L60.8283 22.7845C61.6923 33.1523 56.0332 44.3841 47.2897 49.9655L45.4839 50.9331Z" fill="#FCB7FF"/>
<path fill-rule="evenodd" clip-rule="evenodd" d="M45.5527 15.0259L47.082 15.8899C50.5112 17.9354 54.2953 19.316 58.236 19.9593L60.6293 20.3567L60.828 22.7845C61.692 33.1523 56.0329 44.3841 47.2894 49.9655L45.5614 50.8986L45.5527 15.0259Z" fill="#FA98FF"/>
<path fill-rule="evenodd" clip-rule="evenodd" d="M34.5463 24.0459C34.4047 27.5368 35.0177 31.0171 36.3434 34.2496C38.1967 38.9673 41.4004 43.0335 45.5535 45.9393C49.7137 43.0368 52.9238 38.9701 54.7808 34.2496C56.1093 31.0177 56.7252 27.5374 56.5866 24.0459C54.6889 23.7115 52.8242 23.2113 51.0139 22.5512C49.1387 21.8447 47.3216 20.9925 45.5794 20.0025C43.746 21.0388 41.8335 21.9286 39.8598 22.6635C38.1409 23.2775 36.3717 23.74 34.5722 24.0459" fill="#FCECFF"/>
<path fill-rule="evenodd" clip-rule="evenodd" d="M34.5463 24.0459C34.4047 27.5368 35.0177 31.0171 36.3434 34.2496C38.1967 38.9673 41.4004 43.0335 45.5535 45.9393V20.0197C43.7201 21.0561 41.8076 21.9459 39.8339 22.6808C38.115 23.2948 36.3458 23.7573 34.5463 24.0632" fill="#FCECFF"/>
<path fill-rule="evenodd" clip-rule="evenodd" d="M45.5533 21.1775V44.7038C49.2531 41.929 52.1096 38.1812 53.8043 33.8781C54.9624 31.0278 55.5495 27.9778 55.5323 24.9013C53.8585 24.5681 52.2122 24.1088 50.6076 23.5275C48.8603 22.8662 47.1626 22.0809 45.5273 21.1775" fill="#F8DDFF"/>
<path fill-rule="evenodd" clip-rule="evenodd" d="M45.5617 25.4974C47.239 25.4974 48.8476 26.1637 50.0337 27.3498C51.2197 28.5358 51.8861 30.1445 51.8861 31.8218C51.8861 33.4991 51.2197 35.1077 50.0337 36.2938C48.8476 37.4798 47.239 38.1462 45.5617 38.1462C43.8844 38.1462 42.2757 37.4798 41.0897 36.2938C39.9036 35.1077 39.2373 33.4991 39.2373 31.8218C39.2373 30.1445 39.9036 28.5358 41.0897 27.3498C42.2757 26.1637 43.8844 25.4974 45.5617 25.4974Z" fill="#9A71C8"/>
<path fill-rule="evenodd" clip-rule="evenodd" d="M44.4135 32.9277L47.783 29.8173C47.9487 29.6724 48.1634 29.5962 48.3834 29.6042C48.6034 29.6122 48.812 29.7039 48.9667 29.8605C49.1173 30.0208 49.2012 30.2324 49.2012 30.4523C49.2012 30.6723 49.1173 30.884 48.9667 31.0442L45.001 34.7334C44.831 34.874 44.6138 34.9442 44.3937 34.9298C44.1736 34.9153 43.9674 34.8172 43.8173 34.6557L42.1757 32.7808C42.0352 32.6108 41.9649 32.3936 41.9794 32.1735C41.9939 31.9534 42.0919 31.7472 42.2535 31.5971C42.4235 31.4566 42.6407 31.3863 42.8608 31.4008C43.0809 31.4152 43.2871 31.5133 43.4372 31.6749L44.4135 32.9277Z" fill="white"/>
<path d="M139.615 100.146H113.194V121.901H139.615V100.146Z" fill="#CE48E3"/>
<path fill-rule="evenodd" clip-rule="evenodd" d="M115.648 102.237H118.361C118.466 102.239 118.566 102.281 118.64 102.355C118.714 102.429 118.757 102.529 118.759 102.634V105.347C118.757 105.452 118.714 105.551 118.64 105.626C118.566 105.7 118.466 105.742 118.361 105.744H115.648C115.544 105.742 115.444 105.7 115.37 105.626C115.296 105.551 115.253 105.452 115.251 105.347V102.634C115.253 102.529 115.296 102.429 115.37 102.355C115.444 102.281 115.544 102.239 115.648 102.237Z" fill="white"/>
<path fill-rule="evenodd" clip-rule="evenodd" d="M120.341 102.237H123.036C123.143 102.237 123.245 102.278 123.32 102.352C123.396 102.427 123.44 102.528 123.442 102.634V105.347C123.44 105.453 123.396 105.554 123.32 105.628C123.245 105.703 123.143 105.744 123.036 105.744H120.332C120.227 105.744 120.126 105.702 120.051 105.628C119.976 105.553 119.935 105.452 119.935 105.347V102.634C119.935 102.529 119.976 102.428 120.051 102.353C120.126 102.278 120.227 102.237 120.332 102.237" fill="white"/>
<path fill-rule="evenodd" clip-rule="evenodd" d="M115.648 106.919H118.361C118.468 106.922 118.569 106.965 118.643 107.041C118.717 107.117 118.759 107.219 118.759 107.325V110.03C118.759 110.136 118.717 110.238 118.643 110.314C118.569 110.39 118.468 110.434 118.361 110.436H115.648C115.542 110.434 115.441 110.39 115.367 110.314C115.293 110.238 115.251 110.136 115.251 110.03V107.325C115.251 107.219 115.293 107.117 115.367 107.041C115.441 106.965 115.542 106.922 115.648 106.919Z" fill="white"/>
<path fill-rule="evenodd" clip-rule="evenodd" d="M115.648 111.611H118.361C118.466 111.613 118.566 111.656 118.64 111.73C118.714 111.804 118.757 111.904 118.759 112.008V114.721C118.757 114.826 118.714 114.926 118.64 115C118.566 115.074 118.466 115.116 118.361 115.119H115.648C115.544 115.116 115.444 115.074 115.37 115C115.296 114.926 115.253 114.826 115.251 114.721V112.008C115.253 111.904 115.296 111.804 115.37 111.73C115.444 111.656 115.544 111.613 115.648 111.611Z" fill="white"/>
<path fill-rule="evenodd" clip-rule="evenodd" d="M115.648 116.302H118.361C118.467 116.302 118.568 116.344 118.642 116.419C118.717 116.493 118.759 116.594 118.759 116.7V119.404C118.759 119.51 118.717 119.612 118.643 119.688C118.569 119.764 118.468 119.808 118.361 119.81H115.648C115.542 119.808 115.441 119.764 115.367 119.688C115.293 119.612 115.251 119.51 115.251 119.404V116.7C115.251 116.594 115.293 116.493 115.367 116.419C115.442 116.344 115.543 116.302 115.648 116.302Z" fill="white"/>
<path fill-rule="evenodd" clip-rule="evenodd" d="M120.34 106.919H123.035C123.143 106.919 123.246 106.962 123.323 107.038C123.399 107.114 123.441 107.218 123.441 107.325V110.03C123.441 110.137 123.399 110.241 123.323 110.317C123.246 110.393 123.143 110.436 123.035 110.436H120.331C120.278 110.436 120.226 110.425 120.177 110.405C120.128 110.384 120.084 110.354 120.047 110.316C120.01 110.279 119.981 110.234 119.961 110.184C119.942 110.135 119.933 110.083 119.934 110.03V107.325C119.933 107.273 119.942 107.22 119.961 107.171C119.981 107.121 120.01 107.077 120.047 107.039C120.084 107.001 120.128 106.971 120.177 106.95C120.226 106.93 120.278 106.919 120.331 106.919" fill="white"/>
<path fill-rule="evenodd" clip-rule="evenodd" d="M120.341 111.611H123.036C123.143 111.611 123.245 111.652 123.32 111.727C123.396 111.801 123.44 111.902 123.442 112.008V114.721C123.44 114.827 123.396 114.928 123.32 115.003C123.245 115.077 123.143 115.119 123.036 115.119H120.332C120.28 115.119 120.228 115.108 120.18 115.088C120.132 115.068 120.088 115.039 120.051 115.002C120.014 114.965 119.985 114.921 119.965 114.873C119.945 114.825 119.935 114.773 119.935 114.721V112.008C119.935 111.903 119.976 111.802 120.051 111.727C120.126 111.653 120.227 111.611 120.332 111.611" fill="white"/>
<path fill-rule="evenodd" clip-rule="evenodd" d="M120.34 116.302H123.035C123.088 116.301 123.141 116.311 123.19 116.33C123.239 116.349 123.284 116.379 123.322 116.416C123.36 116.453 123.39 116.497 123.41 116.546C123.431 116.594 123.441 116.647 123.441 116.7V119.404C123.441 119.512 123.399 119.615 123.323 119.691C123.246 119.767 123.143 119.81 123.035 119.81H120.331C120.278 119.81 120.226 119.8 120.177 119.779C120.128 119.758 120.084 119.728 120.047 119.691C120.01 119.653 119.981 119.608 119.961 119.559C119.942 119.51 119.933 119.457 119.934 119.404V116.7C119.933 116.647 119.942 116.595 119.962 116.546C119.981 116.497 120.01 116.453 120.047 116.416C120.085 116.379 120.129 116.35 120.178 116.33C120.226 116.311 120.279 116.301 120.331 116.302" fill="white"/>
<path d="M139.615 100.146H113.194V101.044H139.615V100.146Z" fill="#A642BC"/>
<path fill-rule="evenodd" clip-rule="evenodd" d="M113.194 101.044H139.615V94.9964C139.613 94.4884 139.41 94.0018 139.051 93.6426C138.692 93.2834 138.205 93.0806 137.697 93.0783H115.112C114.604 93.0806 114.118 93.2834 113.759 93.6426C113.399 94.0018 113.197 94.4884 113.194 94.9964V101.044Z" fill="#CE48E3"/>
<path d="M137.481 95.6962H115.251V100.137H137.481V95.6962Z" fill="white"/>
<path d="M116.849 120.674H106.706V121.797H116.849V120.674Z" fill="#5FFD00"/>
<path d="M107.993 120.674H106.706V121.797H107.993V120.674Z" fill="#5FFD00"/>
<path d="M109.393 120.674H108.045V121.797H109.393V120.674Z" fill="#15FF25"/>
<path d="M113.973 120.674H109.394V121.797H113.973V120.674Z" fill="#59FC00"/>
<path d="M115.943 120.674H113.973V121.797H115.943V120.674Z" fill="#ACEC0E"/>
<path d="M116.374 121.797H107.207V121.901H116.374V121.797Z" fill="#DFDB1E"/>
<path d="M116.867 118.22H106.724V119.343H116.867V118.22Z" fill="#5FFD00"/>
<path d="M108.011 118.22H106.724V119.343H108.011V118.22Z" fill="#5FFD00"/>
<path d="M109.315 118.22H108.011V119.343H109.315V118.22Z" fill="#15FF25"/>
<path d="M113.981 118.22H109.307V119.343H113.981V118.22Z" fill="#59FC00"/>
<path d="M115.95 118.22H113.98V119.343H115.95V118.22Z" fill="#ACEC0E"/>
<path d="M116.383 119.343H107.216V119.447H116.383V119.343Z" fill="#DFDB1E"/>
<path d="M117.238 119.447H106.706V120.57H117.238V119.447Z" fill="#5FFD00"/>
<path d="M108.037 119.447H106.706V120.57H108.037V119.447Z" fill="#5FFD00"/>
<path d="M109.393 119.447H108.045V120.57H109.393V119.447Z" fill="#15FF25"/>
<path d="M114.249 119.447H109.394V120.57H114.249V119.447Z" fill="#59FC00"/>
<path d="M116.297 119.447H113.973V120.57H116.297V119.447Z" fill="#ACEC0E"/>
<path d="M116.746 120.57H107.225V120.674H116.746V120.57Z" fill="#DFDB1E"/>
<path d="M125.153 120.674H115.01V121.797H125.153V120.674Z" fill="#5FFD00"/>
<path d="M116.297 120.674H115.01V121.797H116.297V120.674Z" fill="#5FFD00"/>
<path d="M117.602 120.674H116.297V121.797H117.602V120.674Z" fill="#15FF25"/>
<path d="M122.276 120.674H117.602V121.797H122.276V120.674Z" fill="#59FC00"/>
<path d="M124.678 121.797H115.511V121.901H124.678V121.797Z" fill="#DFDB1E"/>
<path d="M116.876 116.993H106.732V118.117H116.876V116.993Z" fill="#5FFD00"/>
<path d="M108.02 116.993H106.732V118.117H108.02V116.993Z" fill="#5FFD00"/>
<path d="M109.324 116.993H108.02V118.117H109.324V116.993Z" fill="#15FF25"/>
<path d="M113.99 116.993H109.315V118.117H113.99V116.993Z" fill="#59FC00"/>
<path d="M115.959 116.993H113.989V118.117H115.959V116.993Z" fill="#ACEC0E"/>
<path d="M116.391 118.108H107.225V118.212H116.391V118.108Z" fill="#DFDB1E"/>
<path d="M125.153 119.447H115.01V120.57H125.153V119.447Z" fill="#5FFD00"/>
<path d="M116.297 119.447H115.01V120.57H116.297V119.447Z" fill="#5FFD00"/>
<path d="M117.602 119.447H116.297V120.57H117.602V119.447Z" fill="#15FF25"/>
<path d="M122.276 119.447H117.602V120.57H122.276V119.447Z" fill="#59FC00"/>
<path d="M124.678 120.57H115.511V120.674H124.678V120.57Z" fill="#DFDB1E"/>
<path d="M116.876 115.767H106.732V116.89H116.876V115.767Z" fill="#5FFD00"/>
<path d="M108.02 115.767H106.732V116.89H108.02V115.767Z" fill="#5FFD00"/>
<path d="M109.324 115.767H108.02V116.89H109.324V115.767Z" fill="#15FF25"/>
<path d="M113.99 115.767H109.315V116.89H113.99V115.767Z" fill="#59FC00"/>
<path d="M115.959 115.767H113.989V116.89H115.959V115.767Z" fill="#ACEC0E"/>
<path d="M116.391 116.881H107.225V116.985H116.391V116.881Z" fill="#DFDB1E"/>
<path d="M125.153 118.22H115.01V119.343H125.153V118.22Z" fill="#5FFD00"/>
<path d="M116.297 118.22H115.01V119.343H116.297V118.22Z" fill="#5FFD00"/>
<path d="M117.602 118.22H116.297V119.343H117.602V118.22Z" fill="#15FF25"/>
<path d="M122.276 118.22H117.602V119.343H122.276V118.22Z" fill="#59FC00"/>
<path d="M124.678 119.343H115.511V119.447H124.678V119.343Z" fill="#DFDB1E"/>
<path d="M116.876 114.54H106.732V115.663H116.876V114.54Z" fill="#5FFD00"/>
<path d="M108.02 114.54H106.732V115.663H108.02V114.54Z" fill="#5FFD00"/>
<path d="M109.324 114.54H108.02V115.663H109.324V114.54Z" fill="#15FF25"/>
<path d="M113.99 114.54H109.315V115.663H113.99V114.54Z" fill="#59FC00"/>
<path d="M115.959 114.54H113.989V115.663H115.959V114.54Z" fill="#ACEC0E"/>
<path d="M116.391 115.654H107.225V115.758H116.391V115.654Z" fill="#DFDB1E"/>
</g>
</svg>
