<svg width="38" height="38" viewBox="0 0 38 38" fill="none" xmlns="http://www.w3.org/2000/svg">
<circle cx="19" cy="19" r="19" fill="#F7F4F9"/>
<path d="M9.00011 8V18.3685C8.99383 19.6111 9.25014 20.8409 9.75226 21.9774C10.8278 24.3907 13.1823 27.5954 18.2441 29.1536C18.3861 29.1977 18.534 29.22 18.6827 29.2197C18.8313 29.2197 18.9791 29.1974 19.1212 29.1536C24.1928 27.5954 26.5374 24.3907 27.6106 21.9774C28.1118 20.8415 28.3681 19.6126 28.3627 18.371V8H9.00011ZM27.1304 15.208H23.7836V18.6111H27.1304C27.1066 19.6 26.8893 20.5747 26.4909 21.4801C25.5109 23.6606 23.3916 26.559 18.761 27.9825C18.7102 27.9997 18.6551 27.9997 18.6042 27.9825C13.9712 26.559 11.8422 23.6606 10.8719 21.4801C10.4727 20.5748 10.2547 19.6002 10.23 18.6111H13.5792V15.208H10.2251V11.8073H13.5792V9.22502H16.9799V11.8073H20.3805V9.22502H23.7836V11.8073H27.1377L27.1304 15.208Z" fill="#662D91"/>
<path d="M16.9778 11.8068H13.5771V15.2074H16.9778V11.8068Z" fill="#662D91"/>
<path d="M23.7844 11.8068H20.3838V15.2074H23.7844V11.8068Z" fill="#662D91"/>
<path d="M20.3792 15.2084H16.9785V18.609H20.3792V15.2084Z" fill="#662D91"/>
</svg>
