<svg width="122" height="122" viewBox="0 0 122 122" fill="none" xmlns="http://www.w3.org/2000/svg">
<mask id="mask0_144_1594" style="mask-type:alpha" maskUnits="userSpaceOnUse" x="0" y="0" width="122" height="122">
<circle cx="61" cy="61" r="61" fill="#D9D9D9"/>
</mask>
<g mask="url(#mask0_144_1594)">
<path opacity="0.7" d="M55.2433 123.905C95.3531 123.905 127.868 118.953 127.868 112.844C127.868 106.735 95.3531 101.782 55.2433 101.782C15.1335 101.782 -17.3818 106.735 -17.3818 112.844C-17.3818 118.953 15.1335 123.905 55.2433 123.905Z" fill="#C5AEF7"/>
<g opacity="0.4">
<path d="M110.78 68.4871C109.21 66.3405 105.433 70.9393 103.703 73.2463C102.068 74.3667 100.484 75.5469 98.9511 76.787C99.8029 74.6443 105.097 69.4917 102.58 68.002C101.308 67.2381 100.116 68.7048 99.3216 71.2296C98.6684 73.3036 98.7601 75.9964 98.8136 76.8978C96.719 78.5891 94.7123 80.3867 92.8016 82.2834C93.3975 80.1521 98.5119 74.5297 95.8573 73.1852C94.5357 72.5129 93.4471 74.0484 92.8016 76.6228C92.2707 78.7923 92.5724 81.5615 92.6794 82.375C90.9376 84.1066 89.2749 85.9132 87.691 87.795C88.4206 85.1557 91.4686 79.7472 88.8827 79.01C87.458 78.5975 86.6712 80.3087 86.5299 82.9518C86.4268 84.8807 87.0226 87.1342 87.3473 88.2152C85.2535 90.7427 83.3074 93.3889 81.5186 96.1407C81.9006 93.574 84.8264 87.6002 82.103 87.0235C80.6554 86.7141 79.9946 88.4749 80.0481 91.1218C80.0901 93.15 80.9228 95.4838 81.3085 96.4692C80.7165 97.3859 80.1321 98.3141 79.5706 99.2537C78.9175 100.354 78.272 101.477 77.6609 102.619C77.5845 100.109 79.6279 93.5434 76.8015 93.3983C75.3233 93.3219 74.949 95.1668 75.4188 97.7717C75.8007 99.7922 76.9962 101.973 77.5233 102.878C75.9772 105.679 74.648 108.595 73.5472 111.599C72.7833 109.551 73.826 101.939 70.8735 102.348C69.4068 102.546 69.3839 104.429 70.3311 106.9C71.1332 108.986 72.9552 111.102 73.509 111.698C73.276 112.359 73.0545 113.027 72.852 113.695C72.684 114.249 73.5319 114.559 73.6962 114.001C73.9381 113.214 74.2016 112.431 74.4868 111.652C75.5066 111.442 77.9244 110.854 79.6623 109.769C81.9044 108.363 83.0159 106.843 81.9541 105.8C79.9526 103.822 76.4997 109.689 74.5861 111.354C75.6566 108.557 76.9201 105.837 78.3675 103.215C79.2078 103.215 81.9693 103.142 84.0395 102.336C86.5031 101.37 87.882 100.086 87.0417 98.8641C85.3573 96.4158 80.4491 102.256 78.421 103.115C78.9761 102.097 79.5401 101.099 80.113 100.121C80.7369 99.0513 81.3837 97.9983 82.0534 96.9619C82.8173 97.0804 85.6285 97.4738 87.8553 96.9925C90.4411 96.431 92.0033 95.3807 91.3693 94.0438C90.0706 91.3166 84.1503 96.4998 82.0915 96.9008C83.8895 94.1137 85.8525 91.4365 87.9699 88.8836C88.3518 88.9791 91.4533 89.7201 93.9017 89.3763C96.5219 88.9944 98.1605 88.07 97.6219 86.7026C96.476 83.8036 89.8453 88.9256 87.9775 88.8836C89.7116 86.7981 91.5437 84.803 93.4739 82.8983C94.3906 83.2803 96.774 84.2275 98.8594 84.323C101.503 84.4452 103.279 83.8265 103.007 82.3712C102.477 79.5371 96.0139 82.6004 93.6152 82.7532C95.4944 80.9122 97.4602 79.1666 99.5126 77.5166C100.38 77.9558 102.729 79.0788 104.829 79.3118C107.457 79.6097 109.275 79.1131 109.1 77.6426C108.756 74.7627 102.022 77.4402 99.6577 77.3982C101.067 76.2752 102.515 75.1904 104.001 74.163C106.678 73.3685 112.854 71.3136 110.78 68.4871Z" fill="white"/>
<path d="M102.201 95.988C100.12 91.1639 90.3034 96.813 85.3952 100.472C77.6301 106.259 76.0449 113.352 76.0449 113.352C87.939 112.317 104.89 102.214 102.201 95.988ZM100.673 99.9871C100.642 99.9923 100.61 99.9923 100.578 99.9871C99.6269 99.7469 98.6482 99.6339 97.6675 99.6509C96.6233 99.6637 95.5804 99.73 94.5431 99.8495C93.3514 100.503 92.1291 101.24 90.8916 102.042C93.0291 101.774 95.1989 101.955 97.2626 102.573C97.3435 102.594 97.4131 102.645 97.4566 102.717C97.5001 102.788 97.5141 102.873 97.4956 102.955C97.4898 103.003 97.4735 103.05 97.4479 103.091C97.4222 103.133 97.3879 103.168 97.3472 103.195C97.3065 103.222 97.2604 103.24 97.2121 103.247C97.1639 103.254 97.1146 103.251 97.0678 103.237C95.6777 102.825 94.236 102.613 92.7861 102.607C91.6482 102.601 90.5147 102.75 89.4172 103.05V103.05C88.1568 103.917 86.8428 104.872 85.4258 105.961C87.7513 105.182 90.2192 104.921 92.6562 105.197C92.7465 105.208 92.8287 105.255 92.8851 105.326C92.9415 105.398 92.9677 105.488 92.9579 105.579C92.955 105.659 92.9211 105.735 92.8634 105.79C92.8057 105.846 92.7287 105.877 92.6486 105.877H92.5989C90.0169 105.518 86.9039 106.022 83.7375 107.298C82.4618 108.306 81.3121 109.249 80.2541 110.166C82.3768 109.514 84.5773 109.149 86.797 109.081V109.081C86.8404 109.08 86.8837 109.087 86.9242 109.103C86.9647 109.118 87.0016 109.142 87.0327 109.173C87.0638 109.203 87.0883 109.239 87.1049 109.279C87.1215 109.32 87.1299 109.363 87.1293 109.406C87.1308 109.451 87.1234 109.496 87.1075 109.539C87.0917 109.581 87.0676 109.62 87.0368 109.653C87.0059 109.686 86.9689 109.712 86.9277 109.731C86.8866 109.749 86.8421 109.76 86.797 109.761C84.1043 109.831 81.4438 110.365 78.9325 111.339V111.339C78.5238 111.721 78.1151 112.084 77.7103 112.485C77.6491 112.545 77.5669 112.579 77.4811 112.58C77.4114 112.578 77.3438 112.556 77.2867 112.516C77.2297 112.476 77.1857 112.42 77.1603 112.355C77.1359 112.293 77.1309 112.225 77.1459 112.16C77.1609 112.096 77.1952 112.037 77.2443 111.992C77.7217 111.541 78.2221 111.075 78.7721 110.579C80.3572 109.051 81.6177 106.759 82.3205 104.12C82.337 104.049 82.3771 103.987 82.434 103.942C82.491 103.898 82.5614 103.874 82.6337 103.875C82.6882 103.875 82.7422 103.887 82.7912 103.911C82.8403 103.935 82.8831 103.97 82.9163 104.013C82.9479 104.053 82.9696 104.101 82.9795 104.151C82.9895 104.202 82.9874 104.254 82.9736 104.303C82.5887 105.724 82.0199 107.089 81.2815 108.363C81.9614 107.798 82.6681 107.217 83.3938 106.66C85.3181 104.893 86.6517 102.577 87.2133 100.025C87.2291 99.9542 87.2689 99.8907 87.3259 99.8455C87.3829 99.8003 87.4537 99.7761 87.5265 99.777C87.5797 99.7786 87.632 99.7913 87.6801 99.8143C87.7281 99.8374 87.7708 99.8702 87.8053 99.9107C87.8375 99.9501 87.8599 99.9967 87.8705 100.047C87.8812 100.096 87.8798 100.148 87.8665 100.197C87.4944 101.789 86.8482 103.304 85.9567 104.674C87.072 103.845 88.1148 103.096 89.1193 102.412C90.3396 101.021 91.1466 99.3153 91.4492 97.4891C91.4621 97.4044 91.5052 97.3272 91.5704 97.2718C91.6357 97.2163 91.7188 97.1863 91.8045 97.1873C91.8506 97.1863 91.8963 97.1953 91.9386 97.2138C91.9809 97.2322 92.0186 97.2597 92.0491 97.2943C92.0796 97.3288 92.1023 97.3696 92.1154 97.4138C92.1286 97.458 92.132 97.5045 92.1253 97.5502C91.9184 98.8995 91.4388 100.193 90.7158 101.351C91.9992 100.522 93.233 99.7846 94.4667 99.1124C95.9487 98.1327 97.0689 96.6945 97.656 95.0178C97.6775 94.95 97.7204 94.8911 97.7782 94.8497C97.8361 94.8084 97.9058 94.787 97.9768 94.7886C98.0318 94.7879 98.0862 94.8003 98.1354 94.8249C98.1845 94.8495 98.2271 94.8855 98.2595 94.9299C98.2897 94.972 98.3093 95.0206 98.3166 95.0719C98.3239 95.1231 98.3188 95.1753 98.3015 95.2241C97.9591 96.2112 97.4415 97.1285 96.7737 97.9321C97.9196 97.3783 99.0654 96.9047 100.177 96.4922C100.221 96.4757 100.268 96.4693 100.315 96.4734C100.362 96.4774 100.407 96.4919 100.448 96.5156C100.488 96.5394 100.523 96.5719 100.55 96.6108C100.576 96.6497 100.594 96.694 100.601 96.7404C100.615 96.82 100.6 96.9018 100.56 96.9717C100.519 97.0415 100.455 97.0949 100.379 97.1224C98.907 97.677 97.4673 98.3146 96.0671 99.0322C96.5674 98.9978 97.1136 98.971 97.6675 98.971C98.7078 98.9533 99.7458 99.0753 100.754 99.3339C100.832 99.3538 100.899 99.402 100.944 99.469C100.988 99.5361 101.006 99.6172 100.994 99.6968C100.984 99.7752 100.945 99.8473 100.887 99.9004C100.828 99.9535 100.753 99.9842 100.673 99.9871V99.9871Z" fill="white"/>
<path d="M-0.261869 68.4871C1.30797 66.3405 5.08551 70.9393 6.81959 73.2463C8.45181 74.3667 10.0357 75.5469 11.5711 76.787C10.7194 74.6443 5.42163 69.4917 7.93872 68.002C9.21445 67.2381 10.4023 68.7048 11.2006 71.2296C11.8538 73.3036 11.7583 75.9964 11.7048 76.8978C13.8007 78.5891 15.8086 80.3867 17.7206 82.2834C17.121 80.1521 11.9913 74.5297 14.665 73.1852C15.9866 72.5129 17.0789 74.0484 17.7206 76.6228C18.2477 78.7923 17.946 81.5615 17.839 82.375C19.5808 84.1066 21.2435 85.9132 22.8274 87.795C22.1017 85.1557 19.0536 79.7472 21.6395 79.01C23.0604 78.5975 23.8472 80.3087 23.9885 82.9518C24.0916 84.8807 23.4996 87.1342 23.1711 88.2152C25.265 90.7435 27.2123 93.3897 29.0036 96.1407C28.6216 93.574 25.6959 87.6002 28.4154 87.0235C29.8668 86.7141 30.5238 88.4749 30.4703 91.1218C30.4283 93.15 29.5995 95.4838 29.2137 96.4692C29.8057 97.3859 30.3901 98.3141 30.9477 99.2537C31.6047 100.354 32.2502 101.477 32.8575 102.619C32.9377 100.109 30.8905 93.5434 33.7169 93.3983C35.1989 93.3219 35.5694 95.1668 35.0996 97.7717C34.7177 99.7922 33.5221 101.973 32.9951 102.878C34.5427 105.68 35.8732 108.597 36.975 111.602C37.716 109.555 36.6924 101.943 39.6487 102.351C41.1154 102.55 41.1383 104.433 40.1873 106.904C39.3852 108.99 37.5632 111.106 37.0094 111.702C37.2462 112.362 37.4639 113.031 37.6664 113.699C37.8344 114.253 36.9903 114.562 36.8222 114.005C36.5854 113.218 36.3181 112.435 36.0354 111.656C35.0156 111.446 32.5978 110.858 30.8599 109.773C28.6178 108.367 27.5063 106.847 28.5682 105.804C30.5734 103.826 34.0225 109.693 35.9361 111.358C34.8654 108.561 33.6032 105.842 32.1586 103.218C31.3183 103.218 28.5529 103.146 26.4865 102.34C24.0191 101.374 22.644 100.09 23.4805 98.8679C25.1688 96.4196 30.0769 102.26 32.1013 103.119C31.5512 102.101 30.9885 101.102 30.413 100.125C29.7904 99.0551 29.1373 98.0047 28.4689 96.9658C27.7049 97.0842 24.8937 97.4776 22.6669 96.9963C20.0811 96.4349 18.5189 95.3845 19.1568 94.0476C20.4516 91.3205 26.3757 96.5036 28.4307 96.9047C26.6341 94.1144 24.6698 91.4357 22.5485 88.8836C22.1666 88.9791 19.0689 89.7201 16.6206 89.3763C13.9966 88.9944 12.3618 88.07 12.9003 86.7026C14.0271 83.8036 20.6731 88.9256 22.5409 88.8836C20.8094 86.7981 18.9785 84.803 17.0484 82.8983C16.1279 83.2803 13.7483 84.2275 11.6628 84.323C9.01965 84.4453 7.23974 83.8265 7.51093 82.3712C8.04185 79.5371 14.5084 82.6004 16.9032 82.7532C15.0261 80.8992 13.0565 79.1412 11.002 77.486C10.1388 77.9253 7.78977 79.0482 5.68901 79.2812C3.05734 79.5791 1.23922 79.0826 1.41492 77.6121C1.75868 74.7321 8.49256 77.4096 10.8569 77.3676C9.44745 76.2447 8.00366 75.1599 6.51785 74.1324C3.84416 73.3685 -2.33207 71.3136 -0.261869 68.4871Z" fill="white"/>
<path d="M34.4809 113.352C34.4809 113.352 32.892 106.259 25.1268 100.472C20.2187 96.813 10.4024 91.1639 8.32073 95.988C5.63176 102.214 22.583 112.317 34.4809 113.352ZM9.51243 99.6853C9.50046 99.6058 9.51847 99.5246 9.56293 99.4576C9.60738 99.3905 9.67513 99.3424 9.75306 99.3224C10.7622 99.0639 11.8015 98.9418 12.8431 98.9596C13.3969 98.9596 13.9431 98.9863 14.4435 99.0207C13.0433 98.3032 11.6035 97.6656 10.1312 97.1109C10.0546 97.0841 9.98995 97.031 9.9487 96.9611C9.90746 96.8912 9.89228 96.809 9.90586 96.729C9.91361 96.6824 9.93155 96.638 9.95843 96.5992C9.9853 96.5603 10.0204 96.5278 10.0613 96.5041C10.1022 96.4804 10.1478 96.466 10.1949 96.462C10.2419 96.4579 10.2893 96.4643 10.3336 96.4807C11.4566 96.8932 12.5796 97.3668 13.7331 97.9207C13.0637 97.1182 12.5459 96.2005 12.2052 95.2126C12.1875 95.1641 12.1817 95.1121 12.1883 95.0609C12.195 95.0097 12.2139 94.9608 12.2434 94.9185C12.2768 94.8742 12.3201 94.8384 12.3699 94.8138C12.4196 94.7893 12.4744 94.7767 12.5299 94.7772C12.6007 94.7767 12.6698 94.7986 12.7274 94.8398C12.7851 94.8809 12.8282 94.9392 12.8507 95.0063C13.4363 96.6828 14.5553 98.1211 16.0362 99.1009C17.27 99.7732 18.5037 100.51 19.7871 101.339C19.0652 100.181 18.587 98.8879 18.3815 97.5387C18.3736 97.4942 18.3756 97.4485 18.3875 97.4049C18.3994 97.3614 18.4208 97.3209 18.4502 97.2866C18.4815 97.2508 18.5204 97.2223 18.5639 97.2032C18.6075 97.184 18.6547 97.1747 18.7023 97.1759C18.7877 97.1742 18.8708 97.204 18.9356 97.2597C19.0004 97.3153 19.0425 97.3929 19.0537 97.4776C19.3554 99.3048 20.164 101.011 21.3875 102.401C22.3882 103.085 23.4309 103.833 24.5462 104.662C23.6579 103.29 23.0119 101.776 22.6365 100.186C22.6246 100.136 22.6243 100.085 22.6356 100.035C22.6468 99.9852 22.6693 99.9388 22.7014 99.8992C22.7346 99.8571 22.777 99.8232 22.8253 99.8C22.8736 99.7769 22.9266 99.7651 22.9802 99.7655C23.0527 99.7641 23.1234 99.7882 23.1799 99.8335C23.2365 99.8789 23.2753 99.9427 23.2896 100.014C23.8517 102.565 25.1852 104.881 27.1092 106.648C27.8349 107.217 28.5415 107.794 29.2176 108.352C28.4794 107.061 27.9132 105.68 27.5331 104.242C27.5185 104.193 27.5157 104.141 27.525 104.09C27.5343 104.04 27.5554 103.992 27.5866 103.952C27.62 103.909 27.6629 103.874 27.7119 103.85C27.7609 103.826 27.8147 103.814 27.8692 103.814C27.942 103.813 28.013 103.837 28.0706 103.881C28.1282 103.925 28.169 103.988 28.1863 104.059C28.8891 106.683 30.1495 108.978 31.7347 110.518C32.2885 111.014 32.7927 111.48 33.2625 111.931C33.3114 111.976 33.3453 112.035 33.3596 112.1C33.374 112.165 33.3681 112.232 33.3427 112.294C33.3176 112.359 33.2737 112.415 33.2166 112.455C33.1595 112.495 33.0917 112.518 33.0218 112.519C32.9798 112.519 32.9383 112.51 32.8996 112.494C32.8609 112.478 32.8258 112.454 32.7965 112.424C32.3916 112.042 31.9791 111.66 31.5704 111.278C29.0579 110.303 26.3961 109.77 23.7021 109.7C23.657 109.699 23.6125 109.688 23.5714 109.67C23.5303 109.651 23.4932 109.624 23.4623 109.591C23.4315 109.558 23.4074 109.52 23.3915 109.477C23.3757 109.435 23.3683 109.39 23.3698 109.345C23.3698 109.301 23.3785 109.258 23.3956 109.218C23.4126 109.178 23.4375 109.142 23.4689 109.111C23.5003 109.081 23.5374 109.057 23.5782 109.042C23.6189 109.026 23.6623 109.019 23.7059 109.02V109.02C25.9244 109.088 28.1237 109.452 30.245 110.105C29.187 109.188 28.0411 108.245 26.7654 107.237C23.599 105.961 20.4822 105.457 17.904 105.816H17.8773C17.7968 105.816 17.7194 105.785 17.6611 105.729C17.6027 105.674 17.568 105.598 17.5641 105.518C17.5553 105.427 17.5819 105.337 17.6381 105.266C17.6944 105.195 17.7759 105.148 17.8658 105.136C20.3041 104.86 22.7731 105.121 25.1001 105.9C23.6792 104.811 22.3691 103.856 21.1048 102.989C20.0072 102.689 18.8738 102.54 17.736 102.546C16.2848 102.552 14.8417 102.764 13.4504 103.176C13.4036 103.189 13.3545 103.192 13.3065 103.185C13.2585 103.177 13.2127 103.159 13.1722 103.132C13.1316 103.106 13.0973 103.07 13.0715 103.029C13.0457 102.988 13.029 102.942 13.0226 102.894C13.0052 102.812 13.0201 102.726 13.0642 102.655C13.1084 102.584 13.1783 102.533 13.2594 102.512C15.3218 101.894 17.4904 101.713 19.6266 101.981C18.3929 101.179 17.1669 100.453 15.979 99.7884C14.9403 99.6688 13.8962 99.6026 12.8507 99.5898C11.87 99.5733 10.8914 99.6863 9.94022 99.9259C9.90991 99.9315 9.87886 99.9315 9.84855 99.9259C9.77387 99.9283 9.70048 99.9061 9.63972 99.8626C9.57896 99.8191 9.53422 99.7568 9.51243 99.6853V99.6853Z" fill="white"/>
</g>
<path d="M76.9735 27.1289H35.115C33.7775 27.1289 32.6934 28.2131 32.6934 29.5505V112.576C32.6934 113.914 33.7775 114.998 35.115 114.998H76.9735C78.3109 114.998 79.3951 113.914 79.3951 112.576V29.5505C79.3951 28.2131 78.3109 27.1289 76.9735 27.1289Z" fill="#123A6B"/>
<path d="M37.6784 30.0891H74.3996C74.9629 30.0891 75.503 30.3128 75.9013 30.7111C76.2996 31.1093 76.5233 31.6495 76.5233 32.2127V101.614C76.5233 102.177 76.2996 102.718 75.9013 103.116C75.503 103.514 74.9629 103.738 74.3996 103.738H37.6784C37.1151 103.738 36.575 103.514 36.1767 103.116C35.7784 102.718 35.5547 102.177 35.5547 101.614V32.2127C35.5557 31.6498 35.7798 31.1102 36.1778 30.7122C36.5759 30.3141 37.1154 30.0901 37.6784 30.0891V30.0891Z" fill="#E27CF7"/>
<g opacity="0.3">
<path d="M116.136 -38.7813L-6.66016 84.015L-1.28009 89.3951L121.516 -33.4012L116.136 -38.7813Z" fill="white"/>
<path d="M110.15 -9.96407L-12.6465 112.832L-11.2069 114.272L111.589 -8.52453L110.15 -9.96407Z" fill="white"/>
<path d="M119.221 -11.1801L-3.5752 111.616L0.99732 116.189L123.794 -6.60756L119.221 -11.1801Z" fill="white"/>
<path d="M121.324 12.2388L-1.47266 135.035L3.90741 140.415L126.704 17.6189L121.324 12.2388Z" fill="white"/>
<path d="M130.995 23.7949L8.19922 146.591L9.63877 148.031L132.435 25.2345L130.995 23.7949Z" fill="white"/>
</g>
<path d="M64.5542 30.0853C64.5542 30.533 64.3763 30.9624 64.0597 31.279C63.7431 31.5957 63.3137 31.7735 62.866 31.7735H49.2263C48.7786 31.7735 48.3492 31.5957 48.0325 31.279C47.7159 30.9624 47.5381 30.533 47.5381 30.0853V30.0853C47.5381 29.6375 47.7159 29.2081 48.0325 28.8915C48.3492 28.5749 48.7786 28.397 49.2263 28.397H62.866C63.3137 28.397 63.7431 28.5749 64.0597 28.8915C64.3763 29.2081 64.5542 29.6375 64.5542 30.0853Z" fill="#123A6B"/>
<path d="M56.0436 113.061C58.0961 113.061 59.76 111.398 59.76 109.345C59.76 107.292 58.0961 105.629 56.0436 105.629C53.9911 105.629 52.3271 107.292 52.3271 109.345C52.3271 111.398 53.9911 113.061 56.0436 113.061Z" fill="#D5E6F0"/>
<path opacity="0.2" d="M58.7204 109.345C58.7204 109.874 58.5636 110.391 58.2698 110.83C57.9761 111.27 57.5585 111.613 57.0699 111.815C56.5814 112.018 56.0438 112.07 55.5251 111.967C55.0065 111.864 54.5301 111.609 54.1561 111.236C53.7822 110.862 53.5276 110.385 53.4244 109.867C53.3213 109.348 53.3742 108.81 53.5766 108.322C53.7789 107.833 54.1216 107.416 54.5613 107.122C55.001 106.828 55.5179 106.671 56.0467 106.671C56.7558 106.671 57.4359 106.953 57.9373 107.454C58.4387 107.956 58.7204 108.636 58.7204 109.345V109.345Z" fill="#123A6B"/>
<g opacity="0.7">
<path d="M70.0585 59.6334H64.7111C64.0736 58.0368 62.972 56.6679 61.5487 55.7036C60.1253 54.7394 58.4456 54.2239 56.7264 54.2239C55.0071 54.2239 53.3274 54.7394 51.904 55.7036C50.4807 56.6679 49.3791 58.0368 48.7416 59.6334H43.3942C42.5695 59.6364 41.7795 59.9654 41.1963 60.5485C40.6132 61.1316 40.2843 61.9217 40.2812 62.7463V89.0364C40.2833 89.8617 40.6117 90.6527 41.195 91.2367C41.7782 91.8206 42.5688 92.1501 43.3942 92.1531H70.0318C70.8571 92.1501 71.6478 91.8206 72.231 91.2367C72.8142 90.6527 73.1427 89.8617 73.1447 89.0364V62.7463C73.1418 61.9263 72.8165 61.1402 72.2392 60.5578C71.6618 59.9754 70.8786 59.6434 70.0585 59.6334Z" fill="#2FC9C1"/>
<path d="M56.7393 52.1509C57.7754 52.1493 58.7879 51.8407 59.6486 51.264C60.5094 50.6872 61.1799 49.8683 61.5754 48.9106C61.9708 47.9529 62.0735 46.8994 61.8705 45.8834C61.6674 44.8673 61.1677 43.9343 60.4345 43.2022C59.7013 42.4701 58.7675 41.9717 57.7512 41.7701C56.7349 41.5685 55.6816 41.6728 54.7245 42.0696C53.7673 42.4665 52.9493 43.1382 52.3739 43.9998C51.7984 44.8614 51.4912 45.8743 51.4912 46.9104C51.4912 47.5992 51.627 48.2813 51.8908 48.9176C52.1547 49.5539 52.5414 50.1319 53.0288 50.6187C53.5162 51.1054 54.0948 51.4912 54.7315 51.7542C55.3682 52.0171 56.0505 52.1519 56.7393 52.1509V52.1509Z" fill="#2FC9C1"/>
<path d="M69.0186 59.2896H63.6712C63.0345 57.6927 61.9334 56.3234 60.5103 55.3588C59.0872 54.3941 57.4075 53.8785 55.6883 53.8785C53.9691 53.8785 52.2894 54.3941 50.8663 55.3588C49.4432 56.3234 48.3422 57.6927 47.7055 59.2896H42.3581C41.5331 59.2916 40.7424 59.6203 40.1591 60.2036C39.5757 60.787 39.2471 61.5776 39.2451 62.4026V88.6926C39.2481 89.5173 39.5771 90.3073 40.1602 90.8905C40.7433 91.4736 41.5334 91.8025 42.3581 91.8055H68.9957C69.8217 91.8045 70.6137 91.4765 71.1985 90.8931C71.7832 90.3098 72.1132 89.5186 72.1163 88.6926V62.4026C72.1143 61.5802 71.7877 60.7919 71.2077 60.209C70.6276 59.6261 69.8409 59.2957 69.0186 59.2896V59.2896Z" fill="white"/>
<path d="M55.6926 51.8071C56.729 51.8071 57.7422 51.4998 58.604 50.9239C59.4658 50.3481 60.1375 49.5297 60.5341 48.5721C60.9307 47.6145 61.0345 46.5609 60.8323 45.5443C60.6301 44.5278 60.131 43.594 59.3981 42.8611C58.6652 42.1282 57.7315 41.6291 56.7149 41.4269C55.6984 41.2247 54.6447 41.3285 53.6871 41.7251C52.7296 42.1218 51.9111 42.7935 51.3353 43.6552C50.7595 44.517 50.4521 45.5302 50.4521 46.5667C50.4521 47.2549 50.5877 47.9363 50.8511 48.5721C51.1144 49.2079 51.5004 49.7856 51.987 50.2722C52.4737 50.7588 53.0513 51.1448 53.6871 51.4082C54.3229 51.6716 55.0044 51.8071 55.6926 51.8071V51.8071Z" fill="white"/>
</g>
<path d="M68.9307 64.996H42.4688V70.3587H68.9307V64.996Z" fill="#8AE2DE"/>
<path d="M64.6226 66.8982H49.543V68.4566H64.6226V66.8982Z" fill="white"/>
<path d="M46.5241 66.9135C46.5241 67.0979 46.4693 67.2783 46.3668 67.4316C46.2642 67.585 46.1184 67.7044 45.9479 67.7748C45.7774 67.8453 45.5898 67.8635 45.4089 67.8272C45.228 67.791 45.062 67.7018 44.9318 67.5711C44.8016 67.4404 44.7131 67.274 44.6776 67.0929C44.6421 66.9119 44.6611 66.7244 44.7322 66.5541C44.8033 66.3839 44.9234 66.2386 45.0771 66.1367C45.2309 66.0347 45.4115 65.9807 45.596 65.9815C45.7182 65.9815 45.8392 66.0056 45.952 66.0525C46.0649 66.0994 46.1674 66.1681 46.2536 66.2547C46.3399 66.3413 46.4082 66.444 46.4546 66.5571C46.501 66.6701 46.5246 66.7912 46.5241 66.9135Z" fill="white"/>
<path d="M47.0625 69.3694C46.9811 69.0373 46.7907 68.7421 46.5216 68.5311C46.2526 68.32 45.9206 68.2053 45.5786 68.2053C45.2367 68.2053 44.9046 68.32 44.6356 68.5311C44.3666 68.7421 44.1761 69.0373 44.0947 69.3694H47.0625Z" fill="white"/>
<path d="M68.9307 73.2998H42.4688V78.6625H68.9307V73.2998Z" fill="#8AE2DE"/>
<path d="M64.6226 75.2019H49.543V76.7603H64.6226V75.2019Z" fill="white"/>
<path d="M46.8236 75.6908V75.4616C46.8236 75.1317 46.6931 74.8152 46.4605 74.5812C46.2279 74.3471 45.9122 74.2147 45.5822 74.2126V74.2126C45.2523 74.2147 44.9366 74.3471 44.704 74.5812C44.4714 74.8152 44.3409 75.1317 44.3409 75.4616V75.6908C44.2873 75.7825 44.2583 75.8864 44.2568 75.9926V77.1384C44.2578 77.2978 44.3219 77.4503 44.4349 77.5627C44.548 77.6751 44.7009 77.7381 44.8603 77.7381H46.3118C46.4708 77.7381 46.6233 77.6749 46.7358 77.5625C46.8483 77.45 46.9114 77.2975 46.9114 77.1384V75.9926C46.9106 75.8858 46.8802 75.7813 46.8236 75.6908V75.6908ZM45.8534 77.1423H45.3072L45.4371 76.7259C45.3725 76.7002 45.3161 76.6573 45.2741 76.6019C45.2321 76.5465 45.206 76.4807 45.1986 76.4116C45.1913 76.3424 45.2029 76.2726 45.2323 76.2095C45.2617 76.1465 45.3077 76.0927 45.3655 76.054C45.4232 76.0152 45.4904 75.9929 45.5599 75.9896C45.6293 75.9862 45.6984 76.0018 45.7596 76.0348C45.8208 76.0678 45.8719 76.1169 45.9072 76.1767C45.9426 76.2366 45.961 76.305 45.9604 76.3745C45.96 76.4499 45.9373 76.5235 45.8952 76.5861C45.853 76.6486 45.7933 76.6973 45.7236 76.7259L45.8534 77.1423ZM44.8565 75.3929C44.7634 75.3922 44.6716 75.4145 44.5891 75.4578C44.5891 75.1944 44.6938 74.9419 44.88 74.7556C45.0662 74.5694 45.3189 74.4647 45.5822 74.4647C45.8456 74.4647 46.0982 74.5694 46.2844 74.7556C46.4707 74.9419 46.5753 75.1944 46.5753 75.4578C46.4927 75.4149 46.401 75.3926 46.3079 75.3929H44.8565Z" fill="white"/>
<path d="M65.0118 82.2872H46.3838V87.4894H65.0118V82.2872Z" fill="#F4BC2F"/>
<path d="M62.2729 84.2084H49.126V85.5644H62.2729V84.2084Z" fill="white"/>
<path d="M101.041 39.2751H71.523C69.2299 39.2751 67.3711 41.134 67.3711 43.427V59.2515C67.3711 61.5445 69.2299 63.4033 71.523 63.4033H101.041C103.334 63.4033 105.192 61.5445 105.192 59.2515V43.427C105.192 41.134 103.334 39.2751 101.041 39.2751Z" fill="#F4BC2F"/>
<g opacity="0.1">
<path d="M154.399 -42.8339L31.6025 79.9623L36.9853 85.3451L159.782 -37.4512L154.399 -42.8339Z" fill="white"/>
<path d="M148.412 -14.0205L25.6152 108.776L27.0548 110.215L149.851 -12.581L148.412 -14.0205Z" fill="white"/>
<path d="M157.483 -15.2419L34.6865 107.554L39.259 112.127L162.055 -10.6694L157.483 -15.2419Z" fill="white"/>
<path d="M159.585 8.18077L36.7891 130.977L42.1718 136.36L164.968 13.5635L159.585 8.18077Z" fill="white"/>
<path d="M169.257 19.7368L46.4609 142.533L47.9005 143.973L170.697 21.1763L169.257 19.7368Z" fill="white"/>
</g>
<path d="M81.7679 46.4865C81.7679 46.9304 81.6804 47.3699 81.5106 47.7801C81.3407 48.1902 81.0917 48.5628 80.7778 48.8767C80.4639 49.1906 80.0913 49.4396 79.6812 49.6095C79.271 49.7794 78.8315 49.8668 78.3876 49.8668H75.5229C74.6264 49.8668 73.7666 49.5107 73.1326 48.8767C72.4987 48.2428 72.1426 47.383 72.1426 46.4865V46.4865C72.1426 46.0427 72.23 45.6034 72.4 45.1935C72.5699 44.7836 72.8189 44.4112 73.1329 44.0976C73.4468 43.784 73.8195 43.5354 74.2296 43.3659C74.6397 43.1964 75.0792 43.1095 75.5229 43.11H78.3876C78.8313 43.1095 79.2708 43.1964 79.6808 43.3659C80.0909 43.5354 80.4636 43.784 80.7776 44.0976C81.0915 44.4112 81.3406 44.7836 81.5105 45.1935C81.6804 45.6034 81.7679 46.0427 81.7679 46.4865Z" fill="#F29A30"/>
<g opacity="0.5">
<path d="M98.1562 43.4346H94.1953V47.3955H98.1562V43.4346Z" fill="#F29A30"/>
<path opacity="0.6" d="M100.422 45.417H96.4609V49.3779H100.422V45.417Z" fill="#F98303"/>
</g>
<path d="M100.423 52.6092H72.1426V53.7092H100.423V52.6092Z" fill="#F98303"/>
<path d="M83.5478 56.4173H72.1426V57.5173H83.5478V56.4173Z" fill="#F98303"/>
<path d="M79.0484 58.4913H72.1426V59.5914H79.0484V58.4913Z" fill="#F98303"/>
<path d="M85.9691 58.4913H81.7676V59.5914H85.9691V58.4913Z" fill="#F98303"/>
<path d="M36.0566 45.0777C42.736 43.4951 46.8676 36.7975 45.285 30.1181C43.7024 23.4388 37.0048 19.3071 30.3255 20.8897C23.6461 22.4723 19.5144 29.17 21.097 35.8493C22.6797 42.5286 29.3773 46.6603 36.0566 45.0777Z" fill="#F98303"/>
<path d="M43.7931 32.9843C43.7931 35.0814 43.1712 37.1314 42.0062 38.875C40.8411 40.6187 39.1851 41.9777 37.2477 42.7803C35.3102 43.5828 33.1783 43.7928 31.1215 43.3836C29.0647 42.9745 27.1754 41.9647 25.6925 40.4818C24.2096 38.9989 23.1998 37.1096 22.7907 35.0528C22.3815 32.996 22.5915 30.8641 23.394 28.9266C24.1966 26.9892 25.5556 25.3332 27.2992 24.1681C29.0429 23.003 31.0929 22.3812 33.19 22.3812C36.0021 22.3812 38.6991 23.4983 40.6875 25.4867C42.676 27.4752 43.7931 30.1721 43.7931 32.9843V32.9843Z" fill="#F4BC2F"/>
<g opacity="0.1">
<path d="M105.783 -56.9353L-17.0137 65.861L-11.6336 71.2411L111.163 -51.5552L105.783 -56.9353Z" fill="white"/>
<path d="M99.7963 -28.118L-23 94.6782L-21.5605 96.1178L101.236 -26.6785L99.7963 -28.118Z" fill="white"/>
<path d="M108.867 -29.3394L-13.9297 93.4568L-9.35717 98.0294L113.439 -24.7669L108.867 -29.3394Z" fill="white"/>
<path d="M110.973 -5.91676L-11.8232 116.88L-6.44048 122.262L116.356 -0.533988L110.973 -5.91676Z" fill="white"/>
<path d="M120.642 5.63933L-2.1543 128.436L-0.714746 129.875L122.082 7.07888L120.642 5.63933Z" fill="white"/>
</g>
<path d="M34.838 35.7344C34.8439 35.5355 34.8094 35.3375 34.7365 35.1523C34.6636 34.9672 34.5539 34.7988 34.414 34.6572C34.0036 34.3036 33.5215 34.043 33.0008 33.8933C32.1112 33.6298 31.2882 33.1792 30.5869 32.5718C30.3139 32.2955 30.1015 31.9652 29.9634 31.6022C29.8253 31.2391 29.7644 30.8513 29.7847 30.4634C29.7556 29.696 30.03 28.948 30.5487 28.3817C31.1057 27.8181 31.8478 27.4749 32.638 27.4154V25.7538H33.8564V27.4306C34.6557 27.5223 35.3875 27.9225 35.896 28.5459C36.4155 29.2489 36.6759 30.1098 36.6332 30.9828H34.7884C34.8202 30.4401 34.6696 29.9023 34.3606 29.455C34.2255 29.2732 34.048 29.127 33.8437 29.0292C33.6394 28.9314 33.4143 28.8848 33.188 28.8935C32.9745 28.8747 32.7594 28.901 32.5567 28.9708C32.354 29.0405 32.1683 29.1522 32.0115 29.2984C31.7433 29.609 31.6064 30.0117 31.6296 30.4213C31.6214 30.6177 31.653 30.8137 31.7226 30.9975C31.7922 31.1813 31.8983 31.3491 32.0345 31.4908C32.4637 31.8546 32.9648 32.124 33.505 32.2815C34.386 32.5585 35.2001 33.015 35.896 33.6221C36.1646 33.897 36.3732 34.2246 36.5087 34.5842C36.6441 34.9439 36.7034 35.3277 36.6829 35.7114C36.7015 36.0986 36.6398 36.4854 36.5018 36.8476C36.3638 37.2097 36.1523 37.5395 35.8808 37.816C35.28 38.3684 34.5069 38.6963 33.6922 38.7442V40.23H32.4813V38.7518C31.6426 38.6875 30.8507 38.34 30.2354 37.7664C29.6523 37.2062 29.3697 36.3786 29.3875 35.2836V35.2455H31.1865C31.1865 35.9712 31.3622 36.4868 31.7174 36.8C32.0842 37.1152 32.5557 37.2815 33.039 37.266C33.5118 37.2957 33.9787 37.1487 34.3491 36.8535C34.5083 36.7147 34.6346 36.5423 34.7192 36.3488C34.8037 36.1553 34.8443 35.9454 34.838 35.7344Z" fill="#F29A30"/>
<path d="M21.7968 15.6396H14.3906V27.973C14.3906 27.973 14.6313 31.8346 21.7968 34.4663C28.9661 31.8499 29.2029 27.973 29.2029 27.973V15.6396H21.7968Z" fill="#123A6B"/>
<path d="M15.9375 17.2706V27.3199C15.9375 27.3199 16.1247 30.3755 21.7967 32.4457C27.4688 30.3755 27.6597 27.3199 27.6597 27.3199V17.2706H15.9375Z" fill="#E27CF7"/>
<path d="M25.301 20.3874L20.9085 24.8143L18.7925 23.0267C17.9254 22.2934 16.665 23.5424 17.5358 24.2795L20.3356 26.6477C20.5041 26.8092 20.7285 26.8994 20.962 26.8994C21.1954 26.8994 21.4199 26.8092 21.5884 26.6477L26.5538 21.6402C27.3636 20.8266 26.1069 19.5738 25.301 20.3874Z" fill="white"/>
<path d="M82.5412 8.79504C86.0208 8.79504 85.383 12.8094 85.383 12.8094V19.5509H68.4088V12.8094C68.4088 9.01276 65.7695 8.79504 65.7695 8.79504H82.5412Z" fill="#E8D4C4"/>
<path d="M50.4595 8.79504C44.5278 8.79504 45.6202 15.6397 45.6202 15.6397V27.1289H74.5533V15.6397C74.5533 9.16936 79.0528 8.79504 79.0528 8.79504H50.4595Z" fill="#F2E8DF"/>
<path d="M69.584 12.5229H50.9102V13.749H69.584V12.5229Z" fill="white"/>
<path d="M61.9745 16.9269H48.3311V18.153H61.9745V16.9269Z" fill="white"/>
<path d="M72.2634 16.9269H67.8633V18.153H72.2634V16.9269Z" fill="white"/>
<path d="M61.9745 20.3835H48.3311V21.6096H61.9745V20.3835Z" fill="white"/>
<path d="M72.2634 20.3835H67.8633V21.6096H72.2634V20.3835Z" fill="white"/>
<path d="M61.9745 23.4965H48.3311V24.7226H61.9745V23.4965Z" fill="white"/>
<path d="M72.2634 23.4965H67.8633V24.7226H72.2634V23.4965Z" fill="white"/>
<path d="M79.3947 66.6155C72.023 72.765 64.6016 73.9491 64.6016 73.9491C66.1294 89.5749 79.3947 97.955 79.3947 97.955C79.3947 97.955 92.6562 89.5749 94.1879 73.9491C94.1879 73.9491 86.7665 72.765 79.3947 66.6155Z" fill="#F98303"/>
<path d="M79.396 68.8156C73.0593 74.1019 66.6807 75.1331 66.6807 75.1331C67.9984 88.5627 79.396 95.7588 79.396 95.7588C79.396 95.7588 90.7935 88.5551 92.1113 75.1331C92.1113 75.1331 85.7326 74.1019 79.396 68.8156Z" fill="#F4BC2F"/>
<g opacity="0.1">
<path d="M149.537 -11.8066L26.7412 110.99L32.1213 116.37L154.918 -6.42652L149.537 -11.8066Z" fill="white"/>
<path d="M143.555 17.0068L20.7588 139.803L22.1983 141.243L144.995 18.4463L143.555 17.0068Z" fill="white"/>
<path d="M152.625 15.7881L29.8291 138.584L34.4016 143.157L157.198 20.3606L152.625 15.7881Z" fill="white"/>
<path d="M154.731 39.2108L31.9346 162.007L37.3146 167.387L160.111 44.5908L154.731 39.2108Z" fill="white"/>
<path d="M164.401 50.7642L41.6045 173.56L43.044 175L165.84 52.2037L164.401 50.7642Z" fill="white"/>
</g>
<path d="M87.1453 81.5959C87.1445 83.1285 86.6894 84.6265 85.8373 85.9004C84.9853 87.1744 83.7747 88.1671 82.3585 88.7531C80.9424 89.3391 79.3842 89.492 77.8811 89.1926C76.3781 88.8931 74.9975 88.1547 73.9141 87.0707C72.8306 85.9867 72.0929 84.6058 71.7941 83.1026C71.4954 81.5994 71.6491 80.0413 72.2358 78.6254C72.8225 77.2095 73.8158 75.9994 75.0902 75.148C76.3646 74.2966 77.8628 73.8422 79.3954 73.8422C80.4135 73.8422 81.4215 74.0427 82.362 74.4325C83.3026 74.8222 84.1571 75.3934 84.8768 76.1134C85.5965 76.8335 86.1672 77.6882 86.5565 78.6289C86.9457 79.5696 87.1458 80.5778 87.1453 81.5959Z" fill="#123A6B"/>
<path d="M82.2297 80.9389V80.4156C82.2287 79.6635 81.9308 78.9422 81.4008 78.4086C80.8707 77.875 80.1515 77.5723 79.3994 77.5662H79.3727C78.6199 77.5713 77.8997 77.8736 77.3688 78.4073C76.838 78.941 76.5395 79.6629 76.5386 80.4156V80.9351C76.4121 81.1436 76.3448 81.3826 76.3438 81.6264V84.2543C76.3448 84.6173 76.4897 84.9651 76.7467 85.2214C77.0038 85.4777 77.3519 85.6217 77.715 85.6217H81.0265C81.3889 85.6207 81.7361 85.4763 81.9923 85.2201C82.2485 84.9638 82.3929 84.6166 82.3939 84.2543V81.6264C82.4009 81.3868 82.3443 81.1495 82.2297 80.9389V80.9389ZM80.0182 84.2466H78.773L79.0709 83.2994C78.8843 83.224 78.7297 83.0861 78.6337 82.9092C78.5376 82.7324 78.5061 82.5276 78.5445 82.3301C78.5828 82.1325 78.6888 81.9544 78.844 81.8264C78.9993 81.6984 79.1943 81.6284 79.3956 81.6284C79.5968 81.6284 79.7918 81.6984 79.9471 81.8264C80.1024 81.9544 80.2083 82.1325 80.2467 82.3301C80.2851 82.5276 80.2535 82.7324 80.1575 82.9092C80.0614 83.0861 79.9068 83.224 79.7202 83.2994L80.0182 84.2466ZM77.7264 80.2552C77.5139 80.2565 77.3046 80.3076 77.1153 80.4042C77.1153 79.8034 77.3539 79.2273 77.7787 78.8026C78.2035 78.3778 78.7796 78.1392 79.3803 78.1392C79.981 78.1392 80.5571 78.3778 80.9819 78.8026C81.4067 79.2273 81.6453 79.8034 81.6453 80.4042C81.4581 80.305 81.2498 80.2526 81.038 80.2514L77.7264 80.2552Z" fill="white"/>
<path d="M96.5612 29.8866V27.7897H95.4153C95.2639 26.9229 94.9235 26.1 94.4184 25.3795L95.2282 24.5698L93.7423 23.0878L92.9326 23.8937C92.2119 23.3897 91.389 23.0507 90.5224 22.9006V21.7548H88.4255V22.9006C87.559 23.0507 86.7361 23.3897 86.0154 23.8937L85.2056 23.0878L83.7236 24.5698L84.5296 25.3795C84.0256 26.1002 83.6866 26.9231 83.5365 27.7897H82.3906V29.8866H83.5365C83.6866 30.7532 84.0256 31.576 84.5296 32.2968L83.7236 33.1065L85.2056 34.5923L86.0154 33.7826C86.7359 34.2877 87.5587 34.628 88.4255 34.7795V35.9253H90.5224V34.7795C91.3892 34.628 92.2121 34.2877 92.9326 33.7826L93.7423 34.5923L95.2282 33.1065L94.4184 32.2968C94.9235 31.5762 95.2639 30.7534 95.4153 29.8866H96.5612ZM89.4759 32.8047C88.6917 32.8047 87.9252 32.5722 87.2732 32.1366C86.6213 31.7009 86.1131 31.0817 85.813 30.3573C85.5129 29.6328 85.4344 28.8356 85.5874 28.0666C85.7403 27.2975 86.118 26.5911 86.6724 26.0366C87.2269 25.4821 87.9333 25.1045 88.7024 24.9515C89.4715 24.7985 90.2687 24.8771 90.9931 25.1771C91.7176 25.4772 92.3368 25.9854 92.7724 26.6374C93.2081 27.2894 93.4406 28.0559 93.4406 28.84C93.4406 29.8896 93.0245 30.8963 92.2834 31.6395C91.5424 32.3827 90.5369 32.8017 89.4874 32.8047H89.4759Z" fill="#123A6B"/>
<path d="M105.853 22.0184V20.7503H105.158C105.066 20.2255 104.86 19.7274 104.555 19.2912L105.044 18.8023L104.146 17.9047L103.657 18.3936C103.221 18.0895 102.725 17.8836 102.202 17.7901V17.0988H100.93V17.7901C100.407 17.8836 99.9103 18.0895 99.4747 18.3936L98.9857 17.9047L98.0881 18.8023L98.5771 19.2912C98.2713 19.7274 98.0653 20.2255 97.9735 20.7503H97.2822V22.0184H97.9735C98.0653 22.5431 98.2713 23.0412 98.5771 23.4774L98.0881 23.951L98.9857 24.8486L99.4747 24.3597C99.9103 24.6639 100.407 24.8698 100.93 24.9632V25.6546H102.202V24.9594C102.725 24.869 103.222 24.6643 103.657 24.3597L104.146 24.8486L105.044 23.951L104.555 23.4621C104.86 23.0259 105.066 22.5278 105.158 22.0031L105.853 22.0184ZM101.564 22.8892C101.267 22.8847 100.979 22.7926 100.734 22.6245C100.49 22.4564 100.3 22.2199 100.19 21.9445C100.08 21.6691 100.053 21.3673 100.114 21.0769C100.174 20.7865 100.319 20.5205 100.531 20.3123C100.742 20.1042 101.01 19.9631 101.302 19.9069C101.593 19.8506 101.894 19.8817 102.168 19.9963C102.442 20.1108 102.675 20.3037 102.84 20.5507C103.004 20.7976 103.092 21.0876 103.092 21.3843C103.092 21.584 103.053 21.7818 102.976 21.9662C102.899 22.1505 102.786 22.3176 102.644 22.4578C102.502 22.5979 102.333 22.7083 102.148 22.7824C101.962 22.8564 101.764 22.8928 101.564 22.8892V22.8892Z" fill="white"/>
<path d="M30.4841 60.699V58.4264H29.2427C29.0754 57.4877 28.7066 56.5964 28.1618 55.8138L29.0365 54.9392L27.4323 53.3311L26.5538 54.2058C25.7718 53.6606 24.8801 53.293 23.9412 53.1287V51.8873H21.6494V53.1287C20.7114 53.2921 19.8208 53.6598 19.0407 54.2058L18.1622 53.3311L16.5542 54.9392L17.4327 55.8138C16.8848 56.5947 16.5157 57.4867 16.3517 58.4264H15.1104V60.699H16.3517C16.5157 61.6387 16.8848 62.5307 17.4327 63.3116L16.5542 64.1863L18.1622 65.7943L19.0407 64.9197C19.8208 65.4656 20.7114 65.8334 21.6494 65.9968V67.2381H23.9412V65.9968C24.8803 65.833 25.7721 65.4654 26.5538 64.9197L27.4323 65.7943L29.0403 64.1863L28.1618 63.3116C28.7081 62.5299 29.077 61.6382 29.2427 60.699H30.4841ZM22.803 65.0343C21.7204 65.0335 20.6624 64.7117 19.7627 64.1097C18.863 63.5076 18.1621 62.6523 17.7485 61.6519C17.3349 60.6515 17.2273 59.5509 17.4392 58.4893C17.6512 57.4277 18.1732 56.4528 18.9392 55.6878C19.7052 54.9229 20.6808 54.4023 21.7427 54.1918C22.8046 53.9814 23.905 54.0905 24.9049 54.5055C25.9047 54.9205 26.7591 55.6226 27.3599 56.5231C27.9607 57.4236 28.2809 58.4821 28.2802 59.5646C28.2802 60.2845 28.1381 60.9973 27.862 61.6622C27.586 62.327 27.1814 62.9309 26.6714 63.439C26.1615 63.9472 25.5563 64.3497 24.8905 64.6234C24.2247 64.8971 23.5114 65.0368 22.7915 65.0343H22.803Z" fill="white"/>
<path d="M17.6572 46.3719V45.1038H16.9659C16.8741 44.579 16.6681 44.0809 16.3624 43.6447L16.8513 43.1558L15.969 42.2582L15.48 42.7471C15.045 42.4426 14.5481 42.2378 14.0248 42.1474V41.4523H12.7529V42.1474C12.2296 42.2378 11.7327 42.4426 11.2976 42.7471L10.8049 42.2582L9.91114 43.1558L10.4 43.6447C10.0943 44.0809 9.8883 44.579 9.79656 45.1038H9.09375V46.3719H9.78891C9.88066 46.8966 10.0867 47.3947 10.3924 47.8309L9.9035 48.3198L10.7973 49.2174L11.29 48.7285C11.7257 49.0326 12.2222 49.2386 12.7452 49.332V50.0234H14.0172V49.332C14.5402 49.2386 15.0367 49.0326 15.4724 48.7285L15.9613 49.2174L16.8589 48.3198L16.3509 47.8309C16.6566 47.3947 16.8627 46.8966 16.9544 46.3719H17.6572ZM13.3717 47.2504C13.074 47.2504 12.7831 47.1621 12.5356 46.9967C12.2881 46.8314 12.0952 46.5963 11.9813 46.3214C11.8674 46.0464 11.8376 45.7438 11.8957 45.4519C11.9537 45.1599 12.0971 44.8918 12.3075 44.6813C12.518 44.4709 12.7861 44.3275 13.0781 44.2695C13.37 44.2114 13.6726 44.2412 13.9476 44.3551C14.2225 44.469 14.4576 44.6619 14.623 44.9094C14.7883 45.1569 14.8766 45.4478 14.8766 45.7455C14.8766 46.1446 14.718 46.5274 14.4358 46.8096C14.1536 47.0918 13.7708 47.2504 13.3717 47.2504V47.2504Z" fill="#123A6B"/>
<path d="M33.5651 74.7512C32.4859 74.8021 31.432 75.0948 30.4813 75.6079C29.5306 76.1209 28.7074 76.8411 28.0725 77.7152C26.2162 80.366 26.4225 82.6577 26.22 84.2085C25.9259 86.4811 24.8488 88.5895 26.0023 90.3388C27.1558 92.0882 22.9467 94.6893 26.0787 96.1217C29.2107 97.554 38.8704 96.9734 40.2111 95.713C42.5563 93.5205 41.2538 91.5917 40.975 88.9715C40.8375 87.6728 40.108 86.2977 40.593 84.4987C41.0781 82.6997 40.8528 74.7512 33.5651 74.7512Z" fill="#373A5C"/>
<path d="M32.4181 88.303C32.4181 88.303 32.1202 90.4344 30.5312 91.3587C30.5312 91.3587 33.1629 93.3945 35.6456 91.6566C35.31 90.5563 35.0773 89.4273 34.9505 88.2839L32.4181 88.303Z" fill="#FFB89F"/>
<path d="M38.6384 83.0778C38.6384 86.6797 36.3887 89.5978 33.6195 89.5978C30.8503 89.5978 28.6006 86.6797 28.6006 83.0778C28.6006 79.476 30.8465 76.5579 33.6195 76.5579C36.3925 76.5579 38.6384 79.476 38.6384 83.0778Z" fill="#FFB89F"/>
<path d="M29.2488 84.2695C29.2488 84.6859 28.9928 85.0334 28.6835 85.0334C28.3741 85.0334 28.1182 84.6935 28.1182 84.2695C28.1182 83.8456 28.3702 83.5056 28.6835 83.5056C28.9967 83.5056 29.2488 83.8494 29.2488 84.2695Z" fill="#FFB89F"/>
<path d="M39.1258 84.2695C39.1258 84.6859 38.8737 85.0334 38.5605 85.0334C38.2473 85.0334 37.999 84.6935 37.999 84.2695C37.999 83.8456 38.2511 83.5056 38.5605 83.5056C38.8699 83.5056 39.1258 83.8494 39.1258 84.2695Z" fill="#FFB89F"/>
<path d="M30.5324 91.3777C30.5324 91.3777 33.229 92.982 35.6468 91.691C35.6468 91.691 40.2799 92.0729 41.0553 92.6C42.6366 93.6809 44.2141 98.6349 44.2141 98.6349L40.5473 100.056L39.6955 97.1491C39.6955 97.1491 40.0355 101.595 38.057 102.309C38.057 102.309 37.675 105.136 39.241 110.235C39.241 110.235 32.8089 112.733 26.5181 110.235C26.5181 110.235 27.7327 107.699 28.1261 102.546C28.1261 102.546 25.9833 99.9374 26.8274 97.1988L26.0941 100.102L22.5381 98.3255C22.5381 98.3255 24.2874 92.7031 25.7007 92.2142C27.1139 91.7253 30.5324 91.3777 30.5324 91.3777Z" fill="white"/>
<path d="M24.8369 114.475C26.6474 113.669 34.9396 110.032 40.7492 108.612C47.2997 107.011 50.2752 108.925 48.3272 111.713C46.4174 114.425 32.308 116.988 24.9973 116.824C23.3625 117.064 22.1708 117.866 20.219 118.157C18.2672 118.447 17.3926 118.378 17.4155 116.411C17.4384 114.444 20.8722 114.582 21.9722 114.75C23.0722 114.918 24.8331 114.494 24.8369 114.475Z" fill="#FFB89F"/>
<path d="M20.0742 114.696C20.0742 114.696 15.3876 114.589 15.1355 116.805C14.8834 119.02 19.7189 118.436 20.4447 118.134C20.4447 118.134 16.3501 117.183 20.0742 114.696Z" fill="#123A6B"/>
<path d="M23.7588 114.696L24.1407 117.019C28.6174 116.934 33.0835 116.551 37.5092 115.873C43.7275 114.807 49.9762 112.783 49.4339 109.788C48.8915 106.794 45.8969 106.962 41.5045 108.058C37.112 109.154 23.7588 114.696 23.7588 114.696Z" fill="#D37DE2"/>
<path d="M40.9557 114.475C39.1452 113.669 30.853 110.032 25.0434 108.612C18.489 107.011 15.4945 108.925 17.4654 111.713C19.3752 114.425 33.4808 116.988 40.7953 116.824C42.43 117.064 43.6217 117.866 45.5697 118.157C47.5177 118.447 48.4 118.378 48.3733 116.411C48.3466 114.444 44.9166 114.582 43.8204 114.75C42.7241 114.918 40.9557 114.494 40.9557 114.475Z" fill="#FFB89F"/>
<path d="M45.7162 114.696C45.7162 114.696 50.4028 114.589 50.6549 116.805C50.907 119.02 46.0714 118.436 45.3457 118.134C45.3457 118.134 49.4365 117.183 45.7162 114.696Z" fill="#123A6B"/>
<path d="M42.0323 114.696L41.6503 117.019C37.1736 116.934 32.7075 116.551 28.2818 115.873C22.0598 114.807 15.8148 112.783 16.3572 109.788C16.8996 106.794 19.8941 106.962 24.2866 108.058C28.6791 109.154 42.0323 114.696 42.0323 114.696Z" fill="#D37DE2"/>
<path d="M34.1293 95.7779H32.0477C31.6152 95.7779 31.2646 96.1285 31.2646 96.5609V101.733C31.2646 102.165 31.6152 102.516 32.0477 102.516H34.1293C34.5618 102.516 34.9123 102.165 34.9123 101.733V96.5609C34.9123 96.1285 34.5618 95.7779 34.1293 95.7779Z" fill="#D5E6F0"/>
<path d="M34.1293 96.3012H32.0477C31.6152 96.3012 31.2646 96.6518 31.2646 97.0842V102.252C31.2646 102.685 31.6152 103.035 32.0477 103.035H34.1293C34.5618 103.035 34.9123 102.685 34.9123 102.252V97.0842C34.9123 96.6518 34.5618 96.3012 34.1293 96.3012Z" fill="#123A6B"/>
<path d="M33.4866 97.9856C33.4866 98.0612 33.4642 98.135 33.4222 98.1978C33.3802 98.2606 33.3206 98.3096 33.2508 98.3385C33.181 98.3674 33.1042 98.375 33.0301 98.3602C32.956 98.3455 32.8879 98.3091 32.8345 98.2557C32.7811 98.2023 32.7447 98.1342 32.73 98.0601C32.7153 97.9861 32.7228 97.9093 32.7517 97.8395C32.7806 97.7697 32.8296 97.71 32.8924 97.668C32.9552 97.6261 33.0291 97.6037 33.1046 97.6037C33.2059 97.6037 33.3031 97.6439 33.3747 97.7155C33.4463 97.7872 33.4866 97.8843 33.4866 97.9856Z" fill="#D5E6F0"/>
<path d="M33.2581 100.002C33.0786 99.8915 32.815 100.277 32.3872 100.598C32.0482 100.812 31.6635 100.943 31.2643 100.98V99.9985C31.2643 99.9756 29.9694 101.526 29.9694 101.526C29.9694 101.526 26.1193 104.933 25.4891 104.376C24.8589 103.818 25.4891 99.4294 25.4891 99.4294L22.9873 98.2377C20.5848 105.147 23.2967 108.363 24.2783 108.356C26.5968 108.356 30.5309 103.6 30.5309 103.6C31.1533 103.539 31.7564 103.35 32.3032 103.046C33.0709 102.558 33.4338 100.109 33.2581 100.002Z" fill="#FFB89F"/>
<path d="M33.0368 100.002C33.2163 99.8916 33.4798 100.277 33.9076 100.598C34.2479 100.812 34.634 100.943 35.0344 100.98V99.9985C35.0344 99.9756 36.3254 101.526 36.3254 101.526C36.3254 101.526 40.1794 104.926 40.7943 104.364C41.4093 103.803 40.8134 99.544 40.8134 99.544L43.51 98.5509C45.9163 105.46 42.9906 108.352 42.0051 108.344C39.6905 108.344 35.7525 103.589 35.7525 103.589C35.1314 103.527 34.5297 103.338 33.984 103.035C33.2239 102.558 32.8611 100.109 33.0368 100.002Z" fill="#FFB89F"/>
<path d="M28.6838 83.5095C28.6838 83.5095 32.9083 82.5355 34.9326 80.3736C34.9326 80.3736 36.6629 82.6042 38.5612 83.5095L39.0234 83.8303C39.0234 83.8303 40.6161 75.3127 33.8517 75.3127C27.0872 75.3127 28.2255 83.8303 28.2255 83.8303L28.6838 83.5095Z" fill="#373A5C"/>
</g>
</svg>
