<svg width="21" height="24" viewBox="0 0 21 24" fill="none" xmlns="http://www.w3.org/2000/svg">
<mask id="path-1-outside-1_120_2989" maskUnits="userSpaceOnUse" x="0" y="0" width="21" height="24" fill="black">
<rect fill="white" width="21" height="24"/>
<path d="M18.9407 23H2.31058C2.06376 22.8766 1.79074 22.7888 1.57562 22.6219C1.14623 22.2882 0.999578 21.8093 1 21.2604C1.00451 15.5839 1.00563 9.90745 1.00337 4.23099C1.00337 4.15928 1.00338 4.08758 1.00718 4.01631C1.03846 3.32098 1.47757 2.73386 2.12885 2.5522C2.3465 2.4918 2.58149 2.48485 2.80971 2.47746C3.16852 2.46572 3.52818 2.47442 3.90855 2.47442C3.90855 2.28321 3.90094 2.1198 3.90855 1.95727C3.94067 1.36885 4.36203 0.997723 4.98034 1.00598C5.54159 1.0138 5.94013 1.41535 5.95239 1.98899C5.95619 2.14414 5.95239 2.29928 5.95239 2.45573H15.2807C15.2963 2.2028 15.2807 1.96119 15.3318 1.73564C15.4476 1.21979 15.9235 0.93905 16.5008 1.01119C16.975 1.07073 17.3233 1.4675 17.344 1.97856C17.3507 2.13936 17.344 2.30103 17.344 2.47442C17.7806 2.47442 18.1846 2.45747 18.5865 2.4805C18.8321 2.49484 19.0937 2.52396 19.3147 2.62738C19.9757 2.93159 20.2504 3.49264 20.25 4.23099C20.2449 9.89992 20.2439 15.5693 20.247 21.2391C20.247 21.3177 20.247 21.3964 20.242 21.4751C20.2273 21.8026 20.1147 22.1175 19.9194 22.3767C19.7242 22.636 19.4559 22.8269 19.1512 22.9235C19.081 22.9465 19.0125 22.9744 18.9407 23ZM1.6424 7.72586C1.63817 7.81278 1.63226 7.87753 1.63226 7.94054C1.63226 11.9714 1.63226 16.0021 1.63226 20.0327C1.63226 20.6694 2.02065 21.0666 2.636 21.0666C6.65438 21.0666 10.6725 21.0666 14.6903 21.0666C15.1898 21.0666 15.4738 20.7684 15.4751 20.2482C15.4751 19.5964 15.4751 18.9445 15.4751 18.2926C15.4751 17.3757 16.0245 16.8077 16.9192 16.8033C17.5392 16.8003 18.1588 16.8033 18.7788 16.8033C19.3544 16.8033 19.6241 16.5291 19.6241 15.9364C19.6241 13.2802 19.6241 10.6241 19.6241 7.96793C19.6241 7.89274 19.6165 7.81756 19.6118 7.72586H6.49336C6.40305 7.72907 6.31263 7.72529 6.22287 7.71456C6.05382 7.68762 5.96465 7.56855 5.96549 7.40123C5.96115 7.32814 5.98395 7.25607 6.0293 7.19961C6.07465 7.14314 6.13915 7.10647 6.20977 7.09703C6.29919 7.08382 6.38956 7.07887 6.47983 7.08225C10.7625 7.08225 15.0452 7.08225 19.3278 7.08225H19.6237V6.8554C19.6237 5.96756 19.6237 5.07971 19.6237 4.19187C19.6237 3.50393 19.2433 3.12063 18.5671 3.11933C17.7596 3.11933 16.9518 3.11933 16.1437 3.11933H15.9235C15.9235 3.40441 15.9235 3.66126 15.9235 3.91766C15.9235 4.28705 15.951 4.31964 16.2992 4.41177C16.4683 4.45522 16.5638 4.56909 16.5558 4.75248C16.5486 4.9224 16.4117 5.04408 16.2304 5.04539C16.1609 5.04588 16.0916 5.03755 16.0241 5.02061C15.8188 4.97208 15.6354 4.85358 15.5038 4.68435C15.3722 4.51513 15.3001 4.30511 15.2993 4.08844C15.2921 3.7699 15.2993 3.45092 15.2993 3.13237H4.53193C4.53193 3.40224 4.53193 3.65864 4.53193 3.91461C4.53193 4.26879 4.57419 4.32441 4.9123 4.40916C5.08896 4.45261 5.19335 4.59777 5.16588 4.77073C5.13672 4.95325 5.02429 5.04408 4.84679 5.04408C4.77746 5.04434 4.70836 5.03602 4.64096 5.01931C4.19931 4.90632 3.91573 4.53302 3.90686 4.04586C3.90136 3.74165 3.90686 3.43744 3.90686 3.11803C3.47662 3.11803 3.08061 3.11803 2.68503 3.11803C2.01093 3.11803 1.63268 3.5035 1.63141 4.19101C1.62916 5.07871 1.62916 5.96654 1.63141 6.85453C1.63141 6.92363 1.63817 6.99274 1.64282 7.08096H1.90697C2.8886 7.08096 3.87051 7.08096 4.8527 7.08096C4.936 7.07737 5.01942 7.08393 5.10121 7.10051C5.25674 7.14006 5.33112 7.25479 5.3252 7.41775C5.32752 7.48682 5.30529 7.5544 5.26266 7.60783C5.22003 7.66126 5.15993 7.69689 5.0936 7.70805C5.01126 7.72236 4.92769 7.72775 4.84425 7.72412C3.86262 7.72412 2.88071 7.72412 1.89851 7.72412L1.6424 7.72586ZM1.62887 21.3894C1.63732 21.4794 1.65059 21.5687 1.66861 21.6572C1.79328 22.1 2.15336 22.3555 2.65291 22.3555H18.5899C19.2378 22.3555 19.619 21.9696 19.6207 21.3069C19.6237 20.2474 19.6207 19.1874 19.6207 18.1279C19.6207 18.0754 19.6114 18.0223 19.6038 17.9385C19.526 18.0136 19.4707 18.0649 19.4183 18.1188C18.4433 19.1209 17.4627 20.1179 16.4962 21.1287C16.1112 21.5311 15.6666 21.7167 15.1163 21.7154C11.0565 21.7081 6.99685 21.7081 2.93734 21.7154C2.48766 21.7145 2.04643 21.7023 1.62676 21.3894H1.62887ZM16.1027 20.5372L19.1034 17.4491H18.3494C17.8347 17.4491 17.3195 17.4439 16.8047 17.4535C16.4167 17.4609 16.1116 17.7459 16.1048 18.1336C16.093 18.9449 16.1027 19.758 16.1027 20.5372ZM5.31253 2.46312C5.36156 1.9538 5.3362 1.7565 5.15531 1.70348C5.00866 1.66002 4.80156 1.64829 4.68407 1.72478C4.41697 1.89861 4.56996 2.20281 4.52643 2.46356L5.31253 2.46312ZM16.6851 2.46746C16.7772 2.11111 16.7354 1.80821 16.5642 1.70956C16.3931 1.61091 16.2029 1.59743 16.0528 1.7265C15.8141 1.93163 15.9611 2.2128 15.9206 2.46529L16.6851 2.46746Z"/>
</mask>
<path d="M18.9407 23H2.31058C2.06376 22.8766 1.79074 22.7888 1.57562 22.6219C1.14623 22.2882 0.999578 21.8093 1 21.2604C1.00451 15.5839 1.00563 9.90745 1.00337 4.23099C1.00337 4.15928 1.00338 4.08758 1.00718 4.01631C1.03846 3.32098 1.47757 2.73386 2.12885 2.5522C2.3465 2.4918 2.58149 2.48485 2.80971 2.47746C3.16852 2.46572 3.52818 2.47442 3.90855 2.47442C3.90855 2.28321 3.90094 2.1198 3.90855 1.95727C3.94067 1.36885 4.36203 0.997723 4.98034 1.00598C5.54159 1.0138 5.94013 1.41535 5.95239 1.98899C5.95619 2.14414 5.95239 2.29928 5.95239 2.45573H15.2807C15.2963 2.2028 15.2807 1.96119 15.3318 1.73564C15.4476 1.21979 15.9235 0.93905 16.5008 1.01119C16.975 1.07073 17.3233 1.4675 17.344 1.97856C17.3507 2.13936 17.344 2.30103 17.344 2.47442C17.7806 2.47442 18.1846 2.45747 18.5865 2.4805C18.8321 2.49484 19.0937 2.52396 19.3147 2.62738C19.9757 2.93159 20.2504 3.49264 20.25 4.23099C20.2449 9.89992 20.2439 15.5693 20.247 21.2391C20.247 21.3177 20.247 21.3964 20.242 21.4751C20.2273 21.8026 20.1147 22.1175 19.9194 22.3767C19.7242 22.636 19.4559 22.8269 19.1512 22.9235C19.081 22.9465 19.0125 22.9744 18.9407 23ZM1.6424 7.72586C1.63817 7.81278 1.63226 7.87753 1.63226 7.94054C1.63226 11.9714 1.63226 16.0021 1.63226 20.0327C1.63226 20.6694 2.02065 21.0666 2.636 21.0666C6.65438 21.0666 10.6725 21.0666 14.6903 21.0666C15.1898 21.0666 15.4738 20.7684 15.4751 20.2482C15.4751 19.5964 15.4751 18.9445 15.4751 18.2926C15.4751 17.3757 16.0245 16.8077 16.9192 16.8033C17.5392 16.8003 18.1588 16.8033 18.7788 16.8033C19.3544 16.8033 19.6241 16.5291 19.6241 15.9364C19.6241 13.2802 19.6241 10.6241 19.6241 7.96793C19.6241 7.89274 19.6165 7.81756 19.6118 7.72586H6.49336C6.40305 7.72907 6.31263 7.72529 6.22287 7.71456C6.05382 7.68762 5.96465 7.56855 5.96549 7.40123C5.96115 7.32814 5.98395 7.25607 6.0293 7.19961C6.07465 7.14314 6.13915 7.10647 6.20977 7.09703C6.29919 7.08382 6.38956 7.07887 6.47983 7.08225C10.7625 7.08225 15.0452 7.08225 19.3278 7.08225H19.6237V6.8554C19.6237 5.96756 19.6237 5.07971 19.6237 4.19187C19.6237 3.50393 19.2433 3.12063 18.5671 3.11933C17.7596 3.11933 16.9518 3.11933 16.1437 3.11933H15.9235C15.9235 3.40441 15.9235 3.66126 15.9235 3.91766C15.9235 4.28705 15.951 4.31964 16.2992 4.41177C16.4683 4.45522 16.5638 4.56909 16.5558 4.75248C16.5486 4.9224 16.4117 5.04408 16.2304 5.04539C16.1609 5.04588 16.0916 5.03755 16.0241 5.02061C15.8188 4.97208 15.6354 4.85358 15.5038 4.68435C15.3722 4.51513 15.3001 4.30511 15.2993 4.08844C15.2921 3.7699 15.2993 3.45092 15.2993 3.13237H4.53193C4.53193 3.40224 4.53193 3.65864 4.53193 3.91461C4.53193 4.26879 4.57419 4.32441 4.9123 4.40916C5.08896 4.45261 5.19335 4.59777 5.16588 4.77073C5.13672 4.95325 5.02429 5.04408 4.84679 5.04408C4.77746 5.04434 4.70836 5.03602 4.64096 5.01931C4.19931 4.90632 3.91573 4.53302 3.90686 4.04586C3.90136 3.74165 3.90686 3.43744 3.90686 3.11803C3.47662 3.11803 3.08061 3.11803 2.68503 3.11803C2.01093 3.11803 1.63268 3.5035 1.63141 4.19101C1.62916 5.07871 1.62916 5.96654 1.63141 6.85453C1.63141 6.92363 1.63817 6.99274 1.64282 7.08096H1.90697C2.8886 7.08096 3.87051 7.08096 4.8527 7.08096C4.936 7.07737 5.01942 7.08393 5.10121 7.10051C5.25674 7.14006 5.33112 7.25479 5.3252 7.41775C5.32752 7.48682 5.30529 7.5544 5.26266 7.60783C5.22003 7.66126 5.15993 7.69689 5.0936 7.70805C5.01126 7.72236 4.92769 7.72775 4.84425 7.72412C3.86262 7.72412 2.88071 7.72412 1.89851 7.72412L1.6424 7.72586ZM1.62887 21.3894C1.63732 21.4794 1.65059 21.5687 1.66861 21.6572C1.79328 22.1 2.15336 22.3555 2.65291 22.3555H18.5899C19.2378 22.3555 19.619 21.9696 19.6207 21.3069C19.6237 20.2474 19.6207 19.1874 19.6207 18.1279C19.6207 18.0754 19.6114 18.0223 19.6038 17.9385C19.526 18.0136 19.4707 18.0649 19.4183 18.1188C18.4433 19.1209 17.4627 20.1179 16.4962 21.1287C16.1112 21.5311 15.6666 21.7167 15.1163 21.7154C11.0565 21.7081 6.99685 21.7081 2.93734 21.7154C2.48766 21.7145 2.04643 21.7023 1.62676 21.3894H1.62887ZM16.1027 20.5372L19.1034 17.4491H18.3494C17.8347 17.4491 17.3195 17.4439 16.8047 17.4535C16.4167 17.4609 16.1116 17.7459 16.1048 18.1336C16.093 18.9449 16.1027 19.758 16.1027 20.5372ZM5.31253 2.46312C5.36156 1.9538 5.3362 1.7565 5.15531 1.70348C5.00866 1.66002 4.80156 1.64829 4.68407 1.72478C4.41697 1.89861 4.56996 2.20281 4.52643 2.46356L5.31253 2.46312ZM16.6851 2.46746C16.7772 2.11111 16.7354 1.80821 16.5642 1.70956C16.3931 1.61091 16.2029 1.59743 16.0528 1.7265C15.8141 1.93163 15.9611 2.2128 15.9206 2.46529L16.6851 2.46746Z" fill="#662D91"/>
<path d="M18.9407 23H2.31058C2.06376 22.8766 1.79074 22.7888 1.57562 22.6219C1.14623 22.2882 0.999578 21.8093 1 21.2604C1.00451 15.5839 1.00563 9.90745 1.00337 4.23099C1.00337 4.15928 1.00338 4.08758 1.00718 4.01631C1.03846 3.32098 1.47757 2.73386 2.12885 2.5522C2.3465 2.4918 2.58149 2.48485 2.80971 2.47746C3.16852 2.46572 3.52818 2.47442 3.90855 2.47442C3.90855 2.28321 3.90094 2.1198 3.90855 1.95727C3.94067 1.36885 4.36203 0.997723 4.98034 1.00598C5.54159 1.0138 5.94013 1.41535 5.95239 1.98899C5.95619 2.14414 5.95239 2.29928 5.95239 2.45573H15.2807C15.2963 2.2028 15.2807 1.96119 15.3318 1.73564C15.4476 1.21979 15.9235 0.93905 16.5008 1.01119C16.975 1.07073 17.3233 1.4675 17.344 1.97856C17.3507 2.13936 17.344 2.30103 17.344 2.47442C17.7806 2.47442 18.1846 2.45747 18.5865 2.4805C18.8321 2.49484 19.0937 2.52396 19.3147 2.62738C19.9757 2.93159 20.2504 3.49264 20.25 4.23099C20.2449 9.89992 20.2439 15.5693 20.247 21.2391C20.247 21.3177 20.247 21.3964 20.242 21.4751C20.2273 21.8026 20.1147 22.1175 19.9194 22.3767C19.7242 22.636 19.4559 22.8269 19.1512 22.9235C19.081 22.9465 19.0125 22.9744 18.9407 23ZM1.6424 7.72586C1.63817 7.81278 1.63226 7.87753 1.63226 7.94054C1.63226 11.9714 1.63226 16.0021 1.63226 20.0327C1.63226 20.6694 2.02065 21.0666 2.636 21.0666C6.65438 21.0666 10.6725 21.0666 14.6903 21.0666C15.1898 21.0666 15.4738 20.7684 15.4751 20.2482C15.4751 19.5964 15.4751 18.9445 15.4751 18.2926C15.4751 17.3757 16.0245 16.8077 16.9192 16.8033C17.5392 16.8003 18.1588 16.8033 18.7788 16.8033C19.3544 16.8033 19.6241 16.5291 19.6241 15.9364C19.6241 13.2802 19.6241 10.6241 19.6241 7.96793C19.6241 7.89274 19.6165 7.81756 19.6118 7.72586H6.49336C6.40305 7.72907 6.31263 7.72529 6.22287 7.71456C6.05382 7.68762 5.96465 7.56855 5.96549 7.40123C5.96115 7.32814 5.98395 7.25607 6.0293 7.19961C6.07465 7.14314 6.13915 7.10647 6.20977 7.09703C6.29919 7.08382 6.38956 7.07887 6.47983 7.08225C10.7625 7.08225 15.0452 7.08225 19.3278 7.08225H19.6237V6.8554C19.6237 5.96756 19.6237 5.07971 19.6237 4.19187C19.6237 3.50393 19.2433 3.12063 18.5671 3.11933C17.7596 3.11933 16.9518 3.11933 16.1437 3.11933H15.9235C15.9235 3.40441 15.9235 3.66126 15.9235 3.91766C15.9235 4.28705 15.951 4.31964 16.2992 4.41177C16.4683 4.45522 16.5638 4.56909 16.5558 4.75248C16.5486 4.9224 16.4117 5.04408 16.2304 5.04539C16.1609 5.04588 16.0916 5.03755 16.0241 5.02061C15.8188 4.97208 15.6354 4.85358 15.5038 4.68435C15.3722 4.51513 15.3001 4.30511 15.2993 4.08844C15.2921 3.7699 15.2993 3.45092 15.2993 3.13237H4.53193C4.53193 3.40224 4.53193 3.65864 4.53193 3.91461C4.53193 4.26879 4.57419 4.32441 4.9123 4.40916C5.08896 4.45261 5.19335 4.59777 5.16588 4.77073C5.13672 4.95325 5.02429 5.04408 4.84679 5.04408C4.77746 5.04434 4.70836 5.03602 4.64096 5.01931C4.19931 4.90632 3.91573 4.53302 3.90686 4.04586C3.90136 3.74165 3.90686 3.43744 3.90686 3.11803C3.47662 3.11803 3.08061 3.11803 2.68503 3.11803C2.01093 3.11803 1.63268 3.5035 1.63141 4.19101C1.62916 5.07871 1.62916 5.96654 1.63141 6.85453C1.63141 6.92363 1.63817 6.99274 1.64282 7.08096H1.90697C2.8886 7.08096 3.87051 7.08096 4.8527 7.08096C4.936 7.07737 5.01942 7.08393 5.10121 7.10051C5.25674 7.14006 5.33112 7.25479 5.3252 7.41775C5.32752 7.48682 5.30529 7.5544 5.26266 7.60783C5.22003 7.66126 5.15993 7.69689 5.0936 7.70805C5.01126 7.72236 4.92769 7.72775 4.84425 7.72412C3.86262 7.72412 2.88071 7.72412 1.89851 7.72412L1.6424 7.72586ZM1.62887 21.3894C1.63732 21.4794 1.65059 21.5687 1.66861 21.6572C1.79328 22.1 2.15336 22.3555 2.65291 22.3555H18.5899C19.2378 22.3555 19.619 21.9696 19.6207 21.3069C19.6237 20.2474 19.6207 19.1874 19.6207 18.1279C19.6207 18.0754 19.6114 18.0223 19.6038 17.9385C19.526 18.0136 19.4707 18.0649 19.4183 18.1188C18.4433 19.1209 17.4627 20.1179 16.4962 21.1287C16.1112 21.5311 15.6666 21.7167 15.1163 21.7154C11.0565 21.7081 6.99685 21.7081 2.93734 21.7154C2.48766 21.7145 2.04643 21.7023 1.62676 21.3894H1.62887ZM16.1027 20.5372L19.1034 17.4491H18.3494C17.8347 17.4491 17.3195 17.4439 16.8047 17.4535C16.4167 17.4609 16.1116 17.7459 16.1048 18.1336C16.093 18.9449 16.1027 19.758 16.1027 20.5372ZM5.31253 2.46312C5.36156 1.9538 5.3362 1.7565 5.15531 1.70348C5.00866 1.66002 4.80156 1.64829 4.68407 1.72478C4.41697 1.89861 4.56996 2.20281 4.52643 2.46356L5.31253 2.46312ZM16.6851 2.46746C16.7772 2.11111 16.7354 1.80821 16.5642 1.70956C16.3931 1.61091 16.2029 1.59743 16.0528 1.7265C15.8141 1.93163 15.9611 2.2128 15.9206 2.46529L16.6851 2.46746Z" stroke="#662D91" stroke-width="0.4" mask="url(#path-1-outside-1_120_2989)"/>
<path d="M8.32258 10.1422C8.33909 11.0655 8.33909 12.0097 8.32258 12.9481C8.31247 13.5249 7.96804 13.8128 7.26962 13.8279L3.86691 13.8275L3.86337 13.9274C3.86356 13.9274 3.86374 13.9274 3.86393 13.9274C4.05348 13.9341 4.25607 13.9341 4.49915 13.9341H4.50039L4.76222 13.9339L5.0258 13.9337H5.02684H5.02788H5.02892H5.02997H5.03101H5.03205H5.03309H5.03413H5.03518H5.03622H5.03726H5.0383H5.03934H5.04038H5.04143H5.04247H5.04351H5.04455H5.04559H5.04664H5.04768H5.04872H5.04976H5.0508H5.05185H5.05289H5.05393H5.05497H5.05601H5.05705H5.0581H5.05914H5.06018H5.06122H5.06226H5.06331H5.06435H5.06539H5.06643H5.06748H5.06852H5.06956H5.0706H5.07164H5.07269H5.07373H5.07477H5.07581H5.07685H5.0779H5.07894H5.07998H5.08102H5.08207H5.08311H5.08415H5.08519H5.08624H5.08728H5.08832H5.08936H5.09041H5.09145H5.09249H5.09353H5.09458H5.09562H5.09666H5.0977H5.09875H5.09979H5.10083H5.10188H5.10292H5.10396H5.105H5.10605H5.10709H5.10813H5.10918H5.11022H5.11126H5.11231H5.11335H5.11439H5.11544H5.11648H5.11752H5.11856H5.11961H5.12065H5.1217H5.12274H5.12378H5.12483H5.12587H5.12691H5.12796H5.129H5.13004H5.13109H5.13213H5.13317H5.13422H5.13526H5.13631H5.13735H5.13839H5.13944H5.14048H5.14153H5.14257H5.14362H5.14466H5.1457H5.14675H5.14779H5.14884H5.14988H5.15093H5.15197H5.15302H5.15406H5.1551H5.15615H5.15719H5.15824H5.15928H5.16033H5.16137H5.16242H5.16346H5.16451H5.16556H5.1666H5.16765H5.16869H5.16974H5.17078H5.17183H5.17287H5.17392H5.17496H5.17601H5.17706H5.1781H5.17915H5.18019H5.18124H5.18229H5.18333H5.18438H5.18542H5.18647H5.18752H5.18856H5.18961H5.19066H5.1917H5.19275H5.1938H5.19484H5.19589H5.19694H5.19798H5.19903H5.20008H5.20113H5.20217H5.20322H5.20427H5.20531H5.20636H5.20741H5.20846H5.2095H5.21055H5.2116H5.21265H5.2137H5.21474H5.21579H5.21684H5.21789H5.21894H5.21999H5.22103H5.22208H5.22313H5.22418H5.22523H5.22628H5.22733H5.22838H5.22942H5.23047H5.23152H5.23257H5.23362H5.23467H5.23572H5.23677H5.23782H5.23887H5.23992H5.24097H5.24202H5.24307H5.24412H5.24517H5.24622H5.24727H5.24832H5.24937H5.25042H5.25147H5.25252H5.25357H5.25462H5.25568H5.25673H5.25778H5.25883H5.25988H5.26093H5.26198H5.26303H5.26409H5.26514H5.26619H5.26724H5.26829H5.26935H5.2704H5.27145H5.2725H5.27356H5.27461H5.27566H5.27671H5.27777H5.27882H5.27987H5.28093H5.28198H5.28303H5.28409H5.28514H5.28619H5.28725H5.2883H5.28935H5.29041H5.29146H5.29252H5.29357H5.29462H5.29568H5.29673H5.29779H5.29884H5.2999H5.30095H5.30201H5.30306H5.30412H5.30517H5.30623H5.30728H5.30834H5.3094H5.31045H5.31151H5.31256H5.31362H5.31468H5.31573H5.31679H5.31785H5.3189H5.31996H5.32102H5.32207H5.32313H5.32419H5.32524H5.3263H5.32736H5.32842H5.32948H5.33053H5.33159H5.33265H5.33371H5.33477H5.33582H5.33688H5.33794H5.339H5.34006H5.34112H5.34218H5.34324H5.3443H5.34536H5.34642H5.34748H5.34853H5.34959H5.35065H5.35172H5.35278H5.35384H5.3549H5.35596H5.35702H5.35808H5.35914H5.3602H5.36126H5.36232H5.36338H5.36445H5.36551H5.36657H5.36763H5.36869H5.36976H5.37082H5.37188H5.37294H5.37401H5.37507H5.37613H5.3772H5.37826H5.37932H5.38039H5.38145H5.38251H5.38358H5.38464H5.38571H5.38677H5.38783H5.3889H5.38996H5.39103H5.39209H5.39316H5.39422H5.39529H5.39635H5.39742H5.39849H5.39955H5.40062H5.40168H5.40275H5.40382H5.40488H5.40595H5.40702H5.40808H5.40915H5.41022H5.41129H5.41235H5.41342H5.41449H5.41556H5.41662H5.41769H5.41876H5.41983H5.4209H5.42197H5.42304H5.42411H5.42517H5.42624H5.42731H5.42838H5.42945H5.43052H5.43159H5.43266H5.43373H5.4348H5.43587H5.43695H5.43802H5.43909H5.44016H5.44123H5.4423H5.44337H5.44445H5.44552H5.44659H5.44766H5.44873H5.44981H5.45088H5.45195H5.45303H5.4541H5.45517H5.45625H5.45732H5.45839H5.45947H5.46054H5.46162H5.46269H5.46377H5.46484H5.46592H5.46699H5.46807H5.46914H5.47022H5.47129H5.47237H5.47345H5.47452H5.4756H5.47668H5.47775H5.47883H5.47991H5.48098H5.48206H5.48314H5.48422H5.48529H5.48637H5.48745H5.48853H5.48961H5.49069H5.49177H5.49284H5.49392H5.495H5.49608H5.49716H5.49824H5.49932H5.5004H5.50148H5.50256H5.50364H5.50473H5.50581H5.50689H5.50797H5.50905H5.51013H5.51121H5.5123H5.51338H5.51446H5.51554H5.51663H5.51771H5.51879H5.51988H5.52096H5.52204H5.52313H5.52421H5.5253H5.52638H5.52747H5.52855H5.52964H5.53072H5.53181H5.53289H5.53398H5.53506H5.53615H5.53724H5.53832H5.53941H5.5405H5.54158H5.54267H5.54376H5.54485H5.54593H5.54702H5.54811H5.5492H5.55029H5.55138H5.55246H5.55355H5.55464H5.55573H5.55682H5.55791H5.559H5.56009H5.56118H5.56227H5.56336H5.56446H5.56555H5.56664H5.56773H5.56877H5.56981H5.57085H5.57188H5.57292H5.57396H5.575H5.57604H5.57708H5.57812H5.57915H5.58019H5.58123H5.58227H5.58331H5.58435H5.58538H5.58642H5.58746H5.5885H5.58954H5.59057H5.59161H5.59265H5.59369H5.59473H5.59577H5.5968H5.59784H5.59888H5.59992H5.60096H5.60199H5.60303H5.60407H5.60511H5.60615H5.60718H5.60822H5.60926H5.6103H5.61133H5.61237H5.61341H5.61445H5.61549H5.61652H5.61756H5.6186H5.61964H5.62067H5.62171H5.62275H5.62379H5.62482H5.62586H5.6269H5.62794H5.62898H5.63001H5.63105H5.63209H5.63313H5.63416H5.6352H5.63624H5.63727H5.63831H5.63935H5.64039H5.64142H5.64246H5.6435H5.64454H5.64557H5.64661H5.64765H5.64869H5.64972H5.65076H5.6518H5.65283H5.65387H5.65491H5.65595H5.65698H5.65802H5.65906H5.6601H5.66113H5.66217H5.66321H5.66424H5.66528H5.66632H5.66736H5.66839H5.66943H5.67047H5.6715H5.67254H5.67358H5.67461H5.67565H5.67669H5.67773H5.67876H5.6798H5.68084H5.68187H5.68291H5.68395H5.68499H5.68602H5.68706H5.6881H5.68913H5.69017H5.69121H5.69224H5.69328H5.69432H5.69535H5.69639H5.69743H5.69847H5.6995H5.70054H5.70158H5.70261H5.70365H5.70469H5.70572H5.70676H5.7078H5.70884H5.70987H5.71091H5.71195H5.71298H5.71402H5.71506H5.71609H5.71713H5.71817H5.7192H5.72024H5.72128H5.72231H5.72335H5.72439H5.72543H5.72646H5.7275H5.72854H5.72957H5.73061H5.73165H5.73268H5.73372H5.73476H5.73579H5.73683H5.73787H5.73891H5.73994H5.74098H5.74202H5.74305H5.74409H5.74513H5.74616H5.7472H5.74824H5.74927H5.75031H5.75135H5.75239H5.75342H5.75446H5.7555H5.75653H5.75757H5.75861H5.75964H5.76068H5.76172H5.76276H5.76379H5.76483H5.76587H5.7669H5.76794H5.76898H5.77002H5.77105H5.77209H5.77313H5.77416H5.7752H5.77624H5.77728H5.77831H5.77935H5.78039H5.78142H5.78246H5.7835H5.78454H5.78557H5.78661H5.78765H5.78868H5.78972H5.79076H5.7918H5.79283H5.79387H5.79491H5.79595H5.79698H5.79802H5.79906H5.8001H5.80113H5.80217H5.80321H5.80425H5.80528H5.80632H5.80736H5.8084H5.80943H5.81047H5.81151H5.81255H5.81358H5.81462H5.81566H5.8167H5.81773H5.81877H5.81981H5.82085H5.82188H5.82292H5.82396H5.825H5.82604H5.82707H5.82811H5.82915H5.83019H5.83122H5.83226H5.8333H5.83434H5.83538H5.83641H5.83745H5.83849H5.83953H5.84057H5.8416H5.84264H5.84368H5.84472H5.84576H5.84679H5.84783H5.84887H5.84991H5.85095H5.85199H5.85302H5.85406H5.8551H5.85614H5.85718H5.85822H5.85925H5.86029H5.86133H5.86237H5.86341H5.86445H5.86548H5.86652H5.86756H5.8686H5.86964H5.87068H5.87172H5.87276H5.87379H5.87483H5.87587H5.87691H5.87795H5.87899H5.88003H5.88107H5.8821H5.88314H5.88418H5.88522H5.88626H5.8873H5.88834H5.88938H5.89042H5.89146H5.8925H5.89353H5.89457H5.89561H5.89665H5.89769H5.89873H5.89977H5.90081H5.90185H5.90289H5.90393H5.90497H5.90601H5.90705H5.90809H5.90913H5.91017H5.91121H5.91225H5.91329H5.91433H5.91537H5.91641H5.91744H5.91848H5.91952H5.92056H5.92161H5.92265H5.92369H5.92473H5.92577H5.92681H5.92785H5.92889H5.92993H5.93097H5.93201H5.93305H5.93409H5.93513H5.93617H5.93721H5.93825H5.93929H5.94033H5.94137H5.94241H5.94345H5.94449H5.94554H5.94658H5.94762H5.94866H5.9497H5.95074H5.95178H5.95282H5.95386H5.9549H5.95595H5.95699H5.95803H5.95907H5.96011H5.96115H5.96219H5.96324H5.96428H5.96532H5.96636H5.9674H5.96844H5.96948H5.97053H5.97157H5.97261H5.97365H5.97469H5.97574H5.97678H5.97782H5.97886H5.9799H5.98095H5.98199H5.98303H5.98407H5.98512H5.98616H5.9872H5.98824H5.98929H5.99033H5.99137H5.99241H5.99346H5.9945H5.99554H5.99658H5.99763H5.99867H5.99971H6.00076H6.0018H6.00284H6.00388H6.00493H6.00597H6.00701H6.00806H6.0091H6.01014H6.01119H6.01223H6.01327H6.01432H6.01536H6.01641H6.01745H6.01849H6.01954H6.02058H6.02163H6.02267H6.02371H6.02476H6.0258H6.02685H6.02789H6.02893H6.02998H6.03102H6.03207H6.03311H6.03416H6.0352H6.03624H6.03729H6.03833H6.03938H6.04042H6.04147H6.04251H6.04356H6.0446H6.04565H6.04669H6.04774H6.04878H6.04983H6.05087H6.05192H6.05297H6.05401H6.05506H6.0561H6.05715H6.05819H6.05924H6.06029H6.06133H6.06238H6.06342H6.06447H6.06552H6.06656H6.06761H6.06865H6.0697H6.07075H6.07179H6.07284H6.07389H6.07493H6.07598H6.07703H6.07807H6.07912H6.08017H6.08121H6.08226H6.08331H6.08435H6.0854H6.08645H6.0875H6.08854H6.08959H6.09064H6.09169H6.09273H6.09378H6.09483H6.09588H6.09692H6.09797H6.09902H6.10007H6.10112H6.10216H6.10321H6.10426H6.10531H6.10636H6.1074H6.10845H6.1095H6.11055H6.1116H6.11264H6.11369H6.11474H6.11579H6.11684H6.11788H6.11893H6.11998H6.12103H6.12207H6.12312H6.12417H6.12522H6.12627H6.12731H6.12836H6.12941H6.13046H6.1315H6.13255H6.1336H6.13465H6.1357H6.13674H6.13779H6.13884H6.13989H6.14093H6.14198H6.14303H6.14408H6.14512H6.14617H6.14722H6.14827H6.14931H6.15036H6.15141H6.15246H6.1535H6.15455H6.1556H6.15665H6.15769H6.15874H6.15979H6.16084H6.16188H6.16293H6.16398H6.16502H6.16607H6.16712H6.16817H6.16921H6.17026H6.17131H6.17236H6.1734H6.17445H6.1755H6.17654H6.17759H6.17864H6.17969H6.18073H6.18178H6.18283H6.18388H6.18492H6.18597H6.18702H6.18806H6.18911H6.19016H6.19121H6.19225H6.1933H6.19435H6.19539H6.19644H6.19749H6.19853H6.19958H6.20063H6.20168H6.20272H6.20377H6.20482H6.20586H6.20691H6.20796H6.209H6.21005H6.2111H6.21214H6.21319H6.21424H6.21529H6.21633H6.21738H6.21843H6.21947H6.22052H6.22157H6.22261H6.22366H6.22471H6.22575H6.2268H6.22785H6.22889H6.22994H6.23099H6.23203H6.23308H6.23413H6.23517H6.23622H6.23727H6.23831H6.23936H6.24041H6.24145H6.2425H6.24355H6.24459H6.24564H6.24669H6.24773H6.24878H6.24983H6.25087H6.25192H6.25297H6.25401H6.25506H6.25611H6.25715H6.2582H6.25924H6.26029H6.26134H6.26238H6.26343H6.26448H6.26552H6.26657H6.26762H6.26866H6.26971H6.27076H6.2718H6.27285H6.27389H6.27494H6.27599H6.27703H6.27808H6.27913H6.28017H6.28122H6.28227H6.28331H6.28436H6.2854H6.28645H6.2875H6.28854H6.28959H6.29064H6.29168H6.29273H6.29377H6.29482H6.29587H6.29691H6.29796H6.299H6.30005H6.3011H6.30214H6.30319H6.30424H6.30528H6.30633H6.30737H6.30842H6.30947H6.31051H6.31156H6.3126H6.31365H6.3147H6.31574H6.31679H6.31783H6.31888H6.31993H6.32097H6.32202H6.32306H6.32411H6.32516H6.3262H6.32725H6.32829H6.32934H6.33039H6.33143H6.33248H6.33352H6.33457H6.33562H6.33666H6.33771H6.33875H6.3398H6.34085H6.34189H6.34294H6.34398H6.34503H6.34607H6.34712H6.34817H6.34921H6.35026H6.3513H6.35235H6.3534H6.35444H6.35549H6.35653H6.35758H6.35862H6.35967H6.36072H6.36176H6.36281H6.36385H6.3649H6.36594H6.36699H6.36804H6.36908H6.37013H6.37117H6.37222H6.37326H6.37431H6.37536H6.3764H6.37745H6.37849H6.37954H6.38058H6.38163H6.38268H6.38372H6.38477H6.38581H6.38686H6.3879H6.38895H6.38999H6.39104H6.39209H6.39313H6.39418H6.39522H6.39627H6.39731H6.39836H6.39941H6.40045H6.4015H6.40254H6.40359H6.40463H6.40568H6.40672H6.40777H6.40881H6.40986H6.41091H6.41195H6.413H6.41404H6.41509H6.41613H6.41718H6.41822H6.41927H6.42031H6.42136H6.42241H6.42345H6.4245H6.42554H6.42659H6.42763H6.42868H6.42972H6.43077H6.43181H6.43286H6.4339H6.43495H6.436H6.43704H6.43809H6.43913H6.44018H6.44122H6.44227H6.44331H6.44436H6.4454H6.44645H6.44749H6.44854H6.44959H6.45063H6.45168H6.45272H6.45377H6.45481H6.45586H6.4569H6.45795H6.45899H6.46004H6.46108H6.46213H6.46317H6.46422H6.46526H6.46631H6.46735H6.4684H6.46945H6.47049H6.47154H6.47258H6.47363H6.47467H6.47572H6.47676H6.47781H6.47885H6.4799H6.48094H6.48199H6.48303H6.48408H6.48512H6.48617H6.48721H6.48826H6.4893H6.49035H6.49139H6.49244H6.49348H6.49453H6.49557H6.49662H6.49767H6.49871H6.49976H6.5008H6.50185H6.50289H6.50394H6.50498H6.50603H6.50707H6.50812H6.50916H6.51021H6.51125H6.5123H6.51334H6.51439H6.51543H6.51648H6.51752H6.51857H6.51961H6.52066H6.5217H6.52275H6.52379H6.52484H6.52588H6.52693H6.52797H6.52902H6.53006H6.53111H6.53215H6.5332H6.53424H6.53529H6.53633H6.53738H6.53842H6.53947H6.54051H6.54156H6.5426H6.54365H6.54469H6.54574H6.54678H6.54783H6.54887H6.54992H6.55096H6.55201H6.55305H6.5541H6.55514H6.55619H6.55723H6.55828H6.55932H6.56037H6.56141H6.56246H6.5635H6.56455H6.56559H6.56664H6.56768H6.56873H6.56977H6.57082H6.57186H6.57291H6.57395H6.575H6.57604H6.57709H6.57813H6.57918H6.58022H6.58127H6.58231H6.58336H6.5844H6.58545H6.58649H6.58754H6.58858H6.58963H6.59067H6.59172H6.59276H6.59381H6.59485H6.5959H6.59694H6.59799H6.59903H6.60008H6.60112H6.60217H6.60321H6.60426H6.6053H6.60635H6.60739H6.60844H6.60948H6.61053H6.61157H6.61262H6.61366H6.61471H6.61575H6.6168H6.61784H6.61889H6.61993H6.62098H6.62202H6.62307H6.62411H6.62516H6.6262H6.62725H6.62829H6.62934H6.63038H6.63142H6.63247H6.63351H6.63456H6.6356C6.84735 13.9337 7.05783 13.9323 7.2717 13.9279L7.27178 13.9279C7.63198 13.9201 7.919 13.842 8.11834 13.6754C8.32113 13.5059 8.41715 13.2586 8.42257 12.9498C8.43909 12.0103 8.43909 11.0649 8.42257 10.1404M8.32258 10.1422L8.42257 10.1405C8.42257 10.1405 8.42257 10.1404 8.42257 10.1404M8.32258 10.1422C8.313 9.57514 7.97443 9.28097 7.31699 9.2681M8.32258 10.1422L8.42257 10.1404M8.42257 10.1404C8.41742 9.83671 8.32321 9.59122 8.12833 9.42185C7.93595 9.25465 7.66042 9.17482 7.31904 9.16812M7.31699 9.2681L7.31895 9.16812C7.31898 9.16812 7.31901 9.16812 7.31904 9.16812M7.31699 9.2681L7.31904 9.16812M7.31699 9.2681L3.8566 9.16679C4.44274 9.15613 5.02253 9.15079 5.58423 9.15079C6.17045 9.15079 6.7567 9.15657 7.31904 9.16812M2.74695 10.1223C2.73096 11.0782 2.73096 12.0377 2.74695 12.9741L3.85656 9.16679C3.50991 9.17298 3.23275 9.24851 3.04008 9.41176C2.84425 9.5777 2.75208 9.82006 2.74695 10.1223L2.74695 10.1223ZM7.72352 13.1533L7.81312 13.1977L7.72352 13.1533C7.70754 13.1855 7.68345 13.2161 7.65158 13.2427C7.61967 13.2694 7.58085 13.2912 7.53698 13.3064C7.49312 13.3215 7.44564 13.3295 7.39737 13.3295H3.75778H3.75511V13.3295C3.70756 13.3295 3.66074 13.3218 3.61737 13.3071C3.57333 13.2921 3.53429 13.2704 3.50212 13.2439C3.46997 13.2174 3.44558 13.1869 3.42931 13.1547C3.41313 13.1227 3.40504 13.0892 3.40476 13.0559V10.0286C3.40476 9.99525 3.4126 9.96166 3.42858 9.92954C3.4446 9.89733 3.46874 9.86676 3.50068 9.84018C3.53263 9.81358 3.57148 9.79175 3.61536 9.77663C3.65925 9.76152 3.70675 9.75362 3.75501 9.75367H3.75511H7.39737C7.49545 9.75367 7.58664 9.7863 7.65142 9.84029C7.71568 9.89385 7.7472 9.96216 7.7472 10.0286V13.0541V13.0543C7.74724 13.0876 7.73945 13.1212 7.72352 13.1533Z" fill="#662D91" stroke="#662D91" stroke-width="0.2" stroke-miterlimit="10"/>
</svg>
