<svg width="10" height="19" viewBox="0 0 10 19" fill="none" xmlns="http://www.w3.org/2000/svg">
<path d="M3.60578 19V16.9325C2.22668 16.6332 1.00735 16.0257 0 14.9581L1.73826 13.2506C2.03985 13.4716 2.31018 13.7092 2.61521 13.8842C3.90509 14.6302 5.25445 14.7451 6.64117 14.2129C7.13684 14.0236 7.51812 13.6925 7.56349 13.0978C7.61497 12.4222 7.38505 11.8734 6.81961 11.5015C6.29153 11.1539 5.69864 10.9669 5.11375 10.7571C4.2368 10.4434 3.34995 10.1575 2.49587 9.78848C1.69022 9.4408 1.02984 8.87137 0.586026 8.0683C0.166616 7.31196 0.0293513 6.49027 0.125816 5.63533C0.304637 4.04741 1.2262 3.05744 2.58814 2.45038C2.86899 2.33193 3.15743 2.23388 3.45137 2.15696C3.5791 2.12092 3.62256 2.07221 3.62066 1.93441C3.61341 1.35903 3.6176 0.783665 3.6176 0.208291V0H6.03989C6.04294 0.0696943 6.04866 0.135026 6.04866 0.20076C6.04866 0.715547 6.05666 1.22796 6.04484 1.74117C6.04065 1.91936 6.08298 1.97876 6.26371 2.00291C7.27677 2.13517 8.23989 2.43851 9.12333 2.97943C9.16412 3.00438 9.20415 3.03091 9.24381 3.05863C9.25296 3.06496 9.25715 3.07843 9.27011 3.09823L7.97604 5.18073C7.73317 5.0655 7.50249 4.94076 7.26114 4.84454C6.16724 4.40895 5.04741 4.32738 3.91462 4.64298C3.62866 4.72669 3.3557 4.85244 3.10402 5.0164C2.26977 5.5498 2.38416 6.84389 3.17074 7.31116C3.79185 7.67983 4.46977 7.88456 5.13854 8.12373C5.93619 8.40845 6.73992 8.68485 7.51621 9.02104C8.16439 9.3014 8.71268 9.75284 9.15802 10.3278C9.62661 10.9341 9.87978 11.6298 9.96557 12.3945C10.0495 13.1441 9.99036 13.8767 9.67351 14.5693C9.23694 15.524 8.50374 16.1532 7.57913 16.5361C7.14066 16.7183 6.67167 16.8256 6.2107 16.942C6.07077 16.9773 6.04484 17.0307 6.04522 17.1606C6.04522 17.7728 6.04027 18.385 6.03684 18.9972L3.60578 19Z" fill="#662D91"/>
</svg>
