<svg width="22" height="20" viewBox="0 0 22 20" fill="none" xmlns="http://www.w3.org/2000/svg">
<path d="M21.9988 3.71801C21.9702 4.10263 21.9423 4.48766 21.9125 4.87269C21.816 6.10478 21.6401 7.32214 21.2295 8.49444C20.906 9.4177 20.4647 10.2725 19.7302 10.9414C19.0296 11.5792 18.1741 11.8671 17.2531 11.9655C16.083 12.0912 14.9526 11.9364 13.9023 11.3736C13.6463 11.2364 13.4161 11.0516 13.1539 10.8751C12.9756 11.1901 12.7809 11.5063 12.6133 11.8356C11.8321 13.3716 11.3704 15.0072 11.1745 16.7132C11.0747 17.5803 11.0432 18.4561 10.995 19.3286C10.9708 19.7656 10.8162 19.9942 10.496 19.9999C10.1664 20.0056 9.9844 19.775 9.98276 19.3249C9.97703 17.6733 9.87847 16.0292 9.62491 14.3956C9.37053 12.7544 8.95542 11.1598 8.2888 9.63233C8.2524 9.55041 8.20699 9.46848 8.17509 9.39926C7.78248 9.54344 7.41769 9.71384 7.03448 9.81214C5.63089 10.1718 4.25347 10.1267 2.94476 9.44145C2.13049 9.01587 1.60619 8.31339 1.19394 7.51629C0.650419 6.46606 0.350239 5.33473 0.228365 4.1698C0.105674 2.98194 0.0647643 1.78302 0.00137358 0.5882C-0.0186661 0.205627 0.181329 0 0.55145 0C2.04952 0 3.54348 0.06636 5.01742 0.362096C6.03985 0.5669 7.0214 0.882295 7.924 1.42462C9.17423 2.17583 9.8114 3.29939 9.97172 4.72482C10.0875 5.75581 9.97703 6.75934 9.56724 7.71496C9.43309 8.0279 9.22412 8.30766 9.06053 8.60872C9.02414 8.6759 9.00122 8.78608 9.03108 8.84793C9.81181 10.4765 10.269 12.2014 10.5684 13.9742C10.5799 14.043 10.5979 14.1114 10.6183 14.2048C10.7819 13.7173 10.9242 13.2549 11.0903 12.8006C11.4412 11.8449 11.9031 10.9339 12.4664 10.0862C12.4859 10.049 12.4974 10.0083 12.5001 9.96642C12.5029 9.92458 12.4969 9.88263 12.4824 9.84327C11.8734 8.3863 11.8002 6.91253 12.3372 5.41952C12.6542 4.53845 13.2672 3.90397 14.05 3.41899C15.0974 2.77099 16.2584 2.45355 17.4588 2.25284C18.7675 2.0337 20.0917 1.98373 21.4172 1.97308C21.7133 1.97063 21.9035 2.10457 22 2.38064L21.9988 3.71801ZM13.2374 9.09369C13.304 9.01177 13.3294 8.97573 13.3572 8.94378C14.2233 7.95532 15.2544 7.12523 16.4044 6.49063C16.6763 6.33247 16.9591 6.19395 17.2506 6.07612C17.5778 5.95078 17.8731 6.13306 17.9332 6.45787C17.9741 6.6893 17.8763 6.85928 17.6031 6.99322C16.842 7.36515 16.1178 7.79606 15.4544 8.32609C14.8175 8.83091 14.2442 9.41149 13.7473 10.055C13.9796 10.2189 14.1854 10.3983 14.4226 10.5179C15.3837 11.0037 16.4032 11.0827 17.4543 10.9156C18.4767 10.7518 19.2648 10.2418 19.7445 9.32635C20.0282 8.79723 20.261 8.24231 20.4398 7.66908C20.8197 6.41281 20.9244 5.11067 20.9714 3.80444C20.9813 3.53533 20.9714 3.2658 20.9714 2.99259C20.942 2.98705 20.9122 2.98404 20.8823 2.98358C19.8549 3.05854 18.8248 3.1036 17.8023 3.21911C16.8257 3.32929 15.876 3.58038 14.9931 4.03177C14.4401 4.3144 13.913 4.64618 13.5797 5.18809C12.83 6.40504 12.8828 7.70348 13.2374 9.09369ZM0.999682 1.04942C1.02381 2.16109 1.07901 3.27645 1.26264 4.38321C1.41437 5.29909 1.63359 6.19285 2.05852 7.02435C2.43191 7.75509 2.91449 8.38426 3.70667 8.7017C4.44691 8.99826 5.21986 9.06789 6.0055 8.98843C6.59279 8.92863 7.15758 8.78689 7.71214 8.46781C7.43077 8.06517 7.16902 7.66539 6.88152 7.28487C6.22144 6.41077 5.38426 5.72836 4.4833 5.12091C4.3453 5.03154 4.21975 4.92425 4.10991 4.80183C4.03211 4.71065 3.99166 4.59337 3.99666 4.47354C4.00167 4.35371 4.05177 4.24022 4.13691 4.15587C4.21776 4.0735 4.32499 4.02229 4.43978 4.0112C4.55458 4.00012 4.66961 4.02987 4.76469 4.09525C4.91355 4.19438 5.05342 4.30702 5.20187 4.40615C6.46396 5.24871 7.52073 6.2928 8.32682 7.5847C8.35831 7.63509 8.39839 7.68054 8.4442 7.74076C8.4851 7.6703 8.5166 7.6228 8.54073 7.57159C9.04336 6.50662 9.11779 5.39862 8.863 4.25787C8.67078 3.39769 8.18901 2.74232 7.43405 2.30691C7.02718 2.06868 6.59987 1.86731 6.15723 1.7052C4.94054 1.26938 3.66782 1.12273 2.3857 1.05474C1.93133 1.02934 1.47613 1.04942 0.999682 1.04942Z" fill="#662D91"/>
</svg>
