<svg width="39" height="39" viewBox="0 0 39 39" fill="none" xmlns="http://www.w3.org/2000/svg">
<circle cx="19.5" cy="19.5" r="19.5" fill="#662D91"/>
<path d="M23.292 18.2181V18.1681H23.242H19.8623V14.7883V14.7383H19.8123H19.277H19.227V14.7883V18.1681H15.8477H15.7977V18.2181V18.7533V18.8033H15.8477H19.227V22.1827V22.2327H19.277H19.8123H19.8623V22.1827V18.8033H23.242H23.292V18.7533V18.2181Z" fill="white" stroke="white" stroke-width="0.1"/>
<path d="M11.6211 8.40192L11.5711 8.40193V8.45192V30.2416V30.2916H11.6211H22.7245H22.7424L22.7562 30.2802L23.5548 29.6254L23.5548 29.6254L26.0508 27.5803L26.0508 27.5803L26.7056 27.0431L26.7239 27.0281V27.0044V8.4502V8.40019L26.6739 8.4002L11.6211 8.40192ZM21.9432 25.6895V29.5385H12.3259V9.15735H25.9702V25.6395H21.9932H21.9432V25.6895ZM25.9702 26.3943V26.6725L22.698 29.3542V26.3943H25.9702Z" fill="white" stroke="white" stroke-width="0.1"/>
</svg>
