<svg width="101" height="85" viewBox="0 0 101 85" fill="none" xmlns="http://www.w3.org/2000/svg">
<circle cx="43.043" cy="42.5" r="42.5" fill="#F5F2FE"/>
<path d="M95.485 85H32.3595C31.4227 84.5399 30.3863 84.2126 29.5697 83.5905C27.9398 82.3462 27.3832 80.5608 27.3848 78.5146C27.4019 57.3523 27.4061 36.1901 27.3976 15.0278C27.3976 14.7605 27.3976 14.4932 27.412 14.2275C27.5307 11.6353 29.1976 9.44643 31.6697 8.76921C32.4959 8.54401 33.3879 8.51809 34.2542 8.49055C35.6162 8.4468 36.9814 8.47924 38.4252 8.47924C38.4252 7.76637 38.3963 7.15718 38.4252 6.55125C38.5471 4.35758 40.1465 2.974 42.4935 3.00478C44.624 3.03394 46.1368 4.53093 46.1833 6.66951C46.1977 7.2479 46.1833 7.82629 46.1833 8.40954H81.5922C81.6516 7.46662 81.5922 6.56585 81.7863 5.725C82.2259 3.80189 84.0323 2.75526 86.2237 3.0242C88.0236 3.24616 89.3455 4.72535 89.4241 6.63063C89.4498 7.23008 89.4241 7.8328 89.4241 8.47924C91.0813 8.47924 92.615 8.41603 94.1406 8.5019C95.0727 8.55536 96.0657 8.6639 96.9047 9.04949C99.4138 10.1836 100.457 12.2752 100.455 15.0278C100.436 36.162 100.432 57.2978 100.444 78.4352C100.444 78.7285 100.444 79.0217 100.424 79.3149C100.369 80.536 99.9412 81.71 99.2001 82.6765C98.4591 83.643 97.4406 84.3549 96.2839 84.7149C96.0176 84.8008 95.7577 84.9044 95.485 85ZM29.8232 28.057C29.8072 28.381 29.7847 28.6224 29.7847 28.8573C29.7847 43.8847 29.7847 58.9115 29.7847 73.9377C29.7847 76.3112 31.259 77.792 33.5948 77.792C48.848 77.792 64.1001 77.792 79.3511 77.792C81.2473 77.792 82.3254 76.6806 82.3302 74.7413C82.3302 72.3111 82.3302 69.8809 82.3302 67.4507C82.3302 64.0322 84.4157 61.9146 87.8119 61.8984C90.1653 61.8871 92.5171 61.8984 94.8706 61.8984C97.0555 61.8984 98.079 60.8761 98.079 58.6663C98.079 48.764 98.079 38.8617 98.079 28.9594C98.079 28.6791 98.0502 28.3988 98.0325 28.057H48.2367C47.8939 28.0689 47.5507 28.0549 47.21 28.0149C46.5683 27.9144 46.2298 27.4705 46.233 26.8467C46.2166 26.5742 46.3031 26.3056 46.4753 26.095C46.6474 25.8845 46.8922 25.7478 47.1603 25.7126C47.4997 25.6634 47.8428 25.645 48.1854 25.6575C64.4418 25.6575 80.6981 25.6575 96.9545 25.6575H98.0774V24.8118C98.0774 21.5019 98.0774 18.1919 98.0774 14.882C98.0774 12.3173 96.6336 10.8884 94.0668 10.8835C91.0016 10.8835 87.9354 10.8835 84.8681 10.8835H84.0323C84.0323 11.9463 84.0323 12.9038 84.0323 13.8597C84.0323 15.2368 84.1366 15.3583 85.4585 15.7018C86.1002 15.8638 86.4627 16.2883 86.4322 16.972C86.405 17.6055 85.8852 18.0591 85.1969 18.064C84.9332 18.0658 84.6703 18.0348 84.4141 17.9716C83.6346 17.7907 82.9385 17.3489 82.4391 16.718C81.9396 16.0871 81.666 15.3042 81.6628 14.4964C81.6355 13.3089 81.6628 12.1197 81.6628 10.9321H40.7915C40.7915 11.9382 40.7915 12.8941 40.7915 13.8484C40.7915 15.1688 40.9519 15.3761 42.2353 15.6921C42.9059 15.8541 43.3021 16.3952 43.1978 17.04C43.0871 17.7205 42.6604 18.0591 41.9866 18.0591C41.7235 18.0601 41.4611 18.029 41.2053 17.9667C39.5289 17.5455 38.4525 16.1538 38.4188 14.3376C38.3979 13.2035 38.4188 12.0694 38.4188 10.8786C36.7857 10.8786 35.2824 10.8786 33.7809 10.8786C31.2221 10.8786 29.7863 12.3157 29.7815 14.8788C29.7729 18.1882 29.7729 21.4981 29.7815 24.8086C29.7815 25.0662 29.8072 25.3238 29.8248 25.6527H30.8275C34.5536 25.6527 38.2808 25.6527 42.0091 25.6527C42.3252 25.6393 42.6419 25.6638 42.9524 25.7256C43.5427 25.873 43.8251 26.3008 43.8026 26.9083C43.8114 27.1658 43.727 27.4177 43.5652 27.6169C43.4034 27.8161 43.1752 27.949 42.9235 27.9906C42.6109 28.0439 42.2937 28.064 41.977 28.0505C38.2509 28.0505 34.5237 28.0505 30.7954 28.0505L29.8232 28.057ZM29.7719 78.9958C29.8039 79.331 29.8543 79.6642 29.9227 79.9938C30.3959 81.6447 31.7627 82.5974 33.659 82.5974H94.1535C96.6128 82.5974 98.0598 81.1587 98.0662 78.688C98.0774 74.7381 98.0662 70.7866 98.0662 66.8367C98.0662 66.6406 98.0309 66.4429 98.002 66.1303C97.7069 66.4105 97.4967 66.6017 97.2978 66.8026C93.5968 70.5387 89.8749 74.2553 86.206 78.0237C84.7446 79.5239 83.0569 80.2158 80.9682 80.2109C65.5578 80.1839 50.1479 80.1839 34.7386 80.2109C33.0317 80.2076 31.3569 80.1623 29.7638 78.9958H29.7719ZM84.7125 75.8187L96.1026 64.306H93.2407C91.2867 64.306 89.3311 64.2865 87.3771 64.3222C85.9044 64.3497 84.7462 65.4125 84.7205 66.8577C84.6756 69.8825 84.7125 72.9138 84.7125 75.8187ZM43.7545 8.43711C43.9406 6.53831 43.8443 5.80277 43.1577 5.60511C42.601 5.4431 41.8149 5.39935 41.369 5.6845C40.3551 6.33255 40.9358 7.46665 40.7706 8.43873L43.7545 8.43711ZM86.9231 8.45329C87.2728 7.12477 87.114 5.99555 86.4643 5.62777C85.8146 5.26 85.0927 5.20976 84.5232 5.69094C83.6168 6.45565 84.1751 7.50388 84.0211 8.44518L86.9231 8.45329Z" fill="#662D91"/>
<path d="M39.2198 58.1579C38.3585 58.1579 37.6493 58.1579 36.9869 58.1276C34.6002 58.0528 33.4218 56.7795 33.3918 54.2331C33.3355 49.9727 33.3355 45.6073 33.3918 41.2581C33.4256 38.6853 34.5927 37.408 36.9569 37.3535C39.0209 37.305 41.0624 37.2807 43.04 37.2807C45.104 37.2807 47.168 37.307 49.1475 37.3595C51.4648 37.4182 52.6582 38.7581 52.6919 41.341C52.7501 45.5467 52.7501 49.8474 52.6919 54.1219C52.6563 56.7492 51.4423 58.0609 48.9805 58.1296C48.23 58.1498 47.4907 58.1559 46.7458 58.1559C46.1172 58.1559 45.4887 58.1559 44.8582 58.1559C44.2277 58.1559 43.6067 58.1559 42.9819 58.1559C42.3251 58.1559 41.6984 58.1559 41.0717 58.1559C40.445 58.1559 39.8371 58.1579 39.2198 58.1579ZM36.5929 56.3147H49.4308C49.6392 56.3147 49.8456 56.2705 50.038 56.1845C50.2305 56.0986 50.4054 55.9726 50.5527 55.8138C50.6999 55.655 50.8167 55.4665 50.8962 55.2591C50.9758 55.0517 51.0166 54.8294 51.0163 54.6049V40.8236C51.0163 40.3706 50.8493 39.9362 50.552 39.616C50.2546 39.2957 49.8513 39.1158 49.4308 39.1158H36.5929C36.3845 39.1155 36.1781 39.1595 35.9855 39.2452C35.793 39.3309 35.618 39.4567 35.4706 39.6153C35.3231 39.7739 35.2061 39.9622 35.1263 40.1695C35.0466 40.3769 35.0055 40.5991 35.0055 40.8236V54.615C35.0067 54.8396 35.049 55.0616 35.1299 55.2686C35.2108 55.4755 35.3288 55.6633 35.4771 55.8211C35.6253 55.9789 35.801 56.1037 35.9941 56.1884C36.1871 56.2731 36.3938 56.3161 36.6023 56.3147H36.5929Z" fill="#662D91" stroke="#662D91" stroke-width="0.5" stroke-miterlimit="10"/>
</svg>
