<svg width="70" height="70" viewBox="0 0 70 70" fill="none" xmlns="http://www.w3.org/2000/svg">
<path d="M0 7.64696C0.15271 7.08422 0.281371 6.51335 0.46623 5.95865C1.05647 4.19534 2.19414 2.66658 3.71355 1.59508C5.23297 0.523579 7.05477 -0.0346159 8.91351 0.00166279C16.7633 0.00166279 24.6185 0.00166279 32.479 0.00166279C37.647 0.00166279 42.8151 0.00166279 47.9831 0.00166279C49.994 -0.0301095 51.9537 0.636801 53.5278 1.8888C55.102 3.14079 56.1932 4.90026 56.6152 6.86708C56.764 7.55646 56.8368 8.26006 56.8323 8.9653C56.8323 17.5405 56.8323 26.1156 56.8323 34.6908C56.8692 35.8845 56.661 37.0732 56.2206 38.1834C55.7803 39.2936 55.1171 40.3016 54.272 41.1454C53.4269 41.9892 52.4179 42.6508 51.3072 43.0893C50.1965 43.5277 49.0077 43.7338 47.8143 43.6948C37.4782 43.6948 27.1395 43.6948 16.7981 43.6948C16.3476 43.6758 15.9072 43.8313 15.5684 44.1289C11.8176 47.291 8.04275 50.4397 4.24375 53.575C3.81845 53.9505 3.33881 54.2594 2.82112 54.4914C2.53057 54.59 2.22247 54.626 1.91702 54.5968C1.61157 54.5676 1.31571 54.4739 1.04912 54.322C0.782516 54.17 0.551215 53.9633 0.370374 53.7153C0.189533 53.4674 0.0632627 53.1838 0 52.8835V7.64696ZM4.37238 47.7786L5.02335 47.2641C7.83643 44.9167 10.6495 42.5692 13.4626 40.2218C14.1279 39.6374 14.9886 39.3246 15.8738 39.3455C26.4456 39.3455 37.0094 39.3455 47.5652 39.3455C50.6595 39.3455 52.4518 37.5688 52.4518 34.522V9.31103C52.4518 6.17574 50.6836 4.39909 47.5491 4.39909H9.29928C6.08434 4.39909 4.35629 6.15969 4.35629 9.34322V47.8108L4.37238 47.7786Z" fill="#662D91"/>
<path d="M67.3621 69.9678C66.8055 69.6674 66.2686 69.3318 65.7547 68.9629C62.6844 66.5512 59.6382 64.0671 56.5679 61.6473C56.2331 61.3955 55.8292 61.2524 55.4106 61.2372C45.7657 61.2372 36.1209 61.2372 26.4761 61.2372C24.4531 61.3042 22.4714 60.6546 20.8804 59.403C19.2894 58.1514 18.1912 56.3781 17.7796 54.3959C17.5328 52.9411 17.4626 51.462 17.5706 49.9904C17.6235 49.4617 17.8774 48.9735 18.2797 48.6264C18.6819 48.2794 19.2021 48.1 19.7327 48.1253C20.2746 48.1317 20.7945 48.3407 21.1902 48.7111C21.5858 49.0816 21.8286 49.5867 21.8707 50.1271C21.9189 50.8024 21.8707 51.4937 21.8707 52.177C21.83 52.8058 21.9245 53.4361 22.1476 54.0253C22.3708 54.6145 22.7176 55.1491 23.1646 55.5931C23.6115 56.0371 24.1483 56.3803 24.7389 56.5995C25.3295 56.8187 25.9602 56.9089 26.5886 56.864C36.4263 56.864 46.2614 56.864 56.0937 56.864C57.0995 56.841 58.0784 57.1902 58.8425 57.8447C60.8921 59.541 62.9898 61.181 65.0715 62.8451L65.5939 63.223V26.7169C65.5939 23.8389 63.9864 22.1426 61.1412 21.8934C60.8469 21.8915 60.5559 21.8301 60.2858 21.713C60.0157 21.5959 59.7721 21.4254 59.5695 21.2118C59.3668 20.9983 59.2095 20.746 59.1068 20.47C59.004 20.1941 58.958 19.9003 58.9716 19.6062C58.9851 19.312 59.0579 19.0237 59.1855 18.7584C59.3132 18.4931 59.4931 18.2564 59.7145 18.0623C59.9358 17.8682 60.1941 17.7208 60.4738 17.629C60.7535 17.5372 61.0489 17.5029 61.3422 17.5281C63.5495 17.5665 65.661 18.4364 67.2552 19.9639C68.8494 21.4914 69.8089 23.5641 69.9421 25.7683C69.9421 26.13 69.9421 26.4998 69.9421 26.8616C69.9421 40.2603 69.9421 53.6751 69.9421 67.1059C69.9421 68.4565 69.5483 69.4453 68.2864 70L67.3621 69.9678Z" fill="#999999"/>
</svg>
