<svg width="12" height="18" viewBox="0 0 12 18" fill="none" xmlns="http://www.w3.org/2000/svg">
<path d="M11.6786 5.6364C11.6017 5.06388 11.4323 4.50766 11.177 3.98947C9.87418 1.34042 6.65981 0.246695 4.01216 1.54924C3.91973 1.59433 3.82729 1.64281 3.73767 1.69297C1.15935 3.13896 0.238375 6.41308 1.68408 8.99196C3.09118 11.5452 4.52112 14.1297 5.93385 16.6737L5.94061 16.6844C6.01914 16.7895 6.10777 16.8867 6.20524 16.9746L6.23342 17H6.49466L6.52284 16.9755C6.62203 16.8878 6.71116 16.7895 6.7886 16.6821L6.79479 16.6723C8.21401 14.1215 9.64675 11.5325 11.0527 8.97872C11.6241 7.96407 11.8441 6.78904 11.6786 5.6364ZM10.88 8.88234C9.47428 11.4356 8.04266 14.0223 6.62457 16.5714C6.56369 16.655 6.4948 16.7325 6.41885 16.8027H6.30922C6.23386 16.7315 6.16475 16.6539 6.10265 16.5708C4.69104 14.0288 3.26253 11.4466 1.85599 8.89474C0.463266 6.41139 1.35042 3.25845 3.83377 1.86516C3.92029 1.81668 4.00934 1.77019 4.09867 1.7265C6.64909 0.471866 9.74482 1.52613 10.9997 4.07655C11.2456 4.576 11.4088 5.11202 11.4831 5.66373C11.6424 6.77375 11.4303 7.90529 10.88 8.88234Z" stroke="#414141" stroke-width="0.5"/>
<path d="M6.40221 3.62115H6.38785C6.02871 3.61479 5.67188 3.67982 5.33808 3.81247C5.00427 3.94512 4.70014 4.14275 4.44333 4.39389C4.18499 4.64345 3.97872 4.94176 3.83645 5.27157C3.69418 5.60138 3.61875 5.95614 3.61451 6.3153C3.60472 7.0401 3.88284 7.73919 4.38787 8.25918C4.8929 8.77916 5.58359 9.07756 6.30837 9.08892H6.34867C7.06394 9.08725 7.75021 8.80602 8.26096 8.30528C8.77171 7.80453 9.06646 7.12396 9.08227 6.40886C9.09026 6.04978 9.02701 5.69268 8.89616 5.35819C8.76532 5.0237 8.56947 4.71846 8.31996 4.46012C8.07162 4.20045 7.77427 3.99261 7.44509 3.8486C7.11592 3.7046 6.76146 3.62729 6.40221 3.62115V3.62115ZM6.34867 8.89108H6.31119C5.6387 8.88055 4.99787 8.60366 4.52929 8.12119C4.06071 7.63872 3.80266 6.99006 3.81178 6.31755C3.8157 5.9843 3.88569 5.65514 4.0177 5.34912C4.14972 5.04311 4.34113 4.76632 4.58085 4.5348C5.05305 4.07306 5.68768 3.8152 6.34811 3.81673H6.39939C6.73264 3.82277 7.0614 3.89482 7.36663 4.02871C7.67186 4.16261 7.94751 4.35569 8.17764 4.59679C8.4092 4.83653 8.59094 5.11979 8.71235 5.43019C8.83376 5.74059 8.89245 6.07198 8.885 6.4052C8.87037 7.06853 8.59701 7.69987 8.12329 8.16443C7.64957 8.62899 7.01301 8.88997 6.34951 8.89165L6.34867 8.89108Z" stroke="#414141" stroke-width="0.5"/>
</svg>
