<svg width="59" height="70" viewBox="0 0 59 70" fill="none" xmlns="http://www.w3.org/2000/svg">
<path d="M28.726 69.9945C23.9619 68.0502 19.5924 65.4444 15.7188 62.0254C8.0224 55.2373 3.10443 46.7931 0.96493 36.6926C0.299261 33.4791 -0.022374 30.2027 0.00558346 26.9199C0.0164439 22.6785 0.00558346 18.4391 0.00558346 14.1996C0.00558346 12.5897 0.548628 11.7783 2.02022 11.1588C10.6591 7.53944 19.2961 3.91577 27.9314 0.287846C28.3529 0.0980793 28.8093 0 29.2708 0C29.7323 0 30.1887 0.0980793 30.6103 0.287846C39.2443 3.91943 47.882 7.54126 56.5233 11.1534C57.9025 11.729 58.5524 12.6957 58.5451 14.2051C58.5198 18.5359 58.5451 22.8668 58.5343 27.1976C58.4999 45.9245 47.7046 62.3397 30.6175 69.6583L29.8121 70L28.726 69.9945ZM5.42135 24.6028C5.40687 26.94 5.3272 30.3864 5.94444 33.7926C8.47854 47.7537 16.0694 57.8346 28.717 64.0355C28.8901 64.1321 29.0847 64.1828 29.2826 64.1828C29.4805 64.1828 29.6751 64.1321 29.8482 64.0355C44.2094 57.2358 53.0878 43.1779 53.1131 27.1702C53.1131 23.5685 53.1022 19.9667 53.1294 16.365C53.1294 15.8168 52.9665 15.5829 52.4687 15.3764C44.928 12.2351 37.3963 9.06285 29.8537 5.92526C29.4887 5.78567 29.0864 5.7818 28.7188 5.91431C21.1545 9.06103 13.6047 12.2406 6.04219 15.3947C5.58062 15.5884 5.40142 15.804 5.40866 16.3285C5.43944 18.7113 5.42135 21.1052 5.42135 24.6028Z" fill="#662D91"/>
<path d="M26.3052 36.7729C26.4685 36.5025 26.65 36.2436 26.8482 35.9981C30.4816 32.3203 34.1181 28.6454 37.7575 24.9736C38.5558 24.1659 39.4771 23.8151 40.583 24.1422C41.0085 24.2631 41.3979 24.4882 41.7165 24.7975C42.0351 25.1068 42.2731 25.4908 42.4094 25.9153C42.5456 26.3398 42.576 26.7917 42.4977 27.2309C42.4194 27.6701 42.2349 28.083 41.9605 28.4328C41.804 28.6264 41.6353 28.8095 41.4555 28.9811C37.133 33.346 32.8094 37.711 28.4845 42.076C27.0166 43.558 25.5269 43.5634 24.0697 42.0961C21.6563 39.6596 19.2477 37.2267 16.844 34.7976C16.0638 34.0081 15.776 33.0634 16.1199 31.9816C16.2566 31.4951 16.5302 31.0591 16.9073 30.7263C17.2845 30.3935 17.7491 30.1783 18.245 30.1067C19.2351 29.924 20.055 30.2894 20.7501 31.0003C22.39 32.6632 24.039 34.3188 25.6771 35.9817C25.8563 36.1626 25.9939 36.3764 26.3052 36.7729Z" fill="#662D91"/>
</svg>
