<svg width="107" height="86" viewBox="0 0 107 86" fill="none" xmlns="http://www.w3.org/2000/svg">
<circle cx="42.5" cy="42.5" r="42.5" fill="#F5F2FE"/>
<path d="M82.9377 33.3267C82.5732 33.3267 82.2032 33.3379 81.8341 33.3511C81.4646 33.3644 81.0889 33.3775 80.7207 33.3775H78.1233L90.8366 20.6704L95.6822 25.5365L94.9222 26.2946L94.922 26.2948C94.4605 26.7563 93.9766 27.2226 93.5098 27.663C92.4208 28.6665 91.3874 29.7288 90.4144 30.8452L90.411 30.8492C88.9274 32.6252 87.234 33.4678 85.2199 33.4681C84.8711 33.4651 84.5228 33.4414 84.1768 33.3972L84.1759 33.3971C83.7652 33.3461 83.3515 33.3226 82.9377 33.3267ZM82.9377 33.3267C82.9381 33.3267 82.9385 33.3267 82.9389 33.3267V33.5767M82.9377 33.3267C82.9372 33.3267 82.9368 33.3267 82.9364 33.3267L82.9389 33.5767M82.9389 33.5767C82.5787 33.5767 82.212 33.5877 81.8431 33.601C81.4741 33.6142 81.0941 33.6275 80.7207 33.6275H77.8732L84.1451 33.6452C83.745 33.5955 83.342 33.5726 82.9389 33.5767ZM71.5965 6.89736L71.5964 6.8974C63.6254 14.8641 55.6564 22.8315 47.6898 30.7996L47.6898 30.7996C47.6124 30.877 47.54 30.953 47.4603 31.0365C47.4017 31.098 47.3393 31.1635 47.2682 31.2366L47.0119 31.5147L47.011 31.5157L45.4803 33.1594L47.721 33.3207L47.7231 33.3208L47.997 33.3429L47.9989 33.3431C48.1473 33.3562 48.26 33.3642 48.3879 33.3642H57.0769C61.7165 33.3642 67.2105 33.3642 72.7773 33.3399L72.7784 33.3399C73.5013 33.3399 74.2126 32.9069 74.6345 32.487L74.6349 32.4867C78.2753 28.8772 81.9602 25.1968 85.5213 21.6268L85.5215 21.6266L87.4524 19.6957C87.5706 19.5775 87.6836 19.4532 87.8085 19.3158L87.8302 19.2918L87.8308 19.2912L87.9938 19.1107L87.9955 19.1087L88.675 18.3719L87.9884 17.6423L87.9874 17.6412L87.8114 17.452C87.8112 17.4518 87.811 17.4516 87.8108 17.4514C87.7827 17.4214 87.7554 17.3921 87.7287 17.3635C87.6269 17.2545 87.5332 17.154 87.4348 17.0557L87.4347 17.0555L86.0606 15.6793L86.0604 15.6791M71.5965 6.89736L77.44 6.70955C80.3725 9.63906 83.3049 12.57 86.2374 15.5025L86.0604 15.6791M71.5965 6.89736C72.5211 5.97279 73.4728 5.52794 74.4287 5.52794H74.4354C75.389 5.52794 76.3431 5.97496 77.2634 6.88644M71.5965 6.89736L77.2634 6.88644M86.0604 15.6791C83.1281 12.7468 80.1957 9.81587 77.2634 6.88644M86.0604 15.6791L77.2634 6.88644M47.513 30.6229C55.4797 22.6547 63.4486 14.6873 71.4197 6.72058L47.513 30.6229ZM47.513 30.6229C47.4347 30.7011 47.358 30.7816 47.2758 30.8678C47.2164 30.93 47.1542 30.9952 47.0866 31.0647L47.513 30.6229ZM29.7936 85.2455L29.7936 85.2456H29.8012H29.9248L65.07 85.2434C76.6375 85.2522 88.2051 85.2522 99.7727 85.2434C101.176 85.2547 102.543 84.7934 103.652 83.9336C104.762 83.0736 105.55 81.865 105.889 80.5027C106.04 79.8977 106.117 79.2764 106.117 78.6527V73.9782C106.132 62.8303 106.146 51.3036 106.086 39.969C106.084 39.4584 106.065 38.9528 106.046 38.4324C106.043 38.3532 106.04 38.2737 106.037 38.1938L106.037 38.1878C105.959 36.9069 105.97 35.6223 106.07 34.3428C106.226 32.725 105.554 31.2113 104.088 29.7499C101.371 27.04 98.6572 24.3286 95.9473 21.6157L95.7704 21.7924L95.9472 21.6156L92.5692 18.2354L92.5692 18.2354L89.0343 14.7005L89.034 14.7002C86.1618 11.839 83.1935 8.87956 80.3049 5.93574L80.1264 6.11084L80.3049 5.93573C78.6712 4.27103 77.2475 3.11559 75.3752 2.73743L75.3507 2.73248H75.3257H73.5869H73.5635L73.5405 2.73683C71.6852 3.08758 70.2964 4.19853 68.7106 5.79316L68.7105 5.79326C63.7483 10.7887 58.6927 15.8463 53.7786 20.7623C53.4532 21.0878 53.1284 21.4127 52.8043 21.737C49.2281 25.3103 45.6555 28.8865 42.0867 32.4656L42.0866 32.4656L42.0829 32.4695C41.7944 32.7716 41.4458 33.0099 41.0595 33.169C40.6732 33.3281 40.2579 33.4044 39.8403 33.3931L39.8403 33.393H39.8335H39.7974C38.3446 33.3753 36.8035 33.3753 34.9532 33.3753H34.9448H34.9365H34.9281H34.9198H34.9114H34.9031H34.8948H34.8864H34.8781H34.8697H34.8614H34.853H34.8447H34.8363H34.828H34.8196H34.8113H34.803H34.7946H34.7863H34.7779H34.7696H34.7612H34.7529H34.7445H34.7362H34.7278H34.7195H34.7112H34.7028H34.6945H34.6861H34.6778H34.6694H34.6611H34.6527H34.6444H34.6361H34.6277H34.6194H34.611H34.6027H34.5943H34.586H34.5776H34.5693H34.5609H34.5526H34.5443H34.5359H34.5276H34.5192H34.5109H34.5025H34.4942H34.4858H34.4775H34.4691H34.4608H34.4525H34.4441H34.4358H34.4274H34.4191H34.4107H34.4024H34.394H34.3857H34.3774H34.369H34.3607H34.3523H34.344H34.3356H34.3273H34.3189H34.3106H34.3022H34.2939H34.2856H34.2772H34.2689H34.2605H34.2522H34.2438H34.2355H34.2271H34.2188H34.2104H34.2021H34.1938H34.1854H34.1771H34.1687H34.1604H34.152H34.1437H34.1353H34.127H34.1186H34.1103H34.102H34.0936H34.0853H34.0769H34.0686H34.0602H34.0519H34.0435H34.0352H34.0269H34.0185H34.0102H34.0018H33.9935H33.9851H33.9768H33.9684H33.9601H33.9517H33.9434H33.9351H33.9267H33.9184H33.91H33.9017H33.8933H33.885H33.8766H33.8683H33.86H33.8516H33.8433H33.8349H33.8266H33.8182H33.8099H33.8015H33.7932H33.7848H33.7765H33.7682H33.7598H33.7515H33.7431H33.7348H33.7264H33.7181H33.7097H33.7014H33.693H33.6847H33.6764H33.668H33.6597H33.6513H33.643H33.6346H33.6263H33.6179H33.6096H33.6012H33.5929H33.5846H33.5762H33.5679H33.5595H33.5512H33.5428H33.5345H33.5261H33.5178H33.5095H33.5011H33.4928H33.4844H33.4761H33.4677H33.4594H33.451H33.4427H33.4343H33.426H33.4177H33.4093H33.401H33.3926H33.3843H33.3759H33.3676H33.3592H33.3509H33.3426H33.3342H33.3259H33.3175H33.3092H33.3008H33.2925H33.2841H33.2758H33.2674H33.2591H33.2508H33.2424H33.2341H33.2257H33.2174H33.209H33.2007H33.1923H33.184H33.1756H33.1673H33.159H33.1506H33.1423H33.1339H33.1256H33.1172H33.1089H33.1005H33.0922H33.0839H33.0755H33.0672H33.0588H33.0505H33.0421H33.0338H33.0254H33.0171H33.0087H33.0004H32.9921H32.9837H32.9754H32.967H32.9587H32.9503H32.942H32.9336H32.9253H32.9169H32.9086H32.9003H32.8919H32.8836H32.8752H32.8669H32.8585H32.8502H32.8418H32.8335H32.8252H32.8168H32.8085H32.8001H32.7918H32.7834H32.7751H32.7667H32.7584H32.75H32.7417H32.7334H32.725H32.7167H32.7083H32.7H32.6916H32.6833H32.6749H32.6666H32.6582H32.6499H32.6416H32.6332H32.6249H32.6165H32.6082H32.5998H32.5915H32.5831H32.5748H32.5665H32.5581H32.5498H32.5414H32.5331H32.5247H32.5164H32.508H32.4997H32.4913H32.483H32.4747H32.4663H32.458H32.4496H32.4413H32.4329H32.4246H32.4162H32.4079H32.3996H32.3912H32.3829H32.3745H32.3662H32.3578H32.3495H32.3411H32.3328H32.3244H32.3161H32.3078H32.2994H32.2911H32.2827H32.2744H32.266H32.2577H32.2493H32.241H32.2326H32.2243H32.216H32.2076H32.1993H32.1909H32.1826H32.1742H32.1659H32.1575H32.1492H32.1409H32.1325H32.1242H32.1158H32.1075H32.0991H32.0908H32.0824H32.0741H32.0657H32.0574H32.0491H32.0407H32.0324H32.024H32.0157H32.0073H31.999H31.9906H31.9823H31.9739H31.9656H31.9573H31.9489H31.9406H31.9322H31.9239H31.9155H31.9072H31.8988H31.8905H31.8822H31.8738H31.8655H31.8571H31.8488H31.8404H31.8321H31.8237H31.8154H31.807H31.7987H31.7904H31.782H31.7737H31.7653H31.757H31.7486H31.7403H31.7319H31.7236H31.7152H31.7069H31.6986H31.6902H31.6819H31.6735H31.6652H31.6568H31.6485H31.6401H31.6318H31.6235H31.6151H31.6068H31.5984H31.5901H31.5817H31.5734H31.565H31.5567H31.5483H31.54H31.5317H31.5233H31.515H31.5066H31.4983H31.4899H31.4816H31.4732H31.4649H31.4565H31.4482H31.4399H31.4315H31.4232H31.4148H31.4065H31.3981H31.3898H31.3814H31.3731H31.3648H31.3564H31.3481H31.3397H31.3314H31.323H31.3147H31.3063H31.298H31.2896H31.2813H31.273H31.2646H31.2563H31.2479H31.2396H31.2312H31.2229H31.2145H31.2062H31.1978H31.1895H31.1812H31.1728H31.1645H31.1561H31.1478H31.1394H31.1311H31.1227H31.1144H31.1061H31.0977H31.0894H31.081H31.0727H31.0643H31.056H31.0476H31.0393H31.0309H31.0226H31.0143H31.0059H30.9976H30.9892H30.9809H30.9725H30.9642H30.9558H30.9475H30.9391H30.9308H30.9225H30.9141H30.9058H30.8974H30.8891H30.8807H30.8724H30.864H30.8557H30.8473H30.839H30.8307H30.8223H30.814H30.8056H30.7973H30.7889H30.7806H30.7722H30.7639H30.7556H30.7472H30.7389H30.7305H30.7222H30.7138H30.7055H30.6971H30.6888H30.6804H30.3888H30.3883C28.629 33.3787 27.1558 33.8382 26.0189 34.7482C24.8822 35.6581 24.105 36.9997 23.7031 38.725L23.703 38.7253C23.6857 38.7997 23.6617 38.8725 23.6311 38.9426L23.6104 38.9904V39.0425V79.6933V79.7285L23.6201 79.7623L23.8627 80.6071C23.8628 80.6073 23.8628 80.6075 23.8629 80.6077C24.229 81.9113 25.0016 83.0639 26.0681 83.8981C27.1348 84.7323 28.44 85.2044 29.7936 85.2455ZM103.321 78.3921C103.321 79.7324 102.952 80.7341 102.282 81.4013C101.612 82.0686 100.606 82.4369 99.2611 82.4369H30.5523C29.1578 82.4369 28.1335 82.0716 27.4568 81.3974C26.7803 80.7234 26.4125 79.7021 26.4125 78.3081V40.2796C26.4125 38.9024 26.7769 37.8902 27.447 37.2214C28.1172 36.5524 29.1317 36.1884 30.5125 36.1884H99.2213C100.602 36.1884 101.617 36.5524 102.287 37.2214C102.957 37.8902 103.321 38.9024 103.321 40.2796V78.3921ZM97.8421 27.7311L103.487 33.3996H92.1597L97.8421 27.7311Z" fill="#662D91" stroke="#662D91" stroke-width="0.5"/>
<path d="M38.3033 57.694L38.3019 57.694C37.7997 57.694 37.2967 57.6896 36.793 57.6807L36.7924 57.6807C35.7915 57.661 34.9714 57.3562 34.4008 56.7749C33.8304 56.1937 33.5396 55.3669 33.5361 54.3629L33.5361 54.3621L33.5361 54.3505V54.3389V54.3274V54.3158V54.3042V54.2927V54.2811V54.2695V54.2579V54.2463V54.2347V54.2231V54.2115V54.1999V54.1883V54.1767V54.1651V54.1535V54.1419V54.1303V54.1186V54.107V54.0954V54.0838V54.0721V54.0605V54.0489V54.0372V54.0256V54.0139V54.0023V53.9906V53.979V53.9673V53.9557V53.944V53.9323V53.9207V53.909V53.8973V53.8856V53.8739V53.8623V53.8506V53.8389V53.8272V53.8155V53.8038V53.7921V53.7804V53.7687V53.757V53.7453V53.7336V53.7218V53.7101V53.6984V53.6867V53.6749V53.6632V53.6515V53.6397V53.628V53.6163V53.6045V53.5928V53.581V53.5693V53.5575V53.5458V53.534V53.5222V53.5105V53.4987V53.4869V53.4752V53.4634V53.4516V53.4398V53.4281V53.4163V53.4045V53.3927V53.3809V53.3691V53.3573V53.3455V53.3337V53.3219V53.3101V53.2983V53.2865V53.2747V53.2628V53.251V53.2392V53.2274V53.2155V53.2037V53.1919V53.18V53.1682V53.1564V53.1445V53.1327V53.1208V53.109V53.0971V53.0853V53.0734V53.0616V53.0497V53.0378V53.026V53.0141V53.0022V52.9903V52.9785V52.9666V52.9547V52.9428V52.9309V52.9191V52.9072V52.8953V52.8834V52.8715V52.8596V52.8477V52.8358V52.8239V52.812V52.8V52.7881V52.7762V52.7643V52.7524V52.7405V52.7285V52.7166V52.7047V52.6927V52.6808V52.6689V52.6569V52.645V52.6331V52.6211V52.6092V52.5972V52.5853V52.5733V52.5614V52.5494V52.5374V52.5255V52.5135V52.5016V52.4896V52.4776V52.4656V52.4537V52.4417V52.4297V52.4177V52.4058V52.3938V52.3818V52.3698V52.3578V52.3458V52.3338V52.3218V52.3098V52.2978V52.2858V52.2738V52.2618V52.2498V52.2378V52.2258V52.2138V52.2017V52.1897V52.1777V52.1657V52.1537V52.1416V52.1296V52.1176V52.1055V52.0935V52.0815V52.0694V52.0574V52.0454V52.0333V52.0213V52.0092V51.9972V51.9851V51.9731V51.961V51.949V51.9369V51.9248V51.9128V51.9007V51.8886V51.8766V51.8645V51.8524V51.8404V51.8283V51.8162V51.8041V51.7921V51.78V51.7679V51.7558V51.7437V51.7316V51.7195V51.7074V51.6953V51.6833V51.6712V51.6591V51.647V51.6349V51.6227V51.6106V51.5985V51.5864V51.5743V51.5622V51.5501V51.538V51.5258V51.5137V51.5016V51.4895V51.4774V51.4652V51.4531V51.441V51.4288V51.4167V51.4046V51.3924V51.3803V51.3682V51.356V51.3439V51.3317V51.3196V51.3075V51.2953V51.2832V51.271V51.2589V51.2467V51.2345V51.2224V51.2102V51.1981V51.1859V51.1737V51.1616V51.1494V51.1372V51.1251V51.1129V51.1007V51.0886V51.0764V51.0642V51.052V51.0399V51.0277V51.0155V51.0033V50.9911V50.9789V50.9668V50.9546V50.9424V50.9302V50.918V50.9058V50.8936V50.8814V50.8692V50.857V50.8448V50.8326V50.8204V50.8082V50.796V50.7838V50.7716V50.7594V50.7472V50.7349V50.7227V50.7105V50.6983V50.6861V50.6739V50.6616V50.6494V50.6372V50.625V50.6127V50.6005V50.5883V50.5761V50.5638V50.5516V50.5394V50.5271V50.5149V50.5027V50.4904V50.4782V50.466V50.4537V50.4415V50.4292V50.417V50.4047V50.3925V50.3803V50.368V50.3558V50.3435V50.3313V50.319V50.3068V50.2945V50.2822V50.27V50.2577V50.2455V50.2332V50.221V50.2087V50.1964V50.1842V50.1719V50.1596V50.1474V50.1351V50.1228V50.1106V50.0983V50.086V50.0737V50.0615V50.0492V50.0369V50.0247V50.0124V50.0001V49.9878V49.9755V49.9633V49.951V49.9387V49.9264V49.9141V49.9018V49.8896V49.8773V49.865V49.8527V49.8404V49.8281V49.8158V49.8035V49.7912V49.7789V49.7667V49.7544V49.7421V49.7298V49.7175V49.7052V49.6929V49.6806V49.6683V49.656V49.6437V49.6314V49.6191V49.6068V49.5945V49.5821V49.5698V49.5575V49.5452V49.5329V49.5206V49.5083V49.496V49.4837V49.4714V49.4591V49.4467V49.4344V49.4221V49.4098V49.3975V49.3852V49.3728V49.3605V49.3482V49.3359V49.3236V49.3113V49.2989V49.2866V49.2743V49.262V49.2496V49.2373V49.225V49.2127V49.2003V49.188V49.1757V49.1634V49.151V49.1387V49.1264V49.1141V49.1017V49.0894V49.0771V49.0647V49.0524V49.0401V49.0277V49.0154V49.0031V48.9907V48.9784V48.9661V48.9537V48.9414V48.9291V48.9167V48.9044V48.8921V48.8797V48.8674V48.8551V48.8427V48.8304V48.818V48.8057V48.7934V48.781V48.7687V48.7563V48.744V48.7317V48.7193V48.707V48.6946V48.6823V48.6699V48.6576V48.6453V48.6329V48.6206V48.6082V48.5959V48.5835V48.5712V48.5588V48.5465V48.5342V48.5218V48.5095V48.4971V48.4848V48.4724V48.4601V48.4477V48.4354V48.423V48.4107V48.3983V48.386V48.3736V48.3613V48.3489V48.3366V48.3243V48.3119V48.2996V48.2872V48.2749V48.2625V48.2502V48.2378V48.2255V48.2131V48.2008V48.1884V48.1761C33.5361 47.227 33.8463 46.4217 34.4128 45.8506C34.9792 45.2797 35.7807 44.964 36.724 44.9546M38.3033 57.694L47.8593 48.123M38.3033 57.694L39.4852 57.6874L39.7338 57.686V57.6741M38.3033 57.694L39.7338 57.4241H39.4838V57.4374V57.6741H39.4852H39.7338M36.724 44.9546C38.1412 44.9391 39.5427 44.9325 40.8845 44.9325H40.8867C42.2662 44.9325 43.6372 44.9325 44.9577 44.9546C45.8863 44.9665 46.674 45.2777 47.2325 45.8387C47.7911 46.3998 48.0999 47.1898 48.1093 48.1205M36.724 44.9546C36.724 44.9546 36.724 44.9546 36.7239 44.9546L36.7267 45.2046L36.7242 44.9546C36.7241 44.9546 36.7241 44.9546 36.724 44.9546ZM48.1093 48.1205L47.8593 48.123M48.1093 48.1205C48.1093 48.1205 48.1093 48.1205 48.1093 48.1205L47.8593 48.123M48.1093 48.1205C48.1314 50.2851 48.1314 52.4452 48.1093 54.5326M47.8593 48.123C47.8814 50.2859 47.8814 52.4444 47.8593 54.53M48.1093 54.5326L47.8593 54.53M48.1093 54.5326C48.1093 54.5326 48.1093 54.5326 48.1093 54.5326L47.8593 54.53M48.1093 54.5326C48.0999 55.4336 47.8051 56.2042 47.2688 56.7573C46.7322 57.3106 45.9734 57.626 45.0739 57.6519L45.0737 57.6519C44.6011 57.6653 44.0928 57.6741 43.476 57.6741H43.4734H43.4709H43.4683H43.4657H43.4631H43.4605H43.4579H43.4553H43.4527H43.4501H43.4476H43.445H43.4424H43.4398H43.4372H43.4346H43.432H43.4294H43.4268H43.4243H43.4217H43.4191H43.4165H43.4139H43.4113H43.4087H43.4061H43.4035H43.401H43.3984H43.3958H43.3932H43.3906H43.388H43.3854H43.3828H43.3802H43.3777H43.3751H43.3725H43.3699H43.3673H43.3647H43.3621H43.3595H43.3569H43.3544H43.3518H43.3492H43.3466H43.344H43.3414H43.3388H43.3362H43.3336H43.331H43.3285H43.3259H43.3233H43.3207H43.3181H43.3155H43.3129H43.3103H43.3077H43.3052H43.3026H43.3H43.2974H43.2948H43.2922H43.2896H43.287H43.2844H43.2819H43.2793H43.2767H43.2741H43.2715H43.2689H43.2663H43.2637H43.2611H43.2586H43.256H43.2534H43.2508H43.2482H43.2456H43.243H43.2404H43.2378H43.2353H43.2327H43.2301H43.2275H43.2249H43.2223H43.2197H43.2171H43.2145H43.212H43.2094H43.2068H43.2042H43.2016H43.199H43.1964H43.1938H43.1912H43.1887H43.1861H43.1835H43.1809H43.1783H43.1757H43.1731H43.1705H43.1679H43.1654H43.1628H43.1602H43.1576H43.155H43.1524H43.1498H43.1472H43.1446H43.1421H43.1395H43.1369H43.1343H43.1317H43.1291H43.1265H43.1239H43.1213H43.1188H43.1162H43.1136H43.111H43.1084H43.1058H43.1032H43.1006H43.098H43.0954H43.0929H43.0903H43.0877H43.0851H43.0825H43.0799H43.0773H43.0747H43.0721H43.0696H43.067H43.0644H43.0618H43.0592H43.0566H43.054H43.0514H43.0488H43.0463H43.0437H43.0411H43.0385H43.0359H43.0333H43.0307H43.0281H43.0255H43.023H43.0204H43.0178H43.0152H43.0126H43.01H43.0074H43.0048H43.0022H42.9997H42.9971H42.9945H42.9919H42.9893H42.9867H42.9841H42.9815H42.9789H42.9764H42.9738H42.9712H42.9686H42.966H42.9634H42.9608H42.9582H42.9556H42.9531H42.9505H42.9479H42.9453H42.9427H42.9401H42.9375H42.9349H42.9323H42.9298H42.9272H42.9246H42.922H42.9194H42.9168H42.9142H42.9116H42.909H42.9065H42.9039H42.9013H42.8987H42.8961H42.8935H42.8909H42.8883H42.8857H42.8832H42.8806H42.878H42.8754H42.8728H42.8702H42.8676H42.865H42.8624H42.8598H42.8573H42.8547H42.8521H42.8495H42.8469H42.8443H42.8417H42.8391H42.8365H42.834H42.8314H42.8288H42.8262H42.8236H42.821H42.8184H42.8158H42.8132H42.8107H42.8081H42.8055H42.8029H42.8003H42.7977H42.7951H42.7925H42.7899H42.7874H42.7848H42.7822H42.7796H42.777H42.7744H42.7718H42.7692H42.7666H42.7641H42.7615H42.7589H42.7563H42.7537H42.7511H42.7485H42.7459H42.7433H42.7408H42.7382H42.7356H42.733H42.7304H42.7278H42.7252H42.7226H42.72H42.7175H42.7149H42.7123H42.7097H42.7071H42.7045H42.7019H42.6993H42.6967H42.6942H42.6916H42.689H42.6864H42.6838H42.6812H42.6786H42.676H42.6734H42.6709H42.6683H42.6657H42.6631H42.6605H42.6579H42.6553H42.6527H42.6501H42.6476H42.645H42.6424H42.6398H42.6372H42.6346H42.632H42.6294H42.6268H42.6242H42.6217H42.6191H42.6165H42.6139H42.6113H42.6087H42.6061H42.6035H42.6009H42.5984H42.5958H42.5932H42.5906H42.588H42.5854H42.5828H42.5802H42.5776H42.5751H42.5725H42.5699H42.5673H42.5647H42.5621H42.5595H42.5569H42.5543H42.5518H42.5492H42.5466H42.544H42.5414H42.5388H42.5362H42.5336H42.531H42.5285H42.5259H42.5233H42.5207H42.5181H42.5155H42.5129H42.5103H42.5077H42.5052H42.5026H42.5H42.4974H42.4948H42.4922H42.4896H42.487H42.4844H42.4819H42.4793H42.4767H42.4741H42.4715H42.4689H42.4663H42.4637H42.4611H42.4586H42.456H42.4534H42.4508H42.4482H42.4456H42.443H42.4404H42.4378H42.4353H42.4327H42.4301H42.4275H42.4249H42.4223H42.4197H42.4171H42.4145H42.412H42.4094H42.4068H42.4042H42.4016H42.399H42.3964H42.3938H42.3912H42.3886H42.3861H42.3835H42.3809H42.3783H42.3757H42.3731H42.3705H42.3679H42.3653H42.3628H42.3602H42.3576H42.355H42.3524H42.3498H42.3472H42.3446H42.342H42.3395H42.3369H42.3343H42.3317H42.3291H42.3265H42.3239H42.3213H42.3187H42.3162H42.3136H42.311H42.3084H42.3058H42.3032H42.3006H42.298H42.2954H42.2929H42.2903H42.2877H42.2851H42.2825H42.2799H42.2773H42.2747H42.2721H42.2696H42.267H42.2644H42.2618H42.2592H42.2566H42.254H42.2514H42.2488H42.2463H42.2437H42.2411H42.2385H42.2359H42.2333H42.2307H42.2281H42.2255H42.223H42.2204H42.2178H42.2152H42.2126H42.21H42.2074H42.2048H42.2022H42.1997H42.1971H42.1945H42.1919H42.1893H42.1867H42.1841H42.1815H42.1789H42.1764H42.1738H42.1712H42.1686H42.166H42.1634H42.1608H42.1582H42.1556H42.1531H42.1505H40.8094H39.7338M47.8593 54.53L39.7338 57.6741M45.2652 54.8191H36.3713V47.8384H45.2652V54.8191Z" fill="#662D91" stroke="#662D91" stroke-width="0.5"/>
<path d="M42.7278 70.2975V70.0475H42.4778H33.6406H33.3906V70.2975V72.4692V72.7192H33.6406H42.4778H42.7278V72.4692V70.2975Z" fill="#662D91" stroke="#662D91" stroke-width="0.5"/>
<path d="M60.6209 70.2931V70.0431H60.3709H51.5293H51.2793V70.2931V72.4737V72.7237H51.5293H60.3709H60.6209V72.4737V70.2931Z" fill="#662D91" stroke="#662D91" stroke-width="0.5"/>
<path d="M78.4885 70.296V70.046H78.2385H69.4014H69.1514V70.296V72.47V72.72H69.4014H78.2385H78.4885V72.47V70.296Z" fill="#662D91" stroke="#662D91" stroke-width="0.5"/>
<path d="M96.3267 70.2931V70.0431H96.0767H87.2373H86.9873V70.2931V72.4339V72.6839H87.2373H96.0767H96.3267V72.4339V70.2931Z" fill="#662D91" stroke="#662D91" stroke-width="0.5"/>
</svg>
