<svg width="92" height="86" viewBox="0 0 92 86" fill="none" xmlns="http://www.w3.org/2000/svg">
<circle cx="41.054" cy="41.054" r="41.054" fill="#F5F2FE"/>
<path d="M57.4902 8.16268L57.4886 8.16268C56.9805 8.16017 56.4766 8.25599 56.0048 8.4449C51.0157 10.5044 45.951 12.6089 41.0392 14.6499L40.5167 14.867C40.5167 14.867 40.5167 14.867 40.5167 14.867C36.5332 16.5231 32.5489 18.1769 28.5639 19.8286M57.4902 8.16268L26.4819 29.6172L26.4819 29.6174L26.2319 29.617H26.4819L26.4823 29.4116C26.4865 26.9458 26.4899 24.9723 26.4621 22.9778M57.4902 8.16268L57.4898 7.91268L57.4902 8.16268ZM28.5639 19.8286L28.4682 19.5976L28.5639 19.8285C28.5639 19.8285 28.5639 19.8286 28.5639 19.8286ZM28.5639 19.8286C27.8526 20.1234 27.3258 20.5422 26.9782 21.0636C26.6307 21.5847 26.4518 22.2241 26.4621 22.9778M26.4621 22.9778L26.2122 22.9813L26.4621 22.9778ZM26.4819 32.9015V32.9085V32.9015ZM26.4819 32.9015V32.8944M26.4819 32.9015V32.8944M26.4819 32.8944V32.8874M26.4819 32.8944V32.8874M26.4819 32.8874V32.8804M26.4819 32.8874V32.8804M26.4819 32.8804V32.8733M26.4819 32.8804V32.8733M26.4819 32.8733V32.8663M26.4819 32.8733V32.8663M26.4819 32.8663V32.8593M26.4819 32.8663V32.8593M26.4819 32.8593V32.8523M26.4819 32.8593V32.8523M26.4819 32.8523V32.8452M26.4819 32.8523V32.8452M26.4819 32.8452V32.8382M26.4819 32.8452V32.8382M26.4819 32.8382V32.8312M26.4819 32.8382V32.8312M26.4819 32.8312V32.8242M26.4819 32.8312V32.8242M26.4819 32.8242V32.8172M26.4819 32.8242V32.8172M26.4819 32.8172V32.8102M26.4819 32.8172V32.8102M26.4819 32.8102V32.8032M26.4819 32.8102V32.8032M26.4819 32.8032V32.7961M26.4819 32.8032V32.7961M26.4819 32.7961V32.7891M26.4819 32.7961V32.7891M26.4819 32.7891V32.7822M26.4819 32.7891V32.7822M26.4819 32.7822V32.7752M26.4819 32.7822V32.7752M26.4819 32.7752V32.7682M26.4819 32.7752V32.7682M26.4819 32.7682V32.7612M26.4819 32.7682V32.7612M26.4819 32.7612V32.7542M26.4819 32.7612V32.7542M26.4819 32.7542V32.7472M26.4819 32.7542V32.7472M26.4819 32.7472V32.7402M26.4819 32.7472V32.7402M26.4819 32.7402V32.7332M26.4819 32.7402V32.7332M26.4819 32.7332V32.7263M26.4819 32.7332V32.7263M26.4819 32.7263V32.7193M26.4819 32.7263V32.7193M26.4819 32.7193V32.7123M26.4819 32.7193V32.7123M26.4819 32.7123V32.7054M26.4819 32.7123V32.7054M26.4819 32.7054V32.6984M26.4819 32.7054V32.6984M26.4819 32.6984V32.6914M26.4819 32.6984V32.6914M26.4819 32.6914V32.6845M26.4819 32.6914V32.6845M26.4819 32.6845V32.6775M26.4819 32.6845V32.6775M26.4819 32.6775V32.6706M26.4819 32.6775V32.6706M26.4819 32.6706V32.6636M26.4819 32.6706V32.6636M26.4819 32.6636V32.6567M26.4819 32.6636V32.6567M26.4819 32.6567V32.6497M26.4819 32.6567V32.6497M26.4819 32.6497V32.6428M26.4819 32.6497V32.6428M26.4819 32.6428V32.6358M26.4819 32.6428V32.6358M26.4819 32.6358V32.6289M26.4819 32.6358V32.6289M26.4819 32.6289V32.6219M26.4819 32.6289V32.6219M26.4819 32.6219V32.615M26.4819 32.6219V32.615M26.4819 32.615V32.6081M26.4819 32.615V32.6081M26.4819 32.6081V32.6012M26.4819 32.6081V32.6012M26.4819 32.6012V32.5942M26.4819 32.6012V32.5942M26.4819 32.5942V32.5873M26.4819 32.5942V32.5873M26.4819 32.5873V32.5804M26.4819 32.5873V32.5804M26.4819 32.5804V32.5735M26.4819 32.5804V32.5735M26.4819 32.5735V32.5666M26.4819 32.5735V32.5666M26.4819 32.5666V32.5596M26.4819 32.5666V32.5596M26.4819 32.5596V32.5527M26.4819 32.5596V32.5527M26.4819 32.5527V32.5458M26.4819 32.5527V32.5458M26.4819 32.5458V32.5389M26.4819 32.5458V32.5389M26.4819 32.5389V32.532M26.4819 32.5389V32.532M26.4819 32.532V32.5251M26.4819 32.532V32.5251M26.4819 32.5251V32.5182M26.4819 32.5251V32.5182M26.4819 32.5182V32.5113M26.4819 32.5182V32.5113M26.4819 32.5113V32.5044M26.4819 32.5113V32.5044M26.4819 32.5044V32.4976M26.4819 32.5044V32.4976M26.4819 32.4976V32.4907M26.4819 32.4976V32.4907M26.4819 32.4907V32.4838M26.4819 32.4907V32.4838M26.4819 32.4838V32.4769M26.4819 32.4838V32.4769M26.4819 32.4769V32.47M26.4819 32.4769V32.47M26.4819 32.47V32.4632M26.4819 32.47V32.4632M26.4819 32.4632V32.4563M26.4819 32.4632V32.4563M26.4819 32.4563V32.4494M26.4819 32.4563V32.4494M26.4819 32.4494V32.4426M26.4819 32.4494V32.4426M26.4819 32.4426V32.4357M26.4819 32.4426V32.4357M26.4819 32.4357V32.4288M26.4819 32.4357V32.4288M26.4819 32.4288V32.422M26.4819 32.4288V32.422M26.4819 32.422V32.4151M26.4819 32.422V32.4151M26.4819 32.4151V32.4083M26.4819 32.4151V32.4083M26.4819 32.4083V32.4014M26.4819 32.4083V32.4014M26.4819 32.4014V32.3946M26.4819 32.4014V32.3946M26.4819 32.3946V32.3877M26.4819 32.3946V32.3877M26.4819 32.3877V32.3809M26.4819 32.3877V32.3809M26.4819 32.3809V32.374M26.4819 32.3809V32.374M26.4819 32.374V32.3672M26.4819 32.374V32.3672M26.4819 32.3672V32.3604M26.4819 32.3672V32.3604M26.4819 32.3604V32.3535M26.4819 32.3604V32.3535M26.4819 32.3535V32.3467M26.4819 32.3535V32.3467M26.4819 32.3467V32.3399M26.4819 32.3467V32.3399M26.4819 32.3399V32.333M26.4819 32.3399V32.333M26.4819 32.333V32.3262M26.4819 32.333V32.3262M26.4819 32.3262V32.3194M26.4819 32.3262V32.3194M26.4819 32.3194V32.3126M26.4819 32.3194V32.3126M26.4819 32.3126V32.3058M26.4819 32.3126V32.3058M26.4819 32.3058V32.299M26.4819 32.3058V32.299M26.4819 32.299V32.2921M26.4819 32.299V32.2921M26.4819 32.2921V32.2853M26.4819 32.2921V32.2853M26.4819 32.2853V32.2785M26.4819 32.2853V32.2785M26.4819 32.2785V32.2717M26.4819 32.2785V32.2717M26.4819 32.2717V32.2649M26.4819 32.2717V32.2649M26.4819 32.2649V32.2581M26.4819 32.2649V32.2581M26.4819 32.2581V32.2513M26.4819 32.2581V32.2513M26.4819 32.2513V32.2445M26.4819 32.2513V32.2445M26.4819 32.2445V32.2378M26.4819 32.2445V32.2378M26.4819 32.2378V32.231M26.4819 32.2378V32.231M26.4819 32.231V32.2242M26.4819 32.231V32.2242M26.4819 32.2242V32.2174M26.4819 32.2242V32.2174M26.4819 32.2174V32.2106M26.4819 32.2174V32.2106M26.4819 32.2106V32.2039M26.4819 32.2106V32.2039M26.4819 32.2039V32.1971M26.4819 32.2039V32.1971M26.4819 32.1971V32.1903M26.4819 32.1971V32.1903M26.4819 32.1903V32.1835M26.4819 32.1903V32.1835M26.4819 32.1835V32.1768M26.4819 32.1835V32.1768M26.4819 32.1768V32.17M26.4819 32.1768V32.17M26.4819 32.17V32.1632M26.4819 32.17V32.1632M26.4819 32.1632V32.1565M26.4819 32.1632V32.1565M26.4819 32.1565V32.1497M26.4819 32.1565V32.1497M26.4819 32.1497V32.143M26.4819 32.1497V32.143M26.4819 32.143V32.1362M26.4819 32.143V32.1362M26.4819 32.1362V32.1295M26.4819 32.1362V32.1295M26.4819 32.1295V32.1227M26.4819 32.1295V32.1227M26.4819 32.1227V32.116M26.4819 32.1227V32.116M26.4819 32.116V32.1093M26.4819 32.116V32.1093M26.4819 32.1093V32.1025M26.4819 32.1093V32.1025M26.4819 32.1025V32.0958M26.4819 32.1025V32.0958M26.4819 32.0958V32.089M26.4819 32.0958V32.089M26.4819 32.089V32.0823M26.4819 32.089V32.0823M26.4819 32.0823V32.0756M26.4819 32.0823V32.0756M26.4819 32.0756V32.0689M26.4819 32.0756V32.0689M26.4819 32.0689V32.0621M26.4819 32.0689V32.0621M26.4819 32.0621V32.0554M26.4819 32.0621V32.0554M26.4819 32.0554V32.0487M26.4819 32.0554V32.0487M26.4819 32.0487V32.042M26.4819 32.0487V32.042M26.4819 32.042V32.0353M26.4819 32.042V32.0353M26.4819 32.0353V32.0286M26.4819 32.0353V32.0286M26.4819 32.0286V32.0219M26.4819 32.0286V32.0219M26.4819 32.0219V32.0152M26.4819 32.0219V32.0152M26.4819 32.0152V32.0084M26.4819 32.0152V32.0084M26.4819 32.0084V32.0017M26.4819 32.0084V32.0017M26.4819 32.0017V31.995M26.4819 32.0017V31.995M26.4819 31.995V31.9884M26.4819 31.995V31.9884M26.4819 31.9884V31.9817M26.4819 31.9884V31.9817M26.4819 31.9817V31.975M26.4819 31.9817V31.975M26.4819 31.975V31.9683M26.4819 31.975V31.9683M26.4819 31.9683V31.9616M26.4819 31.9683V31.9616M26.4819 31.9616V31.9549M26.4819 31.9616V31.9549M26.4819 31.9549V31.9482M26.4819 31.9549V31.9482M26.4819 31.9482V31.9416M26.4819 31.9482V31.9416M26.4819 31.9416V31.9349M26.4819 31.9416V31.9349M26.4819 31.9349V31.9282M26.4819 31.9349V31.9282M26.4819 31.9282V31.9215M26.4819 31.9282V31.9215M26.4819 31.9215V31.9149M26.4819 31.9215V31.9149M26.4819 31.9149V31.9082M26.4819 31.9149V31.9082M26.4819 31.9082V31.9015M26.4819 31.9082V31.9015M26.4819 31.9015V31.8949M26.4819 31.9015V31.8949M26.4819 31.8949V31.8882M26.4819 31.8949V31.8882M26.4819 31.8882V31.8816M26.4819 31.8882V31.8816M26.4819 31.8816V31.8749M26.4819 31.8816V31.8749M26.4819 31.8749V31.8683M26.4819 31.8749V31.8683M26.4819 31.8683V31.8616M26.4819 31.8683V31.8616M26.4819 31.8616V31.855M26.4819 31.8616V31.855M26.4819 31.855V31.8483M26.4819 31.855V31.8483M26.4819 31.8483V31.8417M26.4819 31.8483V31.8417M26.4819 31.8417V31.835M26.4819 31.8417V31.835M26.4819 31.835V31.8284M26.4819 31.835V31.8284M26.4819 31.8284V31.8218M26.4819 31.8284V31.8218M26.4819 31.8218V31.8151M26.4819 31.8218V31.8151M26.4819 31.8151V31.8085M26.4819 31.8151V31.8085M26.4819 31.8085V31.8019M26.4819 31.8085V31.8019M26.4819 31.8019V31.7953M26.4819 31.8019V31.7953M26.4819 31.7953V31.7886M26.4819 31.7953V31.7886M26.4819 31.7886V31.782M26.4819 31.7886V31.782M26.4819 31.782V31.7754M26.4819 31.782V31.7754M26.4819 31.7754V31.7688M26.4819 31.7754V31.7688M26.4819 31.7688V31.7622M26.4819 31.7688V31.7622M26.4819 31.7622V31.7556M26.4819 31.7622V31.7556M26.4819 31.7556V31.749M26.4819 31.7556V31.749M26.4819 31.749V31.7424M26.4819 31.749V31.7424M26.4819 31.7424V31.7358M26.4819 31.7424V31.7358M26.4819 31.7358V31.7291M26.4819 31.7358V31.7291M26.4819 31.7291V31.7226M26.4819 31.7291V31.7226M26.4819 31.7226V31.716M26.4819 31.7226V31.716M26.4819 31.716V31.7094M26.4819 31.716V31.7094M26.4819 31.7094V31.7028M26.4819 31.7094V31.7028M26.4819 31.7028V31.6962M26.4819 31.7028V31.6962M26.4819 31.6962V31.6896M26.4819 31.6962V31.6896M26.4819 31.6896V31.683M26.4819 31.6896V31.683M26.4819 31.683V31.6764M26.4819 31.683V31.6764M26.4819 31.6764V31.6699M26.4819 31.6764V31.6699M26.4819 31.6699V31.6633M26.4819 31.6699V31.6633M26.4819 31.6633V31.6567M26.4819 31.6633V31.6567M26.4819 31.6567V31.6501M26.4819 31.6567V31.6501M26.4819 31.6501V31.6436M26.4819 31.6501V31.6436M26.4819 31.6436V31.637M26.4819 31.6436V31.637M26.4819 31.637V31.6304M26.4819 31.637V31.6304M26.4819 31.6304V31.6239M26.4819 31.6304V31.6239M26.4819 31.6239V31.6173M26.4819 31.6239V31.6173M26.4819 31.6173V31.6108M26.4819 31.6173V31.6108M26.4819 31.6108V31.6042M26.4819 31.6108V31.6042M26.4819 31.6042V31.5977M26.4819 31.6042V31.5977M26.4819 31.5977V31.5911M26.4819 31.5977V31.5911M26.4819 31.5911V31.5846M26.4819 31.5911V31.5846M26.4819 31.5846V31.578M26.4819 31.5846V31.578M26.4819 31.578V31.5715M26.4819 31.578V31.5715M26.4819 31.5715V31.5649M26.4819 31.5715V31.5649M26.4819 31.5649V31.5584M26.4819 31.5649V31.5584M26.4819 31.5584V31.5519M26.4819 31.5584V31.5519M26.4819 31.5519V31.5453M26.4819 31.5519V31.5453M26.4819 31.5453V31.5388M26.4819 31.5453V31.5388M26.4819 31.5388V31.5323M26.4819 31.5388V31.5323M26.4819 31.5323V31.5257M26.4819 31.5323V31.5257M26.4819 31.5257V31.5192M26.4819 31.5257V31.5192M26.4819 31.5192V31.5127M26.4819 31.5192V31.5127M26.4819 31.5127V31.5062M26.4819 31.5127V31.5062M26.4819 31.5062V31.4996M26.4819 31.5062V31.4996M26.4819 31.4996V31.4931M26.4819 31.4996V31.4931M26.4819 31.4931V31.4866M26.4819 31.4931V31.4866M26.4819 31.4866V31.4801M26.4819 31.4866V31.4801M26.4819 31.4801V31.4736M26.4819 31.4801V31.4736M26.4819 31.4736V31.4671M26.4819 31.4736V31.4671M26.4819 31.4671V31.4606M26.4819 31.4671V31.4606M26.4819 31.4606V31.4541M26.4819 31.4606V31.4541M26.4819 31.4541V31.4476M26.4819 31.4541V31.4476M26.4819 31.4476V31.4411M26.4819 31.4476V31.4411M26.4819 31.4411V31.4346M26.4819 31.4411V31.4346M26.4819 31.4346V31.4281M26.4819 31.4346V31.4281M26.4819 31.4281V31.4216M26.4819 31.4281V31.4216M26.4819 31.4216V31.4151M26.4819 31.4216V31.4151M26.4819 31.4151V31.4087M26.4819 31.4151V31.4087M26.4819 31.4087V31.4022M26.4819 31.4087V31.4022M26.4819 31.4022V31.3957M26.4819 31.4022V31.3957M26.4819 31.3957V31.3892M26.4819 31.3957V31.3892M26.4819 31.3892V31.3827M26.4819 31.3892V31.3827M26.4819 31.3827V31.3763M26.4819 31.3827V31.3763M26.4819 31.3763V31.3698M26.4819 31.3763V31.3698M26.4819 31.3698V31.3633M26.4819 31.3698V31.3633M26.4819 31.3633V31.3569M26.4819 31.3633V31.3569M26.4819 31.3569V31.3504M26.4819 31.3569V31.3504M26.4819 31.3504V31.3439M26.4819 31.3504V31.3439M26.4819 31.3439V31.3375M26.4819 31.3439V31.3375M26.4819 31.3375V31.331M26.4819 31.3375V31.331M26.4819 31.331V31.3246M26.4819 31.331V31.3246M26.4819 31.3246V31.3181M26.4819 31.3246V31.3181M26.4819 31.3181V31.3117M26.4819 31.3181V31.3117M26.4819 31.3117V31.3052M26.4819 31.3117V31.3052M26.4819 31.3052V31.2988M26.4819 31.3052V31.2988M26.4819 31.2988V31.2923M26.4819 31.2988V31.2923M26.4819 31.2923V31.2859M26.4819 31.2923V31.2859M26.4819 31.2859V31.2794M26.4819 31.2859V31.2794M26.4819 31.2794V31.273M26.4819 31.2794V31.273M26.4819 31.273V31.2666M26.4819 31.273V31.2666M26.4819 31.2666V31.2601M26.4819 31.2666V31.2601M26.4819 31.2601V31.2537M26.4819 31.2601V31.2537M26.4819 31.2537V31.2473M26.4819 31.2537V31.2473M26.4819 31.2473V31.2409M26.4819 31.2473V31.2409M26.4819 31.2409V31.2344M26.4819 31.2409V31.2344M26.4819 31.2344V31.228M26.4819 31.2344V31.228M26.4819 31.228V31.2216M26.4819 31.228V31.2216M26.4819 31.2216V31.2152M26.4819 31.2216V31.2152M26.4819 31.2152V31.2088M26.4819 31.2152V31.2088M26.4819 31.2088V31.2024M26.4819 31.2088V31.2024M26.4819 31.2024V31.1959M26.4819 31.2024V31.1959M26.4819 31.1959V31.1895M26.4819 31.1959V31.1895M26.4819 31.1895V31.1831M26.4819 31.1895V31.1831M26.4819 31.1831V31.1767M26.4819 31.1831V31.1767M26.4819 31.1767V31.1703M26.4819 31.1767V31.1703M26.4819 31.1703V31.1639M26.4819 31.1703V31.1639M26.4819 31.1639V31.1575M26.4819 31.1639V31.1575M26.4819 31.1575V31.1511M26.4819 31.1575V31.1511M26.4819 31.1511V31.1447M26.4819 31.1511V31.1447M26.4819 31.1447V31.1384M26.4819 31.1447V31.1384M26.4819 31.1384V31.132M26.4819 31.1384V31.132M26.4819 31.132V31.1256M26.4819 31.132V31.1256M26.4819 31.1256V31.1192M26.4819 31.1256V31.1192M26.4819 31.1192V31.1128M26.4819 31.1192V31.1128M26.4819 31.1128V31.1064M26.4819 31.1128V31.1064M26.4819 31.1064V31.1001M26.4819 31.1064V31.1001M26.4819 31.1001V31.0937M26.4819 31.1001V31.0937M26.4819 31.0937V31.0873M26.4819 31.0937V31.0873M26.4819 31.0873V31.081M26.4819 31.0873V31.081M26.4819 31.081V31.0746M26.4819 31.081V31.0746M26.4819 31.0746V31.0682M26.4819 31.0746V31.0682M26.4819 31.0682V31.0619M26.4819 31.0682V31.0619M26.4819 31.0619V31.0555M26.4819 31.0619V31.0555M26.4819 31.0555V31.0491M26.4819 31.0555V31.0491M26.4819 31.0491V31.0428M26.4819 31.0491V31.0428M26.4819 31.0428V31.0364M26.4819 31.0428V31.0364M26.4819 31.0364V31.0301M26.4819 31.0364V31.0301M26.4819 31.0301V31.0237M26.4819 31.0301V31.0237M26.4819 31.0237V31.0174M26.4819 31.0237V31.0174M26.4819 31.0174V31.011M26.4819 31.0174V31.011M26.4819 31.011V31.0047M26.4819 31.011V31.0047M26.4819 31.0047V30.9983M26.4819 31.0047V30.9983M26.4819 30.9983V30.992M26.4819 30.9983V30.992M26.4819 30.992V30.9857M26.4819 30.992V30.9857M26.4819 30.9857V30.9793M26.4819 30.9857V30.9793M26.4819 30.9793V30.973M26.4819 30.9793V30.973M26.4819 30.973V30.9667M26.4819 30.973V30.9667M26.4819 30.9667V30.9603M26.4819 30.9667V30.9603M26.4819 30.9603V30.954M26.4819 30.9603V30.954M26.4819 30.954V30.9477M26.4819 30.954V30.9477M26.4819 30.9477V30.9414M26.4819 30.9477V30.9414M26.4819 30.9414V30.9351M26.4819 30.9414V30.9351M26.4819 30.9351V30.9287M26.4819 30.9351V30.9287M26.4819 30.9287V30.9224M26.4819 30.9287V30.9224M26.4819 30.9224V30.9161M26.4819 30.9224V30.9161M26.4819 30.9161V30.9098M26.4819 30.9161V30.9098M26.4819 30.9098V30.9035M26.4819 30.9098V30.9035M26.4819 30.9035V30.8972M26.4819 30.9035V30.8972M26.4819 30.8972V30.8909M26.4819 30.8972V30.8909M26.4819 30.8909V30.8846M26.4819 30.8909V30.8846M26.4819 30.8846V30.8783M26.4819 30.8846V30.8783M26.4819 30.8783V30.872M26.4819 30.8783V30.872M26.4819 30.872V30.8657M26.4819 30.872V30.8657M26.4819 30.8657V30.8594M26.4819 30.8657V30.8594M26.4819 30.8594V30.8531M26.4819 30.8594V30.8531M26.4819 30.8531V30.8468M26.4819 30.8531V30.8468M26.4819 30.8468V30.8405M26.4819 30.8468V30.8405M26.4819 30.8405V30.8342M26.4819 30.8405V30.8342M26.4819 30.8342V30.828M26.4819 30.8342V30.828M26.4819 30.828V30.8217M26.4819 30.828V30.8217M26.4819 30.8217V30.8154M26.4819 30.8217V30.8154M26.4819 30.8154V30.8091M26.4819 30.8154V30.8091M26.4819 30.8091V30.8028V30.8091ZM57.2182 85.2208L57.2598 85.2378L57.3048 85.2392L57.664 85.2501L57.7188 85.2518L57.7693 85.2304L58.2862 85.0109L58.2863 85.0109C68.0401 80.8645 76.2181 74.1007 81.9602 65.4486C87.7025 56.7961 90.7411 46.6166 90.7631 36.0097V36.0092V35.9971V35.985V35.9729V35.9608V35.9488V35.9367V35.9246V35.9125V35.9005V35.8884V35.8763V35.8642V35.8521V35.8401V35.828V35.8159V35.8038V35.7918V35.7797V35.7676V35.7555V35.7434V35.7314V35.7193V35.7072V35.6951V35.6831V35.671V35.6589V35.6468V35.6347V35.6227V35.6106V35.5985V35.5864V35.5744V35.5623V35.5502V35.5381V35.5261V35.514V35.5019V35.4898V35.4777V35.4657V35.4536V35.4415V35.4294V35.4174V35.4053V35.3932V35.3811V35.369V35.357V35.3449V35.3328V35.3207V35.3087V35.2966V35.2845V35.2724V35.2603V35.2483V35.2362V35.2241V35.212V35.2V35.1879V35.1758V35.1637V35.1516V35.1396V35.1275V35.1154V35.1033V35.0913V35.0792V35.0671V35.055V35.043V35.0309V35.0188V35.0067V34.9946V34.9826V34.9705V34.9584V34.9463V34.9343V34.9222V34.9101V34.898V34.8859V34.8739V34.8618V34.8497V34.8376V34.8256V34.8135V34.8014V34.7893V34.7772V34.7652V34.7531V34.741V34.7289V34.7169V34.7048V34.6927V34.6806V34.6685V34.6565V34.6444V34.6323V34.6202V34.6082V34.5961V34.584V34.5719V34.5599V34.5478V34.5357V34.5236V34.5115V34.4995V34.4874V34.4753V34.4632V34.4512V34.4391V34.427V34.4149V34.4028V34.3908V34.3787V34.3666V34.3545V34.3425V34.3304V34.3183V34.3062V34.2941V34.2821V34.27V34.2579V34.2458V34.2338V34.2217V34.2096V34.1975V34.1854V34.1734V34.1613V34.1492V34.1371V34.1251V34.113V34.1009V34.0888V34.0768V34.0647V34.0526V34.0405V34.0284V34.0164V34.0043V33.9922V33.9801V33.9681V33.956V33.9439V33.9318V33.9197V33.9077V33.8956V33.8835V33.8714V33.8594V33.8473V33.8352V33.8231V33.811V33.799V33.7869V33.7748V33.7627V33.7507V33.7386V33.7265V33.7144V33.7023V33.6903V33.6782V33.6661V33.654V33.642V33.6299V33.6178V33.6057V33.5937V33.5816V33.5695V33.5574V33.5453V33.5333V33.5212V33.5091V33.497V33.485V33.4729V33.4608V33.4487V33.4366V33.4246V33.4125V33.4004V33.3883V33.3763V33.3642V33.3521V33.34V33.3279V33.3159V33.3038V33.2917V33.2796V33.2676V33.2555V33.2434V33.2313V33.2192V33.2072V33.1951V33.183V33.1709V33.1589V33.1468V33.1347V33.1226V33.1105V33.0985V33.0864V33.0743V33.0622V33.0502V33.0381V33.026V33.0139V33.0019V32.9898V32.9777V32.9656V32.9535V32.9415V32.9294V32.9173V32.9052V32.8932V32.8811V32.869V32.8569V32.8448V32.8328V32.8207V32.8086V32.7965V32.7845V32.7724V32.7603V32.7482V32.7361V32.7241V32.712V32.6999V32.6878V32.6758V32.6637V32.6516V32.6395V32.6275V32.6154V32.6033V32.5912V32.5791V32.5671V32.555V32.5429V32.5308V32.5188V32.5067V32.4946V32.4825V32.4704V32.4584V32.4463V32.4342V32.4221V32.4101V32.398V32.3859V32.3738V32.3617V32.3497V32.3376V32.3255V32.3134V32.3014V32.2893V32.2772V32.2651V32.253V32.241V32.2289V32.2168V32.2047V32.1927V32.1806V32.1685V32.1564V32.1444V32.1323V32.1202V32.1081V32.096V32.084V32.0719V32.0598V32.0477V32.0357V32.0236V32.0115V31.9994V31.9873V31.9753V31.9632V31.9511V31.939V31.927V31.9149V31.9028V31.8907V31.8786V31.8666V31.8545V31.8424V31.8303V31.8183V31.8062V31.7941V31.782V31.7699V31.7579V31.7458V31.7337V31.7216V31.7096V31.6975V31.6854V31.6733V31.6613V31.6492V31.6371V31.625V31.6129V31.6009V31.5888V31.5767V31.5646V31.5526V31.5405V31.5284V31.5163V31.5042V31.4922V31.4801V31.468V31.4559V31.4439V31.4318V31.4197V31.4076V31.3955V31.3835V31.3714V31.3593V31.3472V31.3352V31.3231V31.311V31.2989V31.2868V31.2748V31.2627V31.2506V31.2385V31.2265V31.2144V31.2023V31.1902V31.1782V31.1661V31.154V31.1419V31.1298V31.1178V31.1057V31.0936V31.0815V31.0695V31.0574V31.0453V31.0332V31.0211V31.0091V30.997V30.9849V30.9728V30.9608V30.9487V30.9366V30.9245V30.9124V30.9004V30.8883V30.8762V30.8641V30.8521V30.84V30.8279V30.8158V30.8037V30.7917V30.7796V30.7675V30.7554V30.7434V30.7313V30.7192V30.7071V30.6951V30.683V30.6709V30.6588V30.6467V30.6347V30.6226V30.6105V30.5984V30.5864V30.5743V30.5622V30.5501V30.538V30.526V30.5139V30.5018V30.4897V30.4777V30.4656V30.4535V30.4414V30.4293V30.4173V30.4052V30.3931V30.381V30.369V30.3569V30.3448V30.3327V30.3206V30.3086V30.2965V30.2844V30.2723V30.2603V30.2482V30.2361V30.224V30.212V30.1999V30.1878V30.1757V30.1636V30.1516V30.1395V30.1274V30.1153V30.1033V30.0912V30.0791V30.067V30.0549V30.0429V30.0308V30.0187V30.0066V29.9946V29.9825V29.9704V29.9583V29.9462V29.9342V29.9221V29.91V29.8979V29.8859V29.8738V29.8617V29.8496V29.8375V29.8255V29.8242C90.7478 26.7353 90.7456 23.5478 90.7631 20.3911L90.5131 20.3898L90.7631 20.3911C90.7654 19.97 90.7207 19.6302 90.5334 19.3525C90.3468 19.0758 90.0469 18.9028 89.6517 18.7391L89.556 18.97L89.6517 18.7391C80.6046 14.9916 70.6399 10.8447 58.2926 5.69092C58.0491 5.58095 57.7863 5.52025 57.5192 5.51232L57.5116 5.51209L57.504 5.51233C57.2286 5.52088 56.9576 5.58385 56.7065 5.6976C48.7396 9.02803 40.6346 12.398 32.7945 15.6561L32.7944 15.6561L25.3475 18.7523C25.1274 18.8437 24.9431 18.9247 24.7961 19.0104C24.6463 19.0978 24.5205 19.1984 24.4283 19.3361C24.3359 19.474 24.291 19.6284 24.2676 19.7998C24.2447 19.9678 24.2406 20.1682 24.2406 20.4051V20.4154V20.4258V20.4361V20.4465V20.4568V20.4671V20.4775V20.4878V20.4981V20.5085V20.5188V20.5292V20.5395V20.5498V20.5602V20.5705V20.5808V20.5912V20.6015V20.6118V20.6222V20.6325V20.6428V20.6532V20.6635V20.6738V20.6842V20.6945V20.7049V20.7152V20.7255V20.7359V20.7462V20.7565V20.7669V20.7772V20.7875V20.7979V20.8082V20.8185V20.8289V20.8392V20.8495V20.8599V20.8702V20.8805V20.8909V20.9012V20.9115V20.9219V20.9322V20.9425V20.9529V20.9632V20.9735V20.9838V20.9942V21.0045V21.0148V21.0252V21.0355V21.0458V21.0562V21.0665V21.0768V21.0872V21.0975V21.1078V21.1182V21.1285V21.1388V21.1491V21.1595V21.1698V21.1801V21.1905V21.2008V21.2111V21.2215V21.2318V21.2421V21.2524V21.2628V21.2731V21.2834V21.2938V21.3041V21.3144V21.3247V21.3351V21.3454V21.3557V21.3661V21.3764V21.3867V21.397V21.4074V21.4177V21.428V21.4384V21.4487V21.459V21.4693V21.4797V21.49V21.5003V21.5106V21.521V21.5313V21.5416V21.5519V21.5623V21.5726V21.5829V21.5933V21.6036V21.6139V21.6242V21.6346V21.6449V21.6552V21.6655V21.6759V21.6862V21.6965V21.7068V21.7172V21.7275V21.7378V21.7481V21.7585V21.7688V21.7791V21.7894V21.7998V21.8101V21.8204V21.8307V21.841V21.8514V21.8617V21.872V21.8823V21.8927V21.903V21.9133V21.9236V21.934V21.9443V21.9546V21.9649V21.9752V21.9856V21.9959V22.0062V22.0165V22.0269V22.0372V22.0475V22.0578V22.0681V22.0785V22.0888V22.0991V22.1094V22.1197V22.1301V22.1404V22.1507V22.161V22.1713V22.1817V22.192V22.2023V22.2126V22.2229V22.2333V22.2436V22.2539V22.2642V22.2745V22.2849V22.2952V22.3055V22.3158V22.3261V22.3365V22.3468V22.3571V22.3674V22.3777V22.3881V22.3984V22.4087V22.419V22.4293V22.4396V22.45V22.4603V22.4706V22.4809V22.4912V22.5015V22.5119V22.5222V22.5325V22.5428V22.5531V22.5634V22.5738V22.5841V22.5944V22.6047V22.615V22.6253V22.6357V22.646V22.6563V22.6666V22.6769V22.6872V22.6976V22.7079V22.7182V22.7285V22.7388V22.7491V22.7594V22.7698V22.7801V22.7904V22.8007V22.811V22.8213V22.8316V22.842V22.8523V22.8626V22.8729V22.8832V22.8935V22.9038V22.9141V22.9245V22.9348V22.9451V22.9554V22.9657V22.976V22.9863V22.9967V23.007V23.0173V23.0276V23.0379V23.0482V23.0585V23.0688V23.0791V23.0895V23.0998V23.1101V23.1204V23.1307V23.141V23.1513V23.1616V23.1719V23.1823V23.1926V23.2029V23.2132V23.2235V23.2338V23.2441V23.2544V23.2647V23.275V23.2854V23.2957V23.306V23.3163V23.3266V23.3369V23.3472V23.3575V23.3678V23.3781V23.3884V23.3988V23.4091V23.4194V23.4297V23.44V23.4503V23.4606V23.4709V23.4812V23.4915V23.5018V23.5121V23.5224V23.5328V23.5431V23.5534V23.5637V23.574V23.5843V23.5946V23.6049V23.6152V23.6255V23.6358V23.6461V23.6564V23.6667V23.677V23.6873V23.6977V23.708V23.7183V23.7286V23.7389V23.7492V23.7595V23.7698V23.7801V23.7904V23.8007V23.811V23.8213V23.8316V23.8419V23.8522V23.8625V23.8728V23.8831V23.8934V23.9037V23.914V23.9243V23.9347V23.945V23.9553V23.9656V23.9759V23.9862V23.9965V24.0068V24.0171V24.0274V24.0377V24.048V24.0583V24.0686V24.0789V24.0892V24.0995V24.1098V24.1201V24.1304V24.1407V24.151V24.1613V24.1716V24.1819V24.1922V24.2025V24.2128V24.2231V24.2334V24.2437V24.254V24.2643V24.2746V24.2849V24.2952V24.3055V24.3158V24.3261V24.3364V24.3467V24.357V24.3673V24.3776V24.3879V24.3982V24.4085V24.4188V24.4291V24.4394V24.4497V24.46V24.4703V24.4806V24.4909V24.5012V24.5115V24.5218V24.5321V24.5424V24.5527V24.563V24.5733V24.5835V24.5938V24.6041V24.6144V24.6247V24.635V24.6453V24.6556V24.6659V24.6762V24.6865V24.6968V24.7071V24.7174V24.7277V24.738V24.7483V24.7586V24.7689V24.7792V24.7895V24.7998V24.8101V24.8203V24.8306V24.8409V24.8512V24.8615V24.8718V24.8821V24.8924V24.9027V24.913V24.9233V24.9336V24.9439V24.9542V24.9645V24.9748V24.985V24.9953V25.0056V25.0159V25.0262V25.0365V25.0468V25.0571V25.0674V25.0777V25.088V25.0983V25.1086V25.1188V25.1291V25.1394V25.1497V25.16V25.1703V25.1806V25.1909V25.2012V25.2115V25.2218V25.232V25.2423V25.2526V25.2629V25.2732V25.2835V25.2938V25.3041V25.3144V25.3247V25.3349V25.3452V25.3555V25.3658V25.3761V25.3864V25.3967V25.407V25.4173V25.4275V25.4378V25.4481V25.4584V25.4687V25.479V25.4893V25.4996V25.5099V25.5201V25.5304V25.5407V25.551V25.5613V25.5716V25.5819V25.5922V25.6024V25.6127V25.623V25.6333V25.6436V25.6539V25.6642V25.6744V25.6847V25.7039V25.723V25.7422V25.7613V25.7805V25.7996V25.8188V25.838V25.8571V25.8763V25.8955V25.9147V25.9338V25.953V25.9722V25.9914V26.0106V26.0297V26.0489V26.0681V26.0873V26.1065V26.1257V26.1449V26.1641V26.1833V26.2026V26.2218V26.241V26.2602V26.2794V26.2986V26.3179V26.3371V26.3563V26.3756V26.3948V26.414V26.4333V26.4525V26.4718V26.491V26.5102V26.5295V26.5487V26.568V26.5873V26.6065V26.6258V26.645V26.6643V26.6836V26.7029V26.7221V26.7414V26.7607V26.78V26.7992V26.8185V26.8378V26.8571V26.8764V26.8957V26.915V26.9343V26.9536V26.9729V26.9922V27.0115V27.0308V27.0501V27.0694V27.0887V27.108V27.1274V27.1467V27.166V27.1853V27.2047V27.224V27.2433V27.2627V27.282V27.3013V27.3207V27.34V27.3593V27.3787V27.398V27.4174V27.4367V27.4561V27.4755V27.4948V27.5142V27.5335V27.5529V27.5723V27.5916V27.611V27.6304V27.6497V27.6691V27.6885V27.7079V27.7272V27.7466V27.766V27.7854V27.8048V27.8242V27.8436V27.863V27.8824V27.9018V27.9212V27.9406V27.96V27.9794V27.9988V28.0182V28.0376V28.057V28.0764V28.0958V28.1153V28.1347V28.1541V28.1735V28.1929V28.2124V28.2318V28.2512V28.2707V28.2901V28.3095V28.329V28.3484V28.3678V28.3873V28.4067V28.4262V28.4456V28.4651V28.4845V28.504V28.5234V28.5429V28.5623V28.5818V28.6013V28.6207V28.6402V28.6597V28.6791V28.6986V28.7181V28.7375V28.757V28.7765V28.796V28.8154V28.8349V28.8544V28.8739V28.8934V28.9128V28.9323V28.9518V28.9713V28.9908V29.0103V29.0298V29.0493V29.0688V29.0883V29.1078V29.1273V29.1468V29.1663V29.1858V29.2053V29.2248V29.2443V29.2638V29.2834V29.3029V29.3224V29.3419V29.3614V29.3809V29.4005V29.42V29.4395V29.459V29.4786V29.4981V29.5176V29.5372V29.5567V29.5762V29.5958V29.6153V29.6348V29.6544V29.6739V29.6935V29.713V29.7325V29.7521V29.7716V29.7912V29.8107V29.8303V29.8498V29.8694V29.8889V29.9085V29.9281V29.9476V29.9672V29.9867V30.0063V30.0259V30.0454V30.065V30.0846V30.1041V30.1237V30.1433V30.1628V30.1824V30.202V30.2216V30.2411V30.2607V30.2803V30.2999V30.3194V30.339V30.3586V30.3782V30.3978V30.4174V30.437V30.4565V30.4761V30.4957V30.5153V30.5349V30.5545V30.5741V30.5937V30.6133V30.6329V30.6525V30.6721V30.6917V30.7113V30.7309V30.7505V30.7701V30.7897V30.8093V30.8289V30.8485V30.8681V30.8877V30.9073V30.9269V30.9465V30.9662V30.9858V31.0054V31.025V31.0446V31.0642V31.0839V31.1035V31.1231V31.1427V31.1623V31.182V31.2016V31.2212V31.2408V31.2604V31.2801V31.2997V31.3193V31.339V31.3586V31.3782V31.3978V31.4175V31.4371V31.4567V31.4764V31.496V31.5156V31.5353V31.5549V31.5746V31.5942V31.6138V31.6335V31.6531V31.6727V31.6924V31.712V31.7317V31.7513V31.771V31.7906V31.8102V31.8299V31.8495V31.8692V31.8888V31.9085V31.9281V31.9478V31.9674V31.9871V32.0067V32.0264V32.046V32.0657V32.0853V32.105V32.1246V32.1443V32.164V32.1836V32.2033V32.2229V32.2426V32.2622V32.2819V32.3016V32.3212V32.3409V32.3605V32.3802V32.3999V32.4195V32.4392V32.4588V32.4785V32.4982V32.5178V32.5375V32.5572V32.5768V32.5965V32.6161V32.6358V32.6555V32.6751V32.6948V32.7145V32.7341V32.7538V32.7735V32.7931V32.8128V32.8325V32.8521V32.8718V32.8915V32.9112V32.9308V32.9505V32.9702V32.9898V33.0095V33.0292V33.0489V33.0685V33.0882V33.1079V33.1275V33.1472V33.1669V33.1866V33.2062V33.2259V33.2456V33.2653V33.2849V33.3046V33.3243V33.344V33.3636V33.3833V33.403V33.4226V33.4423V33.462V33.4817V33.5013V33.521V33.5407V33.5604V33.58V33.5997V33.6194V33.6391V33.6588V33.6784V33.6981V33.7178V33.7375V33.7571V33.7768V33.7965V33.8162V33.8358V33.8555V33.8752V33.8949V33.9145V33.9342V33.9539V33.9736V33.9932V34.0129V34.0326V34.0523V34.0719V34.0916V34.1113V34.131V34.1506V34.1703V34.19V34.2097V34.2293V34.249V34.2687V34.2884V34.308V34.3277V34.3474V34.367V34.3867V34.4064V34.4261V34.4457V34.4654V34.4851V34.5048V34.5244V34.5441V34.5638V34.5834V34.6031V34.6228V34.6424V34.6621V34.6818V34.7015V34.7211V34.7408V34.7605V34.7801V34.7998V34.8195V34.8391V34.8588V34.8785V34.8981V34.9178V34.9375V34.9571V34.9768V34.9964V35.0161V35.0358V35.0554V35.0751V35.0948V35.1144V35.1341V35.1537V35.1734V35.1931V35.2127V35.2324V35.252V35.2717V35.2914V35.311V35.3307V35.3503V35.37V35.3896V35.4093V35.4289V35.4486V35.4682V35.4879V35.5076V35.5272V35.5469V35.5665V35.5862V35.6058V35.6255V35.6451V35.6647V35.6832C24.205 39.4713 24.5783 43.2521 25.3542 46.9597L25.3544 46.9607C27.832 58.5688 33.6095 68.4055 42.5187 76.2068L42.5197 76.2078C46.8953 79.9957 51.8604 83.0403 57.2182 85.2208ZM26.2319 33.5098L26.4819 33.5119V33.5098H26.2319ZM55.8926 82.2056L55.889 82.2039L55.7792 82.4285L55.8926 82.2056Z" fill="#662D91" stroke="#662D91" stroke-width="0.5"/>
<path d="M63.24 41.3037C65.3208 39.2176 67.4016 37.1308 69.4824 35.0432C69.9205 34.6044 70.1395 34.6044 70.2272 34.6044C70.3267 34.607 70.4254 34.6233 70.5206 34.6527M63.24 41.3037L63.0631 41.1271L63.063 41.1272M63.24 41.3037L63.063 41.1272M63.24 41.3037L62.9794 41.5649C60.7613 43.787 58.5425 46.0121 56.323 48.2401L44.7626 41.8677C44.7082 41.8678 44.654 41.8729 44.6005 41.883M63.063 41.1272C65.1438 39.0411 67.2246 36.9543 69.3054 34.8668L69.3055 34.8666C69.538 34.6336 69.7264 34.5028 69.8826 34.4317C70.0475 34.3566 70.1636 34.3544 70.2272 34.3544H70.2338L70.2338 34.3545C70.3542 34.3577 70.4735 34.377 70.5887 34.412M63.063 41.1272L62.8025 41.3882C60.5843 43.6104 58.3655 45.8356 56.1459 48.0636L56.1288 48.0808L56.1152 48.101L55.9948 48.281L55.9948 48.2809L55.992 48.2853C55.9041 48.4227 55.8012 48.5774 55.6745 48.7559L55.6741 48.7565L54.0095 51.1164L52.2195 48.8551L52.2195 48.8551L52.2175 48.8526C52.0678 48.6685 51.9283 48.4813 51.8518 48.3784C51.7779 48.2791 51.6704 48.1393 51.6307 48.0965L51.6308 48.0964L51.6246 48.09C50.5529 47.0135 49.4806 45.9377 48.4075 44.8626C48.4072 44.8624 48.407 44.8621 48.4068 44.8619L48.268 44.7207L48.268 44.7206L48.2656 44.7182C47.396 43.8573 46.5294 42.9884 45.6657 42.1114L45.6657 42.1114L45.6645 42.1102C45.4405 41.8858 45.2552 41.7598 45.1005 41.6914C44.9382 41.6197 44.8231 41.6177 44.7626 41.6177H44.7623C44.6926 41.6178 44.623 41.6243 44.5545 41.6373M70.5887 34.412C70.5868 34.4115 70.5848 34.411 70.5828 34.4105L70.5206 34.6527M70.5887 34.412C70.5906 34.4126 70.5925 34.4132 70.5944 34.4138L70.5206 34.6527M70.5887 34.412C70.7635 34.458 70.9242 34.5466 71.0566 34.6698C71.1904 34.7944 71.2909 34.9506 71.349 35.124L71.3503 35.1278L71.3503 35.1278C71.4067 35.3054 71.4176 35.4943 71.3821 35.6772C71.3467 35.8591 71.2666 36.0293 71.1489 36.1723M70.5206 34.6527C70.6572 34.6878 70.7829 34.7565 70.8862 34.8527C70.9895 34.9489 71.0671 35.0695 71.112 35.2034C71.1557 35.3412 71.1642 35.4877 71.1366 35.6296C71.1091 35.7714 71.0464 35.9041 70.9543 36.0153M71.1489 36.1723C71.1496 36.1714 71.1503 36.1705 71.151 36.1696L70.9543 36.0153M71.1489 36.1723C71.1483 36.1731 71.1476 36.1739 71.1469 36.1748L70.9543 36.0153M71.1489 36.1723C71.0896 36.2474 70.9877 36.3519 70.8927 36.4493C70.8555 36.4875 70.8194 36.5246 70.7873 36.5584L70.7798 36.5663L70.7796 36.5661L70.7222 36.6215M70.9543 36.0153C70.9041 36.0794 70.8178 36.1679 70.7265 36.2615C70.6865 36.3026 70.6455 36.3447 70.6061 36.3862L70.5469 36.4432M70.7222 36.6215C70.7228 36.6209 70.7234 36.6203 70.7239 36.6198L70.5469 36.4432M70.7222 36.6215L70.7205 36.6232L70.5469 36.4432M70.7222 36.6215C65.4925 41.8652 60.2614 47.1067 55.0288 52.3461M70.5469 36.4432C65.3165 41.6877 60.0845 46.9301 54.8511 52.1702M54.8511 52.1702L55.0293 52.3455C55.0291 52.3457 55.0289 52.3459 55.0288 52.3461M54.8511 52.1702C54.3868 52.6419 54.0473 52.8087 53.8677 52.8087C53.7034 52.8087 53.3661 52.6485 52.9171 52.1987M54.8511 52.1702L55.028 52.3468C55.0283 52.3466 55.0285 52.3463 55.0288 52.3461M55.0288 52.3461C54.7866 52.592 54.5699 52.7659 54.3826 52.8799C54.2013 52.9903 54.0245 53.0587 53.8677 53.0587C53.7183 53.0587 53.5459 52.9916 53.3709 52.8869C53.1882 52.7777 52.9756 52.6111 52.7402 52.3753M52.9171 52.1987L52.7405 52.3756L52.7402 52.3753M52.9171 52.1987L52.3345 51.6172C52.0469 51.3293 51.7583 51.0404 51.4688 50.7506C49.0637 48.3433 46.598 45.8753 44.1777 43.4388M52.9171 52.1987L52.7402 52.3753M52.7402 52.3753L52.1579 51.7941L52.1576 51.7939C51.8701 51.5061 51.5816 51.2173 51.2922 50.9276C48.8871 48.5203 46.4212 46.052 44.0006 43.6153M44.0006 43.6153C44.0007 43.6153 44.0007 43.6154 44.0008 43.6154L44.1777 43.4388M44.0006 43.6153C43.7975 43.4118 43.6609 43.223 43.6056 43.0143C43.5488 42.7998 43.5885 42.6041 43.6484 42.4169L44.1777 43.4388M44.0006 43.6153C44.0005 43.6152 44.0005 43.6151 44.0004 43.615L44.1777 43.4388M44.6005 41.883L44.5545 41.6373M44.6005 41.883L44.5539 41.6374C44.5541 41.6374 44.5543 41.6374 44.5545 41.6373M44.6005 41.883L44.5545 41.6373M44.5545 41.6373C44.3243 41.6804 44.1249 41.7437 43.966 41.8796C43.8052 42.017 43.7171 42.2019 43.6484 42.4169L44.5545 41.6373Z" fill="#662D91" stroke="#662D91" stroke-width="0.5"/>
</svg>
