<svg width="16" height="16" viewBox="0 0 16 16" fill="none" xmlns="http://www.w3.org/2000/svg">
<path d="M7.4991 0H8.50108C8.60336 0.0125253 8.70565 0.026717 8.80793 0.0379897C10.3906 0.207916 11.8088 0.784918 13.0383 1.79446C14.5722 3.05367 15.5266 4.66358 15.8772 6.62212C15.9294 6.91438 15.9608 7.20664 16 7.49889V8.50092C15.9908 8.54642 15.9791 8.5911 15.9728 8.63702C15.9265 8.96644 15.901 9.30003 15.8326 9.62485C14.9646 13.7382 11.1049 16.4858 6.9476 15.9292C4.81382 15.6441 3.06246 14.6387 1.729 12.9507C0.334177 11.1859 -0.213155 9.16434 0.0740766 6.93567C0.30286 5.15917 1.0723 3.63066 2.33603 2.36185C3.53047 1.16235 4.96621 0.409991 6.63616 0.121074C6.92256 0.0709726 7.21146 0.0396634 7.4991 0ZM8.00009 15.0007C11.8535 15.0007 14.9926 11.8656 15.0005 8.00867C15.0084 4.15172 11.8614 1.00035 8.00093 0.999934C4.14709 0.999934 1.00799 4.13501 1.00048 7.99197C0.992965 11.8489 4.13957 15.0003 7.99883 15.0007H8.00009Z" fill="#414141"/>
<path d="M7.4986 3.00354H8.50057V3.18599C8.50057 4.67038 8.49959 6.15435 8.49764 7.6379C8.49535 7.68884 8.50434 7.73965 8.52397 7.78671C8.54361 7.83377 8.57339 7.87591 8.6112 7.91012C9.48292 8.77603 10.3526 9.64403 11.2201 10.5141C11.2581 10.5494 11.2981 10.5824 11.3399 10.6131L10.6252 11.3266C10.6147 11.3174 10.5834 11.2919 10.5559 11.264C9.56892 10.2775 8.5831 9.28943 7.59839 8.29965C7.54262 8.24278 7.50901 8.16786 7.50362 8.08839C7.49805 6.43812 7.49665 4.78756 7.49944 3.13673L7.4986 3.00354Z" fill="#414141"/>
</svg>
