<svg width="70" height="60" viewBox="0 0 70 60" fill="none" xmlns="http://www.w3.org/2000/svg">
<circle cx="28.5" cy="28.5" r="28.5" fill="#662D91" fill-opacity="0.1"/>
<path d="M31.808 26.3174C31.808 26.1602 31.7296 26.0344 31.6509 25.9714C30.5656 25.0591 31.2261 24.3041 31.871 23.5963C32.5159 22.8885 33.208 22.275 33.9001 21.6459C34.0121 21.505 34.1544 21.3912 34.3164 21.313C34.4785 21.2348 34.6561 21.1942 34.836 21.1942C35.0159 21.1942 35.1935 21.2348 35.3556 21.313C35.5176 21.3912 35.6599 21.505 35.7719 21.6459C36.3067 22.1335 37.927 21.4571 37.9585 20.7335C37.9403 20.5631 37.961 20.3909 38.0191 20.2297C38.0772 20.0685 38.171 19.9226 38.2937 19.8029C38.4164 19.6833 38.5647 19.5931 38.7273 19.539C38.8899 19.485 39.0624 19.4685 39.2323 19.4909C40.4634 19.4202 41.6977 19.4202 42.9288 19.4909C43.1448 19.5459 43.3445 19.6517 43.5114 19.7994C43.6783 19.9471 43.8077 20.1325 43.8885 20.3403C43.9445 20.6059 44.0649 20.8537 44.2395 21.0616C44.4141 21.2694 44.6373 21.4311 44.8892 21.5322C45.1412 21.6333 45.4143 21.6707 45.6842 21.6411C45.954 21.6116 46.2124 21.516 46.4365 21.3627C46.6217 21.2688 46.8267 21.2198 47.0344 21.2198C47.2421 21.2198 47.4467 21.2688 47.6319 21.3627C48.6857 22.2671 49.6692 23.2504 50.5735 24.3041C50.6646 24.5069 50.7117 24.7267 50.7117 24.949C50.7117 25.1713 50.6646 25.3912 50.5735 25.594C50.4495 25.8134 50.3761 26.0579 50.3592 26.3094C50.3424 26.5609 50.3823 26.813 50.476 27.047C50.5696 27.281 50.7147 27.491 50.9003 27.6615C51.0859 27.832 51.3074 27.9586 51.5485 28.032C51.926 28.1421 52.4767 28.5825 52.4924 28.8971C52.5947 30.2794 52.5947 31.6674 52.4924 33.0497C52.4924 33.3643 51.9418 33.8204 51.5643 33.9305C51.3211 34.0018 51.0966 34.126 50.9072 34.2944C50.7178 34.4628 50.5683 34.6711 50.469 34.9042C50.3698 35.1374 50.3232 35.3896 50.3331 35.6428C50.343 35.896 50.4091 36.1439 50.5263 36.3686C50.6293 36.5819 50.6829 36.8158 50.6829 37.0528C50.6829 37.2898 50.6293 37.5237 50.5263 37.737C49.7911 38.6375 48.992 39.4839 48.1354 40.2695C47.5219 40.8673 46.8769 41.1661 46.0905 40.3953C45.6028 39.9077 44.014 40.6785 43.9511 41.4178C43.9648 41.5679 43.9464 41.7193 43.8966 41.8616C43.8467 42.0039 43.7667 42.134 43.6623 42.2428C43.5579 42.3517 43.4315 42.4368 43.2913 42.4925C43.1512 42.5483 43.0007 42.5734 42.8501 42.566C41.7176 42.566 40.6009 42.6604 39.4684 42.566C38.6348 42.566 37.8955 42.3143 37.8955 41.1975C37.8955 40.5054 36.2126 39.9392 35.662 40.4268C35.5602 40.5518 35.4316 40.6525 35.2861 40.7216C35.1405 40.7908 34.9814 40.8268 34.8203 40.8268C34.6591 40.8268 34.5 40.7908 34.3544 40.7216C34.2089 40.6525 34.0806 40.5518 33.9789 40.4268C33.2239 39.7504 32.4057 39.0583 31.7765 38.319C31.1473 37.5797 30.5813 36.9506 31.5722 36.0226C31.9969 35.6136 31.1634 33.9777 30.5185 33.9463C30.3587 33.9633 30.197 33.9446 30.0454 33.8916C29.8937 33.8385 29.7557 33.7524 29.6414 33.6395C29.527 33.5267 29.4391 33.3898 29.3841 33.2388C29.329 33.0879 29.3081 32.9266 29.323 32.7666C29.323 31.4925 29.323 30.2184 29.323 28.9601C29.323 28.614 29.889 28.032 30.2036 28.032C31.6349 28.0949 31.2575 26.8523 31.808 26.3174ZM50.825 32.0587C51.0138 30.3757 51.0139 30.3757 49.7555 29.4477C49.238 28.9165 48.8529 28.2708 48.6315 27.563C48.4101 26.8552 48.3587 26.1051 48.4814 25.3737C48.8746 24.603 48.3239 24.3041 47.9464 24.0053C47.7746 23.849 47.5737 23.7282 47.355 23.65C47.1364 23.5717 46.9046 23.5374 46.6726 23.5491C45.8299 23.6831 44.9665 23.5787 44.18 23.248C43.3934 22.9172 42.7148 22.3732 42.2211 21.6773C42.0683 21.4985 41.8774 21.3562 41.6623 21.2609C41.4473 21.1656 41.2135 21.1198 40.9784 21.1268C40.7439 21.1199 40.5105 21.1626 40.2937 21.252C40.0768 21.3415 39.8814 21.4757 39.72 21.6459C39.2269 22.3667 38.5341 22.9279 37.7265 23.2605C36.9189 23.593 36.032 23.6824 35.1743 23.5177C34.9588 23.5041 34.7429 23.5378 34.5418 23.6166C34.3407 23.6954 34.1593 23.8173 34.0104 23.9738C33.6958 24.2884 33.3338 24.8704 33.4282 25.2322C33.5938 26.0852 33.5099 26.9677 33.1862 27.774C32.8626 28.5804 32.313 29.2762 31.6037 29.7779C31.4306 29.9354 31.2922 30.1272 31.1974 30.3412C31.1026 30.5552 31.0534 30.7866 31.053 31.0206C31.049 31.2547 31.0932 31.4871 31.1824 31.7035C31.2717 31.9199 31.4044 32.1158 31.5722 32.279C32.2951 32.7657 32.8574 33.4559 33.1878 34.2623C33.5182 35.0687 33.6017 35.955 33.4282 36.8091C33.4023 36.9921 33.4172 37.1786 33.4716 37.3553C33.5259 37.532 33.6184 37.6946 33.7427 37.8314C34.1045 38.1775 34.6709 38.6808 35.0484 38.6179C36.0136 38.3621 37.0384 38.4574 37.94 38.8866C38.8417 39.3158 39.5618 40.0512 39.9719 40.9616C40.6954 40.7257 41.6548 41.5279 42.2368 40.4425C42.7018 39.7037 43.3831 39.1261 44.188 38.7884C44.993 38.4506 45.8823 38.3691 46.7352 38.555C46.9171 38.5841 47.1033 38.5724 47.2801 38.5207C47.457 38.469 47.6203 38.3786 47.7579 38.2561C48.1039 37.8944 48.6073 37.3281 48.5443 36.9348C48.2867 35.9836 48.3745 34.9719 48.792 34.0792C49.2096 33.1866 49.9298 32.4707 50.825 32.0587Z" fill="#662D91"/>
<path d="M68.9991 13.797C68.9991 16.6598 68.9991 19.5225 68.9991 22.3852C68.9991 23.3919 68.6371 23.8166 67.6147 23.8166C63.6928 23.8166 59.7763 23.8166 55.8649 23.8166C54.9054 23.8166 54.4966 23.4548 54.5124 22.4953C54.5124 16.6912 54.5124 10.887 54.5124 5.09858C54.472 4.81373 54.4989 4.5234 54.5911 4.25086C54.6832 3.97832 54.8377 3.73118 55.0427 3.52929C55.2476 3.32739 55.4973 3.17638 55.7712 3.08834C56.0451 3.00029 56.3356 2.97764 56.6199 3.02229H66.907C67.1898 2.98182 67.4781 3.00833 67.7487 3.09967C68.0194 3.191 68.2649 3.34468 68.4653 3.5482C68.6658 3.75172 68.8159 3.99947 68.9031 4.2715C68.9903 4.54353 69.0124 4.83218 68.9676 5.11433C69.0148 7.99281 68.9991 10.9028 68.9991 13.797ZM56.4156 4.84695V21.9291H59.2154C58.602 20.9539 59.8601 19.6011 58.2085 19.0821V17.5091H65.334V19.0821C63.651 19.6483 64.8463 20.9538 64.3901 21.8976H67.0802V4.84695H56.4156ZM62.5971 21.9448V19.3494H60.914V21.9448H62.5971Z" fill="#662D91"/>
<path d="M28.304 51.8308C28.304 53.8599 28.304 55.7317 28.304 57.6035C28.304 58.6731 27.9266 59.0978 26.8412 59.082C23.5695 59.082 20.2821 59.082 17.0103 59.082C15.9879 59.082 15.5948 58.6731 15.6106 57.6507C15.6106 55.7789 15.6106 53.8913 15.6106 51.8308C15.0874 51.8796 14.5608 51.8796 14.0376 51.8308C13.6759 51.8308 13.1723 51.5948 13.0465 51.3117C12.9923 51.1255 12.9853 50.9287 13.0265 50.7391C13.0677 50.5496 13.1556 50.3733 13.2823 50.2264C15.8776 47.5681 18.5359 44.9413 21.147 42.3616C21.7447 41.7639 22.2796 41.9527 22.7987 42.4875C25.3468 45.0514 27.9266 47.5839 30.4433 50.1792C30.588 50.3303 30.6971 50.5118 30.7624 50.7105C30.8278 50.9092 30.8477 51.12 30.8208 51.3274C30.695 51.6263 30.1445 51.815 29.7356 51.9094C29.257 51.9279 28.7776 51.9016 28.304 51.8308ZM22.1854 44.2807L16.4911 49.9905C17.2304 49.9905 17.4823 50.5724 17.4665 51.4218C17.4665 53.3251 17.4665 55.2284 17.4665 57.1788H19.2753C19.2753 56.1092 19.2753 55.1025 19.2753 54.0329C19.2753 52.9633 19.6057 52.6329 20.5809 52.6644C21.5562 52.6959 22.3898 52.6644 23.2864 52.6644C24.1829 52.6644 24.7648 53.1206 24.7176 54.2373C24.6704 55.3541 24.7176 56.235 24.7176 57.2102H26.5267C26.5267 55.2755 26.5267 53.4037 26.5267 51.5319C26.5267 50.6353 26.6995 49.959 27.8792 49.959L27.2974 49.3455L22.1854 44.2807ZM21.1159 57.1945H22.8144V54.6149H21.1159V57.1945Z" fill="#662D91"/>
<path d="M20.0778 31.9015H18.5049C17.3409 23.7222 24.0887 9.51854 40.0069 8.30737C40.0069 7.53663 40.0069 6.73445 40.0069 5.9637C40.0069 4.83118 40.6833 4.39075 41.5798 5.06712C43.2629 6.15245 44.9147 7.25348 46.5663 8.386C47.4315 8.98372 47.4472 9.56572 46.5663 10.1634C44.899 11.3117 43.2003 12.4441 41.5015 13.5452C40.6207 14.0957 39.9286 13.7026 39.9286 12.6487C39.9286 11.8622 39.9286 11.0757 39.9286 10.3049C34.4458 10.5744 29.2894 12.9912 25.5747 17.0327C21.8599 21.0742 19.8852 26.4156 20.0778 31.9015ZM41.9105 11.233L44.7415 9.31399L41.9105 7.47367V11.233Z" fill="#662D91"/>
<path d="M61.6211 33.6788L63.3984 33.8361C62.7476 39.1618 60.2014 44.0752 56.2257 47.678C52.2898 51.2917 47.2033 53.3978 41.8649 53.6237C41.8649 54.5361 41.8649 55.354 41.8649 56.1719C41.8649 56.9898 41.1571 57.5246 40.2919 57.0055C38.546 55.8887 36.8314 54.7405 35.1326 53.5608C34.3934 53.0574 34.3776 52.4282 35.1326 51.9878C36.8314 50.8081 38.546 49.6599 40.2919 48.5431C41.1571 47.9768 41.8649 48.3858 41.8649 49.4554C41.8649 49.8172 41.8649 50.1947 41.8649 50.5722V51.8306C46.7659 51.6489 51.4383 49.7117 55.0302 46.3724C58.6589 43.0536 60.9943 38.5562 61.6211 33.6788ZM40.0085 54.6147V50.8553L37.1933 52.7272L40.0085 54.6147Z" fill="#662D91"/>
<path d="M20.0591 39.672L19.3828 37.8631L21.0975 37.2811L21.7107 38.9799L20.0591 39.672Z" fill="#662D91"/>
<path d="M63.399 28.0636L61.6371 28.3467L61.2754 26.5693L63.0373 26.1918L63.399 28.0636Z" fill="#662D91"/>
<path d="M20.645 35.5036L18.8831 35.8811L18.5371 33.9936L20.299 33.7262L20.645 35.5036Z" fill="#662D91"/>
<path d="M61.8058 31.8701C61.7939 31.65 61.7939 31.4295 61.8058 31.2095V30.2185H63.5362V31.7914L61.8058 31.8701Z" fill="#662D91"/>
<path d="M40.9213 38.2561C39.9692 38.252 39.0273 38.0597 38.1498 37.6901C37.2724 37.3205 36.4766 36.781 35.8085 36.1027C35.1404 35.4243 34.6132 34.6205 34.257 33.7375C33.9008 32.8545 33.7225 31.9097 33.7329 30.9577C33.7535 29.0551 34.5228 27.2372 35.8741 25.8977C37.2254 24.5582 39.0501 23.8048 40.9528 23.8008C42.876 23.8008 44.7203 24.5647 46.0802 25.9246C47.4401 27.2845 48.2042 29.1289 48.2042 31.052C48.2001 32.0035 48.0081 32.9449 47.6397 33.8222C47.2713 34.6996 46.7337 35.4956 46.0572 36.1648C45.3807 36.8339 44.5786 37.3631 43.6974 37.722C42.8161 38.0808 41.8728 38.2624 40.9213 38.2561ZM40.9213 36.463C42.3485 36.4632 43.7186 35.9028 44.7365 34.9025C45.7545 33.9022 46.3389 32.542 46.3636 31.115C46.374 30.3984 46.2426 29.6869 45.9765 29.0214C45.7105 28.356 45.315 27.7498 44.8133 27.2379C44.3117 26.7261 43.7137 26.3187 43.0538 26.0392C42.3938 25.7598 41.6852 25.6138 40.9685 25.6097C39.5413 25.6095 38.1713 26.1698 37.1533 27.1702C36.1353 28.1705 35.551 29.5307 35.5262 30.9577C35.5179 31.675 35.6516 32.387 35.9195 33.0525C36.1873 33.718 36.584 34.3239 37.0869 34.8356C37.5897 35.3472 38.1887 35.7544 38.8495 36.0337C39.5103 36.313 40.2197 36.4589 40.9371 36.463H40.9213Z" fill="#662D91"/>
<path d="M59.0719 6.67126V8.35433H57.373V6.67126H59.0719Z" fill="#662D91"/>
<path d="M62.6442 6.70264V8.27558H60.9453V6.70264H62.6442Z" fill="#662D91"/>
<path d="M64.5273 6.67126H66.1948V8.35433H64.5273V6.67126Z" fill="#662D91"/>
<path d="M59.0719 10.2418V11.8934H57.373V10.2418H59.0719Z" fill="#662D91"/>
<path d="M62.6089 10.2418V11.9249H60.9258V10.2418H62.6089Z" fill="#662D91"/>
<path d="M66.2299 10.2418V11.9249H64.5625V10.2418H66.2299Z" fill="#662D91"/>
<path d="M59.0721 13.9384V15.5113H57.3574V13.9384H59.0721Z" fill="#662D91"/>
<path d="M62.5774 15.6213H60.9258V13.9069H62.5774V15.6213Z" fill="#662D91"/>
<path d="M66.2261 13.9069V15.5742H64.543V13.9069H66.2261Z" fill="#662D91"/>
<path d="M40.0231 27.5443H41.722C42.2411 30.1239 41.9893 32.4047 39.2681 33.8361L38.2773 32.5148C40.1963 31.4294 40.2748 29.5105 40.0231 27.5443Z" fill="#662D91"/>
</svg>
