<svg width="74" height="59" viewBox="0 0 74 59" fill="none" xmlns="http://www.w3.org/2000/svg">
<circle cx="28.5" cy="30.5" r="28.5" fill="#662D91" fill-opacity="0.1"/>
<mask id="path-2-outside-1_281_8" maskUnits="userSpaceOnUse" x="16" y="0.942017" width="58" height="57" fill="black">
<rect fill="white" x="16" y="0.942017" width="58" height="57"/>
<path d="M40.0452 57.0441C39.3648 56.9029 38.7527 56.5345 38.3093 55.9994C37.8659 55.4642 37.6176 54.7941 37.6053 54.0993V53.7123H20.0459C19.3698 53.7497 18.7021 53.5475 18.1604 53.1412C17.6187 52.7349 17.2376 52.1506 17.0842 51.491C17.0842 51.4153 17.0252 51.348 17 51.2723V16.7758C17.0673 16.6327 17.1346 16.4813 17.1935 16.3299C17.3334 15.9763 17.5143 15.6403 17.7321 15.3286C18.001 14.9936 18.3455 14.7273 18.7376 14.5518C19.1297 14.3762 19.558 14.2964 19.9869 14.319H21.4425V11.921C21.4425 11.2058 21.6527 10.9955 22.3847 10.9955H30.7145C30.9679 11.0202 31.2219 10.9543 31.4314 10.8096C31.6409 10.6648 31.7922 10.4504 31.8587 10.2046C32.5243 8.37392 33.5649 6.70237 34.9138 5.297C36.2627 3.89163 37.8901 2.7834 39.6919 2.04324C39.8356 1.98113 39.9898 1.94688 40.1463 1.94228C40.2746 1.93852 40.4008 1.97563 40.5066 2.04822C40.6125 2.1208 40.6925 2.22509 40.7352 2.34612C40.9119 2.74157 40.7354 3.06973 40.2305 3.31373L39.8854 3.46517C37.4008 4.5531 35.3348 6.41549 33.9958 8.77426C32.3644 11.5822 31.8914 14.9153 32.6768 18.0664C33.4622 21.2174 35.4443 23.9385 38.2027 25.6523C39.0073 26.0545 39.6711 26.6911 40.1067 27.4782C40.5422 28.2652 40.7292 29.1657 40.6428 30.0611V30.9614H44.2187V30.3893C44.2187 30.263 44.2187 30.1369 44.2187 30.0023V28.2438C44.2187 25.2653 44.2187 22.2868 44.2187 19.3083C44.2071 18.9018 44.0486 18.5133 43.7727 18.2145C43.2258 17.634 42.6621 17.0703 42.0899 16.5318L41.3073 15.7493C40.6342 15.0678 40.9876 14.706 41.1054 14.5882C41.1598 14.5241 41.2266 14.4716 41.3018 14.434C41.377 14.3964 41.459 14.3745 41.5429 14.3694C41.8396 14.4084 42.1105 14.5588 42.3003 14.7901L43.9157 16.414L44.9253 17.4321L47.1551 15.1856C47.3486 14.992 47.5336 14.7985 47.7271 14.6218C47.8741 14.4712 48.0722 14.3812 48.2824 14.3694C48.3684 14.3721 48.4531 14.3921 48.5311 14.4283C48.6092 14.4644 48.6791 14.516 48.7367 14.5798C48.808 14.6414 48.8652 14.7176 48.9044 14.8033C48.9435 14.8889 48.9637 14.982 48.9637 15.0762C48.9637 15.1704 48.9435 15.2635 48.9044 15.3491C48.8652 15.4348 48.808 15.511 48.7367 15.5726C48.2992 16.0269 47.8532 16.4813 47.3989 16.9272C46.9445 17.3731 46.4903 17.8359 46.0444 18.2987C45.8077 18.5434 45.6699 18.8671 45.6574 19.2074C45.6574 22.4102 45.6574 25.6187 45.6574 28.8327V30.3725C45.6499 30.4283 45.6499 30.4849 45.6574 30.5407V30.9193L46.036 30.9951H49.208V29.5984C49.1753 28.862 49.3495 28.1313 49.7108 27.4889C50.0722 26.8464 50.6062 26.3181 51.2525 25.9636C52.8057 25.0807 54.1489 23.8712 55.189 22.4186C56.2291 20.9659 56.9415 19.3047 57.2769 17.5498C57.8781 14.7201 57.4847 11.7697 56.1635 9.19623C54.8423 6.62273 52.6739 4.58369 50.0241 3.42311C48.9976 2.96877 49.1828 2.58171 49.2501 2.35454C49.2825 2.23617 49.3544 2.13246 49.4538 2.06054C49.5533 1.98863 49.6743 1.95284 49.7969 1.95912C50.0689 1.97765 50.3347 2.0491 50.5793 2.16946C52.324 2.91741 53.8965 4.01582 55.1991 5.39658C56.5017 6.77733 57.5066 8.41096 58.1517 10.1962C58.2133 10.4534 58.3653 10.6799 58.58 10.8344C58.7947 10.9889 59.0579 11.061 59.3213 11.0376H67.6173C68.383 11.0376 68.5765 11.2311 68.5849 11.9883V13.772C68.5794 13.8336 68.5794 13.8956 68.5849 13.9572L68.6859 14.3694H69.8637C70.2814 14.341 70.7003 14.4021 71.0924 14.5488C71.4845 14.6954 71.8407 14.9243 72.1371 15.2199C72.4336 15.5155 72.6633 15.8711 72.811 16.2627C72.9587 16.6544 73.0211 17.0732 72.9937 17.4909V50.759C73.0042 51.1548 72.9338 51.5486 72.7869 51.9163C72.6399 52.284 72.4195 52.6178 72.1391 52.8974C71.8587 53.177 71.5243 53.3964 71.1562 53.5423C70.7881 53.6882 70.3942 53.7575 69.9984 53.7459H52.3884V54.133C52.3757 54.829 52.1262 55.4999 51.6812 56.0353C51.2361 56.5706 50.6219 56.9383 49.9399 57.0778L40.0452 57.0441ZM48.5011 49.2698C47.8533 49.2046 47.2054 49.3923 46.6927 49.7937C46.1799 50.1951 45.842 50.7791 45.7498 51.4237C45.6812 52.3082 45.6673 53.1962 45.7079 54.0825C45.7079 54.4695 45.7079 54.8481 45.7079 55.2352V55.6559H49.4352C49.8198 55.6544 50.1895 55.5067 50.4692 55.2426C50.7489 54.9785 50.9177 54.6179 50.9413 54.2339C51.1011 52.8625 51.6983 52.3324 53.095 52.3324H69.645C71.1005 52.3324 71.6139 51.8108 71.6139 50.3552V41.9414C71.6139 34.0156 71.6139 26.087 71.6139 18.1556C71.7104 17.4481 71.5229 16.7312 71.0922 16.1616C70.9038 15.9986 70.6846 15.8752 70.4475 15.7986C70.2105 15.722 69.9605 15.6937 69.7123 15.7156C69.4767 15.7156 69.2159 15.7156 68.9214 15.7156H68.5344V48.4452C68.5419 48.5466 68.5276 48.6484 68.4922 48.7437C68.4568 48.839 68.4012 48.9255 68.3293 48.9974C68.2574 49.0693 68.1709 49.1248 68.0756 49.1602C67.9803 49.1956 67.8785 49.21 67.7771 49.2024H48.4255L48.5011 49.2698ZM36.9153 52.3324C37.1831 52.2909 37.4568 52.3094 37.7165 52.3868C37.9761 52.4641 38.2153 52.5983 38.4167 52.7795C38.6181 52.9608 38.7766 53.1846 38.8808 53.4347C38.9849 53.6848 39.032 53.9549 39.0188 54.2255C39.0296 54.5806 39.1699 54.9194 39.4132 55.1782C39.6565 55.437 39.9861 55.5979 40.3398 55.6306C40.8362 55.6306 41.3242 55.6306 41.8206 55.6306H44.2942V52.223C44.3401 51.82 44.2943 51.4119 44.1603 51.0291C44.0263 50.6463 43.8074 50.2987 43.5202 50.0123C43.233 49.726 42.885 49.5082 42.5018 49.3752C42.1186 49.2423 41.7102 49.1976 41.3073 49.2446H22.5279C21.5435 49.2446 21.4088 49.1099 21.4088 48.1171V15.7072H20.4413C18.7586 15.7072 18.3463 16.17 18.3463 17.8528V50.4057C18.3463 51.7855 18.8764 52.324 20.2478 52.3324H36.9153ZM41.1222 47.8731C41.996 47.8044 42.8714 47.9853 43.6464 48.3948L44.2774 48.765V39.0807H43.5624C42.9892 39.1108 42.4161 39.0187 41.8812 38.8104C41.3464 38.6022 40.862 38.2826 40.4602 37.8728C40.0583 37.463 39.7483 36.9724 39.5506 36.4336C39.3529 35.8948 39.272 35.32 39.3134 34.7476V33.292C39.3134 32.1309 39.3134 30.9698 39.3134 29.8087C39.3478 29.231 39.2175 28.6554 38.9374 28.149C38.6574 27.6425 38.2391 27.226 37.7315 26.948C35.5355 25.6442 33.7441 23.7572 32.5558 21.4966C31.3676 19.236 30.8292 16.6903 31.0004 14.1423C31.0004 13.8562 31.0426 13.5701 31.0762 13.3009L31.1605 12.3922H22.8307V47.8731H39.9275H41.1222ZM58.8501 12.8297C58.8501 13.284 58.8501 13.7384 58.8501 14.1843C58.9113 15.107 58.8915 16.0333 58.7912 16.9525C58.5202 19.0394 57.7721 21.0358 56.6047 22.7868C55.4374 24.5377 53.8823 25.9962 52.0601 27.049C51.5995 27.3039 51.2194 27.6823 50.9622 28.1416C50.705 28.6009 50.5811 29.1229 50.6046 29.6488C50.6046 31.2811 50.6046 33.1995 50.6046 35.1346C50.587 36.047 50.2552 36.9252 49.665 37.6212C49.0748 38.3171 48.2626 38.788 47.3654 38.9545C47.0709 39.005 46.7764 39.0302 46.524 39.0554H46.0781L45.6995 39.0975V48.7229L46.3221 48.3695C47.1679 47.9554 48.1092 47.7753 49.0482 47.8478H67.1292V12.409H58.8585L58.8501 12.8297ZM40.6512 33.5781C40.6512 34.1334 40.6512 34.6803 40.6512 35.2188C40.6929 35.8658 40.9749 36.474 41.4419 36.9239C41.9088 37.3737 42.5272 37.6328 43.1754 37.6503C43.7643 37.6503 44.3532 37.6503 44.9421 37.6503H46.7007C47.3571 37.6319 47.9822 37.3657 48.4504 36.9053C48.9186 36.4449 49.1953 35.8243 49.2248 35.1683C49.2248 34.6466 49.2248 34.1166 49.2248 33.5697V32.4506H40.6175C40.6175 32.4506 40.6763 33.3341 40.6763 33.5781H40.6512Z"/>
</mask>
<path d="M40.0452 57.0441C39.3648 56.9029 38.7527 56.5345 38.3093 55.9994C37.8659 55.4642 37.6176 54.7941 37.6053 54.0993V53.7123H20.0459C19.3698 53.7497 18.7021 53.5475 18.1604 53.1412C17.6187 52.7349 17.2376 52.1506 17.0842 51.491C17.0842 51.4153 17.0252 51.348 17 51.2723V16.7758C17.0673 16.6327 17.1346 16.4813 17.1935 16.3299C17.3334 15.9763 17.5143 15.6403 17.7321 15.3286C18.001 14.9936 18.3455 14.7273 18.7376 14.5518C19.1297 14.3762 19.558 14.2964 19.9869 14.319H21.4425V11.921C21.4425 11.2058 21.6527 10.9955 22.3847 10.9955H30.7145C30.9679 11.0202 31.2219 10.9543 31.4314 10.8096C31.6409 10.6648 31.7922 10.4504 31.8587 10.2046C32.5243 8.37392 33.5649 6.70237 34.9138 5.297C36.2627 3.89163 37.8901 2.7834 39.6919 2.04324C39.8356 1.98113 39.9898 1.94688 40.1463 1.94228C40.2746 1.93852 40.4008 1.97563 40.5066 2.04822C40.6125 2.1208 40.6925 2.22509 40.7352 2.34612C40.9119 2.74157 40.7354 3.06973 40.2305 3.31373L39.8854 3.46517C37.4008 4.5531 35.3348 6.41549 33.9958 8.77426C32.3644 11.5822 31.8914 14.9153 32.6768 18.0664C33.4622 21.2174 35.4443 23.9385 38.2027 25.6523C39.0073 26.0545 39.6711 26.6911 40.1067 27.4782C40.5422 28.2652 40.7292 29.1657 40.6428 30.0611V30.9614H44.2187V30.3893C44.2187 30.263 44.2187 30.1369 44.2187 30.0023V28.2438C44.2187 25.2653 44.2187 22.2868 44.2187 19.3083C44.2071 18.9018 44.0486 18.5133 43.7727 18.2145C43.2258 17.634 42.6621 17.0703 42.0899 16.5318L41.3073 15.7493C40.6342 15.0678 40.9876 14.706 41.1054 14.5882C41.1598 14.5241 41.2266 14.4716 41.3018 14.434C41.377 14.3964 41.459 14.3745 41.5429 14.3694C41.8396 14.4084 42.1105 14.5588 42.3003 14.7901L43.9157 16.414L44.9253 17.4321L47.1551 15.1856C47.3486 14.992 47.5336 14.7985 47.7271 14.6218C47.8741 14.4712 48.0722 14.3812 48.2824 14.3694C48.3684 14.3721 48.4531 14.3921 48.5311 14.4283C48.6092 14.4644 48.6791 14.516 48.7367 14.5798C48.808 14.6414 48.8652 14.7176 48.9044 14.8033C48.9435 14.8889 48.9637 14.982 48.9637 15.0762C48.9637 15.1704 48.9435 15.2635 48.9044 15.3491C48.8652 15.4348 48.808 15.511 48.7367 15.5726C48.2992 16.0269 47.8532 16.4813 47.3989 16.9272C46.9445 17.3731 46.4903 17.8359 46.0444 18.2987C45.8077 18.5434 45.6699 18.8671 45.6574 19.2074C45.6574 22.4102 45.6574 25.6187 45.6574 28.8327V30.3725C45.6499 30.4283 45.6499 30.4849 45.6574 30.5407V30.9193L46.036 30.9951H49.208V29.5984C49.1753 28.862 49.3495 28.1313 49.7108 27.4889C50.0722 26.8464 50.6062 26.3181 51.2525 25.9636C52.8057 25.0807 54.1489 23.8712 55.189 22.4186C56.2291 20.9659 56.9415 19.3047 57.2769 17.5498C57.8781 14.7201 57.4847 11.7697 56.1635 9.19623C54.8423 6.62273 52.6739 4.58369 50.0241 3.42311C48.9976 2.96877 49.1828 2.58171 49.2501 2.35454C49.2825 2.23617 49.3544 2.13246 49.4538 2.06054C49.5533 1.98863 49.6743 1.95284 49.7969 1.95912C50.0689 1.97765 50.3347 2.0491 50.5793 2.16946C52.324 2.91741 53.8965 4.01582 55.1991 5.39658C56.5017 6.77733 57.5066 8.41096 58.1517 10.1962C58.2133 10.4534 58.3653 10.6799 58.58 10.8344C58.7947 10.9889 59.0579 11.061 59.3213 11.0376H67.6173C68.383 11.0376 68.5765 11.2311 68.5849 11.9883V13.772C68.5794 13.8336 68.5794 13.8956 68.5849 13.9572L68.6859 14.3694H69.8637C70.2814 14.341 70.7003 14.4021 71.0924 14.5488C71.4845 14.6954 71.8407 14.9243 72.1371 15.2199C72.4336 15.5155 72.6633 15.8711 72.811 16.2627C72.9587 16.6544 73.0211 17.0732 72.9937 17.4909V50.759C73.0042 51.1548 72.9338 51.5486 72.7869 51.9163C72.6399 52.284 72.4195 52.6178 72.1391 52.8974C71.8587 53.177 71.5243 53.3964 71.1562 53.5423C70.7881 53.6882 70.3942 53.7575 69.9984 53.7459H52.3884V54.133C52.3757 54.829 52.1262 55.4999 51.6812 56.0353C51.2361 56.5706 50.6219 56.9383 49.9399 57.0778L40.0452 57.0441ZM48.5011 49.2698C47.8533 49.2046 47.2054 49.3923 46.6927 49.7937C46.1799 50.1951 45.842 50.7791 45.7498 51.4237C45.6812 52.3082 45.6673 53.1962 45.7079 54.0825C45.7079 54.4695 45.7079 54.8481 45.7079 55.2352V55.6559H49.4352C49.8198 55.6544 50.1895 55.5067 50.4692 55.2426C50.7489 54.9785 50.9177 54.6179 50.9413 54.2339C51.1011 52.8625 51.6983 52.3324 53.095 52.3324H69.645C71.1005 52.3324 71.6139 51.8108 71.6139 50.3552V41.9414C71.6139 34.0156 71.6139 26.087 71.6139 18.1556C71.7104 17.4481 71.5229 16.7312 71.0922 16.1616C70.9038 15.9986 70.6846 15.8752 70.4475 15.7986C70.2105 15.722 69.9605 15.6937 69.7123 15.7156C69.4767 15.7156 69.2159 15.7156 68.9214 15.7156H68.5344V48.4452C68.5419 48.5466 68.5276 48.6484 68.4922 48.7437C68.4568 48.839 68.4012 48.9255 68.3293 48.9974C68.2574 49.0693 68.1709 49.1248 68.0756 49.1602C67.9803 49.1956 67.8785 49.21 67.7771 49.2024H48.4255L48.5011 49.2698ZM36.9153 52.3324C37.1831 52.2909 37.4568 52.3094 37.7165 52.3868C37.9761 52.4641 38.2153 52.5983 38.4167 52.7795C38.6181 52.9608 38.7766 53.1846 38.8808 53.4347C38.9849 53.6848 39.032 53.9549 39.0188 54.2255C39.0296 54.5806 39.1699 54.9194 39.4132 55.1782C39.6565 55.437 39.9861 55.5979 40.3398 55.6306C40.8362 55.6306 41.3242 55.6306 41.8206 55.6306H44.2942V52.223C44.3401 51.82 44.2943 51.4119 44.1603 51.0291C44.0263 50.6463 43.8074 50.2987 43.5202 50.0123C43.233 49.726 42.885 49.5082 42.5018 49.3752C42.1186 49.2423 41.7102 49.1976 41.3073 49.2446H22.5279C21.5435 49.2446 21.4088 49.1099 21.4088 48.1171V15.7072H20.4413C18.7586 15.7072 18.3463 16.17 18.3463 17.8528V50.4057C18.3463 51.7855 18.8764 52.324 20.2478 52.3324H36.9153ZM41.1222 47.8731C41.996 47.8044 42.8714 47.9853 43.6464 48.3948L44.2774 48.765V39.0807H43.5624C42.9892 39.1108 42.4161 39.0187 41.8812 38.8104C41.3464 38.6022 40.862 38.2826 40.4602 37.8728C40.0583 37.463 39.7483 36.9724 39.5506 36.4336C39.3529 35.8948 39.272 35.32 39.3134 34.7476V33.292C39.3134 32.1309 39.3134 30.9698 39.3134 29.8087C39.3478 29.231 39.2175 28.6554 38.9374 28.149C38.6574 27.6425 38.2391 27.226 37.7315 26.948C35.5355 25.6442 33.7441 23.7572 32.5558 21.4966C31.3676 19.236 30.8292 16.6903 31.0004 14.1423C31.0004 13.8562 31.0426 13.5701 31.0762 13.3009L31.1605 12.3922H22.8307V47.8731H39.9275H41.1222ZM58.8501 12.8297C58.8501 13.284 58.8501 13.7384 58.8501 14.1843C58.9113 15.107 58.8915 16.0333 58.7912 16.9525C58.5202 19.0394 57.7721 21.0358 56.6047 22.7868C55.4374 24.5377 53.8823 25.9962 52.0601 27.049C51.5995 27.3039 51.2194 27.6823 50.9622 28.1416C50.705 28.6009 50.5811 29.1229 50.6046 29.6488C50.6046 31.2811 50.6046 33.1995 50.6046 35.1346C50.587 36.047 50.2552 36.9252 49.665 37.6212C49.0748 38.3171 48.2626 38.788 47.3654 38.9545C47.0709 39.005 46.7764 39.0302 46.524 39.0554H46.0781L45.6995 39.0975V48.7229L46.3221 48.3695C47.1679 47.9554 48.1092 47.7753 49.0482 47.8478H67.1292V12.409H58.8585L58.8501 12.8297ZM40.6512 33.5781C40.6512 34.1334 40.6512 34.6803 40.6512 35.2188C40.6929 35.8658 40.9749 36.474 41.4419 36.9239C41.9088 37.3737 42.5272 37.6328 43.1754 37.6503C43.7643 37.6503 44.3532 37.6503 44.9421 37.6503H46.7007C47.3571 37.6319 47.9822 37.3657 48.4504 36.9053C48.9186 36.4449 49.1953 35.8243 49.2248 35.1683C49.2248 34.6466 49.2248 34.1166 49.2248 33.5697V32.4506H40.6175C40.6175 32.4506 40.6763 33.3341 40.6763 33.5781H40.6512Z" fill="#662D91"/>
<path d="M40.0452 57.0441C39.3648 56.9029 38.7527 56.5345 38.3093 55.9994C37.8659 55.4642 37.6176 54.7941 37.6053 54.0993V53.7123H20.0459C19.3698 53.7497 18.7021 53.5475 18.1604 53.1412C17.6187 52.7349 17.2376 52.1506 17.0842 51.491C17.0842 51.4153 17.0252 51.348 17 51.2723V16.7758C17.0673 16.6327 17.1346 16.4813 17.1935 16.3299C17.3334 15.9763 17.5143 15.6403 17.7321 15.3286C18.001 14.9936 18.3455 14.7273 18.7376 14.5518C19.1297 14.3762 19.558 14.2964 19.9869 14.319H21.4425V11.921C21.4425 11.2058 21.6527 10.9955 22.3847 10.9955H30.7145C30.9679 11.0202 31.2219 10.9543 31.4314 10.8096C31.6409 10.6648 31.7922 10.4504 31.8587 10.2046C32.5243 8.37392 33.5649 6.70237 34.9138 5.297C36.2627 3.89163 37.8901 2.7834 39.6919 2.04324C39.8356 1.98113 39.9898 1.94688 40.1463 1.94228C40.2746 1.93852 40.4008 1.97563 40.5066 2.04822C40.6125 2.1208 40.6925 2.22509 40.7352 2.34612C40.9119 2.74157 40.7354 3.06973 40.2305 3.31373L39.8854 3.46517C37.4008 4.5531 35.3348 6.41549 33.9958 8.77426C32.3644 11.5822 31.8914 14.9153 32.6768 18.0664C33.4622 21.2174 35.4443 23.9385 38.2027 25.6523C39.0073 26.0545 39.6711 26.6911 40.1067 27.4782C40.5422 28.2652 40.7292 29.1657 40.6428 30.0611V30.9614H44.2187V30.3893C44.2187 30.263 44.2187 30.1369 44.2187 30.0023V28.2438C44.2187 25.2653 44.2187 22.2868 44.2187 19.3083C44.2071 18.9018 44.0486 18.5133 43.7727 18.2145C43.2258 17.634 42.6621 17.0703 42.0899 16.5318L41.3073 15.7493C40.6342 15.0678 40.9876 14.706 41.1054 14.5882C41.1598 14.5241 41.2266 14.4716 41.3018 14.434C41.377 14.3964 41.459 14.3745 41.5429 14.3694C41.8396 14.4084 42.1105 14.5588 42.3003 14.7901L43.9157 16.414L44.9253 17.4321L47.1551 15.1856C47.3486 14.992 47.5336 14.7985 47.7271 14.6218C47.8741 14.4712 48.0722 14.3812 48.2824 14.3694C48.3684 14.3721 48.4531 14.3921 48.5311 14.4283C48.6092 14.4644 48.6791 14.516 48.7367 14.5798C48.808 14.6414 48.8652 14.7176 48.9044 14.8033C48.9435 14.8889 48.9637 14.982 48.9637 15.0762C48.9637 15.1704 48.9435 15.2635 48.9044 15.3491C48.8652 15.4348 48.808 15.511 48.7367 15.5726C48.2992 16.0269 47.8532 16.4813 47.3989 16.9272C46.9445 17.3731 46.4903 17.8359 46.0444 18.2987C45.8077 18.5434 45.6699 18.8671 45.6574 19.2074C45.6574 22.4102 45.6574 25.6187 45.6574 28.8327V30.3725C45.6499 30.4283 45.6499 30.4849 45.6574 30.5407V30.9193L46.036 30.9951H49.208V29.5984C49.1753 28.862 49.3495 28.1313 49.7108 27.4889C50.0722 26.8464 50.6062 26.3181 51.2525 25.9636C52.8057 25.0807 54.1489 23.8712 55.189 22.4186C56.2291 20.9659 56.9415 19.3047 57.2769 17.5498C57.8781 14.7201 57.4847 11.7697 56.1635 9.19623C54.8423 6.62273 52.6739 4.58369 50.0241 3.42311C48.9976 2.96877 49.1828 2.58171 49.2501 2.35454C49.2825 2.23617 49.3544 2.13246 49.4538 2.06054C49.5533 1.98863 49.6743 1.95284 49.7969 1.95912C50.0689 1.97765 50.3347 2.0491 50.5793 2.16946C52.324 2.91741 53.8965 4.01582 55.1991 5.39658C56.5017 6.77733 57.5066 8.41096 58.1517 10.1962C58.2133 10.4534 58.3653 10.6799 58.58 10.8344C58.7947 10.9889 59.0579 11.061 59.3213 11.0376H67.6173C68.383 11.0376 68.5765 11.2311 68.5849 11.9883V13.772C68.5794 13.8336 68.5794 13.8956 68.5849 13.9572L68.6859 14.3694H69.8637C70.2814 14.341 70.7003 14.4021 71.0924 14.5488C71.4845 14.6954 71.8407 14.9243 72.1371 15.2199C72.4336 15.5155 72.6633 15.8711 72.811 16.2627C72.9587 16.6544 73.0211 17.0732 72.9937 17.4909V50.759C73.0042 51.1548 72.9338 51.5486 72.7869 51.9163C72.6399 52.284 72.4195 52.6178 72.1391 52.8974C71.8587 53.177 71.5243 53.3964 71.1562 53.5423C70.7881 53.6882 70.3942 53.7575 69.9984 53.7459H52.3884V54.133C52.3757 54.829 52.1262 55.4999 51.6812 56.0353C51.2361 56.5706 50.6219 56.9383 49.9399 57.0778L40.0452 57.0441ZM48.5011 49.2698C47.8533 49.2046 47.2054 49.3923 46.6927 49.7937C46.1799 50.1951 45.842 50.7791 45.7498 51.4237C45.6812 52.3082 45.6673 53.1962 45.7079 54.0825C45.7079 54.4695 45.7079 54.8481 45.7079 55.2352V55.6559H49.4352C49.8198 55.6544 50.1895 55.5067 50.4692 55.2426C50.7489 54.9785 50.9177 54.6179 50.9413 54.2339C51.1011 52.8625 51.6983 52.3324 53.095 52.3324H69.645C71.1005 52.3324 71.6139 51.8108 71.6139 50.3552V41.9414C71.6139 34.0156 71.6139 26.087 71.6139 18.1556C71.7104 17.4481 71.5229 16.7312 71.0922 16.1616C70.9038 15.9986 70.6846 15.8752 70.4475 15.7986C70.2105 15.722 69.9605 15.6937 69.7123 15.7156C69.4767 15.7156 69.2159 15.7156 68.9214 15.7156H68.5344V48.4452C68.5419 48.5466 68.5276 48.6484 68.4922 48.7437C68.4568 48.839 68.4012 48.9255 68.3293 48.9974C68.2574 49.0693 68.1709 49.1248 68.0756 49.1602C67.9803 49.1956 67.8785 49.21 67.7771 49.2024H48.4255L48.5011 49.2698ZM36.9153 52.3324C37.1831 52.2909 37.4568 52.3094 37.7165 52.3868C37.9761 52.4641 38.2153 52.5983 38.4167 52.7795C38.6181 52.9608 38.7766 53.1846 38.8808 53.4347C38.9849 53.6848 39.032 53.9549 39.0188 54.2255C39.0296 54.5806 39.1699 54.9194 39.4132 55.1782C39.6565 55.437 39.9861 55.5979 40.3398 55.6306C40.8362 55.6306 41.3242 55.6306 41.8206 55.6306H44.2942V52.223C44.3401 51.82 44.2943 51.4119 44.1603 51.0291C44.0263 50.6463 43.8074 50.2987 43.5202 50.0123C43.233 49.726 42.885 49.5082 42.5018 49.3752C42.1186 49.2423 41.7102 49.1976 41.3073 49.2446H22.5279C21.5435 49.2446 21.4088 49.1099 21.4088 48.1171V15.7072H20.4413C18.7586 15.7072 18.3463 16.17 18.3463 17.8528V50.4057C18.3463 51.7855 18.8764 52.324 20.2478 52.3324H36.9153ZM41.1222 47.8731C41.996 47.8044 42.8714 47.9853 43.6464 48.3948L44.2774 48.765V39.0807H43.5624C42.9892 39.1108 42.4161 39.0187 41.8812 38.8104C41.3464 38.6022 40.862 38.2826 40.4602 37.8728C40.0583 37.463 39.7483 36.9724 39.5506 36.4336C39.3529 35.8948 39.272 35.32 39.3134 34.7476V33.292C39.3134 32.1309 39.3134 30.9698 39.3134 29.8087C39.3478 29.231 39.2175 28.6554 38.9374 28.149C38.6574 27.6425 38.2391 27.226 37.7315 26.948C35.5355 25.6442 33.7441 23.7572 32.5558 21.4966C31.3676 19.236 30.8292 16.6903 31.0004 14.1423C31.0004 13.8562 31.0426 13.5701 31.0762 13.3009L31.1605 12.3922H22.8307V47.8731H39.9275H41.1222ZM58.8501 12.8297C58.8501 13.284 58.8501 13.7384 58.8501 14.1843C58.9113 15.107 58.8915 16.0333 58.7912 16.9525C58.5202 19.0394 57.7721 21.0358 56.6047 22.7868C55.4374 24.5377 53.8823 25.9962 52.0601 27.049C51.5995 27.3039 51.2194 27.6823 50.9622 28.1416C50.705 28.6009 50.5811 29.1229 50.6046 29.6488C50.6046 31.2811 50.6046 33.1995 50.6046 35.1346C50.587 36.047 50.2552 36.9252 49.665 37.6212C49.0748 38.3171 48.2626 38.788 47.3654 38.9545C47.0709 39.005 46.7764 39.0302 46.524 39.0554H46.0781L45.6995 39.0975V48.7229L46.3221 48.3695C47.1679 47.9554 48.1092 47.7753 49.0482 47.8478H67.1292V12.409H58.8585L58.8501 12.8297ZM40.6512 33.5781C40.6512 34.1334 40.6512 34.6803 40.6512 35.2188C40.6929 35.8658 40.9749 36.474 41.4419 36.9239C41.9088 37.3737 42.5272 37.6328 43.1754 37.6503C43.7643 37.6503 44.3532 37.6503 44.9421 37.6503H46.7007C47.3571 37.6319 47.9822 37.3657 48.4504 36.9053C48.9186 36.4449 49.1953 35.8243 49.2248 35.1683C49.2248 34.6466 49.2248 34.1166 49.2248 33.5697V32.4506H40.6175C40.6175 32.4506 40.6763 33.3341 40.6763 33.5781H40.6512Z" stroke="#662D91" stroke-width="0.4" mask="url(#path-2-outside-1_281_8)"/>
<path d="M44.9723 2.87143L44.9723 2.87145H44.9765H44.9849V2.87149L44.9914 2.87141C45.1518 2.86934 45.3099 2.83439 45.4561 2.76885C45.5985 2.70503 45.7269 2.61338 45.8337 2.49909C45.9445 2.38684 46.031 2.25322 46.0882 2.10659C46.1468 1.95613 46.1735 1.79489 46.166 1.63317L46.1661 1.63316L46.1652 1.62061C46.1436 1.31808 46.0087 1.0349 45.7879 0.827345C45.5669 0.61972 45.276 0.502858 44.9728 0.500022L44.9615 0.499916L44.9502 0.500322C44.6449 0.511279 44.3552 0.638413 44.1405 0.85581C43.9258 1.07316 43.8023 1.36433 43.7951 1.66979L43.795 1.66979L43.795 1.67695C43.7935 1.83442 43.8242 1.99073 43.8855 2.13621C43.945 2.27752 44.032 2.40541 44.1411 2.51259C44.2474 2.62346 44.3744 2.71196 44.5144 2.77337C44.6587 2.83666 44.8144 2.8701 44.9723 2.87143Z" fill="#662D91" stroke="#662D91"/>
</svg>
