<svg width="76" height="59" viewBox="0 0 76 59" fill="none" xmlns="http://www.w3.org/2000/svg">
<circle cx="28.5" cy="28.5" r="28.5" fill="#662D91" fill-opacity="0.1"/>
<path d="M53.6933 37.4186L53.4908 39.096C53.3366 39.1731 53.2594 39.2406 53.2016 39.2309C50.9072 38.9996 50.9167 38.9996 49.9044 41.159C47.8125 45.5261 45.74 49.9028 43.6095 54.2506C43.3685 54.7519 42.7611 55.475 42.4141 55.4268C42.12 55.3323 41.8479 55.1794 41.6143 54.9773C41.3807 54.7752 41.1904 54.528 41.0546 54.2506C38.4839 49.514 35.9614 44.7517 33.4871 39.9636C33.3664 39.6203 33.1165 39.3376 32.7906 39.1756C32.4648 39.0136 32.0887 38.985 31.7421 39.096C30.1322 39.3852 28.5029 39.5876 26.9219 39.819C25.4961 39.918 24.1672 40.5764 23.2246 41.6508C22.2821 42.7252 21.8023 44.1285 21.8897 45.555C21.8897 49.3533 21.8897 53.142 21.8897 56.9307V58.2514H20.164C20.164 58.155 20.0386 58.0489 20.0386 57.9429C20.0386 53.5276 19.9518 49.1123 20.0386 44.697C20.0999 43.1011 20.7082 41.5748 21.7614 40.3742C22.8146 39.1736 24.2485 38.3717 25.8228 38.103C28.1654 37.6595 30.537 37.3607 32.8893 36.9847C33.2714 36.9397 33.6347 36.7933 33.9413 36.5607C34.2479 36.3282 34.4868 36.0179 34.6333 35.6621C34.7798 35.3062 34.8286 34.9176 34.7745 34.5366C34.7204 34.1556 34.5654 33.796 34.3257 33.4949C33.8785 32.9496 33.4907 32.3582 33.1689 31.7307C32.4266 30.169 31.8384 28.7133 29.9489 27.8746C28.0594 27.0358 27.7125 24.2401 28.8886 22.3313C29.2191 21.7843 29.3956 21.1581 29.3996 20.519C29.3417 18.3788 28.9079 16.2097 29.1103 14.0985C29.949 5.42216 38.5577 0.601931 46.7713 3.99534C47.9398 4.34455 49.1485 4.54223 50.3674 4.58345C50.5409 4.58345 50.7721 4.40026 50.9457 4.25565C52.3242 3.10845 52.5652 3.08918 54.0788 4.03394C54.5319 2.10587 54.7728 1.95159 57.636 2.00943C59.0242 2.00943 59.4196 2.42399 59.6702 3.78328C60.4689 3.59057 61.2979 3.55783 62.1093 3.6869C62.8475 4.12359 63.4849 4.71168 63.9795 5.41251C64.8085 6.37654 64.4807 7.20563 63.7288 8.01542C65.8786 8.70953 65.9846 8.92162 65.811 11.9391C65.7435 13.1152 65.3484 13.4815 64.0277 13.7225C64.1048 14.5227 64.4518 15.3999 64.2012 16.0458C63.7717 16.7936 63.1983 17.449 62.5141 17.9739C61.5501 18.8801 60.6728 18.5716 59.8244 17.7908C59.1207 19.9695 57.3565 20.5286 54.5801 19.4778C54.3603 19.9637 54.2791 20.5008 54.3454 21.0299C54.4118 21.559 54.6232 22.0595 54.9562 22.476C55.3172 23.0027 55.5462 23.6085 55.6239 24.2424C55.7016 24.8762 55.6255 25.5194 55.4024 26.1177C55.1794 26.716 54.8158 27.252 54.3421 27.6802C53.8685 28.1085 53.2987 28.4165 52.681 28.5783C52.4128 28.6526 52.167 28.7917 51.9652 28.9833C51.7635 29.175 51.6121 29.4133 51.5242 29.6773C50.9001 31.0159 50.175 32.305 49.3551 33.5335C48.5839 34.6614 49.2682 36.7341 50.6371 36.9944C51.6108 37.1293 52.575 37.2547 53.6933 37.4186ZM33.9305 19.3717C33.8208 19.6857 33.737 20.0082 33.6798 20.3358C33.5834 21.5698 33.2652 22.4567 31.7035 22.4952C30.6913 22.4952 30.0455 23.7003 30.1129 24.7704C30.1191 25.2899 30.3211 25.788 30.6785 26.1651C31.0359 26.5422 31.5225 26.7705 32.041 26.8045C33.4099 26.8045 33.6606 27.5179 33.9691 28.6072C34.7982 31.4993 36.3212 33.8902 39.3965 34.8638C43.966 36.3099 48.6898 33.4564 50.0009 28.3952C50.2612 27.4311 50.5794 26.8334 51.7459 26.8141C52.2976 26.7674 52.8089 26.5057 53.1696 26.0855C53.5302 25.6654 53.7113 25.1204 53.674 24.5679C53.7032 24.0514 53.5288 23.544 53.1882 23.1547C52.8475 22.7654 52.3676 22.5252 51.8518 22.4856C51.6471 22.5061 51.4406 22.4801 51.2474 22.4097C51.0541 22.3393 50.8793 22.2263 50.7357 22.079C50.5921 21.9318 50.4837 21.754 50.4182 21.5591C50.3528 21.3641 50.3321 21.1568 50.3577 20.9528C50.3577 20.1719 49.9141 19.9887 49.2489 19.9887C48.5433 19.9313 47.8654 19.689 47.2832 19.2862C46.701 18.8834 46.2352 18.3344 45.9327 17.6943L45.3445 16.6628C41.9028 18.7031 37.922 19.6479 33.9305 19.3717ZM49.3551 6.70434C48.345 6.48167 47.3499 6.19509 46.3761 5.84634C39.3097 2.68429 31.6553 6.81037 30.9515 14.2238C30.9124 16.0957 31.0123 17.9678 31.2504 19.8249C31.315 20.1518 31.402 20.4739 31.5107 20.7889C31.6746 20.2201 31.7612 19.9695 31.8287 19.7188C32.3782 17.5498 32.3687 17.5401 34.5956 17.5305C37.8904 17.6093 41.144 16.7859 44.0046 15.1493C45.8652 14.0503 46.2702 14.1852 47.186 16.1133C47.6102 17.0195 48.1017 18.0414 49.191 18.0414C50.8492 18.0414 52.0833 18.3788 52.0062 20.5961L52.3051 20.3551L52.5845 18.533C49.8273 17.6654 48.7283 15.6409 49.9334 13.7129C48.0053 13.2598 47.8704 13.0959 47.8897 10.4159C47.8897 8.73844 48.1595 8.42992 49.9141 8.04431L49.3551 6.70434ZM51.418 6.46333H51.8134C52.0448 7.33097 52.6906 8.39137 52.4014 9.018C52.1121 9.64462 50.8781 9.98202 49.9237 10.5701V11.6113C53.1243 12.2282 53.4233 12.9224 51.4856 15.3517L52.4496 16.4411V16.0169C53.3172 15.7855 54.3776 15.1589 55.0139 15.4289C55.6501 15.6988 55.9781 16.8942 56.4023 17.6847L56.1419 17.8871H57.5977L57.3373 17.6654C57.7904 16.8846 58.0892 15.6698 58.7351 15.4481C59.3811 15.2264 60.4993 15.8241 61.6273 16.1229L62.3985 15.3035C60.4705 13.1634 60.8175 12.4114 63.8253 11.6402V10.1942L63.5939 10.4448C62.8516 10.0495 61.8587 9.82781 61.4152 9.22047C60.6247 8.12146 61.7718 7.35021 62.302 6.66574L61.338 5.39321L61.2801 5.85599C60.4414 6.08735 59.4002 6.7236 58.8314 6.43438C58.118 6.07769 57.8097 4.94977 57.318 4.14962L57.5784 3.94715H56.0937C56.0069 4.95939 56.2093 6.23194 55.0042 6.43438C54.1944 6.56935 53.2786 6.03915 52.4014 5.79815L52.4979 5.50889L51.418 6.46333ZM42.3658 41.9977C41.2765 43.3281 40.2353 44.5814 39.2327 45.8539C39.1601 45.9598 39.1127 46.0808 39.0943 46.2079C39.0759 46.3349 39.087 46.4645 39.1265 46.5866C40.1388 48.5146 41.18 50.4427 42.3272 52.631C43.4166 50.3655 44.4191 48.3121 45.3735 46.2395C45.4039 46.0987 45.4024 45.9528 45.369 45.8127C45.3357 45.6726 45.2713 45.5417 45.1807 45.4297C44.3131 44.3018 43.3877 43.2028 42.3851 41.9977H42.3658ZM37.9601 44.3789L40.6788 41.0626L35.9741 37.4378L34.798 38.4597L37.9601 44.3789ZM48.0342 37.4571L43.995 40.9855L46.4726 44.0125L49.1334 38.4693L48.0342 37.4571ZM37.8926 36.4256L37.7094 36.7148C39.1651 37.621 40.6016 38.5368 42.0862 39.4237C42.2259 39.4771 42.3803 39.4771 42.52 39.4237C44.0187 38.6828 45.2833 37.5417 46.1737 36.1267C43.0406 37.1872 42.6646 37.2064 37.9118 36.4256H37.8926Z" fill="#662D91"/>
<path d="M68.8068 45.9404C68.8068 42.3831 68.8068 38.8354 68.8068 35.2781C68.8068 34.1502 69.2311 33.7357 70.3301 33.7646C71.7761 33.8224 73.2222 33.7646 74.6586 33.7646C75.6226 33.7646 75.9985 34.1599 75.9985 35.1046C75.9985 42.3606 75.9985 49.6231 75.9985 56.8919C75.9985 57.8559 75.5936 58.309 74.591 58.2801C73.1546 58.2801 71.6989 58.2801 70.2625 58.2801C69.2021 58.2801 68.7972 57.8752 68.8068 56.8244C68.8068 53.19 68.8068 49.5652 68.8068 45.9307V45.9404ZM70.7349 35.6927V56.3231H73.9645V35.6927H70.7349Z" fill="#662D91"/>
<path d="M66.4354 49.8352C66.4354 52.1393 66.4354 54.4433 66.4354 56.7474C66.4354 57.8271 66.0593 58.338 64.9218 58.2898C63.5143 58.2898 62.1069 58.2898 60.6994 58.2898C59.6775 58.2898 59.2051 57.9524 59.2051 56.8727C59.2051 52.0975 59.2051 47.3287 59.2051 42.5663C59.2051 41.6023 59.5713 41.1878 60.516 41.1974C62.0392 41.1974 63.5624 41.1974 65.0856 41.1974C66.0496 41.1974 66.4257 41.6409 66.4161 42.5663C66.4257 44.9861 66.4354 47.4059 66.4354 49.8352ZM61.1525 56.3521H64.4687V43.1737H61.1525V56.3521Z" fill="#662D91"/>
<path d="M48.6041 52.4094C48.6041 50.8862 48.6041 49.363 48.6041 47.8398C48.6041 46.9722 48.9609 46.5384 49.8671 46.548C51.4192 46.548 52.9808 46.548 54.5425 46.548C55.3716 46.548 55.7765 46.9047 55.7765 47.7434C55.7765 50.8669 55.7765 53.9904 55.7765 57.1139C55.7765 57.9622 55.333 58.29 54.5232 58.2804C53 58.2804 51.4769 58.2804 49.9633 58.2804C48.9318 58.2804 48.5752 57.8176 48.5945 56.8536C48.5945 55.369 48.5945 53.8843 48.5945 52.3997L48.6041 52.4094ZM53.8098 56.3909V48.5147H50.5805V56.3909H53.8098Z" fill="#662D91"/>
<path d="M71.9798 26.2163L68.6153 29.1951L67.3717 27.8551L70.4276 24.963H65.6074V23.0349C68.0561 23.0349 70.5048 23.0349 72.9438 23.0349C73.1515 23.0872 73.3418 23.1931 73.4958 23.342C73.6497 23.4909 73.7618 23.6775 73.821 23.8833C73.8982 26.3608 73.8693 28.8481 73.8693 31.3739H72.0088L71.9798 26.2163Z" fill="#662D91"/>
<path d="M57.7434 36.8016L58.9098 38.0742L57.6085 39.2889L56.3359 37.9295L57.7434 36.8016Z" fill="#662D91"/>
<path d="M61.8301 32.9068L63.1989 31.6439L64.4715 33.0225L63.1027 34.2564L61.8301 32.9068Z" fill="#662D91"/>
<path d="M53.3645 43.145L52.0052 44.3982L50.752 43.0293L52.1208 41.776L53.3645 43.145Z" fill="#662D91"/>
<path d="M67.2179 30.487L65.8488 31.7402L64.5957 30.3713L65.9646 29.118L67.2179 30.487Z" fill="#662D91"/>
<path d="M54.7805 41.8625L53.5176 40.4936L54.8963 39.2404L56.14 40.5996L54.7805 41.8625Z" fill="#662D91"/>
<path d="M60.3158 36.8016L59.0625 35.4327L60.4219 34.1891L61.6849 35.5581L60.3158 36.8016Z" fill="#662D91"/>
<path d="M57.0093 14.9373C55.9447 14.9579 54.9154 14.5554 54.1473 13.818C53.3792 13.0806 52.9349 12.0685 52.9121 11.004C52.8953 10.4665 52.9869 9.93117 53.1816 9.42993C53.3763 8.92869 53.6701 8.47182 54.0454 8.08667C54.4206 7.70152 54.8698 7.39599 55.3658 7.1883C55.8618 6.9806 56.3944 6.87506 56.9321 6.87791C57.9966 6.87021 59.0209 7.28501 59.7799 8.03142C60.539 8.77782 60.971 9.79488 60.9812 10.8594C60.9941 11.9265 60.5829 12.9551 59.8383 13.7196C59.0937 14.4841 58.0764 14.922 57.0093 14.9373ZM56.9321 8.76739C56.649 8.76608 56.3687 8.82119 56.1071 8.92949C55.8456 9.03779 55.6083 9.19711 55.4091 9.39815C55.2098 9.5992 55.0525 9.83794 54.9466 10.1004C54.8406 10.3629 54.7881 10.6438 54.7919 10.9268C54.7919 11.2094 54.8483 11.4893 54.9579 11.7498C55.0675 12.0103 55.2282 12.2463 55.4302 12.4438C55.6323 12.6414 55.8718 12.7966 56.1347 12.9003C56.3976 13.004 56.6785 13.0541 56.961 13.0477C57.2436 13.0504 57.5237 12.9961 57.7848 12.8881C58.0459 12.78 58.2825 12.6204 58.4805 12.4188C58.6785 12.2172 58.8338 11.9778 58.9371 11.7148C59.0405 11.4518 59.0897 11.1707 59.0819 10.8883C59.0846 10.6057 59.0303 10.3255 58.9223 10.0645C58.8142 9.80339 58.6546 9.56684 58.453 9.36885C58.2514 9.17087 58.012 9.01553 57.749 8.91219C57.486 8.80886 57.2049 8.7596 56.9224 8.76739H56.9321Z" fill="#662D91"/>
</svg>
