<svg width="68" height="64" viewBox="0 0 68 64" fill="none" xmlns="http://www.w3.org/2000/svg">
<circle cx="28.5" cy="28.5" r="28.5" fill="#662D91" fill-opacity="0.1"/>
<path d="M27.6186 63.1123L27.6372 63.1171L27.6563 63.117L58.3554 63.0874L58.371 63.0874L58.3863 63.0841L59.0368 62.9461C59.5225 62.8601 60.0013 62.7395 60.4698 62.5852L60.4702 62.5851C62.4433 61.9286 64.1554 60.6595 65.3572 58.9625C66.5587 57.2659 67.1874 55.2302 67.152 53.1516V53.1345V53.1161V53.0977V53.0793V53.061V53.0426V53.0242V53.0058V52.9875V52.9691V52.9507V52.9323V52.914V52.8956V52.8772V52.8588V52.8405V52.8221V52.8037V52.7853V52.767V52.7486V52.7302V52.7118V52.6935V52.6751V52.6567V52.6383V52.6199V52.6016V52.5832V52.5648V52.5464V52.5281V52.5097V52.4913V52.4729V52.4546V52.4362V52.4178V52.3994V52.3811V52.3627V52.3443V52.3259V52.3076V52.2892V52.2708V52.2524V52.2341V52.2157V52.1973V52.1789V52.1605V52.1422V52.1238V52.1054V52.087V52.0687V52.0503V52.0319V52.0135V51.9952V51.9768V51.9584V51.94V51.9217V51.9033V51.8849V51.8665V51.8482V51.8298V51.8114V51.793V51.7746V51.7563V51.7379V51.7195V51.7011V51.6828V51.6644V51.646V51.6276V51.6093V51.5909V51.5725V51.5541V51.5358V51.5174V51.499V51.4806V51.4622V51.4439V51.4255V51.4071V51.3887V51.3704V51.352V51.3336V51.3152V51.2969V51.2785V51.2601V51.2417V51.2234V51.205V51.1866V51.1682V51.1499V51.1315V51.1131V51.0947V51.0764V51.058V51.0396V51.0212V51.0028V50.9845V50.9661V50.9477V50.9293V50.911V50.8926V50.8742V50.8558V50.8375V50.8191V50.8007V50.7823V50.764V50.7456V50.7272V50.7088V50.6905V50.6721V50.6537V50.6353V50.6169V50.5986V50.5802V50.5618V50.5434V50.5251V50.5067V50.4883V50.4699V50.4516V50.4332V50.4148V50.3964V50.3781V50.3597V50.3413V50.3229V50.3046V50.2862V50.2678V50.2494V50.231V50.2127V50.1943V50.1759V50.1575V50.1392V50.1208V50.1024V50.084V50.0657V50.0473V50.0289V50.0105V49.9922V49.9738V49.9554V49.937V49.9187V49.9003V49.8819V49.8635V49.8451V49.8268V49.8084V49.79V49.7716V49.7533V49.7349V49.7165V49.6981V49.6798V49.6614V49.643V49.6246V49.6063V49.5879V49.5695V49.5511V49.5328V49.5144V49.496V49.4776V49.4593V49.4409V49.4225V49.4041V49.3857V49.3674V49.349V49.3306V49.3122V49.2939V49.2755V49.2571V49.2387V49.2204V49.202V49.1836V49.1652V49.1469V49.1285V49.1101V49.0917V49.0734V49.055V49.0366V49.0182V48.9998V48.9815V48.9631V48.9447V48.9263V48.908V48.8896V48.8712V48.8528V48.8345V48.8161V48.7977V48.7793V48.761V48.7426V48.7242V48.7058V48.6875V48.6691V48.6507V48.6323V48.6139V48.5956V48.5772V48.5588V48.5404V48.5221V48.5037V48.4853V48.4669V48.4486V48.4302V48.4118V48.3934V48.3751V48.3567V48.3383V48.3199V48.3016V48.2832V48.2648V48.2464V48.2281V48.2097V48.1913V48.1729V48.1545V48.1362V48.1178V48.0994V48.081V48.0627V48.0443V48.0259V48.0075V47.9892V47.9708V47.9524V47.934V47.9157V47.8973V47.8789V47.8605V47.8422V47.8238V47.8054V47.787V47.7686V47.7503V47.7319V47.7135V47.6951V47.6768V47.6584V47.64V47.6216V47.6033V47.5849V47.5665V47.5481V47.5298V47.5114V47.493V47.4746V47.4562V47.4379V47.4195V47.4011V47.3827V47.3644V47.346V47.3276V47.3092V47.2909V47.2725V47.2541V47.2357V47.2174V47.199V47.1806V47.1622V47.1439V47.1255V47.1071V47.0887V47.0704V47.052V47.0336V47.0152V46.9968V46.9785V46.9601V46.9417V46.9233V46.905V46.8866V46.8682V46.8498V46.8315V46.8131V46.7947V46.7763V46.758V46.7396V46.7212V46.7028V46.6845V46.6661V46.6477V46.6293V46.6109V46.5926V46.5742V46.5558V46.5374V46.5191V46.5007V46.4823V46.4639V46.4456V46.4272V46.4088V46.3904V46.3721V46.3537V46.3353V46.3169V46.2986V46.2802V46.2618V46.2434V46.225V46.2067V46.1883V46.1699V46.1515V46.1332V46.1148V46.0964V46.078V46.0597V46.0413V46.0229V46.0045V45.9862V45.9678V45.9494V45.931V45.9127V45.8943V45.8759V45.8575V45.8391V45.8208V45.8024V45.784V45.7656V45.7473V45.7289V45.7105V45.6921V45.6738V45.6554V45.637V45.6186V45.6003V45.5819V45.5635V45.5451V45.5268V45.5084V45.49V45.4716V45.4533V45.4349V45.4165V45.3981V45.3797V45.3614V45.343V45.3246V45.3062V45.2879V45.2695V45.2511V45.2327V45.2144V45.196V45.1776V45.1592V45.1409V45.1225V45.1041V45.0857V45.0674V45.049V45.0306V45.0122V44.9938V44.9755V44.9571V44.9387V44.9203V44.902V44.8836V44.8652V44.8468V44.8285V44.8101V44.7917V44.7733V44.755V44.7366V44.7182V44.6998V44.6815V44.6631V44.6447V44.6263V44.6079V44.5896V44.5712V44.5528V44.5344V44.5161V44.4977V44.4793V44.4609V44.4426V44.4242V44.4058V44.3874V44.3691V44.3507V44.3323V44.3139V44.2956V44.2772V44.2588V44.2404V44.222V44.2037V44.1853V44.1669V44.1485V44.1302V44.1118V44.0934V44.075V44.0567V44.0383V44.0199V44.0015V43.9832V43.9648V43.9464V43.928V43.9097V43.8913V43.8729V43.8545V43.8362V43.8178V43.7994V43.781V43.7626V43.7443V39.7276V39.7202L67.1513 39.7129C67.1256 39.4521 67.0044 39.21 66.8107 39.0333C66.617 38.8567 66.3648 38.758 66.1027 38.7564V38.7563L66.0975 38.7565C65.9685 38.7602 65.8409 38.7858 65.7205 38.8322C65.568 38.8694 65.3989 38.9529 65.2696 39.1349C65.1393 39.3183 65.0614 39.5849 65.0614 39.965V44.6742L65.0613 53.1132L65.0614 53.1163C65.0825 54.1505 64.8944 55.1783 64.5083 56.1379C64.1223 57.0976 63.5462 57.9693 62.8148 58.7007C62.0834 59.4321 61.2117 60.0082 60.2521 60.3942C59.2924 60.7803 58.2646 60.9684 57.2304 60.9472V60.9472H57.2274L28.8335 60.9471L28.8301 60.9472C27.8015 60.9708 26.7788 60.7867 25.8231 60.4057C24.8674 60.0247 23.9985 59.4548 23.2682 58.73C22.538 58.0052 21.9615 57.1405 21.5734 56.1877C21.1853 55.2349 20.9934 54.2135 21.0094 53.1848V53.1825V24.7393C21.0115 23.8442 21.1559 22.9551 21.4372 22.1052C21.9473 20.5656 22.9399 19.2313 24.2678 18.3C25.5957 17.3688 27.1883 16.8901 28.8096 16.9348L28.8096 16.9349H28.8137H41.7661C41.9648 16.9555 42.1651 16.9552 42.3637 16.9341L42.377 16.9326L42.3899 16.9289C42.6199 16.8618 42.8185 16.7152 42.9505 16.5151C43.0815 16.3165 43.1382 16.078 43.1107 15.8417C43.0946 15.5768 42.9758 15.3287 42.7797 15.1498C42.5831 14.9705 42.3243 14.875 42.0583 14.8838H37.6781H32.2171H28.2597V14.8837L28.2547 14.8838C26.3298 14.9489 24.4685 15.5886 22.9103 16.7205C21.3521 17.8524 20.1684 19.4248 19.5114 21.2352L19.5114 21.2352L19.5101 21.2392C19.3308 21.78 19.1808 22.3302 19.0607 22.8872L19.0606 22.8872L19.0602 22.8894C19.0115 23.1328 18.953 23.3767 18.8936 23.624L18.8932 23.6258L18.8891 23.643V23.6608V54.3302V54.3479L18.8932 54.3652C18.9226 54.4876 18.9496 54.6077 18.9768 54.7291L18.977 54.7297C19.0038 54.8491 19.0309 54.9698 19.0604 55.0929C19.1578 55.6386 19.3019 56.1748 19.4914 56.6957C20.0822 58.375 21.128 59.8572 22.512 60.9768C23.8938 62.0946 25.5586 62.8072 27.3211 63.0354L27.6186 63.1123Z" fill="#662D91" stroke="#662D91" stroke-width="0.3"/>
<path d="M63.6586 17.0052L60.8951 19.7007L60.8941 19.7016L33.7507 46.6682L33.7507 46.6681L33.7482 46.6707C33.5504 46.8768 33.4398 47.1518 33.4398 47.4377C33.4398 47.7229 33.5498 47.997 33.7465 48.2029C33.848 48.3155 33.9717 48.4058 34.1098 48.4681C34.2479 48.5305 34.3975 48.5635 34.549 48.565C34.5482 48.565 34.5475 48.5649 34.5467 48.5649L63.6586 17.0052Z" fill="#662D91" stroke="#662D91" stroke-width="0.3"/>
</svg>
