<svg width="74" height="67" viewBox="0 0 74 67" fill="none" xmlns="http://www.w3.org/2000/svg">
<circle cx="28.5" cy="28.5" r="28.5" fill="#662D91" fill-opacity="0.1"/>
<path d="M73.573 21.4809C73.573 26.3507 73.7273 31.2423 73.573 36.112C73.1332 42.9324 70.2179 49.3576 65.3756 54.1807C60.2014 59.5261 53.9012 63.6511 46.9326 66.2558C46.3296 66.4864 45.6625 66.4864 45.0594 66.2558C36.5099 62.7302 28.7759 58.0369 23.3554 50.2586C19.8365 45.2126 17.9657 39.201 18.0005 33.0493C18.0005 25.2049 18.0005 17.3824 18.0005 9.53792C18.0005 6.98187 18.2429 6.69539 20.7548 6.07842L44.9933 0.107037C45.602 -0.035679 46.2357 -0.035679 46.8444 0.107037C55.1516 2.11222 63.4589 4.1835 71.766 6.16664C72.1043 6.20696 72.4308 6.31503 72.7263 6.48444C73.0218 6.65386 73.2802 6.88108 73.4859 7.15259C73.6916 7.4241 73.8402 7.73437 73.9233 8.06471C74.0064 8.39504 74.0223 8.73875 73.9695 9.07527C73.9695 13.2178 73.9695 17.3384 73.9695 21.4589L73.573 21.4809ZM71.3696 23.0014C71.3696 18.8147 71.3696 14.6501 71.3696 10.4635C71.4033 10.204 71.3844 9.94025 71.3147 9.68801C71.245 9.43577 71.1256 9.20006 70.9634 8.99471C70.8012 8.78936 70.5993 8.61858 70.37 8.49239C70.1408 8.36619 69.889 8.2872 69.6287 8.25999C61.9826 6.43109 54.3802 4.51396 46.7341 2.66303C46.1095 2.55681 45.4693 2.59447 44.8615 2.77318C37.3916 4.58004 29.9435 6.43102 22.4736 8.19382C20.9312 8.54638 20.4686 9.25152 20.4686 10.838C20.4686 18.4401 20.4686 26.0421 20.4686 33.6221C20.4333 38.8382 21.9689 43.9441 24.8756 48.2754C29.7454 55.7672 36.9505 60.3064 44.9492 63.6998C45.7288 63.9104 46.5584 63.8322 47.285 63.4795C52.6862 61.2714 57.6491 58.1147 61.9385 54.1587C64.8573 51.6662 67.2073 48.5768 68.8304 45.0987C70.4535 41.6206 71.3121 37.8348 71.3475 33.9968C71.3034 30.3169 71.3254 26.6592 71.3254 23.0014H71.3696Z" fill="#662D91"/>
<path d="M41.3617 10.419H55.332C55.9278 10.3481 56.5318 10.4133 57.0987 10.6097C57.6656 10.8061 58.1807 11.1286 58.605 11.5529C59.0293 11.9772 59.3516 12.4923 59.548 13.0592C59.7445 13.6261 59.8099 14.2302 59.739 14.826C59.739 17.1837 59.739 19.5415 59.739 21.8993C59.4127 23.9424 59.7771 26.0359 60.7746 27.8486C60.9222 28.0369 60.9997 28.2706 60.9946 28.5097C60.9946 30.7132 61.4578 32.2115 64.1681 31.859C64.4986 31.859 65.3134 32.9166 65.3354 33.5116C65.3354 38.0508 65.3354 42.5901 65.3354 47.1072C65.3666 47.3287 65.3472 47.5543 65.2784 47.767C65.2096 47.9798 65.0933 48.1742 64.9384 48.3355C64.7835 48.4968 64.5942 48.6208 64.3843 48.6981C64.1745 48.7754 63.9495 48.804 63.7269 48.7818H45.3501C44.0501 48.7818 43.6755 47.9666 43.6755 46.7987C43.6755 43.9562 43.6755 41.1356 43.6755 38.3152C43.6755 36.7066 42.9485 36.3321 41.6264 36.5745C40.9981 36.703 40.395 36.9337 39.8414 37.2575C36.2497 39.461 32.7018 41.6645 29.0881 43.6696C28.2568 44.0156 27.3821 44.2456 26.4881 44.3529C26.3339 43.5816 26.0915 42.8324 26.0034 42.1494C25.9483 41.2027 25.9483 40.2535 26.0034 39.3068C26.1528 38.5682 26.0773 37.8018 25.7866 37.1065C25.4959 36.4113 25.0035 35.8191 24.3728 35.4065C23.9011 34.9447 23.5269 34.3926 23.2733 33.7831C23.0196 33.1736 22.8918 32.5191 22.8967 31.859C22.7424 26.2621 22.8967 20.6652 22.8967 15.0683C22.8738 14.4519 22.9802 13.8375 23.2098 13.2648C23.4393 12.6922 23.7868 12.1741 24.2292 11.7441C24.6716 11.3142 25.1991 10.9819 25.778 10.7688C26.3569 10.5557 26.9743 10.4666 27.5899 10.5071C32.1731 10.5512 36.7784 10.419 41.3617 10.419ZM57.2267 23.4857V15.5972C57.2267 13.0631 56.8304 12.6666 54.2082 12.6666H28.0746C26.6203 12.6666 25.4525 13.0853 25.4525 14.8701C25.4525 20.5992 25.4525 26.3062 25.4525 32.0132C25.4929 32.4242 25.6323 32.8194 25.8587 33.1647C26.0851 33.5101 26.392 33.7955 26.7528 33.9964C28.2291 34.3049 28.2951 35.1863 28.2731 36.3101C28.2731 37.8084 28.2731 39.2848 28.2731 41.1357C29.1545 40.695 29.5732 40.5408 29.9698 40.3204C32.7903 38.6458 35.5884 36.8829 38.475 35.2964C39.6404 34.8421 40.8328 34.4595 42.0449 34.1507C42.6178 33.9524 43.4771 33.6438 43.6093 33.2251C43.6485 32.9786 43.7375 32.7427 43.8713 32.5319C44.0051 32.3212 44.1808 32.14 44.3872 31.9996C44.5936 31.8593 44.8263 31.7627 45.0715 31.7157C45.3167 31.6688 45.5691 31.6725 45.8128 31.7268C47.3993 31.903 48.0163 31.3301 48.0163 29.6775C48.022 28.8673 48.1872 28.0661 48.5026 27.3198C48.818 26.5734 49.2775 25.8965 49.8545 25.3277C50.4315 24.7589 51.1146 24.3093 51.8654 24.0046C52.6162 23.6999 53.4201 23.5461 54.2303 23.5519L57.2267 23.4857ZM54.3841 34.1507C52.1806 34.1507 49.8012 34.1507 47.5095 34.1507C46.3417 34.1507 45.9452 34.5913 45.9672 35.7151C45.9672 38.7779 45.9672 41.8188 45.9672 44.8817C45.9672 46.1156 46.452 46.5343 47.6419 46.5122C52.1811 46.5122 56.7201 46.5122 61.2372 46.5122C62.6695 46.5122 63.1104 45.9173 63.0884 44.6173C63.0884 41.7527 63.0884 38.8661 63.0884 35.9795C63.0884 34.4591 62.471 34.0625 61.0828 34.1286C58.8573 34.2168 56.6317 34.1507 54.3841 34.1507ZM54.5385 31.6387C55.4199 31.6387 56.3012 31.6387 57.1826 31.6387C58.4386 31.6387 58.8351 31.22 58.725 29.986C58.6783 28.8998 58.2321 27.8691 57.4715 27.0922C56.7109 26.3153 55.6897 25.847 54.6047 25.7773C53.4359 25.7773 52.3148 26.2417 51.4883 27.0681C50.6618 27.8946 50.1977 29.0155 50.1977 30.1843C50.1977 31.1097 50.4623 31.6386 51.4759 31.6166C52.4895 31.5946 53.547 31.6387 54.5385 31.6387Z" fill="#662D91"/>
<path d="M41.2872 18.9469H30.8867C30.0494 18.9469 28.9479 19.2114 28.8817 17.8672C28.8156 16.5231 29.9171 16.6333 30.7764 16.6333C37.8937 16.6333 44.9888 16.6333 52.1061 16.6333C52.7451 16.6333 53.8911 17.2723 53.9352 17.6909C54.0454 18.8808 52.966 18.9249 52.0625 18.9028L41.2872 18.9469Z" fill="#662D91"/>
<path d="M36.0026 24.2132C37.8094 24.2132 39.6383 24.2132 41.4451 24.2132C42.018 24.2132 42.5469 24.9623 43.0978 25.359C42.613 25.7776 42.1279 26.549 41.6431 26.571C37.8311 26.571 34.0192 26.571 30.2071 26.571C29.7444 26.571 29.304 25.7336 28.8633 25.2709C29.348 24.9183 29.8327 24.2573 30.3615 24.2353C32.2345 24.1472 34.1957 24.2132 36.0026 24.2132Z" fill="#662D91"/>
<path d="M57.9893 39.2187C57.769 39.6814 57.4823 40.2543 57.2399 40.8492C56.9411 41.4606 56.7119 42.1037 56.5567 42.7663C56.4025 43.9782 55.8739 44.7714 54.5738 44.7934C53.2737 44.8155 52.745 44.1104 52.5247 42.8764C52.2928 41.9828 51.9446 41.1235 51.4891 40.3204C51.1665 39.7153 51.0562 39.0194 51.176 38.3442C51.2959 37.669 51.6386 37.0536 52.1497 36.5965C52.5682 36.0949 53.1396 35.7437 53.776 35.5966C54.4124 35.4494 55.0793 35.5143 55.6755 35.7812C56.3532 36.0678 56.9329 36.5453 57.3438 37.1557C57.7546 37.7661 57.979 38.4829 57.9893 39.2187ZM54.5517 43.0748C55.2275 41.8315 55.8166 40.5431 56.3146 39.2187C56.3141 38.8634 56.2273 38.5136 56.0623 38.199C55.8974 37.8843 55.6592 37.6143 55.3673 37.4118C55.0449 37.2785 54.694 37.2288 54.3473 37.2673C54.0006 37.3059 53.6691 37.4313 53.3838 37.6321C53.1452 37.897 52.9745 38.2159 52.8862 38.5613C52.7979 38.9067 52.7948 39.2684 52.8771 39.6153C53.3309 40.8514 53.8912 42.0458 54.5517 43.1849V43.0748Z" fill="#662D91"/>
</svg>
