<svg width="20" height="21" viewBox="0 0 20 21" fill="none" xmlns="http://www.w3.org/2000/svg">
<path d="M18.1238 20.1594H1.87465C1.85924 20.1478 1.84223 20.1386 1.82416 20.1319C0.661022 19.8858 0 19.0727 0 17.8832C0 13.396 0 8.90891 0 4.42177C0 3.08303 0.914629 2.16403 2.24606 2.16167C2.85111 2.16167 3.45629 2.16167 4.0616 2.16167H4.2886C4.2886 1.72461 4.30386 1.31196 4.28429 0.901676C4.26315 0.459892 4.42557 0.153561 4.84316 0H5.15625C5.57384 0.155136 5.73939 0.460277 5.71434 0.902061C5.69595 1.23556 5.71083 1.57144 5.71083 1.90573V2.14946H14.2888C14.2888 1.72539 14.3041 1.31274 14.2845 0.902061C14.2633 0.460277 14.4258 0.153955 14.8434 0H15.1564C15.5733 0.154743 15.7408 0.459507 15.7145 0.900504C15.6969 1.19424 15.711 1.49112 15.711 1.78486V2.16205H15.9548C16.6049 2.16205 17.255 2.15537 17.905 2.16561C18.3571 2.17397 18.7949 2.32674 19.155 2.60186C19.5151 2.87698 19.779 3.2602 19.9084 3.69611C19.9436 3.81423 19.9699 3.93589 20 4.05559V18.2699C19.9854 18.3054 19.9734 18.342 19.964 18.3793C19.8532 18.9833 19.5515 19.4735 19.0349 19.7909C18.7586 19.9582 18.4291 20.0393 18.1238 20.1594ZM18.5688 8.65101H1.43005V8.89591C1.43005 11.875 1.43005 14.8544 1.43005 17.834C1.42838 17.926 1.43243 18.0181 1.44219 18.1096C1.46252 18.26 1.53108 18.3996 1.63746 18.5072C1.74384 18.6148 1.88223 18.6845 2.03159 18.7057C2.12855 18.716 2.22606 18.7202 2.32355 18.7183C7.44027 18.7183 12.557 18.7183 17.6737 18.7183C17.7713 18.7202 17.869 18.716 17.9661 18.7057C18.1158 18.6844 18.2544 18.6144 18.3609 18.5064C18.4674 18.3984 18.5358 18.2584 18.5559 18.1076C18.5652 18.0228 18.5693 17.9374 18.568 17.8521C18.568 14.8596 18.568 11.8671 18.568 8.87465L18.5688 8.65101ZM14.2908 3.61105H5.71043V3.81736C5.71043 4.19812 5.71239 4.57887 5.71043 4.95923C5.70691 5.43685 5.42708 5.74988 5.00597 5.75224C4.57547 5.7546 4.29369 5.44 4.29056 4.95017C4.2886 4.68125 4.29056 4.41232 4.29056 4.14299V3.60986C4.20837 3.60435 4.15123 3.59767 4.09487 3.59767C3.48317 3.59767 2.87106 3.59491 2.25936 3.59767C1.70557 3.60003 1.43436 3.87327 1.43358 4.43515C1.43149 5.28853 1.43149 6.14165 1.43358 6.99451C1.43358 7.05751 1.44102 7.12091 1.44493 7.18509H18.5715V6.99451C18.5715 6.14126 18.5715 5.2884 18.5715 4.43515C18.5715 3.87524 18.2976 3.60003 17.7457 3.59767C17.134 3.59491 16.5219 3.59767 15.9098 3.59767C15.8476 3.59767 15.7858 3.60553 15.7141 3.61065V3.8469C15.7141 4.25403 15.7208 4.66116 15.7087 5.06751C15.6965 5.47386 15.3787 5.76131 14.9784 5.75107C14.797 5.74838 14.624 5.6741 14.4966 5.54424C14.3692 5.41438 14.2977 5.23933 14.2974 5.05688C14.2833 4.58123 14.2908 4.10362 14.2908 3.61222V3.61105Z" fill="#999999"/>
<path d="M8.58008 15.5895C8.63342 15.5101 8.69131 15.4338 8.75346 15.3611C10.3998 13.6985 12.0468 12.0366 13.6945 10.3755C13.9054 10.1625 14.1387 10.0357 14.4463 10.1133C14.5606 10.1413 14.6663 10.1974 14.7537 10.2767C14.8411 10.356 14.9075 10.4559 14.947 10.5675C14.9865 10.679 14.9978 10.7987 14.9799 10.9157C14.9619 11.0327 14.9153 11.1434 14.8443 11.2378C14.7916 11.3045 14.7343 11.3674 14.6729 11.426C12.8465 13.2685 11.0192 15.1105 9.191 16.9519C8.75502 17.3909 8.38675 17.3913 7.95116 16.9519C7.06275 16.0565 6.17409 15.1613 5.28516 14.2661C5.10083 14.0807 4.97873 13.8724 5.01669 13.6015C5.05583 13.3105 5.21864 13.103 5.49611 13.0109C5.78925 12.9128 6.04402 12.9955 6.2624 13.2148C6.97521 13.9344 7.68829 14.6537 8.40162 15.373C8.45211 15.4234 8.49319 15.4832 8.58008 15.5895Z" fill="#999999"/>
</svg>
