<svg width="20" height="25" viewBox="0 0 20 25" fill="none" xmlns="http://www.w3.org/2000/svg">
<path d="M10.4657 0C10.9686 0.0941145 11.4812 0.149642 11.9728 0.282344C13.8063 0.785856 15.2328 1.86393 16.2628 3.46576C17.1159 4.79325 17.4948 6.25813 17.4223 7.83549C17.383 8.69335 17.1669 9.5192 16.8965 10.3295C16.3465 11.9765 15.5644 13.5115 14.6982 15.0056C14.2749 15.735 13.8189 16.4446 13.3778 17.1637C13.3381 17.2286 13.3002 17.2949 13.2422 17.3933C13.5827 17.4403 13.897 17.4738 14.2076 17.5208C15.6631 17.741 17.1037 18.021 18.4363 18.6892C18.9414 18.9429 19.4082 19.2539 19.7221 19.7438C20.1716 20.4497 20.0668 21.2732 19.4732 21.8614C18.8979 22.4317 18.1875 22.7597 17.4419 23.019C15.8137 23.5837 14.1248 23.8604 12.4129 23.9469C11.0396 24.0161 9.66032 24.0368 8.28661 23.994C6.37828 23.9319 4.49146 23.6684 2.6692 23.059C1.92925 22.8115 1.21409 22.5051 0.631305 21.9583C-0.252232 21.1296 -0.202185 19.9904 0.742625 19.2233C1.3212 18.7528 1.98632 18.4582 2.6823 18.2248C3.92598 17.8069 5.21083 17.582 6.51018 17.4295C6.58408 17.421 6.65704 17.4074 6.76275 17.3914C6.69446 17.2822 6.64628 17.2032 6.59671 17.127C5.42037 15.2917 4.31794 13.4132 3.49427 11.386C3.00503 10.1808 2.57799 8.94698 2.57565 7.62796C2.57051 4.82759 3.76227 2.65872 6.09203 1.13406C7.09343 0.478554 8.20803 0.130818 9.39933 0.0343509C9.44491 0.0273816 9.48982 0.0164989 9.53357 0.00186115L10.4657 0ZM9.98867 19.3838C10.0322 19.3368 10.0499 19.3222 10.0635 19.3034C11.5373 17.2935 12.9166 15.2216 14.0827 13.0137C14.7473 11.7563 15.3334 10.4636 15.702 9.08063C15.9475 8.15924 16.0102 7.23128 15.8175 6.29437C15.158 3.08883 12.0668 0.998545 8.88015 1.62488C7.05602 1.98345 5.6809 3.00883 4.78567 4.64031C4.10652 5.87839 3.89698 7.2087 4.19025 8.61148C4.43768 9.7992 4.88623 10.9112 5.40634 11.9996C6.36752 14.0141 7.55041 15.8973 8.81046 17.7326C9.18886 18.2827 9.58689 18.8205 9.98867 19.3838ZM10.3965 22.5522C10.9625 22.5183 11.919 22.4825 12.8713 22.4002C14.2366 22.283 15.5841 22.0614 16.8881 21.6129C17.4185 21.4308 17.9377 21.2228 18.3657 20.8374C18.5163 20.7014 18.5355 20.5668 18.3657 20.4577C18.02 20.237 17.6833 19.9838 17.3077 19.8346C15.73 19.2078 14.0658 18.9876 12.389 18.8464C12.3142 18.8403 12.2071 18.9165 12.1552 18.9876C11.6599 19.6506 11.1786 20.324 10.6828 20.9866C10.2646 21.5452 9.73469 21.5475 9.31888 20.9922C8.82746 20.3362 8.34414 19.6745 7.86893 19.0069C7.77538 18.8761 7.68184 18.8215 7.52374 18.8459C6.47978 19.0055 5.42926 19.1283 4.38997 19.325C3.54806 19.4831 2.71691 19.7156 1.98725 20.1852C1.34132 20.6007 1.33243 20.7202 1.98725 21.0906C2.53086 21.3916 3.10717 21.6284 3.70475 21.7964C5.76181 22.3861 7.87968 22.5174 10.3979 22.5522H10.3965Z" fill="#999999"/>
<path d="M13.4739 7.47732C13.486 9.39302 11.9266 10.9756 10.0127 10.9873C8.09875 10.9991 6.5197 9.41371 6.52344 7.48389C6.52501 6.56223 6.88799 5.67844 7.53353 5.02449C8.17907 4.37053 9.05501 3.99925 9.97106 3.99132C10.4289 3.98772 10.8829 4.07515 11.307 4.24859C11.7311 4.42204 12.117 4.67807 12.4425 5.00199C12.768 5.32591 13.0266 5.71135 13.2036 6.13615C13.3806 6.56094 13.4725 7.01672 13.4739 7.47732ZM11.9692 7.47732C11.9622 6.38654 11.0651 5.48915 9.99071 5.49809C9.46851 5.50465 8.9699 5.71794 8.60291 6.09175C8.23591 6.46556 8.03008 6.96978 8.02999 7.4952C8.03654 8.58552 8.94019 9.48948 10.0085 9.47489C10.5307 9.46833 11.0293 9.25506 11.3963 8.88125C11.7633 8.50744 11.9691 8.0032 11.9692 7.47778V7.47732Z" fill="#999999"/>
</svg>
