<svg width="32" height="33" viewBox="0 0 32 33" fill="none" xmlns="http://www.w3.org/2000/svg">
<path d="M14.998 0H16.9977C17.5324 0.0692888 18.0708 0.117782 18.6011 0.211637C22.7233 0.943579 26.1048 2.95171 28.6561 6.28828C31.4591 9.95177 32.5016 14.1166 31.7772 18.6746C31.1073 22.8949 29.0274 26.3216 25.6503 28.9035C22.1561 31.5768 18.1879 32.6067 13.8385 32.036C10.6598 31.619 7.85681 30.3138 5.4545 28.1753C2.66152 25.6885 0.917848 22.5951 0.250436 18.8988C0.142749 18.3036 0.0826439 17.702 0 17.0998V15.0886C0.0475828 14.6955 0.0882824 14.3012 0.14463 13.9094C0.645503 10.4015 2.11869 7.36602 4.58674 4.83887C6.98153 2.38226 9.86906 0.847226 13.2412 0.250083C13.8234 0.14426 14.4126 0.0818867 14.998 0ZM15.9966 30.1759C23.7019 30.1759 29.9791 23.87 29.9941 16.1109C30.0091 8.35182 23.7157 2.01315 15.9985 2.01189C8.29256 2.01189 2.01538 8.31843 2.00098 16.0769C1.98658 23.8353 8.28004 30.1753 15.9966 30.1759Z" fill="#662D91" fill-opacity="0.4"/>
<path d="M14.9966 6.04199H16.9963V6.40987C16.9963 9.39475 16.9944 12.3798 16.9907 15.3651C16.9868 15.4672 17.0053 15.5689 17.0448 15.6631C17.0843 15.7572 17.1438 15.8415 17.2192 15.91C18.9622 17.6523 20.7011 19.3986 22.4358 21.1488C22.512 21.2191 22.5919 21.2853 22.6749 21.3473L21.2462 22.7828C21.2256 22.7645 21.1642 22.7135 21.1079 22.6568C19.1344 20.6718 17.1631 18.6853 15.1938 16.6974C15.0834 16.5823 15.0169 16.4317 15.006 16.2722C14.9951 12.9522 14.9924 9.63201 14.9978 6.31161L14.9966 6.04199Z" fill="#662D91" fill-opacity="0.4"/>
</svg>
