<svg width="32" height="39" viewBox="0 0 32 39" fill="none" xmlns="http://www.w3.org/2000/svg">
<path d="M16.7452 0C17.5497 0.150583 18.3699 0.239427 19.1564 0.45175C22.09 1.25737 24.3725 2.98229 26.0204 5.54522C27.3854 7.6692 27.9916 10.013 27.8756 12.5368C27.8128 13.9094 27.467 15.2307 27.0345 16.5272C26.1544 19.1624 24.9031 21.6185 23.5171 24.009C22.8399 25.176 22.1102 26.3114 21.4045 27.4618C21.3409 27.5657 21.2803 27.6719 21.1875 27.8293C21.7323 27.9045 22.2352 27.958 22.7321 28.0333C25.061 28.3857 27.366 28.8336 29.4981 29.9028C30.3063 30.3086 31.0532 30.8063 31.5553 31.5901C32.2745 32.7195 32.1069 34.0371 31.1572 34.9782C30.2367 35.8907 29.0999 36.4155 27.9071 36.8304C25.302 37.7339 22.5996 38.1766 19.8606 38.3151C17.6634 38.4258 15.4565 38.4589 13.2586 38.3904C10.2052 38.291 7.18634 37.8694 4.27072 36.8944C3.0868 36.4984 1.94255 36.0082 1.01009 35.1333C-0.403571 33.8074 -0.323496 31.9846 1.1882 30.7574C2.11393 30.0044 3.17811 29.5331 4.29167 29.1597C6.28157 28.4911 8.33733 28.1312 10.4163 27.8872C10.5345 27.8737 10.6513 27.8518 10.8204 27.8262C10.7111 27.6516 10.6341 27.5251 10.5547 27.4031C8.67259 24.4668 6.9087 21.4611 5.59083 18.2176C4.80804 16.2893 4.12479 14.3152 4.12104 12.2047C4.11281 7.72414 6.01964 4.25395 9.74724 1.8145C11.3495 0.765686 13.1328 0.209309 15.0389 0.0549614C15.1119 0.0438105 15.1837 0.0263983 15.2537 0.00297784L16.7452 0ZM15.9819 31.0141C16.0515 30.9388 16.0799 30.9155 16.1016 30.8854C18.4597 27.6697 20.6666 24.3546 22.5323 20.8219C23.5957 18.8101 24.5334 16.7418 25.1231 14.529C25.516 13.0548 25.6163 11.57 25.308 10.071C24.2528 4.94212 19.3069 1.59767 14.2082 2.5998C11.2896 3.17352 9.08943 4.81414 7.65706 7.42449C6.57044 9.40542 6.23517 11.5339 6.7044 13.7784C7.10028 15.6787 7.81796 17.4579 8.65015 19.1994C10.188 22.4226 12.0806 25.4357 14.0967 28.3721C14.7022 29.2523 15.339 30.1129 15.9819 31.0141ZM16.6344 36.0835C17.54 36.0293 19.0704 35.9721 20.594 35.8403C22.7785 35.6528 24.9346 35.2982 27.021 34.5806C27.8696 34.2893 28.7003 33.9565 29.3851 33.3398C29.626 33.1222 29.6567 32.9069 29.3851 32.7323C28.832 32.3791 28.2932 31.9741 27.6923 31.7354C25.168 30.7325 22.5054 30.3802 19.8225 30.1543C19.7027 30.1445 19.5314 30.2665 19.4483 30.3802C18.6558 31.441 17.8857 32.5184 17.0924 33.5785C16.4234 34.4723 15.5755 34.476 14.9102 33.5876C14.1239 32.538 13.3506 31.4791 12.5903 30.411C12.4406 30.2017 12.2909 30.1144 12.038 30.1535C10.3676 30.4088 8.68682 30.6053 7.02395 30.92C5.6769 31.173 4.34705 31.5449 3.1796 32.2963C2.14611 32.9611 2.13189 33.1524 3.1796 33.7449C4.04938 34.2265 4.97147 34.6054 5.9276 34.8743C9.2189 35.8177 12.6075 36.0278 16.6367 36.0835H16.6344Z" fill="#662D91" fill-opacity="0.4"/>
<path d="M21.5582 11.9638C21.5777 15.0289 19.0826 17.5609 16.0203 17.5798C12.958 17.5986 10.4315 15.062 10.4375 11.9743C10.44 10.4996 11.0208 9.08556 12.0536 8.03923C13.0865 6.9929 14.488 6.39885 15.9537 6.38616C16.6862 6.3804 17.4126 6.52029 18.0912 6.7978C18.7698 7.07531 19.3872 7.48496 19.908 8.00324C20.4288 8.52151 20.8426 9.13821 21.1258 9.81788C21.409 10.4975 21.556 11.2268 21.5582 11.9638ZM19.1507 11.9638C19.1395 10.2185 17.7041 8.78269 15.9851 8.797C15.1496 8.80749 14.3518 9.14876 13.7647 9.74685C13.1775 10.3449 12.8481 11.1517 12.848 11.9924C12.8585 13.7369 14.3043 15.1832 16.0136 15.1599C16.8491 15.1494 17.6469 14.8081 18.2341 14.2101C18.8212 13.612 19.1506 12.8052 19.1507 11.9645V11.9638Z" fill="#662D91" fill-opacity="0.4"/>
</svg>
