<svg width="32" height="33" viewBox="0 0 32 33" fill="none" xmlns="http://www.w3.org/2000/svg">
<path d="M28.9981 32.2551H2.99944C2.97478 32.2365 2.94757 32.2217 2.91866 32.211C1.05764 31.8173 0 30.5163 0 28.6131C0 21.4337 0 14.2543 0 7.07483C0 4.93285 1.46341 3.46245 3.59369 3.45867C4.56178 3.45867 5.53006 3.45867 6.49856 3.45867H6.86175C6.86175 2.75937 6.88617 2.09914 6.85486 1.44268C6.82105 0.735828 7.08091 0.245698 7.74906 0H8.25C8.91815 0.248218 9.18302 0.736443 9.14295 1.4433C9.11352 1.9769 9.13732 2.5143 9.13732 3.04917V3.43913H22.8621C22.8621 2.76063 22.8865 2.10038 22.8552 1.4433C22.8214 0.736443 23.0812 0.246328 23.7494 0H24.2503C24.9172 0.247588 25.1852 0.735211 25.1433 1.44081C25.1151 1.91078 25.1376 2.3858 25.1376 2.85577V3.45928H25.5277C26.5678 3.45928 27.6079 3.44859 28.648 3.46497C29.3714 3.47835 30.0718 3.72279 30.648 4.16298C31.2242 4.60317 31.6464 5.21632 31.8535 5.91377C31.9098 6.10277 31.9518 6.29743 32 6.48895V29.2318C31.9767 29.2887 31.9574 29.3472 31.9424 29.4069C31.7652 30.3733 31.2824 31.1577 30.4558 31.6654C30.0137 31.9332 29.4865 32.0629 28.9981 32.2551ZM29.71 13.8416H2.28809V14.2335C2.28809 19 2.28809 23.767 2.28809 28.5343C2.2854 28.6816 2.29189 28.8289 2.3075 28.9753C2.34003 29.2159 2.44973 29.4393 2.61994 29.6115C2.79015 29.7836 3.01157 29.8952 3.25054 29.9292C3.40569 29.9457 3.5617 29.9524 3.71768 29.9493C11.9044 29.9493 20.0912 29.9493 28.278 29.9493C28.4341 29.9524 28.5904 29.9456 28.7457 29.9292C28.9852 29.895 29.2071 29.7831 29.3774 29.6103C29.5478 29.4375 29.6573 29.2134 29.6894 28.9722C29.7043 28.8365 29.7108 28.6999 29.7088 28.5633C29.7088 23.7754 29.7088 18.9874 29.7088 14.1994L29.71 13.8416ZM22.8652 5.77768H9.13669V6.10778C9.13669 6.71699 9.13982 7.32619 9.13669 7.93477C9.13106 8.69895 8.68334 9.19981 8.00956 9.20359C7.32075 9.20737 6.8699 8.70399 6.86489 7.92028C6.86176 7.48999 6.86489 7.05971 6.86489 6.62879V5.77577C6.73339 5.76695 6.64197 5.75627 6.5518 5.75627C5.57307 5.75627 4.5937 5.75186 3.61497 5.75627C2.72892 5.76005 2.29498 6.19724 2.29373 7.09624C2.29039 8.46165 2.29039 9.82664 2.29373 11.1912C2.29373 11.292 2.30563 11.3935 2.31189 11.4961H29.7144V11.1912C29.7144 9.82601 29.7144 8.46144 29.7144 7.09624C29.7144 6.20039 29.2761 5.76005 28.3932 5.75627C27.4144 5.75186 26.4351 5.75627 25.4557 5.75627C25.3562 5.75627 25.2572 5.76885 25.1426 5.77704V6.15503C25.1426 6.80645 25.1533 7.45786 25.1339 8.10802C25.1145 8.75817 24.606 9.21809 23.9654 9.20171C23.6753 9.19741 23.3984 9.07855 23.1946 8.87078C22.9908 8.663 22.8763 8.38293 22.8758 8.09101C22.8533 7.32997 22.8652 6.56579 22.8652 5.77956V5.77768Z" fill="#662D91" fill-opacity="0.4"/>
<path d="M13.7262 24.9432C13.8115 24.8161 13.9041 24.6941 14.0036 24.5778C16.6377 21.9176 19.2729 19.2586 21.9092 16.6008C22.2467 16.26 22.6199 16.0572 23.1121 16.1813C23.2951 16.226 23.4641 16.3159 23.604 16.4427C23.7438 16.5696 23.8501 16.7295 23.9133 16.9079C23.9765 17.0864 23.9945 17.2779 23.9658 17.4651C23.9371 17.6524 23.8626 17.8295 23.7489 17.9805C23.6646 18.0873 23.573 18.1879 23.4746 18.2817C20.5524 21.2296 17.6288 24.1767 14.7037 27.123C14.0061 27.8255 13.4168 27.8261 12.7199 27.123C11.2985 25.6904 9.87659 24.258 8.45431 22.8258C8.15937 22.5291 7.96401 22.1958 8.02475 21.7624C8.08737 21.2968 8.34786 20.9648 8.79183 20.8174C9.26084 20.6605 9.66848 20.7928 10.0179 21.1437C11.1584 22.295 12.2993 23.4459 13.4406 24.5967C13.5214 24.6774 13.5872 24.7731 13.7262 24.9432Z" fill="#662D91" fill-opacity="0.4"/>
</svg>
