<svg width="13" height="9" viewBox="0 0 13 9" fill="none" xmlns="http://www.w3.org/2000/svg">
<path d="M1.38757 2.69443H1.64024C3.90779 2.69443 6.17534 2.6878 8.44086 2.6964C9.4475 2.69486 10.426 3.01666 11.2223 3.61111C12.0187 4.20555 12.5874 5.03886 12.8391 5.97971C12.9248 6.31257 12.9742 6.65319 12.9865 6.99598C13.0108 7.51349 12.9954 8.03333 12.993 8.55202C12.993 8.84517 12.8346 9.00232 12.5585 8.99997C12.292 8.99724 12.1434 8.84363 12.1382 8.55946C12.1268 7.9372 12.1511 7.31257 12.1013 6.69343C11.9693 5.06311 10.4792 3.66106 8.7899 3.54498C8.58217 3.53051 8.37324 3.52268 8.16511 3.52268C5.99906 3.52112 3.83301 3.52112 1.66696 3.52268H1.3742C1.45843 3.60868 1.50499 3.65753 1.55358 3.70522C2.15097 4.29387 2.7489 4.88215 3.34738 5.47002C3.49234 5.6119 3.56563 5.76746 3.48667 5.96055C3.36924 6.24745 3.01616 6.31234 2.77604 6.08172C2.42214 5.7444 2.07755 5.3977 1.72851 5.05569C1.22803 4.5658 0.727544 4.07616 0.227064 3.58679C-0.0733864 3.29129 -0.0766198 2.93521 0.223021 2.64049C1.05985 1.81576 1.89966 0.992836 2.74243 0.171746C2.95461 -0.0358064 3.19594 -0.0549499 3.3822 0.112734C3.56847 0.280417 3.56482 0.53331 3.34981 0.746334C2.74945 1.34124 2.14733 1.93458 1.54346 2.52636C1.49811 2.57092 1.45762 2.6186 1.38757 2.69443Z" fill="#662D91"/>
</svg>
