<svg width="20" height="21" viewBox="0 0 20 21" fill="none" xmlns="http://www.w3.org/2000/svg">
<path d="M9.37374 0H10.6236C10.9577 0.0433055 11.2943 0.073614 11.6257 0.132273C14.2021 0.589737 16.3155 1.84482 17.9101 3.93017C19.662 6.21985 20.3135 8.8229 19.8608 11.6716C19.4421 14.3093 18.1421 16.451 16.0314 18.0647C13.8475 19.7355 11.3674 20.3792 8.64904 20.0225C6.66238 19.7619 4.91051 18.9462 3.40906 17.6096C1.66345 16.0553 0.573655 14.1219 0.156522 11.8118C0.0892178 11.4397 0.0516524 11.0638 0 10.6874V9.43036C0.0297393 9.1847 0.0551765 8.93825 0.090394 8.69337C0.403439 6.50094 1.32418 4.60376 2.86671 3.02429C4.36346 1.48891 6.16816 0.529517 8.27573 0.156302C8.63965 0.0901626 9.00787 0.0511792 9.37374 0ZM9.99787 18.8599C14.8137 18.8599 18.7369 14.9187 18.7463 10.0693C18.7557 5.21989 14.8223 1.25822 9.99905 1.25743C5.18285 1.25743 1.25961 5.19902 1.25061 10.0481C1.24161 14.8971 5.17502 18.8595 9.99787 18.8599Z" fill="#999999"/>
<path d="M9.37298 3.77612H10.6228V4.00605C10.6228 5.8716 10.6216 7.73726 10.6193 9.60308C10.6169 9.66689 10.6284 9.73047 10.6531 9.78931C10.6778 9.84815 10.715 9.90082 10.7621 9.94362C11.8515 11.0326 12.9383 12.124 14.0225 13.2179C14.0701 13.2618 14.12 13.3032 14.172 13.3419L13.279 14.2391C13.2661 14.2277 13.2277 14.1958 13.1925 14.1604C11.9591 12.9198 10.727 11.6782 9.49624 10.4357C9.42725 10.3638 9.38569 10.2697 9.37885 10.17C9.37207 8.095 9.37038 6.01988 9.37377 3.94463L9.37298 3.77612Z" fill="#999999"/>
</svg>
