<svg width="116" height="116" viewBox="0 0 116 116" fill="none" xmlns="http://www.w3.org/2000/svg">
<rect x="3" y="3" width="110" height="110" rx="27" fill="white" stroke="#662D91" stroke-width="6"/>
<path d="M36.7433 27.1913C36.9935 27.1922 37.2597 27.1518 37.4815 27.0307C37.7141 26.9036 37.8899 26.6906 37.9362 26.3825L37.9364 26.3815C37.9701 26.1509 37.9225 25.922 37.865 25.7235C37.8372 25.6274 37.8049 25.5315 37.7747 25.442L37.7705 25.4295C37.7385 25.3344 37.7091 25.2466 37.6853 25.1617L37.6856 25.1616L37.6817 25.1501C37.6468 25.0451 37.5748 24.9712 37.5325 24.9303C37.5041 24.9028 37.486 24.8867 37.4718 24.874C37.4553 24.8594 37.4441 24.8494 37.4282 24.8319L37.3537 24.7499L36.7438 26.9413M36.7433 27.1913C36.7432 27.1913 36.743 27.1913 36.7429 27.1913L36.7438 26.9413M36.7433 27.1913H36.7438V26.9413M36.7433 27.1913H36.7332H36.7227H36.7121H36.7015H36.691H36.6804H36.6698H36.6592H36.6487H36.6381H36.6275H36.617H36.6064H36.5958H36.5852H36.5747H36.5641H36.5535H36.543H36.5324H36.5218H36.5112H36.5007H36.4901H36.4795H36.469H36.4584H36.4478H36.4372H36.4267H36.4161H36.4055H36.3949H36.3844H36.3738H36.3632H36.3527H36.3421H36.3315H36.3209H36.3104H36.2998H36.2892H36.2787H36.2681H36.2575H36.2469H36.2364H36.2258H36.2152H36.2047H36.1941H36.1835H36.1729H36.1624H36.1518H36.1412H36.1307H36.1201H36.1095H36.0989H36.0884H36.0778H36.0672H36.0567H36.0461H36.0355H36.0249H36.0144H36.0038H35.9932H35.9826H35.9721H35.9615H35.9509H35.9404H35.9298H35.9192H35.9086H35.8981H35.8875H35.8769H35.8664H35.8558H35.8452H35.8346H35.8241H35.8135H35.8029H35.7924H35.7818H35.7712H35.7606H35.7501H35.7395H35.7289H35.7184H35.7078H35.6972H35.6866H35.6761H35.6655H35.6549H35.6443H35.6338H35.6232H35.6126H35.6021H35.5915H35.5809H35.5703H35.5598H35.5492H35.5386H35.5281H35.5175H35.5069H35.4963H35.4858H35.4752H35.4646H35.4541H35.4435H35.4329H35.4223H35.4118H35.4012H35.3906H35.3801H35.3695H35.3589H35.3483H35.3378H35.3272H35.3166H35.306H35.2955H35.2849H35.2743H35.2638H35.2532H35.2426H35.232H35.2215H35.2109H35.2003H35.1898H35.1792H35.1686H35.158H35.1475H35.1369H35.1263H35.1158H35.1052H35.0946H35.084H35.0735H35.0629H35.0523H35.0418H35.0312H35.0206H35.01H34.9995H34.9889H34.9783H34.9677H34.9572H34.9466H34.936H34.9255H34.9149H34.9043H34.8937H34.8832H34.8726H34.862H34.8515H34.8409H34.8303H34.8197H34.8092H34.7986H34.788H34.7775H34.7669H34.7563H34.7457H34.7352H34.7246H34.714H34.7034H34.6929H34.6823H34.6717H34.6612H34.6506H34.64H34.6294H34.6189H34.6083H34.5977H34.5872H34.5766H34.566H34.5554H34.5449H34.5343H34.5237H34.5132H34.5026H34.492H34.4814H34.4709H34.4603H34.4497H34.4392H34.4286H34.418H34.4074H34.3969H34.3863H34.3757H34.3651H34.3546H34.344H34.3334H34.3229H34.3123H34.3017H34.2911H34.2806H34.27H34.2594H34.2489H34.2383H34.2277H34.2171H34.2066H34.196H34.1854H34.1749H34.1643H34.1537H34.1431H34.1326H34.122H34.1114H34.1008H34.0903H34.0797H34.0691H34.0586H34.048H34.0374H34.0268H34.0163H34.0057H33.9951H33.9846H33.974H33.9634H33.9528H33.9423H33.9317H33.9211H33.9106H33.9H33.8894H33.8788H33.8683H33.8577H33.8471H33.8366H33.826H33.8154H33.8048H33.7943H33.7837H33.7731H33.7625H33.752H33.7414H33.7308H33.7203H33.7097H33.6991H33.6885H33.678H33.6674H33.6568H33.6463H33.6357H33.6251H33.6145H33.604H33.5934H33.5828H33.5723H33.5617H33.5511H33.5405H33.53H33.5194H33.5088H33.4982H33.4877H33.4771H33.4665H33.456H33.4454H33.4348H33.4242H33.4137H33.4031H33.3925H33.382H33.3714H33.3608H33.3502H33.3397H33.3291H33.3185H33.308H33.2974H33.2868H33.2762H33.2657H33.2551H33.2445H33.234H33.2234H33.2128H33.2022H33.1917H33.1811H33.1705H33.1599H33.1494H33.1388H33.1282H33.1177H33.1071H33.0965H33.0859H33.0754H33.0648H33.0542H33.0437H33.0331H33.0225H33.0119H33.0014H32.9908H32.9802H32.9697H32.9591H32.9485H32.9379H32.9274H32.9168H32.9062H32.8956H32.8851H32.8745H32.8639H32.8534H32.8428H32.8322H32.8216H32.8111H32.8005H32.7899H32.7794H32.7688H32.7582H32.7476H32.7371H32.7265H32.7159H32.7054H32.6948H32.6842H32.6736H32.6631H32.6525H32.6419H32.6314H32.6208H32.6102H32.5996H32.5891H32.5785H32.5679H32.5573H32.5468H32.5362H32.5256H32.5151H32.5045H32.4939H32.4833H32.4728H32.4622H32.4516H32.4411H32.4305H32.4199H32.4093H32.3988H32.3882H32.3776H32.3671H32.3565H32.3459H32.3353H32.3248H32.3142H32.3036H32.2931H32.2825H32.2719H32.2613H32.2508H32.2402H32.2296H32.219H32.2085H32.1979H32.1873H32.1768H32.1662H32.1556H32.145H32.1345H32.1239H32.1133H32.1028H32.0922H32.0816H32.071H32.0605H32.0499H32.0393H32.0288H32.0182H32.0076H31.997H31.9865H31.9759H31.9653H31.9548H31.9442H31.9336H31.923H31.9125H31.9019H31.8913H31.8808H31.8702H31.8596H31.849H31.8385H31.8279H31.8173H31.8067H31.7962H31.7856H31.775H31.7645H31.7539H31.7433H31.7327H31.7222H31.7116H31.701H31.6905H31.6799H31.6693H31.6587H31.6482H31.6376H31.627H31.6165H31.6059H31.5953H31.5847H31.5742H31.5636H31.553H31.5425H31.5319H31.5213H31.5107H31.5002H31.4896H31.479H31.4685H31.4579H31.4473H31.4367H31.4262H31.4156H31.405H31.3944H31.3839H31.3733H31.3627H31.3522H31.3416H31.331C30.0107 27.1913 28.9809 27.5912 28.2814 28.2951C27.5817 28.9992 27.184 30.036 27.184 31.3648V31.3936V31.4223V31.451V31.4797V31.5084V31.5371V31.5658V31.5945V31.6232V31.6519V31.6806V31.7093V31.738V31.7667V31.7954V31.8241V31.8528V31.8815V31.9102V31.9389V31.9676V31.9964V32.0251V32.0538V32.0825V32.1112V32.1399V32.1686V32.1973V32.226V32.2547V32.2834V32.3121V32.3408V32.3695V32.3982V32.4269V32.4556V32.4843V32.513V32.5417V32.5704V32.5991V32.6279V32.6566V32.6853V32.714V32.7427V32.7714V32.8001V32.8288V32.8575V32.8862V32.9149V32.9436V32.9723V33.001V33.0297V33.0584V33.0871V33.1158V33.1445V33.1732V33.2019V33.2306V33.2594V33.2881V33.3168V33.3455V33.3742V33.4029V33.4316V33.4603V33.489V33.5177V33.5464V33.5751V33.6038V33.6325V33.6612V33.6899V33.7186V33.7473V33.776V33.8047V33.8334V33.8622V33.8909V33.9196V33.9483V33.977V34.0057V34.0344V34.0631V34.0918V34.1205V34.1492V34.1779V34.2066V34.2353V34.264V34.2927V34.3214V34.3501V34.3788V34.4075V34.4362V34.4649V34.4937V34.5224V34.5511V34.5798V34.6085V34.6372V34.6659V34.6946V34.7233V34.752V34.7807V34.8094V34.8381V34.8668V34.8955V34.9242V34.9529V34.9816V35.0103V35.039V35.0677V35.0964V35.1252V35.1539V35.1826V35.2113V35.24V35.2687V35.2974V35.3261V35.3548V35.3835V35.4122V35.4409V35.4696V35.4983V35.527V35.5557V35.5844V35.6131V35.6418V35.6705V35.6992V35.7279V35.7567V35.7854V35.8141V35.8428V35.8715V35.9002V35.9289V35.9576V35.9863V36.015V36.0437V36.0724V36.1011V36.1298V36.1585V36.1872V36.2159V36.2446V36.2733V36.302V36.3307V36.3594V36.3882V36.4169V36.4456V36.4743V36.503V36.5317V36.5604V36.5891V36.6178V36.6465V36.6752V36.7039V36.7326V36.7613V36.79V36.8187V36.8474V36.8761V36.9048V36.9335V36.9622V36.9909V37.0197V37.0484V37.0771V37.1058V37.1345V37.1632V37.1919V37.2206V37.2493V37.278V37.3067V37.3354V37.3641V37.3928V37.4215V37.4502V37.4789V37.5076V37.5363V37.565V37.5937V37.6224V37.6512V37.6799V37.7086V37.7373V37.766V37.7947V37.8234V37.8521V37.8808V37.9095V37.9382V37.9669V37.9956V38.0243V38.053V38.0817V38.1104V38.1391V38.1678V38.1965V38.2252V38.2539V38.2827V38.3114V38.3401V38.3688V38.3975V38.4262V38.4549V38.4836V38.5123V38.541V38.5697V38.5984V38.6271V38.6558V38.6845V38.7132V38.7419V38.7706V38.7993V38.828V38.8567V38.8854V38.9142V38.9429V38.9716V39.0003V39.029V39.0577V39.0864V39.1151V39.1438V39.1725V39.2012V39.2299V39.2586V39.2873V39.316V39.3447V39.3734V39.4021V39.4308V39.4595V39.4882V39.5169V39.5457V39.5744V39.6031V39.6318V39.6605V39.6892V39.7179V39.7466V39.7753V39.804V39.8327V39.8614V39.8901V39.9188V39.9475V39.9762V40.0049V40.0336V40.0623V40.091V40.1197V40.1484V40.1772V40.2059V40.2346V40.2633V40.292V40.3207V40.3494V40.3781V40.4068V40.4355V40.4642V40.4929V40.5216V40.5503V40.579V40.6077V40.6364V40.6651V40.6938V40.7225V40.7512V40.78V40.8087V40.8374V40.8661V40.8948V40.9235V40.9522V40.9809V41.0096V41.0383V41.067V41.0957V41.1244V41.1531V41.1818V41.2105V41.2392V41.2679V41.2966V41.3253V41.354V41.3827V41.4115V41.4402V41.4689V41.4976V41.5263V41.555V41.5837V41.6124V41.6411V41.6698V41.6985V41.7272V41.7559V41.7846V41.8133V41.842V41.8707V41.8994V41.9281V41.9568V41.9855V42.0142V42.043V42.0717V42.1004V42.1291V42.1578V42.1865V42.2152V42.2439V42.2726V42.3013V42.33V42.3587V42.3874V42.4161V42.4448V42.4735V42.5022V42.5309V42.5596V42.5883V42.617V42.6457V42.6745V42.7032V42.7319V42.7606V42.7893V42.818V42.8467V42.8754V42.9041V42.9328V42.9615V42.9902V43.0189V43.0476V43.0763V43.105V43.1337V43.1624V43.1911V43.2198V43.2485V43.2772V43.306V43.3347V43.3634V43.3921V43.4208V43.4495V43.4782V43.5069V43.5356V43.5643V43.593V43.6217V43.6504V43.6791V43.7078V43.7365V43.7652V43.7939V43.8226V43.8513V43.88V43.9087V43.9375V43.9662V43.9949V44.0236V44.0523V44.081V44.1097V44.1384V44.1671V44.1958V44.2245V44.2532V44.2819V44.3106V44.3393V44.368V44.3967V44.4254V44.4541V44.4828V44.5115V44.5403V44.569V44.5977V44.6264V44.6551V44.6838V44.7125V44.7412V44.7699V44.7986V44.8273V44.856V44.8847V44.9134V44.9421V44.9708V44.9995V45.0282V45.0569V45.0856V45.1143V45.143V45.1718V45.2005V45.2292V45.2579V45.2866V45.3153V45.344V45.3727V45.4014V45.4301V45.4588V45.4875V45.5162V45.5449V45.5736V45.6023V45.631V45.6597V45.6884V45.7171V45.7458V45.7745V45.8033V45.832V45.8607V45.8894V45.9181V45.9468V45.9755V46.0042V46.0329V46.0616C27.184 47.3468 27.5825 48.3646 28.2763 49.0614C28.9701 49.7581 29.9847 50.1594 31.2663 50.1628M36.7438 26.9413H31.331C28.5885 26.9413 26.934 28.607 26.934 31.3648V46.0616C26.934 48.7367 28.5971 50.4059 31.2656 50.4128M31.2663 50.1628C31.266 50.1628 31.2658 50.1628 31.2656 50.1628V50.4128M31.2663 50.1628C31.6208 50.1628 31.9735 50.1655 32.3251 50.1681C33.0224 50.1735 33.7153 50.1788 34.4099 50.163C34.7193 50.1422 35.0288 50.2041 35.3064 50.3425C35.5837 50.4807 35.8192 50.6902 35.9889 50.9493C36.8619 52.1428 37.7513 53.325 38.6416 54.5084C38.8601 54.7989 39.0787 55.0895 39.2971 55.3803L39.2975 55.3808C39.381 55.4926 39.466 55.598 39.5643 55.72M31.2663 50.1628L31.2656 50.4128M31.2656 50.4128L39.5643 55.72M39.5643 55.72C39.5646 55.7204 39.5649 55.7207 39.5652 55.7211C39.6148 55.7826 39.6678 55.8484 39.7258 55.9214C39.9815 55.5802 40.2339 55.2418 40.4845 54.9057C41.1066 54.0716 41.7178 53.252 42.3407 52.4419C43.2916 51.2068 43.5276 50.7061 43.9164 50.513C44.3019 50.3216 44.8376 50.4326 46.3693 50.43L38.6066 58.0884M39.5643 55.72C39.8059 55.3974 40.045 55.0769 40.2826 54.7582C40.9054 53.9232 41.5185 53.1011 42.1425 52.2895L42.1426 52.2894C42.457 51.8811 42.6876 51.5605 42.876 51.2987C42.9718 51.1656 43.0567 51.0477 43.136 50.9412C43.3609 50.6393 43.5475 50.4192 43.7988 50.2923C44.0513 50.1648 44.337 50.1473 44.7105 50.1506C44.8553 50.1519 45.012 50.1564 45.1903 50.1614C45.5003 50.1702 45.8759 50.1808 46.3689 50.18H46.369C47.0773 50.1789 47.7856 50.1779 48.4939 50.1768C60.498 50.1586 72.5044 50.1405 84.5094 50.2006C85.7851 50.2072 86.8694 49.7673 87.6281 49.0145C88.3862 48.2622 88.8346 47.1822 88.8116 45.8783C88.7517 42.5121 88.7644 39.1434 88.777 35.7776C88.7825 34.3077 88.7881 32.8384 88.7875 31.37C88.7875 30.0425 88.3876 29.0067 87.6852 28.3031C86.9828 27.5995 85.9498 27.1999 84.6285 27.1999H42.6902H42.6892H42.6882H42.6872H42.6862H42.6852H42.6842H42.6832H42.6822H42.6812H42.6802H42.6791H42.6781H42.6771H42.6761H42.6751H42.6741H42.6731H42.6721H42.6711H42.6701H42.6691H42.6681H42.667H42.666H42.665H42.664H42.663H42.662H42.661H42.66H42.659H42.658H42.657H42.6559H42.6549H42.6539H42.6529H42.6519H42.6509H42.6499H42.6489H42.6479H42.6469H42.6459H42.6448H42.6438H42.6428H42.6418H42.6408H42.6398H42.6388H42.6378H42.6368H42.6358H42.6348H42.6338H42.6327H42.6317H42.6307H42.6297H42.6287H42.6277H42.6267H42.6257H42.6247H42.6237H42.6227H42.6216H42.6206H42.6196H42.6186H42.6176H42.6166H42.6156H42.6146H42.6136H42.6126H42.6116H42.6106H42.6095H42.6085H42.6075H42.6065H42.6055H42.6045H42.6035H42.6025H42.6015H42.6005H42.5995H42.5984H42.5974H42.5964H42.5954H42.5944H42.5934H42.5924H42.5914H42.5904H42.5894H42.5884H42.5874H42.5863H42.5853H42.5843H42.5833H42.5823H42.5813H42.5803H42.5793H42.5783H42.5773H42.5763H42.5752H42.5742H42.5732H42.5722H42.5712H42.5702H42.5692H42.5682H42.5672H42.5662H42.5652H42.5641H42.5631H42.5621H42.5611H42.5601H42.5591H42.5581H42.5571H42.5561H42.5551H42.5541H42.5531H42.552H42.551H42.55H42.549H42.548H42.547H42.546H42.545H42.544H42.543H42.542H42.5409H42.5399H42.5389H42.5379H42.5369H42.5359H42.5349H42.5339H42.5329H42.5319H42.5309H42.5299H42.5288H42.5278H42.5268H42.5258H42.5248H42.5238H42.5228H42.5218H42.5208H42.5198H42.5188H42.5177H42.5167H42.5157H42.5147H42.5137H42.5127H42.5117H42.5107H42.5097H42.5087H42.5077H42.5067H42.5056H42.5046H42.5036H42.5026H42.5016H42.5006H42.4996H42.4986H42.4976H42.4966H42.4956H42.4945H42.4935H42.4925H42.4915H42.4905H42.4895H42.4885H42.4875H42.4865H42.4855H42.4845H42.4834H42.4824H42.4814H42.4804H42.4794H42.4784H42.4774H42.4764H42.4754H42.4744H42.4734H42.4724H42.4713H42.4703H42.4693H42.4683H42.4673H42.4663H42.4653H42.4643H42.4633H42.4623H42.4613H42.4602H42.4592H42.4582H42.4572H42.4562H42.4552H42.4542H42.4532H42.4522H42.4512H42.4502H42.4492H42.4481H42.4471H42.4461H42.4451H42.4441H42.4431H42.4421H42.4411H42.4401H42.4391H42.4381H42.437H42.436H42.435H42.434H42.433H42.432H42.431H42.43H42.429H42.428H42.427H42.426H42.4249H42.4239H42.4229H42.4219H42.4209H42.4199H42.4189H42.4179H42.4169H42.4159H42.4149H42.4138H42.4128H42.4118H42.4108H42.4098H42.4088H42.4078H42.4068H42.4058H42.4048H42.4038H42.4028H42.4017H42.4007H42.3997H42.3987H42.3977H42.3967H42.3957H42.3947H42.3937H42.3927H42.3917H42.3906H42.3896H42.3886H42.3876H42.3866H42.3856H42.3846H42.3836H42.3826H42.3816H42.3806H42.3795H42.3785H42.3775H42.3765H42.3755H42.3745H42.3735H42.3725H42.3715H42.3705H42.3695H42.3685H42.3674H42.3664H42.3654H42.3644H42.3634H42.3624H42.3614H42.3604H42.3594H42.3584H42.3574H42.3563H42.3553H42.3543H42.3533H42.3523H42.3513H42.3503H42.3493H42.3483H42.3473H42.3463H42.3453H42.3442H42.3432H42.3422H42.3412H42.3402H42.3392H42.3382H42.3372H42.3362H42.3352H42.3342H42.3331H42.3321H42.3311H42.3301H42.3291H42.3281H42.3271H42.3261H42.3251H42.3241H42.3231H42.3221H42.321H42.32H42.319H42.318H42.317H42.316H42.315H42.314H42.313H42.312H42.311H42.3099H42.3089H42.3079H42.3069H42.3059H42.3049H42.3039H42.3029H42.3019H42.3009H42.2999H42.2988H42.2978H42.2968H42.2958H42.2948H42.2938H42.2928H42.2918H42.2908H42.2898H42.2888H42.2878H42.2867H42.2857H42.2847H42.2837H42.2827H42.2817H42.2807H42.2797H42.2787H42.2777H42.2767H42.2756H42.2746H42.2736H42.2726H42.2716H42.2706H42.2696H42.2686H42.2676H42.2666H42.2656H42.2646H42.2635H42.2625H42.2615H42.2605H42.2595H42.2585H42.2575H42.2565H42.2555H42.2545H42.2535H42.2524H42.2514H42.2504H42.2494H42.2484H42.2474H42.2464H42.2454H42.2444H42.2434H42.2424H42.2414H42.2403H42.2393H42.2383H42.2373H42.2363H42.2353H42.2343H42.2333H42.2323H42.2313H42.2303H42.2292H42.2282H42.2272H42.2262H42.2252H42.2242H42.2232H42.2222H42.2212H42.2202H42.2192H42.2181H42.2171H42.2161H42.2151H42.2141H42.2131H42.2121H42.2111H42.2101H42.2091H42.2081H42.2071H42.206H42.205H42.204H42.203H42.202H42.201H42.2H42.199H42.198H42.197H42.196H42.1949H42.1939H42.1929H42.1919H42.1909H42.1899H42.1889H42.1879H42.1869H42.1859H42.1849H42.1839H42.1828H42.1818H42.1808H42.1798H42.1788H42.1778H42.1768L42.1633 27.2004C41.9235 27.2078 41.6335 27.2167 41.3722 27.1401C41.0825 27.0552 40.8316 26.8677 40.68 26.5101C40.5344 26.1669 40.5383 25.8414 40.6516 25.5468C40.7617 25.2604 40.9685 25.0196 41.2023 24.8201L41.2724 24.7603H41.3646H85.825H85.8617L85.8969 24.7709C86.0134 24.8059 86.1325 24.8404 86.2531 24.8753C86.4787 24.9407 86.7091 25.0074 86.9353 25.0809L86.9361 25.0812C89.3931 25.8893 91.1733 28.1547 91.1984 30.7871L91.1985 30.7872C91.2467 36.0522 91.2639 41.3183 91.1984 46.5849V46.5852C91.1516 50.0607 88.3419 52.6005 84.7768 52.6041H84.7768C75.628 52.611 66.4793 52.611 57.3306 52.6041C53.3572 52.6041 49.3835 52.6041 45.4097 52.5937L45.4015 52.5937L45.3932 52.5931C45.2503 52.5833 45.1074 52.6121 44.9793 52.6766C44.8512 52.741 44.7427 52.8387 44.6653 52.9593L44.661 52.9661L44.6562 52.9725C43.4228 54.6485 42.1709 56.312 40.9204 57.9736L40.7209 58.2386C40.3874 58.6824 40.0011 58.9692 39.5627 58.9695C39.1241 58.9698 38.7386 58.6833 38.4067 58.2385M38.4067 58.2385C38.4065 58.2383 38.4064 58.2381 38.4063 58.2379L38.6066 58.0884M38.4067 58.2385C38.4067 58.2385 38.4067 58.2386 38.4068 58.2386L38.6066 58.0884M38.4067 58.2385C38.0044 57.703 37.6042 57.1668 37.2044 56.6311C36.2829 55.3964 35.363 54.1638 34.4216 52.9461M38.6066 58.0884C38.2053 57.5543 37.8058 57.0189 37.4062 56.4835C36.4824 55.2457 35.5588 54.0081 34.6142 52.7864M34.4216 52.9461C34.4233 52.9479 34.4249 52.9498 34.4266 52.9517L34.6142 52.7864M34.4216 52.9461C34.4199 52.9438 34.4181 52.9416 34.4164 52.9394L34.6142 52.7864M34.4216 52.9461L34.6142 52.7864M33.7644 52.6174C33.766 52.6174 33.7675 52.6175 33.769 52.6176L33.7809 52.3679L33.7603 52.617C33.7617 52.6171 33.7631 52.6172 33.7644 52.6174ZM30.2817 52.553L30.3049 52.3041L30.2815 52.553C30.2816 52.553 30.2816 52.553 30.2817 52.553Z" fill="#662D91" stroke="#662D91" stroke-width="0.5"/>
<path d="M24.7564 75.1034L24.75 75.1311V75.1595V77.869V77.9113L24.7639 77.9513C24.8079 78.0776 24.8434 78.2069 24.8701 78.3381C25.348 82.1745 27.3138 85.6694 30.3437 88.069C33.3759 90.4705 37.2307 91.5823 41.0753 91.1642C49.4988 90.2875 55.4803 82.3518 54.0091 73.9913C53.4446 70.7351 51.8047 67.7624 49.3518 65.549C46.8989 63.3355 43.7746 62.0093 40.4792 61.7825C33.8304 61.3024 27.6109 65.4859 25.5096 71.8966L25.5095 71.8969C25.274 72.6181 25.1187 73.3754 24.9669 74.1158C24.8984 74.4501 24.8306 74.7809 24.7564 75.1034ZM47.5533 67.2135L47.5534 67.2135C52.8324 71.8439 52.9827 79.3986 49.0848 84.1703C48.0976 81.392 46.282 79.3578 43.5775 78.0858C46.4252 75.2629 45.9891 71.4657 43.8322 69.2606L43.8314 69.2598C42.7097 68.1239 41.1893 67.4709 39.5936 67.4397C37.9982 67.4085 36.4535 68.0014 35.2884 69.0922C33.257 70.9729 32.2301 74.9169 35.3578 78.091C32.7004 79.3462 30.864 81.3466 29.8921 84.114C26.9295 80.8258 25.6392 74.0167 29.9729 68.6993L29.9729 68.6993C34.3393 63.3413 42.3629 62.6565 47.5533 67.2135ZM46.7334 86.46L46.7325 86.4607C44.6403 87.9866 42.1222 88.8169 39.5333 88.8345C36.9073 88.8257 34.3502 87.9928 32.2223 86.4532L32.2119 86.4457L32.2008 86.4393C32.0941 86.3777 32.0111 86.2821 31.9649 86.1677C31.9187 86.0533 31.912 85.9268 31.946 85.8082L31.9494 85.7963L31.9516 85.7841C32.5865 82.2921 35.8838 79.6274 39.5743 79.6641H39.5744C43.2074 79.6992 46.4807 82.4678 47.0272 85.9197L47.0272 85.9198C47.0517 86.0744 47.0269 86.1579 46.9907 86.2185C46.9475 86.2909 46.8708 86.3608 46.7334 86.46ZM35.8101 73.7349L35.8103 73.5318C35.8107 73.0495 35.9062 72.5721 36.0911 72.1267C36.2761 71.6813 36.5469 71.2767 36.8882 70.9361C37.2295 70.5956 37.6346 70.3257 38.0802 70.1418C38.5256 69.958 39.0027 69.8638 39.4844 69.8645C40.4589 69.8711 41.3916 70.262 42.0796 70.9526C42.7674 71.6429 43.1552 72.5768 43.1591 73.5515C43.1489 74.5264 42.7558 75.4582 42.0646 76.1455C41.3734 76.8329 40.4395 77.2205 39.465 77.2246C38.491 77.2191 37.5589 76.8276 36.8728 76.1358C36.2342 75.4917 35.8573 74.6363 35.8101 73.7349Z" fill="#662D91" stroke="#662D91" stroke-width="0.5"/>
<path d="M57.8717 65.2259L57.8715 65.2262L61.2445 70.0743L61.2469 70.3243C61.2469 70.3243 61.2469 70.3243 61.2469 70.3243C64.3006 70.2954 67.3508 70.3019 70.4027 70.3084C71.7109 70.3112 73.0195 70.314 74.3287 70.314C77.3795 70.314 80.428 70.3122 83.4741 70.3088C83.8506 70.3084 84.2286 70.3103 84.6076 70.3123C85.7331 70.3182 86.8673 70.3241 87.9953 70.2671L87.9954 70.2671C89.7246 70.1788 90.9235 68.8569 91.0844 67.0702C91.2449 65.2875 90.2671 63.6839 88.6388 63.2658L88.6389 63.2656L88.63 63.2637C88.0873 63.145 87.5319 63.0939 86.9766 63.1115H86.9313H86.8819H86.8326H86.7833H86.7339H86.6846H86.6353H86.5859H86.5366H86.4873H86.4379H86.3886H86.3393H86.2899H86.2406H86.1913H86.1419H86.0926H86.0433H85.9939H85.9446H85.8953H85.8459H85.7966H85.7473H85.6979H85.6486H85.5992H85.5499H85.5006H85.4512H85.4019H85.3526H85.3032H85.2539H85.2046H85.1552H85.1059H85.0566H85.0072H84.9579H84.9086H84.8592H84.8099H84.7606H84.7112H84.6619H84.6126H84.5632H84.5139H84.4646H84.4152H84.3659H84.3166H84.2672H84.2179H84.1686H84.1192H84.0699H84.0206H83.9712H83.9219H83.8726H83.8232H83.7739H83.7246H83.6752H83.6259H83.5766H83.5272H83.4779H83.4286H83.3792H83.3299H83.2805H83.2312H83.1819H83.1325H83.0832H83.0339H82.9845H82.9352H82.8859H82.8365H82.7872H82.7379H82.6885H82.6392H82.5899H82.5405H82.4912H82.4419H82.3925H82.3432H82.2939H82.2445H82.1952H82.1459H82.0965H82.0472H81.9979H81.9485H81.8992H81.8499H81.8005H81.7512H81.7019H81.6525H81.6032H81.5539H81.5045H81.4552H81.4059H81.3565H81.3072H81.2579H81.2085H81.1592H81.1099H81.0605H81.0112H80.9619H80.9125H80.8632H80.8139H80.7645H80.7152H80.6659H80.6165H80.5672H80.5179H80.4685H80.4192H80.3699H80.3205H80.2712H80.2219H80.1726H80.1232H80.0739H80.0246H79.9752H79.9259H79.8766H79.8272H79.7779H79.7286H79.6792H79.6299H79.5806H79.5312H79.4819H79.4326H79.3832H79.3339H79.2846H79.2352H79.1859H79.1366H79.0872H79.0379H78.9886H78.9392H78.8899H78.8406H78.7912H78.7419H78.6926H78.6432H78.5939H78.5446H78.4952H78.4459H78.3966H78.3472H78.2979H78.2486H78.1992H78.1499H78.1006H78.0512H78.0019H77.9526H77.9033H77.8539H77.8046H77.7553H77.7059H77.6566H77.6073H77.5579H77.5086H77.4593H77.4099H77.3606H77.3113H77.2619H77.2126H77.1633H77.1139H77.0646H77.0153H76.9659H76.9166H76.8673H76.8179H76.7686H76.7193H76.6699H76.6206H76.5713H76.522H76.4726H76.4233H76.374H76.3246H76.2753H76.226H76.1766H76.1273H76.078H76.0286H75.9793H75.93H75.8806H75.8313H75.782H75.7326H75.6833H75.634H75.5847H75.5353H75.486H75.4367H75.3873H75.338H75.2887H75.2393H75.19H75.1407H75.0913H75.042H74.9927H74.9433H74.894H74.8447H74.7953H74.746H74.6967H74.6474H74.598H74.5487H74.4994H74.45H74.4007H74.3514H74.302H74.2527H74.2034H74.154H74.1047H74.0554H74.006H73.9567H73.9074H73.858H73.8087H73.7594H73.7101H73.6607H73.6114H73.5621H73.5127H73.4634H73.4141H73.3647H73.3154H73.2661H73.2167H73.1674H73.1181H73.0688H73.0194H72.9701H72.9208H72.8714H72.8221H72.7728H72.7234H72.6741H72.6248H72.5754H72.5261H72.4768H72.4274H72.3781H72.3288H72.2795H72.2301H72.1808H72.1315H72.0821H72.0328H71.9835H71.9341H71.8848H71.8355H71.7861H71.7368H71.6875H71.6382H71.5888H71.5395H71.4902H71.4408H71.3915H71.3422H71.2928H71.2435H71.1942H71.1449H71.0955H71.0462H70.9969H70.9475H70.8982H70.8489H70.7995H70.7502H70.7009H70.6515H70.6022H70.5529H70.5036H70.4542H70.4049H70.3556H70.3062H70.2569H70.2076H70.1582H70.1089H70.0596H70.0103H69.9609H69.9116H69.8623H69.8129H69.7636H69.7143H69.6649H69.6156H69.5663H69.517H69.4676H69.4183H69.369H69.3196H69.2703H69.221H69.1716H69.1223H69.073H69.0237H68.9743H68.925H68.8757H68.8263H68.777H68.7277H68.6783H68.629H68.5797H68.5304H68.481H68.4317H68.3824H68.333H68.2837H68.2344H68.185H68.1357H68.0864H68.0371H67.9877H67.9384H67.8891H67.8397H67.7904H67.7411H67.6918H67.6424H67.5931H67.5438H67.4944H67.4451H67.3958H67.3464H67.2971H67.2478H67.1985H67.1491H67.0998H67.0505H67.0011H66.9518H66.9025H66.8532H66.8038H66.7545H66.7052H66.6558H66.6065H66.5572H66.5078H66.4585H66.4092H66.3599H66.3105H66.2612H66.2119H66.1625H66.1132H66.0639H66.0146H65.9652H65.9159H65.8666H65.8172H65.7679H65.7186H65.6692H65.6199H65.5706H65.5213H65.4719H65.4226H65.3733H65.3239H65.2746H65.2253H65.176H65.1266H65.0773H65.028H64.9786H64.9293H64.88H64.8307H64.7813H64.732H64.6827H64.6333H64.584H64.5347H64.4854H64.436H64.3867H64.3374H64.288H64.2387H64.1894H64.1401H64.0907H64.0414H63.9921H63.9427H63.8934H63.8441H63.7948H63.7454H63.6961H63.6468H63.5974H63.5481H63.4988H63.4495H63.4001H63.3508H63.3015H63.2521H63.2028H63.1535H63.1042H63.0548H63.0055H62.9562H62.9068H62.8575H62.8082H62.7589H62.7095H62.6602H62.6109H62.5615H62.5122H62.4629H62.4136H62.3642H62.3149H62.2656H62.2162H62.1669H62.1176H62.0683H62.0189H61.9696H61.9203H61.871H61.8216H61.7723H61.7244C61.3512 63.1074 60.9782 63.1227 60.6066 63.1574L60.6066 63.1574L60.6032 63.1577C59.2859 63.2988 58.3734 64.0171 57.8717 65.2259ZM87.04 67.8796V67.8795H87.0341H74.5442V67.8723L74.2939 67.8726C69.9809 67.8784 65.6661 67.8801 61.3497 67.8778C60.7762 67.877 60.3777 67.6922 60.1584 67.4289C59.9436 67.171 59.8642 66.7942 60.0157 66.3213L60.0184 66.3129L60.0205 66.3042C60.0672 66.1125 60.1726 65.9402 60.3221 65.8114C60.4715 65.6827 60.6574 65.604 60.8537 65.5863L60.8537 65.5863L60.8575 65.5859C61.125 65.5576 61.3939 65.5443 61.6629 65.546V65.546H61.6645H61.714H61.7635H61.8131H61.8626H61.9122H61.9617H62.0113H62.0608H62.1103H62.1599H62.2094H62.259H62.3085H62.3581H62.4076H62.4571H62.5067H62.5562H62.6058H62.6553H62.7049H62.7544H62.8039H62.8535H62.903H62.9526H63.0021H63.0517H63.1012H63.1507H63.2003H63.2498H63.2994H63.3489H63.3985H63.448H63.4975H63.5471H63.5966H63.6462H63.6957H63.7453H63.7948H63.8443H63.8939H63.9434H63.993H64.0425H64.092H64.1416H64.1911H64.2407H64.2902H64.3398H64.3893H64.4388H64.4884H64.5379H64.5875H64.637H64.6865H64.7361H64.7856H64.8352H64.8847H64.9343H64.9838H65.0333H65.0829H65.1324H65.182H65.2315H65.281H65.3306H65.3801H65.4297H65.4792H65.5288H65.5783H65.6278H65.6774H65.7269H65.7765H65.826H65.8755H65.9251H65.9746H66.0242H66.0737H66.1232H66.1728H66.2223H66.2719H66.3214H66.371H66.4205H66.47H66.5196H66.5691H66.6187H66.6682H66.7177H66.7673H66.8168H66.8664H66.9159H66.9654H67.015H67.0645H67.1141H67.1636H67.2131H67.2627H67.3122H67.3618H67.4113H67.4608H67.5104H67.5599H67.6095H67.659H67.7085H67.7581H67.8076H67.8572H67.9067H67.9562H68.0058H68.0553H68.1049H68.1544H68.2039H68.2535H68.303H68.3526H68.4021H68.4516H68.5012H68.5507H68.6003H68.6498H68.6993H68.7489H68.7984H68.848H68.8975H68.947H68.9966H69.0461H69.0957H69.1452H69.1947H69.2443H69.2938H69.3434H69.3929H69.4424H69.492H69.5415H69.591H69.6406H69.6901H69.7397H69.7892H69.8387H69.8883H69.9378H69.9874H70.0369H70.0864H70.136H70.1855H70.2351H70.2846H70.3341H70.3837H70.4332H70.4827H70.5323H70.5818H70.6314H70.6809H70.7304H70.78H70.8295H70.8791H70.9286H70.9781H71.0277H71.0772H71.1267H71.1763H71.2258H71.2754H71.3249H71.3744H71.424H71.4735H71.5231H71.5726H71.6221H71.6717H71.7212H71.7707H71.8203H71.8698H71.9194H71.9689H72.0184H72.068H72.1175H72.167H72.2166H72.2661H72.3157H72.3652H72.4147H72.4643H72.5138H72.5633H72.6129H72.6624H72.712H72.7615H72.811H72.8606H72.9101H72.9596H73.0092H73.0587H73.1083H73.1578H73.2073H73.2569H73.3064H73.3559H73.4055H73.455H73.5046H73.5541H73.6036H73.6532H73.7027H73.7522H73.8018H73.8513H73.9009H73.9504H73.9999H74.0495H74.099H74.1485H74.1981H74.2476H74.2971H74.3467H74.3962H74.4458H74.4953H74.5448H74.5944H74.6439H74.6934H74.743H74.7925H74.8421H74.8916H74.9411H74.9907H75.0402H75.0897H75.1393H75.1888H75.2383H75.2879H75.3374H75.3869H75.4365H75.486H75.5356H75.5851H75.6346H75.6842H75.7337H75.7832H75.8328H75.8823H75.9318H75.9814H76.0309H76.0805H76.13H76.1795H76.2291H76.2786H76.3281H76.3777H76.4272H76.4767H76.5263H76.5758H76.6253H76.6749H76.7244H76.7739H76.8235H76.873H76.9226H76.9721H77.0216H77.0712H77.1207H77.1702H77.2198H77.2693H77.3188H77.3684H77.4179H77.4674H77.517H77.5665H77.616H77.6656H77.7151H77.7646H77.8142H77.8637H77.9133H77.9628H78.0123H78.0619H78.1114H78.1609H78.2105H78.26H78.3095H78.3591H78.4086H78.4581H78.5077H78.5572H78.6067H78.6563H78.7058H78.7553H78.8049H78.8544H78.9039H78.9535H79.003H79.0525H79.1021H79.1516H79.2011H79.2507H79.3002H79.3497H79.3993H79.4488H79.4984H79.5479H79.5974H79.647H79.6965H79.746H79.7956H79.8451H79.8946H79.9442H79.9937H80.0432H80.0928H80.1423H80.1918H80.2414H80.2909H80.3404H80.39H80.4395H80.489H80.5386H80.5881H80.6376H80.6872H80.7367H80.7862H80.8358H80.8853H80.9348H80.9844H81.0339H81.0834H81.133H81.1825H81.232H81.2816H81.3311H81.3806H81.4302H81.4797H81.5292H81.5788H81.6283H81.6778H81.7273H81.7769H81.8264H81.8759H81.9255H81.975H82.0245H82.0741H82.1236H82.1731H82.2227H82.2722H82.3217H82.3713H82.4208H82.4703H82.5199H82.5694H82.6189H82.6685H82.718H82.7675H82.8171H82.8666H82.9161H82.9657H83.0152H83.0647H83.1143H83.1638H83.2133H83.2628H83.3124H83.3619H83.4114H83.461H83.5105H83.56H83.6096H83.6591H83.7086H83.7582H83.8077H83.8572H83.9068H83.9563H84.0058H84.0554H84.1049H84.1544H84.2039H84.2535H84.303H84.3525H84.4021H84.4516H84.5011H84.5507H84.6002H84.6497H84.6993H84.7488H84.7983H84.8479H84.8974H84.9469H84.9964H85.046H85.0955H85.145H85.1946H85.2441H85.2936H85.3432H85.3927H85.4422H85.4918H85.5413H85.5908H85.6403H85.6899H85.7394H85.7889H85.8385H85.888H85.9375H85.9871H86.0366H86.0861H86.1356H86.1852H86.2347H86.2842H86.3338H86.3833H86.4328H86.4824H86.5319H86.5814H86.6309H86.6805H86.73H86.7795H86.8291H86.8786H86.9281H86.9777H87.0272V65.546L87.0327 65.5459C87.2971 65.5401 87.5616 65.5548 87.8238 65.5898C88.1162 65.6376 88.3368 65.7746 88.4839 65.9687C88.6328 66.1651 88.7185 66.4364 88.7073 66.7685C88.6961 67.0853 88.5963 67.3365 88.4405 67.5152C88.2859 67.6925 88.0629 67.8136 87.775 67.8502C87.5309 67.8756 87.2854 67.8854 87.04 67.8796Z" fill="#662D91" stroke="#662D91" stroke-width="0.5"/>
<path d="M87.4584 89.9039L87.4578 89.9039L87.4228 89.9039H87.3878H87.3529H87.3179H87.2829H87.248H87.213H87.178H87.1431H87.1081H87.0731H87.0381H87.0032H86.9682H86.9332H86.8983H86.8633H86.8283H86.7934H86.7584H86.7234H86.6884H86.6535H86.6185H86.5835H86.5486H86.5136H86.4786H86.4437H86.4087H86.3737H86.3387H86.3038H86.2688H86.2338H86.1989H86.1639H86.1289H86.094H86.059H86.024H85.989H85.9541H85.9191H85.8841H85.8492H85.8142H85.7792H85.7442H85.7093H85.6743H85.6393H85.6044H85.5694H85.5344H85.4995H85.4645H85.4295H85.3945H85.3596H85.3246H85.2896H85.2547H85.2197H85.1847H85.1498H85.1148H85.0798H85.0448H85.0099H84.9749H84.9399H84.905H84.87H84.835H84.8001H84.7651H84.7301H84.6951H84.6602H84.6252H84.5902H84.5553H84.5203H84.4853H84.4504H84.4154H84.3804H84.3454H84.3105H84.2755H84.2405H84.2056H84.1706H84.1356H84.1007H84.0657H84.0307H83.9957H83.9608H83.9258H83.8908H83.8559H83.8209H83.7859H83.751H83.716H83.681H83.646H83.6111H83.5761H83.5411H83.5062H83.4712H83.4362H83.4013H83.3663H83.3313H83.2963H83.2614H83.2264H83.1914H83.1565H83.1215H83.0865H83.0516H83.0166H82.9816H82.9466H82.9117H82.8767H82.8417H82.8068H82.7718H82.7368H82.7019H82.6669H82.6319H82.5969H82.562H82.527H82.492H82.4571H82.4221H82.3871H82.3521H82.3172H82.2822H82.2472H82.2123H82.1773H82.1423H82.1074H82.0724H82.0374H82.0024H81.9675H81.9325H81.8975H81.8626H81.8276H81.7926H81.7577H81.7227H81.6877H81.6528H81.6178H81.5828H81.5478H81.5129H81.4779H81.4429H81.408H81.373H81.338H81.303H81.2681H81.2331H81.1981H81.1632H81.1282H81.0932H81.0583H81.0233H80.9883H80.9533H80.9184H80.8834H80.8484H80.8135H80.7785H80.7435H80.7086H80.6736H80.6386H80.6036H80.5687H80.5337H80.4987H80.4638H80.4288H80.3938H80.3589H80.3239H80.2889H80.2539H80.219H80.184H80.149H80.1141H80.0791H80.0441H80.0092H79.9742H79.9392H79.9042H79.8693H79.8343H79.7993H79.7644H79.7294H79.6944H79.6595H79.6245H79.5895H79.5545H79.5196H79.4846H79.4496H79.4147H79.3797H79.3447H79.3098H79.2748H79.2398H79.2048H79.1699H79.1349H79.0999H79.065H79.03H78.995H78.9601H78.9251H78.8901H78.8551H78.8202H78.7852H78.7502H78.7153H78.6803H78.6453H78.6104H78.5754H78.5404H78.5054H78.4705H78.4355H78.4005H78.3656H78.3306H78.2956H78.2607H78.2257H78.1907H78.1557H78.1208H78.0858H78.0508H78.0159H77.9809H77.9459H77.9109H77.876H77.841H77.806H77.7711H77.7361H77.7011H77.6662H77.6312H77.5962H77.5612H77.5263H77.4913H77.4563H77.4214H77.3864H77.3514H77.3165H77.2815H77.2465H77.2115H77.1766H77.1416H77.1066H77.0717H77.0367H77.0017H76.9668H76.9318H76.8968H76.8618H76.8269H76.7919H76.7569H76.722H76.687H76.652H76.6171H76.5821H76.5471H76.5121H76.4772H76.4422H76.4072H76.3723H76.3373H76.3023H76.2674H76.2324H76.1974H76.1624H76.1275H76.0925H76.0575H76.0226H75.9876H75.9526H75.9177H75.8827H75.8477H75.8127H75.7778H75.7428H75.7078H75.6729H75.6379H75.6029H75.568H75.533H75.498H75.463H75.4281H75.3931H75.3581H75.3232H75.2882H75.2532H75.2183H75.1833H75.1483H75.1133H75.0784H75.0434H75.0084H74.9735H74.9385H74.9035H74.8686H74.8336H74.7986H74.7636H74.7287H74.6937H74.6587H74.6238H74.5888H74.5538H74.5189H74.4839H74.4489H74.4139H74.379H74.344H74.309H74.2741H74.2391H74.2041H74.1692H74.1342H74.0992H74.0642H74.0293H73.9943H73.9593H73.9244H73.8894H73.8544H73.8195H73.7845H73.7495H73.7145H73.6796H73.6446H73.6096H73.5747H73.5397H73.5047H73.4698H73.4348H73.3998H73.3648H73.3299H73.2949H73.2599H73.225H73.19H73.155H73.12H73.0851H73.0501H73.0151H72.9802H72.9452H72.9102H72.8753H72.8403H72.8053H72.7703H72.7354H72.7004H72.6654H72.6305H72.5955H72.5605H72.5256H72.4906H72.4556H72.4206H72.3857H72.3507H72.3157H72.2808H72.2458H72.2108H72.1759H72.1409H72.1059H72.0709H72.036H72.001H71.966H71.9311H71.8961H71.8611H71.8262H71.7912H71.7562H71.7212H71.6863H71.6513H71.6163H71.5814H71.5464H71.5114H71.4765H71.4415H71.4065H71.3715H71.3366H71.3016H71.2666H71.2317H71.1967H71.1617H71.1268H71.0918H71.0568H71.0218H70.9869H70.9519H70.9169H70.882H70.847H70.812H70.7771H70.7421H70.7071H70.6721H70.6372H70.6022H70.5672H70.5323H70.4973H70.4623H70.4274H70.3924H70.3574H70.3224H70.2875H70.2525H70.2175H70.1826H70.1476H70.1126H70.0777H70.0427H70.0077H69.9727H69.9378H69.9028H69.8678H69.8329H69.7979H69.7629H69.728H69.693H69.658H69.623H69.5881H69.5531C69.0837 89.9039 68.6927 89.8257 68.4196 89.6114C68.1306 89.3846 68.0245 89.0482 68.0343 88.6589L68.0343 88.6585C68.0423 88.3609 68.1221 88.0877 68.3015 87.8756C68.4827 87.6614 68.7418 87.5374 69.0534 87.4958L69.0627 87.4946L69.0628 87.4947C69.3068 87.4714 69.552 87.4642 69.7969 87.473H69.8267H69.8611H69.8954H69.9298H69.9641H69.9985H70.0328H70.0672H70.1016H70.1359H70.1703H70.2046H70.239H70.2734H70.3077H70.3421H70.3764H70.4108H70.4451H70.4795H70.5139H70.5482H70.5826H70.6169H70.6513H70.6856H70.72H70.7544H70.7887H70.8231H70.8574H70.8918H70.9261H70.9605H70.9949H71.0292H71.0636H71.0979H71.1323H71.1666H71.201H71.2354H71.2697H71.3041H71.3384H71.3728H71.4071H71.4415H71.4759H71.5102H71.5446H71.5789H71.6133H71.6476H71.682H71.7164H71.7507H71.7851H71.8194H71.8538H71.8881H71.9225H71.9569H71.9912H72.0256H72.0599H72.0943H72.1286H72.163H72.1973H72.2317H72.2661H72.3004H72.3348H72.3691H72.4035H72.4378H72.4722H72.5066H72.5409H72.5753H72.6096H72.644H72.6783H72.7127H72.747H72.7814H72.8158H72.8501H72.8845H72.9188H72.9532H72.9875H73.0219H73.0562H73.0906H73.125H73.1593H73.1937H73.228H73.2624H73.2967H73.3311H73.3654H73.3998H73.4342H73.4685H73.5029H73.5372H73.5716H73.6059H73.6403H73.6746H73.709H73.7434H73.7777H73.8121H73.8464H73.8808H73.9151H73.9495H73.9838H74.0182H74.0526H74.0869H74.1213H74.1556H74.19H74.2243H74.2587H74.293H74.3274H74.3617H74.3961H74.4305H74.4648H74.4992H74.5335H74.5679H74.6022H74.6366H74.6709H74.7053H74.7396H74.774H74.8084H74.8427H74.8771H74.9114H74.9458H74.9801H75.0145H75.0488H75.0832H75.1175H75.1519H75.1862H75.2206H75.255H75.2893H75.3237H75.358H75.3924H75.4267H75.4611H75.4954H75.5298H75.5641H75.5985H75.6328H75.6672H75.7016H75.7359H75.7703H75.8046H75.839H75.8733H75.9077H75.942H75.9764H76.0107H76.0451H76.0794H76.1138H76.1482H76.1825H76.2169H76.2512H76.2856H76.3199H76.3543H76.3886H76.423H76.4573H76.4917H76.526H76.5604H76.5947H76.6291H76.6634H76.6978H76.7322H76.7665H76.8009H76.8352H76.8696H76.9039H76.9383H76.9726H77.007H77.0413H77.0757H77.11H77.1444H77.1787H77.2131H77.2474H77.2818H77.3161H77.3505H77.3849H77.4192H77.4536H77.4879H77.5223H77.5566H77.591H77.6253H77.6597H77.694H77.7284H77.7627H77.7971H77.8314H77.8658H77.9001H77.9345H77.9688H78.0032H78.0375H78.0719H78.1062H78.1406H78.175H78.2093H78.2437H78.278H78.3124H78.3467H78.3811H78.4154H78.4498H78.4841H78.5185H78.5528H78.5872H78.6215H78.6559H78.6902H78.7246H78.7589H78.7933H78.8276H78.862H78.8963H78.9307H78.965H78.9994H79.0337H79.0681H79.1024H79.1368H79.1711H79.2055H79.2398H79.2742H79.3085H79.3429H79.3772H79.4116H79.4459H79.4803H79.5147H79.549H79.5834H79.6177H79.6521H79.6864H79.7208H79.7551H79.7895H79.8238H79.8582H79.8925H79.9269H79.9612H79.9956H80.0299H80.0643H80.0986H80.133H80.1673H80.2017H80.236H80.2704H80.3047H80.3391H80.3734H80.4078H80.4421H80.4765H80.5108H80.5452H80.5795H80.6139H80.6482H80.6826H80.7169H80.7513H80.7856H80.82H80.8543H80.8887H80.923H80.9574H80.9917H81.0261H81.0604H81.0948H81.1291H81.1635H81.1978H81.2322H81.2665H81.3009H81.3352H81.3696H81.4039H81.4383H81.4726H81.507H81.5413H81.5756H81.61H81.6443H81.6787H81.713H81.7474H81.7817H81.8161H81.8504H81.8848H81.9191H81.9535H81.9878H82.0222H82.0565H82.0909H82.1252H82.1596H82.1939H82.2283H82.2626H82.297H82.3313H82.3657H82.4H82.4344H82.4687H82.5031H82.5374H82.5718H82.6061H82.6405H82.6748H82.7092H82.7435H82.7779H82.8122H82.8465H82.8809H82.9152H82.9496H82.9839H83.0183H83.0526H83.087H83.1213H83.1557H83.19H83.2244H83.2587H83.2931H83.3274H83.3618H83.3961H83.4305H83.4648H83.4992H83.5335H83.5679H83.6022H83.6366H83.6709H83.7052H83.7396H83.7739H83.8083H83.8426H83.877H83.9113H83.9457H83.98H84.0144H84.0487H84.0831H84.1174H84.1518H84.1861H84.2205H84.2548H84.2892H84.3235H84.3578H84.3922H84.4265H84.4609H84.4952H84.5296H84.5639H84.5983H84.6326H84.667H84.7013H84.7357H84.77H84.8044H84.8387H84.873H84.9074H84.9417H84.9761H85.0104H85.0448H85.0791H85.1135H85.1478H85.1822H85.2165H85.2509H85.2852H85.3195H85.3539H85.3882H85.4226H85.4569H85.4913H85.5256H85.56H85.5943H85.6287H85.663H85.6974H85.7317H85.766H85.8004H85.8347H85.8691H85.9034H85.9378H85.9721H86.0065H86.0408H86.0752H86.1095H86.1439H86.1782H86.2125H86.2469H86.2812H86.3156H86.3499H86.3843H86.4186H86.453H86.4873H86.5217H86.556H86.5903H86.6247H86.659H86.6934H86.7277H86.7621H86.7964H86.8308H86.8651H86.8995H86.9338H86.9681H87.0025H87.0368H87.0712H87.1055H87.1399H87.1742H87.2086H87.2429H87.2772H87.3116H87.3459H87.3803C87.9628 87.473 88.3458 87.3349 88.5693 87.1217C88.7851 86.916 88.8956 86.5981 88.8414 86.1308L88.8399 86.1172L88.8402 86.1172C88.8255 85.8737 88.7235 85.6437 88.5531 85.4693C88.3826 85.295 88.1551 85.1879 87.9122 85.1678L87.9045 85.1671L87.9045 85.167C87.7027 85.1439 87.4996 85.1347 87.2965 85.1393L87.2908 85.1394V85.1394H87.2408H87.1907H87.1406H87.0905H87.0404H86.9903H86.9403H86.8902H86.8401H86.79H86.7399H86.6899H86.6398H86.5897H86.5396H86.4895H86.4395H86.3894H86.3393H86.2892H86.2391H86.189H86.139H86.0889H86.0388H85.9887H85.9386H85.8886H85.8385H85.7884H85.7383H85.6882H85.6382H85.5881H85.538H85.4879H85.4378H85.3877H85.3377H85.2876H85.2375H85.1874H85.1373H85.0873H85.0372H84.9871H84.937H84.8869H84.8369H84.7868H84.7367H84.6866H84.6365H84.5864H84.5364H84.4863H84.4362H84.3861H84.336H84.286H84.2359H84.1858H84.1357H84.0856H84.0356H83.9855H83.9354H83.8853H83.8352H83.7851H83.7351H83.685H83.6349H83.5848H83.5347H83.4847H83.4346H83.3845H83.3344H83.2843H83.2343H83.1842H83.1341H83.084H83.0339H82.9838H82.9338H82.8837H82.8336H82.7835H82.7334H82.6834H82.6333H82.5832H82.5331H82.483H82.433H82.3829H82.3328H82.2827H82.2326H82.1825H82.1325H82.0824H82.0323H81.9822H81.9321H81.8821H81.832H81.7819H81.7318H81.6817H81.6317H81.5816H81.5315H81.4814H81.4313H81.3812H81.3312H81.2811H81.231H81.1809H81.1308H81.0808H81.0307H80.9806H80.9305H80.8804H80.8303H80.7803H80.7302H80.6801H80.63H80.5799H80.5299H80.4798H80.4297H80.3796H80.3295H80.2795H80.2294H80.1793H80.1292H80.0791H80.029H79.979H79.9289H79.8788H79.8287H79.7786H79.7286H79.6785H79.6284H79.5783H79.5282H79.4782H79.4281H79.378H79.3279H79.2778H79.2277H79.1777H79.1276H79.0775H79.0274H78.9773H78.9273H78.8772H78.8271H78.777H78.7269H78.6768H78.6268H78.5767H78.5266H78.4765H78.4264H78.3764H78.3263H78.2762H78.2261H78.176H78.126H78.0759H78.0258H77.9757H77.9256H77.8755H77.8255H77.7754H77.7253H77.6752H77.6251H77.5751H77.525H77.4749H77.4248H77.3747H77.3247H77.2746H77.2245H77.1744H77.1243H77.0742H77.0242H76.9741H76.924H76.8739H76.8238H76.7738H76.7237H76.6736H76.6235H76.5734H76.5233H76.4733H76.4232H76.3731H76.323H76.2729H76.2229H76.1728H76.1227H76.0726H76.0225H75.9725H75.9224H75.8723H75.8222H75.7721H75.722H75.672H75.6219H75.5718H75.5217H75.4716H75.4216H75.3715H75.3214H75.2713H75.2212H75.1712H75.1211H75.071H75.0209H74.9708H74.9207H74.8707H74.8206H74.7705H74.7204H74.6703H74.6203H74.5702H74.5201H74.47H74.4199H74.3699H74.3198H74.2697H74.2196H74.1695H74.1194H74.0694H74.0193H73.9692H73.9191H73.869H73.819H73.7689H73.7188H73.6687H73.6186H73.5685H73.5185H73.4684H73.4183H73.3682H73.3181H73.2681H73.218H73.1679H73.1178H73.0677H73.0177H72.9676H72.9175H72.8674H72.8173H72.7672H72.7172H72.6671H72.617H72.5669H72.5168H72.4668H72.4167H72.3666H72.3165H72.2664H72.2163H72.1663H72.1162H72.0661H72.016H71.9659H71.9159H71.8658H71.8157H71.7656H71.7155H71.6655H71.6154H71.5653H71.5152H71.4651H71.415H71.365H71.3149H71.2648H71.2147H71.1646H71.1146H71.0645H71.0144H70.9643H70.9142H70.8642H70.8141H70.764H70.7139H70.6638H70.6137H70.5637H70.5136H70.4635H70.4134H70.3633H70.3133H70.2632H70.2131H70.163H70.1129H70.0628H70.0128H69.9627H69.9126H69.8625H69.8124H69.7624H69.7123H69.6622H69.6121H69.562H69.512H69.4619H69.4118H69.3617H69.3116H69.2615H69.2115H69.1614H69.1113H69.0612H69.0111H68.9611H68.911H68.8609H68.8108H68.7607H68.7107H68.6606H68.6105H68.5604H68.5103H68.4602H68.4102H68.3601H68.31H68.2599H68.2098H68.1598H68.1097H68.0596H68.0095H67.9594H67.9094H67.8593H67.8092H67.7591H67.709H67.6589H67.6089H67.5588H67.5087H67.4586H67.4085H67.3585H67.3084H67.2583H67.2082H67.1581H67.108H67.058H67.0079H66.9578H66.9077H66.8576H66.8076H66.7575H66.7074H66.6573H66.6072H66.5572H66.5071H66.457H66.4069H66.3568H66.3067H66.2567H66.2066H66.1565H66.1064H66.0563H66.0063H65.9562H65.9061H65.856H65.8059H65.7559H65.7058H65.6557H65.6056H65.5555H65.5054H65.4554H65.4053H65.3552H65.3051H65.255H65.205H65.1549H65.1048H65.0547H65.0046H64.9546H64.9045H64.8544H64.8043H64.7542H64.7041H64.6541H64.604H64.5539H64.5038H64.4537H64.4037H64.3536H64.3035H64.2534H64.2033H64.1533H64.1032H64.0531H64.003H63.9529H63.9028H63.8528H63.8027H63.7526H63.7025H63.6524H63.6024H63.5523H63.5022H63.4521H63.402H63.352H63.3019H63.2518H63.2017H63.1516H63.1015H63.0515H63.0014H62.9513H62.9012H62.8511H62.8011H62.751H62.7009H62.6508H62.6007H62.5507H62.5006H62.4505H62.4004H62.3503H62.3002H62.2502H62.2001H62.15H62.0999H62.0498H61.9998H61.9497H61.8996H61.8495H61.7994H61.7494H61.6993H61.6492C61.108 85.1394 60.7772 85.2074 60.5628 85.3349C60.3638 85.4532 60.2318 85.6435 60.1422 85.9851C60.0417 86.3853 60.1109 86.7395 60.2872 86.9932C60.4621 87.245 60.7578 87.4205 61.1595 87.4388L61.1601 87.4388C61.7784 87.4682 62.3851 87.4664 62.999 87.4645C63.43 87.4632 63.8645 87.4618 64.3092 87.4713C64.7191 87.4799 65.0712 87.5992 65.3095 87.848C65.5513 88.1004 65.6388 88.447 65.5957 88.8293L65.5957 88.8294C65.5586 89.1578 65.4342 89.4319 65.2111 89.6215C64.9899 89.8096 64.7024 89.8884 64.3883 89.8884C64.1032 89.8884 63.8164 89.8905 63.5284 89.8926C62.592 89.8995 61.6432 89.9065 60.7022 89.8413L60.7022 89.8413C58.9584 89.7204 57.7612 88.2208 57.7356 86.3916L87.4584 89.9039ZM87.4584 89.9039C87.7017 89.9034 87.945 89.8904 88.1871 89.8651C88.7473 89.8261 89.2869 89.6384 89.7505 89.3212C90.2141 89.004 90.5846 88.5689 90.8241 88.0607C91.3548 87.0249 91.3777 85.6865 90.8557 84.6042C90.3257 83.5054 89.238 82.6801 87.5902 82.6929L87.4584 89.9039ZM60.5747 82.762L60.5747 82.762C60.9476 82.715 61.3232 82.6937 61.6989 82.6981C65.9646 82.6981 70.2343 82.6992 74.5079 82.7015C74.508 82.7015 74.508 82.7015 74.5081 82.7015M60.5747 82.762L78.4027 82.9558C77.1042 82.9536 75.806 82.9515 74.5079 82.9515L74.5081 82.7015M60.5747 82.762L60.5718 82.7624M60.5747 82.762L60.5718 82.7624M74.5081 82.7015C75.807 82.7015 77.1057 82.7036 78.4043 82.7058C81.4656 82.7108 84.5267 82.7159 87.5902 82.6929L74.5081 82.7015ZM60.5718 82.7624C58.8378 83.0014 57.7083 84.5004 57.7356 86.3915L60.5718 82.7624Z" fill="#662D91" stroke="#662D91" stroke-width="0.5"/>
<path d="M61.829 75.3314L61.829 75.3313C61.581 75.3249 61.3328 75.331 61.0855 75.3494C60.7258 75.3848 60.4683 75.513 60.3003 75.6974C60.1321 75.8821 60.0308 76.1485 60.0316 76.5037C60.0323 76.8581 60.136 77.1251 60.3061 77.3098C60.4762 77.4945 60.7352 77.6211 61.0926 77.6521L61.093 77.6522C61.266 77.6675 61.4401 77.6672 61.6264 77.6668C61.655 77.6668 61.6839 77.6667 61.7132 77.6667H87.0983H87.1038L87.1038 77.6668C87.3501 77.6723 87.5964 77.663 87.8415 77.639C88.42 77.565 88.7907 77.1355 88.7936 76.5082C88.7951 76.186 88.7 75.9184 88.5417 75.7273C88.3849 75.538 88.1549 75.4094 87.8556 75.3802L87.8532 75.3799C87.5101 75.3431 87.1727 75.3431 86.82 75.3431C86.6401 75.3431 86.4562 75.3431 86.2655 75.3382L86.2646 75.3382C85.8605 75.3263 85.5159 75.2425 85.2693 75.0357C85.0129 74.8206 84.907 74.5113 84.9011 74.1519C84.8951 73.7887 84.9997 73.4645 85.257 73.2349C85.5076 73.0114 85.8639 72.9131 86.2878 72.9091C86.9188 72.8916 87.5505 72.9092 88.1795 72.9616L88.1848 72.962L88.1848 72.9621C89.9803 73.1496 91.1761 74.6532 91.1633 76.5421C91.1506 78.4278 89.9303 79.946 88.118 80.0627L88.1179 80.0627C87.1667 80.1235 86.2088 80.1181 85.2617 80.1127C84.9626 80.111 84.6645 80.1094 84.3681 80.1098L84.3679 80.1098C81.0336 80.1121 77.7021 80.1109 74.3735 80.1063C73.0655 80.1063 71.7579 80.1024 70.4507 80.0985C67.4204 80.0894 64.3917 80.0804 61.3635 80.12M61.829 75.3314L61.3603 79.8701M61.829 75.3314H61.8354H80.7162C81.2192 75.3314 81.6283 75.2725 81.914 75.0782C82.2258 74.8663 82.3376 74.5347 82.3435 74.1394C82.3494 73.7374 82.2341 73.397 81.9179 73.1748C81.6254 72.9691 81.2042 72.8987 80.6853 72.8987H80.6199H80.5828H80.5456H80.5085H80.4714H80.4343H80.3972H80.3601H80.323H80.2858H80.2487H80.2116H80.1745H80.1374H80.1003H80.0631H80.026H79.9889H79.9518H79.9147H79.8776H79.8405H79.8033H79.7662H79.7291H79.692H79.6549H79.6178H79.5806H79.5435H79.5064H79.4693H79.4322H79.3951H79.3579H79.3208H79.2837H79.2466H79.2095H79.1724H79.1353H79.0981H79.061H79.0239H78.9868H78.9497H78.9126H78.8754H78.8383H78.8012H78.7641H78.727H78.6899H78.6527H78.6156H78.5785H78.5414H78.5043H78.4672H78.43H78.3929H78.3558H78.3187H78.2816H78.2445H78.2073H78.1702H78.1331H78.096H78.0589H78.0218H77.9846H77.9475H77.9104H77.8733H77.8362H77.7991H77.7619H77.7248H77.6877H77.6506H77.6135H77.5764H77.5392H77.5021H77.465H77.4279H77.3908H77.3537H77.3165H77.2794H77.2423H77.2052H77.1681H77.131H77.0938H77.0567H77.0196H76.9825H76.9454H76.9083H76.8711H76.834H76.7969H76.7598H76.7227H76.6856H76.6484H76.6113H76.5742H76.5371H76.5H76.4629H76.4257H76.3886H76.3515H76.3144H76.2773H76.2402H76.203H76.1659H76.1288H76.0917H76.0546H76.0175H75.9803H75.9432H75.9061H75.869H75.8319H75.7948H75.7576H75.7205H75.6834H75.6463H75.6092H75.572H75.5349H75.4978H75.4607H75.4236H75.3865H75.3493H75.3122H75.2751H75.238H75.2009H75.1638H75.1266H75.0895H75.0524H75.0153H74.9782H74.941H74.9039H74.8668H74.8297H74.7926H74.7555H74.7183H74.6812H74.6441H74.607H74.5699H74.5328H74.4956H74.4585H74.4214H74.3843H74.3472H74.31H74.2729H74.2358H74.1987H74.1616H74.1245H74.0873H74.0502H74.0131H73.976H73.9389H73.9017H73.8646H73.8275H73.7904H73.7533H73.7162H73.679H73.6419H73.6048H73.5677H73.5306H73.4935H73.4563H73.4192H73.3821H73.345H73.3079H73.2707H73.2336H73.1965H73.1594H73.1223H73.0851H73.048H73.0109H72.9738H72.9367H72.8996H72.8624H72.8253H72.7882H72.7511H72.714H72.6768H72.6397H72.6026H72.5655H72.5284H72.4913H72.4541H72.417H72.3799H72.3428H72.3057H72.2685H72.2314H72.1943H72.1572H72.1201H72.0829H72.0458H72.0087H71.9716H71.9345H71.8974H71.8602H71.8231H71.786H71.7489H71.7118H71.6746H71.6375H71.6004H71.5633H71.5262H71.489H71.4519H71.4148H71.3777H71.3406H71.3035H71.2663H71.2292H71.1921H71.155H71.1179H71.0807H71.0436H71.0065H70.9694H70.9323H70.8951H70.858H70.8209H70.7838H70.7467H70.7095H70.6724H70.6353H70.5982H70.5611H70.524H70.4868H70.4497H70.4126H70.3755H70.3384H70.3012H70.2641H70.227H70.1899H70.1528H70.1156H70.0785H70.0414H70.0043H69.9672H69.93H69.8929H69.8558H69.8187H69.7816H69.7444H69.7073H69.6702H69.6331H69.596H69.5588H69.5217H69.4846H69.4475H69.4104H69.3733H69.3361H69.299H69.2619H69.2248H69.1877H69.1505H69.1134H69.0763H69.0392H69.0021H68.9649H68.9278H68.8907H68.8536H68.8165H68.7793H68.7422H68.7051H68.668H68.6309H68.5937H68.5566H68.5195H68.4824H68.4453H68.4081H68.371H68.3339H68.2968H68.2597H68.2225H68.1854H68.1483H68.1112H68.0741H68.0369H67.9998H67.9627H67.9256H67.8885H67.8513H67.8142H67.7771H67.74H67.7029H67.6657H67.6286H67.5915H67.5544H67.5173H67.4801H67.443H67.4059H67.3688H67.3317H67.2945H67.2574H67.2203H67.1832H67.146H67.1089H67.0718H67.0347H66.9976H66.9604H66.9233H66.8862H66.8491H66.812H66.7748H66.7377H66.7006H66.6635H66.6264H66.5892H66.5521H66.515H66.4779H66.4408H66.4036H66.3665H66.3294H66.2923H66.2552H66.218H66.1809H66.1438H66.1067H66.0696H66.0324H65.9953H65.9582H65.9211H65.8839H65.8468H65.8097H65.7726H65.7355H65.6983H65.6612H65.6241H65.587H65.5499H65.5127H65.4756H65.4385H65.4014H65.3643H65.3271H65.29H65.2529H65.2158H65.1787H65.1415H65.1044H65.0673H65.0302H64.993H64.9559H64.9188H64.8817H64.8446H64.8074H64.7703H64.7332H64.6961H64.659H64.6218H64.5847H64.5476H64.5105H64.4733H64.4362H64.3991H64.362H64.3249H64.2877H64.2506H64.2135H64.1764H64.1393H64.1021H64.065H64.0279H63.9908H63.9537H63.9165H63.8794H63.8423H63.8052H63.768H63.7309H63.6938H63.6567H63.6196H63.5824H63.5453H63.5082H63.4711H63.434H63.3968H63.3597H63.3226H63.2855H63.2483H63.2112H63.1741H63.137H63.0999H63.0627H63.0256H62.9885H62.9514H62.9142H62.8771H62.84H62.8029H62.7658H62.7286H62.6915H62.6544H62.6173H62.5802H62.543H62.5059H62.4688H62.4317H62.3945H62.3574H62.3203H62.2832H62.2461H62.2089H62.1718H62.1347H62.0976H62.0604H62.0233H61.9862H61.9491H61.912H61.8748H61.8377H61.8006H61.7635H61.7263H61.6892H61.6521H61.6154L61.829 75.3314ZM61.3635 80.12L61.3603 79.8701M61.3635 80.12C61.3636 80.12 61.3636 80.12 61.3636 80.12L61.3603 79.8701M61.3635 80.12C59.7201 80.142 58.6139 79.3512 58.0599 78.2725C57.5138 77.2091 57.5114 75.8807 58.0256 74.815M61.3603 79.8701C58.2614 79.9114 57.287 76.9142 58.2528 74.9195M58.0256 74.815C58.025 74.8165 58.0243 74.8181 58.0236 74.8196L58.2528 74.9195M58.0256 74.815C58.0264 74.8135 58.0271 74.812 58.0278 74.8105L58.2528 74.9195M58.0256 74.815L58.2528 74.9195M60.6273 72.948C60.6265 72.9481 60.6258 72.9482 60.6251 72.9483L60.651 73.1969L60.6296 72.9478C60.6288 72.9479 60.628 72.948 60.6273 72.948Z" fill="#662D91" stroke="#662D91" stroke-width="0.5"/>
<path d="M76.5306 31.0737L76.5306 31.074C77.1585 31.0929 77.6353 31.4607 77.9253 32.0545C78.0335 32.2746 78.1405 32.4946 78.2472 32.714C78.5989 33.4369 78.9479 34.1544 79.3286 34.8551C79.4383 35.0302 79.612 35.1557 79.8126 35.205C80.7113 35.3755 81.6186 35.5056 82.5315 35.6365C82.6761 35.6572 82.8209 35.678 82.9658 35.6989C83.2712 35.7286 83.5611 35.8485 83.7983 36.0433C84.036 36.2386 84.2101 36.5001 84.2986 36.7946C84.4028 37.1034 84.4091 37.3991 84.3285 37.6752C84.2483 37.9499 84.0867 38.1899 83.8791 38.3976C83.8791 38.3976 83.8791 38.3977 83.879 38.3977L83.7022 38.221C83.4037 38.5203 83.0999 38.814 82.7959 39.1079C82.3286 39.5596 81.8611 40.0116 81.4125 40.4844L76.5306 31.0737ZM76.5306 31.0737L76.5174 31.074C76.1794 31.0817 75.8827 31.1591 75.6265 31.3265C75.3715 31.4931 75.1765 31.7359 75.0198 32.0419L75.0193 32.0428C74.842 32.3925 74.6717 32.7406 74.5023 33.0868C74.2123 33.6795 73.9252 34.2665 73.6107 34.8454C73.5008 35.0232 73.3263 35.1515 73.124 35.2035C72.1043 35.3977 71.063 35.5413 70.0319 35.6805C69.7073 35.7241 69.4113 35.8246 69.1667 36.0076C68.9196 36.1925 68.7407 36.4501 68.6344 36.7801C68.5268 37.1142 68.5301 37.4303 68.6284 37.7239C68.7253 38.0136 68.9094 38.2662 69.1399 38.4875L69.14 38.4875C69.2583 38.601 69.3767 38.7141 69.4948 38.827C70.1208 39.4252 70.742 40.0189 71.3334 40.6405C71.4697 40.7986 71.5394 41.0034 71.5277 41.2119C71.4334 41.9449 71.3055 42.671 71.1763 43.4045C71.1275 43.682 71.0784 43.9605 71.0309 44.2409L71.0309 44.2412C70.9253 44.8694 71.0028 45.5402 71.6378 45.9799C71.9396 46.1889 72.2521 46.2781 72.5701 46.2671C72.8828 46.2563 73.1839 46.1493 73.4703 45.9945C73.799 45.819 74.1349 45.6459 74.4728 45.4717C75.0128 45.1933 75.5581 44.9122 76.088 44.6142L76.0964 44.6095L76.1045 44.6041C76.2124 44.5318 76.3392 44.4933 76.469 44.4933C76.5987 44.4933 76.7256 44.5318 76.8334 44.6041L76.8413 44.6094L76.8497 44.614C77.4095 44.9299 77.9849 45.2299 78.5561 45.5276C78.8808 45.6969 79.2042 45.8655 79.5225 46.0358C79.8009 46.1858 80.0913 46.287 80.3957 46.2894C80.7051 46.2918 81.0058 46.1919 81.3007 45.9787C81.6003 45.7622 81.7877 45.4942 81.8796 45.1877C81.97 44.8866 81.9632 44.565 81.9047 44.2434C81.88 44.1065 81.8551 43.9698 81.8303 43.8333C81.6748 42.9783 81.5206 42.1306 81.4131 41.2776C81.3935 41.0516 81.4608 40.8267 81.6012 40.6487L76.5306 31.0737ZM79.6133 39.1537L79.6132 39.1538C79.2623 39.4528 79.0366 39.7885 78.9279 40.1676C78.82 40.5438 78.833 40.9422 78.9249 41.3592C79.0252 41.8281 79.1004 42.2973 79.183 42.8131C79.1995 42.9159 79.2162 43.0205 79.2336 43.1274C79.1454 43.0823 79.0586 43.0379 78.9729 42.9941C78.4547 42.7295 77.981 42.4876 77.5419 42.2334C77.1977 42.0342 76.8517 41.9165 76.4908 41.9107C76.1285 41.9048 75.7735 42.0121 75.4125 42.2262C74.9749 42.4857 74.5248 42.7152 74.0257 42.9696C73.9184 43.0244 73.8088 43.0802 73.6966 43.1378C73.7144 43.0304 73.7318 42.925 73.7489 42.8213C73.8469 42.2272 73.9357 41.6892 74.0404 41.153C74.1216 40.8171 74.1095 40.4652 74.0052 40.1357C73.9009 39.8064 73.7086 39.512 73.4493 39.2843C73.0587 38.9038 72.6857 38.5057 72.293 38.0867C72.2194 38.0082 72.1451 37.9289 72.0699 37.8489C72.1462 37.8374 72.2222 37.826 72.2979 37.8146C72.8311 37.7344 73.3499 37.6563 73.8722 37.5978C74.2823 37.5519 74.642 37.4295 74.9433 37.2102C75.2452 36.9905 75.4729 36.6849 75.6363 36.2976C75.8363 35.8233 76.07 35.37 76.3234 34.8787C76.3702 34.7879 76.4177 34.6959 76.4657 34.6022C76.5226 34.7168 76.5788 34.8296 76.6342 34.9411C76.9012 35.4779 77.1519 35.9818 77.3951 36.4905C77.5165 36.7782 77.7129 37.028 77.9637 37.214C78.2152 37.4004 78.5123 37.5158 78.8238 37.5478C79.38 37.6197 79.9336 37.7055 80.5302 37.7979C80.6629 37.8185 80.7976 37.8393 80.9351 37.8605C80.8685 37.9288 80.8032 37.9963 80.7386 38.0629C80.3568 38.4569 80.0036 38.8215 79.6133 39.1537Z" fill="#662D91" stroke="#662D91" stroke-width="0.5"/>
<path d="M34.024 44.5202L34.0269 44.5026C34.0734 44.2238 34.1224 43.9407 34.1721 43.6541C34.3075 42.8729 34.4474 42.0657 34.5513 41.2469C34.5653 41.0203 34.4903 40.7972 34.3423 40.625C33.7943 40.0399 33.214 39.4863 32.6275 38.9268C32.4846 38.7904 32.3413 38.6537 32.1981 38.5162C31.7467 38.085 31.4332 37.5281 31.6519 36.8232C31.7554 36.4898 31.9367 36.2229 32.1892 36.0288C32.4398 35.8362 32.7469 35.7254 33.0885 35.6797L33.089 35.6797C34.1183 35.5441 35.1593 35.3952 36.1835 35.2041C36.274 35.1817 36.3594 35.1419 36.4349 35.087C36.5103 35.0322 36.5744 34.9633 36.6238 34.8842C37.0797 34.0406 37.497 33.1749 37.9167 32.3041C37.9523 32.2303 37.9879 32.1565 38.0235 32.0827L38.0237 32.0822C38.1641 31.7928 38.3486 31.5405 38.595 31.3605C38.8446 31.1781 39.144 31.08 39.4933 31.08C39.8419 31.08 40.1423 31.1768 40.3933 31.3586C40.6413 31.5381 40.8275 31.7905 40.9682 32.0825M34.024 44.5202L40.7432 32.1913M34.024 44.5202L34.0236 44.5381C34.0091 45.183 34.2704 45.7176 34.7063 46.0203C35.1441 46.3243 35.7235 46.3699 36.2878 46.103C36.7857 45.8674 37.2734 45.6075 37.7554 45.3501L37.7799 45.337C38.2532 45.0843 38.721 44.8345 39.197 44.607M34.024 44.5202L39.197 44.607M40.9682 32.0825C40.9683 32.0826 40.9683 32.0827 40.9684 32.0828L40.7432 32.1913M40.9682 32.0825C40.9682 32.0824 40.9682 32.0824 40.9682 32.0823L40.7432 32.1913M40.9682 32.0825C41.0165 32.1821 41.0646 32.2816 41.1127 32.3811C41.5212 33.226 41.9271 34.0655 42.3682 34.8844M40.7432 32.1913C40.7914 32.2909 40.8395 32.3904 40.8877 32.4901C41.297 33.3365 41.7064 34.1833 42.1515 35.0094M42.3682 34.8844C42.3671 34.8826 42.366 34.8808 42.3649 34.879L42.1515 35.0094M42.3682 34.8844C42.4172 34.9631 42.481 35.0316 42.556 35.086L42.4091 35.2883M42.3682 34.8844C42.3693 34.8865 42.3705 34.8887 42.3716 34.8908L42.1515 35.0094M42.1515 35.0094L39.197 44.607M42.4091 35.2883C42.5125 35.3634 42.6298 35.4173 42.7541 35.4469C43.7871 35.6416 44.82 35.7915 45.8668 35.9327C46.4831 36.0154 46.9152 36.2996 47.1012 36.899C47.2871 37.4985 47.0375 37.9412 46.626 38.3408C46.3774 38.5813 46.1298 38.823 45.8821 39.0647C45.4078 39.5277 44.9333 39.9908 44.4515 40.4458C44.2001 40.6835 44.0763 40.8936 44.159 41.2777M42.4091 35.2883L38.2487 32.1913C38.213 32.2653 38.1772 32.3394 38.1415 32.4135C37.7212 33.2855 37.3005 34.1584 36.8403 35.0094C36.7734 35.1188 36.6856 35.2139 36.5819 35.2893C36.4782 35.3646 36.3607 35.4188 36.2361 35.4487C35.2031 35.6416 34.1547 35.7914 33.1217 35.9275C32.5036 36.0102 32.0697 36.3203 31.8907 36.8973C31.7116 37.4744 31.9544 37.9377 32.371 38.3356C32.513 38.472 32.6554 38.6079 32.7978 38.7437C33.386 39.3048 33.9738 39.8657 34.5282 40.4578C34.723 40.6821 34.8208 40.9745 34.8003 41.2709C34.6955 42.0984 34.5537 42.9166 34.4176 43.7018C34.3681 43.9872 34.3194 44.2682 34.2735 44.5437C34.2477 45.6909 35.1979 46.3421 36.1809 45.877C36.6815 45.6401 37.1727 45.3778 37.6643 45.1153C38.1382 44.8623 38.6124 44.6091 39.0957 44.3783M42.4091 35.2883L42.556 35.086C42.6312 35.1407 42.7164 35.1802 42.8067 35.2024C43.831 35.3953 44.8568 35.5442 45.9002 35.6849C46.237 35.7301 46.5434 35.833 46.7954 36.0221C47.0504 36.2135 47.2332 36.4808 47.3399 36.825C47.449 37.1765 47.4324 37.4949 47.321 37.7846C47.2121 38.0676 47.0188 38.3078 46.8002 38.5202L46.7998 38.5205C46.553 38.7593 46.3062 39.0002 46.0589 39.2415C45.5836 39.7055 45.1065 40.1712 44.6233 40.6274C44.5067 40.7376 44.4441 40.8196 44.4121 40.8996C44.3826 40.9734 44.3699 41.0696 44.4034 41.2252L44.159 41.2777M44.159 41.2777C44.2978 41.9197 44.4046 42.5692 44.5113 43.2188C44.5647 43.5437 44.6181 43.8685 44.6754 44.1923C44.7856 44.7986 44.7528 45.3584 44.2139 45.7598C43.6751 46.1612 43.1432 46.0785 42.5872 45.7753C41.704 45.2913 40.8173 44.809 39.9082 44.3783C39.648 44.2707 39.3559 44.2707 39.0957 44.3783M44.159 41.2777L44.4033 41.2249C44.5435 41.8727 44.6521 42.5334 44.7594 43.1868C44.8125 43.5098 44.8653 43.8311 44.9215 44.1481C44.9791 44.4651 45.0046 44.7954 44.9316 45.1095C44.8566 45.4323 44.6807 45.7239 44.3633 45.9603C44.0519 46.1922 43.7296 46.2919 43.3992 46.2816C43.0756 46.2716 42.7642 46.1566 42.4675 45.9948L42.467 45.9946C41.5854 45.5114 40.7066 45.0335 39.8073 44.6071C39.6116 44.5279 39.3928 44.5278 39.197 44.607M39.0957 44.3783L39.1912 44.6094C39.1931 44.6086 39.1951 44.6078 39.197 44.607M39.0957 44.3783L39.2034 44.6039C39.2013 44.6049 39.1991 44.606 39.197 44.607M40.9066 42.4068L40.9065 42.4067C40.4344 42.0906 39.9607 41.9291 39.4767 41.936C38.9939 41.9429 38.5275 42.117 38.0685 42.4255C37.6926 42.6744 37.2893 42.8698 36.8191 43.0976C36.7907 43.1114 36.7621 43.1252 36.7332 43.1392C36.7514 43.0254 36.7689 42.9141 36.7861 42.8048C36.8701 42.2718 36.9464 41.7874 37.0521 41.294C37.1377 40.8946 37.1421 40.5142 37.0375 40.1575C36.9323 39.799 36.7223 39.4819 36.407 39.2027C36.0266 38.8658 35.6757 38.4982 35.2938 38.0982C35.2174 38.0181 35.1398 37.9368 35.0604 37.8541C35.1269 37.844 35.193 37.8339 35.2585 37.8239C35.8665 37.7309 36.4334 37.6443 37.0066 37.5803C37.3629 37.5526 37.7044 37.4251 37.9918 37.2123C38.2785 37 38.4998 36.7114 38.6306 36.3795C38.8525 35.8889 39.094 35.4104 39.3565 34.8905C39.4041 34.7961 39.4525 34.7004 39.5015 34.603C39.5485 34.6969 39.5949 34.7894 39.6408 34.8808C39.905 35.407 40.1512 35.8976 40.3805 36.3974C40.5071 36.7185 40.7205 36.998 40.9969 37.2047C41.2742 37.4121 41.6037 37.5379 41.9485 37.568C42.4826 37.6324 43.012 37.714 43.5968 37.8041C43.73 37.8246 43.866 37.8456 44.0057 37.8669C43.9179 37.9526 43.8319 38.0369 43.7473 38.1197C43.3386 38.5202 42.9639 38.8873 42.5862 39.217C42.2728 39.4905 42.0656 39.7984 41.9613 40.1464C41.8575 40.4924 41.861 40.8596 41.9391 41.2446C42.0401 41.7475 42.1217 42.2515 42.2104 42.7995C42.2278 42.907 42.2455 43.0163 42.2637 43.1276C42.1878 43.0906 42.1138 43.0548 42.0413 43.0198C41.6179 42.815 41.2503 42.6372 40.9066 42.4068Z" fill="#662D91" stroke="#662D91" stroke-width="0.5"/>
<path d="M65.8752 37.5467L65.8538 37.5945C65.7196 37.8949 65.5476 38.177 65.3422 38.4341L65.336 38.4418L65.3292 38.449C64.6356 39.1881 63.9043 39.9025 63.1525 40.5837L63.1422 40.5931L63.1419 40.5928C63.0322 40.6816 62.951 40.8007 62.9082 40.9353C62.8655 41.07 62.8632 41.2142 62.9016 41.3502L62.9046 41.3608L62.9066 41.3716C63.0315 42.0304 63.143 42.6945 63.2539 43.355C63.3101 43.6896 63.3662 44.0233 63.4237 44.355C63.479 44.6642 63.4723 44.9671 63.3764 45.2472C63.2794 45.5303 63.0967 45.7742 62.8268 45.97C62.2724 46.3721 61.6371 46.3553 61.0491 46.0416L61.049 46.0416C60.8632 45.9424 60.6782 45.8429 60.4935 45.7436C59.7738 45.3564 59.06 44.9724 58.3281 44.6276C58.1153 44.544 57.8788 44.5441 57.666 44.6278C56.8976 44.987 56.1508 45.3882 55.3964 45.7934C55.2448 45.8749 55.0928 45.9566 54.9403 46.0381L54.9396 46.0384C54.6584 46.1876 54.3606 46.2857 54.0551 46.2891C53.7448 46.2925 53.4424 46.1978 53.1597 45.987C52.8814 45.7794 52.6916 45.5199 52.5926 45.2178C52.4945 44.9181 52.4906 44.5918 52.558 44.2544C52.7533 43.2705 52.9306 42.2837 53.0534 41.2955C53.0696 41.0631 52.9965 40.8333 52.8492 40.653C52.1775 39.9336 51.4609 39.2531 50.7395 38.5679C50.7146 38.5443 50.6898 38.5207 50.6649 38.4971L50.6647 38.4969C50.4293 38.2727 50.2471 38.0183 50.1528 37.7277C50.0574 37.4338 50.0574 37.1196 50.1613 36.7889C50.2654 36.4574 50.4464 36.2002 50.697 36.0164C50.9442 35.8351 51.244 35.7361 51.5716 35.6927C52.6023 35.5517 53.643 35.4083 54.6639 35.2142C54.8654 35.1599 55.0383 35.0299 55.1464 34.8512C55.6148 33.9987 56.0399 33.1123 56.4572 32.2206C56.5971 31.9217 56.7732 31.6395 57.0197 31.4306C57.2724 31.2166 57.5866 31.0901 57.9773 31.0861L57.9799 31.0861C58.3859 31.0861 58.7106 31.2131 58.9714 31.4327C59.2256 31.6468 59.4062 31.9378 59.5509 32.2462L65.8752 37.5467ZM65.8752 37.5467L65.8756 37.4943M65.8752 37.5467L65.8756 37.4943M65.8756 37.4943C65.8793 36.9985 65.7674 36.5842 65.528 36.2731C65.2861 35.9589 64.9365 35.7791 64.524 35.7126L64.4842 35.9594L64.5247 35.7127C64.4649 35.7029 64.4052 35.6931 64.3453 35.6832C63.3472 35.519 62.3415 35.3536 61.329 35.239L61.3219 35.2382L61.3147 35.2378C61.2073 35.2319 61.1041 35.194 61.0183 35.1289L60.8673 35.3281L61.0183 35.1289C60.9326 35.0639 60.8682 34.9747 60.8334 34.8727L60.829 34.8598M65.8756 37.4943L60.829 34.8598M60.829 34.8598L60.8232 34.8474M60.829 34.8598L60.8232 34.8474M60.8232 34.8474C60.6159 34.4048 60.3989 33.9701 60.1837 33.5393M60.8232 34.8474L60.1837 33.5393M60.1837 33.5393L60.1791 33.5302M60.1837 33.5393L60.1791 33.5302M60.1791 33.5302C59.965 33.1015 59.7528 32.6766 59.5509 32.2463L60.1791 33.5302ZM61.2081 39.0671L61.2072 39.0679C60.865 39.3663 60.606 39.6966 60.4677 40.0832C60.3284 40.4724 60.3195 40.8964 60.4408 41.3669C60.5618 41.8375 60.6334 42.313 60.7132 42.8431C60.7274 42.9373 60.7419 43.0332 60.7569 43.1312C60.6604 43.0816 60.5652 43.0329 60.4712 42.9847C59.9807 42.7336 59.5219 42.4987 59.0798 42.2423C58.7216 42.0346 58.3598 41.9186 57.9875 41.9166C57.6144 41.9146 57.2508 42.0272 56.8902 42.2445C56.4398 42.5158 55.974 42.752 55.4668 43.0093C55.3826 43.052 55.2973 43.0953 55.2107 43.1394C55.2367 42.9762 55.2618 42.8172 55.2863 42.6613C55.375 42.0965 55.4573 41.573 55.558 41.0456C55.627 40.7409 55.6128 40.4231 55.5171 40.1256C55.4217 39.8291 55.2487 39.5637 55.0162 39.3567C54.6189 38.9602 54.2277 38.5582 53.8145 38.1334C53.7272 38.0437 53.639 37.9531 53.5496 37.8613C53.6326 37.8482 53.7147 37.8351 53.7962 37.8221C54.2834 37.7445 54.7461 37.6708 55.2179 37.6296L55.2182 37.6295C55.6739 37.589 56.0777 37.4697 56.4163 37.2353C56.7567 36.9997 57.0125 36.6607 57.1927 36.2129L57.1932 36.2115C57.3725 35.7578 57.5933 35.332 57.8393 34.8575C57.8819 34.7754 57.9252 34.6918 57.9692 34.6064C58.0041 34.6751 58.0386 34.7431 58.0727 34.8105C58.3589 35.3751 58.6217 35.8932 58.8713 36.4224C58.9949 36.7324 59.2015 37.0025 59.4686 37.2028C59.7368 37.4041 60.0554 37.5272 60.3893 37.5585C60.9421 37.6264 61.4832 37.7099 62.0682 37.8003C62.1876 37.8187 62.3087 37.8374 62.4322 37.8563C62.3709 37.9199 62.3107 37.9826 62.2513 38.0445C61.8959 38.415 61.5691 38.7556 61.2081 39.0671Z" fill="#662D91" stroke="#662D91" stroke-width="0.5"/>
</svg>
